G04 Generated by Ultiboard 13.0 *
%FSLAX25Y25*%
%MOIN*%

%ADD10C,0.00001*%
%ADD11C,0.00005*%
%ADD12C,0.00500*%
%ADD13C,0.03937*%
%ADD14P,0.05539X4*%
%ADD15C,0.01666*%
%ADD16C,0.06334*%
%ADD17P,0.02945X4*%
%ADD18C,0.03917*%
%ADD19P,0.02945X4X15*%
%ADD20P,0.05539X4X15*%
%ADD21R,0.05834X0.02251*%
%ADD22R,0.01772X0.05906*%
%ADD23R,0.03937X0.02362*%
%ADD24R,0.02334X0.02334*%
%ADD25C,0.08334*%
%ADD26R,0.02083X0.02083*%
%ADD27P,0.05567X4*%
%ADD28R,0.02251X0.05834*%
%ADD29R,0.04331X0.02362*%
%ADD30R,0.01181X0.10000*%
%ADD31C,0.00001*%
%ADD32R,0.10000X0.01181*%
%ADD33C,0.04156*%
%ADD34C,0.05337*%


G04 ColorRGB FF00CC for the following layer *
%LNSolder Mask Top*%
%LPD*%
G54D10*
G54D11*
G36*
X204049Y-34242D02*
X204049Y-29742D01*
X215053Y-29742D01*
X215053Y-34242D01*
X204049Y-34242D01*
G37*
G36*
X204049Y-42242D02*
X204049Y-37742D01*
X215053Y-37742D01*
X215053Y-42242D01*
X204049Y-42242D01*
G37*
G54D12*
X193024Y-203976D02*
X193024Y-173381D01*
X193024Y-203976D02*
X223619Y-203976D01*
X498976Y-203976D02*
X468381Y-203976D01*
X498976Y-203976D02*
X498976Y-173381D01*
X498976Y101976D02*
X498976Y71381D01*
X498976Y101976D02*
X468381Y101976D01*
X193024Y101976D02*
X223619Y101976D01*
X193024Y101976D02*
X193024Y71381D01*
X173339Y-203976D02*
X133969Y-203976D01*
X153654Y-223661D02*
X153654Y-184291D01*
X138890Y-203976D02*
G75*
D01*
G02X138890Y-203976I14764J0*
G01*
X518661Y-203976D02*
X558031Y-203976D01*
X538346Y-223661D02*
X538346Y-184291D01*
X523582Y-203976D02*
G75*
D01*
G02X523582Y-203976I14764J0*
G01*
X533425Y-203976D02*
G75*
D01*
G02X533425Y-203976I4921J0*
G01*
X173339Y101976D02*
X133969Y101976D01*
X153654Y82291D02*
X153654Y121661D01*
X138890Y101976D02*
G75*
D01*
G02X138890Y101976I14764J0*
G01*
X143811Y101976D02*
G75*
D01*
G02X143811Y101976I9843J0*
G01*
X148733Y101976D02*
G75*
D01*
G02X148733Y101976I4921J0*
G01*
G54D13*
X431000Y-80000D03*
X431000Y-6000D03*
X442000Y-26000D03*
X233000Y-114000D03*
X385000Y-182000D03*
X441000Y-75969D03*
X306000Y51000D03*
X314000Y16000D03*
X351000Y22000D03*
X451000Y-70000D03*
X451000Y-16000D03*
X465000Y-99000D03*
X459000Y-64000D03*
X459000Y-36000D03*
X425000Y-90000D03*
X425000Y-46000D03*
X418000Y-42000D03*
X410000Y-40000D03*
X317000Y-158000D03*
X351000Y-152000D03*
X310000Y-50000D03*
X293000Y-163000D03*
X396000Y59000D03*
X387000Y19000D03*
X357000Y57000D03*
X384000Y87000D03*
X363000Y65000D03*
X340031Y-12000D03*
X215000Y-5000D03*
X222000Y-5000D03*
X247000Y-54000D03*
X340000Y-27000D03*
X274000Y-82000D03*
X379000Y-121000D03*
X316000Y-44000D03*
X412000Y-106000D03*
X412000Y-99000D03*
X353000Y-128000D03*
X413000Y-56000D03*
X371000Y-61000D03*
X398000Y-121000D03*
X351000Y-31000D03*
X291000Y-114000D03*
X364000Y-86000D03*
X217000Y-103000D03*
X213000Y-98000D03*
X351000Y-94000D03*
X378000Y-77000D03*
X405000Y-112000D03*
X360000Y-31000D03*
G54D14*
X271735Y-115957D03*
X271558Y-115780D03*
X263957Y-123735D03*
X263780Y-123558D03*
X280220Y-124442D03*
X280043Y-124265D03*
X272442Y-132220D03*
X272265Y-132043D03*
X243978Y-124200D03*
X243800Y-124022D03*
X236200Y-131978D03*
X236022Y-131800D03*
X410200Y-136022D03*
X410022Y-136200D03*
X417978Y-143800D03*
X417800Y-143978D03*
G54D15*
X274505Y-117135D02*
X270380Y-113010D01*
X268788Y-114601D01*
X272913Y-118727D01*
X274505Y-117135D01*D02*
X266727Y-124913D02*
X262601Y-120788D01*
X261010Y-122380D01*
X265135Y-126505D01*
X266727Y-124913D01*D02*
X302279Y-183839D02*
X305196Y-178787D01*
X303247Y-177661D01*
X300330Y-182713D01*
X302279Y-183839D01*D02*
X292753Y-178339D02*
X295670Y-173287D01*
X293721Y-172161D01*
X290804Y-177213D01*
X292753Y-178339D01*D02*
X285083Y-154625D02*
X290917Y-154625D01*
X290917Y-152375D01*
X285083Y-152375D01*
X285083Y-154625D01*D02*
X285083Y-143625D02*
X290917Y-143625D01*
X290917Y-141375D01*
X285083Y-141375D01*
X285083Y-143625D01*D02*
X282990Y-125620D02*
X278865Y-121495D01*
X277273Y-123087D01*
X281399Y-127212D01*
X282990Y-125620D01*D02*
X275212Y-133399D02*
X271087Y-129273D01*
X269495Y-130865D01*
X273620Y-134990D01*
X275212Y-133399D01*D02*
X246748Y-125378D02*
X242622Y-121252D01*
X241031Y-122844D01*
X245156Y-126969D01*
X246748Y-125378D01*D02*
X238969Y-133156D02*
X234844Y-129031D01*
X233252Y-130622D01*
X237378Y-134748D01*
X238969Y-133156D01*D02*
X385083Y8375D02*
X390917Y8375D01*
X390917Y10625D01*
X385083Y10625D01*
X385083Y8375D01*D02*
X385083Y-2625D02*
X390917Y-2625D01*
X390917Y-375D01*
X385083Y-375D01*
X385083Y-2625D01*D02*
X329833Y-161000D02*
X332167Y-161000D01*
X332167Y-158666D01*
X329833Y-158666D01*
X329833Y-161000D01*D02*
X329833Y-169334D02*
X332167Y-169334D01*
X332167Y-167000D01*
X329833Y-167000D01*
X329833Y-169334D01*D02*
X339833Y-165167D02*
X342167Y-165167D01*
X342167Y-162833D01*
X339833Y-162833D01*
X339833Y-165167D01*D02*
X357833Y-161000D02*
X360167Y-161000D01*
X360167Y-158666D01*
X357833Y-158666D01*
X357833Y-161000D01*D02*
X357833Y-169334D02*
X360167Y-169334D01*
X360167Y-167000D01*
X357833Y-167000D01*
X357833Y-169334D01*D02*
X367833Y-165167D02*
X370167Y-165167D01*
X370167Y-162833D01*
X367833Y-162833D01*
X367833Y-165167D01*D02*
X325083Y-190625D02*
X330917Y-190625D01*
X330917Y-188375D01*
X325083Y-188375D01*
X325083Y-190625D01*D02*
X325083Y-179625D02*
X330917Y-179625D01*
X330917Y-177375D01*
X325083Y-177375D01*
X325083Y-179625D01*D02*
X337083Y-190625D02*
X342917Y-190625D01*
X342917Y-188375D01*
X337083Y-188375D01*
X337083Y-190625D01*D02*
X337083Y-179625D02*
X342917Y-179625D01*
X342917Y-177375D01*
X337083Y-177375D01*
X337083Y-179625D01*D02*
X355083Y-179625D02*
X360917Y-179625D01*
X360917Y-177375D01*
X355083Y-177375D01*
X355083Y-179625D01*D02*
X355083Y-190625D02*
X360917Y-190625D01*
X360917Y-188375D01*
X355083Y-188375D01*
X355083Y-190625D01*D02*
X367083Y-179625D02*
X372917Y-179625D01*
X372917Y-177375D01*
X367083Y-177375D01*
X367083Y-179625D01*D02*
X367083Y-190625D02*
X372917Y-190625D01*
X372917Y-188375D01*
X367083Y-188375D01*
X367083Y-190625D01*D02*
X375083Y-154625D02*
X380917Y-154625D01*
X380917Y-152375D01*
X375083Y-152375D01*
X375083Y-154625D01*D02*
X375083Y-143625D02*
X380917Y-143625D01*
X380917Y-141375D01*
X375083Y-141375D01*
X375083Y-143625D01*D02*
X387083Y-154625D02*
X392917Y-154625D01*
X392917Y-152375D01*
X387083Y-152375D01*
X387083Y-154625D01*D02*
X387083Y-143625D02*
X392917Y-143625D01*
X392917Y-141375D01*
X387083Y-141375D01*
X387083Y-143625D01*D02*
X301083Y8375D02*
X306917Y8375D01*
X306917Y10625D01*
X301083Y10625D01*
X301083Y8375D01*D02*
X301083Y-2625D02*
X306917Y-2625D01*
X306917Y-375D01*
X301083Y-375D01*
X301083Y-2625D01*D02*
X313083Y8375D02*
X318917Y8375D01*
X318917Y10625D01*
X313083Y10625D01*
X313083Y8375D01*D02*
X313083Y-2625D02*
X318917Y-2625D01*
X318917Y-375D01*
X313083Y-375D01*
X313083Y-2625D01*D02*
X325083Y-2625D02*
X330917Y-2625D01*
X330917Y-375D01*
X325083Y-375D01*
X325083Y-2625D01*D02*
X325083Y8375D02*
X330917Y8375D01*
X330917Y10625D01*
X325083Y10625D01*
X325083Y8375D01*D02*
X337083Y8375D02*
X342917Y8375D01*
X342917Y10625D01*
X337083Y10625D01*
X337083Y8375D01*D02*
X337083Y-2625D02*
X342917Y-2625D01*
X342917Y-375D01*
X337083Y-375D01*
X337083Y-2625D01*D02*
X349083Y8375D02*
X354917Y8375D01*
X354917Y10625D01*
X349083Y10625D01*
X349083Y8375D01*D02*
X349083Y-2625D02*
X354917Y-2625D01*
X354917Y-375D01*
X349083Y-375D01*
X349083Y-2625D01*D02*
X309083Y84375D02*
X314917Y84375D01*
X314917Y86625D01*
X309083Y86625D01*
X309083Y84375D01*D02*
X309083Y73375D02*
X314917Y73375D01*
X314917Y75625D01*
X309083Y75625D01*
X309083Y73375D01*D02*
X321083Y73375D02*
X326917Y73375D01*
X326917Y75625D01*
X321083Y75625D01*
X321083Y73375D01*D02*
X321083Y84375D02*
X326917Y84375D01*
X326917Y86625D01*
X321083Y86625D01*
X321083Y84375D01*D02*
X333083Y84375D02*
X338917Y84375D01*
X338917Y86625D01*
X333083Y86625D01*
X333083Y84375D01*D02*
X333083Y73375D02*
X338917Y73375D01*
X338917Y75625D01*
X333083Y75625D01*
X333083Y73375D01*D02*
X345083Y73375D02*
X350917Y73375D01*
X350917Y75625D01*
X345083Y75625D01*
X345083Y73375D01*D02*
X345083Y84375D02*
X350917Y84375D01*
X350917Y86625D01*
X345083Y86625D01*
X345083Y84375D01*D02*
X357083Y73375D02*
X362917Y73375D01*
X362917Y75625D01*
X357083Y75625D01*
X357083Y73375D01*D02*
X357083Y84375D02*
X362917Y84375D01*
X362917Y86625D01*
X357083Y86625D01*
X357083Y84375D01*D02*
X369083Y73375D02*
X374917Y73375D01*
X374917Y75625D01*
X369083Y75625D01*
X369083Y73375D01*D02*
X369083Y84375D02*
X374917Y84375D01*
X374917Y86625D01*
X369083Y86625D01*
X369083Y84375D01*D02*
X393083Y78375D02*
X398917Y78375D01*
X398917Y80625D01*
X393083Y80625D01*
X393083Y78375D01*D02*
X393083Y67375D02*
X398917Y67375D01*
X398917Y69625D01*
X393083Y69625D01*
X393083Y67375D01*D02*
X451083Y-98625D02*
X456917Y-98625D01*
X456917Y-96375D01*
X451083Y-96375D01*
X451083Y-98625D01*D02*
X451083Y-87625D02*
X456917Y-87625D01*
X456917Y-85375D01*
X451083Y-85375D01*
X451083Y-87625D01*D02*
X439083Y-98625D02*
X444917Y-98625D01*
X444917Y-96375D01*
X439083Y-96375D01*
X439083Y-98625D01*D02*
X439083Y-87625D02*
X444917Y-87625D01*
X444917Y-85375D01*
X439083Y-85375D01*
X439083Y-87625D01*D02*
X317083Y50375D02*
X322917Y50375D01*
X322917Y52625D01*
X317083Y52625D01*
X317083Y50375D01*D02*
X317083Y39375D02*
X322917Y39375D01*
X322917Y41625D01*
X317083Y41625D01*
X317083Y39375D01*D02*
X297083Y-154625D02*
X302917Y-154625D01*
X302917Y-152375D01*
X297083Y-152375D01*
X297083Y-154625D01*D02*
X297083Y-143625D02*
X302917Y-143625D01*
X302917Y-141375D01*
X297083Y-141375D01*
X297083Y-143625D01*D02*
X411378Y-133252D02*
X407252Y-137378D01*
X408844Y-138969D01*
X412969Y-134844D01*
X411378Y-133252D01*D02*
X419156Y-141031D02*
X415031Y-145156D01*
X416622Y-146748D01*
X420748Y-142622D01*
X419156Y-141031D01*D02*
X384375Y-34917D02*
X386625Y-34917D01*
X386625Y-29083D01*
X384375Y-29083D01*
X384375Y-34917D01*D02*
X373375Y-34917D02*
X375625Y-34917D01*
X375625Y-29083D01*
X373375Y-29083D01*
X373375Y-34917D01*D02*
X384375Y-22917D02*
X386625Y-22917D01*
X386625Y-17083D01*
X384375Y-17083D01*
X384375Y-22917D01*D02*
X373375Y-22917D02*
X375625Y-22917D01*
X375625Y-17083D01*
X373375Y-17083D01*
X373375Y-22917D01*D02*
X221375Y-18917D02*
X223625Y-18917D01*
X223625Y-13083D01*
X221375Y-13083D01*
X221375Y-18917D01*D02*
X232375Y-18917D02*
X234625Y-18917D01*
X234625Y-13083D01*
X232375Y-13083D01*
X232375Y-18917D01*D02*
X255375Y-56917D02*
X257625Y-56917D01*
X257625Y-51083D01*
X255375Y-51083D01*
X255375Y-56917D01*D02*
X266375Y-56917D02*
X268625Y-56917D01*
X268625Y-51083D01*
X266375Y-51083D01*
X266375Y-56917D01*D02*
X243083Y-31625D02*
X248917Y-31625D01*
X248917Y-29375D01*
X243083Y-29375D01*
X243083Y-31625D01*D02*
X243083Y-42625D02*
X248917Y-42625D01*
X248917Y-40375D01*
X243083Y-40375D01*
X243083Y-42625D01*D02*
X383083Y39375D02*
X388917Y39375D01*
X388917Y41625D01*
X383083Y41625D01*
X383083Y39375D01*D02*
X383083Y50375D02*
X388917Y50375D01*
X388917Y52625D01*
X383083Y52625D01*
X383083Y50375D01*D02*
X381083Y78375D02*
X386917Y78375D01*
X386917Y80625D01*
X381083Y80625D01*
X381083Y78375D01*D02*
X381083Y67375D02*
X386917Y67375D01*
X386917Y69625D01*
X381083Y69625D01*
X381083Y67375D01*D02*
X371083Y39375D02*
X376917Y39375D01*
X376917Y41625D01*
X371083Y41625D01*
X371083Y39375D01*D02*
X371083Y50375D02*
X376917Y50375D01*
X376917Y52625D01*
X371083Y52625D01*
X371083Y50375D01*D02*
X245083Y-71625D02*
X250917Y-71625D01*
X250917Y-69375D01*
X245083Y-69375D01*
X245083Y-71625D01*D02*
X245083Y-82625D02*
X250917Y-82625D01*
X250917Y-80375D01*
X245083Y-80375D01*
X245083Y-82625D01*D02*
X281083Y-82625D02*
X286917Y-82625D01*
X286917Y-80375D01*
X281083Y-80375D01*
X281083Y-82625D01*D02*
X281083Y-71625D02*
X286917Y-71625D01*
X286917Y-69375D01*
X281083Y-69375D01*
X281083Y-71625D01*D02*
X293083Y-71625D02*
X298917Y-71625D01*
X298917Y-69375D01*
X293083Y-69375D01*
X293083Y-71625D01*D02*
X293083Y-82625D02*
X298917Y-82625D01*
X298917Y-80375D01*
X293083Y-80375D01*
X293083Y-82625D01*D02*
X297083Y-99625D02*
X302917Y-99625D01*
X302917Y-97375D01*
X297083Y-97375D01*
X297083Y-99625D01*D02*
X297083Y-110625D02*
X302917Y-110625D01*
X302917Y-108375D01*
X297083Y-108375D01*
X297083Y-110625D01*D02*
X309083Y-110625D02*
X314917Y-110625D01*
X314917Y-108375D01*
X309083Y-108375D01*
X309083Y-110625D01*D02*
X309083Y-99625D02*
X314917Y-99625D01*
X314917Y-97375D01*
X309083Y-97375D01*
X309083Y-99625D01*D02*
X344608Y-126917D02*
X346858Y-126917D01*
X346858Y-121083D01*
X344608Y-121083D01*
X344608Y-126917D01*D02*
X333608Y-126917D02*
X335858Y-126917D01*
X335858Y-121083D01*
X333608Y-121083D01*
X333608Y-126917D01*D02*
X221083Y-83625D02*
X226917Y-83625D01*
X226917Y-81375D01*
X221083Y-81375D01*
X221083Y-83625D01*D02*
X221083Y-94625D02*
X226917Y-94625D01*
X226917Y-92375D01*
X221083Y-92375D01*
X221083Y-94625D01*D02*
G54D16*
X253571Y-134929D03*
X260642Y-142000D03*
X253571Y-149071D03*
X282660Y-170500D03*
X410000Y10000D03*
X420000Y0D03*
X420000Y10000D03*
X304500Y23000D03*
X428787Y-151713D03*
X442929Y-137571D03*
X435858Y-144642D03*
X364000Y-500D03*
X222000Y-61000D03*
X412500Y52000D03*
X482000Y-86000D03*
X482000Y-16000D03*
X482000Y-26000D03*
X482000Y-66000D03*
X482000Y-36000D03*
X482000Y-46000D03*
X482000Y-56000D03*
X482000Y-96000D03*
X482000Y-76000D03*
X322000Y-18500D03*
G54D17*
X246500Y-142000D03*
X450000Y-130500D03*
G54D18*
X245027Y-142000D02*
X246500Y-143473D01*
X247973Y-142000D01*
X246500Y-140527D01*
X245027Y-142000D01*D02*
X272577Y-165881D02*
X274381Y-166923D01*
X275423Y-165119D01*
X273619Y-164077D01*
X272577Y-165881D01*D02*
X408959Y-1041D02*
X411041Y-1041D01*
X411041Y1041D01*
X408959Y1041D01*
X408959Y-1041D01*D02*
X303459Y31959D02*
X305541Y31959D01*
X305541Y34041D01*
X303459Y34041D01*
X303459Y31959D01*D02*
X450000Y-129027D02*
X448527Y-130500D01*
X450000Y-131973D01*
X451473Y-130500D01*
X450000Y-129027D01*D02*
X362959Y8459D02*
X365041Y8459D01*
X365041Y10541D01*
X362959Y10541D01*
X362959Y8459D01*D02*
X230959Y-62041D02*
X233041Y-62041D01*
X233041Y-59959D01*
X230959Y-59959D01*
X230959Y-62041D01*D02*
X411459Y40959D02*
X413541Y40959D01*
X413541Y43041D01*
X411459Y43041D01*
X411459Y40959D01*D02*
X480959Y-7041D02*
X483041Y-7041D01*
X483041Y-4959D01*
X480959Y-4959D01*
X480959Y-7041D01*D02*
X320959Y-29541D02*
X323041Y-29541D01*
X323041Y-27459D01*
X320959Y-27459D01*
X320959Y-29541D01*D02*
G54D19*
X274000Y-165500D03*
G54D20*
X302700Y-180859D03*
X302826Y-180641D03*
X293174Y-175359D03*
X293300Y-175141D03*
G54D21*
X288000Y-153500D03*
X288000Y-142500D03*
X388000Y9500D03*
X388000Y-1500D03*
X328000Y-189500D03*
X328000Y-178500D03*
X340000Y-189500D03*
X340000Y-178500D03*
X358000Y-178500D03*
X358000Y-189500D03*
X370000Y-178500D03*
X370000Y-189500D03*
X378000Y-153500D03*
X378000Y-142500D03*
X390000Y-153500D03*
X390000Y-142500D03*
X304000Y9500D03*
X304000Y-1500D03*
X316000Y9500D03*
X316000Y-1500D03*
X328000Y-1500D03*
X328000Y9500D03*
X340000Y9500D03*
X340000Y-1500D03*
X352000Y9500D03*
X352000Y-1500D03*
X312000Y85500D03*
X312000Y74500D03*
X324000Y74500D03*
X324000Y85500D03*
X336000Y85500D03*
X336000Y74500D03*
X348000Y74500D03*
X348000Y85500D03*
X360000Y74500D03*
X360000Y85500D03*
X372000Y74500D03*
X372000Y85500D03*
X396000Y79500D03*
X396000Y68500D03*
X454000Y-97500D03*
X454000Y-86500D03*
X442000Y-97500D03*
X442000Y-86500D03*
X320000Y51500D03*
X320000Y40500D03*
X300000Y-153500D03*
X300000Y-142500D03*
X246000Y-30500D03*
X246000Y-41500D03*
X386000Y40500D03*
X386000Y51500D03*
X384000Y79500D03*
X384000Y68500D03*
X374000Y40500D03*
X374000Y51500D03*
X248000Y-70500D03*
X248000Y-81500D03*
X284000Y-81500D03*
X284000Y-70500D03*
X296000Y-70500D03*
X296000Y-81500D03*
X300000Y-98500D03*
X300000Y-109500D03*
X312000Y-109500D03*
X312000Y-98500D03*
X224000Y-82500D03*
X224000Y-93500D03*
G54D22*
X336323Y34583D03*
X338882Y34583D03*
X341441Y34583D03*
X344000Y34583D03*
X346559Y34583D03*
X349118Y34583D03*
X351677Y34583D03*
X338882Y57417D03*
X336323Y57417D03*
X341441Y57417D03*
X346559Y57417D03*
X344000Y57417D03*
X349118Y57417D03*
X351677Y57417D03*
G54D23*
X357472Y-143740D03*
X357472Y-136260D03*
X366528Y-140000D03*
X329472Y-143740D03*
X329472Y-136260D03*
X338528Y-140000D03*
G54D24*
X331000Y-159833D03*
X331000Y-168167D03*
X341000Y-164000D03*
X359000Y-159833D03*
X359000Y-168167D03*
X369000Y-164000D03*
G54D25*
X375500Y10000D03*
X294500Y73500D03*
X398500Y42000D03*
X277500Y65000D03*
G54D26*
X410000Y0D03*
X304500Y33000D03*
X364000Y9500D03*
X232000Y-61000D03*
X412500Y42000D03*
X482000Y-6000D03*
X322000Y-28500D03*
G54D27*
X407667Y-154780D03*
X408780Y-153667D03*
X419220Y-166333D03*
X420333Y-165220D03*
G54D28*
X385500Y-32000D03*
X374500Y-32000D03*
X385500Y-20000D03*
X374500Y-20000D03*
X222500Y-16000D03*
X233500Y-16000D03*
X256500Y-54000D03*
X267500Y-54000D03*
X345733Y-124000D03*
X334733Y-124000D03*
G54D29*
X256882Y-39740D03*
X267118Y-39740D03*
X256882Y-36000D03*
X256882Y-32260D03*
X267118Y-32260D03*
G54D30*
X338378Y-109421D03*
X342315Y-109421D03*
X340346Y-109421D03*
X344283Y-109421D03*
X346252Y-109421D03*
X348220Y-109421D03*
X350189Y-109421D03*
X352157Y-109421D03*
X354126Y-109421D03*
X358063Y-109421D03*
X356094Y-109421D03*
X360031Y-109421D03*
X362000Y-109421D03*
X367906Y-109421D03*
X363969Y-109421D03*
X365937Y-109421D03*
X369874Y-109421D03*
X373811Y-109421D03*
X371843Y-109421D03*
X375780Y-109421D03*
X377748Y-109421D03*
X379717Y-109421D03*
X381685Y-109421D03*
X383654Y-109421D03*
X385622Y-109421D03*
X338378Y-47079D03*
X342315Y-47079D03*
X340346Y-47079D03*
X344283Y-47079D03*
X346252Y-47079D03*
X348220Y-47079D03*
X350189Y-47079D03*
X352157Y-47079D03*
X354126Y-47079D03*
X360031Y-47079D03*
X358063Y-47079D03*
X356094Y-47079D03*
X362000Y-47079D03*
X365937Y-47079D03*
X363969Y-47079D03*
X367906Y-47079D03*
X369874Y-47079D03*
X373811Y-47079D03*
X371843Y-47079D03*
X375780Y-47079D03*
X377748Y-47079D03*
X379717Y-47079D03*
X381685Y-47079D03*
X383654Y-47079D03*
X385622Y-47079D03*
G54D31*
X337788Y-114421D02*
X338968Y-114421D01*
X338968Y-104421D01*
X337788Y-104421D01*
X337788Y-114421D01*D02*
X341725Y-114421D02*
X342905Y-114421D01*
X342905Y-104421D01*
X341725Y-104421D01*
X341725Y-114421D01*D02*
X339756Y-114421D02*
X340936Y-114421D01*
X340936Y-104421D01*
X339756Y-104421D01*
X339756Y-114421D01*D02*
X343693Y-114421D02*
X344873Y-114421D01*
X344873Y-104421D01*
X343693Y-104421D01*
X343693Y-114421D01*D02*
X345662Y-114421D02*
X346842Y-114421D01*
X346842Y-104421D01*
X345662Y-104421D01*
X345662Y-114421D01*D02*
X347630Y-114421D02*
X348810Y-114421D01*
X348810Y-104421D01*
X347630Y-104421D01*
X347630Y-114421D01*D02*
X349599Y-114421D02*
X350779Y-114421D01*
X350779Y-104421D01*
X349599Y-104421D01*
X349599Y-114421D01*D02*
X351567Y-114421D02*
X352747Y-114421D01*
X352747Y-104421D01*
X351567Y-104421D01*
X351567Y-114421D01*D02*
X353536Y-114421D02*
X354716Y-114421D01*
X354716Y-104421D01*
X353536Y-104421D01*
X353536Y-114421D01*D02*
X357473Y-114421D02*
X358653Y-114421D01*
X358653Y-104421D01*
X357473Y-104421D01*
X357473Y-114421D01*D02*
X355504Y-114421D02*
X356684Y-114421D01*
X356684Y-104421D01*
X355504Y-104421D01*
X355504Y-114421D01*D02*
X359441Y-114421D02*
X360621Y-114421D01*
X360621Y-104421D01*
X359441Y-104421D01*
X359441Y-114421D01*D02*
X361410Y-114421D02*
X362590Y-114421D01*
X362590Y-104421D01*
X361410Y-104421D01*
X361410Y-114421D01*D02*
X367316Y-114421D02*
X368496Y-114421D01*
X368496Y-104421D01*
X367316Y-104421D01*
X367316Y-114421D01*D02*
X363379Y-114421D02*
X364559Y-114421D01*
X364559Y-104421D01*
X363379Y-104421D01*
X363379Y-114421D01*D02*
X365347Y-114421D02*
X366527Y-114421D01*
X366527Y-104421D01*
X365347Y-104421D01*
X365347Y-114421D01*D02*
X369284Y-114421D02*
X370464Y-114421D01*
X370464Y-104421D01*
X369284Y-104421D01*
X369284Y-114421D01*D02*
X373221Y-114421D02*
X374401Y-114421D01*
X374401Y-104421D01*
X373221Y-104421D01*
X373221Y-114421D01*D02*
X371253Y-114421D02*
X372433Y-114421D01*
X372433Y-104421D01*
X371253Y-104421D01*
X371253Y-114421D01*D02*
X375190Y-114421D02*
X376370Y-114421D01*
X376370Y-104421D01*
X375190Y-104421D01*
X375190Y-114421D01*D02*
X377158Y-114421D02*
X378338Y-114421D01*
X378338Y-104421D01*
X377158Y-104421D01*
X377158Y-114421D01*D02*
X379127Y-114421D02*
X380307Y-114421D01*
X380307Y-104421D01*
X379127Y-104421D01*
X379127Y-114421D01*D02*
X381095Y-114421D02*
X382275Y-114421D01*
X382275Y-104421D01*
X381095Y-104421D01*
X381095Y-114421D01*D02*
X383064Y-114421D02*
X384244Y-114421D01*
X384244Y-104421D01*
X383064Y-104421D01*
X383064Y-114421D01*D02*
X385032Y-114421D02*
X386212Y-114421D01*
X386212Y-104421D01*
X385032Y-104421D01*
X385032Y-114421D01*D02*
X325579Y-102212D02*
X335579Y-102212D01*
X335579Y-101032D01*
X325579Y-101032D01*
X325579Y-102212D01*D02*
X388421Y-102212D02*
X398421Y-102212D01*
X398421Y-101032D01*
X388421Y-101032D01*
X388421Y-102212D01*D02*
X325579Y-96307D02*
X335579Y-96307D01*
X335579Y-95127D01*
X325579Y-95127D01*
X325579Y-96307D01*D02*
X325579Y-98275D02*
X335579Y-98275D01*
X335579Y-97095D01*
X325579Y-97095D01*
X325579Y-98275D01*D02*
X325579Y-100244D02*
X335579Y-100244D01*
X335579Y-99064D01*
X325579Y-99064D01*
X325579Y-100244D01*D02*
X325579Y-94338D02*
X335579Y-94338D01*
X335579Y-93158D01*
X325579Y-93158D01*
X325579Y-94338D01*D02*
X388421Y-96307D02*
X398421Y-96307D01*
X398421Y-95127D01*
X388421Y-95127D01*
X388421Y-96307D01*D02*
X388421Y-98275D02*
X398421Y-98275D01*
X398421Y-97095D01*
X388421Y-97095D01*
X388421Y-98275D01*D02*
X388421Y-100244D02*
X398421Y-100244D01*
X398421Y-99064D01*
X388421Y-99064D01*
X388421Y-100244D01*D02*
X388421Y-94338D02*
X398421Y-94338D01*
X398421Y-93158D01*
X388421Y-93158D01*
X388421Y-94338D01*D02*
X325579Y-92370D02*
X335579Y-92370D01*
X335579Y-91190D01*
X325579Y-91190D01*
X325579Y-92370D01*D02*
X325579Y-90401D02*
X335579Y-90401D01*
X335579Y-89221D01*
X325579Y-89221D01*
X325579Y-90401D01*D02*
X325579Y-88433D02*
X335579Y-88433D01*
X335579Y-87253D01*
X325579Y-87253D01*
X325579Y-88433D01*D02*
X325579Y-86464D02*
X335579Y-86464D01*
X335579Y-85284D01*
X325579Y-85284D01*
X325579Y-86464D01*D02*
X388421Y-90401D02*
X398421Y-90401D01*
X398421Y-89221D01*
X388421Y-89221D01*
X388421Y-90401D01*D02*
X388421Y-92370D02*
X398421Y-92370D01*
X398421Y-91190D01*
X388421Y-91190D01*
X388421Y-92370D01*D02*
X388421Y-88433D02*
X398421Y-88433D01*
X398421Y-87253D01*
X388421Y-87253D01*
X388421Y-88433D01*D02*
X388421Y-86464D02*
X398421Y-86464D01*
X398421Y-85284D01*
X388421Y-85284D01*
X388421Y-86464D01*D02*
X325579Y-80559D02*
X335579Y-80559D01*
X335579Y-79379D01*
X325579Y-79379D01*
X325579Y-80559D01*D02*
X325579Y-82527D02*
X335579Y-82527D01*
X335579Y-81347D01*
X325579Y-81347D01*
X325579Y-82527D01*D02*
X325579Y-84496D02*
X335579Y-84496D01*
X335579Y-83316D01*
X325579Y-83316D01*
X325579Y-84496D01*D02*
X325579Y-78590D02*
X335579Y-78590D01*
X335579Y-77410D01*
X325579Y-77410D01*
X325579Y-78590D01*D02*
X388421Y-80559D02*
X398421Y-80559D01*
X398421Y-79379D01*
X388421Y-79379D01*
X388421Y-80559D01*D02*
X388421Y-82527D02*
X398421Y-82527D01*
X398421Y-81347D01*
X388421Y-81347D01*
X388421Y-82527D01*D02*
X388421Y-84496D02*
X398421Y-84496D01*
X398421Y-83316D01*
X388421Y-83316D01*
X388421Y-84496D01*D02*
X388421Y-78590D02*
X398421Y-78590D01*
X398421Y-77410D01*
X388421Y-77410D01*
X388421Y-78590D01*D02*
X325579Y-76621D02*
X335579Y-76621D01*
X335579Y-75441D01*
X325579Y-75441D01*
X325579Y-76621D01*D02*
X325579Y-74653D02*
X335579Y-74653D01*
X335579Y-73473D01*
X325579Y-73473D01*
X325579Y-74653D01*D02*
X325579Y-72684D02*
X335579Y-72684D01*
X335579Y-71504D01*
X325579Y-71504D01*
X325579Y-72684D01*D02*
X325579Y-70716D02*
X335579Y-70716D01*
X335579Y-69536D01*
X325579Y-69536D01*
X325579Y-70716D01*D02*
X388421Y-76621D02*
X398421Y-76621D01*
X398421Y-75441D01*
X388421Y-75441D01*
X388421Y-76621D01*D02*
X388421Y-74653D02*
X398421Y-74653D01*
X398421Y-73473D01*
X388421Y-73473D01*
X388421Y-74653D01*D02*
X388421Y-72684D02*
X398421Y-72684D01*
X398421Y-71504D01*
X388421Y-71504D01*
X388421Y-72684D01*D02*
X388421Y-70716D02*
X398421Y-70716D01*
X398421Y-69536D01*
X388421Y-69536D01*
X388421Y-70716D01*D02*
X325579Y-64810D02*
X335579Y-64810D01*
X335579Y-63630D01*
X325579Y-63630D01*
X325579Y-64810D01*D02*
X325579Y-66779D02*
X335579Y-66779D01*
X335579Y-65599D01*
X325579Y-65599D01*
X325579Y-66779D01*D02*
X325579Y-68747D02*
X335579Y-68747D01*
X335579Y-67567D01*
X325579Y-67567D01*
X325579Y-68747D01*D02*
X325579Y-62842D02*
X335579Y-62842D01*
X335579Y-61662D01*
X325579Y-61662D01*
X325579Y-62842D01*D02*
X388421Y-64810D02*
X398421Y-64810D01*
X398421Y-63630D01*
X388421Y-63630D01*
X388421Y-64810D01*D02*
X388421Y-66779D02*
X398421Y-66779D01*
X398421Y-65599D01*
X388421Y-65599D01*
X388421Y-66779D01*D02*
X388421Y-68747D02*
X398421Y-68747D01*
X398421Y-67567D01*
X388421Y-67567D01*
X388421Y-68747D01*D02*
X388421Y-62842D02*
X398421Y-62842D01*
X398421Y-61662D01*
X388421Y-61662D01*
X388421Y-62842D01*D02*
X325579Y-60873D02*
X335579Y-60873D01*
X335579Y-59693D01*
X325579Y-59693D01*
X325579Y-60873D01*D02*
X325579Y-58905D02*
X335579Y-58905D01*
X335579Y-57725D01*
X325579Y-57725D01*
X325579Y-58905D01*D02*
X325579Y-56936D02*
X335579Y-56936D01*
X335579Y-55756D01*
X325579Y-55756D01*
X325579Y-56936D01*D02*
X325579Y-54968D02*
X335579Y-54968D01*
X335579Y-53788D01*
X325579Y-53788D01*
X325579Y-54968D01*D02*
X388421Y-58905D02*
X398421Y-58905D01*
X398421Y-57725D01*
X388421Y-57725D01*
X388421Y-58905D01*D02*
X388421Y-60873D02*
X398421Y-60873D01*
X398421Y-59693D01*
X388421Y-59693D01*
X388421Y-60873D01*D02*
X388421Y-56936D02*
X398421Y-56936D01*
X398421Y-55756D01*
X388421Y-55756D01*
X388421Y-56936D01*D02*
X388421Y-54968D02*
X398421Y-54968D01*
X398421Y-53788D01*
X388421Y-53788D01*
X388421Y-54968D01*D02*
X337788Y-52079D02*
X338968Y-52079D01*
X338968Y-42079D01*
X337788Y-42079D01*
X337788Y-52079D01*D02*
X341725Y-52079D02*
X342905Y-52079D01*
X342905Y-42079D01*
X341725Y-42079D01*
X341725Y-52079D01*D02*
X339756Y-52079D02*
X340936Y-52079D01*
X340936Y-42079D01*
X339756Y-42079D01*
X339756Y-52079D01*D02*
X343693Y-52079D02*
X344873Y-52079D01*
X344873Y-42079D01*
X343693Y-42079D01*
X343693Y-52079D01*D02*
X345662Y-52079D02*
X346842Y-52079D01*
X346842Y-42079D01*
X345662Y-42079D01*
X345662Y-52079D01*D02*
X347630Y-52079D02*
X348810Y-52079D01*
X348810Y-42079D01*
X347630Y-42079D01*
X347630Y-52079D01*D02*
X349599Y-52079D02*
X350779Y-52079D01*
X350779Y-42079D01*
X349599Y-42079D01*
X349599Y-52079D01*D02*
X351567Y-52079D02*
X352747Y-52079D01*
X352747Y-42079D01*
X351567Y-42079D01*
X351567Y-52079D01*D02*
X353536Y-52079D02*
X354716Y-52079D01*
X354716Y-42079D01*
X353536Y-42079D01*
X353536Y-52079D01*D02*
X359441Y-52079D02*
X360621Y-52079D01*
X360621Y-42079D01*
X359441Y-42079D01*
X359441Y-52079D01*D02*
X357473Y-52079D02*
X358653Y-52079D01*
X358653Y-42079D01*
X357473Y-42079D01*
X357473Y-52079D01*D02*
X355504Y-52079D02*
X356684Y-52079D01*
X356684Y-42079D01*
X355504Y-42079D01*
X355504Y-52079D01*D02*
X361410Y-52079D02*
X362590Y-52079D01*
X362590Y-42079D01*
X361410Y-42079D01*
X361410Y-52079D01*D02*
X365347Y-52079D02*
X366527Y-52079D01*
X366527Y-42079D01*
X365347Y-42079D01*
X365347Y-52079D01*D02*
X363379Y-52079D02*
X364559Y-52079D01*
X364559Y-42079D01*
X363379Y-42079D01*
X363379Y-52079D01*D02*
X367316Y-52079D02*
X368496Y-52079D01*
X368496Y-42079D01*
X367316Y-42079D01*
X367316Y-52079D01*D02*
X369284Y-52079D02*
X370464Y-52079D01*
X370464Y-42079D01*
X369284Y-42079D01*
X369284Y-52079D01*D02*
X373221Y-52079D02*
X374401Y-52079D01*
X374401Y-42079D01*
X373221Y-42079D01*
X373221Y-52079D01*D02*
X371253Y-52079D02*
X372433Y-52079D01*
X372433Y-42079D01*
X371253Y-42079D01*
X371253Y-52079D01*D02*
X375190Y-52079D02*
X376370Y-52079D01*
X376370Y-42079D01*
X375190Y-42079D01*
X375190Y-52079D01*D02*
X377158Y-52079D02*
X378338Y-52079D01*
X378338Y-42079D01*
X377158Y-42079D01*
X377158Y-52079D01*D02*
X379127Y-52079D02*
X380307Y-52079D01*
X380307Y-42079D01*
X379127Y-42079D01*
X379127Y-52079D01*D02*
X381095Y-52079D02*
X382275Y-52079D01*
X382275Y-42079D01*
X381095Y-42079D01*
X381095Y-52079D01*D02*
X383064Y-52079D02*
X384244Y-52079D01*
X384244Y-42079D01*
X383064Y-42079D01*
X383064Y-52079D01*D02*
X385032Y-52079D02*
X386212Y-52079D01*
X386212Y-42079D01*
X385032Y-42079D01*
X385032Y-52079D01*D02*
G54D32*
X330579Y-101622D03*
X393421Y-101622D03*
X330579Y-95717D03*
X330579Y-97685D03*
X330579Y-99654D03*
X330579Y-93748D03*
X393421Y-95717D03*
X393421Y-97685D03*
X393421Y-99654D03*
X393421Y-93748D03*
X330579Y-91780D03*
X330579Y-89811D03*
X330579Y-87843D03*
X330579Y-85874D03*
X393421Y-89811D03*
X393421Y-91780D03*
X393421Y-87843D03*
X393421Y-85874D03*
X330579Y-79969D03*
X330579Y-81937D03*
X330579Y-83906D03*
X330579Y-78000D03*
X393421Y-79969D03*
X393421Y-81937D03*
X393421Y-83906D03*
X393421Y-78000D03*
X330579Y-76031D03*
X330579Y-74063D03*
X330579Y-72094D03*
X330579Y-70126D03*
X393421Y-76031D03*
X393421Y-74063D03*
X393421Y-72094D03*
X393421Y-70126D03*
X330579Y-64220D03*
X330579Y-66189D03*
X330579Y-68157D03*
X330579Y-62252D03*
X393421Y-64220D03*
X393421Y-66189D03*
X393421Y-68157D03*
X393421Y-62252D03*
X330579Y-60283D03*
X330579Y-58315D03*
X330579Y-56346D03*
X330579Y-54378D03*
X393421Y-58315D03*
X393421Y-60283D03*
X393421Y-56346D03*
X393421Y-54378D03*
G54D33*
X209551Y-32012D03*
X209551Y-39886D03*
G54D34*
X227051Y-40949D03*
X227051Y-30949D03*

M02*
