G04 Generated by Ultiboard 13.0 *
%FSLAX25Y25*%
%MOIN*%

%ADD10C,0.00001*%
%ADD11C,0.00500*%


G04 ColorRGB FF14FF for the following layer *
%LNSilkscreen Bottom*%
%LPD*%
G54D10*
G54D11*
X193024Y-203976D02*
X193024Y-173381D01*
X193024Y-203976D02*
X223619Y-203976D01*
X498976Y-203976D02*
X468381Y-203976D01*
X498976Y-203976D02*
X498976Y-173381D01*
X498976Y101976D02*
X498976Y71381D01*
X498976Y101976D02*
X468381Y101976D01*
X193024Y101976D02*
X223619Y101976D01*
X193024Y101976D02*
X193024Y71381D01*
X173339Y-203976D02*
X133969Y-203976D01*
X153654Y-223661D02*
X153654Y-184291D01*
X138890Y-203976D02*
G75*
D01*
G02X138890Y-203976I14764J0*
G01*
X518661Y-203976D02*
X558031Y-203976D01*
X538346Y-223661D02*
X538346Y-184291D01*
X523582Y-203976D02*
G75*
D01*
G02X523582Y-203976I14764J0*
G01*
X533425Y-203976D02*
G75*
D01*
G02X533425Y-203976I4921J0*
G01*
X173339Y101976D02*
X133969Y101976D01*
X153654Y82291D02*
X153654Y121661D01*
X138890Y101976D02*
G75*
D01*
G02X138890Y101976I14764J0*
G01*
X143811Y101976D02*
G75*
D01*
G02X143811Y101976I9843J0*
G01*
X148733Y101976D02*
G75*
D01*
G02X148733Y101976I4921J0*
G01*

M02*
