G04 Generated by Ultiboard 13.0 *
%FSLAX25Y25*%
%MOIN*%

%ADD10C,0.00001*%
%ADD11C,0.00039*%
%ADD12C,0.00394*%
%ADD13C,0.00005*%
%ADD14C,0.00500*%


G04 ColorRGB 000000 for the following layer *
%LNDrill Symbols-Copper Top-Copper Bottom*%
%LPD*%
G54D11*
X429819Y-80000D02*
X432181Y-80000D01*
X431000Y-81181D02*
X431000Y-78819D01*
X429819Y-6000D02*
X432181Y-6000D01*
X431000Y-7181D02*
X431000Y-4819D01*
X440819Y-26000D02*
X443181Y-26000D01*
X442000Y-27181D02*
X442000Y-24819D01*
X231819Y-114000D02*
X234181Y-114000D01*
X233000Y-115181D02*
X233000Y-112819D01*
X383819Y-182000D02*
X386181Y-182000D01*
X385000Y-183181D02*
X385000Y-180819D01*
X439819Y-75969D02*
X442181Y-75969D01*
X441000Y-77150D02*
X441000Y-74787D01*
X304819Y51000D02*
X307181Y51000D01*
X306000Y49819D02*
X306000Y52181D01*
X312819Y16000D02*
X315181Y16000D01*
X314000Y14819D02*
X314000Y17181D01*
X349819Y22000D02*
X352181Y22000D01*
X351000Y20819D02*
X351000Y23181D01*
X449819Y-70000D02*
X452181Y-70000D01*
X451000Y-71181D02*
X451000Y-68819D01*
X449819Y-16000D02*
X452181Y-16000D01*
X451000Y-17181D02*
X451000Y-14819D01*
X463819Y-99000D02*
X466181Y-99000D01*
X465000Y-100181D02*
X465000Y-97819D01*
X457819Y-64000D02*
X460181Y-64000D01*
X459000Y-65181D02*
X459000Y-62819D01*
X457819Y-36000D02*
X460181Y-36000D01*
X459000Y-37181D02*
X459000Y-34819D01*
X423819Y-90000D02*
X426181Y-90000D01*
X425000Y-91181D02*
X425000Y-88819D01*
X423819Y-46000D02*
X426181Y-46000D01*
X425000Y-47181D02*
X425000Y-44819D01*
X416819Y-42000D02*
X419181Y-42000D01*
X418000Y-43181D02*
X418000Y-40819D01*
X408819Y-40000D02*
X411181Y-40000D01*
X410000Y-41181D02*
X410000Y-38819D01*
X315819Y-158000D02*
X318181Y-158000D01*
X317000Y-159181D02*
X317000Y-156819D01*
X349819Y-152000D02*
X352181Y-152000D01*
X351000Y-153181D02*
X351000Y-150819D01*
X308819Y-50000D02*
X311181Y-50000D01*
X310000Y-51181D02*
X310000Y-48819D01*
X291819Y-163000D02*
X294181Y-163000D01*
X293000Y-164181D02*
X293000Y-161819D01*
X394819Y59000D02*
X397181Y59000D01*
X396000Y57819D02*
X396000Y60181D01*
X385819Y19000D02*
X388181Y19000D01*
X387000Y17819D02*
X387000Y20181D01*
X355819Y57000D02*
X358181Y57000D01*
X357000Y55819D02*
X357000Y58181D01*
X382819Y87000D02*
X385181Y87000D01*
X384000Y85819D02*
X384000Y88181D01*
X361819Y65000D02*
X364181Y65000D01*
X363000Y63819D02*
X363000Y66181D01*
X252334Y-136166D02*
X254808Y-133691D01*
X252334Y-133691D02*
X254808Y-136166D01*
X259405Y-143237D02*
X261880Y-140763D01*
X259405Y-140763D02*
X261880Y-143237D01*
X252334Y-150308D02*
X254808Y-147834D01*
X252334Y-147834D02*
X254808Y-150308D01*
X244542Y-142000D02*
G75*
D01*
G02X244542Y-142000I1958J0*
G01*
X272042Y-165500D02*
G75*
D01*
G02X272042Y-165500I1958J0*
G01*
X281423Y-171737D02*
X283898Y-169263D01*
X281423Y-169263D02*
X283898Y-171737D01*
X408763Y8763D02*
X411237Y11237D01*
X408763Y11237D02*
X411237Y8763D01*
X418763Y-1237D02*
X421237Y1237D01*
X418763Y1237D02*
X421237Y-1237D01*
X408042Y0D02*
G75*
D01*
G02X408042Y0I1958J0*
G01*
X418763Y8763D02*
X421237Y11237D01*
X418763Y11237D02*
X421237Y8763D01*
X302542Y33000D02*
G75*
D01*
G02X302542Y33000I1958J0*
G01*
X303263Y21763D02*
X305737Y24237D01*
X303263Y24237D02*
X305737Y21763D01*
X427549Y-152951D02*
X430024Y-150476D01*
X427549Y-150476D02*
X430024Y-152951D01*
X441692Y-138808D02*
X444166Y-136334D01*
X441692Y-136334D02*
X444166Y-138808D01*
X434620Y-145880D02*
X437095Y-143405D01*
X434620Y-143405D02*
X437095Y-145880D01*
X448042Y-130500D02*
G75*
D01*
G02X448042Y-130500I1958J0*
G01*
X338850Y-12000D02*
X341213Y-12000D01*
X340031Y-13181D02*
X340031Y-10819D01*
X213819Y-5000D02*
X216181Y-5000D01*
X215000Y-6181D02*
X215000Y-3819D01*
X220819Y-5000D02*
X223181Y-5000D01*
X222000Y-6181D02*
X222000Y-3819D01*
X245819Y-54000D02*
X248181Y-54000D01*
X247000Y-55181D02*
X247000Y-52819D01*
X362042Y9500D02*
G75*
D01*
G02X362042Y9500I1958J0*
G01*
X362763Y-1737D02*
X365237Y737D01*
X362763Y737D02*
X365237Y-1737D01*
X338819Y-27000D02*
X341181Y-27000D01*
X340000Y-28181D02*
X340000Y-25819D01*
X272819Y-82000D02*
X275181Y-82000D01*
X274000Y-83181D02*
X274000Y-80819D01*
X377819Y-121000D02*
X380181Y-121000D01*
X379000Y-122181D02*
X379000Y-119819D01*
X314819Y-44000D02*
X317181Y-44000D01*
X316000Y-45181D02*
X316000Y-42819D01*
X410819Y-106000D02*
X413181Y-106000D01*
X412000Y-107181D02*
X412000Y-104819D01*
X410819Y-99000D02*
X413181Y-99000D01*
X412000Y-100181D02*
X412000Y-97819D01*
X351819Y-128000D02*
X354181Y-128000D01*
X353000Y-129181D02*
X353000Y-126819D01*
X411819Y-56000D02*
X414181Y-56000D01*
X413000Y-57181D02*
X413000Y-54819D01*
X208173Y-33390D02*
X210929Y-33390D01*
X209551Y-31037D01*
X208173Y-33390D01*
X208173Y-41264D02*
X210929Y-41264D01*
X209551Y-38911D01*
X208173Y-41264D01*
X230042Y-61000D02*
G75*
D01*
G02X230042Y-61000I1958J0*
G01*
X220763Y-62237D02*
X223237Y-59763D01*
X220763Y-59763D02*
X223237Y-62237D01*
X411263Y50763D02*
X413737Y53237D01*
X411263Y53237D02*
X413737Y50763D01*
X410542Y42000D02*
G75*
D01*
G02X410542Y42000I1958J0*
G01*
X480042Y-6000D02*
G75*
D01*
G02X480042Y-6000I1958J0*
G01*
X480763Y-87237D02*
X483237Y-84763D01*
X480763Y-84763D02*
X483237Y-87237D01*
X480763Y-17237D02*
X483237Y-14763D01*
X480763Y-14763D02*
X483237Y-17237D01*
X480763Y-27237D02*
X483237Y-24763D01*
X480763Y-24763D02*
X483237Y-27237D01*
X480763Y-67237D02*
X483237Y-64763D01*
X480763Y-64763D02*
X483237Y-67237D01*
X480763Y-37237D02*
X483237Y-34763D01*
X480763Y-34763D02*
X483237Y-37237D01*
X480763Y-47237D02*
X483237Y-44763D01*
X480763Y-44763D02*
X483237Y-47237D01*
X480763Y-57237D02*
X483237Y-54763D01*
X480763Y-54763D02*
X483237Y-57237D01*
X480763Y-97237D02*
X483237Y-94763D01*
X480763Y-94763D02*
X483237Y-97237D01*
X480763Y-77237D02*
X483237Y-74763D01*
X480763Y-74763D02*
X483237Y-77237D01*
X320042Y-28500D02*
G75*
D01*
G02X320042Y-28500I1958J0*
G01*
X320763Y-19737D02*
X323237Y-17263D01*
X320763Y-17263D02*
X323237Y-19737D01*
X369819Y-61000D02*
X372181Y-61000D01*
X371000Y-62181D02*
X371000Y-59819D01*
X396819Y-121000D02*
X399181Y-121000D01*
X398000Y-122181D02*
X398000Y-119819D01*
X349819Y-31000D02*
X352181Y-31000D01*
X351000Y-32181D02*
X351000Y-29819D01*
X289819Y-114000D02*
X292181Y-114000D01*
X291000Y-115181D02*
X291000Y-112819D01*
X362819Y-86000D02*
X365181Y-86000D01*
X364000Y-87181D02*
X364000Y-84819D01*
X215819Y-103000D02*
X218181Y-103000D01*
X217000Y-104181D02*
X217000Y-101819D01*
X211819Y-98000D02*
X214181Y-98000D01*
X213000Y-99181D02*
X213000Y-96819D01*
X349819Y-94000D02*
X352181Y-94000D01*
X351000Y-95181D02*
X351000Y-92819D01*
X376819Y-77000D02*
X379181Y-77000D01*
X378000Y-78181D02*
X378000Y-75819D01*
X403819Y-112000D02*
X406181Y-112000D01*
X405000Y-113181D02*
X405000Y-110819D01*
X358819Y-31000D02*
X361181Y-31000D01*
X360000Y-32181D02*
X360000Y-29819D01*
X615325Y-108053D02*
G75*
D01*
G02X615325Y-108053I1958J0*
G01*
X616046Y-76675D02*
X618521Y-74200D01*
X616046Y-74200D02*
X618521Y-76675D01*
X615905Y-44201D02*
X618661Y-44201D01*
X617283Y-41848D01*
X615905Y-44201D01*
X617283Y-11389D02*
X617283Y-9027D01*
X616102Y-10208D02*
X618464Y-10208D01*
G54D12*
X373334Y7834D02*
X377667Y7834D01*
X377667Y12167D01*
X373334Y12167D01*
X373334Y7834D01*
X292334Y71334D02*
X296667Y71334D01*
X296667Y75667D01*
X292334Y75667D01*
X292334Y71334D01*
X396334Y39834D02*
X400667Y39834D01*
X400667Y44167D01*
X396334Y44167D01*
X396334Y39834D01*
X451500Y6358D02*
X465642Y20500D01*
X451500Y34642D01*
X437358Y20500D01*
X451500Y6358D01*
X241500Y6358D02*
X255642Y20500D01*
X241500Y34642D01*
X227358Y20500D01*
X241500Y6358D01*
X225083Y-40949D02*
G75*
D01*
G02X225083Y-40949I1968J0*
G01*
X226286Y-41511D02*
X226286Y-40668D01*
X226723Y-40105D01*
X227161Y-40105D01*
X227598Y-40668D01*
X227598Y-41511D01*
X226286Y-41089D02*
X227598Y-41089D01*
X225083Y-30949D02*
G75*
D01*
G02X225083Y-30949I1968J0*
G01*
X226286Y-31511D02*
X226286Y-30668D01*
X226723Y-30105D01*
X227161Y-30105D01*
X227598Y-30668D01*
X227598Y-31511D01*
X226286Y-31089D02*
X227598Y-31089D01*
X275334Y62834D02*
X279667Y62834D01*
X279667Y67167D01*
X275334Y67167D01*
X275334Y62834D01*
X617283Y-220040D02*
X631425Y-205898D01*
X617283Y-191756D01*
X603141Y-205898D01*
X617283Y-220040D01*
X658359Y-202523D02*
X660984Y-200836D01*
X663609Y-200836D01*
X666233Y-202523D01*
X666233Y-203367D01*
X658359Y-209272D01*
X666233Y-209272D01*
X666233Y-208429D01*
X670170Y-202523D02*
X672795Y-200836D01*
X675420Y-200836D01*
X678044Y-202523D01*
X678044Y-207585D01*
X675420Y-209272D01*
X672795Y-209272D01*
X670170Y-207585D01*
X670170Y-202523D01*
X678044Y-202523D02*
X670170Y-207585D01*
X681981Y-202523D02*
X684606Y-200836D01*
X687231Y-200836D01*
X689855Y-202523D01*
X689855Y-207585D01*
X687231Y-209272D01*
X684606Y-209272D01*
X681981Y-207585D01*
X681981Y-202523D01*
X689855Y-202523D02*
X681981Y-207585D01*
X697729Y-209272D02*
X697729Y-208429D01*
X705603Y-202523D02*
X708228Y-200836D01*
X710853Y-200836D01*
X713477Y-202523D01*
X713477Y-207585D01*
X710853Y-209272D01*
X708228Y-209272D01*
X705603Y-207585D01*
X705603Y-202523D01*
X713477Y-202523D02*
X705603Y-207585D01*
X717414Y-202523D02*
X720039Y-200836D01*
X722664Y-200836D01*
X725288Y-202523D01*
X725288Y-207585D01*
X722664Y-209272D01*
X720039Y-209272D01*
X717414Y-207585D01*
X717414Y-202523D01*
X725288Y-202523D02*
X717414Y-207585D01*
X729225Y-202523D02*
X731850Y-200836D01*
X734475Y-200836D01*
X737099Y-202523D01*
X737099Y-207585D01*
X734475Y-209272D01*
X731850Y-209272D01*
X729225Y-207585D01*
X729225Y-202523D01*
X737099Y-202523D02*
X729225Y-207585D01*
X741036Y-202523D02*
X743661Y-200836D01*
X746286Y-200836D01*
X748910Y-202523D01*
X748910Y-207585D01*
X746286Y-209272D01*
X743661Y-209272D01*
X741036Y-207585D01*
X741036Y-202523D01*
X748910Y-202523D02*
X741036Y-207585D01*
X752847Y-202523D02*
X755472Y-200836D01*
X758097Y-200836D01*
X760721Y-202523D01*
X760721Y-207585D01*
X758097Y-209272D01*
X755472Y-209272D01*
X752847Y-207585D01*
X752847Y-202523D01*
X760721Y-202523D02*
X752847Y-207585D01*
X810328Y-202523D02*
X812952Y-200836D01*
X815577Y-200836D01*
X818202Y-202523D01*
X818202Y-203367D01*
X810328Y-209272D01*
X818202Y-209272D01*
X818202Y-208429D01*
X879619Y-209272D02*
X879619Y-200836D01*
X887493Y-209272D01*
X887493Y-200836D01*
X891430Y-209272D02*
X891430Y-200836D01*
X896679Y-200836D01*
X899304Y-202523D01*
X899304Y-203367D01*
X896679Y-205054D01*
X891430Y-205054D01*
X907178Y-209272D02*
X907178Y-200836D01*
X903241Y-200836D02*
X911115Y-200836D01*
X915052Y-209272D02*
X915052Y-200836D01*
X922926Y-209272D02*
X922926Y-200836D01*
X915052Y-205054D02*
X922926Y-205054D01*
X954816Y-202523D02*
X957441Y-200836D01*
X960065Y-200836D01*
X962690Y-202523D01*
X962690Y-207585D01*
X960065Y-209272D01*
X957441Y-209272D01*
X954816Y-207585D01*
X954816Y-202523D01*
X962690Y-202523D02*
X954816Y-207585D01*
X985000Y-209272D02*
X983687Y-209272D01*
X981063Y-207585D01*
X981063Y-202523D01*
X983687Y-200836D01*
X985000Y-200836D01*
X990249Y-209272D02*
X990249Y-200836D01*
X995498Y-200836D01*
X998123Y-202523D01*
X998123Y-203367D01*
X995498Y-205054D01*
X990249Y-205054D01*
X991561Y-205054D02*
X998123Y-209272D01*
X1002060Y-207585D02*
X1004685Y-209272D01*
X1007309Y-209272D01*
X1009934Y-207585D01*
X1009934Y-202523D01*
X1007309Y-200836D01*
X1004685Y-200836D01*
X1002060Y-202523D01*
X1002060Y-207585D01*
X1013871Y-200836D02*
X1013871Y-207585D01*
X1016496Y-209272D01*
X1019120Y-209272D01*
X1021745Y-207585D01*
X1021745Y-200836D01*
X1025682Y-209272D02*
X1025682Y-200836D01*
X1033556Y-209272D01*
X1033556Y-200836D01*
X1037493Y-209272D02*
X1042742Y-209272D01*
X1045367Y-207585D01*
X1045367Y-202523D01*
X1042742Y-200836D01*
X1037493Y-200836D01*
X1038805Y-200836D02*
X1038805Y-209272D01*
X1050616Y-200836D02*
X1051929Y-200836D01*
X1054553Y-202523D01*
X1054553Y-207585D01*
X1051929Y-209272D01*
X1050616Y-209272D01*
X615117Y-175449D02*
X619450Y-175449D01*
X619450Y-171116D01*
X615117Y-171116D01*
X615117Y-175449D01*
X672139Y-173283D02*
X664265Y-173283D01*
X670826Y-168221D01*
X670826Y-176657D01*
X669514Y-176657D02*
X672139Y-176657D01*
X677388Y-169065D02*
X678700Y-168221D01*
X681325Y-168221D01*
X683950Y-169908D01*
X683950Y-171595D01*
X682637Y-172439D01*
X683950Y-173283D01*
X683950Y-174970D01*
X681325Y-176657D01*
X678700Y-176657D01*
X677388Y-175814D01*
X678700Y-172439D02*
X682637Y-172439D01*
X691824Y-176657D02*
X691824Y-175814D01*
X701010Y-169065D02*
X702323Y-168221D01*
X704947Y-168221D01*
X707572Y-169908D01*
X707572Y-171595D01*
X706260Y-172439D01*
X707572Y-173283D01*
X707572Y-174970D01*
X704947Y-176657D01*
X702323Y-176657D01*
X701010Y-175814D01*
X702323Y-172439D02*
X706260Y-172439D01*
X712821Y-169065D02*
X714134Y-168221D01*
X716758Y-168221D01*
X719383Y-169908D01*
X719383Y-171595D01*
X718071Y-172439D01*
X719383Y-173283D01*
X719383Y-174970D01*
X716758Y-176657D01*
X714134Y-176657D01*
X712821Y-175814D01*
X714134Y-172439D02*
X718071Y-172439D01*
X723320Y-169908D02*
X725945Y-168221D01*
X728569Y-168221D01*
X731194Y-169908D01*
X731194Y-174970D01*
X728569Y-176657D01*
X725945Y-176657D01*
X723320Y-174970D01*
X723320Y-169908D01*
X731194Y-169908D02*
X723320Y-174970D01*
X735131Y-169908D02*
X737756Y-168221D01*
X740380Y-168221D01*
X743005Y-169908D01*
X743005Y-174970D01*
X740380Y-176657D01*
X737756Y-176657D01*
X735131Y-174970D01*
X735131Y-169908D01*
X743005Y-169908D02*
X735131Y-174970D01*
X746942Y-169908D02*
X749567Y-168221D01*
X752191Y-168221D01*
X754816Y-169908D01*
X754816Y-174970D01*
X752191Y-176657D01*
X749567Y-176657D01*
X746942Y-174970D01*
X746942Y-169908D01*
X754816Y-169908D02*
X746942Y-174970D01*
X818202Y-173283D02*
X810328Y-173283D01*
X816889Y-168221D01*
X816889Y-176657D01*
X815577Y-176657D02*
X818202Y-176657D01*
X885525Y-176657D02*
X885525Y-168221D01*
X890774Y-168221D01*
X893399Y-169908D01*
X893399Y-170752D01*
X890774Y-172439D01*
X885525Y-172439D01*
X901273Y-176657D02*
X901273Y-168221D01*
X897336Y-168221D02*
X905210Y-168221D01*
X909147Y-176657D02*
X909147Y-168221D01*
X917021Y-176657D02*
X917021Y-168221D01*
X909147Y-172439D02*
X917021Y-172439D01*
X954816Y-169908D02*
X957441Y-168221D01*
X960065Y-168221D01*
X962690Y-169908D01*
X962690Y-174970D01*
X960065Y-176657D01*
X957441Y-176657D01*
X954816Y-174970D01*
X954816Y-169908D01*
X962690Y-169908D02*
X954816Y-174970D01*
X985000Y-176657D02*
X983687Y-176657D01*
X981063Y-174970D01*
X981063Y-169908D01*
X983687Y-168221D01*
X985000Y-168221D01*
X990249Y-176657D02*
X990249Y-168221D01*
X995498Y-168221D01*
X998123Y-169908D01*
X998123Y-170752D01*
X995498Y-172439D01*
X990249Y-172439D01*
X991561Y-172439D02*
X998123Y-176657D01*
X1002060Y-174970D02*
X1004685Y-176657D01*
X1007309Y-176657D01*
X1009934Y-174970D01*
X1009934Y-169908D01*
X1007309Y-168221D01*
X1004685Y-168221D01*
X1002060Y-169908D01*
X1002060Y-174970D01*
X1013871Y-168221D02*
X1013871Y-174970D01*
X1016496Y-176657D01*
X1019120Y-176657D01*
X1021745Y-174970D01*
X1021745Y-168221D01*
X1025682Y-176657D02*
X1025682Y-168221D01*
X1033556Y-176657D01*
X1033556Y-168221D01*
X1037493Y-176657D02*
X1042742Y-176657D01*
X1045367Y-174970D01*
X1045367Y-169908D01*
X1042742Y-168221D01*
X1037493Y-168221D01*
X1038805Y-168221D02*
X1038805Y-176657D01*
X1050616Y-168221D02*
X1051929Y-168221D01*
X1054553Y-169908D01*
X1054553Y-174970D01*
X1051929Y-176657D01*
X1050616Y-176657D01*
X615315Y-140668D02*
G75*
D01*
G02X615315Y-140668I1968J0*
G01*
X616518Y-141230D02*
X616518Y-140387D01*
X616955Y-139824D01*
X617393Y-139824D01*
X617830Y-140387D01*
X617830Y-141230D01*
X616518Y-140808D02*
X617830Y-140808D01*
X665577Y-136450D02*
X666889Y-135606D01*
X669514Y-135606D01*
X672139Y-137293D01*
X672139Y-138980D01*
X670826Y-139824D01*
X672139Y-140668D01*
X672139Y-142355D01*
X669514Y-144042D01*
X666889Y-144042D01*
X665577Y-143199D01*
X666889Y-139824D02*
X670826Y-139824D01*
X676076Y-142355D02*
X678700Y-144042D01*
X681325Y-144042D01*
X683950Y-142355D01*
X683950Y-138980D01*
X683950Y-137293D01*
X681325Y-135606D01*
X678700Y-135606D01*
X676076Y-137293D01*
X676076Y-138980D01*
X678700Y-140668D01*
X681325Y-140668D01*
X683950Y-138980D01*
X691824Y-144042D02*
X691824Y-143199D01*
X701010Y-136450D02*
X702323Y-135606D01*
X704947Y-135606D01*
X707572Y-137293D01*
X707572Y-138980D01*
X706260Y-139824D01*
X707572Y-140668D01*
X707572Y-142355D01*
X704947Y-144042D01*
X702323Y-144042D01*
X701010Y-143199D01*
X702323Y-139824D02*
X706260Y-139824D01*
X715446Y-144042D02*
X715446Y-139824D01*
X719383Y-137293D01*
X719383Y-135606D01*
X711509Y-135606D01*
X711509Y-137293D01*
X723320Y-137293D02*
X725945Y-135606D01*
X728569Y-135606D01*
X731194Y-137293D01*
X731194Y-142355D01*
X728569Y-144042D01*
X725945Y-144042D01*
X723320Y-142355D01*
X723320Y-137293D01*
X731194Y-137293D02*
X723320Y-142355D01*
X735131Y-137293D02*
X737756Y-135606D01*
X740380Y-135606D01*
X743005Y-137293D01*
X743005Y-142355D01*
X740380Y-144042D01*
X737756Y-144042D01*
X735131Y-142355D01*
X735131Y-137293D01*
X743005Y-137293D02*
X735131Y-142355D01*
X752191Y-144042D02*
X749567Y-144042D01*
X746942Y-142355D01*
X746942Y-140668D01*
X748254Y-139824D01*
X746942Y-138980D01*
X746942Y-137293D01*
X749567Y-135606D01*
X752191Y-135606D01*
X754816Y-137293D01*
X754816Y-138980D01*
X753504Y-139824D01*
X754816Y-140668D01*
X754816Y-142355D01*
X752191Y-144042D01*
X748254Y-139824D02*
X753504Y-139824D01*
X810328Y-137293D02*
X812952Y-135606D01*
X815577Y-135606D01*
X818202Y-137293D01*
X818202Y-138137D01*
X810328Y-144042D01*
X818202Y-144042D01*
X818202Y-143199D01*
X885525Y-144042D02*
X885525Y-135606D01*
X890774Y-135606D01*
X893399Y-137293D01*
X893399Y-138137D01*
X890774Y-139824D01*
X885525Y-139824D01*
X901273Y-144042D02*
X901273Y-135606D01*
X897336Y-135606D02*
X905210Y-135606D01*
X909147Y-144042D02*
X909147Y-135606D01*
X917021Y-144042D02*
X917021Y-135606D01*
X909147Y-139824D02*
X917021Y-139824D01*
X954816Y-137293D02*
X957441Y-135606D01*
X960065Y-135606D01*
X962690Y-137293D01*
X962690Y-142355D01*
X960065Y-144042D01*
X957441Y-144042D01*
X954816Y-142355D01*
X954816Y-137293D01*
X962690Y-137293D02*
X954816Y-142355D01*
X985000Y-144042D02*
X983687Y-144042D01*
X981063Y-142355D01*
X981063Y-137293D01*
X983687Y-135606D01*
X985000Y-135606D01*
X990249Y-144042D02*
X990249Y-135606D01*
X995498Y-135606D01*
X998123Y-137293D01*
X998123Y-138137D01*
X995498Y-139824D01*
X990249Y-139824D01*
X991561Y-139824D02*
X998123Y-144042D01*
X1002060Y-142355D02*
X1004685Y-144042D01*
X1007309Y-144042D01*
X1009934Y-142355D01*
X1009934Y-137293D01*
X1007309Y-135606D01*
X1004685Y-135606D01*
X1002060Y-137293D01*
X1002060Y-142355D01*
X1013871Y-135606D02*
X1013871Y-142355D01*
X1016496Y-144042D01*
X1019120Y-144042D01*
X1021745Y-142355D01*
X1021745Y-135606D01*
X1025682Y-144042D02*
X1025682Y-135606D01*
X1033556Y-144042D01*
X1033556Y-135606D01*
X1037493Y-144042D02*
X1042742Y-144042D01*
X1045367Y-142355D01*
X1045367Y-137293D01*
X1042742Y-135606D01*
X1037493Y-135606D01*
X1038805Y-135606D02*
X1038805Y-144042D01*
X1050616Y-135606D02*
X1051929Y-135606D01*
X1054553Y-137293D01*
X1054553Y-142355D01*
X1051929Y-144042D01*
X1050616Y-144042D01*
X665577Y-103835D02*
X666889Y-102991D01*
X669514Y-102991D01*
X672139Y-104678D01*
X672139Y-106365D01*
X670826Y-107209D01*
X672139Y-108053D01*
X672139Y-109740D01*
X669514Y-111427D01*
X666889Y-111427D01*
X665577Y-110584D01*
X666889Y-107209D02*
X670826Y-107209D01*
X676076Y-109740D02*
X678700Y-111427D01*
X681325Y-111427D01*
X683950Y-109740D01*
X683950Y-106365D01*
X683950Y-104678D01*
X681325Y-102991D01*
X678700Y-102991D01*
X676076Y-104678D01*
X676076Y-106365D01*
X678700Y-108053D01*
X681325Y-108053D01*
X683950Y-106365D01*
X691824Y-111427D02*
X691824Y-110584D01*
X701010Y-104678D02*
X703635Y-102991D01*
X703635Y-111427D01*
X699698Y-111427D02*
X707572Y-111427D01*
X715446Y-111427D02*
X715446Y-107209D01*
X719383Y-104678D01*
X719383Y-102991D01*
X711509Y-102991D01*
X711509Y-104678D01*
X723320Y-104678D02*
X725945Y-102991D01*
X728569Y-102991D01*
X731194Y-104678D01*
X731194Y-109740D01*
X728569Y-111427D01*
X725945Y-111427D01*
X723320Y-109740D01*
X723320Y-104678D01*
X731194Y-104678D02*
X723320Y-109740D01*
X735131Y-104678D02*
X737756Y-102991D01*
X740380Y-102991D01*
X743005Y-104678D01*
X743005Y-109740D01*
X740380Y-111427D01*
X737756Y-111427D01*
X735131Y-109740D01*
X735131Y-104678D01*
X743005Y-104678D02*
X735131Y-109740D01*
X746942Y-104678D02*
X749567Y-102991D01*
X752191Y-102991D01*
X754816Y-104678D01*
X754816Y-109740D01*
X752191Y-111427D01*
X749567Y-111427D01*
X746942Y-109740D01*
X746942Y-104678D01*
X754816Y-104678D02*
X746942Y-109740D01*
X805735Y-104678D02*
X808359Y-102991D01*
X808359Y-111427D01*
X804422Y-111427D02*
X812296Y-111427D01*
X816233Y-104678D02*
X818858Y-102991D01*
X821483Y-102991D01*
X824107Y-104678D01*
X824107Y-109740D01*
X821483Y-111427D01*
X818858Y-111427D01*
X816233Y-109740D01*
X816233Y-104678D01*
X824107Y-104678D02*
X816233Y-109740D01*
X885525Y-111427D02*
X885525Y-102991D01*
X890774Y-102991D01*
X893399Y-104678D01*
X893399Y-105522D01*
X890774Y-107209D01*
X885525Y-107209D01*
X901273Y-111427D02*
X901273Y-102991D01*
X897336Y-102991D02*
X905210Y-102991D01*
X909147Y-111427D02*
X909147Y-102991D01*
X917021Y-111427D02*
X917021Y-102991D01*
X909147Y-107209D02*
X917021Y-107209D01*
X954816Y-104678D02*
X957441Y-102991D01*
X960065Y-102991D01*
X962690Y-104678D01*
X962690Y-109740D01*
X960065Y-111427D01*
X957441Y-111427D01*
X954816Y-109740D01*
X954816Y-104678D01*
X962690Y-104678D02*
X954816Y-109740D01*
X985000Y-111427D02*
X983687Y-111427D01*
X981063Y-109740D01*
X981063Y-104678D01*
X983687Y-102991D01*
X985000Y-102991D01*
X990249Y-111427D02*
X990249Y-102991D01*
X995498Y-102991D01*
X998123Y-104678D01*
X998123Y-105522D01*
X995498Y-107209D01*
X990249Y-107209D01*
X991561Y-107209D02*
X998123Y-111427D01*
X1002060Y-109740D02*
X1004685Y-111427D01*
X1007309Y-111427D01*
X1009934Y-109740D01*
X1009934Y-104678D01*
X1007309Y-102991D01*
X1004685Y-102991D01*
X1002060Y-104678D01*
X1002060Y-109740D01*
X1013871Y-102991D02*
X1013871Y-109740D01*
X1016496Y-111427D01*
X1019120Y-111427D01*
X1021745Y-109740D01*
X1021745Y-102991D01*
X1025682Y-111427D02*
X1025682Y-102991D01*
X1033556Y-111427D01*
X1033556Y-102991D01*
X1037493Y-111427D02*
X1042742Y-111427D01*
X1045367Y-109740D01*
X1045367Y-104678D01*
X1042742Y-102991D01*
X1037493Y-102991D01*
X1038805Y-102991D02*
X1038805Y-111427D01*
X1050616Y-102991D02*
X1051929Y-102991D01*
X1054553Y-104678D01*
X1054553Y-109740D01*
X1051929Y-111427D01*
X1050616Y-111427D01*
X665577Y-71220D02*
X666889Y-70376D01*
X669514Y-70376D01*
X672139Y-72063D01*
X672139Y-73751D01*
X670826Y-74594D01*
X672139Y-75438D01*
X672139Y-77125D01*
X669514Y-78812D01*
X666889Y-78812D01*
X665577Y-77969D01*
X666889Y-74594D02*
X670826Y-74594D01*
X683950Y-70376D02*
X676076Y-70376D01*
X676076Y-73751D01*
X681325Y-73751D01*
X683950Y-75438D01*
X683950Y-77125D01*
X681325Y-78812D01*
X676076Y-78812D01*
X691824Y-78812D02*
X691824Y-77969D01*
X699698Y-72063D02*
X702323Y-70376D01*
X704947Y-70376D01*
X707572Y-72063D01*
X707572Y-77125D01*
X704947Y-78812D01*
X702323Y-78812D01*
X699698Y-77125D01*
X699698Y-72063D01*
X707572Y-72063D02*
X699698Y-77125D01*
X711509Y-72063D02*
X714134Y-70376D01*
X716758Y-70376D01*
X719383Y-72063D01*
X719383Y-77125D01*
X716758Y-78812D01*
X714134Y-78812D01*
X711509Y-77125D01*
X711509Y-72063D01*
X719383Y-72063D02*
X711509Y-77125D01*
X723320Y-72063D02*
X725945Y-70376D01*
X728569Y-70376D01*
X731194Y-72063D01*
X731194Y-77125D01*
X728569Y-78812D01*
X725945Y-78812D01*
X723320Y-77125D01*
X723320Y-72063D01*
X731194Y-72063D02*
X723320Y-77125D01*
X735131Y-72063D02*
X737756Y-70376D01*
X740380Y-70376D01*
X743005Y-72063D01*
X743005Y-77125D01*
X740380Y-78812D01*
X737756Y-78812D01*
X735131Y-77125D01*
X735131Y-72063D01*
X743005Y-72063D02*
X735131Y-77125D01*
X746942Y-72063D02*
X749567Y-70376D01*
X752191Y-70376D01*
X754816Y-72063D01*
X754816Y-77125D01*
X752191Y-78812D01*
X749567Y-78812D01*
X746942Y-77125D01*
X746942Y-72063D01*
X754816Y-72063D02*
X746942Y-77125D01*
X804422Y-72063D02*
X807047Y-70376D01*
X809672Y-70376D01*
X812296Y-72063D01*
X812296Y-72907D01*
X804422Y-78812D01*
X812296Y-78812D01*
X812296Y-77969D01*
X824107Y-75438D02*
X816233Y-75438D01*
X822795Y-70376D01*
X822795Y-78812D01*
X821483Y-78812D02*
X824107Y-78812D01*
X885525Y-78812D02*
X885525Y-70376D01*
X890774Y-70376D01*
X893399Y-72063D01*
X893399Y-72907D01*
X890774Y-74594D01*
X885525Y-74594D01*
X901273Y-78812D02*
X901273Y-70376D01*
X897336Y-70376D02*
X905210Y-70376D01*
X909147Y-78812D02*
X909147Y-70376D01*
X917021Y-78812D02*
X917021Y-70376D01*
X909147Y-74594D02*
X917021Y-74594D01*
X954816Y-72063D02*
X957441Y-70376D01*
X960065Y-70376D01*
X962690Y-72063D01*
X962690Y-77125D01*
X960065Y-78812D01*
X957441Y-78812D01*
X954816Y-77125D01*
X954816Y-72063D01*
X962690Y-72063D02*
X954816Y-77125D01*
X985000Y-78812D02*
X983687Y-78812D01*
X981063Y-77125D01*
X981063Y-72063D01*
X983687Y-70376D01*
X985000Y-70376D01*
X990249Y-78812D02*
X990249Y-70376D01*
X995498Y-70376D01*
X998123Y-72063D01*
X998123Y-72907D01*
X995498Y-74594D01*
X990249Y-74594D01*
X991561Y-74594D02*
X998123Y-78812D01*
X1002060Y-77125D02*
X1004685Y-78812D01*
X1007309Y-78812D01*
X1009934Y-77125D01*
X1009934Y-72063D01*
X1007309Y-70376D01*
X1004685Y-70376D01*
X1002060Y-72063D01*
X1002060Y-77125D01*
X1013871Y-70376D02*
X1013871Y-77125D01*
X1016496Y-78812D01*
X1019120Y-78812D01*
X1021745Y-77125D01*
X1021745Y-70376D01*
X1025682Y-78812D02*
X1025682Y-70376D01*
X1033556Y-78812D01*
X1033556Y-70376D01*
X1037493Y-78812D02*
X1042742Y-78812D01*
X1045367Y-77125D01*
X1045367Y-72063D01*
X1042742Y-70376D01*
X1037493Y-70376D01*
X1038805Y-70376D02*
X1038805Y-78812D01*
X1050616Y-70376D02*
X1051929Y-70376D01*
X1054553Y-72063D01*
X1054553Y-77125D01*
X1051929Y-78812D01*
X1050616Y-78812D01*
X664265Y-39448D02*
X666889Y-37761D01*
X669514Y-37761D01*
X672139Y-39448D01*
X672139Y-40292D01*
X664265Y-46197D01*
X672139Y-46197D01*
X672139Y-45354D01*
X680013Y-46197D02*
X680013Y-41979D01*
X683950Y-39448D01*
X683950Y-37761D01*
X676076Y-37761D01*
X676076Y-39448D01*
X691824Y-46197D02*
X691824Y-45354D01*
X707572Y-37761D02*
X699698Y-37761D01*
X699698Y-41136D01*
X704947Y-41136D01*
X707572Y-42823D01*
X707572Y-44510D01*
X704947Y-46197D01*
X699698Y-46197D01*
X719383Y-37761D02*
X711509Y-37761D01*
X711509Y-41136D01*
X716758Y-41136D01*
X719383Y-42823D01*
X719383Y-44510D01*
X716758Y-46197D01*
X711509Y-46197D01*
X723320Y-44510D02*
X725945Y-46197D01*
X728569Y-46197D01*
X731194Y-44510D01*
X731194Y-41136D01*
X731194Y-39448D01*
X728569Y-37761D01*
X725945Y-37761D01*
X723320Y-39448D01*
X723320Y-41136D01*
X725945Y-42823D01*
X728569Y-42823D01*
X731194Y-41136D01*
X735131Y-39448D02*
X737756Y-37761D01*
X740380Y-37761D01*
X743005Y-39448D01*
X743005Y-44510D01*
X740380Y-46197D01*
X737756Y-46197D01*
X735131Y-44510D01*
X735131Y-39448D01*
X743005Y-39448D02*
X735131Y-44510D01*
X753504Y-37761D02*
X749567Y-37761D01*
X746942Y-39448D01*
X746942Y-42823D01*
X746942Y-44510D01*
X749567Y-46197D01*
X752191Y-46197D01*
X754816Y-44510D01*
X754816Y-42823D01*
X752191Y-41136D01*
X749567Y-41136D01*
X746942Y-42823D01*
X810328Y-39448D02*
X812952Y-37761D01*
X815577Y-37761D01*
X818202Y-39448D01*
X818202Y-40292D01*
X810328Y-46197D01*
X818202Y-46197D01*
X818202Y-45354D01*
X885525Y-46197D02*
X885525Y-37761D01*
X890774Y-37761D01*
X893399Y-39448D01*
X893399Y-40292D01*
X890774Y-41979D01*
X885525Y-41979D01*
X901273Y-46197D02*
X901273Y-37761D01*
X897336Y-37761D02*
X905210Y-37761D01*
X909147Y-46197D02*
X909147Y-37761D01*
X917021Y-46197D02*
X917021Y-37761D01*
X909147Y-41979D02*
X917021Y-41979D01*
X954816Y-39448D02*
X957441Y-37761D01*
X960065Y-37761D01*
X962690Y-39448D01*
X962690Y-44510D01*
X960065Y-46197D01*
X957441Y-46197D01*
X954816Y-44510D01*
X954816Y-39448D01*
X962690Y-39448D02*
X954816Y-44510D01*
X985000Y-46197D02*
X983687Y-46197D01*
X981063Y-44510D01*
X981063Y-39448D01*
X983687Y-37761D01*
X985000Y-37761D01*
X990249Y-46197D02*
X990249Y-37761D01*
X995498Y-37761D01*
X998123Y-39448D01*
X998123Y-40292D01*
X995498Y-41979D01*
X990249Y-41979D01*
X991561Y-41979D02*
X998123Y-46197D01*
X1002060Y-44510D02*
X1004685Y-46197D01*
X1007309Y-46197D01*
X1009934Y-44510D01*
X1009934Y-39448D01*
X1007309Y-37761D01*
X1004685Y-37761D01*
X1002060Y-39448D01*
X1002060Y-44510D01*
X1013871Y-37761D02*
X1013871Y-44510D01*
X1016496Y-46197D01*
X1019120Y-46197D01*
X1021745Y-44510D01*
X1021745Y-37761D01*
X1025682Y-46197D02*
X1025682Y-37761D01*
X1033556Y-46197D01*
X1033556Y-37761D01*
X1037493Y-46197D02*
X1042742Y-46197D01*
X1045367Y-44510D01*
X1045367Y-39448D01*
X1042742Y-37761D01*
X1037493Y-37761D01*
X1038805Y-37761D02*
X1038805Y-46197D01*
X1050616Y-37761D02*
X1051929Y-37761D01*
X1054553Y-39448D01*
X1054553Y-44510D01*
X1051929Y-46197D01*
X1050616Y-46197D01*
X664265Y-6833D02*
X666889Y-5146D01*
X669514Y-5146D01*
X672139Y-6833D01*
X672139Y-7677D01*
X664265Y-13582D01*
X672139Y-13582D01*
X672139Y-12739D01*
X677388Y-5990D02*
X678700Y-5146D01*
X681325Y-5146D01*
X683950Y-6833D01*
X683950Y-8521D01*
X682637Y-9364D01*
X683950Y-10208D01*
X683950Y-11895D01*
X681325Y-13582D01*
X678700Y-13582D01*
X677388Y-12739D01*
X678700Y-9364D02*
X682637Y-9364D01*
X691824Y-13582D02*
X691824Y-12739D01*
X706260Y-5146D02*
X702323Y-5146D01*
X699698Y-6833D01*
X699698Y-10208D01*
X699698Y-11895D01*
X702323Y-13582D01*
X704947Y-13582D01*
X707572Y-11895D01*
X707572Y-10208D01*
X704947Y-8521D01*
X702323Y-8521D01*
X699698Y-10208D01*
X711509Y-6833D02*
X714134Y-5146D01*
X716758Y-5146D01*
X719383Y-6833D01*
X719383Y-7677D01*
X711509Y-13582D01*
X719383Y-13582D01*
X719383Y-12739D01*
X723320Y-6833D02*
X725945Y-5146D01*
X728569Y-5146D01*
X731194Y-6833D01*
X731194Y-7677D01*
X723320Y-13582D01*
X731194Y-13582D01*
X731194Y-12739D01*
X735131Y-6833D02*
X737756Y-5146D01*
X740380Y-5146D01*
X743005Y-6833D01*
X743005Y-11895D01*
X740380Y-13582D01*
X737756Y-13582D01*
X735131Y-11895D01*
X735131Y-6833D01*
X743005Y-6833D02*
X735131Y-11895D01*
X754816Y-5146D02*
X746942Y-5146D01*
X746942Y-8521D01*
X752191Y-8521D01*
X754816Y-10208D01*
X754816Y-11895D01*
X752191Y-13582D01*
X746942Y-13582D01*
X812296Y-5146D02*
X804422Y-5146D01*
X804422Y-8521D01*
X809672Y-8521D01*
X812296Y-10208D01*
X812296Y-11895D01*
X809672Y-13582D01*
X804422Y-13582D01*
X816233Y-6833D02*
X818858Y-5146D01*
X821483Y-5146D01*
X824107Y-6833D01*
X824107Y-11895D01*
X821483Y-13582D01*
X818858Y-13582D01*
X816233Y-11895D01*
X816233Y-6833D01*
X824107Y-6833D02*
X816233Y-11895D01*
X885525Y-13582D02*
X885525Y-5146D01*
X890774Y-5146D01*
X893399Y-6833D01*
X893399Y-7677D01*
X890774Y-9364D01*
X885525Y-9364D01*
X901273Y-13582D02*
X901273Y-5146D01*
X897336Y-5146D02*
X905210Y-5146D01*
X909147Y-13582D02*
X909147Y-5146D01*
X917021Y-13582D02*
X917021Y-5146D01*
X909147Y-9364D02*
X917021Y-9364D01*
X954816Y-6833D02*
X957441Y-5146D01*
X960065Y-5146D01*
X962690Y-6833D01*
X962690Y-11895D01*
X960065Y-13582D01*
X957441Y-13582D01*
X954816Y-11895D01*
X954816Y-6833D01*
X962690Y-6833D02*
X954816Y-11895D01*
X985000Y-13582D02*
X983687Y-13582D01*
X981063Y-11895D01*
X981063Y-6833D01*
X983687Y-5146D01*
X985000Y-5146D01*
X990249Y-13582D02*
X990249Y-5146D01*
X995498Y-5146D01*
X998123Y-6833D01*
X998123Y-7677D01*
X995498Y-9364D01*
X990249Y-9364D01*
X991561Y-9364D02*
X998123Y-13582D01*
X1002060Y-11895D02*
X1004685Y-13582D01*
X1007309Y-13582D01*
X1009934Y-11895D01*
X1009934Y-6833D01*
X1007309Y-5146D01*
X1004685Y-5146D01*
X1002060Y-6833D01*
X1002060Y-11895D01*
X1013871Y-5146D02*
X1013871Y-11895D01*
X1016496Y-13582D01*
X1019120Y-13582D01*
X1021745Y-11895D01*
X1021745Y-5146D01*
X1025682Y-13582D02*
X1025682Y-5146D01*
X1033556Y-13582D01*
X1033556Y-5146D01*
X1037493Y-13582D02*
X1042742Y-13582D01*
X1045367Y-11895D01*
X1045367Y-6833D01*
X1042742Y-5146D01*
X1037493Y-5146D01*
X1038805Y-5146D02*
X1038805Y-13582D01*
X1050616Y-5146D02*
X1051929Y-5146D01*
X1054553Y-6833D01*
X1054553Y-11895D01*
X1051929Y-13582D01*
X1050616Y-13582D01*
G04 ColorRGB CC00FF for the following layer *
%LNBoard Outline*%
%LPD*%
G54D10*
G54D13*
X194524Y-51000D02*
G75*
D01*
G02X194524Y-51000I151476J0*
G01*
G54D14*
X193024Y-203976D02*
X193024Y-173381D01*
X193024Y-203976D02*
X223619Y-203976D01*
X498976Y-203976D02*
X468381Y-203976D01*
X498976Y-203976D02*
X498976Y-173381D01*
X498976Y101976D02*
X498976Y71381D01*
X498976Y101976D02*
X468381Y101976D01*
X193024Y101976D02*
X223619Y101976D01*
X193024Y101976D02*
X193024Y71381D01*
X173339Y-203976D02*
X133969Y-203976D01*
X153654Y-223661D02*
X153654Y-184291D01*
X138890Y-203976D02*
G75*
D01*
G02X138890Y-203976I14764J0*
G01*
X518661Y-203976D02*
X558031Y-203976D01*
X538346Y-223661D02*
X538346Y-184291D01*
X523582Y-203976D02*
G75*
D01*
G02X523582Y-203976I14764J0*
G01*
X533425Y-203976D02*
G75*
D01*
G02X533425Y-203976I4921J0*
G01*
X173339Y101976D02*
X133969Y101976D01*
X153654Y82291D02*
X153654Y121661D01*
X138890Y101976D02*
G75*
D01*
G02X138890Y101976I14764J0*
G01*
X143811Y101976D02*
G75*
D01*
G02X143811Y101976I9843J0*
G01*
X148733Y101976D02*
G75*
D01*
G02X148733Y101976I4921J0*
G01*
G04 ColorRGB 66FFCC for the following layer *
%LNLegend Description*%
%LPD*%
G54D12*
X579685Y-222205D02*
X1073779Y-222205D01*
X1073779Y103945D01*
X579685Y103945D01*
X579685Y-222205D01*
X654882Y38715D02*
X654882Y-222205D01*
X765512Y38715D02*
X765512Y-222205D01*
X864330Y38715D02*
X864330Y-222205D01*
X939527Y38715D02*
X939527Y-222205D01*
X1073779Y38715D02*
X1073779Y-222205D01*
X579685Y-189590D02*
X1073779Y-189590D01*
X579685Y-156975D02*
X1073779Y-156975D01*
X579685Y-124360D02*
X1073779Y-124360D01*
X579685Y-91745D02*
X1073779Y-91745D01*
X579685Y-59130D02*
X1073779Y-59130D01*
X579685Y-26515D02*
X1073779Y-26515D01*
X579685Y6100D02*
X1073779Y6100D01*
X583162Y20720D02*
X585787Y19033D01*
X588412Y19033D01*
X591036Y20720D01*
X583162Y25782D01*
X585787Y27469D01*
X588412Y27469D01*
X591036Y25782D01*
X594973Y16502D02*
X596286Y16502D01*
X602847Y24938D01*
X594973Y24938D02*
X598910Y19876D01*
X606784Y19033D02*
X606784Y24094D01*
X606784Y24938D01*
X606784Y24094D02*
X608097Y24938D01*
X609409Y24938D01*
X610721Y24094D01*
X612034Y24938D01*
X613346Y24938D01*
X614658Y24094D01*
X614658Y19033D01*
X610721Y24094D02*
X610721Y19033D01*
X618595Y20720D02*
X621220Y19033D01*
X623845Y19033D01*
X626470Y20720D01*
X626470Y22407D01*
X623845Y24094D01*
X621220Y24094D01*
X618595Y22407D01*
X618595Y27469D02*
X618595Y19033D01*
X630407Y20720D02*
X633031Y19033D01*
X635656Y19033D01*
X638281Y20720D01*
X638281Y23251D01*
X635656Y24938D01*
X633031Y24938D01*
X630407Y23251D01*
X630407Y20720D01*
X643530Y27469D02*
X643530Y20720D01*
X646155Y19033D01*
X687887Y20720D02*
X690512Y19033D01*
X693136Y19033D01*
X695761Y20720D01*
X687887Y25782D01*
X690512Y27469D01*
X693136Y27469D01*
X695761Y25782D01*
X703635Y19033D02*
X703635Y24094D01*
X703635Y25782D02*
X703635Y26625D01*
X711509Y24938D02*
X719383Y24938D01*
X711509Y19033D01*
X719383Y19033D01*
X731194Y20720D02*
X728569Y19033D01*
X725945Y19033D01*
X723320Y20720D01*
X723320Y23251D01*
X725945Y24938D01*
X728569Y24938D01*
X731194Y23251D01*
X729882Y22407D01*
X723320Y22407D01*
X768989Y20720D02*
X771614Y19033D01*
X774239Y19033D01*
X776863Y20720D01*
X776863Y25782D01*
X774239Y27469D01*
X771614Y27469D01*
X768989Y25782D01*
X768989Y20720D01*
X774239Y20720D02*
X776863Y19033D01*
X780800Y24938D02*
X780800Y20720D01*
X783425Y19033D01*
X786050Y19033D01*
X788674Y20720D01*
X788674Y24938D01*
X788674Y20720D02*
X788674Y19033D01*
X793924Y24938D02*
X797861Y24938D01*
X799173Y24094D01*
X799173Y19876D01*
X797861Y19033D01*
X793924Y19033D01*
X792611Y19876D01*
X792611Y21563D01*
X793924Y22407D01*
X799173Y22407D01*
X799173Y19876D02*
X800485Y19033D01*
X804422Y19033D02*
X804422Y24094D01*
X804422Y24938D01*
X804422Y24094D02*
X805735Y24938D01*
X808359Y24938D01*
X809672Y24094D01*
X809672Y19033D01*
X822795Y19876D02*
X821483Y19033D01*
X820170Y19876D01*
X820170Y27469D01*
X817546Y24938D02*
X822795Y24938D01*
X831981Y19033D02*
X831981Y24094D01*
X831981Y25782D02*
X831981Y26625D01*
X846417Y19876D02*
X845105Y19033D01*
X843792Y19876D01*
X843792Y27469D01*
X841168Y24938D02*
X846417Y24938D01*
X851666Y16502D02*
X852979Y16502D01*
X859540Y24938D01*
X851666Y24938D02*
X855603Y19876D01*
X867808Y19033D02*
X867808Y27469D01*
X873057Y27469D01*
X875682Y25782D01*
X875682Y24938D01*
X873057Y23251D01*
X867808Y23251D01*
X880931Y27469D02*
X880931Y20720D01*
X883556Y19033D01*
X892742Y24938D02*
X896679Y24938D01*
X897992Y24094D01*
X897992Y19876D01*
X896679Y19033D01*
X892742Y19033D01*
X891430Y19876D01*
X891430Y21563D01*
X892742Y22407D01*
X897992Y22407D01*
X897992Y19876D02*
X899304Y19033D01*
X909803Y19876D02*
X908491Y19033D01*
X907178Y19876D01*
X907178Y27469D01*
X904553Y24938D02*
X909803Y24938D01*
X922926Y20720D02*
X920302Y19033D01*
X917677Y19033D01*
X915052Y20720D01*
X915052Y23251D01*
X917677Y24938D01*
X920302Y24938D01*
X922926Y23251D01*
X921614Y22407D01*
X915052Y22407D01*
X934737Y20720D02*
X932113Y19033D01*
X929488Y19033D01*
X926863Y20720D01*
X926863Y22407D01*
X929488Y24094D01*
X932113Y24094D01*
X934737Y22407D01*
X934737Y27469D02*
X934737Y19033D01*
X943005Y20720D02*
X945630Y19033D01*
X948254Y19033D01*
X950879Y20720D01*
X943005Y25782D01*
X945630Y27469D01*
X948254Y27469D01*
X950879Y25782D01*
X956128Y27469D02*
X956128Y20720D01*
X958753Y19033D01*
X966627Y20720D02*
X969252Y19033D01*
X971876Y19033D01*
X974501Y20720D01*
X974501Y23251D01*
X971876Y24938D01*
X969252Y24938D01*
X966627Y23251D01*
X966627Y20720D01*
X985000Y19876D02*
X983687Y19033D01*
X982375Y19876D01*
X982375Y27469D01*
X979750Y24938D02*
X985000Y24938D01*
X1002060Y27469D02*
X1002060Y19033D01*
X1009934Y19033D01*
X1021745Y20720D02*
X1019120Y19033D01*
X1016496Y19033D01*
X1013871Y20720D01*
X1013871Y23251D01*
X1016496Y24938D01*
X1019120Y24938D01*
X1021745Y23251D01*
X1020433Y22407D01*
X1013871Y22407D01*
X1025682Y19033D02*
X1025682Y24094D01*
X1025682Y24938D01*
X1025682Y24094D02*
X1026994Y24938D01*
X1029619Y24938D01*
X1030931Y24094D01*
X1030931Y19033D01*
X1037493Y18189D02*
X1040118Y16502D01*
X1042742Y16502D01*
X1045367Y18189D01*
X1045367Y20720D01*
X1045367Y23251D01*
X1042742Y24938D01*
X1040118Y24938D01*
X1037493Y23251D01*
X1037493Y20720D01*
X1040118Y19033D01*
X1042742Y19033D01*
X1045367Y20720D01*
X1055866Y19876D02*
X1054553Y19033D01*
X1053241Y19876D01*
X1053241Y27469D01*
X1050616Y24938D02*
X1055866Y24938D01*
X1061115Y23251D02*
X1063740Y24938D01*
X1066365Y24938D01*
X1068989Y23251D01*
X1068989Y19033D01*
X1061115Y27469D02*
X1061115Y19033D01*
X579685Y38715D02*
X1073779Y38715D01*
X709934Y51648D02*
X709934Y56709D01*
X712559Y60084D01*
X715183Y60084D01*
X717808Y56709D01*
X717808Y51648D01*
X709934Y54178D02*
X717808Y54178D01*
X723057Y60084D02*
X723057Y53335D01*
X725682Y51648D01*
X734868Y60084D02*
X734868Y53335D01*
X737493Y51648D01*
X757178Y57553D02*
X757178Y53335D01*
X759803Y51648D01*
X762428Y51648D01*
X765052Y53335D01*
X765052Y57553D01*
X765052Y53335D02*
X765052Y51648D01*
X768989Y51648D02*
X768989Y56709D01*
X768989Y57553D01*
X768989Y56709D02*
X770302Y57553D01*
X772926Y57553D01*
X774239Y56709D01*
X774239Y51648D01*
X784737Y51648D02*
X784737Y56709D01*
X784737Y58397D02*
X784737Y59240D01*
X799173Y52491D02*
X797861Y51648D01*
X796548Y52491D01*
X796548Y60084D01*
X793924Y57553D02*
X799173Y57553D01*
X804422Y53335D02*
X807047Y51648D01*
X809672Y51648D01*
X812296Y53335D01*
X804422Y55866D01*
X807047Y57553D01*
X809672Y57553D01*
X812296Y55866D01*
X829357Y57553D02*
X833294Y57553D01*
X834606Y56709D01*
X834606Y52491D01*
X833294Y51648D01*
X829357Y51648D01*
X828044Y52491D01*
X828044Y54178D01*
X829357Y55022D01*
X834606Y55022D01*
X834606Y52491D02*
X835918Y51648D01*
X839855Y55022D02*
X843792Y57553D01*
X845105Y57553D01*
X847729Y55866D01*
X839855Y51648D02*
X839855Y57553D01*
X859540Y53335D02*
X856916Y51648D01*
X854291Y51648D01*
X851666Y53335D01*
X851666Y55866D01*
X854291Y57553D01*
X856916Y57553D01*
X859540Y55866D01*
X858228Y55022D01*
X851666Y55022D01*
X879225Y51648D02*
X879225Y56709D01*
X879225Y58397D02*
X879225Y59240D01*
X887099Y51648D02*
X887099Y56709D01*
X887099Y57553D01*
X887099Y56709D02*
X888412Y57553D01*
X891036Y57553D01*
X892349Y56709D01*
X892349Y51648D01*
X910721Y51648D02*
X910721Y56709D01*
X910721Y57553D01*
X910721Y56709D02*
X912034Y57553D01*
X913346Y57553D01*
X914658Y56709D01*
X915971Y57553D01*
X917283Y57553D01*
X918595Y56709D01*
X918595Y51648D01*
X914658Y56709D02*
X914658Y51648D01*
X926470Y51648D02*
X926470Y56709D01*
X926470Y58397D02*
X926470Y59240D01*
X935656Y60084D02*
X935656Y53335D01*
X938281Y51648D01*
X579685Y71330D02*
X1073779Y71330D01*
X757178Y84263D02*
X762428Y84263D01*
X765052Y85950D01*
X765052Y91012D01*
X762428Y92699D01*
X757178Y92699D01*
X758491Y92699D02*
X758491Y84263D01*
X768989Y87637D02*
X772926Y90168D01*
X774239Y90168D01*
X776863Y88481D01*
X768989Y84263D02*
X768989Y90168D01*
X784737Y84263D02*
X784737Y89324D01*
X784737Y91012D02*
X784737Y91855D01*
X793924Y92699D02*
X793924Y85950D01*
X796548Y84263D01*
X805735Y92699D02*
X805735Y85950D01*
X808359Y84263D01*
X828044Y92699D02*
X828044Y84263D01*
X835918Y84263D01*
X847729Y85950D02*
X845105Y84263D01*
X842480Y84263D01*
X839855Y85950D01*
X839855Y88481D01*
X842480Y90168D01*
X845105Y90168D01*
X847729Y88481D01*
X846417Y87637D01*
X839855Y87637D01*
X851666Y83419D02*
X854291Y81732D01*
X856916Y81732D01*
X859540Y83419D01*
X859540Y85950D01*
X859540Y88481D01*
X856916Y90168D01*
X854291Y90168D01*
X851666Y88481D01*
X851666Y85950D01*
X854291Y84263D01*
X856916Y84263D01*
X859540Y85950D01*
X871351Y85950D02*
X868727Y84263D01*
X866102Y84263D01*
X863477Y85950D01*
X863477Y88481D01*
X866102Y90168D01*
X868727Y90168D01*
X871351Y88481D01*
X870039Y87637D01*
X863477Y87637D01*
X875288Y84263D02*
X875288Y89324D01*
X875288Y90168D01*
X875288Y89324D02*
X876601Y90168D01*
X879225Y90168D01*
X880538Y89324D01*
X880538Y84263D01*
X894973Y85950D02*
X892349Y84263D01*
X889724Y84263D01*
X887099Y85950D01*
X887099Y87637D01*
X889724Y89324D01*
X892349Y89324D01*
X894973Y87637D01*
X894973Y92699D02*
X894973Y84263D01*

M02*
