G04 Generated by Ultiboard 13.0 *
%FSLAX25Y25*%
%MOIN*%

%ADD11C,0.02362*%
%ADD12C,0.03917*%
%ADD13C,0.03500*%
%ADD14C,0.02756*%
%ADD15C,0.04333*%


G04 ColorRGB 000000 for the following layer *
%LNDrill-Copper Top-Copper Bottom*%
%LPD*%
G54D11*
X234000Y-21000D03*
X227000Y-21000D03*
X225000Y-68000D03*
X278000Y-106000D03*
X365000Y-124000D03*
X431000Y-80000D03*
X431000Y-6000D03*
X442000Y-26000D03*
X290000Y-82000D03*
X233000Y-114000D03*
X385000Y-182000D03*
X441000Y-75969D03*
X306000Y51000D03*
X340000Y-12000D03*
X357000Y-68000D03*
X374000Y-59000D03*
X314000Y16000D03*
X351000Y22000D03*
X407000Y-72000D03*
X451000Y-70000D03*
X451000Y-16000D03*
X406000Y-99000D03*
X465000Y-99000D03*
X459000Y-64000D03*
X459000Y-36000D03*
X425000Y-90000D03*
X425000Y-46000D03*
X412000Y-95000D03*
X412000Y-56000D03*
X418000Y-42000D03*
X410000Y-40000D03*
X362000Y-62000D03*
X419000Y-115000D03*
X317000Y-158000D03*
X322000Y-52000D03*
X351000Y-152000D03*
X310000Y-50000D03*
X293000Y-163000D03*
X371000Y-112000D03*
X348000Y-34000D03*
X396000Y59000D03*
X387000Y19000D03*
X357000Y57000D03*
X384000Y87000D03*
X363000Y65000D03*
X354000Y67000D03*
X353000Y-62000D03*
X410000Y-116000D03*
G54D12*
X482000Y-6000D03*
X246500Y-142000D03*
X274000Y-165500D03*
X278000Y12000D03*
X254500Y12000D03*
X364000Y9500D03*
X410000Y0D03*
X412500Y42000D03*
X304500Y33000D03*
X450000Y-130500D03*
G54D13*
X482000Y-86000D03*
X482000Y-16000D03*
X482000Y-26000D03*
X482000Y-66000D03*
X482000Y-36000D03*
X482000Y-46000D03*
X482000Y-56000D03*
X482000Y-96000D03*
X482000Y-76000D03*
X253571Y-134929D03*
X260642Y-142000D03*
X253571Y-149071D03*
X282660Y-170500D03*
X278000Y2000D03*
X268000Y2000D03*
X268000Y12000D03*
X254500Y2000D03*
X244500Y2000D03*
X244500Y12000D03*
X364000Y-500D03*
X410000Y10000D03*
X420000Y0D03*
X420000Y10000D03*
X412500Y52000D03*
X304500Y23000D03*
X428787Y-151713D03*
X442929Y-137571D03*
X435858Y-144642D03*
G54D14*
X203919Y-46151D03*
X203919Y-54025D03*
G54D15*
X375500Y10000D03*
X398500Y42000D03*
X294500Y73500D03*

M02*
