G04 Generated by Ultiboard 13.0 *
%FSLAX25Y25*%
%MOIN*%

%ADD10C,0.00001*%
%ADD11C,0.01000*%
%ADD12C,0.00005*%
%ADD13C,0.03000*%
%ADD14C,0.05000*%
%ADD15C,0.02000*%
%ADD16C,0.04000*%
%ADD17C,0.00500*%
%ADD18C,0.03937*%
%ADD19P,0.05539X4*%
%ADD20C,0.01666*%
%ADD21C,0.06334*%
%ADD22P,0.02945X4*%
%ADD23C,0.03917*%
%ADD24P,0.02945X4X15*%
%ADD25P,0.05539X4X15*%
%ADD26R,0.05834X0.02251*%
%ADD27R,0.01772X0.05906*%
%ADD28R,0.03937X0.02362*%
%ADD29R,0.02334X0.02334*%
%ADD30C,0.08334*%
%ADD31R,0.02083X0.02083*%
%ADD32P,0.05567X4*%
%ADD33R,0.02251X0.05834*%
%ADD34R,0.04331X0.02362*%
%ADD35R,0.01181X0.10000*%
%ADD36C,0.00001*%
%ADD37R,0.10000X0.01181*%
%ADD38C,0.04156*%
%ADD39C,0.05337*%


G04 ColorRGB 00FF00 for the following layer *
%LNCopper Top*%
%LPD*%
G54D10*
G36*
X381095Y-53586D02*
X381095Y-53586D01*
X382276Y-53586D01*
G74*
D01*
G03X382669Y-53534I1J1507*
G01*
G75*
D01*
G03X383063Y-53586I392J1455*
G01*
X383063Y-53586D01*
X383612Y-53586D01*
X383612Y-56046D01*
X382223Y-57435D01*
X362079Y-77579D01*
G75*
D01*
G03X361490Y-79005I1420J-1421*
G01*
X361490Y-79005D01*
X361490Y-83606D01*
G75*
D01*
G03X365510Y-82877I2510J-2393*
G01*
X365510Y-82877D01*
X365510Y-79832D01*
X381991Y-63351D01*
X381991Y-63351D01*
X386914Y-58428D01*
X386914Y-58905D01*
G75*
D01*
G03X386966Y-59299I1507J-2*
G01*
G74*
D01*
G03X386914Y-59693I1455J392*
G01*
X386914Y-59693D01*
X386914Y-60874D01*
G75*
D01*
G03X386966Y-61268I1507J-2*
G01*
G74*
D01*
G03X386914Y-61661I1455J392*
G01*
X386914Y-61661D01*
X386914Y-62843D01*
G75*
D01*
G03X386966Y-63236I1507J-1*
G01*
G74*
D01*
G03X386914Y-63630I1455J392*
G01*
X386914Y-63630D01*
X386914Y-64811D01*
G75*
D01*
G03X386966Y-65205I1507J-2*
G01*
G74*
D01*
G03X386914Y-65598I1455J392*
G01*
X386914Y-65598D01*
X386914Y-66780D01*
G75*
D01*
G03X386966Y-67173I1507J-1*
G01*
G74*
D01*
G03X386914Y-67567I1455J392*
G01*
X386914Y-67567D01*
X386914Y-68748D01*
G75*
D01*
G03X386966Y-69142I1507J-2*
G01*
G74*
D01*
G03X386914Y-69535I1455J392*
G01*
X386914Y-69535D01*
X386914Y-70717D01*
G75*
D01*
G03X386966Y-71110I1507J-1*
G01*
G74*
D01*
G03X386914Y-71504I1455J392*
G01*
X386914Y-71504D01*
X386914Y-72685D01*
G75*
D01*
G03X386966Y-73079I1507J-2*
G01*
G74*
D01*
G03X386914Y-73472I1455J392*
G01*
X386914Y-73472D01*
X386914Y-74654D01*
G75*
D01*
G03X386966Y-75047I1507J-1*
G01*
G74*
D01*
G03X386922Y-75288I1456J390*
G01*
X386922Y-75288D01*
X387054Y-75288D01*
G74*
D01*
G03X387725Y-75990I1366J634*
G01*
X387725Y-75990D01*
X381318Y-75990D01*
G75*
D01*
G03X379724Y-80010I-3317J-1011*
G01*
X379724Y-80010D01*
X386914Y-80010D01*
X386914Y-80559D01*
G75*
D01*
G03X386966Y-80953I1507J-2*
G01*
G74*
D01*
G03X386914Y-81346I1455J392*
G01*
X386914Y-81346D01*
X386914Y-82528D01*
G75*
D01*
G03X386966Y-82921I1507J-1*
G01*
G74*
D01*
G03X386914Y-83315I1455J392*
G01*
X386914Y-83315D01*
X386914Y-84496D01*
G75*
D01*
G03X386966Y-84890I1507J-2*
G01*
G74*
D01*
G03X386914Y-85283I1455J392*
G01*
X386914Y-85283D01*
X386914Y-86465D01*
G75*
D01*
G03X386966Y-86858I1507J-1*
G01*
G74*
D01*
G03X386914Y-87252I1455J392*
G01*
X386914Y-87252D01*
X386914Y-88433D01*
G75*
D01*
G03X386966Y-88827I1507J-2*
G01*
G74*
D01*
G03X386914Y-89220I1455J392*
G01*
X386914Y-89220D01*
X386914Y-90402D01*
G75*
D01*
G03X386966Y-90795I1507J-1*
G01*
G74*
D01*
G03X386914Y-91189I1455J392*
G01*
X386914Y-91189D01*
X386914Y-92370D01*
G75*
D01*
G03X386966Y-92764I1507J-2*
G01*
G74*
D01*
G03X386914Y-93157I1455J392*
G01*
X386914Y-93157D01*
X386914Y-94339D01*
G75*
D01*
G03X386966Y-94732I1507J-1*
G01*
G74*
D01*
G03X386914Y-95126I1455J392*
G01*
X386914Y-95126D01*
X386914Y-96307D01*
G75*
D01*
G03X386966Y-96701I1507J-2*
G01*
G74*
D01*
G03X386914Y-97095I1455J392*
G01*
X386914Y-97095D01*
X386914Y-98276D01*
G75*
D01*
G03X386966Y-98669I1507J-1*
G01*
G74*
D01*
G03X386914Y-99063I1455J392*
G01*
X386914Y-99063D01*
X386914Y-100244D01*
G75*
D01*
G03X386966Y-100638I1507J-2*
G01*
G74*
D01*
G03X386914Y-101032I1455J392*
G01*
X386914Y-101032D01*
X386914Y-102213D01*
G75*
D01*
G03X388421Y-103720I1507J0*
G01*
X388421Y-103720D01*
X398421Y-103720D01*
G74*
D01*
G03X398929Y-103632I1J1507*
G01*
X398929Y-103632D01*
X406790Y-103632D01*
X408580Y-105422D01*
G75*
D01*
G03X411422Y-102580I3420J-578*
G01*
X411422Y-102580D01*
X411222Y-102380D01*
G75*
D01*
G03X408808Y-97644I778J3380*
G01*
X408808Y-97644D01*
X405698Y-97644D01*
X411332Y-92010D01*
X422173Y-92010D01*
G75*
D01*
G03X426804Y-87038I2825J2011*
G01*
X426804Y-87038D01*
X430422Y-83420D01*
G75*
D01*
G03X433414Y-77510I579J3419*
G01*
X433414Y-77510D01*
X437893Y-77510D01*
G75*
D01*
G03X438573Y-73490I3106J1542*
G01*
X438573Y-73490D01*
X427352Y-73490D01*
X429332Y-71510D01*
X447877Y-71510D01*
G75*
D01*
G03X448606Y-67490I3122J1510*
G01*
X448606Y-67490D01*
X428852Y-67490D01*
X430832Y-65510D01*
X455877Y-65510D01*
G75*
D01*
G03X456606Y-61490I3122J1510*
G01*
X456606Y-61490D01*
X430002Y-61490D01*
G75*
D01*
G03X428579Y-62079I-1J-2010*
G01*
X428579Y-62079D01*
X412699Y-77959D01*
X399929Y-77959D01*
X399929Y-77409D01*
G74*
D01*
G03X399876Y-77016I1508J3*
G01*
G74*
D01*
G03X399921Y-76775I1454J396*
G01*
X399921Y-76775D01*
X399789Y-76775D01*
G74*
D01*
G03X399118Y-76073I1367J635*
G01*
X399118Y-76073D01*
X401937Y-76073D01*
G74*
D01*
G03X403360Y-75482I1J2010*
G01*
X403360Y-75482D01*
X408419Y-70423D01*
G75*
D01*
G03X409010Y-69000I-1418J1423*
G01*
X409010Y-69000D01*
X409010Y-53832D01*
X417422Y-45420D01*
G75*
D01*
G03X414580Y-42578I578J3420*
G01*
X414580Y-42578D01*
X406010Y-51148D01*
X406010Y-47332D01*
X409876Y-43466D01*
G75*
D01*
G03X406674Y-40984I124J3466*
G01*
X406674Y-40984D01*
X402579Y-45079D01*
G75*
D01*
G03X401990Y-46504I1420J-1421*
G01*
X401990Y-46504D01*
X401990Y-68168D01*
X400073Y-70085D01*
X399929Y-70085D01*
X399929Y-69535D01*
G74*
D01*
G03X399876Y-69142I1508J3*
G01*
G75*
D01*
G03X399929Y-68748I-1454J396*
G01*
X399929Y-68748D01*
X399929Y-67567D01*
G74*
D01*
G03X399876Y-67173I1508J2*
G01*
G75*
D01*
G03X399929Y-66780I-1454J396*
G01*
X399929Y-66780D01*
X399929Y-65598D01*
G74*
D01*
G03X399876Y-65205I1508J3*
G01*
G75*
D01*
G03X399929Y-64811I-1454J396*
G01*
X399929Y-64811D01*
X399929Y-63630D01*
G74*
D01*
G03X399876Y-63236I1508J2*
G01*
G75*
D01*
G03X399929Y-62843I-1454J396*
G01*
X399929Y-62843D01*
X399929Y-61661D01*
G74*
D01*
G03X399876Y-61268I1508J3*
G01*
G75*
D01*
G03X399929Y-60874I-1454J396*
G01*
X399929Y-60874D01*
X399929Y-59693D01*
G74*
D01*
G03X399876Y-59299I1508J2*
G01*
G75*
D01*
G03X399929Y-58905I-1454J396*
G01*
X399929Y-58905D01*
X399929Y-57724D01*
G74*
D01*
G03X399876Y-57331I1508J3*
G01*
G75*
D01*
G03X399929Y-56937I-1454J396*
G01*
X399929Y-56937D01*
X399929Y-55756D01*
G74*
D01*
G03X399876Y-55362I1508J2*
G01*
G75*
D01*
G03X399929Y-54968I-1454J396*
G01*
X399929Y-54968D01*
X399929Y-53787D01*
G74*
D01*
G03X398421Y-52280I1508J1*
G01*
X398421Y-52280D01*
X388421Y-52280D01*
G75*
D01*
G03X387664Y-52484I0J-1507*
G01*
G75*
D01*
G03X387720Y-52079I-1450J407*
G01*
X387720Y-52079D01*
X387720Y-42079D01*
G74*
D01*
G03X387632Y-41571I1507J1*
G01*
X387632Y-41571D01*
X387632Y-37034D01*
G75*
D01*
G03X388970Y-34917I-1005J2117*
G01*
X388970Y-34917D01*
X388970Y-29083D01*
G74*
D01*
G03X387510Y-26912I2344J0*
G01*
X387510Y-26912D01*
X387510Y-25088D01*
G75*
D01*
G03X388970Y-22917I-884J2171*
G01*
X388970Y-22917D01*
X388970Y-17083D01*
G74*
D01*
G03X386626Y-14739I2344J0*
G01*
X386626Y-14739D01*
X384375Y-14739D01*
G75*
D01*
G03X382030Y-17083I-1J-2344*
G01*
X382030Y-17083D01*
X382030Y-22917D01*
G75*
D01*
G03X383490Y-25088I2345J1*
G01*
X383490Y-25088D01*
X383490Y-26912D01*
G74*
D01*
G03X382030Y-29083I884J2171*
G01*
X382030Y-29083D01*
X382030Y-34917D01*
G75*
D01*
G03X383612Y-37134I2345J0*
G01*
X383612Y-37134D01*
X383612Y-40571D01*
X383063Y-40571D01*
G75*
D01*
G03X382669Y-40624I2J-1508*
G01*
G74*
D01*
G03X382276Y-40571I396J1454*
G01*
X382276Y-40571D01*
X381095Y-40571D01*
G75*
D01*
G03X380701Y-40624I2J-1508*
G01*
G74*
D01*
G03X380307Y-40571I396J1454*
G01*
X380307Y-40571D01*
X379126Y-40571D01*
G75*
D01*
G03X378732Y-40624I2J-1508*
G01*
G74*
D01*
G03X378339Y-40571I396J1454*
G01*
X378339Y-40571D01*
X377158Y-40571D01*
G75*
D01*
G03X376764Y-40624I2J-1508*
G01*
G74*
D01*
G03X376370Y-40571I396J1454*
G01*
X376370Y-40571D01*
X375189Y-40571D01*
G75*
D01*
G03X374795Y-40624I2J-1508*
G01*
G74*
D01*
G03X374402Y-40571I396J1454*
G01*
X374402Y-40571D01*
X373220Y-40571D01*
G75*
D01*
G03X372827Y-40624I3J-1508*
G01*
G74*
D01*
G03X372433Y-40571I396J1454*
G01*
X372433Y-40571D01*
X371252Y-40571D01*
G75*
D01*
G03X370858Y-40624I2J-1508*
G01*
G74*
D01*
G03X370465Y-40571I396J1454*
G01*
X370465Y-40571D01*
X369283Y-40571D01*
G75*
D01*
G03X368890Y-40624I3J-1508*
G01*
G74*
D01*
G03X368496Y-40571I396J1454*
G01*
X368496Y-40571D01*
X367315Y-40571D01*
G75*
D01*
G03X366921Y-40624I2J-1508*
G01*
G74*
D01*
G03X366528Y-40571I396J1454*
G01*
X366528Y-40571D01*
X365346Y-40571D01*
G75*
D01*
G03X364953Y-40624I3J-1508*
G01*
G74*
D01*
G03X364712Y-40579I396J1454*
G01*
X364712Y-40579D01*
X364712Y-40711D01*
G74*
D01*
G03X363969Y-41468I635J1367*
G01*
G74*
D01*
G03X363225Y-40711I1378J610*
G01*
X363225Y-40711D01*
X363225Y-40579D01*
G74*
D01*
G03X362984Y-40624I155J1499*
G01*
G74*
D01*
G03X362591Y-40571I396J1454*
G01*
X362591Y-40571D01*
X361409Y-40571D01*
G75*
D01*
G03X361016Y-40624I3J-1508*
G01*
G74*
D01*
G03X360775Y-40579I396J1454*
G01*
X360775Y-40579D01*
X360775Y-40711D01*
G74*
D01*
G03X360031Y-41468I634J1367*
G01*
G74*
D01*
G03X359288Y-40711I1377J609*
G01*
X359288Y-40711D01*
X359288Y-40579D01*
G74*
D01*
G03X359047Y-40624I155J1499*
G01*
G74*
D01*
G03X358654Y-40571I396J1454*
G01*
X358654Y-40571D01*
X358510Y-40571D01*
X358510Y-35332D01*
X359422Y-34420D01*
G75*
D01*
G03X358510Y-27868I577J3420*
G01*
X358510Y-27868D01*
X358510Y-22625D01*
X366126Y-15009D01*
X366126Y-15009D01*
X378625Y-2510D01*
X382739Y-2510D01*
X382739Y-2625D01*
G75*
D01*
G03X385083Y-4970I2344J-1*
G01*
X385083Y-4970D01*
X390917Y-4970D01*
G75*
D01*
G03X393261Y-2625I-1J2345*
G01*
X393261Y-2625D01*
X393261Y-374D01*
G74*
D01*
G03X390917Y1970I2344J0*
G01*
X390917Y1970D01*
X385083Y1970D01*
G75*
D01*
G03X383688Y1510I0J-2344*
G01*
X383688Y1510D01*
X382645Y1510D01*
X387165Y6030D01*
X390917Y6030D01*
G75*
D01*
G03X393261Y8375I-1J2345*
G01*
X393261Y8375D01*
X393261Y10626D01*
G74*
D01*
G03X392942Y11807I2344J0*
G01*
X392942Y11807D01*
X416396Y35261D01*
X417990Y33668D01*
X417990Y14212D01*
G75*
D01*
G03X422010Y14212I2010J-4212*
G01*
X422010Y14212D01*
X422010Y34500D01*
G74*
D01*
G03X421419Y35923I2010J1*
G01*
X421419Y35923D01*
X419239Y38104D01*
X443813Y62678D01*
G75*
D01*
G02X198217Y-76500I-97814J-113676*
G01*
X198217Y-76500D01*
X212816Y-76500D01*
X218739Y-82423D01*
X218739Y-83625D01*
G75*
D01*
G03X221083Y-85970I2344J-1*
G01*
X221083Y-85970D01*
X221971Y-85970D01*
G75*
D01*
G03X226029Y-85970I2029J3469*
G01*
X226029Y-85970D01*
X226917Y-85970D01*
G75*
D01*
G03X229261Y-83625I-1J2345*
G01*
X229261Y-83625D01*
X229261Y-81374D01*
G74*
D01*
G03X226917Y-79030I2344J0*
G01*
X226917Y-79030D01*
X226714Y-79030D01*
X224184Y-76500D01*
X237000Y-76500D01*
X237000Y-77207D01*
X237293Y-77500D01*
X237707Y-77500D01*
X238000Y-77207D01*
X238000Y-76500D01*
X277757Y-76500D01*
G75*
D01*
G03X279500Y-77510I1743J999*
G01*
X279500Y-77510D01*
X297148Y-77510D01*
X296628Y-78030D01*
X293083Y-78030D01*
G75*
D01*
G03X291695Y-78485I0J-2344*
G01*
X291695Y-78485D01*
X288305Y-78485D01*
G74*
D01*
G03X286917Y-78030I1388J1889*
G01*
X286917Y-78030D01*
X281083Y-78030D01*
G75*
D01*
G03X279695Y-78485I0J-2344*
G01*
X279695Y-78485D01*
X274500Y-78485D01*
G75*
D01*
G03X274261Y-78495I6J-3015*
G01*
G74*
D01*
G03X273975Y-78532I243J3004*
G01*
G74*
D01*
G03X270532Y-81975I25J3468*
G01*
G75*
D01*
G03X274025Y-85468I2968J-525*
G01*
G74*
D01*
G03X276389Y-84515I24J3468*
G01*
X276389Y-84515D01*
X279695Y-84515D01*
G75*
D01*
G03X281083Y-84970I1388J1889*
G01*
X281083Y-84970D01*
X286917Y-84970D01*
G74*
D01*
G03X288305Y-84515I0J2345*
G01*
X288305Y-84515D01*
X291695Y-84515D01*
G75*
D01*
G03X293083Y-84970I1388J1889*
G01*
X293083Y-84970D01*
X298917Y-84970D01*
G74*
D01*
G03X300854Y-83947I0J2345*
G01*
X300854Y-83947D01*
X324071Y-83947D01*
X324071Y-84496D01*
G75*
D01*
G03X324124Y-84890I1508J2*
G01*
G74*
D01*
G03X324071Y-85283I1454J396*
G01*
X324071Y-85283D01*
X324071Y-86465D01*
G75*
D01*
G03X324124Y-86858I1508J3*
G01*
G74*
D01*
G03X324071Y-87252I1454J396*
G01*
X324071Y-87252D01*
X324071Y-88433D01*
G75*
D01*
G03X324124Y-88827I1508J2*
G01*
G74*
D01*
G03X324071Y-89220I1454J396*
G01*
X324071Y-89220D01*
X324071Y-90402D01*
G75*
D01*
G03X324124Y-90795I1508J3*
G01*
G74*
D01*
G03X324071Y-91189I1454J396*
G01*
X324071Y-91189D01*
X324071Y-92370D01*
G75*
D01*
G03X324124Y-92764I1508J2*
G01*
G74*
D01*
G03X324071Y-93157I1454J396*
G01*
X324071Y-93157D01*
X324071Y-94339D01*
G75*
D01*
G03X324124Y-94732I1508J3*
G01*
G74*
D01*
G03X324071Y-95126I1454J396*
G01*
X324071Y-95126D01*
X324071Y-96307D01*
G75*
D01*
G03X324124Y-96701I1508J2*
G01*
G74*
D01*
G03X324071Y-97095I1454J396*
G01*
X324071Y-97095D01*
X324071Y-98276D01*
G75*
D01*
G03X324124Y-98669I1508J3*
G01*
G74*
D01*
G03X324071Y-99063I1454J396*
G01*
X324071Y-99063D01*
X324071Y-100244D01*
G75*
D01*
G03X324124Y-100638I1508J2*
G01*
G74*
D01*
G03X324079Y-100878I1454J397*
G01*
X324079Y-100878D01*
X324211Y-100878D01*
G75*
D01*
G03X325579Y-101751I1367J634*
G01*
X325579Y-101751D01*
X335579Y-101751D01*
G74*
D01*
G03X336946Y-100878I0J1507*
G01*
X336946Y-100878D01*
X337078Y-100878D01*
G74*
D01*
G03X337034Y-100638I1498J151*
G01*
G75*
D01*
G03X337086Y-100244I-1455J392*
G01*
X337086Y-100244D01*
X337086Y-99063D01*
G74*
D01*
G03X337034Y-98669I1507J2*
G01*
G75*
D01*
G03X337086Y-98276I-1455J392*
G01*
X337086Y-98276D01*
X337086Y-97095D01*
G74*
D01*
G03X337034Y-96701I1507J2*
G01*
G75*
D01*
G03X337086Y-96307I-1455J392*
G01*
X337086Y-96307D01*
X337086Y-95126D01*
G74*
D01*
G03X337034Y-94732I1507J2*
G01*
G75*
D01*
G03X337086Y-94339I-1455J392*
G01*
X337086Y-94339D01*
X337086Y-93157D01*
G74*
D01*
G03X337034Y-92764I1507J1*
G01*
G75*
D01*
G03X337086Y-92370I-1455J392*
G01*
X337086Y-92370D01*
X337086Y-91189D01*
G74*
D01*
G03X337034Y-90795I1507J2*
G01*
G75*
D01*
G03X337086Y-90402I-1455J392*
G01*
X337086Y-90402D01*
X337086Y-89220D01*
G74*
D01*
G03X337034Y-88827I1507J1*
G01*
G75*
D01*
G03X337086Y-88433I-1455J392*
G01*
X337086Y-88433D01*
X337086Y-87252D01*
G74*
D01*
G03X337034Y-86858I1507J2*
G01*
G75*
D01*
G03X337086Y-86465I-1455J392*
G01*
X337086Y-86465D01*
X337086Y-85283D01*
G74*
D01*
G03X337034Y-84890I1507J1*
G01*
G75*
D01*
G03X337086Y-84496I-1455J392*
G01*
X337086Y-84496D01*
X337086Y-83315D01*
G74*
D01*
G03X337034Y-82921I1507J2*
G01*
G75*
D01*
G03X337086Y-82528I-1455J392*
G01*
X337086Y-82528D01*
X337086Y-81346D01*
G74*
D01*
G03X337034Y-80953I1507J1*
G01*
G75*
D01*
G03X337086Y-80559I-1455J392*
G01*
X337086Y-80559D01*
X337086Y-80010D01*
X344499Y-80010D01*
G75*
D01*
G03X344501Y-80010I1J2010*
G01*
X344501Y-80010D01*
X345668Y-80010D01*
X348990Y-83332D01*
X348990Y-91173D01*
G75*
D01*
G03X353010Y-91173I2010J-2826*
G01*
X353010Y-91173D01*
X353010Y-82500D01*
G74*
D01*
G03X352419Y-81077I2010J1*
G01*
X352419Y-81077D01*
X348342Y-77000D01*
X359482Y-65860D01*
G75*
D01*
G03X360073Y-64437I-1418J1423*
G01*
X360073Y-64437D01*
X360073Y-52775D01*
G74*
D01*
G03X360775Y-53446I1336J695*
G01*
X360775Y-53446D01*
X360775Y-53578D01*
G74*
D01*
G03X361016Y-53534I149J1499*
G01*
G75*
D01*
G03X361409Y-53586I392J1455*
G01*
X361409Y-53586D01*
X362591Y-53586D01*
G74*
D01*
G03X362984Y-53534I1J1507*
G01*
G74*
D01*
G03X363225Y-53578I390J1456*
G01*
X363225Y-53578D01*
X363225Y-53446D01*
G74*
D01*
G03X363969Y-52690I633J1367*
G01*
G74*
D01*
G03X364712Y-53446I1377J610*
G01*
X364712Y-53446D01*
X364712Y-53578D01*
G74*
D01*
G03X364953Y-53534I149J1499*
G01*
G75*
D01*
G03X365346Y-53586I392J1455*
G01*
X365346Y-53586D01*
X366528Y-53586D01*
G74*
D01*
G03X366921Y-53534I1J1507*
G01*
G75*
D01*
G03X367315Y-53586I392J1455*
G01*
X367315Y-53586D01*
X368496Y-53586D01*
G74*
D01*
G03X368890Y-53534I2J1507*
G01*
G75*
D01*
G03X369283Y-53586I392J1455*
G01*
X369283Y-53586D01*
X369833Y-53586D01*
X369833Y-57734D01*
G75*
D01*
G03X373852Y-59026I1167J-3266*
G01*
X373852Y-59026D01*
X373852Y-53586D01*
X374402Y-53586D01*
G74*
D01*
G03X374795Y-53534I1J1507*
G01*
G75*
D01*
G03X375189Y-53586I392J1455*
G01*
X375189Y-53586D01*
X376370Y-53586D01*
G74*
D01*
G03X376764Y-53534I2J1507*
G01*
G75*
D01*
G03X377158Y-53586I392J1455*
G01*
X377158Y-53586D01*
X378339Y-53586D01*
G74*
D01*
G03X378732Y-53534I1J1507*
G01*
G75*
D01*
G03X379126Y-53586I392J1455*
G01*
X379126Y-53586D01*
X380307Y-53586D01*
G74*
D01*
G03X380701Y-53534I2J1507*
G01*
G75*
D01*
G03X381095Y-53586I392J1455*
G01*
D02*
G37*
%LPC*%
G36*
X376407Y-14873D02*
G74*
D01*
G03X375626Y-14739I781J2209*
G01*
X375626Y-14739D01*
X373375Y-14739D01*
G75*
D01*
G03X372593Y-14873I-1J-2344*
G01*
X372593Y-14873D01*
X372682Y-15009D01*
X372682Y-15009D01*
X374500Y-17765D01*
X376318Y-15009D01*
X376318Y-15009D01*
X376407Y-14873D01*
D02*
G37*
G36*
X433827Y-3990D02*
G75*
D01*
G03X433827Y-8010I-2826J-2010*
G01*
X433827Y-8010D01*
X477621Y-8010D01*
G75*
D01*
G03X480959Y-10517I3337J968*
G01*
X480959Y-10517D01*
X483041Y-10517D01*
G75*
D01*
G03X486517Y-7041I0J3476*
G01*
X486517Y-7041D01*
X486517Y-4958D01*
G74*
D01*
G03X483041Y-1483I3476J1*
G01*
X483041Y-1483D01*
X480959Y-1483D01*
G75*
D01*
G03X477621Y-3990I-1J-3475*
G01*
X477621Y-3990D01*
X433827Y-3990D01*
D02*
G37*
G36*
X453827Y-13990D02*
G75*
D01*
G03X453827Y-18010I-2826J-2010*
G01*
X453827Y-18010D01*
X477788Y-18010D01*
G75*
D01*
G03X477788Y-13990I4212J2010*
G01*
X477788Y-13990D01*
X453827Y-13990D01*
D02*
G37*
G36*
X475500Y-63990D02*
G75*
D01*
G03X474824Y-64107I0J-2010*
G01*
G74*
D01*
G03X474079Y-64579I677J1893*
G01*
X474079Y-64579D01*
X463579Y-75079D01*
G75*
D01*
G03X462990Y-76504I1420J-1421*
G01*
X462990Y-76504D01*
X462990Y-96173D01*
G75*
D01*
G03X467010Y-96173I2010J-2826*
G01*
X467010Y-96173D01*
X467010Y-77332D01*
X476332Y-68010D01*
X477788Y-68010D01*
G75*
D01*
G03X477788Y-63990I4212J2010*
G01*
X477788Y-63990D01*
X475500Y-63990D01*
D02*
G37*
G36*
X415827Y-53990D02*
G75*
D01*
G03X415827Y-58010I-2826J-2010*
G01*
X415827Y-58010D01*
X477788Y-58010D01*
G75*
D01*
G03X477788Y-53990I4212J2010*
G01*
X477788Y-53990D01*
X415827Y-53990D01*
D02*
G37*
G36*
X427827Y-43990D02*
G75*
D01*
G03X427827Y-48010I-2826J-2010*
G01*
X427827Y-48010D01*
X477788Y-48010D01*
G75*
D01*
G03X477788Y-43990I4212J2010*
G01*
X477788Y-43990D01*
X427827Y-43990D01*
D02*
G37*
G36*
X461827Y-33990D02*
G75*
D01*
G03X461827Y-38010I-2826J-2010*
G01*
X461827Y-38010D01*
X477788Y-38010D01*
G75*
D01*
G03X477788Y-33990I4212J2010*
G01*
X477788Y-33990D01*
X461827Y-33990D01*
D02*
G37*
G36*
X444827Y-23990D02*
G75*
D01*
G03X444827Y-28010I-2826J-2010*
G01*
X444827Y-28010D01*
X477788Y-28010D01*
G75*
D01*
G03X477788Y-23990I4212J2010*
G01*
X477788Y-23990D01*
X444827Y-23990D01*
D02*
G37*
G36*
X473079Y-88079D02*
G75*
D01*
G03X472490Y-89502I1420J-1421*
G01*
X472490Y-89502D01*
X472490Y-102168D01*
X469668Y-104990D01*
X461832Y-104990D01*
X457683Y-100841D01*
G75*
D01*
G03X459261Y-98625I-766J2215*
G01*
X459261Y-98625D01*
X459261Y-96374D01*
G74*
D01*
G03X456917Y-94030I2344J0*
G01*
X456917Y-94030D01*
X451083Y-94030D01*
G75*
D01*
G03X448912Y-95490I0J-2344*
G01*
X448912Y-95490D01*
X447088Y-95490D01*
G74*
D01*
G03X444917Y-94030I2171J884*
G01*
X444917Y-94030D01*
X439083Y-94030D01*
G75*
D01*
G03X436739Y-96374I0J-2344*
G01*
X436739Y-96374D01*
X436739Y-98625D01*
G75*
D01*
G03X439083Y-100970I2344J-1*
G01*
X439083Y-100970D01*
X444917Y-100970D01*
G74*
D01*
G03X447088Y-99510I1J2345*
G01*
X447088Y-99510D01*
X448912Y-99510D01*
G75*
D01*
G03X451083Y-100970I2171J884*
G01*
X451083Y-100970D01*
X452715Y-100970D01*
G74*
D01*
G03X453286Y-102128I1992J262*
G01*
X453286Y-102128D01*
X459579Y-108421D01*
G74*
D01*
G03X460396Y-108917I1421J1420*
G01*
G75*
D01*
G03X461000Y-109010I604J1916*
G01*
X461000Y-109010D01*
X470500Y-109010D01*
G74*
D01*
G03X471923Y-108419I1J2010*
G01*
X471923Y-108419D01*
X475919Y-104423D01*
G75*
D01*
G03X476510Y-103000I-1418J1423*
G01*
X476510Y-103000D01*
X476510Y-90332D01*
X478172Y-88670D01*
G75*
D01*
G03X477782Y-84002I3828J2670*
G01*
G74*
D01*
G03X476579Y-84579I218J1997*
G01*
X476579Y-84579D01*
X473079Y-88079D01*
D02*
G37*
G36*
X384755Y-143903D02*
X384755Y-143903D01*
X381991Y-146667D01*
X378628Y-150030D01*
X377372Y-150030D01*
X373010Y-145668D01*
X373010Y-144720D01*
G75*
D01*
G03X375083Y-145970I2073J1094*
G01*
X375083Y-145970D01*
X380917Y-145970D01*
G75*
D01*
G03X383261Y-143625I-1J2345*
G01*
X383261Y-143625D01*
X383261Y-141374D01*
G74*
D01*
G03X380917Y-139030I2344J0*
G01*
X380917Y-139030D01*
X380010Y-139030D01*
X380010Y-132293D01*
G74*
D01*
G03X379419Y-130869I2010J0*
G01*
X379419Y-130869D01*
X377131Y-128581D01*
G74*
D01*
G03X375817Y-127993I1424J1419*
G01*
G75*
D01*
G03X375706Y-127990I-110J-2007*
G01*
X375706Y-127990D01*
X365332Y-127990D01*
X360352Y-123010D01*
X376173Y-123010D01*
G75*
D01*
G03X376173Y-118990I2826J2010*
G01*
X376173Y-118990D01*
X359332Y-118990D01*
X358104Y-117762D01*
X358104Y-115929D01*
X358654Y-115929D01*
G74*
D01*
G03X359047Y-115876I3J1508*
G01*
G75*
D01*
G03X359441Y-115929I396J1454*
G01*
X359441Y-115929D01*
X360622Y-115929D01*
G74*
D01*
G03X361016Y-115876I2J1508*
G01*
G75*
D01*
G03X361409Y-115929I396J1454*
G01*
X361409Y-115929D01*
X362591Y-115929D01*
G74*
D01*
G03X362984Y-115876I3J1508*
G01*
G75*
D01*
G03X363378Y-115929I396J1454*
G01*
X363378Y-115929D01*
X364559Y-115929D01*
G74*
D01*
G03X364953Y-115876I2J1508*
G01*
G75*
D01*
G03X365346Y-115929I396J1454*
G01*
X365346Y-115929D01*
X366528Y-115929D01*
G74*
D01*
G03X366921Y-115876I3J1508*
G01*
G75*
D01*
G03X367315Y-115929I396J1454*
G01*
X367315Y-115929D01*
X368496Y-115929D01*
G74*
D01*
G03X368890Y-115876I2J1508*
G01*
G75*
D01*
G03X369283Y-115929I396J1454*
G01*
X369283Y-115929D01*
X370465Y-115929D01*
G74*
D01*
G03X370858Y-115876I3J1508*
G01*
G75*
D01*
G03X371252Y-115929I396J1454*
G01*
X371252Y-115929D01*
X372433Y-115929D01*
G74*
D01*
G03X372827Y-115876I2J1508*
G01*
G75*
D01*
G03X373220Y-115929I396J1454*
G01*
X373220Y-115929D01*
X374402Y-115929D01*
G74*
D01*
G03X374795Y-115876I3J1508*
G01*
G75*
D01*
G03X375189Y-115929I396J1454*
G01*
X375189Y-115929D01*
X376370Y-115929D01*
G74*
D01*
G03X376764Y-115876I2J1508*
G01*
G75*
D01*
G03X377158Y-115929I396J1454*
G01*
X377158Y-115929D01*
X378339Y-115929D01*
G74*
D01*
G03X378732Y-115876I3J1508*
G01*
G75*
D01*
G03X379126Y-115929I396J1454*
G01*
X379126Y-115929D01*
X380307Y-115929D01*
G74*
D01*
G03X380701Y-115876I2J1508*
G01*
G75*
D01*
G03X381095Y-115929I396J1454*
G01*
X381095Y-115929D01*
X382276Y-115929D01*
G74*
D01*
G03X382669Y-115876I3J1508*
G01*
G75*
D01*
G03X383063Y-115929I396J1454*
G01*
X383063Y-115929D01*
X384244Y-115929D01*
G74*
D01*
G03X384638Y-115876I2J1508*
G01*
G75*
D01*
G03X385032Y-115929I396J1454*
G01*
X385032Y-115929D01*
X386213Y-115929D01*
G75*
D01*
G03X387720Y-114421I-1J1508*
G01*
X387720Y-114421D01*
X387720Y-104421D01*
G74*
D01*
G03X386213Y-102914I1507J0*
G01*
X386213Y-102914D01*
X385032Y-102914D01*
G75*
D01*
G03X384638Y-102966I-2J-1507*
G01*
G74*
D01*
G03X384244Y-102914I392J1455*
G01*
X384244Y-102914D01*
X383063Y-102914D01*
G75*
D01*
G03X382669Y-102966I-2J-1507*
G01*
G74*
D01*
G03X382276Y-102914I392J1455*
G01*
X382276Y-102914D01*
X381095Y-102914D01*
G75*
D01*
G03X380701Y-102966I-2J-1507*
G01*
G74*
D01*
G03X380307Y-102914I392J1455*
G01*
X380307Y-102914D01*
X379126Y-102914D01*
G75*
D01*
G03X378732Y-102966I-2J-1507*
G01*
G74*
D01*
G03X378339Y-102914I392J1455*
G01*
X378339Y-102914D01*
X377158Y-102914D01*
G75*
D01*
G03X376764Y-102966I-2J-1507*
G01*
G74*
D01*
G03X376370Y-102914I392J1455*
G01*
X376370Y-102914D01*
X375189Y-102914D01*
G75*
D01*
G03X374795Y-102966I-2J-1507*
G01*
G74*
D01*
G03X374402Y-102914I392J1455*
G01*
X374402Y-102914D01*
X373220Y-102914D01*
G75*
D01*
G03X372827Y-102966I-1J-1507*
G01*
G74*
D01*
G03X372433Y-102914I392J1455*
G01*
X372433Y-102914D01*
X371252Y-102914D01*
G75*
D01*
G03X370858Y-102966I-2J-1507*
G01*
G74*
D01*
G03X370465Y-102914I392J1455*
G01*
X370465Y-102914D01*
X369283Y-102914D01*
G75*
D01*
G03X368890Y-102966I-1J-1507*
G01*
G74*
D01*
G03X368496Y-102914I392J1455*
G01*
X368496Y-102914D01*
X367315Y-102914D01*
G75*
D01*
G03X366921Y-102966I-2J-1507*
G01*
G74*
D01*
G03X366528Y-102914I392J1455*
G01*
X366528Y-102914D01*
X365346Y-102914D01*
G75*
D01*
G03X364953Y-102966I-1J-1507*
G01*
G74*
D01*
G03X364559Y-102914I392J1455*
G01*
X364559Y-102914D01*
X363378Y-102914D01*
G75*
D01*
G03X362984Y-102966I-2J-1507*
G01*
G74*
D01*
G03X362591Y-102914I392J1455*
G01*
X362591Y-102914D01*
X361409Y-102914D01*
G75*
D01*
G03X361016Y-102966I-1J-1507*
G01*
G74*
D01*
G03X360622Y-102914I392J1455*
G01*
X360622Y-102914D01*
X359441Y-102914D01*
G75*
D01*
G03X359047Y-102966I-2J-1507*
G01*
G74*
D01*
G03X358654Y-102914I392J1455*
G01*
X358654Y-102914D01*
X357472Y-102914D01*
G75*
D01*
G03X357079Y-102966I-1J-1507*
G01*
G74*
D01*
G03X356685Y-102914I392J1455*
G01*
X356685Y-102914D01*
X355504Y-102914D01*
G75*
D01*
G03X355110Y-102966I-2J-1507*
G01*
G74*
D01*
G03X354717Y-102914I392J1455*
G01*
X354717Y-102914D01*
X353535Y-102914D01*
G75*
D01*
G03X353142Y-102966I-1J-1507*
G01*
G74*
D01*
G03X352748Y-102914I392J1455*
G01*
X352748Y-102914D01*
X351567Y-102914D01*
G75*
D01*
G03X351173Y-102966I-2J-1507*
G01*
G74*
D01*
G03X350780Y-102914I392J1455*
G01*
X350780Y-102914D01*
X349598Y-102914D01*
G75*
D01*
G03X349205Y-102966I-1J-1507*
G01*
G74*
D01*
G03X348811Y-102914I392J1455*
G01*
X348811Y-102914D01*
X347630Y-102914D01*
G75*
D01*
G03X347236Y-102966I-2J-1507*
G01*
G74*
D01*
G03X346843Y-102914I392J1455*
G01*
X346843Y-102914D01*
X346293Y-102914D01*
X346293Y-102783D01*
G74*
D01*
G03X345702Y-101360I2010J1*
G01*
X345702Y-101360D01*
X344128Y-99786D01*
X344128Y-99786D01*
G75*
D01*
G03X342707Y-99197I-1421J-1420*
G01*
X342707Y-99197D01*
X340296Y-99197D01*
G75*
D01*
G03X339611Y-99317I-1J-2010*
G01*
G74*
D01*
G03X338870Y-99788I681J1890*
G01*
X338870Y-99788D01*
X336957Y-101701D01*
G74*
D01*
G03X336516Y-102366I1420J1421*
G01*
X336516Y-102366D01*
X331323Y-102366D01*
X331323Y-103720D01*
X335579Y-103720D01*
G74*
D01*
G03X336368Y-103497I0J1507*
G01*
X336368Y-103497D01*
X336368Y-103913D01*
G74*
D01*
G03X336280Y-104421I1419J507*
G01*
X336280Y-104421D01*
X336280Y-114421D01*
G75*
D01*
G03X337787Y-115929I1507J-1*
G01*
X337787Y-115929D01*
X338337Y-115929D01*
X338337Y-117554D01*
X336906Y-118985D01*
G74*
D01*
G03X335859Y-118739I1045J2098*
G01*
X335859Y-118739D01*
X333608Y-118739D01*
G75*
D01*
G03X331264Y-121083I0J-2344*
G01*
X331264Y-121083D01*
X331264Y-126917D01*
G75*
D01*
G03X331870Y-128490I2344J0*
G01*
X331870Y-128490D01*
X286000Y-128490D01*
G75*
D01*
G03X285514Y-128550I1J-2010*
G01*
G74*
D01*
G03X284579Y-129079I486J1949*
G01*
X284579Y-129079D01*
X272579Y-141079D01*
G75*
D01*
G03X271990Y-142505I1420J-1421*
G01*
X271990Y-142505D01*
X271990Y-161007D01*
G74*
D01*
G03X270609Y-162340I1629J3070*
G01*
X270609Y-162340D01*
X269568Y-164144D01*
G75*
D01*
G03X270840Y-168891I3008J-1738*
G01*
X270840Y-168891D01*
X272644Y-169932D01*
G75*
D01*
G03X277391Y-168660I1738J3008*
G01*
X277391Y-168660D01*
X278432Y-166856D01*
G75*
D01*
G03X277160Y-162109I-3008J1738*
G01*
X277160Y-162109D01*
X276010Y-161445D01*
X276010Y-143332D01*
X286832Y-132510D01*
X337168Y-132510D01*
X346079Y-141421D01*
G74*
D01*
G03X346889Y-141915I1421J1420*
G01*
G75*
D01*
G03X347500Y-142010I611J1915*
G01*
X347500Y-142010D01*
X354100Y-142010D01*
G74*
D01*
G03X353997Y-142559I1404J548*
G01*
X353997Y-142559D01*
X353997Y-142787D01*
X356519Y-142787D01*
X356519Y-142010D01*
X358426Y-142010D01*
X358426Y-142787D01*
X360948Y-142787D01*
X360948Y-142559D01*
G74*
D01*
G03X360845Y-142010I1507J1*
G01*
X360845Y-142010D01*
X363300Y-142010D01*
G74*
D01*
G03X364518Y-142688I1259J828*
G01*
X364518Y-142688D01*
X364518Y-146022D01*
G75*
D01*
G03X365106Y-147449I2010J-6*
G01*
X365106Y-147449D01*
X366990Y-149332D01*
X366990Y-160645D01*
G74*
D01*
G03X365489Y-162833I843J2187*
G01*
X365489Y-162833D01*
X365489Y-163147D01*
X362511Y-160169D01*
X362511Y-158666D01*
G74*
D01*
G03X360167Y-156322I2344J0*
G01*
X360167Y-156322D01*
X358331Y-156322D01*
X354441Y-152433D01*
G75*
D01*
G03X351718Y-155393I-3441J433*
G01*
X351718Y-155393D01*
X355489Y-159164D01*
X355489Y-161000D01*
G75*
D01*
G03X357833Y-163345I2344J-1*
G01*
X357833Y-163345D01*
X360003Y-163345D01*
X362490Y-165832D01*
X362490Y-166687D01*
G74*
D01*
G03X360167Y-164655I2322J311*
G01*
X360167Y-164655D01*
X357833Y-164655D01*
G75*
D01*
G03X355489Y-167000I1J-2345*
G01*
X355489Y-167000D01*
X355489Y-169334D01*
G75*
D01*
G03X356990Y-171521I2344J0*
G01*
X356990Y-171521D01*
X356990Y-175030D01*
X355083Y-175030D01*
G75*
D01*
G03X352739Y-177374I0J-2344*
G01*
X352739Y-177374D01*
X352739Y-179625D01*
G75*
D01*
G03X355083Y-181970I2344J-1*
G01*
X355083Y-181970D01*
X360917Y-181970D01*
G75*
D01*
G03X363261Y-179625I-1J2345*
G01*
X363261Y-179625D01*
X363261Y-177374D01*
G74*
D01*
G03X361010Y-175032I2344J0*
G01*
X361010Y-175032D01*
X361010Y-171521D01*
G74*
D01*
G03X362490Y-169646I842J2186*
G01*
X362490Y-169646D01*
X362490Y-172996D01*
G75*
D01*
G03X363079Y-174421I2010J-3*
G01*
X363079Y-174421D01*
X364985Y-176328D01*
G74*
D01*
G03X364739Y-177374I2098J1045*
G01*
X364739Y-177374D01*
X364739Y-179625D01*
G75*
D01*
G03X367083Y-181970I2344J-1*
G01*
X367083Y-181970D01*
X372917Y-181970D01*
G75*
D01*
G03X375261Y-179625I-1J2345*
G01*
X375261Y-179625D01*
X375261Y-177374D01*
G74*
D01*
G03X372917Y-175030I2344J0*
G01*
X372917Y-175030D01*
X369372Y-175030D01*
X366510Y-172168D01*
X366510Y-167102D01*
G75*
D01*
G03X367833Y-167511I1323J1935*
G01*
X367833Y-167511D01*
X370167Y-167511D01*
G75*
D01*
G03X372511Y-165167I0J2344*
G01*
X372511Y-165167D01*
X372511Y-162833D01*
G74*
D01*
G03X371010Y-160645I2344J1*
G01*
X371010Y-160645D01*
X371010Y-149352D01*
X372985Y-151328D01*
G74*
D01*
G03X372739Y-152374I2098J1045*
G01*
X372739Y-152374D01*
X372739Y-154625D01*
G75*
D01*
G03X375083Y-156970I2344J-1*
G01*
X375083Y-156970D01*
X380917Y-156970D01*
G75*
D01*
G03X383261Y-154625I-1J2345*
G01*
X383261Y-154625D01*
X383261Y-152374D01*
G74*
D01*
G03X383015Y-151328I2344J1*
G01*
X383015Y-151328D01*
X388372Y-145970D01*
X392917Y-145970D01*
G75*
D01*
G03X395261Y-143625I-1J2345*
G01*
X395261Y-143625D01*
X395261Y-141374D01*
G74*
D01*
G03X392917Y-139030I2344J0*
G01*
X392917Y-139030D01*
X387083Y-139030D01*
G75*
D01*
G03X384739Y-141374I0J-2344*
G01*
X384739Y-141374D01*
X384739Y-143625D01*
G75*
D01*
G03X384755Y-143903I2344J-5*
G01*
D02*
G37*
G36*
X292368Y-107368D02*
X292368Y-107368D01*
X290240Y-109497D01*
X290240Y-109497D01*
X288868Y-110868D01*
G74*
D01*
G03X288146Y-112028I2132J2132*
G01*
G75*
D01*
G03X294463Y-113800I2854J-1972*
G01*
X294463Y-113800D01*
X295726Y-112537D01*
G75*
D01*
G03X297083Y-112970I1357J1911*
G01*
X297083Y-112970D01*
X302917Y-112970D01*
G74*
D01*
G03X304305Y-112515I0J2345*
G01*
X304305Y-112515D01*
X307695Y-112515D01*
G75*
D01*
G03X309083Y-112970I1388J1889*
G01*
X309083Y-112970D01*
X314917Y-112970D01*
G75*
D01*
G03X317261Y-110625I-1J2345*
G01*
X317261Y-110625D01*
X317261Y-108374D01*
G74*
D01*
G03X314917Y-106030I2344J0*
G01*
X314917Y-106030D01*
X309083Y-106030D01*
G75*
D01*
G03X307695Y-106485I0J-2344*
G01*
X307695Y-106485D01*
X304305Y-106485D01*
G74*
D01*
G03X302917Y-106030I1388J1889*
G01*
X302917Y-106030D01*
X297083Y-106030D01*
G75*
D01*
G03X295695Y-106485I0J-2344*
G01*
X295695Y-106485D01*
X294500Y-106485D01*
G75*
D01*
G03X293389Y-106698I2J-3015*
G01*
G74*
D01*
G03X292368Y-107368I1109J2803*
G01*
D02*
G37*
G36*
X291023Y-150033D02*
G74*
D01*
G03X290917Y-150030I119J2340*
G01*
X290917Y-150030D01*
X285083Y-150030D01*
G75*
D01*
G03X284977Y-150033I13J-2344*
G01*
X284977Y-150033D01*
X287503Y-151698D01*
X287503Y-151698D01*
X288000Y-152026D01*
X291023Y-150033D01*
D02*
G37*
G36*
X290917Y-156970D02*
G74*
D01*
G03X291023Y-156967I13J2345*
G01*
X291023Y-156967D01*
X288000Y-154974D01*
X287503Y-155302D01*
X287503Y-155302D01*
X284977Y-156967D01*
G75*
D01*
G03X285083Y-156970I119J2341*
G01*
X285083Y-156970D01*
X290917Y-156970D01*
D02*
G37*
G36*
X288460Y-177260D02*
G74*
D01*
G03X289632Y-179244I2344J46*
G01*
X289632Y-179244D01*
X291581Y-180369D01*
G75*
D01*
G03X294783Y-179511I1172J2030*
G01*
X294783Y-179511D01*
X297700Y-174459D01*
G75*
D01*
G03X296842Y-171256I-2030J1173*
G01*
X296842Y-171256D01*
X294893Y-170131D01*
G75*
D01*
G03X291690Y-170989I-1173J-2030*
G01*
X291690Y-170989D01*
X290391Y-173240D01*
X288243Y-173240D01*
X287503Y-172501D01*
X287060Y-172057D01*
G75*
D01*
G03X284218Y-174899I-4399J1557*
G01*
X284218Y-174899D01*
X285989Y-176671D01*
G75*
D01*
G03X287411Y-177260I1421J1420*
G01*
X287411Y-177260D01*
X288460Y-177260D01*
D02*
G37*
G36*
X290917Y-145970D02*
G74*
D01*
G03X293088Y-144510I1J2345*
G01*
X293088Y-144510D01*
X294912Y-144510D01*
G75*
D01*
G03X297083Y-145970I2171J884*
G01*
X297083Y-145970D01*
X302917Y-145970D01*
G74*
D01*
G03X305088Y-144510I1J2345*
G01*
X305088Y-144510D01*
X317500Y-144510D01*
G74*
D01*
G03X318923Y-143919I1J2010*
G01*
X318923Y-143919D01*
X324573Y-138270D01*
X326245Y-138270D01*
G75*
D01*
G03X327504Y-138948I1258J829*
G01*
X327504Y-138948D01*
X331441Y-138948D01*
G75*
D01*
G03X332948Y-137441I0J1507*
G01*
X332948Y-137441D01*
X332948Y-135079D01*
G74*
D01*
G03X331441Y-133571I1507J1*
G01*
X331441Y-133571D01*
X327504Y-133571D01*
G75*
D01*
G03X326245Y-134250I1J-1508*
G01*
X326245Y-134250D01*
X323743Y-134250D01*
G75*
D01*
G03X322319Y-134839I-2J-2010*
G01*
X322319Y-134839D01*
X316668Y-140490D01*
X305088Y-140490D01*
G74*
D01*
G03X302917Y-139030I2171J884*
G01*
X302917Y-139030D01*
X297083Y-139030D01*
G75*
D01*
G03X294912Y-140490I0J-2344*
G01*
X294912Y-140490D01*
X293088Y-140490D01*
G74*
D01*
G03X290917Y-139030I2171J884*
G01*
X290917Y-139030D01*
X285083Y-139030D01*
G75*
D01*
G03X282739Y-141374I0J-2344*
G01*
X282739Y-141374D01*
X282739Y-143625D01*
G75*
D01*
G03X285083Y-145970I2344J-1*
G01*
X285083Y-145970D01*
X290917Y-145970D01*
D02*
G37*
G36*
X386979Y-184848D02*
G75*
D01*
G03X382382Y-184276I-1980J2847*
G01*
X382382Y-184276D01*
X381991Y-184667D01*
X381991Y-184667D01*
X379168Y-187490D01*
X375088Y-187490D01*
G74*
D01*
G03X372917Y-186030I2171J884*
G01*
X372917Y-186030D01*
X367083Y-186030D01*
G75*
D01*
G03X364912Y-187490I0J-2344*
G01*
X364912Y-187490D01*
X363088Y-187490D01*
G74*
D01*
G03X360917Y-186030I2171J884*
G01*
X360917Y-186030D01*
X357372Y-186030D01*
X348423Y-177081D01*
G74*
D01*
G03X347000Y-176490I1423J1418*
G01*
X347000Y-176490D01*
X345088Y-176490D01*
G74*
D01*
G03X342917Y-175030I2171J884*
G01*
X342917Y-175030D01*
X337083Y-175030D01*
G75*
D01*
G03X334912Y-176490I0J-2344*
G01*
X334912Y-176490D01*
X333088Y-176490D01*
G74*
D01*
G03X330917Y-175030I2171J884*
G01*
X330917Y-175030D01*
X326979Y-175030D01*
X330331Y-171678D01*
X332167Y-171678D01*
G75*
D01*
G03X334511Y-169334I0J2344*
G01*
X334511Y-169334D01*
X334511Y-167000D01*
G74*
D01*
G03X332167Y-164655I2344J1*
G01*
X332167Y-164655D01*
X329833Y-164655D01*
G75*
D01*
G03X328760Y-164915I0J-2345*
G01*
X328760Y-164915D01*
X330331Y-163345D01*
X332167Y-163345D01*
G75*
D01*
G03X334511Y-161000I-1J2345*
G01*
X334511Y-161000D01*
X334511Y-158666D01*
G74*
D01*
G03X332167Y-156322I2344J0*
G01*
X332167Y-156322D01*
X329833Y-156322D01*
G75*
D01*
G03X327489Y-158666I0J-2344*
G01*
X327489Y-158666D01*
X327489Y-158990D01*
X321832Y-158990D01*
X320446Y-157604D01*
G74*
D01*
G03X319841Y-156010I3445J396*
G01*
X319841Y-156010D01*
X338668Y-156010D01*
X338990Y-156332D01*
X338990Y-160645D01*
G74*
D01*
G03X337489Y-162833I843J2187*
G01*
X337489Y-162833D01*
X337489Y-165167D01*
G75*
D01*
G03X339833Y-167511I2344J0*
G01*
X339833Y-167511D01*
X342167Y-167511D01*
G75*
D01*
G03X344511Y-165167I0J2344*
G01*
X344511Y-165167D01*
X344511Y-162833D01*
G74*
D01*
G03X343010Y-160645I2344J1*
G01*
X343010Y-160645D01*
X343010Y-155500D01*
G74*
D01*
G03X342419Y-154077I2010J1*
G01*
X342419Y-154077D01*
X340923Y-152581D01*
G74*
D01*
G03X340919Y-152577I1423J1419*
G01*
X340919Y-152577D01*
X340537Y-152195D01*
X340537Y-142688D01*
G75*
D01*
G03X342003Y-141181I-41J1506*
G01*
X342003Y-141181D01*
X342003Y-138819D01*
G74*
D01*
G03X340496Y-137312I1507J0*
G01*
X340496Y-137312D01*
X336559Y-137312D01*
G75*
D01*
G03X335052Y-138819I0J-1507*
G01*
X335052Y-138819D01*
X335052Y-141181D01*
G75*
D01*
G03X336518Y-142688I1507J-1*
G01*
X336518Y-142688D01*
X336518Y-151990D01*
X311502Y-151990D01*
G75*
D01*
G03X310079Y-152579I-1J-2010*
G01*
X310079Y-152579D01*
X301342Y-161316D01*
G75*
D01*
G03X300753Y-162740I1420J-1421*
G01*
X300753Y-162740D01*
X300753Y-177291D01*
X298300Y-181541D01*
G75*
D01*
G03X299158Y-184744I2030J-1173*
G01*
X299158Y-184744D01*
X301107Y-185869D01*
G75*
D01*
G03X304310Y-185011I1173J2030*
G01*
X304310Y-185011D01*
X307227Y-179959D01*
G75*
D01*
G03X306368Y-176756I-2030J1172*
G01*
X306368Y-176756D01*
X304773Y-175835D01*
X304773Y-163569D01*
X312332Y-156010D01*
X314159Y-156010D01*
G75*
D01*
G03X318352Y-161194I2840J-1991*
G01*
X318352Y-161194D01*
X319579Y-162421D01*
G74*
D01*
G03X320314Y-162889I1421J1420*
G01*
G75*
D01*
G03X321000Y-163010I687J1888*
G01*
X321000Y-163010D01*
X324982Y-163010D01*
X316079Y-171912D01*
G75*
D01*
G03X315490Y-173337I1420J-1421*
G01*
X315490Y-173337D01*
X315490Y-187996D01*
G75*
D01*
G03X316079Y-189421I2010J-3*
G01*
X316079Y-189421D01*
X322079Y-195421D01*
G74*
D01*
G03X322850Y-195902I1421J1420*
G01*
G75*
D01*
G03X323500Y-196010I650J1902*
G01*
X323500Y-196010D01*
X335497Y-196010D01*
G75*
D01*
G03X336249Y-195865I2J2010*
G01*
G74*
D01*
G03X336923Y-195419I749J1864*
G01*
X336923Y-195419D01*
X339372Y-192970D01*
X342917Y-192970D01*
G75*
D01*
G03X345261Y-190625I-1J2345*
G01*
X345261Y-190625D01*
X345261Y-188374D01*
G74*
D01*
G03X342917Y-186030I2344J0*
G01*
X342917Y-186030D01*
X337083Y-186030D01*
G75*
D01*
G03X334739Y-188374I0J-2344*
G01*
X334739Y-188374D01*
X334739Y-190625D01*
G75*
D01*
G03X334985Y-191672I2344J-2*
G01*
X334985Y-191672D01*
X334668Y-191990D01*
X332823Y-191990D01*
G75*
D01*
G03X333261Y-190625I-1906J1364*
G01*
X333261Y-190625D01*
X333261Y-188374D01*
G74*
D01*
G03X330917Y-186030I2344J0*
G01*
X330917Y-186030D01*
X327372Y-186030D01*
X323010Y-181668D01*
X323010Y-180720D01*
G75*
D01*
G03X325083Y-181970I2073J1094*
G01*
X325083Y-181970D01*
X330917Y-181970D01*
G74*
D01*
G03X333088Y-180510I1J2345*
G01*
X333088Y-180510D01*
X334912Y-180510D01*
G75*
D01*
G03X337083Y-181970I2171J884*
G01*
X337083Y-181970D01*
X342917Y-181970D01*
G74*
D01*
G03X345088Y-180510I1J2345*
G01*
X345088Y-180510D01*
X346168Y-180510D01*
X352985Y-187328D01*
G74*
D01*
G03X352739Y-188374I2098J1045*
G01*
X352739Y-188374D01*
X352739Y-190625D01*
G75*
D01*
G03X355083Y-192970I2344J-1*
G01*
X355083Y-192970D01*
X360917Y-192970D01*
G74*
D01*
G03X363088Y-191510I1J2345*
G01*
X363088Y-191510D01*
X364912Y-191510D01*
G75*
D01*
G03X367083Y-192970I2171J884*
G01*
X367083Y-192970D01*
X372917Y-192970D01*
G74*
D01*
G03X375088Y-191510I1J2345*
G01*
X375088Y-191510D01*
X380000Y-191510D01*
G74*
D01*
G03X381423Y-190919I1J2010*
G01*
X381423Y-190919D01*
X386419Y-185923D01*
G74*
D01*
G03X386979Y-184848I1419J1422*
G01*
D02*
G37*
G36*
X405578Y-115420D02*
X405578Y-115420D01*
X432072Y-141914D01*
G75*
D01*
G03X435817Y-139975I3786J-2727*
G01*
X435817Y-139975D01*
X408420Y-112578D01*
G75*
D01*
G03X405578Y-115420I-3420J578*
G01*
D02*
G37*
G36*
X376407Y-25127D02*
X376407Y-25127D01*
X374500Y-22235D01*
X372593Y-25127D01*
G75*
D01*
G03X373375Y-25261I781J2210*
G01*
X373375Y-25261D01*
X375626Y-25261D01*
G74*
D01*
G03X376407Y-25127I0J2344*
G01*
D02*
G37*
G36*
X377967Y-23023D02*
G75*
D01*
G03X377970Y-22917I-2340J119*
G01*
X377970Y-22917D01*
X377970Y-17083D01*
G74*
D01*
G03X377967Y-16977I2344J13*
G01*
X377967Y-16977D01*
X375974Y-20000D01*
X377967Y-23023D01*
D02*
G37*
G36*
X371033Y-16977D02*
G74*
D01*
G03X371030Y-17083I2341J119*
G01*
X371030Y-17083D01*
X371030Y-22917D01*
G75*
D01*
G03X371033Y-23023I2345J13*
G01*
X371033Y-23023D01*
X373026Y-20000D01*
X371033Y-16977D01*
D02*
G37*
G36*
X371033Y-28977D02*
G74*
D01*
G03X371030Y-29083I2341J119*
G01*
X371030Y-29083D01*
X371030Y-34917D01*
G75*
D01*
G03X371033Y-35023I2345J13*
G01*
X371033Y-35023D01*
X373026Y-32000D01*
X371033Y-28977D01*
D02*
G37*
G36*
X376407Y-37127D02*
X376407Y-37127D01*
X374500Y-34235D01*
X372593Y-37127D01*
G75*
D01*
G03X373375Y-37261I781J2210*
G01*
X373375Y-37261D01*
X375626Y-37261D01*
G74*
D01*
G03X376407Y-37127I0J2344*
G01*
D02*
G37*
G36*
X377967Y-35023D02*
G75*
D01*
G03X377970Y-34917I-2340J119*
G01*
X377970Y-34917D01*
X377970Y-29083D01*
G74*
D01*
G03X377967Y-28977I2344J13*
G01*
X377967Y-28977D01*
X375974Y-32000D01*
X377967Y-35023D01*
D02*
G37*
G36*
X376407Y-26873D02*
G74*
D01*
G03X375626Y-26739I781J2209*
G01*
X375626Y-26739D01*
X373375Y-26739D01*
G75*
D01*
G03X372593Y-26873I-1J-2344*
G01*
X372593Y-26873D01*
X374500Y-29765D01*
X376407Y-26873D01*
D02*
G37*
G36*
X480345Y-100364D02*
X480345Y-100364D01*
X480345Y-97655D01*
X477636Y-97655D01*
G74*
D01*
G03X480345Y-100364I4364J1655*
G01*
D02*
G37*
G36*
X480250Y-96000D02*
G75*
D01*
G03X480250Y-96000I1750J0*
G01*
D02*
G37*
G36*
X486364Y-97655D02*
X486364Y-97655D01*
X483655Y-97655D01*
X483655Y-100364D01*
G74*
D01*
G03X486364Y-97655I1655J4364*
G01*
D02*
G37*
G36*
X477636Y-94345D02*
X477636Y-94345D01*
X480345Y-94345D01*
X480345Y-91636D01*
G74*
D01*
G03X477636Y-94345I1655J4364*
G01*
D02*
G37*
G36*
X483655Y-91636D02*
X483655Y-91636D01*
X483655Y-94345D01*
X486364Y-94345D01*
G74*
D01*
G03X483655Y-91636I4364J1655*
G01*
D02*
G37*
G36*
X477333Y-76000D02*
G75*
D01*
G03X477333Y-76000I4667J0*
G01*
D02*
G37*
G36*
X242873Y-79593D02*
G74*
D01*
G03X242739Y-80374I2209J781*
G01*
X242739Y-80374D01*
X242739Y-82625D01*
G75*
D01*
G03X242873Y-83407I2344J-1*
G01*
X242873Y-83407D01*
X245765Y-81500D01*
X242873Y-79593D01*
D02*
G37*
G36*
X251023Y-78033D02*
G74*
D01*
G03X250917Y-78030I119J2340*
G01*
X250917Y-78030D01*
X245083Y-78030D01*
G75*
D01*
G03X244977Y-78033I13J-2344*
G01*
X244977Y-78033D01*
X248000Y-80026D01*
X251023Y-78033D01*
D02*
G37*
G36*
X253127Y-79593D02*
X253127Y-79593D01*
X250235Y-81500D01*
X253127Y-83407D01*
G75*
D01*
G03X253261Y-82625I-2210J781*
G01*
X253261Y-82625D01*
X253261Y-80374D01*
G74*
D01*
G03X253127Y-79593I2344J0*
G01*
D02*
G37*
G36*
X244977Y-84967D02*
G75*
D01*
G03X245083Y-84970I119J2341*
G01*
X245083Y-84970D01*
X250917Y-84970D01*
G74*
D01*
G03X251023Y-84967I13J2345*
G01*
X251023Y-84967D01*
X248000Y-82974D01*
X244977Y-84967D01*
D02*
G37*
G36*
X226129Y-98134D02*
G74*
D01*
G03X226854Y-96970I2129J2134*
G01*
X226854Y-96970D01*
X226917Y-96970D01*
G75*
D01*
G03X229261Y-94625I-1J2345*
G01*
X229261Y-94625D01*
X229261Y-92374D01*
G74*
D01*
G03X226917Y-90030I2344J0*
G01*
X226917Y-90030D01*
X221083Y-90030D01*
G75*
D01*
G03X219695Y-90485I0J-2344*
G01*
X219695Y-90485D01*
X218000Y-90485D01*
G75*
D01*
G03X217895Y-90487I5J-3015*
G01*
G74*
D01*
G03X215868Y-91368I104J3012*
G01*
X215868Y-91368D01*
X212692Y-94545D01*
G75*
D01*
G03X210146Y-99972I306J-3454*
G01*
G74*
D01*
G03X210868Y-101132I2853J971*
G01*
X210868Y-101132D01*
X213655Y-103918D01*
G75*
D01*
G03X220345Y-103918I3345J915*
G01*
X220345Y-103918D01*
X226129Y-98134D01*
D02*
G37*
G36*
X306873Y-100407D02*
X306873Y-100407D01*
X309765Y-98500D01*
X306873Y-96593D01*
G74*
D01*
G03X306739Y-97374I2209J781*
G01*
X306739Y-97374D01*
X306739Y-99625D01*
G75*
D01*
G03X306873Y-100407I2344J-1*
G01*
D02*
G37*
G36*
X315023Y-95033D02*
G74*
D01*
G03X314917Y-95030I119J2340*
G01*
X314917Y-95030D01*
X309083Y-95030D01*
G75*
D01*
G03X308977Y-95033I13J-2344*
G01*
X308977Y-95033D01*
X312000Y-97026D01*
X315023Y-95033D01*
D02*
G37*
G36*
X317127Y-100407D02*
G75*
D01*
G03X317261Y-99625I-2210J781*
G01*
X317261Y-99625D01*
X317261Y-97374D01*
G74*
D01*
G03X317127Y-96593I2344J0*
G01*
X317127Y-96593D01*
X314235Y-98500D01*
X317127Y-100407D01*
D02*
G37*
G36*
X308977Y-101967D02*
G75*
D01*
G03X309083Y-101970I119J2341*
G01*
X309083Y-101970D01*
X314917Y-101970D01*
G74*
D01*
G03X315023Y-101967I13J2345*
G01*
X315023Y-101967D01*
X312000Y-99974D01*
X308977Y-101967D01*
D02*
G37*
G36*
X303023Y-95033D02*
G74*
D01*
G03X302917Y-95030I119J2340*
G01*
X302917Y-95030D01*
X297083Y-95030D01*
G75*
D01*
G03X296977Y-95033I13J-2344*
G01*
X296977Y-95033D01*
X300000Y-97026D01*
X303023Y-95033D01*
D02*
G37*
G36*
X294873Y-100407D02*
X294873Y-100407D01*
X297765Y-98500D01*
X294873Y-96593D01*
G74*
D01*
G03X294739Y-97374I2209J781*
G01*
X294739Y-97374D01*
X294739Y-99625D01*
G75*
D01*
G03X294873Y-100407I2344J-1*
G01*
D02*
G37*
G36*
X296977Y-101967D02*
G75*
D01*
G03X297083Y-101970I119J2341*
G01*
X297083Y-101970D01*
X302917Y-101970D01*
G74*
D01*
G03X303023Y-101967I13J2345*
G01*
X303023Y-101967D01*
X300000Y-99974D01*
X296977Y-101967D01*
D02*
G37*
G36*
X305127Y-100407D02*
G75*
D01*
G03X305261Y-99625I-2210J781*
G01*
X305261Y-99625D01*
X305261Y-97374D01*
G74*
D01*
G03X305127Y-96593I2344J0*
G01*
X305127Y-96593D01*
X302235Y-98500D01*
X305127Y-100407D01*
D02*
G37*
G36*
X324079Y-102366D02*
G75*
D01*
G03X325579Y-103720I1499J153*
G01*
X325579Y-103720D01*
X329835Y-103720D01*
X329835Y-102366D01*
X324079Y-102366D01*
D02*
G37*
G36*
X274709Y-114023D02*
X274709Y-114023D01*
X273491Y-112806D01*
X273491Y-114023D01*
X274709Y-114023D01*
D02*
G37*
G36*
X285262Y-126198D02*
X285262Y-126198D01*
X281977Y-126198D01*
X281977Y-129484D01*
G74*
D01*
G03X283056Y-128870I578J2272*
G01*
X283056Y-128870D01*
X284648Y-127278D01*
G74*
D01*
G03X285262Y-126198I1658J1657*
G01*
D02*
G37*
G36*
X265293Y-141612D02*
X265293Y-141612D01*
X271110Y-135795D01*
X271963Y-136648D01*
G75*
D01*
G03X275278Y-136648I1658J1657*
G01*
X275278Y-136648D01*
X276870Y-135056D01*
G75*
D01*
G03X276870Y-131741I-1657J1657*
G01*
X276870Y-131741D01*
X272744Y-127616D01*
G75*
D01*
G03X269429Y-127616I-1657J-1656*
G01*
X269429Y-127616D01*
X267837Y-129207D01*
G75*
D01*
G03X267175Y-131204I1657J-1658*
G01*
X267175Y-131204D01*
X261030Y-137349D01*
G75*
D01*
G03X265293Y-141612I-388J-4651*
G01*
D02*
G37*
G36*
X248904Y-149071D02*
G75*
D01*
G03X248904Y-149071I4667J0*
G01*
D02*
G37*
G36*
X282873Y-155407D02*
X282873Y-155407D01*
X285765Y-153500D01*
X282873Y-151593D01*
G74*
D01*
G03X282739Y-152374I2209J781*
G01*
X282739Y-152374D01*
X282739Y-154625D01*
G75*
D01*
G03X282873Y-155407I2344J-1*
G01*
D02*
G37*
G36*
X242118Y-140099D02*
G75*
D01*
G03X242118Y-143901I2909J-1901*
G01*
X242118Y-143901D01*
X244019Y-142000D01*
X242118Y-140099D01*
D02*
G37*
G36*
X250882Y-143901D02*
G75*
D01*
G03X250882Y-140099I-2909J1901*
G01*
X250882Y-140099D01*
X248981Y-142000D01*
X250882Y-143901D01*
D02*
G37*
G36*
X244542Y-142000D02*
G75*
D01*
G03X244542Y-142000I1958J0*
G01*
D02*
G37*
G36*
X244599Y-146382D02*
G75*
D01*
G03X248401Y-146382I1901J2909*
G01*
X248401Y-146382D01*
X246500Y-144481D01*
X244599Y-146382D01*
D02*
G37*
G36*
X233049Y-133734D02*
X233049Y-133734D01*
X234266Y-134951D01*
X234266Y-133734D01*
X233049Y-133734D01*
D02*
G37*
G36*
X241241Y-133734D02*
X241241Y-133734D01*
X237956Y-133734D01*
X237956Y-137019D01*
G74*
D01*
G03X239035Y-136405I578J2271*
G01*
X239035Y-136405D01*
X240627Y-134814D01*
G74*
D01*
G03X241241Y-133734I1658J1657*
G01*
D02*
G37*
G36*
X253474Y-130263D02*
G75*
D01*
G03X258164Y-134099I97J-4666*
G01*
X258164Y-134099D01*
X263819Y-128445D01*
G75*
D01*
G03X266793Y-128163I1316J1939*
G01*
X266793Y-128163D01*
X268384Y-126571D01*
G75*
D01*
G03X268384Y-123256I-1657J1657*
G01*
X268384Y-123256D01*
X264259Y-119130D01*
G75*
D01*
G03X260944Y-119130I-1657J-1657*
G01*
X260944Y-119130D01*
X259352Y-120722D01*
G75*
D01*
G03X259352Y-124037I1657J-1658*
G01*
X259352Y-124037D01*
X259526Y-124211D01*
X253474Y-130263D01*
D02*
G37*
G36*
X248401Y-137618D02*
G75*
D01*
G03X244599Y-137618I-1901J-2909*
G01*
X244599Y-137618D01*
X246500Y-139519D01*
X248401Y-137618D01*
D02*
G37*
G36*
X236345Y-113082D02*
G75*
D01*
G03X232082Y-117345I-3344J-919*
G01*
X232082Y-117345D01*
X240868Y-126132D01*
G74*
D01*
G03X241466Y-126595I2130J2134*
G01*
X241466Y-126595D01*
X243498Y-128627D01*
G75*
D01*
G03X246814Y-128627I1658J1657*
G01*
X246814Y-128627D01*
X248405Y-127035D01*
G75*
D01*
G03X248405Y-123720I-1656J1657*
G01*
X248405Y-123720D01*
X244280Y-119595D01*
G75*
D01*
G03X242208Y-118945I-1658J-1657*
G01*
X242208Y-118945D01*
X236345Y-113082D01*
D02*
G37*
G36*
X234266Y-126759D02*
G74*
D01*
G03X233186Y-127373I577J2272*
G01*
X233186Y-127373D01*
X231595Y-128965D01*
G74*
D01*
G03X230981Y-130044I1657J1657*
G01*
X230981Y-130044D01*
X234266Y-130044D01*
X234266Y-126759D01*
D02*
G37*
G36*
X239173Y-130044D02*
X239173Y-130044D01*
X237956Y-128827D01*
X237956Y-130044D01*
X239173Y-130044D01*
D02*
G37*
G36*
X277070Y-126198D02*
X277070Y-126198D01*
X278287Y-127416D01*
X278287Y-126198D01*
X277070Y-126198D01*
D02*
G37*
G36*
X278287Y-119223D02*
G74*
D01*
G03X277207Y-119837I577J2272*
G01*
X277207Y-119837D01*
X275616Y-121429D01*
G74*
D01*
G03X275001Y-122509I1657J1658*
G01*
X275001Y-122509D01*
X278287Y-122509D01*
X278287Y-119223D01*
D02*
G37*
G36*
X268584Y-117713D02*
X268584Y-117713D01*
X269802Y-118930D01*
X269802Y-117713D01*
X268584Y-117713D01*
D02*
G37*
G36*
X276777Y-117713D02*
X276777Y-117713D01*
X273491Y-117713D01*
X273491Y-120999D01*
G74*
D01*
G03X274571Y-120384I578J2272*
G01*
X274571Y-120384D01*
X276163Y-118793D01*
G74*
D01*
G03X276777Y-117713I1658J1657*
G01*
D02*
G37*
G36*
X283194Y-122509D02*
X283194Y-122509D01*
X281977Y-121291D01*
X281977Y-122509D01*
X283194Y-122509D01*
D02*
G37*
G36*
X269802Y-110738D02*
G74*
D01*
G03X268722Y-111352I577J2272*
G01*
X268722Y-111352D01*
X267130Y-112944D01*
G74*
D01*
G03X266516Y-114023I1658J1657*
G01*
X266516Y-114023D01*
X269802Y-114023D01*
X269802Y-110738D01*
D02*
G37*
G36*
X295618Y-160724D02*
X295618Y-160724D01*
X299372Y-156970D01*
X302917Y-156970D01*
G75*
D01*
G03X305261Y-154625I-1J2345*
G01*
X305261Y-154625D01*
X305261Y-152374D01*
G74*
D01*
G03X302917Y-150030I2344J0*
G01*
X302917Y-150030D01*
X297083Y-150030D01*
G75*
D01*
G03X294739Y-152374I0J-2344*
G01*
X294739Y-152374D01*
X294739Y-154625D01*
G75*
D01*
G03X294985Y-155672I2344J-2*
G01*
X294985Y-155672D01*
X291579Y-159079D01*
G74*
D01*
G03X291021Y-160152I1421J1420*
G01*
G75*
D01*
G03X295618Y-160724I1980J-2847*
G01*
D02*
G37*
G36*
X293127Y-155407D02*
G75*
D01*
G03X293261Y-154625I-2210J781*
G01*
X293261Y-154625D01*
X293261Y-152374D01*
G74*
D01*
G03X293127Y-151593I2344J0*
G01*
X293127Y-151593D01*
X290235Y-153500D01*
X293127Y-155407D01*
D02*
G37*
G36*
X359441Y-146429D02*
G75*
D01*
G03X360948Y-144921I-1J1508*
G01*
X360948Y-144921D01*
X360948Y-144693D01*
X358426Y-144693D01*
X358426Y-146429D01*
X359441Y-146429D01*
D02*
G37*
G36*
X353997Y-144921D02*
G75*
D01*
G03X355504Y-146429I1507J-1*
G01*
X355504Y-146429D01*
X356519Y-146429D01*
X356519Y-144693D01*
X353997Y-144693D01*
X353997Y-144921D01*
D02*
G37*
G36*
X325997Y-144921D02*
G75*
D01*
G03X327504Y-146429I1507J-1*
G01*
X327504Y-146429D01*
X328519Y-146429D01*
X328519Y-144693D01*
X325997Y-144693D01*
X325997Y-144921D01*
D02*
G37*
G36*
X325997Y-142559D02*
X325997Y-142559D01*
X325997Y-142787D01*
X328519Y-142787D01*
X328519Y-141052D01*
X327504Y-141052D01*
G75*
D01*
G03X325997Y-142559I0J-1507*
G01*
D02*
G37*
G36*
X331441Y-146429D02*
G75*
D01*
G03X332948Y-144921I-1J1508*
G01*
X332948Y-144921D01*
X332948Y-144693D01*
X330426Y-144693D01*
X330426Y-146429D01*
X331441Y-146429D01*
D02*
G37*
G36*
X332948Y-142559D02*
G74*
D01*
G03X331441Y-141052I1507J0*
G01*
X331441Y-141052D01*
X330426Y-141052D01*
X330426Y-142787D01*
X332948Y-142787D01*
X332948Y-142559D01*
D02*
G37*
G36*
X440000Y20500D02*
G75*
D01*
G03X440000Y20500I11500J0*
G01*
D02*
G37*
G36*
X405333Y10000D02*
G75*
D01*
G03X405333Y10000I4667J0*
G01*
D02*
G37*
G36*
X405483Y1042D02*
X405483Y1042D01*
X405483Y-1041D01*
G75*
D01*
G03X408959Y-4517I3476J0*
G01*
X408959Y-4517D01*
X411042Y-4517D01*
G75*
D01*
G03X414517Y-1041I-1J3476*
G01*
X414517Y-1041D01*
X414517Y1042D01*
G74*
D01*
G03X411042Y4517I3475J0*
G01*
X411042Y4517D01*
X408959Y4517D01*
G75*
D01*
G03X405483Y1042I-1J-3475*
G01*
D02*
G37*
G36*
X415333Y0D02*
G75*
D01*
G03X415333Y0I4667J0*
G01*
D02*
G37*
G36*
X400827Y-123010D02*
X400827Y-123010D01*
X406168Y-123010D01*
X426777Y-143619D01*
X426777Y-147501D01*
G74*
D01*
G03X425373Y-148531I2010J4212*
G01*
X425373Y-148531D01*
X421764Y-144922D01*
X422405Y-144280D01*
G75*
D01*
G03X422405Y-140965I-1657J1657*
G01*
X422405Y-140965D01*
X420814Y-139373D01*
G75*
D01*
G03X417498Y-139373I-1658J-1657*
G01*
X417498Y-139373D01*
X413373Y-143498D01*
G75*
D01*
G03X412870Y-146066I1657J-1658*
G01*
X412870Y-146066D01*
X409419Y-149517D01*
G75*
D01*
G03X407714Y-149817I-639J-1366*
G01*
X407714Y-149817D01*
X403817Y-153714D01*
G75*
D01*
G03X403817Y-155846I1065J-1066*
G01*
X403817Y-155846D01*
X406601Y-158630D01*
G75*
D01*
G03X408732Y-158630I1066J1066*
G01*
X408732Y-158630D01*
X412630Y-154732D01*
G75*
D01*
G03X412630Y-152601I-1064J1065*
G01*
X412630Y-152601D01*
X412325Y-152296D01*
X415712Y-148908D01*
G75*
D01*
G03X418280Y-148405I910J2159*
G01*
X418280Y-148405D01*
X418922Y-147764D01*
X424292Y-153134D01*
G74*
D01*
G03X424364Y-153202I1415J1426*
G01*
G75*
D01*
G03X430796Y-147501I4422J1490*
G01*
X430796Y-147501D01*
X430796Y-142787D01*
G74*
D01*
G03X430205Y-141363I2009J1*
G01*
X430205Y-141363D01*
X408423Y-119581D01*
G74*
D01*
G03X407000Y-118990I1423J1418*
G01*
X407000Y-118990D01*
X400827Y-118990D01*
G75*
D01*
G03X400827Y-123010I-2826J-2010*
G01*
D02*
G37*
G36*
X427223Y-167786D02*
G74*
D01*
G03X428647Y-167195I1J2009*
G01*
X428647Y-167195D01*
X444348Y-151494D01*
G75*
D01*
G03X444939Y-150071I-1418J1423*
G01*
X444939Y-150071D01*
X444939Y-141783D01*
G75*
D01*
G03X440919Y-141783I-2010J4212*
G01*
X440919Y-141783D01*
X440919Y-149239D01*
X426391Y-163767D01*
X423796Y-163767D01*
X421399Y-161370D01*
G75*
D01*
G03X419268Y-161370I-1065J-1066*
G01*
X419268Y-161370D01*
X415370Y-165268D01*
G75*
D01*
G03X415370Y-167399I1064J-1066*
G01*
X415370Y-167399D01*
X418154Y-170183D01*
G75*
D01*
G03X420286Y-170183I1066J1065*
G01*
X420286Y-170183D01*
X422682Y-167786D01*
X427223Y-167786D01*
D02*
G37*
G36*
X384873Y-155407D02*
X384873Y-155407D01*
X387765Y-153500D01*
X384873Y-151593D01*
G74*
D01*
G03X384739Y-152374I2209J781*
G01*
X384739Y-152374D01*
X384739Y-154625D01*
G75*
D01*
G03X384873Y-155407I2344J-1*
G01*
D02*
G37*
G36*
X395127Y-155407D02*
G75*
D01*
G03X395261Y-154625I-2210J781*
G01*
X395261Y-154625D01*
X395261Y-152374D01*
G74*
D01*
G03X395127Y-151593I2344J0*
G01*
X395127Y-151593D01*
X392235Y-153500D01*
X395127Y-155407D01*
D02*
G37*
G36*
X393023Y-150033D02*
G74*
D01*
G03X392917Y-150030I119J2340*
G01*
X392917Y-150030D01*
X387083Y-150030D01*
G75*
D01*
G03X386977Y-150033I13J-2344*
G01*
X386977Y-150033D01*
X390000Y-152026D01*
X393023Y-150033D01*
D02*
G37*
G36*
X386977Y-156967D02*
G75*
D01*
G03X387083Y-156970I119J2341*
G01*
X387083Y-156970D01*
X392917Y-156970D01*
G74*
D01*
G03X393023Y-156967I13J2345*
G01*
X393023Y-156967D01*
X390000Y-154974D01*
X386977Y-156967D01*
D02*
G37*
G36*
X408266Y-133049D02*
X408266Y-133049D01*
X407049Y-134266D01*
X408266Y-134266D01*
X408266Y-133049D01*
D02*
G37*
G36*
X404981Y-137956D02*
G74*
D01*
G03X405595Y-139035I2271J578*
G01*
X405595Y-139035D01*
X407186Y-140627D01*
G74*
D01*
G03X408266Y-141241I1657J1658*
G01*
X408266Y-141241D01*
X408266Y-137956D01*
X404981Y-137956D01*
D02*
G37*
G36*
X411956Y-130981D02*
X411956Y-130981D01*
X411956Y-134266D01*
X415241Y-134266D01*
G74*
D01*
G03X414627Y-133186I2272J577*
G01*
X414627Y-133186D01*
X413035Y-131595D01*
G74*
D01*
G03X411956Y-130981I1657J1657*
G01*
D02*
G37*
G36*
X411956Y-139173D02*
X411956Y-139173D01*
X413173Y-137956D01*
X411956Y-137956D01*
X411956Y-139173D01*
D02*
G37*
G36*
X448099Y-134882D02*
G75*
D01*
G03X451901Y-134882I1901J2909*
G01*
X451901Y-134882D01*
X450000Y-132981D01*
X448099Y-134882D01*
D02*
G37*
G36*
X451901Y-126118D02*
G75*
D01*
G03X448099Y-126118I-1901J-2909*
G01*
X448099Y-126118D01*
X450000Y-128019D01*
X451901Y-126118D01*
D02*
G37*
G36*
X448041Y-130500D02*
G75*
D01*
G03X448041Y-130500I1959J0*
G01*
D02*
G37*
G36*
X445618Y-128599D02*
G75*
D01*
G03X445618Y-132401I2909J-1901*
G01*
X445618Y-132401D01*
X447519Y-130500D01*
X445618Y-128599D01*
D02*
G37*
G36*
X454382Y-132401D02*
G75*
D01*
G03X454382Y-128599I-2909J1901*
G01*
X454382Y-128599D01*
X452481Y-130500D01*
X454382Y-132401D01*
D02*
G37*
G36*
X448873Y-88407D02*
X448873Y-88407D01*
X451765Y-86500D01*
X448873Y-84593D01*
G74*
D01*
G03X448739Y-85374I2209J781*
G01*
X448739Y-85374D01*
X448739Y-87625D01*
G75*
D01*
G03X448873Y-88407I2344J-1*
G01*
D02*
G37*
G36*
X450977Y-89967D02*
G75*
D01*
G03X451083Y-89970I119J2341*
G01*
X451083Y-89970D01*
X456917Y-89970D01*
G74*
D01*
G03X457023Y-89967I13J2345*
G01*
X457023Y-89967D01*
X454000Y-87974D01*
X450977Y-89967D01*
D02*
G37*
G36*
X459127Y-88407D02*
G75*
D01*
G03X459261Y-87625I-2210J781*
G01*
X459261Y-87625D01*
X459261Y-85374D01*
G74*
D01*
G03X459127Y-84593I2344J0*
G01*
X459127Y-84593D01*
X456235Y-86500D01*
X459127Y-88407D01*
D02*
G37*
G36*
X457023Y-83033D02*
G74*
D01*
G03X456917Y-83030I119J2340*
G01*
X456917Y-83030D01*
X451083Y-83030D01*
G75*
D01*
G03X450977Y-83033I13J-2344*
G01*
X450977Y-83033D01*
X454000Y-85026D01*
X457023Y-83033D01*
D02*
G37*
G36*
X447127Y-88407D02*
G75*
D01*
G03X447261Y-87625I-2210J781*
G01*
X447261Y-87625D01*
X447261Y-85374D01*
G74*
D01*
G03X447127Y-84593I2344J0*
G01*
X447127Y-84593D01*
X444235Y-86500D01*
X447127Y-88407D01*
D02*
G37*
G36*
X438977Y-89967D02*
G75*
D01*
G03X439083Y-89970I119J2341*
G01*
X439083Y-89970D01*
X444917Y-89970D01*
G74*
D01*
G03X445023Y-89967I13J2345*
G01*
X445023Y-89967D01*
X442000Y-87974D01*
X438977Y-89967D01*
D02*
G37*
G36*
X436873Y-88407D02*
X436873Y-88407D01*
X439765Y-86500D01*
X436873Y-84593D01*
G74*
D01*
G03X436739Y-85374I2209J781*
G01*
X436739Y-85374D01*
X436739Y-87625D01*
G75*
D01*
G03X436873Y-88407I2344J-1*
G01*
D02*
G37*
G36*
X445023Y-83033D02*
G74*
D01*
G03X444917Y-83030I119J2340*
G01*
X444917Y-83030D01*
X439083Y-83030D01*
G75*
D01*
G03X438977Y-83033I13J-2344*
G01*
X438977Y-83033D01*
X442000Y-85026D01*
X445023Y-83033D01*
D02*
G37*
%LPD*%
G36*
X386917Y65030D02*
X386917Y65030D01*
X381083Y65030D01*
G75*
D01*
G02X378739Y67375I1J2345*
G01*
X378739Y67375D01*
X378739Y69626D01*
G74*
D01*
G02X378985Y70672I2344J1*
G01*
X378985Y70672D01*
X377111Y72547D01*
G74*
D01*
G02X374917Y71030I2194J828*
G01*
X374917Y71030D01*
X374010Y71030D01*
X374010Y64500D01*
G75*
D01*
G02X373419Y63077I-2010J1*
G01*
X373419Y63077D01*
X363852Y53510D01*
X368912Y53510D01*
G75*
D01*
G02X371083Y54970I2171J-884*
G01*
X371083Y54970D01*
X376917Y54970D01*
G74*
D01*
G02X379088Y53510I1J2345*
G01*
X379088Y53510D01*
X380912Y53510D01*
G75*
D01*
G02X383083Y54970I2171J-884*
G01*
X383083Y54970D01*
X388917Y54970D01*
G74*
D01*
G02X389119Y54961I3J2345*
G01*
X389119Y54961D01*
X392580Y58422D01*
G75*
D01*
G02X395422Y55580I3420J578*
G01*
X395422Y55580D01*
X391261Y51419D01*
X391261Y50375D01*
G75*
D01*
G02X388917Y48030I-2344J-1*
G01*
X388917Y48030D01*
X383083Y48030D01*
G75*
D01*
G02X380912Y49490I1J2345*
G01*
X380912Y49490D01*
X379088Y49490D01*
G74*
D01*
G02X376917Y48030I2171J884*
G01*
X376917Y48030D01*
X371083Y48030D01*
G75*
D01*
G02X368912Y49490I1J2345*
G01*
X368912Y49490D01*
X362868Y49490D01*
X352420Y39043D01*
X352563Y39043D01*
G74*
D01*
G02X353168Y38916I1J1508*
G01*
X353168Y38916D01*
X356173Y41921D01*
G74*
D01*
G02X357092Y42446I1421J1420*
G01*
G75*
D01*
G02X357594Y42510I503J-1945*
G01*
X357594Y42510D01*
X368912Y42510D01*
G75*
D01*
G02X371083Y43970I2171J-884*
G01*
X371083Y43970D01*
X376917Y43970D01*
G74*
D01*
G02X379088Y42510I0J2344*
G01*
X379088Y42510D01*
X380912Y42510D01*
G75*
D01*
G02X383083Y43970I2171J-884*
G01*
X383083Y43970D01*
X387102Y43970D01*
G75*
D01*
G02X387500Y44010I399J-1969*
G01*
X387500Y44010D01*
X393201Y44010D01*
G75*
D01*
G02X403799Y44010I5299J-2009*
G01*
X403799Y44010D01*
X408121Y44010D01*
G75*
D01*
G02X411459Y46517I3337J-968*
G01*
X411459Y46517D01*
X413541Y46517D01*
G74*
D01*
G02X417017Y43042I1J3475*
G01*
X417017Y43042D01*
X417017Y40959D01*
G75*
D01*
G02X416967Y40375I-3476J3*
G01*
X416967Y40375D01*
X417817Y39525D01*
X442276Y63983D01*
G75*
D01*
G03X197511Y-30000I-96276J-114983*
G01*
X197511Y-30000D01*
X199316Y-30000D01*
X200146Y-29170D01*
G75*
D01*
G02X202992Y-27992I2843J-2841*
G01*
X202992Y-27992D01*
X209551Y-27992D01*
G74*
D01*
G02X210938Y-28239I0J4020*
G01*
X210938Y-28239D01*
X215053Y-28239D01*
G74*
D01*
G02X216320Y-28934I0J1503*
G01*
X216320Y-28934D01*
X223402Y-28934D01*
G75*
D01*
G02X229985Y-27988I3649J-2014*
G01*
X229985Y-27988D01*
X241193Y-27988D01*
G75*
D01*
G02X243083Y-27030I1890J-1385*
G01*
X243083Y-27030D01*
X248917Y-27030D01*
G74*
D01*
G02X251261Y-29374I0J2344*
G01*
X251261Y-29374D01*
X251261Y-30000D01*
X253664Y-30000D01*
G75*
D01*
G02X254717Y-29571I1053J-1078*
G01*
X254717Y-29571D01*
X259047Y-29571D01*
G74*
D01*
G02X260307Y-30251I0J1508*
G01*
G74*
D01*
G02X261683Y-30841I47J2008*
G01*
X261683Y-30841D01*
X263419Y-32577D01*
G74*
D01*
G02X263849Y-33213I1419J1423*
G01*
X263849Y-33213D01*
X266165Y-33213D01*
X266165Y-34000D01*
X268071Y-34000D01*
X268071Y-33213D01*
X270791Y-33213D01*
X270791Y-33441D01*
G75*
D01*
G02X270683Y-34000I-1508J1*
G01*
X270683Y-34000D01*
X273707Y-34000D01*
X279500Y-39793D01*
X279500Y-69006D01*
X281765Y-70500D01*
X279500Y-71994D01*
X279500Y-75500D01*
X299158Y-75500D01*
X300047Y-74610D01*
G74*
D01*
G02X301105Y-74055I1420J1421*
G01*
G75*
D01*
G02X301469Y-74022I363J-1976*
G01*
X301469Y-74022D01*
X324882Y-74022D01*
G74*
D01*
G02X324211Y-73319I696J1336*
G01*
X324211Y-73319D01*
X324079Y-73319D01*
G74*
D01*
G02X324124Y-73079I1499J157*
G01*
G75*
D01*
G02X324071Y-72685I1454J396*
G01*
X324071Y-72685D01*
X324071Y-71504D01*
G74*
D01*
G02X324124Y-71110I1508J2*
G01*
G75*
D01*
G02X324071Y-70717I1454J396*
G01*
X324071Y-70717D01*
X324071Y-70167D01*
X318157Y-70167D01*
G75*
D01*
G02X317858Y-70145I-2J2010*
G01*
G74*
D01*
G02X316736Y-69579I299J1988*
G01*
X316736Y-69579D01*
X308579Y-61421D01*
G75*
D01*
G02X307990Y-59995I1420J1421*
G01*
X307990Y-59995D01*
X307990Y-52827D01*
G75*
D01*
G02X312010Y-52827I2010J2826*
G01*
X312010Y-52827D01*
X312010Y-59168D01*
X318990Y-66148D01*
X324071Y-66148D01*
X324071Y-65598D01*
G74*
D01*
G02X324124Y-65205I1508J3*
G01*
G75*
D01*
G02X324071Y-64811I1454J396*
G01*
X324071Y-64811D01*
X324071Y-63630D01*
G74*
D01*
G02X324124Y-63236I1508J2*
G01*
G75*
D01*
G02X324071Y-62843I1454J396*
G01*
X324071Y-62843D01*
X324071Y-62293D01*
X319283Y-62293D01*
G75*
D01*
G02X319208Y-62292I-11J2010*
G01*
G74*
D01*
G02X317862Y-61705I75J2009*
G01*
X317862Y-61705D01*
X314579Y-58421D01*
G75*
D01*
G02X313990Y-56995I1420J1421*
G01*
X313990Y-56995D01*
X313990Y-46827D01*
G75*
D01*
G02X318010Y-46827I2010J2826*
G01*
X318010Y-46827D01*
X318010Y-56168D01*
X320116Y-58274D01*
X320932Y-58274D01*
X320579Y-57921D01*
G75*
D01*
G02X319990Y-56495I1420J1421*
G01*
X319990Y-56495D01*
X319990Y-32879D01*
G75*
D01*
G02X317483Y-29541I968J3337*
G01*
X317483Y-29541D01*
X317483Y-27458D01*
G75*
D01*
G02X320959Y-23983I3476J-1*
G01*
X320959Y-23983D01*
X323042Y-23983D01*
G74*
D01*
G02X326517Y-27458I0J3475*
G01*
X326517Y-27458D01*
X326517Y-29541D01*
G75*
D01*
G02X324010Y-32879I-3475J-1*
G01*
X324010Y-32879D01*
X324010Y-55668D01*
X324072Y-55730D01*
G74*
D01*
G02X324124Y-55362I1507J25*
G01*
G75*
D01*
G02X324071Y-54968I1454J396*
G01*
X324071Y-54968D01*
X324071Y-53787D01*
G75*
D01*
G02X325579Y-52280I1508J-1*
G01*
X325579Y-52280D01*
X335579Y-52280D01*
G74*
D01*
G02X336336Y-52484I0J1507*
G01*
G75*
D01*
G02X336280Y-52079I1450J407*
G01*
X336280Y-52079D01*
X336280Y-42079D01*
G75*
D01*
G02X337787Y-40571I1507J1*
G01*
X337787Y-40571D01*
X338968Y-40571D01*
G74*
D01*
G02X339362Y-40624I2J1508*
G01*
G75*
D01*
G02X339756Y-40571I396J-1454*
G01*
X339756Y-40571D01*
X340305Y-40571D01*
X340305Y-30455D01*
G75*
D01*
G02X343463Y-27195I-305J3455*
G01*
X343463Y-27195D01*
X355490Y-15168D01*
X355490Y-4899D01*
G74*
D01*
G02X354917Y-4970I573J2274*
G01*
X354917Y-4970D01*
X349083Y-4970D01*
G75*
D01*
G02X346739Y-2625I1J2345*
G01*
X346739Y-2625D01*
X346739Y-374D01*
G74*
D01*
G02X346755Y-97I2344J4*
G01*
X346755Y-97D01*
X340628Y6030D01*
X337083Y6030D01*
G75*
D01*
G02X334912Y7490I1J2345*
G01*
X334912Y7490D01*
X333088Y7490D01*
G74*
D01*
G02X330917Y6030I2171J884*
G01*
X330917Y6030D01*
X325083Y6030D01*
G75*
D01*
G02X324010Y6290I0J2345*
G01*
X324010Y6290D01*
X324010Y4500D01*
G75*
D01*
G02X323419Y3077I-2010J1*
G01*
X323419Y3077D01*
X321015Y672D01*
G74*
D01*
G02X321261Y-374I2098J1045*
G01*
X321261Y-374D01*
X321261Y-2625D01*
G75*
D01*
G02X318917Y-4970I-2344J-1*
G01*
X318917Y-4970D01*
X313083Y-4970D01*
G75*
D01*
G02X310912Y-3510I1J2345*
G01*
X310912Y-3510D01*
X309088Y-3510D01*
G74*
D01*
G02X306917Y-4970I2171J884*
G01*
X306917Y-4970D01*
X301083Y-4970D01*
G75*
D01*
G02X298739Y-2625I1J2345*
G01*
X298739Y-2625D01*
X298739Y-374D01*
G75*
D01*
G02X301083Y1970I2344J0*
G01*
X301083Y1970D01*
X306917Y1970D01*
G74*
D01*
G02X309088Y510I0J2344*
G01*
X309088Y510D01*
X310912Y510D01*
G75*
D01*
G02X313083Y1970I2171J-884*
G01*
X313083Y1970D01*
X316628Y1970D01*
X319990Y5332D01*
X319990Y6290D01*
G74*
D01*
G02X318917Y6030I1073J2084*
G01*
X318917Y6030D01*
X313083Y6030D01*
G75*
D01*
G02X310912Y7490I1J2345*
G01*
X310912Y7490D01*
X309088Y7490D01*
G74*
D01*
G02X306917Y6030I2171J884*
G01*
X306917Y6030D01*
X301083Y6030D01*
G75*
D01*
G02X298739Y8375I1J2345*
G01*
X298739Y8375D01*
X298739Y10626D01*
G75*
D01*
G02X301083Y12970I2344J0*
G01*
X301083Y12970D01*
X306917Y12970D01*
G74*
D01*
G02X309088Y11510I0J2344*
G01*
X309088Y11510D01*
X310912Y11510D01*
G74*
D01*
G02X312469Y12888I2171J884*
G01*
G75*
D01*
G02X317420Y15422I1531J3112*
G01*
G74*
D01*
G02X317983Y14325I1420J1422*
G01*
X317983Y14325D01*
X334299Y30641D01*
G75*
D01*
G02X333930Y31630I1138J988*
G01*
X333930Y31630D01*
X333930Y37535D01*
G74*
D01*
G02X333931Y37589I1507J1*
G01*
X333931Y37589D01*
X333510Y37168D01*
X333510Y32000D01*
G75*
D01*
G02X332919Y30577I-2010J1*
G01*
X332919Y30577D01*
X323923Y21581D01*
G74*
D01*
G02X322500Y20990I1423J1418*
G01*
X322500Y20990D01*
X308712Y20990D01*
G75*
D01*
G02X308712Y25010I-4212J2010*
G01*
X308712Y25010D01*
X321668Y25010D01*
X329490Y32832D01*
X329490Y37148D01*
X323923Y31581D01*
G74*
D01*
G02X322500Y30990I1423J1418*
G01*
X322500Y30990D01*
X308879Y30990D01*
G74*
D01*
G02X305542Y28483I3337J967*
G01*
X305542Y28483D01*
X303459Y28483D01*
G75*
D01*
G02X299983Y31958I-1J3475*
G01*
X299983Y31958D01*
X299983Y34042D01*
G75*
D01*
G02X303459Y37517I3476J-1*
G01*
X303459Y37517D01*
X305542Y37517D01*
G74*
D01*
G02X308879Y35010I0J3475*
G01*
X308879Y35010D01*
X321668Y35010D01*
X331079Y44421D01*
G75*
D01*
G02X332503Y45010I1421J-1420*
G01*
X332503Y45010D01*
X339000Y45010D01*
G74*
D01*
G02X340423Y44419I1J2010*
G01*
X340423Y44419D01*
X342860Y41982D01*
G74*
D01*
G02X343451Y40559I1418J1423*
G01*
X343451Y40559D01*
X343451Y38540D01*
G74*
D01*
G02X343834Y37535I1124J1004*
G01*
X343834Y37535D01*
X343834Y31630D01*
G75*
D01*
G02X343451Y30626I-1507J0*
G01*
X343451Y30626D01*
X343451Y16441D01*
G75*
D01*
G02X342860Y15018I-2010J1*
G01*
X342860Y15018D01*
X342010Y14168D01*
X342010Y12970D01*
X342917Y12970D01*
G74*
D01*
G02X345261Y10626I0J2344*
G01*
X345261Y10626D01*
X345261Y8375D01*
G75*
D01*
G02X345015Y7328I-2344J-2*
G01*
X345015Y7328D01*
X350372Y1970D01*
X354917Y1970D01*
G74*
D01*
G02X355490Y1899I0J2344*
G01*
X355490Y1899D01*
X355490Y4995D01*
G75*
D01*
G02X356079Y6421I2010J4*
G01*
X356079Y6421D01*
X359483Y9825D01*
X359483Y10542D01*
G75*
D01*
G02X362959Y14017I3476J-1*
G01*
X362959Y14017D01*
X365042Y14017D01*
G74*
D01*
G02X368379Y11510I0J3475*
G01*
X368379Y11510D01*
X370038Y11510D01*
G75*
D01*
G02X370419Y7490I5461J-1510*
G01*
X370419Y7490D01*
X368379Y7490D01*
G74*
D01*
G02X365042Y4983I3337J967*
G01*
X365042Y4983D01*
X362959Y4983D01*
G75*
D01*
G02X360959Y5616I0J3476*
G01*
X360959Y5616D01*
X359510Y4168D01*
X359510Y772D01*
G75*
D01*
G02X368212Y1510I4490J-1270*
G01*
X368212Y1510D01*
X379803Y1510D01*
X384419Y6126D01*
G75*
D01*
G02X382739Y8375I664J2248*
G01*
X382739Y8375D01*
X382739Y10626D01*
G75*
D01*
G02X385083Y12970I2344J0*
G01*
X385083Y12970D01*
X385490Y12970D01*
X385490Y15877D01*
G75*
D01*
G02X389510Y16606I1510J3122*
G01*
X389510Y16606D01*
X389510Y12970D01*
X390917Y12970D01*
G74*
D01*
G02X391240Y12947I5J2344*
G01*
X391240Y12947D01*
X414975Y36682D01*
X414125Y37533D01*
G74*
D01*
G02X413541Y37483I587J3425*
G01*
X413541Y37483D01*
X411459Y37483D01*
G75*
D01*
G02X408121Y39990I0J3476*
G01*
X408121Y39990D01*
X403799Y39990D01*
G75*
D01*
G02X393201Y39990I-5299J2009*
G01*
X393201Y39990D01*
X391261Y39990D01*
X391261Y39375D01*
G75*
D01*
G02X388917Y37030I-2344J-1*
G01*
X388917Y37030D01*
X383083Y37030D01*
G75*
D01*
G02X380912Y38490I1J2345*
G01*
X380912Y38490D01*
X379088Y38490D01*
G74*
D01*
G02X376917Y37030I2171J884*
G01*
X376917Y37030D01*
X371083Y37030D01*
G75*
D01*
G02X368912Y38490I1J2345*
G01*
X368912Y38490D01*
X358427Y38490D01*
X354070Y34134D01*
X354070Y31630D01*
G75*
D01*
G02X352563Y30123I-1507J0*
G01*
X352563Y30123D01*
X350791Y30123D01*
G75*
D01*
G02X350398Y30175I-1J1507*
G01*
G74*
D01*
G02X350004Y30123I392J1455*
G01*
X350004Y30123D01*
X348510Y30123D01*
X348510Y27332D01*
X350422Y25420D01*
G75*
D01*
G02X347580Y22578I578J-3420*
G01*
X347580Y22578D01*
X345079Y25079D01*
G75*
D01*
G02X344490Y26505I1420J1421*
G01*
X344490Y26505D01*
X344490Y30696D01*
G75*
D01*
G02X344166Y31630I1183J934*
G01*
X344166Y31630D01*
X344166Y37535D01*
G74*
D01*
G02X344849Y38797I1507J0*
G01*
X344849Y38797D01*
X344849Y39043D01*
X344886Y39043D01*
G74*
D01*
G02X345280Y38990I2J1508*
G01*
G75*
D01*
G02X345673Y39043I396J-1454*
G01*
X345673Y39043D01*
X347162Y39043D01*
G74*
D01*
G02X347697Y40004I1956J459*
G01*
X347697Y40004D01*
X355684Y47990D01*
X349502Y47990D01*
G75*
D01*
G02X348079Y48579I-1J2010*
G01*
X348079Y48579D01*
X345291Y51367D01*
X344006Y50081D01*
G74*
D01*
G02X342583Y49490I1423J1418*
G01*
X342583Y49490D01*
X325088Y49490D01*
G74*
D01*
G02X322917Y48030I2171J884*
G01*
X322917Y48030D01*
X317083Y48030D01*
G75*
D01*
G02X314912Y49490I1J2345*
G01*
X314912Y49490D01*
X309123Y49490D01*
G75*
D01*
G02X308394Y53510I-3122J1510*
G01*
X308394Y53510D01*
X314912Y53510D01*
G75*
D01*
G02X317083Y54970I2171J-884*
G01*
X317083Y54970D01*
X322917Y54970D01*
G74*
D01*
G02X325088Y53510I1J2345*
G01*
X325088Y53510D01*
X334271Y53510D01*
G75*
D01*
G02X333930Y54465I1166J955*
G01*
X333930Y54465D01*
X333930Y55408D01*
X329085Y55408D01*
G75*
D01*
G02X327662Y55996I-3J2009*
G01*
X327662Y55996D01*
X312628Y71030D01*
X309083Y71030D01*
G75*
D01*
G02X306912Y72490I1J2345*
G01*
X306912Y72490D01*
X300076Y72490D01*
G75*
D01*
G02X299302Y76510I-5575J1011*
G01*
X299302Y76510D01*
X306912Y76510D01*
G75*
D01*
G02X309083Y77970I2171J-884*
G01*
X309083Y77970D01*
X314917Y77970D01*
G74*
D01*
G02X317261Y75626I0J2344*
G01*
X317261Y75626D01*
X317261Y73375D01*
G75*
D01*
G02X317015Y72328I-2344J-2*
G01*
X317015Y72328D01*
X329915Y59427D01*
X333930Y59427D01*
X333930Y60370D01*
G75*
D01*
G02X335437Y61877I1507J0*
G01*
X335437Y61877D01*
X337209Y61877D01*
G74*
D01*
G02X337602Y61825I1J1507*
G01*
G75*
D01*
G02X337996Y61877I392J-1455*
G01*
X337996Y61877D01*
X338281Y61877D01*
X337168Y62990D01*
X333500Y62990D01*
G75*
D01*
G02X332889Y63085I0J2010*
G01*
G74*
D01*
G02X332079Y63579I612J1915*
G01*
X332079Y63579D01*
X324628Y71030D01*
X321083Y71030D01*
G75*
D01*
G02X318739Y73375I1J2345*
G01*
X318739Y73375D01*
X318739Y75626D01*
G75*
D01*
G02X321083Y77970I2344J0*
G01*
X321083Y77970D01*
X324628Y77970D01*
X326137Y79479D01*
X326137Y79479D01*
X327579Y80921D01*
G75*
D01*
G02X329002Y81510I1421J-1420*
G01*
X329002Y81510D01*
X341168Y81510D01*
X342985Y83328D01*
G75*
D01*
G02X342739Y84375I2098J1045*
G01*
X342739Y84375D01*
X342739Y86626D01*
G75*
D01*
G02X345083Y88970I2344J0*
G01*
X345083Y88970D01*
X350917Y88970D01*
G74*
D01*
G02X353261Y86626I0J2344*
G01*
X353261Y86626D01*
X353261Y84375D01*
G75*
D01*
G02X350917Y82030I-2344J-1*
G01*
X350917Y82030D01*
X347372Y82030D01*
X344822Y79479D01*
X344822Y79479D01*
X343423Y78081D01*
G74*
D01*
G02X342000Y77490I1423J1418*
G01*
X342000Y77490D01*
X340338Y77490D01*
G74*
D01*
G02X341261Y75626I1420J1864*
G01*
X341261Y75626D01*
X341261Y74581D01*
X342757Y73086D01*
G75*
D01*
G02X342739Y73375I2325J290*
G01*
X342739Y73375D01*
X342739Y75626D01*
G75*
D01*
G02X345083Y77970I2344J0*
G01*
X345083Y77970D01*
X350917Y77970D01*
G74*
D01*
G02X353088Y76510I0J2344*
G01*
X353088Y76510D01*
X354912Y76510D01*
G75*
D01*
G02X357083Y77970I2171J-884*
G01*
X357083Y77970D01*
X362917Y77970D01*
G74*
D01*
G02X365261Y75626I0J2344*
G01*
X365261Y75626D01*
X365261Y73375D01*
G75*
D01*
G02X364907Y72135I-2344J-1*
G01*
G75*
D01*
G02X364760Y70529I-1906J-635*
G01*
X364760Y70529D01*
X364760Y67989D01*
G75*
D01*
G02X360740Y67631I-1760J-2988*
G01*
X360740Y67631D01*
X360740Y70918D01*
X360628Y71030D01*
X357083Y71030D01*
G75*
D01*
G02X354912Y72490I1J2345*
G01*
X354912Y72490D01*
X353088Y72490D01*
G74*
D01*
G02X350917Y71030I2171J884*
G01*
X350917Y71030D01*
X345083Y71030D01*
G75*
D01*
G02X344794Y71048I1J2345*
G01*
X344794Y71048D01*
X350537Y65305D01*
G74*
D01*
G02X351128Y63882I1418J1423*
G01*
X351128Y63882D01*
X351128Y61877D01*
X352563Y61877D01*
G74*
D01*
G02X354070Y60370I0J1507*
G01*
X354070Y60370D01*
X354070Y59427D01*
X354522Y59427D01*
G75*
D01*
G02X360098Y55440I2480J-2424*
G01*
X360098Y55440D01*
X369990Y65332D01*
X369990Y71030D01*
X369083Y71030D01*
G75*
D01*
G02X366739Y73375I1J2345*
G01*
X366739Y73375D01*
X366739Y75626D01*
G74*
D01*
G02X366985Y76672I2344J1*
G01*
X366985Y76672D01*
X364178Y79479D01*
X364178Y79479D01*
X361628Y82030D01*
X357083Y82030D01*
G75*
D01*
G02X354739Y84375I1J2345*
G01*
X354739Y84375D01*
X354739Y86626D01*
G75*
D01*
G02X357083Y88970I2344J0*
G01*
X357083Y88970D01*
X362917Y88970D01*
G74*
D01*
G02X365261Y86626I0J2344*
G01*
X365261Y86626D01*
X365261Y84375D01*
G75*
D01*
G02X365245Y84097I-2344J-5*
G01*
X365245Y84097D01*
X369863Y79479D01*
X369863Y79479D01*
X371372Y77970D01*
X374188Y77970D01*
X372678Y79479D01*
X372678Y79479D01*
X370579Y81579D01*
G74*
D01*
G02X370240Y82030I1421J1421*
G01*
X370240Y82030D01*
X369083Y82030D01*
G75*
D01*
G02X366739Y84375I1J2345*
G01*
X366739Y84375D01*
X366739Y86626D01*
G75*
D01*
G02X369083Y88970I2344J0*
G01*
X369083Y88970D01*
X374917Y88970D01*
G74*
D01*
G02X377261Y86626I0J2344*
G01*
X377261Y86626D01*
X377261Y84375D01*
G75*
D01*
G02X375683Y82159I-2344J-1*
G01*
X375683Y82159D01*
X378363Y79479D01*
X378363Y79479D01*
X378739Y79103D01*
X378739Y80626D01*
G75*
D01*
G02X381083Y82970I2344J0*
G01*
X381083Y82970D01*
X382490Y82970D01*
X382490Y83877D01*
G75*
D01*
G02X386510Y84606I1510J3122*
G01*
X386510Y84606D01*
X386510Y82970D01*
X386917Y82970D01*
G74*
D01*
G02X389261Y80626I0J2344*
G01*
X389261Y80626D01*
X389261Y78375D01*
G75*
D01*
G02X386917Y76030I-2344J-1*
G01*
X386917Y76030D01*
X381083Y76030D01*
G75*
D01*
G02X380510Y76101I0J2345*
G01*
X380510Y76101D01*
X380510Y74832D01*
X381991Y73351D01*
X381991Y73351D01*
X383372Y71970D01*
X386917Y71970D01*
G74*
D01*
G02X389088Y70510I0J2344*
G01*
X389088Y70510D01*
X390912Y70510D01*
G75*
D01*
G02X393083Y71970I2171J-884*
G01*
X393083Y71970D01*
X398917Y71970D01*
G74*
D01*
G02X401261Y69626I0J2344*
G01*
X401261Y69626D01*
X401261Y67375D01*
G75*
D01*
G02X398917Y65030I-2344J-1*
G01*
X398917Y65030D01*
X393083Y65030D01*
G75*
D01*
G02X390912Y66490I1J2345*
G01*
X390912Y66490D01*
X389088Y66490D01*
G74*
D01*
G02X386917Y65030I2171J884*
G01*
D02*
G37*
%LPC*%
G36*
X390739Y80626D02*
G75*
D01*
G02X393083Y82970I2344J0*
G01*
X393083Y82970D01*
X398917Y82970D01*
G74*
D01*
G02X401089Y81508I0J2344*
G01*
G74*
D01*
G02X401123Y81506I101J2006*
G01*
G74*
D01*
G02X402423Y80919I123J2005*
G01*
X402423Y80919D01*
X403863Y79479D01*
X403863Y79479D01*
X413919Y69423D01*
G74*
D01*
G02X414510Y68000I1418J1423*
G01*
X414510Y68000D01*
X414510Y56212D01*
G75*
D01*
G02X410490Y56212I-2010J-4212*
G01*
X410490Y56212D01*
X410490Y67168D01*
X400748Y76910D01*
G74*
D01*
G02X398917Y76030I1831J1464*
G01*
X398917Y76030D01*
X393083Y76030D01*
G75*
D01*
G02X390739Y78375I1J2345*
G01*
X390739Y78375D01*
X390739Y80626D01*
D02*
G37*
G36*
X318903Y-15009D02*
G75*
D01*
G02X318903Y-15009I3097J-3491*
G01*
D02*
G37*
G36*
X289127Y-68593D02*
G74*
D01*
G02X289261Y-69374I2209J781*
G01*
X289261Y-69374D01*
X289261Y-71625D01*
G75*
D01*
G02X289127Y-72407I-2344J-1*
G01*
X289127Y-72407D01*
X287503Y-71336D01*
X287503Y-71336D01*
X286235Y-70500D01*
X287503Y-69664D01*
X287503Y-69664D01*
X289127Y-68593D01*
D02*
G37*
G36*
X337990Y-9196D02*
X337990Y-9196D01*
X337990Y-4970D01*
X337083Y-4970D01*
G75*
D01*
G02X334912Y-3510I1J2345*
G01*
X334912Y-3510D01*
X333088Y-3510D01*
G74*
D01*
G02X330917Y-4970I2171J884*
G01*
X330917Y-4970D01*
X325083Y-4970D01*
G75*
D01*
G02X322739Y-2625I1J2345*
G01*
X322739Y-2625D01*
X322739Y-374D01*
G75*
D01*
G02X325083Y1970I2344J0*
G01*
X325083Y1970D01*
X330917Y1970D01*
G74*
D01*
G02X333088Y510I0J2344*
G01*
X333088Y510D01*
X334912Y510D01*
G75*
D01*
G02X337083Y1970I2171J-884*
G01*
X337083Y1970D01*
X342917Y1970D01*
G74*
D01*
G02X345261Y-374I0J2344*
G01*
X345261Y-374D01*
X345261Y-2625D01*
G75*
D01*
G02X342917Y-4970I-2344J-1*
G01*
X342917Y-4970D01*
X342010Y-4970D01*
X342010Y-9151D01*
G75*
D01*
G02X337990Y-9196I-1978J-2848*
G01*
D02*
G37*
G36*
X230030Y-13083D02*
G74*
D01*
G02X230033Y-12977I2345J13*
G01*
X230033Y-12977D01*
X231372Y-15009D01*
X231372Y-15009D01*
X232026Y-16000D01*
X230033Y-19023D01*
G75*
D01*
G02X230030Y-18917I2341J119*
G01*
X230030Y-18917D01*
X230030Y-13083D01*
D02*
G37*
G36*
X212868Y-10632D02*
G75*
D01*
G02X211985Y-8496I2132J2132*
G01*
X211985Y-8496D01*
X211985Y-7659D01*
G75*
D01*
G02X215000Y-981I3016J2658*
G01*
X215000Y-981D01*
X222000Y-981D01*
G75*
D01*
G02X226010Y-5277I1J-4019*
G01*
G74*
D01*
G02X226017Y-5500I3510J222*
G01*
X226017Y-5500D01*
X226017Y-12500D01*
G75*
D01*
G02X225970Y-13074I-3517J-1*
G01*
G74*
D01*
G02X225970Y-13083I2344J5*
G01*
X225970Y-13083D01*
X225970Y-18917D01*
G75*
D01*
G02X223626Y-21261I-2344J0*
G01*
X223626Y-21261D01*
X221375Y-21261D01*
G75*
D01*
G02X219030Y-18917I-1J2344*
G01*
X219030Y-18917D01*
X219030Y-16793D01*
X217246Y-15009D01*
X217246Y-15009D01*
X212868Y-10632D01*
D02*
G37*
G36*
X236967Y-12977D02*
G74*
D01*
G02X236970Y-13083I2340J119*
G01*
X236970Y-13083D01*
X236970Y-18917D01*
G75*
D01*
G02X236967Y-19023I-2344J13*
G01*
X236967Y-19023D01*
X234974Y-16000D01*
X235628Y-15009D01*
X235628Y-15009D01*
X236967Y-12977D01*
D02*
G37*
G36*
X330912Y87510D02*
G75*
D01*
G02X333083Y88970I2171J-884*
G01*
X333083Y88970D01*
X338917Y88970D01*
G74*
D01*
G02X341261Y86626I0J2344*
G01*
X341261Y86626D01*
X341261Y84375D01*
G75*
D01*
G02X338917Y82030I-2344J-1*
G01*
X338917Y82030D01*
X333083Y82030D01*
G75*
D01*
G02X330912Y83490I1J2345*
G01*
X330912Y83490D01*
X329088Y83490D01*
G74*
D01*
G02X326917Y82030I2171J884*
G01*
X326917Y82030D01*
X321083Y82030D01*
G75*
D01*
G02X318912Y83490I1J2345*
G01*
X318912Y83490D01*
X317088Y83490D01*
G74*
D01*
G02X314917Y82030I2171J884*
G01*
X314917Y82030D01*
X309083Y82030D01*
G75*
D01*
G02X306739Y84375I1J2345*
G01*
X306739Y84375D01*
X306739Y86626D01*
G75*
D01*
G02X309083Y88970I2344J0*
G01*
X309083Y88970D01*
X314917Y88970D01*
G74*
D01*
G02X317088Y87510I0J2344*
G01*
X317088Y87510D01*
X318912Y87510D01*
G75*
D01*
G02X321083Y88970I2171J-884*
G01*
X321083Y88970D01*
X326917Y88970D01*
G74*
D01*
G02X329088Y87510I0J2344*
G01*
X329088Y87510D01*
X330912Y87510D01*
D02*
G37*
G36*
X290873Y-72407D02*
G75*
D01*
G02X290739Y-71625I2210J781*
G01*
X290739Y-71625D01*
X290739Y-69374D01*
G74*
D01*
G02X290873Y-68593I2344J0*
G01*
X290873Y-68593D01*
X293765Y-70500D01*
X290873Y-72407D01*
D02*
G37*
G36*
X292977Y-73967D02*
X292977Y-73967D01*
X296000Y-71974D01*
X299023Y-73967D01*
G74*
D01*
G02X298917Y-73970I119J2341*
G01*
X298917Y-73970D01*
X293083Y-73970D01*
G75*
D01*
G02X292977Y-73967I13J2345*
G01*
D02*
G37*
G36*
X301127Y-72407D02*
X301127Y-72407D01*
X298235Y-70500D01*
X301127Y-68593D01*
G74*
D01*
G02X301261Y-69374I2209J781*
G01*
X301261Y-69374D01*
X301261Y-71625D01*
G75*
D01*
G02X301127Y-72407I-2344J-1*
G01*
D02*
G37*
G36*
X299023Y-67033D02*
X299023Y-67033D01*
X296000Y-69026D01*
X292977Y-67033D01*
G75*
D01*
G02X293083Y-67030I119J-2340*
G01*
X293083Y-67030D01*
X298917Y-67030D01*
G74*
D01*
G02X299023Y-67033I13J2344*
G01*
D02*
G37*
G36*
X231593Y-21127D02*
X231593Y-21127D01*
X233500Y-18235D01*
X235407Y-21127D01*
G74*
D01*
G02X234626Y-21261I781J2209*
G01*
X234626Y-21261D01*
X232375Y-21261D01*
G75*
D01*
G02X231593Y-21127I-1J2344*
G01*
D02*
G37*
G36*
X270791Y-31079D02*
X270791Y-31079D01*
X270791Y-31307D01*
X268071Y-31307D01*
X268071Y-29571D01*
X269283Y-29571D01*
G74*
D01*
G02X270791Y-31079I0J1508*
G01*
D02*
G37*
G36*
X264953Y-29571D02*
X264953Y-29571D01*
X266165Y-29571D01*
X266165Y-31307D01*
X263446Y-31307D01*
X263446Y-31079D01*
G75*
D01*
G02X264953Y-29571I1507J1*
G01*
D02*
G37*
G36*
X280977Y-73967D02*
X280977Y-73967D01*
X284000Y-71974D01*
X287023Y-73967D01*
G74*
D01*
G02X286917Y-73970I119J2341*
G01*
X286917Y-73970D01*
X281083Y-73970D01*
G75*
D01*
G02X280977Y-73967I13J2345*
G01*
D02*
G37*
G36*
X287023Y-67033D02*
X287023Y-67033D01*
X284000Y-69026D01*
X280977Y-67033D01*
G75*
D01*
G02X281083Y-67030I119J-2340*
G01*
X281083Y-67030D01*
X286917Y-67030D01*
G74*
D01*
G02X287023Y-67033I13J2344*
G01*
D02*
G37*
G36*
X271833Y65000D02*
G75*
D01*
G02X271833Y65000I5667J0*
G01*
D02*
G37*
G36*
X231593Y-10873D02*
G75*
D01*
G02X232375Y-10739I781J-2210*
G01*
X232375Y-10739D01*
X234626Y-10739D01*
G74*
D01*
G02X235407Y-10873I0J2344*
G01*
X235407Y-10873D01*
X233500Y-13765D01*
X231593Y-10873D01*
D02*
G37*
G36*
X230000Y20500D02*
G75*
D01*
G02X230000Y20500I11500J0*
G01*
D02*
G37*
G36*
X314873Y38593D02*
G75*
D01*
G02X314739Y39375I2210J781*
G01*
X314739Y39375D01*
X314739Y41626D01*
G74*
D01*
G02X314873Y42407I2344J0*
G01*
X314873Y42407D01*
X317765Y40500D01*
X314873Y38593D01*
D02*
G37*
G36*
X323023Y43967D02*
X323023Y43967D01*
X320000Y41974D01*
X316977Y43967D01*
G75*
D01*
G02X317083Y43970I119J-2340*
G01*
X317083Y43970D01*
X322917Y43970D01*
G74*
D01*
G02X323023Y43967I13J2344*
G01*
D02*
G37*
G36*
X325127Y38593D02*
X325127Y38593D01*
X322235Y40500D01*
X325127Y42407D01*
G74*
D01*
G02X325261Y41626I2209J781*
G01*
X325261Y41626D01*
X325261Y39375D01*
G75*
D01*
G02X325127Y38593I-2344J-1*
G01*
D02*
G37*
G36*
X316977Y37033D02*
X316977Y37033D01*
X320000Y39026D01*
X323023Y37033D01*
G74*
D01*
G02X322917Y37030I119J2341*
G01*
X322917Y37030D01*
X317083Y37030D01*
G75*
D01*
G02X316977Y37033I13J2345*
G01*
D02*
G37*
G36*
X357127Y11407D02*
G74*
D01*
G02X357261Y10626I2209J781*
G01*
X357261Y10626D01*
X357261Y8375D01*
G75*
D01*
G02X357127Y7593I-2344J-1*
G01*
X357127Y7593D01*
X354235Y9500D01*
X357127Y11407D01*
D02*
G37*
G36*
X348977Y6033D02*
X348977Y6033D01*
X352000Y8026D01*
X355023Y6033D01*
G74*
D01*
G02X354917Y6030I119J2341*
G01*
X354917Y6030D01*
X349083Y6030D01*
G75*
D01*
G02X348977Y6033I13J2345*
G01*
D02*
G37*
G36*
X346873Y11407D02*
X346873Y11407D01*
X349765Y9500D01*
X346873Y7593D01*
G75*
D01*
G02X346739Y8375I2210J781*
G01*
X346739Y8375D01*
X346739Y10626D01*
G74*
D01*
G02X346873Y11407I2344J0*
G01*
D02*
G37*
G36*
X355023Y12967D02*
X355023Y12967D01*
X352000Y10974D01*
X348977Y12967D01*
G75*
D01*
G02X349083Y12970I119J-2340*
G01*
X349083Y12970D01*
X354917Y12970D01*
G74*
D01*
G02X355023Y12967I13J2344*
G01*
D02*
G37*
%LPD*%
G36*
X354673Y-33484D02*
X354673Y-33484D01*
X356500Y-31658D01*
X356500Y-21793D01*
X363284Y-15009D01*
X363284Y-15009D01*
X375783Y-2510D01*
X368212Y-2510D01*
G75*
D01*
G02X359510Y-1772I-4212J2010*
G01*
X359510Y-1772D01*
X359510Y-16000D01*
G75*
D01*
G02X358919Y-17423I-2010J1*
G01*
X358919Y-17423D01*
X346293Y-30049D01*
X346293Y-32365D01*
X347534Y-31124D01*
G75*
D01*
G02X350016Y-34326I3466J124*
G01*
X350016Y-34326D01*
X348262Y-36080D01*
X348262Y-40571D01*
X348811Y-40571D01*
G74*
D01*
G02X349205Y-40624I2J1508*
G01*
G75*
D01*
G02X349598Y-40571I396J-1454*
G01*
X349598Y-40571D01*
X350780Y-40571D01*
G74*
D01*
G02X351173Y-40624I3J1508*
G01*
G75*
D01*
G02X351567Y-40571I396J-1454*
G01*
X351567Y-40571D01*
X352748Y-40571D01*
G74*
D01*
G02X353142Y-40624I2J1508*
G01*
G75*
D01*
G02X353535Y-40571I396J-1454*
G01*
X353535Y-40571D01*
X354085Y-40571D01*
X354085Y-34908D01*
G75*
D01*
G02X354673Y-33484I2009J4*
G01*
D02*
G37*
G36*
X355504Y-53586D02*
X355504Y-53586D01*
X356053Y-53586D01*
X356053Y-63605D01*
X344158Y-75500D01*
X337086Y-75500D01*
X337086Y-75441D01*
G74*
D01*
G03X337034Y-75047I1507J2*
G01*
G74*
D01*
G03X337078Y-74807I1455J391*
G01*
X337078Y-74807D01*
X336946Y-74807D01*
G74*
D01*
G03X336190Y-74063I1367J633*
G01*
G74*
D01*
G03X336946Y-73319I611J1377*
G01*
X336946Y-73319D01*
X337078Y-73319D01*
G74*
D01*
G03X337034Y-73079I1498J151*
G01*
G75*
D01*
G03X337086Y-72685I-1455J392*
G01*
X337086Y-72685D01*
X337086Y-71504D01*
G74*
D01*
G03X337034Y-71110I1507J2*
G01*
G75*
D01*
G03X337086Y-70717I-1455J392*
G01*
X337086Y-70717D01*
X337086Y-69535D01*
G74*
D01*
G03X337034Y-69142I1507J1*
G01*
G75*
D01*
G03X337086Y-68748I-1455J392*
G01*
X337086Y-68748D01*
X337086Y-67567D01*
G74*
D01*
G03X337034Y-67173I1507J2*
G01*
G75*
D01*
G03X337086Y-66780I-1455J392*
G01*
X337086Y-66780D01*
X337086Y-65598D01*
G74*
D01*
G03X337034Y-65205I1507J1*
G01*
G75*
D01*
G03X337086Y-64811I-1455J392*
G01*
X337086Y-64811D01*
X337086Y-63630D01*
G74*
D01*
G03X337034Y-63236I1507J2*
G01*
G75*
D01*
G03X337086Y-62843I-1455J392*
G01*
X337086Y-62843D01*
X337086Y-61661D01*
G74*
D01*
G03X337034Y-61268I1507J1*
G01*
G75*
D01*
G03X337086Y-60874I-1455J392*
G01*
X337086Y-60874D01*
X337086Y-59693D01*
G74*
D01*
G03X337034Y-59299I1507J2*
G01*
G75*
D01*
G03X337086Y-58905I-1455J392*
G01*
X337086Y-58905D01*
X337086Y-57724D01*
G74*
D01*
G03X337034Y-57331I1507J1*
G01*
G75*
D01*
G03X337086Y-56937I-1455J392*
G01*
X337086Y-56937D01*
X337086Y-55756D01*
G74*
D01*
G03X337034Y-55362I1507J2*
G01*
G75*
D01*
G03X337086Y-54968I-1455J392*
G01*
X337086Y-54968D01*
X337086Y-53787D01*
G74*
D01*
G03X337030Y-53382I1507J2*
G01*
G75*
D01*
G03X337787Y-53586I757J1302*
G01*
X337787Y-53586D01*
X338968Y-53586D01*
G74*
D01*
G03X339362Y-53534I2J1507*
G01*
G75*
D01*
G03X339756Y-53586I392J1455*
G01*
X339756Y-53586D01*
X340937Y-53586D01*
G74*
D01*
G03X341331Y-53534I2J1507*
G01*
G75*
D01*
G03X341724Y-53586I392J1455*
G01*
X341724Y-53586D01*
X342905Y-53586D01*
G74*
D01*
G03X343299Y-53534I2J1507*
G01*
G75*
D01*
G03X343693Y-53586I392J1455*
G01*
X343693Y-53586D01*
X344874Y-53586D01*
G74*
D01*
G03X345268Y-53534I2J1507*
G01*
G75*
D01*
G03X345661Y-53586I392J1455*
G01*
X345661Y-53586D01*
X346843Y-53586D01*
G74*
D01*
G03X347236Y-53534I1J1507*
G01*
G75*
D01*
G03X347630Y-53586I392J1455*
G01*
X347630Y-53586D01*
X348811Y-53586D01*
G74*
D01*
G03X349205Y-53534I2J1507*
G01*
G75*
D01*
G03X349598Y-53586I392J1455*
G01*
X349598Y-53586D01*
X350780Y-53586D01*
G74*
D01*
G03X351173Y-53534I1J1507*
G01*
G75*
D01*
G03X351567Y-53586I392J1455*
G01*
X351567Y-53586D01*
X352748Y-53586D01*
G74*
D01*
G03X353142Y-53534I2J1507*
G01*
G75*
D01*
G03X353535Y-53586I392J1455*
G01*
X353535Y-53586D01*
X354717Y-53586D01*
G74*
D01*
G03X355110Y-53534I1J1507*
G01*
G75*
D01*
G03X355504Y-53586I392J1455*
G01*
D02*
G37*
G36*
X204049Y-42242D02*
X204049Y-42242D01*
X215053Y-42242D01*
X215053Y-37742D01*
X204049Y-37742D01*
X204049Y-42242D01*
D02*
G37*
G36*
X204049Y-34242D02*
X204049Y-34242D01*
X215053Y-34242D01*
X215053Y-29742D01*
X204049Y-29742D01*
X204049Y-34242D01*
D02*
G37*
G36*
X301015Y-79328D02*
X301015Y-79328D01*
X302301Y-78041D01*
X324071Y-78041D01*
X324071Y-78591D01*
G75*
D01*
G03X324124Y-78984I1508J3*
G01*
G74*
D01*
G03X324071Y-79378I1454J396*
G01*
X324071Y-79378D01*
X324071Y-79927D01*
X301218Y-79927D01*
G74*
D01*
G03X301015Y-79328I2301J446*
G01*
D02*
G37*
G36*
X253209Y-32502D02*
X253209Y-32502D01*
X253209Y-32000D01*
X252707Y-32000D01*
X253209Y-32502D01*
D02*
G37*
G54D11*
X376407Y-14873D02*
G74*
D01*
G03X375626Y-14739I781J2209*
G01*
X373375Y-14739D01*
G75*
D01*
G03X372593Y-14873I-1J-2344*
G01*
X372682Y-15009D01*
X372682Y-15009D01*
X374500Y-17765D01*
X376318Y-15009D01*
X376318Y-15009D01*
X376407Y-14873D01*
X433827Y-3990D02*
G75*
D01*
G03X433827Y-8010I-2826J-2010*
G01*
X477621Y-8010D01*
G75*
D01*
G03X480959Y-10517I3337J968*
G01*
X483041Y-10517D01*
G75*
D01*
G03X486517Y-7041I0J3476*
G01*
X486517Y-4958D01*
G74*
D01*
G03X483041Y-1483I3476J1*
G01*
X480959Y-1483D01*
G75*
D01*
G03X477621Y-3990I-1J-3475*
G01*
X433827Y-3990D01*
X453827Y-13990D02*
G75*
D01*
G03X453827Y-18010I-2826J-2010*
G01*
X477788Y-18010D01*
G75*
D01*
G03X477788Y-13990I4212J2010*
G01*
X453827Y-13990D01*
X475500Y-63990D02*
G75*
D01*
G03X474824Y-64107I0J-2010*
G01*
G74*
D01*
G03X474079Y-64579I677J1893*
G01*
X463579Y-75079D01*
G75*
D01*
G03X462990Y-76504I1420J-1421*
G01*
X462990Y-96173D01*
G75*
D01*
G03X467010Y-96173I2010J-2826*
G01*
X467010Y-77332D01*
X476332Y-68010D01*
X477788Y-68010D01*
G75*
D01*
G03X477788Y-63990I4212J2010*
G01*
X475500Y-63990D01*
X415827Y-53990D02*
G75*
D01*
G03X415827Y-58010I-2826J-2010*
G01*
X477788Y-58010D01*
G75*
D01*
G03X477788Y-53990I4212J2010*
G01*
X415827Y-53990D01*
X427827Y-43990D02*
G75*
D01*
G03X427827Y-48010I-2826J-2010*
G01*
X477788Y-48010D01*
G75*
D01*
G03X477788Y-43990I4212J2010*
G01*
X427827Y-43990D01*
X461827Y-33990D02*
G75*
D01*
G03X461827Y-38010I-2826J-2010*
G01*
X477788Y-38010D01*
G75*
D01*
G03X477788Y-33990I4212J2010*
G01*
X461827Y-33990D01*
X444827Y-23990D02*
G75*
D01*
G03X444827Y-28010I-2826J-2010*
G01*
X477788Y-28010D01*
G75*
D01*
G03X477788Y-23990I4212J2010*
G01*
X444827Y-23990D01*
X473079Y-88079D02*
G75*
D01*
G03X472490Y-89502I1420J-1421*
G01*
X472490Y-102168D01*
X469668Y-104990D01*
X461832Y-104990D01*
X457683Y-100841D01*
G75*
D01*
G03X459261Y-98625I-766J2215*
G01*
X459261Y-96374D01*
G74*
D01*
G03X456917Y-94030I2344J0*
G01*
X451083Y-94030D01*
G75*
D01*
G03X448912Y-95490I0J-2344*
G01*
X447088Y-95490D01*
G74*
D01*
G03X444917Y-94030I2171J884*
G01*
X439083Y-94030D01*
G75*
D01*
G03X436739Y-96374I0J-2344*
G01*
X436739Y-98625D01*
G75*
D01*
G03X439083Y-100970I2344J-1*
G01*
X444917Y-100970D01*
G74*
D01*
G03X447088Y-99510I1J2345*
G01*
X448912Y-99510D01*
G75*
D01*
G03X451083Y-100970I2171J884*
G01*
X452715Y-100970D01*
G74*
D01*
G03X453286Y-102128I1992J262*
G01*
X459579Y-108421D01*
G74*
D01*
G03X460396Y-108917I1421J1420*
G01*
G75*
D01*
G03X461000Y-109010I604J1916*
G01*
X470500Y-109010D01*
G74*
D01*
G03X471923Y-108419I1J2010*
G01*
X475919Y-104423D01*
G75*
D01*
G03X476510Y-103000I-1418J1423*
G01*
X476510Y-90332D01*
X478172Y-88670D01*
G75*
D01*
G03X477782Y-84002I3828J2670*
G01*
G74*
D01*
G03X476579Y-84579I218J1997*
G01*
X473079Y-88079D01*
X384755Y-143903D02*
X381991Y-146667D01*
X378628Y-150030D01*
X377372Y-150030D01*
X373010Y-145668D01*
X373010Y-144720D01*
G75*
D01*
G03X375083Y-145970I2073J1094*
G01*
X380917Y-145970D01*
G75*
D01*
G03X383261Y-143625I-1J2345*
G01*
X383261Y-141374D01*
G74*
D01*
G03X380917Y-139030I2344J0*
G01*
X380010Y-139030D01*
X380010Y-132293D01*
G74*
D01*
G03X379419Y-130869I2010J0*
G01*
X377131Y-128581D01*
G74*
D01*
G03X375817Y-127993I1424J1419*
G01*
G75*
D01*
G03X375706Y-127990I-110J-2007*
G01*
X365332Y-127990D01*
X360352Y-123010D01*
X376173Y-123010D01*
G75*
D01*
G03X376173Y-118990I2826J2010*
G01*
X359332Y-118990D01*
X358104Y-117762D01*
X358104Y-115929D01*
X358654Y-115929D01*
G74*
D01*
G03X359047Y-115876I3J1508*
G01*
G75*
D01*
G03X359441Y-115929I396J1454*
G01*
X360622Y-115929D01*
G74*
D01*
G03X361016Y-115876I2J1508*
G01*
G75*
D01*
G03X361409Y-115929I396J1454*
G01*
X362591Y-115929D01*
G74*
D01*
G03X362984Y-115876I3J1508*
G01*
G75*
D01*
G03X363378Y-115929I396J1454*
G01*
X364559Y-115929D01*
G74*
D01*
G03X364953Y-115876I2J1508*
G01*
G75*
D01*
G03X365346Y-115929I396J1454*
G01*
X366528Y-115929D01*
G74*
D01*
G03X366921Y-115876I3J1508*
G01*
G75*
D01*
G03X367315Y-115929I396J1454*
G01*
X368496Y-115929D01*
G74*
D01*
G03X368890Y-115876I2J1508*
G01*
G75*
D01*
G03X369283Y-115929I396J1454*
G01*
X370465Y-115929D01*
G74*
D01*
G03X370858Y-115876I3J1508*
G01*
G75*
D01*
G03X371252Y-115929I396J1454*
G01*
X372433Y-115929D01*
G74*
D01*
G03X372827Y-115876I2J1508*
G01*
G75*
D01*
G03X373220Y-115929I396J1454*
G01*
X374402Y-115929D01*
G74*
D01*
G03X374795Y-115876I3J1508*
G01*
G75*
D01*
G03X375189Y-115929I396J1454*
G01*
X376370Y-115929D01*
G74*
D01*
G03X376764Y-115876I2J1508*
G01*
G75*
D01*
G03X377158Y-115929I396J1454*
G01*
X378339Y-115929D01*
G74*
D01*
G03X378732Y-115876I3J1508*
G01*
G75*
D01*
G03X379126Y-115929I396J1454*
G01*
X380307Y-115929D01*
G74*
D01*
G03X380701Y-115876I2J1508*
G01*
G75*
D01*
G03X381095Y-115929I396J1454*
G01*
X382276Y-115929D01*
G74*
D01*
G03X382669Y-115876I3J1508*
G01*
G75*
D01*
G03X383063Y-115929I396J1454*
G01*
X384244Y-115929D01*
G74*
D01*
G03X384638Y-115876I2J1508*
G01*
G75*
D01*
G03X385032Y-115929I396J1454*
G01*
X386213Y-115929D01*
G75*
D01*
G03X387720Y-114421I-1J1508*
G01*
X387720Y-104421D01*
G74*
D01*
G03X386213Y-102914I1507J0*
G01*
X385032Y-102914D01*
G75*
D01*
G03X384638Y-102966I-2J-1507*
G01*
G74*
D01*
G03X384244Y-102914I392J1455*
G01*
X383063Y-102914D01*
G75*
D01*
G03X382669Y-102966I-2J-1507*
G01*
G74*
D01*
G03X382276Y-102914I392J1455*
G01*
X381095Y-102914D01*
G75*
D01*
G03X380701Y-102966I-2J-1507*
G01*
G74*
D01*
G03X380307Y-102914I392J1455*
G01*
X379126Y-102914D01*
G75*
D01*
G03X378732Y-102966I-2J-1507*
G01*
G74*
D01*
G03X378339Y-102914I392J1455*
G01*
X377158Y-102914D01*
G75*
D01*
G03X376764Y-102966I-2J-1507*
G01*
G74*
D01*
G03X376370Y-102914I392J1455*
G01*
X375189Y-102914D01*
G75*
D01*
G03X374795Y-102966I-2J-1507*
G01*
G74*
D01*
G03X374402Y-102914I392J1455*
G01*
X373220Y-102914D01*
G75*
D01*
G03X372827Y-102966I-1J-1507*
G01*
G74*
D01*
G03X372433Y-102914I392J1455*
G01*
X371252Y-102914D01*
G75*
D01*
G03X370858Y-102966I-2J-1507*
G01*
G74*
D01*
G03X370465Y-102914I392J1455*
G01*
X369283Y-102914D01*
G75*
D01*
G03X368890Y-102966I-1J-1507*
G01*
G74*
D01*
G03X368496Y-102914I392J1455*
G01*
X367315Y-102914D01*
G75*
D01*
G03X366921Y-102966I-2J-1507*
G01*
G74*
D01*
G03X366528Y-102914I392J1455*
G01*
X365346Y-102914D01*
G75*
D01*
G03X364953Y-102966I-1J-1507*
G01*
G74*
D01*
G03X364559Y-102914I392J1455*
G01*
X363378Y-102914D01*
G75*
D01*
G03X362984Y-102966I-2J-1507*
G01*
G74*
D01*
G03X362591Y-102914I392J1455*
G01*
X361409Y-102914D01*
G75*
D01*
G03X361016Y-102966I-1J-1507*
G01*
G74*
D01*
G03X360622Y-102914I392J1455*
G01*
X359441Y-102914D01*
G75*
D01*
G03X359047Y-102966I-2J-1507*
G01*
G74*
D01*
G03X358654Y-102914I392J1455*
G01*
X357472Y-102914D01*
G75*
D01*
G03X357079Y-102966I-1J-1507*
G01*
G74*
D01*
G03X356685Y-102914I392J1455*
G01*
X355504Y-102914D01*
G75*
D01*
G03X355110Y-102966I-2J-1507*
G01*
G74*
D01*
G03X354717Y-102914I392J1455*
G01*
X353535Y-102914D01*
G75*
D01*
G03X353142Y-102966I-1J-1507*
G01*
G74*
D01*
G03X352748Y-102914I392J1455*
G01*
X351567Y-102914D01*
G75*
D01*
G03X351173Y-102966I-2J-1507*
G01*
G74*
D01*
G03X350780Y-102914I392J1455*
G01*
X349598Y-102914D01*
G75*
D01*
G03X349205Y-102966I-1J-1507*
G01*
G74*
D01*
G03X348811Y-102914I392J1455*
G01*
X347630Y-102914D01*
G75*
D01*
G03X347236Y-102966I-2J-1507*
G01*
G74*
D01*
G03X346843Y-102914I392J1455*
G01*
X346293Y-102914D01*
X346293Y-102783D01*
G74*
D01*
G03X345702Y-101360I2010J1*
G01*
X344128Y-99786D01*
X344128Y-99786D01*
G75*
D01*
G03X342707Y-99197I-1421J-1420*
G01*
X340296Y-99197D01*
G75*
D01*
G03X339611Y-99317I-1J-2010*
G01*
G74*
D01*
G03X338870Y-99788I681J1890*
G01*
X336957Y-101701D01*
G74*
D01*
G03X336516Y-102366I1420J1421*
G01*
X331323Y-102366D01*
X331323Y-103720D01*
X335579Y-103720D01*
G74*
D01*
G03X336368Y-103497I0J1507*
G01*
X336368Y-103913D01*
G74*
D01*
G03X336280Y-104421I1419J507*
G01*
X336280Y-114421D01*
G75*
D01*
G03X337787Y-115929I1507J-1*
G01*
X338337Y-115929D01*
X338337Y-117554D01*
X336906Y-118985D01*
G74*
D01*
G03X335859Y-118739I1045J2098*
G01*
X333608Y-118739D01*
G75*
D01*
G03X331264Y-121083I0J-2344*
G01*
X331264Y-126917D01*
G75*
D01*
G03X331870Y-128490I2344J0*
G01*
X286000Y-128490D01*
G75*
D01*
G03X285514Y-128550I1J-2010*
G01*
G74*
D01*
G03X284579Y-129079I486J1949*
G01*
X272579Y-141079D01*
G75*
D01*
G03X271990Y-142505I1420J-1421*
G01*
X271990Y-161007D01*
G74*
D01*
G03X270609Y-162340I1629J3070*
G01*
X269568Y-164144D01*
G75*
D01*
G03X270840Y-168891I3008J-1738*
G01*
X272644Y-169932D01*
G75*
D01*
G03X277391Y-168660I1738J3008*
G01*
X278432Y-166856D01*
G75*
D01*
G03X277160Y-162109I-3008J1738*
G01*
X276010Y-161445D01*
X276010Y-143332D01*
X286832Y-132510D01*
X337168Y-132510D01*
X346079Y-141421D01*
G74*
D01*
G03X346889Y-141915I1421J1420*
G01*
G75*
D01*
G03X347500Y-142010I611J1915*
G01*
X354100Y-142010D01*
G74*
D01*
G03X353997Y-142559I1404J548*
G01*
X353997Y-142787D01*
X356519Y-142787D01*
X356519Y-142010D01*
X358426Y-142010D01*
X358426Y-142787D01*
X360948Y-142787D01*
X360948Y-142559D01*
G74*
D01*
G03X360845Y-142010I1507J1*
G01*
X363300Y-142010D01*
G74*
D01*
G03X364518Y-142688I1259J828*
G01*
X364518Y-146022D01*
G75*
D01*
G03X365106Y-147449I2010J-6*
G01*
X366990Y-149332D01*
X366990Y-160645D01*
G74*
D01*
G03X365489Y-162833I843J2187*
G01*
X365489Y-163147D01*
X362511Y-160169D01*
X362511Y-158666D01*
G74*
D01*
G03X360167Y-156322I2344J0*
G01*
X358331Y-156322D01*
X354441Y-152433D01*
G75*
D01*
G03X351718Y-155393I-3441J433*
G01*
X355489Y-159164D01*
X355489Y-161000D01*
G75*
D01*
G03X357833Y-163345I2344J-1*
G01*
X360003Y-163345D01*
X362490Y-165832D01*
X362490Y-166687D01*
G74*
D01*
G03X360167Y-164655I2322J311*
G01*
X357833Y-164655D01*
G75*
D01*
G03X355489Y-167000I1J-2345*
G01*
X355489Y-169334D01*
G75*
D01*
G03X356990Y-171521I2344J0*
G01*
X356990Y-175030D01*
X355083Y-175030D01*
G75*
D01*
G03X352739Y-177374I0J-2344*
G01*
X352739Y-179625D01*
G75*
D01*
G03X355083Y-181970I2344J-1*
G01*
X360917Y-181970D01*
G75*
D01*
G03X363261Y-179625I-1J2345*
G01*
X363261Y-177374D01*
G74*
D01*
G03X361010Y-175032I2344J0*
G01*
X361010Y-171521D01*
G74*
D01*
G03X362490Y-169646I842J2186*
G01*
X362490Y-172996D01*
G75*
D01*
G03X363079Y-174421I2010J-3*
G01*
X364985Y-176328D01*
G74*
D01*
G03X364739Y-177374I2098J1045*
G01*
X364739Y-179625D01*
G75*
D01*
G03X367083Y-181970I2344J-1*
G01*
X372917Y-181970D01*
G75*
D01*
G03X375261Y-179625I-1J2345*
G01*
X375261Y-177374D01*
G74*
D01*
G03X372917Y-175030I2344J0*
G01*
X369372Y-175030D01*
X366510Y-172168D01*
X366510Y-167102D01*
G75*
D01*
G03X367833Y-167511I1323J1935*
G01*
X370167Y-167511D01*
G75*
D01*
G03X372511Y-165167I0J2344*
G01*
X372511Y-162833D01*
G74*
D01*
G03X371010Y-160645I2344J1*
G01*
X371010Y-149352D01*
X372985Y-151328D01*
G74*
D01*
G03X372739Y-152374I2098J1045*
G01*
X372739Y-154625D01*
G75*
D01*
G03X375083Y-156970I2344J-1*
G01*
X380917Y-156970D01*
G75*
D01*
G03X383261Y-154625I-1J2345*
G01*
X383261Y-152374D01*
G74*
D01*
G03X383015Y-151328I2344J1*
G01*
X388372Y-145970D01*
X392917Y-145970D01*
G75*
D01*
G03X395261Y-143625I-1J2345*
G01*
X395261Y-141374D01*
G74*
D01*
G03X392917Y-139030I2344J0*
G01*
X387083Y-139030D01*
G75*
D01*
G03X384739Y-141374I0J-2344*
G01*
X384739Y-143625D01*
G75*
D01*
G03X384755Y-143903I2344J-5*
G01*
X292368Y-107368D02*
X290240Y-109497D01*
X290240Y-109497D01*
X288868Y-110868D01*
G74*
D01*
G03X288146Y-112028I2132J2132*
G01*
G75*
D01*
G03X294463Y-113800I2854J-1972*
G01*
X295726Y-112537D01*
G75*
D01*
G03X297083Y-112970I1357J1911*
G01*
X302917Y-112970D01*
G74*
D01*
G03X304305Y-112515I0J2345*
G01*
X307695Y-112515D01*
G75*
D01*
G03X309083Y-112970I1388J1889*
G01*
X314917Y-112970D01*
G75*
D01*
G03X317261Y-110625I-1J2345*
G01*
X317261Y-108374D01*
G74*
D01*
G03X314917Y-106030I2344J0*
G01*
X309083Y-106030D01*
G75*
D01*
G03X307695Y-106485I0J-2344*
G01*
X304305Y-106485D01*
G74*
D01*
G03X302917Y-106030I1388J1889*
G01*
X297083Y-106030D01*
G75*
D01*
G03X295695Y-106485I0J-2344*
G01*
X294500Y-106485D01*
G75*
D01*
G03X293389Y-106698I2J-3015*
G01*
G74*
D01*
G03X292368Y-107368I1109J2803*
G01*
X291023Y-150033D02*
G74*
D01*
G03X290917Y-150030I119J2340*
G01*
X285083Y-150030D01*
G75*
D01*
G03X284977Y-150033I13J-2344*
G01*
X287503Y-151698D01*
X287503Y-151698D01*
X288000Y-152026D01*
X291023Y-150033D01*
X290917Y-156970D02*
G74*
D01*
G03X291023Y-156967I13J2345*
G01*
X288000Y-154974D01*
X287503Y-155302D01*
X287503Y-155302D01*
X284977Y-156967D01*
G75*
D01*
G03X285083Y-156970I119J2341*
G01*
X290917Y-156970D01*
X288460Y-177260D02*
G74*
D01*
G03X289632Y-179244I2344J46*
G01*
X291581Y-180369D01*
G75*
D01*
G03X294783Y-179511I1172J2030*
G01*
X297700Y-174459D01*
G75*
D01*
G03X296842Y-171256I-2030J1173*
G01*
X294893Y-170131D01*
G75*
D01*
G03X291690Y-170989I-1173J-2030*
G01*
X290391Y-173240D01*
X288243Y-173240D01*
X287503Y-172501D01*
X287060Y-172057D01*
G75*
D01*
G03X284218Y-174899I-4399J1557*
G01*
X285989Y-176671D01*
G75*
D01*
G03X287411Y-177260I1421J1420*
G01*
X288460Y-177260D01*
X290917Y-145970D02*
G74*
D01*
G03X293088Y-144510I1J2345*
G01*
X294912Y-144510D01*
G75*
D01*
G03X297083Y-145970I2171J884*
G01*
X302917Y-145970D01*
G74*
D01*
G03X305088Y-144510I1J2345*
G01*
X317500Y-144510D01*
G74*
D01*
G03X318923Y-143919I1J2010*
G01*
X324573Y-138270D01*
X326245Y-138270D01*
G75*
D01*
G03X327504Y-138948I1258J829*
G01*
X331441Y-138948D01*
G75*
D01*
G03X332948Y-137441I0J1507*
G01*
X332948Y-135079D01*
G74*
D01*
G03X331441Y-133571I1507J1*
G01*
X327504Y-133571D01*
G75*
D01*
G03X326245Y-134250I1J-1508*
G01*
X323743Y-134250D01*
G75*
D01*
G03X322319Y-134839I-2J-2010*
G01*
X316668Y-140490D01*
X305088Y-140490D01*
G74*
D01*
G03X302917Y-139030I2171J884*
G01*
X297083Y-139030D01*
G75*
D01*
G03X294912Y-140490I0J-2344*
G01*
X293088Y-140490D01*
G74*
D01*
G03X290917Y-139030I2171J884*
G01*
X285083Y-139030D01*
G75*
D01*
G03X282739Y-141374I0J-2344*
G01*
X282739Y-143625D01*
G75*
D01*
G03X285083Y-145970I2344J-1*
G01*
X290917Y-145970D01*
X386979Y-184848D02*
G75*
D01*
G03X382382Y-184276I-1980J2847*
G01*
X381991Y-184667D01*
X381991Y-184667D01*
X379168Y-187490D01*
X375088Y-187490D01*
G74*
D01*
G03X372917Y-186030I2171J884*
G01*
X367083Y-186030D01*
G75*
D01*
G03X364912Y-187490I0J-2344*
G01*
X363088Y-187490D01*
G74*
D01*
G03X360917Y-186030I2171J884*
G01*
X357372Y-186030D01*
X348423Y-177081D01*
G74*
D01*
G03X347000Y-176490I1423J1418*
G01*
X345088Y-176490D01*
G74*
D01*
G03X342917Y-175030I2171J884*
G01*
X337083Y-175030D01*
G75*
D01*
G03X334912Y-176490I0J-2344*
G01*
X333088Y-176490D01*
G74*
D01*
G03X330917Y-175030I2171J884*
G01*
X326979Y-175030D01*
X330331Y-171678D01*
X332167Y-171678D01*
G75*
D01*
G03X334511Y-169334I0J2344*
G01*
X334511Y-167000D01*
G74*
D01*
G03X332167Y-164655I2344J1*
G01*
X329833Y-164655D01*
G75*
D01*
G03X328760Y-164915I0J-2345*
G01*
X330331Y-163345D01*
X332167Y-163345D01*
G75*
D01*
G03X334511Y-161000I-1J2345*
G01*
X334511Y-158666D01*
G74*
D01*
G03X332167Y-156322I2344J0*
G01*
X329833Y-156322D01*
G75*
D01*
G03X327489Y-158666I0J-2344*
G01*
X327489Y-158990D01*
X321832Y-158990D01*
X320446Y-157604D01*
G74*
D01*
G03X319841Y-156010I3445J396*
G01*
X338668Y-156010D01*
X338990Y-156332D01*
X338990Y-160645D01*
G74*
D01*
G03X337489Y-162833I843J2187*
G01*
X337489Y-165167D01*
G75*
D01*
G03X339833Y-167511I2344J0*
G01*
X342167Y-167511D01*
G75*
D01*
G03X344511Y-165167I0J2344*
G01*
X344511Y-162833D01*
G74*
D01*
G03X343010Y-160645I2344J1*
G01*
X343010Y-155500D01*
G74*
D01*
G03X342419Y-154077I2010J1*
G01*
X340923Y-152581D01*
G74*
D01*
G03X340919Y-152577I1423J1419*
G01*
X340537Y-152195D01*
X340537Y-142688D01*
G75*
D01*
G03X342003Y-141181I-41J1506*
G01*
X342003Y-138819D01*
G74*
D01*
G03X340496Y-137312I1507J0*
G01*
X336559Y-137312D01*
G75*
D01*
G03X335052Y-138819I0J-1507*
G01*
X335052Y-141181D01*
G75*
D01*
G03X336518Y-142688I1507J-1*
G01*
X336518Y-151990D01*
X311502Y-151990D01*
G75*
D01*
G03X310079Y-152579I-1J-2010*
G01*
X301342Y-161316D01*
G75*
D01*
G03X300753Y-162740I1420J-1421*
G01*
X300753Y-177291D01*
X298300Y-181541D01*
G75*
D01*
G03X299158Y-184744I2030J-1173*
G01*
X301107Y-185869D01*
G75*
D01*
G03X304310Y-185011I1173J2030*
G01*
X307227Y-179959D01*
G75*
D01*
G03X306368Y-176756I-2030J1172*
G01*
X304773Y-175835D01*
X304773Y-163569D01*
X312332Y-156010D01*
X314159Y-156010D01*
G75*
D01*
G03X318352Y-161194I2840J-1991*
G01*
X319579Y-162421D01*
G74*
D01*
G03X320314Y-162889I1421J1420*
G01*
G75*
D01*
G03X321000Y-163010I687J1888*
G01*
X324982Y-163010D01*
X316079Y-171912D01*
G75*
D01*
G03X315490Y-173337I1420J-1421*
G01*
X315490Y-187996D01*
G75*
D01*
G03X316079Y-189421I2010J-3*
G01*
X322079Y-195421D01*
G74*
D01*
G03X322850Y-195902I1421J1420*
G01*
G75*
D01*
G03X323500Y-196010I650J1902*
G01*
X335497Y-196010D01*
G75*
D01*
G03X336249Y-195865I2J2010*
G01*
G74*
D01*
G03X336923Y-195419I749J1864*
G01*
X339372Y-192970D01*
X342917Y-192970D01*
G75*
D01*
G03X345261Y-190625I-1J2345*
G01*
X345261Y-188374D01*
G74*
D01*
G03X342917Y-186030I2344J0*
G01*
X337083Y-186030D01*
G75*
D01*
G03X334739Y-188374I0J-2344*
G01*
X334739Y-190625D01*
G75*
D01*
G03X334985Y-191672I2344J-2*
G01*
X334668Y-191990D01*
X332823Y-191990D01*
G75*
D01*
G03X333261Y-190625I-1906J1364*
G01*
X333261Y-188374D01*
G74*
D01*
G03X330917Y-186030I2344J0*
G01*
X327372Y-186030D01*
X323010Y-181668D01*
X323010Y-180720D01*
G75*
D01*
G03X325083Y-181970I2073J1094*
G01*
X330917Y-181970D01*
G74*
D01*
G03X333088Y-180510I1J2345*
G01*
X334912Y-180510D01*
G75*
D01*
G03X337083Y-181970I2171J884*
G01*
X342917Y-181970D01*
G74*
D01*
G03X345088Y-180510I1J2345*
G01*
X346168Y-180510D01*
X352985Y-187328D01*
G74*
D01*
G03X352739Y-188374I2098J1045*
G01*
X352739Y-190625D01*
G75*
D01*
G03X355083Y-192970I2344J-1*
G01*
X360917Y-192970D01*
G74*
D01*
G03X363088Y-191510I1J2345*
G01*
X364912Y-191510D01*
G75*
D01*
G03X367083Y-192970I2171J884*
G01*
X372917Y-192970D01*
G74*
D01*
G03X375088Y-191510I1J2345*
G01*
X380000Y-191510D01*
G74*
D01*
G03X381423Y-190919I1J2010*
G01*
X386419Y-185923D01*
G74*
D01*
G03X386979Y-184848I1419J1422*
G01*
X405578Y-115420D02*
X432072Y-141914D01*
G75*
D01*
G03X435817Y-139975I3786J-2727*
G01*
X408420Y-112578D01*
G75*
D01*
G03X405578Y-115420I-3420J578*
G01*
X376407Y-25127D02*
X374500Y-22235D01*
X372593Y-25127D01*
G75*
D01*
G03X373375Y-25261I781J2210*
G01*
X375626Y-25261D01*
G74*
D01*
G03X376407Y-25127I0J2344*
G01*
X377967Y-23023D02*
G75*
D01*
G03X377970Y-22917I-2340J119*
G01*
X377970Y-17083D01*
G74*
D01*
G03X377967Y-16977I2344J13*
G01*
X375974Y-20000D01*
X377967Y-23023D01*
X371033Y-16977D02*
G74*
D01*
G03X371030Y-17083I2341J119*
G01*
X371030Y-22917D01*
G75*
D01*
G03X371033Y-23023I2345J13*
G01*
X373026Y-20000D01*
X371033Y-16977D01*
X371033Y-28977D02*
G74*
D01*
G03X371030Y-29083I2341J119*
G01*
X371030Y-34917D01*
G75*
D01*
G03X371033Y-35023I2345J13*
G01*
X373026Y-32000D01*
X371033Y-28977D01*
X376407Y-37127D02*
X374500Y-34235D01*
X372593Y-37127D01*
G75*
D01*
G03X373375Y-37261I781J2210*
G01*
X375626Y-37261D01*
G74*
D01*
G03X376407Y-37127I0J2344*
G01*
X377967Y-35023D02*
G75*
D01*
G03X377970Y-34917I-2340J119*
G01*
X377970Y-29083D01*
G74*
D01*
G03X377967Y-28977I2344J13*
G01*
X375974Y-32000D01*
X377967Y-35023D01*
X376407Y-26873D02*
G74*
D01*
G03X375626Y-26739I781J2209*
G01*
X373375Y-26739D01*
G75*
D01*
G03X372593Y-26873I-1J-2344*
G01*
X374500Y-29765D01*
X376407Y-26873D01*
X480345Y-100364D02*
X480345Y-97655D01*
X477636Y-97655D01*
G74*
D01*
G03X480345Y-100364I4364J1655*
G01*
X480250Y-96000D02*
G75*
D01*
G03X480250Y-96000I1750J0*
G01*
X486364Y-97655D02*
X483655Y-97655D01*
X483655Y-100364D01*
G74*
D01*
G03X486364Y-97655I1655J4364*
G01*
X477636Y-94345D02*
X480345Y-94345D01*
X480345Y-91636D01*
G74*
D01*
G03X477636Y-94345I1655J4364*
G01*
X483655Y-91636D02*
X483655Y-94345D01*
X486364Y-94345D01*
G74*
D01*
G03X483655Y-91636I4364J1655*
G01*
X477333Y-76000D02*
G75*
D01*
G03X477333Y-76000I4667J0*
G01*
X242873Y-79593D02*
G74*
D01*
G03X242739Y-80374I2209J781*
G01*
X242739Y-82625D01*
G75*
D01*
G03X242873Y-83407I2344J-1*
G01*
X245765Y-81500D01*
X242873Y-79593D01*
X251023Y-78033D02*
G74*
D01*
G03X250917Y-78030I119J2340*
G01*
X245083Y-78030D01*
G75*
D01*
G03X244977Y-78033I13J-2344*
G01*
X248000Y-80026D01*
X251023Y-78033D01*
X253127Y-79593D02*
X250235Y-81500D01*
X253127Y-83407D01*
G75*
D01*
G03X253261Y-82625I-2210J781*
G01*
X253261Y-80374D01*
G74*
D01*
G03X253127Y-79593I2344J0*
G01*
X244977Y-84967D02*
G75*
D01*
G03X245083Y-84970I119J2341*
G01*
X250917Y-84970D01*
G74*
D01*
G03X251023Y-84967I13J2345*
G01*
X248000Y-82974D01*
X244977Y-84967D01*
X226129Y-98134D02*
G74*
D01*
G03X226854Y-96970I2129J2134*
G01*
X226917Y-96970D01*
G75*
D01*
G03X229261Y-94625I-1J2345*
G01*
X229261Y-92374D01*
G74*
D01*
G03X226917Y-90030I2344J0*
G01*
X221083Y-90030D01*
G75*
D01*
G03X219695Y-90485I0J-2344*
G01*
X218000Y-90485D01*
G75*
D01*
G03X217895Y-90487I5J-3015*
G01*
G74*
D01*
G03X215868Y-91368I104J3012*
G01*
X212692Y-94545D01*
G75*
D01*
G03X210146Y-99972I306J-3454*
G01*
G74*
D01*
G03X210868Y-101132I2853J971*
G01*
X213655Y-103918D01*
G75*
D01*
G03X220345Y-103918I3345J915*
G01*
X226129Y-98134D01*
X306873Y-100407D02*
X309765Y-98500D01*
X306873Y-96593D01*
G74*
D01*
G03X306739Y-97374I2209J781*
G01*
X306739Y-99625D01*
G75*
D01*
G03X306873Y-100407I2344J-1*
G01*
X315023Y-95033D02*
G74*
D01*
G03X314917Y-95030I119J2340*
G01*
X309083Y-95030D01*
G75*
D01*
G03X308977Y-95033I13J-2344*
G01*
X312000Y-97026D01*
X315023Y-95033D01*
X317127Y-100407D02*
G75*
D01*
G03X317261Y-99625I-2210J781*
G01*
X317261Y-97374D01*
G74*
D01*
G03X317127Y-96593I2344J0*
G01*
X314235Y-98500D01*
X317127Y-100407D01*
X308977Y-101967D02*
G75*
D01*
G03X309083Y-101970I119J2341*
G01*
X314917Y-101970D01*
G74*
D01*
G03X315023Y-101967I13J2345*
G01*
X312000Y-99974D01*
X308977Y-101967D01*
X303023Y-95033D02*
G74*
D01*
G03X302917Y-95030I119J2340*
G01*
X297083Y-95030D01*
G75*
D01*
G03X296977Y-95033I13J-2344*
G01*
X300000Y-97026D01*
X303023Y-95033D01*
X294873Y-100407D02*
X297765Y-98500D01*
X294873Y-96593D01*
G74*
D01*
G03X294739Y-97374I2209J781*
G01*
X294739Y-99625D01*
G75*
D01*
G03X294873Y-100407I2344J-1*
G01*
X296977Y-101967D02*
G75*
D01*
G03X297083Y-101970I119J2341*
G01*
X302917Y-101970D01*
G74*
D01*
G03X303023Y-101967I13J2345*
G01*
X300000Y-99974D01*
X296977Y-101967D01*
X305127Y-100407D02*
G75*
D01*
G03X305261Y-99625I-2210J781*
G01*
X305261Y-97374D01*
G74*
D01*
G03X305127Y-96593I2344J0*
G01*
X302235Y-98500D01*
X305127Y-100407D01*
X324079Y-102366D02*
G75*
D01*
G03X325579Y-103720I1499J153*
G01*
X329835Y-103720D01*
X329835Y-102366D01*
X324079Y-102366D01*
X274709Y-114023D02*
X273491Y-112806D01*
X273491Y-114023D01*
X274709Y-114023D01*
X285262Y-126198D02*
X281977Y-126198D01*
X281977Y-129484D01*
G74*
D01*
G03X283056Y-128870I578J2272*
G01*
X284648Y-127278D01*
G74*
D01*
G03X285262Y-126198I1658J1657*
G01*
X265293Y-141612D02*
X271110Y-135795D01*
X271963Y-136648D01*
G75*
D01*
G03X275278Y-136648I1658J1657*
G01*
X276870Y-135056D01*
G75*
D01*
G03X276870Y-131741I-1657J1657*
G01*
X272744Y-127616D01*
G75*
D01*
G03X269429Y-127616I-1657J-1656*
G01*
X267837Y-129207D01*
G75*
D01*
G03X267175Y-131204I1657J-1658*
G01*
X261030Y-137349D01*
G75*
D01*
G03X265293Y-141612I-388J-4651*
G01*
X248904Y-149071D02*
G75*
D01*
G03X248904Y-149071I4667J0*
G01*
X282873Y-155407D02*
X285765Y-153500D01*
X282873Y-151593D01*
G74*
D01*
G03X282739Y-152374I2209J781*
G01*
X282739Y-154625D01*
G75*
D01*
G03X282873Y-155407I2344J-1*
G01*
X242118Y-140099D02*
G75*
D01*
G03X242118Y-143901I2909J-1901*
G01*
X244019Y-142000D01*
X242118Y-140099D01*
X250882Y-143901D02*
G75*
D01*
G03X250882Y-140099I-2909J1901*
G01*
X248981Y-142000D01*
X250882Y-143901D01*
X244542Y-142000D02*
G75*
D01*
G03X244542Y-142000I1958J0*
G01*
X244599Y-146382D02*
G75*
D01*
G03X248401Y-146382I1901J2909*
G01*
X246500Y-144481D01*
X244599Y-146382D01*
X233049Y-133734D02*
X234266Y-134951D01*
X234266Y-133734D01*
X233049Y-133734D01*
X241241Y-133734D02*
X237956Y-133734D01*
X237956Y-137019D01*
G74*
D01*
G03X239035Y-136405I578J2271*
G01*
X240627Y-134814D01*
G74*
D01*
G03X241241Y-133734I1658J1657*
G01*
X253474Y-130263D02*
G75*
D01*
G03X258164Y-134099I97J-4666*
G01*
X263819Y-128445D01*
G75*
D01*
G03X266793Y-128163I1316J1939*
G01*
X268384Y-126571D01*
G75*
D01*
G03X268384Y-123256I-1657J1657*
G01*
X264259Y-119130D01*
G75*
D01*
G03X260944Y-119130I-1657J-1657*
G01*
X259352Y-120722D01*
G75*
D01*
G03X259352Y-124037I1657J-1658*
G01*
X259526Y-124211D01*
X253474Y-130263D01*
X248401Y-137618D02*
G75*
D01*
G03X244599Y-137618I-1901J-2909*
G01*
X246500Y-139519D01*
X248401Y-137618D01*
X236345Y-113082D02*
G75*
D01*
G03X232082Y-117345I-3344J-919*
G01*
X240868Y-126132D01*
G74*
D01*
G03X241466Y-126595I2130J2134*
G01*
X243498Y-128627D01*
G75*
D01*
G03X246814Y-128627I1658J1657*
G01*
X248405Y-127035D01*
G75*
D01*
G03X248405Y-123720I-1656J1657*
G01*
X244280Y-119595D01*
G75*
D01*
G03X242208Y-118945I-1658J-1657*
G01*
X236345Y-113082D01*
X234266Y-126759D02*
G74*
D01*
G03X233186Y-127373I577J2272*
G01*
X231595Y-128965D01*
G74*
D01*
G03X230981Y-130044I1657J1657*
G01*
X234266Y-130044D01*
X234266Y-126759D01*
X239173Y-130044D02*
X237956Y-128827D01*
X237956Y-130044D01*
X239173Y-130044D01*
X277070Y-126198D02*
X278287Y-127416D01*
X278287Y-126198D01*
X277070Y-126198D01*
X278287Y-119223D02*
G74*
D01*
G03X277207Y-119837I577J2272*
G01*
X275616Y-121429D01*
G74*
D01*
G03X275001Y-122509I1657J1658*
G01*
X278287Y-122509D01*
X278287Y-119223D01*
X268584Y-117713D02*
X269802Y-118930D01*
X269802Y-117713D01*
X268584Y-117713D01*
X276777Y-117713D02*
X273491Y-117713D01*
X273491Y-120999D01*
G74*
D01*
G03X274571Y-120384I578J2272*
G01*
X276163Y-118793D01*
G74*
D01*
G03X276777Y-117713I1658J1657*
G01*
X283194Y-122509D02*
X281977Y-121291D01*
X281977Y-122509D01*
X283194Y-122509D01*
X269802Y-110738D02*
G74*
D01*
G03X268722Y-111352I577J2272*
G01*
X267130Y-112944D01*
G74*
D01*
G03X266516Y-114023I1658J1657*
G01*
X269802Y-114023D01*
X269802Y-110738D01*
X295618Y-160724D02*
X299372Y-156970D01*
X302917Y-156970D01*
G75*
D01*
G03X305261Y-154625I-1J2345*
G01*
X305261Y-152374D01*
G74*
D01*
G03X302917Y-150030I2344J0*
G01*
X297083Y-150030D01*
G75*
D01*
G03X294739Y-152374I0J-2344*
G01*
X294739Y-154625D01*
G75*
D01*
G03X294985Y-155672I2344J-2*
G01*
X291579Y-159079D01*
G74*
D01*
G03X291021Y-160152I1421J1420*
G01*
G75*
D01*
G03X295618Y-160724I1980J-2847*
G01*
X293127Y-155407D02*
G75*
D01*
G03X293261Y-154625I-2210J781*
G01*
X293261Y-152374D01*
G74*
D01*
G03X293127Y-151593I2344J0*
G01*
X290235Y-153500D01*
X293127Y-155407D01*
X359441Y-146429D02*
G75*
D01*
G03X360948Y-144921I-1J1508*
G01*
X360948Y-144693D01*
X358426Y-144693D01*
X358426Y-146429D01*
X359441Y-146429D01*
X353997Y-144921D02*
G75*
D01*
G03X355504Y-146429I1507J-1*
G01*
X356519Y-146429D01*
X356519Y-144693D01*
X353997Y-144693D01*
X353997Y-144921D01*
X325997Y-144921D02*
G75*
D01*
G03X327504Y-146429I1507J-1*
G01*
X328519Y-146429D01*
X328519Y-144693D01*
X325997Y-144693D01*
X325997Y-144921D01*
X325997Y-142559D02*
X325997Y-142787D01*
X328519Y-142787D01*
X328519Y-141052D01*
X327504Y-141052D01*
G75*
D01*
G03X325997Y-142559I0J-1507*
G01*
X331441Y-146429D02*
G75*
D01*
G03X332948Y-144921I-1J1508*
G01*
X332948Y-144693D01*
X330426Y-144693D01*
X330426Y-146429D01*
X331441Y-146429D01*
X332948Y-142559D02*
G74*
D01*
G03X331441Y-141052I1507J0*
G01*
X330426Y-141052D01*
X330426Y-142787D01*
X332948Y-142787D01*
X332948Y-142559D01*
X440000Y20500D02*
G75*
D01*
G03X440000Y20500I11500J0*
G01*
X405333Y10000D02*
G75*
D01*
G03X405333Y10000I4667J0*
G01*
X405483Y1042D02*
X405483Y-1041D01*
G75*
D01*
G03X408959Y-4517I3476J0*
G01*
X411042Y-4517D01*
G75*
D01*
G03X414517Y-1041I-1J3476*
G01*
X414517Y1042D01*
G74*
D01*
G03X411042Y4517I3475J0*
G01*
X408959Y4517D01*
G75*
D01*
G03X405483Y1042I-1J-3475*
G01*
X415333Y0D02*
G75*
D01*
G03X415333Y0I4667J0*
G01*
X400827Y-123010D02*
X406168Y-123010D01*
X426777Y-143619D01*
X426777Y-147501D01*
G74*
D01*
G03X425373Y-148531I2010J4212*
G01*
X421764Y-144922D01*
X422405Y-144280D01*
G75*
D01*
G03X422405Y-140965I-1657J1657*
G01*
X420814Y-139373D01*
G75*
D01*
G03X417498Y-139373I-1658J-1657*
G01*
X413373Y-143498D01*
G75*
D01*
G03X412870Y-146066I1657J-1658*
G01*
X409419Y-149517D01*
G75*
D01*
G03X407714Y-149817I-639J-1366*
G01*
X403817Y-153714D01*
G75*
D01*
G03X403817Y-155846I1065J-1066*
G01*
X406601Y-158630D01*
G75*
D01*
G03X408732Y-158630I1066J1066*
G01*
X412630Y-154732D01*
G75*
D01*
G03X412630Y-152601I-1064J1065*
G01*
X412325Y-152296D01*
X415712Y-148908D01*
G75*
D01*
G03X418280Y-148405I910J2159*
G01*
X418922Y-147764D01*
X424292Y-153134D01*
G74*
D01*
G03X424364Y-153202I1415J1426*
G01*
G75*
D01*
G03X430796Y-147501I4422J1490*
G01*
X430796Y-142787D01*
G74*
D01*
G03X430205Y-141363I2009J1*
G01*
X408423Y-119581D01*
G74*
D01*
G03X407000Y-118990I1423J1418*
G01*
X400827Y-118990D01*
G75*
D01*
G03X400827Y-123010I-2826J-2010*
G01*
X427223Y-167786D02*
G74*
D01*
G03X428647Y-167195I1J2009*
G01*
X444348Y-151494D01*
G75*
D01*
G03X444939Y-150071I-1418J1423*
G01*
X444939Y-141783D01*
G75*
D01*
G03X440919Y-141783I-2010J4212*
G01*
X440919Y-149239D01*
X426391Y-163767D01*
X423796Y-163767D01*
X421399Y-161370D01*
G75*
D01*
G03X419268Y-161370I-1065J-1066*
G01*
X415370Y-165268D01*
G75*
D01*
G03X415370Y-167399I1064J-1066*
G01*
X418154Y-170183D01*
G75*
D01*
G03X420286Y-170183I1066J1065*
G01*
X422682Y-167786D01*
X427223Y-167786D01*
X384873Y-155407D02*
X387765Y-153500D01*
X384873Y-151593D01*
G74*
D01*
G03X384739Y-152374I2209J781*
G01*
X384739Y-154625D01*
G75*
D01*
G03X384873Y-155407I2344J-1*
G01*
X395127Y-155407D02*
G75*
D01*
G03X395261Y-154625I-2210J781*
G01*
X395261Y-152374D01*
G74*
D01*
G03X395127Y-151593I2344J0*
G01*
X392235Y-153500D01*
X395127Y-155407D01*
X393023Y-150033D02*
G74*
D01*
G03X392917Y-150030I119J2340*
G01*
X387083Y-150030D01*
G75*
D01*
G03X386977Y-150033I13J-2344*
G01*
X390000Y-152026D01*
X393023Y-150033D01*
X386977Y-156967D02*
G75*
D01*
G03X387083Y-156970I119J2341*
G01*
X392917Y-156970D01*
G74*
D01*
G03X393023Y-156967I13J2345*
G01*
X390000Y-154974D01*
X386977Y-156967D01*
X408266Y-133049D02*
X407049Y-134266D01*
X408266Y-134266D01*
X408266Y-133049D01*
X404981Y-137956D02*
G74*
D01*
G03X405595Y-139035I2271J578*
G01*
X407186Y-140627D01*
G74*
D01*
G03X408266Y-141241I1657J1658*
G01*
X408266Y-137956D01*
X404981Y-137956D01*
X411956Y-130981D02*
X411956Y-134266D01*
X415241Y-134266D01*
G74*
D01*
G03X414627Y-133186I2272J577*
G01*
X413035Y-131595D01*
G74*
D01*
G03X411956Y-130981I1657J1657*
G01*
X411956Y-139173D02*
X413173Y-137956D01*
X411956Y-137956D01*
X411956Y-139173D01*
X448099Y-134882D02*
G75*
D01*
G03X451901Y-134882I1901J2909*
G01*
X450000Y-132981D01*
X448099Y-134882D01*
X451901Y-126118D02*
G75*
D01*
G03X448099Y-126118I-1901J-2909*
G01*
X450000Y-128019D01*
X451901Y-126118D01*
X448041Y-130500D02*
G75*
D01*
G03X448041Y-130500I1959J0*
G01*
X445618Y-128599D02*
G75*
D01*
G03X445618Y-132401I2909J-1901*
G01*
X447519Y-130500D01*
X445618Y-128599D01*
X454382Y-132401D02*
G75*
D01*
G03X454382Y-128599I-2909J1901*
G01*
X452481Y-130500D01*
X454382Y-132401D01*
X448873Y-88407D02*
X451765Y-86500D01*
X448873Y-84593D01*
G74*
D01*
G03X448739Y-85374I2209J781*
G01*
X448739Y-87625D01*
G75*
D01*
G03X448873Y-88407I2344J-1*
G01*
X450977Y-89967D02*
G75*
D01*
G03X451083Y-89970I119J2341*
G01*
X456917Y-89970D01*
G74*
D01*
G03X457023Y-89967I13J2345*
G01*
X454000Y-87974D01*
X450977Y-89967D01*
X459127Y-88407D02*
G75*
D01*
G03X459261Y-87625I-2210J781*
G01*
X459261Y-85374D01*
G74*
D01*
G03X459127Y-84593I2344J0*
G01*
X456235Y-86500D01*
X459127Y-88407D01*
X457023Y-83033D02*
G74*
D01*
G03X456917Y-83030I119J2340*
G01*
X451083Y-83030D01*
G75*
D01*
G03X450977Y-83033I13J-2344*
G01*
X454000Y-85026D01*
X457023Y-83033D01*
X447127Y-88407D02*
G75*
D01*
G03X447261Y-87625I-2210J781*
G01*
X447261Y-85374D01*
G74*
D01*
G03X447127Y-84593I2344J0*
G01*
X444235Y-86500D01*
X447127Y-88407D01*
X438977Y-89967D02*
G75*
D01*
G03X439083Y-89970I119J2341*
G01*
X444917Y-89970D01*
G74*
D01*
G03X445023Y-89967I13J2345*
G01*
X442000Y-87974D01*
X438977Y-89967D01*
X436873Y-88407D02*
X439765Y-86500D01*
X436873Y-84593D01*
G74*
D01*
G03X436739Y-85374I2209J781*
G01*
X436739Y-87625D01*
G75*
D01*
G03X436873Y-88407I2344J-1*
G01*
X445023Y-83033D02*
G74*
D01*
G03X444917Y-83030I119J2340*
G01*
X439083Y-83030D01*
G75*
D01*
G03X438977Y-83033I13J-2344*
G01*
X442000Y-85026D01*
X445023Y-83033D01*
X381095Y-53586D02*
X382276Y-53586D01*
G74*
D01*
G03X382669Y-53534I1J1507*
G01*
G75*
D01*
G03X383063Y-53586I392J1455*
G01*
X383612Y-53586D01*
X383612Y-56046D01*
X382223Y-57435D01*
X362079Y-77579D01*
G75*
D01*
G03X361490Y-79005I1420J-1421*
G01*
X361490Y-83606D01*
G75*
D01*
G03X365510Y-82877I2510J-2393*
G01*
X365510Y-79832D01*
X381991Y-63351D01*
X381991Y-63351D01*
X386914Y-58428D01*
X386914Y-58905D01*
G75*
D01*
G03X386966Y-59299I1507J-2*
G01*
G74*
D01*
G03X386914Y-59693I1455J392*
G01*
X386914Y-60874D01*
G75*
D01*
G03X386966Y-61268I1507J-2*
G01*
G74*
D01*
G03X386914Y-61661I1455J392*
G01*
X386914Y-62843D01*
G75*
D01*
G03X386966Y-63236I1507J-1*
G01*
G74*
D01*
G03X386914Y-63630I1455J392*
G01*
X386914Y-64811D01*
G75*
D01*
G03X386966Y-65205I1507J-2*
G01*
G74*
D01*
G03X386914Y-65598I1455J392*
G01*
X386914Y-66780D01*
G75*
D01*
G03X386966Y-67173I1507J-1*
G01*
G74*
D01*
G03X386914Y-67567I1455J392*
G01*
X386914Y-68748D01*
G75*
D01*
G03X386966Y-69142I1507J-2*
G01*
G74*
D01*
G03X386914Y-69535I1455J392*
G01*
X386914Y-70717D01*
G75*
D01*
G03X386966Y-71110I1507J-1*
G01*
G74*
D01*
G03X386914Y-71504I1455J392*
G01*
X386914Y-72685D01*
G75*
D01*
G03X386966Y-73079I1507J-2*
G01*
G74*
D01*
G03X386914Y-73472I1455J392*
G01*
X386914Y-74654D01*
G75*
D01*
G03X386966Y-75047I1507J-1*
G01*
G74*
D01*
G03X386922Y-75288I1456J390*
G01*
X387054Y-75288D01*
G74*
D01*
G03X387725Y-75990I1366J634*
G01*
X381318Y-75990D01*
G75*
D01*
G03X379724Y-80010I-3317J-1011*
G01*
X386914Y-80010D01*
X386914Y-80559D01*
G75*
D01*
G03X386966Y-80953I1507J-2*
G01*
G74*
D01*
G03X386914Y-81346I1455J392*
G01*
X386914Y-82528D01*
G75*
D01*
G03X386966Y-82921I1507J-1*
G01*
G74*
D01*
G03X386914Y-83315I1455J392*
G01*
X386914Y-84496D01*
G75*
D01*
G03X386966Y-84890I1507J-2*
G01*
G74*
D01*
G03X386914Y-85283I1455J392*
G01*
X386914Y-86465D01*
G75*
D01*
G03X386966Y-86858I1507J-1*
G01*
G74*
D01*
G03X386914Y-87252I1455J392*
G01*
X386914Y-88433D01*
G75*
D01*
G03X386966Y-88827I1507J-2*
G01*
G74*
D01*
G03X386914Y-89220I1455J392*
G01*
X386914Y-90402D01*
G75*
D01*
G03X386966Y-90795I1507J-1*
G01*
G74*
D01*
G03X386914Y-91189I1455J392*
G01*
X386914Y-92370D01*
G75*
D01*
G03X386966Y-92764I1507J-2*
G01*
G74*
D01*
G03X386914Y-93157I1455J392*
G01*
X386914Y-94339D01*
G75*
D01*
G03X386966Y-94732I1507J-1*
G01*
G74*
D01*
G03X386914Y-95126I1455J392*
G01*
X386914Y-96307D01*
G75*
D01*
G03X386966Y-96701I1507J-2*
G01*
G74*
D01*
G03X386914Y-97095I1455J392*
G01*
X386914Y-98276D01*
G75*
D01*
G03X386966Y-98669I1507J-1*
G01*
G74*
D01*
G03X386914Y-99063I1455J392*
G01*
X386914Y-100244D01*
G75*
D01*
G03X386966Y-100638I1507J-2*
G01*
G74*
D01*
G03X386914Y-101032I1455J392*
G01*
X386914Y-102213D01*
G75*
D01*
G03X388421Y-103720I1507J0*
G01*
X398421Y-103720D01*
G74*
D01*
G03X398929Y-103632I1J1507*
G01*
X406790Y-103632D01*
X408580Y-105422D01*
G75*
D01*
G03X411422Y-102580I3420J-578*
G01*
X411222Y-102380D01*
G75*
D01*
G03X408808Y-97644I778J3380*
G01*
X405698Y-97644D01*
X411332Y-92010D01*
X422173Y-92010D01*
G75*
D01*
G03X426804Y-87038I2825J2011*
G01*
X430422Y-83420D01*
G75*
D01*
G03X433414Y-77510I579J3419*
G01*
X437893Y-77510D01*
G75*
D01*
G03X438573Y-73490I3106J1542*
G01*
X427352Y-73490D01*
X429332Y-71510D01*
X447877Y-71510D01*
G75*
D01*
G03X448606Y-67490I3122J1510*
G01*
X428852Y-67490D01*
X430832Y-65510D01*
X455877Y-65510D01*
G75*
D01*
G03X456606Y-61490I3122J1510*
G01*
X430002Y-61490D01*
G75*
D01*
G03X428579Y-62079I-1J-2010*
G01*
X412699Y-77959D01*
X399929Y-77959D01*
X399929Y-77409D01*
G74*
D01*
G03X399876Y-77016I1508J3*
G01*
G74*
D01*
G03X399921Y-76775I1454J396*
G01*
X399789Y-76775D01*
G74*
D01*
G03X399118Y-76073I1367J635*
G01*
X401937Y-76073D01*
G74*
D01*
G03X403360Y-75482I1J2010*
G01*
X408419Y-70423D01*
G75*
D01*
G03X409010Y-69000I-1418J1423*
G01*
X409010Y-53832D01*
X417422Y-45420D01*
G75*
D01*
G03X414580Y-42578I578J3420*
G01*
X406010Y-51148D01*
X406010Y-47332D01*
X409876Y-43466D01*
G75*
D01*
G03X406674Y-40984I124J3466*
G01*
X402579Y-45079D01*
G75*
D01*
G03X401990Y-46504I1420J-1421*
G01*
X401990Y-68168D01*
X400073Y-70085D01*
X399929Y-70085D01*
X399929Y-69535D01*
G74*
D01*
G03X399876Y-69142I1508J3*
G01*
G75*
D01*
G03X399929Y-68748I-1454J396*
G01*
X399929Y-67567D01*
G74*
D01*
G03X399876Y-67173I1508J2*
G01*
G75*
D01*
G03X399929Y-66780I-1454J396*
G01*
X399929Y-65598D01*
G74*
D01*
G03X399876Y-65205I1508J3*
G01*
G75*
D01*
G03X399929Y-64811I-1454J396*
G01*
X399929Y-63630D01*
G74*
D01*
G03X399876Y-63236I1508J2*
G01*
G75*
D01*
G03X399929Y-62843I-1454J396*
G01*
X399929Y-61661D01*
G74*
D01*
G03X399876Y-61268I1508J3*
G01*
G75*
D01*
G03X399929Y-60874I-1454J396*
G01*
X399929Y-59693D01*
G74*
D01*
G03X399876Y-59299I1508J2*
G01*
G75*
D01*
G03X399929Y-58905I-1454J396*
G01*
X399929Y-57724D01*
G74*
D01*
G03X399876Y-57331I1508J3*
G01*
G75*
D01*
G03X399929Y-56937I-1454J396*
G01*
X399929Y-55756D01*
G74*
D01*
G03X399876Y-55362I1508J2*
G01*
G75*
D01*
G03X399929Y-54968I-1454J396*
G01*
X399929Y-53787D01*
G74*
D01*
G03X398421Y-52280I1508J1*
G01*
X388421Y-52280D01*
G75*
D01*
G03X387664Y-52484I0J-1507*
G01*
G75*
D01*
G03X387720Y-52079I-1450J407*
G01*
X387720Y-42079D01*
G74*
D01*
G03X387632Y-41571I1507J1*
G01*
X387632Y-37034D01*
G75*
D01*
G03X388970Y-34917I-1005J2117*
G01*
X388970Y-29083D01*
G74*
D01*
G03X387510Y-26912I2344J0*
G01*
X387510Y-25088D01*
G75*
D01*
G03X388970Y-22917I-884J2171*
G01*
X388970Y-17083D01*
G74*
D01*
G03X386626Y-14739I2344J0*
G01*
X384375Y-14739D01*
G75*
D01*
G03X382030Y-17083I-1J-2344*
G01*
X382030Y-22917D01*
G75*
D01*
G03X383490Y-25088I2345J1*
G01*
X383490Y-26912D01*
G74*
D01*
G03X382030Y-29083I884J2171*
G01*
X382030Y-34917D01*
G75*
D01*
G03X383612Y-37134I2345J0*
G01*
X383612Y-40571D01*
X383063Y-40571D01*
G75*
D01*
G03X382669Y-40624I2J-1508*
G01*
G74*
D01*
G03X382276Y-40571I396J1454*
G01*
X381095Y-40571D01*
G75*
D01*
G03X380701Y-40624I2J-1508*
G01*
G74*
D01*
G03X380307Y-40571I396J1454*
G01*
X379126Y-40571D01*
G75*
D01*
G03X378732Y-40624I2J-1508*
G01*
G74*
D01*
G03X378339Y-40571I396J1454*
G01*
X377158Y-40571D01*
G75*
D01*
G03X376764Y-40624I2J-1508*
G01*
G74*
D01*
G03X376370Y-40571I396J1454*
G01*
X375189Y-40571D01*
G75*
D01*
G03X374795Y-40624I2J-1508*
G01*
G74*
D01*
G03X374402Y-40571I396J1454*
G01*
X373220Y-40571D01*
G75*
D01*
G03X372827Y-40624I3J-1508*
G01*
G74*
D01*
G03X372433Y-40571I396J1454*
G01*
X371252Y-40571D01*
G75*
D01*
G03X370858Y-40624I2J-1508*
G01*
G74*
D01*
G03X370465Y-40571I396J1454*
G01*
X369283Y-40571D01*
G75*
D01*
G03X368890Y-40624I3J-1508*
G01*
G74*
D01*
G03X368496Y-40571I396J1454*
G01*
X367315Y-40571D01*
G75*
D01*
G03X366921Y-40624I2J-1508*
G01*
G74*
D01*
G03X366528Y-40571I396J1454*
G01*
X365346Y-40571D01*
G75*
D01*
G03X364953Y-40624I3J-1508*
G01*
G74*
D01*
G03X364712Y-40579I396J1454*
G01*
X364712Y-40711D01*
G74*
D01*
G03X363969Y-41468I635J1367*
G01*
G74*
D01*
G03X363225Y-40711I1378J610*
G01*
X363225Y-40579D01*
G74*
D01*
G03X362984Y-40624I155J1499*
G01*
G74*
D01*
G03X362591Y-40571I396J1454*
G01*
X361409Y-40571D01*
G75*
D01*
G03X361016Y-40624I3J-1508*
G01*
G74*
D01*
G03X360775Y-40579I396J1454*
G01*
X360775Y-40711D01*
G74*
D01*
G03X360031Y-41468I634J1367*
G01*
G74*
D01*
G03X359288Y-40711I1377J609*
G01*
X359288Y-40579D01*
G74*
D01*
G03X359047Y-40624I155J1499*
G01*
G74*
D01*
G03X358654Y-40571I396J1454*
G01*
X358510Y-40571D01*
X358510Y-35332D01*
X359422Y-34420D01*
G75*
D01*
G03X358510Y-27868I577J3420*
G01*
X358510Y-22625D01*
X366126Y-15009D01*
X366126Y-15009D01*
X378625Y-2510D01*
X382739Y-2510D01*
X382739Y-2625D01*
G75*
D01*
G03X385083Y-4970I2344J-1*
G01*
X390917Y-4970D01*
G75*
D01*
G03X393261Y-2625I-1J2345*
G01*
X393261Y-374D01*
G74*
D01*
G03X390917Y1970I2344J0*
G01*
X385083Y1970D01*
G75*
D01*
G03X383688Y1510I0J-2344*
G01*
X382645Y1510D01*
X387165Y6030D01*
X390917Y6030D01*
G75*
D01*
G03X393261Y8375I-1J2345*
G01*
X393261Y10626D01*
G74*
D01*
G03X392942Y11807I2344J0*
G01*
X416396Y35261D01*
X417990Y33668D01*
X417990Y14212D01*
G75*
D01*
G03X422010Y14212I2010J-4212*
G01*
X422010Y34500D01*
G74*
D01*
G03X421419Y35923I2010J1*
G01*
X419239Y38104D01*
X443813Y62678D01*
G75*
D01*
G02X198217Y-76500I-97814J-113676*
G01*
X212816Y-76500D01*
X218739Y-82423D01*
X218739Y-83625D01*
G75*
D01*
G03X221083Y-85970I2344J-1*
G01*
X221971Y-85970D01*
G75*
D01*
G03X226029Y-85970I2029J3469*
G01*
X226917Y-85970D01*
G75*
D01*
G03X229261Y-83625I-1J2345*
G01*
X229261Y-81374D01*
G74*
D01*
G03X226917Y-79030I2344J0*
G01*
X226714Y-79030D01*
X224184Y-76500D01*
X237000Y-76500D01*
X237000Y-77207D01*
X237293Y-77500D01*
X237707Y-77500D01*
X238000Y-77207D01*
X238000Y-76500D01*
X277757Y-76500D01*
G75*
D01*
G03X279500Y-77510I1743J999*
G01*
X297148Y-77510D01*
X296628Y-78030D01*
X293083Y-78030D01*
G75*
D01*
G03X291695Y-78485I0J-2344*
G01*
X288305Y-78485D01*
G74*
D01*
G03X286917Y-78030I1388J1889*
G01*
X281083Y-78030D01*
G75*
D01*
G03X279695Y-78485I0J-2344*
G01*
X274500Y-78485D01*
G75*
D01*
G03X274261Y-78495I6J-3015*
G01*
G74*
D01*
G03X273975Y-78532I243J3004*
G01*
G74*
D01*
G03X270532Y-81975I25J3468*
G01*
G75*
D01*
G03X274025Y-85468I2968J-525*
G01*
G74*
D01*
G03X276389Y-84515I24J3468*
G01*
X279695Y-84515D01*
G75*
D01*
G03X281083Y-84970I1388J1889*
G01*
X286917Y-84970D01*
G74*
D01*
G03X288305Y-84515I0J2345*
G01*
X291695Y-84515D01*
G75*
D01*
G03X293083Y-84970I1388J1889*
G01*
X298917Y-84970D01*
G74*
D01*
G03X300854Y-83947I0J2345*
G01*
X324071Y-83947D01*
X324071Y-84496D01*
G75*
D01*
G03X324124Y-84890I1508J2*
G01*
G74*
D01*
G03X324071Y-85283I1454J396*
G01*
X324071Y-86465D01*
G75*
D01*
G03X324124Y-86858I1508J3*
G01*
G74*
D01*
G03X324071Y-87252I1454J396*
G01*
X324071Y-88433D01*
G75*
D01*
G03X324124Y-88827I1508J2*
G01*
G74*
D01*
G03X324071Y-89220I1454J396*
G01*
X324071Y-90402D01*
G75*
D01*
G03X324124Y-90795I1508J3*
G01*
G74*
D01*
G03X324071Y-91189I1454J396*
G01*
X324071Y-92370D01*
G75*
D01*
G03X324124Y-92764I1508J2*
G01*
G74*
D01*
G03X324071Y-93157I1454J396*
G01*
X324071Y-94339D01*
G75*
D01*
G03X324124Y-94732I1508J3*
G01*
G74*
D01*
G03X324071Y-95126I1454J396*
G01*
X324071Y-96307D01*
G75*
D01*
G03X324124Y-96701I1508J2*
G01*
G74*
D01*
G03X324071Y-97095I1454J396*
G01*
X324071Y-98276D01*
G75*
D01*
G03X324124Y-98669I1508J3*
G01*
G74*
D01*
G03X324071Y-99063I1454J396*
G01*
X324071Y-100244D01*
G75*
D01*
G03X324124Y-100638I1508J2*
G01*
G74*
D01*
G03X324079Y-100878I1454J397*
G01*
X324211Y-100878D01*
G75*
D01*
G03X325579Y-101751I1367J634*
G01*
X335579Y-101751D01*
G74*
D01*
G03X336946Y-100878I0J1507*
G01*
X337078Y-100878D01*
G74*
D01*
G03X337034Y-100638I1498J151*
G01*
G75*
D01*
G03X337086Y-100244I-1455J392*
G01*
X337086Y-99063D01*
G74*
D01*
G03X337034Y-98669I1507J2*
G01*
G75*
D01*
G03X337086Y-98276I-1455J392*
G01*
X337086Y-97095D01*
G74*
D01*
G03X337034Y-96701I1507J2*
G01*
G75*
D01*
G03X337086Y-96307I-1455J392*
G01*
X337086Y-95126D01*
G74*
D01*
G03X337034Y-94732I1507J2*
G01*
G75*
D01*
G03X337086Y-94339I-1455J392*
G01*
X337086Y-93157D01*
G74*
D01*
G03X337034Y-92764I1507J1*
G01*
G75*
D01*
G03X337086Y-92370I-1455J392*
G01*
X337086Y-91189D01*
G74*
D01*
G03X337034Y-90795I1507J2*
G01*
G75*
D01*
G03X337086Y-90402I-1455J392*
G01*
X337086Y-89220D01*
G74*
D01*
G03X337034Y-88827I1507J1*
G01*
G75*
D01*
G03X337086Y-88433I-1455J392*
G01*
X337086Y-87252D01*
G74*
D01*
G03X337034Y-86858I1507J2*
G01*
G75*
D01*
G03X337086Y-86465I-1455J392*
G01*
X337086Y-85283D01*
G74*
D01*
G03X337034Y-84890I1507J1*
G01*
G75*
D01*
G03X337086Y-84496I-1455J392*
G01*
X337086Y-83315D01*
G74*
D01*
G03X337034Y-82921I1507J2*
G01*
G75*
D01*
G03X337086Y-82528I-1455J392*
G01*
X337086Y-81346D01*
G74*
D01*
G03X337034Y-80953I1507J1*
G01*
G75*
D01*
G03X337086Y-80559I-1455J392*
G01*
X337086Y-80010D01*
X344499Y-80010D01*
G75*
D01*
G03X344501Y-80010I1J2010*
G01*
X345668Y-80010D01*
X348990Y-83332D01*
X348990Y-91173D01*
G75*
D01*
G03X353010Y-91173I2010J-2826*
G01*
X353010Y-82500D01*
G74*
D01*
G03X352419Y-81077I2010J1*
G01*
X348342Y-77000D01*
X359482Y-65860D01*
G75*
D01*
G03X360073Y-64437I-1418J1423*
G01*
X360073Y-52775D01*
G74*
D01*
G03X360775Y-53446I1336J695*
G01*
X360775Y-53578D01*
G74*
D01*
G03X361016Y-53534I149J1499*
G01*
G75*
D01*
G03X361409Y-53586I392J1455*
G01*
X362591Y-53586D01*
G74*
D01*
G03X362984Y-53534I1J1507*
G01*
G74*
D01*
G03X363225Y-53578I390J1456*
G01*
X363225Y-53446D01*
G74*
D01*
G03X363969Y-52690I633J1367*
G01*
G74*
D01*
G03X364712Y-53446I1377J610*
G01*
X364712Y-53578D01*
G74*
D01*
G03X364953Y-53534I149J1499*
G01*
G75*
D01*
G03X365346Y-53586I392J1455*
G01*
X366528Y-53586D01*
G74*
D01*
G03X366921Y-53534I1J1507*
G01*
G75*
D01*
G03X367315Y-53586I392J1455*
G01*
X368496Y-53586D01*
G74*
D01*
G03X368890Y-53534I2J1507*
G01*
G75*
D01*
G03X369283Y-53586I392J1455*
G01*
X369833Y-53586D01*
X369833Y-57734D01*
G75*
D01*
G03X373852Y-59026I1167J-3266*
G01*
X373852Y-53586D01*
X374402Y-53586D01*
G74*
D01*
G03X374795Y-53534I1J1507*
G01*
G75*
D01*
G03X375189Y-53586I392J1455*
G01*
X376370Y-53586D01*
G74*
D01*
G03X376764Y-53534I2J1507*
G01*
G75*
D01*
G03X377158Y-53586I392J1455*
G01*
X378339Y-53586D01*
G74*
D01*
G03X378732Y-53534I1J1507*
G01*
G75*
D01*
G03X379126Y-53586I392J1455*
G01*
X380307Y-53586D01*
G74*
D01*
G03X380701Y-53534I2J1507*
G01*
G75*
D01*
G03X381095Y-53586I392J1455*
G01*
X301015Y-79328D02*
X302301Y-78041D01*
X324071Y-78041D01*
X324071Y-78591D01*
G75*
D01*
G03X324124Y-78984I1508J3*
G01*
G74*
D01*
G03X324071Y-79378I1454J396*
G01*
X324071Y-79927D01*
X301218Y-79927D01*
G74*
D01*
G03X301015Y-79328I2301J446*
G01*
X253209Y-32502D02*
X253209Y-32000D01*
X252707Y-32000D01*
X253209Y-32502D01*
X390739Y80626D02*
G75*
D01*
G02X393083Y82970I2344J0*
G01*
X398917Y82970D01*
G74*
D01*
G02X401089Y81508I0J2344*
G01*
G74*
D01*
G02X401123Y81506I101J2006*
G01*
G74*
D01*
G02X402423Y80919I123J2005*
G01*
X403863Y79479D01*
X403863Y79479D01*
X413919Y69423D01*
G74*
D01*
G02X414510Y68000I1418J1423*
G01*
X414510Y56212D01*
G75*
D01*
G02X410490Y56212I-2010J-4212*
G01*
X410490Y67168D01*
X400748Y76910D01*
G74*
D01*
G02X398917Y76030I1831J1464*
G01*
X393083Y76030D01*
G75*
D01*
G02X390739Y78375I1J2345*
G01*
X390739Y80626D01*
X318903Y-15009D02*
G75*
D01*
G02X318903Y-15009I3097J-3491*
G01*
X289127Y-68593D02*
G74*
D01*
G02X289261Y-69374I2209J781*
G01*
X289261Y-71625D01*
G75*
D01*
G02X289127Y-72407I-2344J-1*
G01*
X287503Y-71336D01*
X287503Y-71336D01*
X286235Y-70500D01*
X287503Y-69664D01*
X287503Y-69664D01*
X289127Y-68593D01*
X337990Y-9196D02*
X337990Y-4970D01*
X337083Y-4970D01*
G75*
D01*
G02X334912Y-3510I1J2345*
G01*
X333088Y-3510D01*
G74*
D01*
G02X330917Y-4970I2171J884*
G01*
X325083Y-4970D01*
G75*
D01*
G02X322739Y-2625I1J2345*
G01*
X322739Y-374D01*
G75*
D01*
G02X325083Y1970I2344J0*
G01*
X330917Y1970D01*
G74*
D01*
G02X333088Y510I0J2344*
G01*
X334912Y510D01*
G75*
D01*
G02X337083Y1970I2171J-884*
G01*
X342917Y1970D01*
G74*
D01*
G02X345261Y-374I0J2344*
G01*
X345261Y-2625D01*
G75*
D01*
G02X342917Y-4970I-2344J-1*
G01*
X342010Y-4970D01*
X342010Y-9151D01*
G75*
D01*
G02X337990Y-9196I-1978J-2848*
G01*
X230030Y-13083D02*
G74*
D01*
G02X230033Y-12977I2345J13*
G01*
X231372Y-15009D01*
X231372Y-15009D01*
X232026Y-16000D01*
X230033Y-19023D01*
G75*
D01*
G02X230030Y-18917I2341J119*
G01*
X230030Y-13083D01*
X212868Y-10632D02*
G75*
D01*
G02X211985Y-8496I2132J2132*
G01*
X211985Y-7659D01*
G75*
D01*
G02X215000Y-981I3016J2658*
G01*
X222000Y-981D01*
G75*
D01*
G02X226010Y-5277I1J-4019*
G01*
G74*
D01*
G02X226017Y-5500I3510J222*
G01*
X226017Y-12500D01*
G75*
D01*
G02X225970Y-13074I-3517J-1*
G01*
G74*
D01*
G02X225970Y-13083I2344J5*
G01*
X225970Y-18917D01*
G75*
D01*
G02X223626Y-21261I-2344J0*
G01*
X221375Y-21261D01*
G75*
D01*
G02X219030Y-18917I-1J2344*
G01*
X219030Y-16793D01*
X217246Y-15009D01*
X217246Y-15009D01*
X212868Y-10632D01*
X236967Y-12977D02*
G74*
D01*
G02X236970Y-13083I2340J119*
G01*
X236970Y-18917D01*
G75*
D01*
G02X236967Y-19023I-2344J13*
G01*
X234974Y-16000D01*
X235628Y-15009D01*
X235628Y-15009D01*
X236967Y-12977D01*
X330912Y87510D02*
G75*
D01*
G02X333083Y88970I2171J-884*
G01*
X338917Y88970D01*
G74*
D01*
G02X341261Y86626I0J2344*
G01*
X341261Y84375D01*
G75*
D01*
G02X338917Y82030I-2344J-1*
G01*
X333083Y82030D01*
G75*
D01*
G02X330912Y83490I1J2345*
G01*
X329088Y83490D01*
G74*
D01*
G02X326917Y82030I2171J884*
G01*
X321083Y82030D01*
G75*
D01*
G02X318912Y83490I1J2345*
G01*
X317088Y83490D01*
G74*
D01*
G02X314917Y82030I2171J884*
G01*
X309083Y82030D01*
G75*
D01*
G02X306739Y84375I1J2345*
G01*
X306739Y86626D01*
G75*
D01*
G02X309083Y88970I2344J0*
G01*
X314917Y88970D01*
G74*
D01*
G02X317088Y87510I0J2344*
G01*
X318912Y87510D01*
G75*
D01*
G02X321083Y88970I2171J-884*
G01*
X326917Y88970D01*
G74*
D01*
G02X329088Y87510I0J2344*
G01*
X330912Y87510D01*
X290873Y-72407D02*
G75*
D01*
G02X290739Y-71625I2210J781*
G01*
X290739Y-69374D01*
G74*
D01*
G02X290873Y-68593I2344J0*
G01*
X293765Y-70500D01*
X290873Y-72407D01*
X292977Y-73967D02*
X296000Y-71974D01*
X299023Y-73967D01*
G74*
D01*
G02X298917Y-73970I119J2341*
G01*
X293083Y-73970D01*
G75*
D01*
G02X292977Y-73967I13J2345*
G01*
X301127Y-72407D02*
X298235Y-70500D01*
X301127Y-68593D01*
G74*
D01*
G02X301261Y-69374I2209J781*
G01*
X301261Y-71625D01*
G75*
D01*
G02X301127Y-72407I-2344J-1*
G01*
X299023Y-67033D02*
X296000Y-69026D01*
X292977Y-67033D01*
G75*
D01*
G02X293083Y-67030I119J-2340*
G01*
X298917Y-67030D01*
G74*
D01*
G02X299023Y-67033I13J2344*
G01*
X231593Y-21127D02*
X233500Y-18235D01*
X235407Y-21127D01*
G74*
D01*
G02X234626Y-21261I781J2209*
G01*
X232375Y-21261D01*
G75*
D01*
G02X231593Y-21127I-1J2344*
G01*
X270791Y-31079D02*
X270791Y-31307D01*
X268071Y-31307D01*
X268071Y-29571D01*
X269283Y-29571D01*
G74*
D01*
G02X270791Y-31079I0J1508*
G01*
X264953Y-29571D02*
X266165Y-29571D01*
X266165Y-31307D01*
X263446Y-31307D01*
X263446Y-31079D01*
G75*
D01*
G02X264953Y-29571I1507J1*
G01*
X280977Y-73967D02*
X284000Y-71974D01*
X287023Y-73967D01*
G74*
D01*
G02X286917Y-73970I119J2341*
G01*
X281083Y-73970D01*
G75*
D01*
G02X280977Y-73967I13J2345*
G01*
X287023Y-67033D02*
X284000Y-69026D01*
X280977Y-67033D01*
G75*
D01*
G02X281083Y-67030I119J-2340*
G01*
X286917Y-67030D01*
G74*
D01*
G02X287023Y-67033I13J2344*
G01*
X271833Y65000D02*
G75*
D01*
G02X271833Y65000I5667J0*
G01*
X231593Y-10873D02*
G75*
D01*
G02X232375Y-10739I781J-2210*
G01*
X234626Y-10739D01*
G74*
D01*
G02X235407Y-10873I0J2344*
G01*
X233500Y-13765D01*
X231593Y-10873D01*
X230000Y20500D02*
G75*
D01*
G02X230000Y20500I11500J0*
G01*
X314873Y38593D02*
G75*
D01*
G02X314739Y39375I2210J781*
G01*
X314739Y41626D01*
G74*
D01*
G02X314873Y42407I2344J0*
G01*
X317765Y40500D01*
X314873Y38593D01*
X323023Y43967D02*
X320000Y41974D01*
X316977Y43967D01*
G75*
D01*
G02X317083Y43970I119J-2340*
G01*
X322917Y43970D01*
G74*
D01*
G02X323023Y43967I13J2344*
G01*
X325127Y38593D02*
X322235Y40500D01*
X325127Y42407D01*
G74*
D01*
G02X325261Y41626I2209J781*
G01*
X325261Y39375D01*
G75*
D01*
G02X325127Y38593I-2344J-1*
G01*
X316977Y37033D02*
X320000Y39026D01*
X323023Y37033D01*
G74*
D01*
G02X322917Y37030I119J2341*
G01*
X317083Y37030D01*
G75*
D01*
G02X316977Y37033I13J2345*
G01*
X357127Y11407D02*
G74*
D01*
G02X357261Y10626I2209J781*
G01*
X357261Y8375D01*
G75*
D01*
G02X357127Y7593I-2344J-1*
G01*
X354235Y9500D01*
X357127Y11407D01*
X348977Y6033D02*
X352000Y8026D01*
X355023Y6033D01*
G74*
D01*
G02X354917Y6030I119J2341*
G01*
X349083Y6030D01*
G75*
D01*
G02X348977Y6033I13J2345*
G01*
X346873Y11407D02*
X349765Y9500D01*
X346873Y7593D01*
G75*
D01*
G02X346739Y8375I2210J781*
G01*
X346739Y10626D01*
G74*
D01*
G02X346873Y11407I2344J0*
G01*
X355023Y12967D02*
X352000Y10974D01*
X348977Y12967D01*
G75*
D01*
G02X349083Y12970I119J-2340*
G01*
X354917Y12970D01*
G74*
D01*
G02X355023Y12967I13J2344*
G01*
X386917Y65030D02*
X381083Y65030D01*
G75*
D01*
G02X378739Y67375I1J2345*
G01*
X378739Y69626D01*
G74*
D01*
G02X378985Y70672I2344J1*
G01*
X377111Y72547D01*
G74*
D01*
G02X374917Y71030I2194J828*
G01*
X374010Y71030D01*
X374010Y64500D01*
G75*
D01*
G02X373419Y63077I-2010J1*
G01*
X363852Y53510D01*
X368912Y53510D01*
G75*
D01*
G02X371083Y54970I2171J-884*
G01*
X376917Y54970D01*
G74*
D01*
G02X379088Y53510I1J2345*
G01*
X380912Y53510D01*
G75*
D01*
G02X383083Y54970I2171J-884*
G01*
X388917Y54970D01*
G74*
D01*
G02X389119Y54961I3J2345*
G01*
X392580Y58422D01*
G75*
D01*
G02X395422Y55580I3420J578*
G01*
X391261Y51419D01*
X391261Y50375D01*
G75*
D01*
G02X388917Y48030I-2344J-1*
G01*
X383083Y48030D01*
G75*
D01*
G02X380912Y49490I1J2345*
G01*
X379088Y49490D01*
G74*
D01*
G02X376917Y48030I2171J884*
G01*
X371083Y48030D01*
G75*
D01*
G02X368912Y49490I1J2345*
G01*
X362868Y49490D01*
X352420Y39043D01*
X352563Y39043D01*
G74*
D01*
G02X353168Y38916I1J1508*
G01*
X356173Y41921D01*
G74*
D01*
G02X357092Y42446I1421J1420*
G01*
G75*
D01*
G02X357594Y42510I503J-1945*
G01*
X368912Y42510D01*
G75*
D01*
G02X371083Y43970I2171J-884*
G01*
X376917Y43970D01*
G74*
D01*
G02X379088Y42510I0J2344*
G01*
X380912Y42510D01*
G75*
D01*
G02X383083Y43970I2171J-884*
G01*
X387102Y43970D01*
G75*
D01*
G02X387500Y44010I399J-1969*
G01*
X393201Y44010D01*
G75*
D01*
G02X403799Y44010I5299J-2009*
G01*
X408121Y44010D01*
G75*
D01*
G02X411459Y46517I3337J-968*
G01*
X413541Y46517D01*
G74*
D01*
G02X417017Y43042I1J3475*
G01*
X417017Y40959D01*
G75*
D01*
G02X416967Y40375I-3476J3*
G01*
X417817Y39525D01*
X442276Y63983D01*
G75*
D01*
G03X197511Y-30000I-96276J-114983*
G01*
X199316Y-30000D01*
X200146Y-29170D01*
G75*
D01*
G02X202992Y-27992I2843J-2841*
G01*
X209551Y-27992D01*
G74*
D01*
G02X210938Y-28239I0J4020*
G01*
X215053Y-28239D01*
G74*
D01*
G02X216320Y-28934I0J1503*
G01*
X223402Y-28934D01*
G75*
D01*
G02X229985Y-27988I3649J-2014*
G01*
X241193Y-27988D01*
G75*
D01*
G02X243083Y-27030I1890J-1385*
G01*
X248917Y-27030D01*
G74*
D01*
G02X251261Y-29374I0J2344*
G01*
X251261Y-30000D01*
X253664Y-30000D01*
G75*
D01*
G02X254717Y-29571I1053J-1078*
G01*
X259047Y-29571D01*
G74*
D01*
G02X260307Y-30251I0J1508*
G01*
G74*
D01*
G02X261683Y-30841I47J2008*
G01*
X263419Y-32577D01*
G74*
D01*
G02X263849Y-33213I1419J1423*
G01*
X266165Y-33213D01*
X266165Y-34000D01*
X268071Y-34000D01*
X268071Y-33213D01*
X270791Y-33213D01*
X270791Y-33441D01*
G75*
D01*
G02X270683Y-34000I-1508J1*
G01*
X273707Y-34000D01*
X279500Y-39793D01*
X279500Y-69006D01*
X281765Y-70500D01*
X279500Y-71994D01*
X279500Y-75500D01*
X299158Y-75500D01*
X300047Y-74610D01*
G74*
D01*
G02X301105Y-74055I1420J1421*
G01*
G75*
D01*
G02X301469Y-74022I363J-1976*
G01*
X324882Y-74022D01*
G74*
D01*
G02X324211Y-73319I696J1336*
G01*
X324079Y-73319D01*
G74*
D01*
G02X324124Y-73079I1499J157*
G01*
G75*
D01*
G02X324071Y-72685I1454J396*
G01*
X324071Y-71504D01*
G74*
D01*
G02X324124Y-71110I1508J2*
G01*
G75*
D01*
G02X324071Y-70717I1454J396*
G01*
X324071Y-70167D01*
X318157Y-70167D01*
G75*
D01*
G02X317858Y-70145I-2J2010*
G01*
G74*
D01*
G02X316736Y-69579I299J1988*
G01*
X308579Y-61421D01*
G75*
D01*
G02X307990Y-59995I1420J1421*
G01*
X307990Y-52827D01*
G75*
D01*
G02X312010Y-52827I2010J2826*
G01*
X312010Y-59168D01*
X318990Y-66148D01*
X324071Y-66148D01*
X324071Y-65598D01*
G74*
D01*
G02X324124Y-65205I1508J3*
G01*
G75*
D01*
G02X324071Y-64811I1454J396*
G01*
X324071Y-63630D01*
G74*
D01*
G02X324124Y-63236I1508J2*
G01*
G75*
D01*
G02X324071Y-62843I1454J396*
G01*
X324071Y-62293D01*
X319283Y-62293D01*
G75*
D01*
G02X319208Y-62292I-11J2010*
G01*
G74*
D01*
G02X317862Y-61705I75J2009*
G01*
X314579Y-58421D01*
G75*
D01*
G02X313990Y-56995I1420J1421*
G01*
X313990Y-46827D01*
G75*
D01*
G02X318010Y-46827I2010J2826*
G01*
X318010Y-56168D01*
X320116Y-58274D01*
X320932Y-58274D01*
X320579Y-57921D01*
G75*
D01*
G02X319990Y-56495I1420J1421*
G01*
X319990Y-32879D01*
G75*
D01*
G02X317483Y-29541I968J3337*
G01*
X317483Y-27458D01*
G75*
D01*
G02X320959Y-23983I3476J-1*
G01*
X323042Y-23983D01*
G74*
D01*
G02X326517Y-27458I0J3475*
G01*
X326517Y-29541D01*
G75*
D01*
G02X324010Y-32879I-3475J-1*
G01*
X324010Y-55668D01*
X324072Y-55730D01*
G74*
D01*
G02X324124Y-55362I1507J25*
G01*
G75*
D01*
G02X324071Y-54968I1454J396*
G01*
X324071Y-53787D01*
G75*
D01*
G02X325579Y-52280I1508J-1*
G01*
X335579Y-52280D01*
G74*
D01*
G02X336336Y-52484I0J1507*
G01*
G75*
D01*
G02X336280Y-52079I1450J407*
G01*
X336280Y-42079D01*
G75*
D01*
G02X337787Y-40571I1507J1*
G01*
X338968Y-40571D01*
G74*
D01*
G02X339362Y-40624I2J1508*
G01*
G75*
D01*
G02X339756Y-40571I396J-1454*
G01*
X340305Y-40571D01*
X340305Y-30455D01*
G75*
D01*
G02X343463Y-27195I-305J3455*
G01*
X355490Y-15168D01*
X355490Y-4899D01*
G74*
D01*
G02X354917Y-4970I573J2274*
G01*
X349083Y-4970D01*
G75*
D01*
G02X346739Y-2625I1J2345*
G01*
X346739Y-374D01*
G74*
D01*
G02X346755Y-97I2344J4*
G01*
X340628Y6030D01*
X337083Y6030D01*
G75*
D01*
G02X334912Y7490I1J2345*
G01*
X333088Y7490D01*
G74*
D01*
G02X330917Y6030I2171J884*
G01*
X325083Y6030D01*
G75*
D01*
G02X324010Y6290I0J2345*
G01*
X324010Y4500D01*
G75*
D01*
G02X323419Y3077I-2010J1*
G01*
X321015Y672D01*
G74*
D01*
G02X321261Y-374I2098J1045*
G01*
X321261Y-2625D01*
G75*
D01*
G02X318917Y-4970I-2344J-1*
G01*
X313083Y-4970D01*
G75*
D01*
G02X310912Y-3510I1J2345*
G01*
X309088Y-3510D01*
G74*
D01*
G02X306917Y-4970I2171J884*
G01*
X301083Y-4970D01*
G75*
D01*
G02X298739Y-2625I1J2345*
G01*
X298739Y-374D01*
G75*
D01*
G02X301083Y1970I2344J0*
G01*
X306917Y1970D01*
G74*
D01*
G02X309088Y510I0J2344*
G01*
X310912Y510D01*
G75*
D01*
G02X313083Y1970I2171J-884*
G01*
X316628Y1970D01*
X319990Y5332D01*
X319990Y6290D01*
G74*
D01*
G02X318917Y6030I1073J2084*
G01*
X313083Y6030D01*
G75*
D01*
G02X310912Y7490I1J2345*
G01*
X309088Y7490D01*
G74*
D01*
G02X306917Y6030I2171J884*
G01*
X301083Y6030D01*
G75*
D01*
G02X298739Y8375I1J2345*
G01*
X298739Y10626D01*
G75*
D01*
G02X301083Y12970I2344J0*
G01*
X306917Y12970D01*
G74*
D01*
G02X309088Y11510I0J2344*
G01*
X310912Y11510D01*
G74*
D01*
G02X312469Y12888I2171J884*
G01*
G75*
D01*
G02X317420Y15422I1531J3112*
G01*
G74*
D01*
G02X317983Y14325I1420J1422*
G01*
X334299Y30641D01*
G75*
D01*
G02X333930Y31630I1138J988*
G01*
X333930Y37535D01*
G74*
D01*
G02X333931Y37589I1507J1*
G01*
X333510Y37168D01*
X333510Y32000D01*
G75*
D01*
G02X332919Y30577I-2010J1*
G01*
X323923Y21581D01*
G74*
D01*
G02X322500Y20990I1423J1418*
G01*
X308712Y20990D01*
G75*
D01*
G02X308712Y25010I-4212J2010*
G01*
X321668Y25010D01*
X329490Y32832D01*
X329490Y37148D01*
X323923Y31581D01*
G74*
D01*
G02X322500Y30990I1423J1418*
G01*
X308879Y30990D01*
G74*
D01*
G02X305542Y28483I3337J967*
G01*
X303459Y28483D01*
G75*
D01*
G02X299983Y31958I-1J3475*
G01*
X299983Y34042D01*
G75*
D01*
G02X303459Y37517I3476J-1*
G01*
X305542Y37517D01*
G74*
D01*
G02X308879Y35010I0J3475*
G01*
X321668Y35010D01*
X331079Y44421D01*
G75*
D01*
G02X332503Y45010I1421J-1420*
G01*
X339000Y45010D01*
G74*
D01*
G02X340423Y44419I1J2010*
G01*
X342860Y41982D01*
G74*
D01*
G02X343451Y40559I1418J1423*
G01*
X343451Y38540D01*
G74*
D01*
G02X343834Y37535I1124J1004*
G01*
X343834Y31630D01*
G75*
D01*
G02X343451Y30626I-1507J0*
G01*
X343451Y16441D01*
G75*
D01*
G02X342860Y15018I-2010J1*
G01*
X342010Y14168D01*
X342010Y12970D01*
X342917Y12970D01*
G74*
D01*
G02X345261Y10626I0J2344*
G01*
X345261Y8375D01*
G75*
D01*
G02X345015Y7328I-2344J-2*
G01*
X350372Y1970D01*
X354917Y1970D01*
G74*
D01*
G02X355490Y1899I0J2344*
G01*
X355490Y4995D01*
G75*
D01*
G02X356079Y6421I2010J4*
G01*
X359483Y9825D01*
X359483Y10542D01*
G75*
D01*
G02X362959Y14017I3476J-1*
G01*
X365042Y14017D01*
G74*
D01*
G02X368379Y11510I0J3475*
G01*
X370038Y11510D01*
G75*
D01*
G02X370419Y7490I5461J-1510*
G01*
X368379Y7490D01*
G74*
D01*
G02X365042Y4983I3337J967*
G01*
X362959Y4983D01*
G75*
D01*
G02X360959Y5616I0J3476*
G01*
X359510Y4168D01*
X359510Y772D01*
G75*
D01*
G02X368212Y1510I4490J-1270*
G01*
X379803Y1510D01*
X384419Y6126D01*
G75*
D01*
G02X382739Y8375I664J2248*
G01*
X382739Y10626D01*
G75*
D01*
G02X385083Y12970I2344J0*
G01*
X385490Y12970D01*
X385490Y15877D01*
G75*
D01*
G02X389510Y16606I1510J3122*
G01*
X389510Y12970D01*
X390917Y12970D01*
G74*
D01*
G02X391240Y12947I5J2344*
G01*
X414975Y36682D01*
X414125Y37533D01*
G74*
D01*
G02X413541Y37483I587J3425*
G01*
X411459Y37483D01*
G75*
D01*
G02X408121Y39990I0J3476*
G01*
X403799Y39990D01*
G75*
D01*
G02X393201Y39990I-5299J2009*
G01*
X391261Y39990D01*
X391261Y39375D01*
G75*
D01*
G02X388917Y37030I-2344J-1*
G01*
X383083Y37030D01*
G75*
D01*
G02X380912Y38490I1J2345*
G01*
X379088Y38490D01*
G74*
D01*
G02X376917Y37030I2171J884*
G01*
X371083Y37030D01*
G75*
D01*
G02X368912Y38490I1J2345*
G01*
X358427Y38490D01*
X354070Y34134D01*
X354070Y31630D01*
G75*
D01*
G02X352563Y30123I-1507J0*
G01*
X350791Y30123D01*
G75*
D01*
G02X350398Y30175I-1J1507*
G01*
G74*
D01*
G02X350004Y30123I392J1455*
G01*
X348510Y30123D01*
X348510Y27332D01*
X350422Y25420D01*
G75*
D01*
G02X347580Y22578I578J-3420*
G01*
X345079Y25079D01*
G75*
D01*
G02X344490Y26505I1420J1421*
G01*
X344490Y30696D01*
G75*
D01*
G02X344166Y31630I1183J934*
G01*
X344166Y37535D01*
G74*
D01*
G02X344849Y38797I1507J0*
G01*
X344849Y39043D01*
X344886Y39043D01*
G74*
D01*
G02X345280Y38990I2J1508*
G01*
G75*
D01*
G02X345673Y39043I396J-1454*
G01*
X347162Y39043D01*
G74*
D01*
G02X347697Y40004I1956J459*
G01*
X355684Y47990D01*
X349502Y47990D01*
G75*
D01*
G02X348079Y48579I-1J2010*
G01*
X345291Y51367D01*
X344006Y50081D01*
G74*
D01*
G02X342583Y49490I1423J1418*
G01*
X325088Y49490D01*
G74*
D01*
G02X322917Y48030I2171J884*
G01*
X317083Y48030D01*
G75*
D01*
G02X314912Y49490I1J2345*
G01*
X309123Y49490D01*
G75*
D01*
G02X308394Y53510I-3122J1510*
G01*
X314912Y53510D01*
G75*
D01*
G02X317083Y54970I2171J-884*
G01*
X322917Y54970D01*
G74*
D01*
G02X325088Y53510I1J2345*
G01*
X334271Y53510D01*
G75*
D01*
G02X333930Y54465I1166J955*
G01*
X333930Y55408D01*
X329085Y55408D01*
G75*
D01*
G02X327662Y55996I-3J2009*
G01*
X312628Y71030D01*
X309083Y71030D01*
G75*
D01*
G02X306912Y72490I1J2345*
G01*
X300076Y72490D01*
G75*
D01*
G02X299302Y76510I-5575J1011*
G01*
X306912Y76510D01*
G75*
D01*
G02X309083Y77970I2171J-884*
G01*
X314917Y77970D01*
G74*
D01*
G02X317261Y75626I0J2344*
G01*
X317261Y73375D01*
G75*
D01*
G02X317015Y72328I-2344J-2*
G01*
X329915Y59427D01*
X333930Y59427D01*
X333930Y60370D01*
G75*
D01*
G02X335437Y61877I1507J0*
G01*
X337209Y61877D01*
G74*
D01*
G02X337602Y61825I1J1507*
G01*
G75*
D01*
G02X337996Y61877I392J-1455*
G01*
X338281Y61877D01*
X337168Y62990D01*
X333500Y62990D01*
G75*
D01*
G02X332889Y63085I0J2010*
G01*
G74*
D01*
G02X332079Y63579I612J1915*
G01*
X324628Y71030D01*
X321083Y71030D01*
G75*
D01*
G02X318739Y73375I1J2345*
G01*
X318739Y75626D01*
G75*
D01*
G02X321083Y77970I2344J0*
G01*
X324628Y77970D01*
X326137Y79479D01*
X326137Y79479D01*
X327579Y80921D01*
G75*
D01*
G02X329002Y81510I1421J-1420*
G01*
X341168Y81510D01*
X342985Y83328D01*
G75*
D01*
G02X342739Y84375I2098J1045*
G01*
X342739Y86626D01*
G75*
D01*
G02X345083Y88970I2344J0*
G01*
X350917Y88970D01*
G74*
D01*
G02X353261Y86626I0J2344*
G01*
X353261Y84375D01*
G75*
D01*
G02X350917Y82030I-2344J-1*
G01*
X347372Y82030D01*
X344822Y79479D01*
X344822Y79479D01*
X343423Y78081D01*
G74*
D01*
G02X342000Y77490I1423J1418*
G01*
X340338Y77490D01*
G74*
D01*
G02X341261Y75626I1420J1864*
G01*
X341261Y74581D01*
X342757Y73086D01*
G75*
D01*
G02X342739Y73375I2325J290*
G01*
X342739Y75626D01*
G75*
D01*
G02X345083Y77970I2344J0*
G01*
X350917Y77970D01*
G74*
D01*
G02X353088Y76510I0J2344*
G01*
X354912Y76510D01*
G75*
D01*
G02X357083Y77970I2171J-884*
G01*
X362917Y77970D01*
G74*
D01*
G02X365261Y75626I0J2344*
G01*
X365261Y73375D01*
G75*
D01*
G02X364907Y72135I-2344J-1*
G01*
G75*
D01*
G02X364760Y70529I-1906J-635*
G01*
X364760Y67989D01*
G75*
D01*
G02X360740Y67631I-1760J-2988*
G01*
X360740Y70918D01*
X360628Y71030D01*
X357083Y71030D01*
G75*
D01*
G02X354912Y72490I1J2345*
G01*
X353088Y72490D01*
G74*
D01*
G02X350917Y71030I2171J884*
G01*
X345083Y71030D01*
G75*
D01*
G02X344794Y71048I1J2345*
G01*
X350537Y65305D01*
G74*
D01*
G02X351128Y63882I1418J1423*
G01*
X351128Y61877D01*
X352563Y61877D01*
G74*
D01*
G02X354070Y60370I0J1507*
G01*
X354070Y59427D01*
X354522Y59427D01*
G75*
D01*
G02X360098Y55440I2480J-2424*
G01*
X369990Y65332D01*
X369990Y71030D01*
X369083Y71030D01*
G75*
D01*
G02X366739Y73375I1J2345*
G01*
X366739Y75626D01*
G74*
D01*
G02X366985Y76672I2344J1*
G01*
X364178Y79479D01*
X364178Y79479D01*
X361628Y82030D01*
X357083Y82030D01*
G75*
D01*
G02X354739Y84375I1J2345*
G01*
X354739Y86626D01*
G75*
D01*
G02X357083Y88970I2344J0*
G01*
X362917Y88970D01*
G74*
D01*
G02X365261Y86626I0J2344*
G01*
X365261Y84375D01*
G75*
D01*
G02X365245Y84097I-2344J-5*
G01*
X369863Y79479D01*
X369863Y79479D01*
X371372Y77970D01*
X374188Y77970D01*
X372678Y79479D01*
X372678Y79479D01*
X370579Y81579D01*
G74*
D01*
G02X370240Y82030I1421J1421*
G01*
X369083Y82030D01*
G75*
D01*
G02X366739Y84375I1J2345*
G01*
X366739Y86626D01*
G75*
D01*
G02X369083Y88970I2344J0*
G01*
X374917Y88970D01*
G74*
D01*
G02X377261Y86626I0J2344*
G01*
X377261Y84375D01*
G75*
D01*
G02X375683Y82159I-2344J-1*
G01*
X378363Y79479D01*
X378363Y79479D01*
X378739Y79103D01*
X378739Y80626D01*
G75*
D01*
G02X381083Y82970I2344J0*
G01*
X382490Y82970D01*
X382490Y83877D01*
G75*
D01*
G02X386510Y84606I1510J3122*
G01*
X386510Y82970D01*
X386917Y82970D01*
G74*
D01*
G02X389261Y80626I0J2344*
G01*
X389261Y78375D01*
G75*
D01*
G02X386917Y76030I-2344J-1*
G01*
X381083Y76030D01*
G75*
D01*
G02X380510Y76101I0J2345*
G01*
X380510Y74832D01*
X381991Y73351D01*
X381991Y73351D01*
X383372Y71970D01*
X386917Y71970D01*
G74*
D01*
G02X389088Y70510I0J2344*
G01*
X390912Y70510D01*
G75*
D01*
G02X393083Y71970I2171J-884*
G01*
X398917Y71970D01*
G74*
D01*
G02X401261Y69626I0J2344*
G01*
X401261Y67375D01*
G75*
D01*
G02X398917Y65030I-2344J-1*
G01*
X393083Y65030D01*
G75*
D01*
G02X390912Y66490I1J2345*
G01*
X389088Y66490D01*
G74*
D01*
G02X386917Y65030I2171J884*
G01*
X354673Y-33484D02*
X356500Y-31658D01*
X356500Y-21793D01*
X363284Y-15009D01*
X363284Y-15009D01*
X375783Y-2510D01*
X368212Y-2510D01*
G75*
D01*
G02X359510Y-1772I-4212J2010*
G01*
X359510Y-16000D01*
G75*
D01*
G02X358919Y-17423I-2010J1*
G01*
X346293Y-30049D01*
X346293Y-32365D01*
X347534Y-31124D01*
G75*
D01*
G02X350016Y-34326I3466J124*
G01*
X348262Y-36080D01*
X348262Y-40571D01*
X348811Y-40571D01*
G74*
D01*
G02X349205Y-40624I2J1508*
G01*
G75*
D01*
G02X349598Y-40571I396J-1454*
G01*
X350780Y-40571D01*
G74*
D01*
G02X351173Y-40624I3J1508*
G01*
G75*
D01*
G02X351567Y-40571I396J-1454*
G01*
X352748Y-40571D01*
G74*
D01*
G02X353142Y-40624I2J1508*
G01*
G75*
D01*
G02X353535Y-40571I396J-1454*
G01*
X354085Y-40571D01*
X354085Y-34908D01*
G75*
D01*
G02X354673Y-33484I2009J4*
G01*
X355504Y-53586D02*
X356053Y-53586D01*
X356053Y-63605D01*
X344158Y-75500D01*
X337086Y-75500D01*
X337086Y-75441D01*
G74*
D01*
G03X337034Y-75047I1507J2*
G01*
G74*
D01*
G03X337078Y-74807I1455J391*
G01*
X336946Y-74807D01*
G74*
D01*
G03X336190Y-74063I1367J633*
G01*
G74*
D01*
G03X336946Y-73319I611J1377*
G01*
X337078Y-73319D01*
G74*
D01*
G03X337034Y-73079I1498J151*
G01*
G75*
D01*
G03X337086Y-72685I-1455J392*
G01*
X337086Y-71504D01*
G74*
D01*
G03X337034Y-71110I1507J2*
G01*
G75*
D01*
G03X337086Y-70717I-1455J392*
G01*
X337086Y-69535D01*
G74*
D01*
G03X337034Y-69142I1507J1*
G01*
G75*
D01*
G03X337086Y-68748I-1455J392*
G01*
X337086Y-67567D01*
G74*
D01*
G03X337034Y-67173I1507J2*
G01*
G75*
D01*
G03X337086Y-66780I-1455J392*
G01*
X337086Y-65598D01*
G74*
D01*
G03X337034Y-65205I1507J1*
G01*
G75*
D01*
G03X337086Y-64811I-1455J392*
G01*
X337086Y-63630D01*
G74*
D01*
G03X337034Y-63236I1507J2*
G01*
G75*
D01*
G03X337086Y-62843I-1455J392*
G01*
X337086Y-61661D01*
G74*
D01*
G03X337034Y-61268I1507J1*
G01*
G75*
D01*
G03X337086Y-60874I-1455J392*
G01*
X337086Y-59693D01*
G74*
D01*
G03X337034Y-59299I1507J2*
G01*
G75*
D01*
G03X337086Y-58905I-1455J392*
G01*
X337086Y-57724D01*
G74*
D01*
G03X337034Y-57331I1507J1*
G01*
G75*
D01*
G03X337086Y-56937I-1455J392*
G01*
X337086Y-55756D01*
G74*
D01*
G03X337034Y-55362I1507J2*
G01*
G75*
D01*
G03X337086Y-54968I-1455J392*
G01*
X337086Y-53787D01*
G74*
D01*
G03X337030Y-53382I1507J2*
G01*
G75*
D01*
G03X337787Y-53586I757J1302*
G01*
X338968Y-53586D01*
G74*
D01*
G03X339362Y-53534I2J1507*
G01*
G75*
D01*
G03X339756Y-53586I392J1455*
G01*
X340937Y-53586D01*
G74*
D01*
G03X341331Y-53534I2J1507*
G01*
G75*
D01*
G03X341724Y-53586I392J1455*
G01*
X342905Y-53586D01*
G74*
D01*
G03X343299Y-53534I2J1507*
G01*
G75*
D01*
G03X343693Y-53586I392J1455*
G01*
X344874Y-53586D01*
G74*
D01*
G03X345268Y-53534I2J1507*
G01*
G75*
D01*
G03X345661Y-53586I392J1455*
G01*
X346843Y-53586D01*
G74*
D01*
G03X347236Y-53534I1J1507*
G01*
G75*
D01*
G03X347630Y-53586I392J1455*
G01*
X348811Y-53586D01*
G74*
D01*
G03X349205Y-53534I2J1507*
G01*
G75*
D01*
G03X349598Y-53586I392J1455*
G01*
X350780Y-53586D01*
G74*
D01*
G03X351173Y-53534I1J1507*
G01*
G75*
D01*
G03X351567Y-53586I392J1455*
G01*
X352748Y-53586D01*
G74*
D01*
G03X353142Y-53534I2J1507*
G01*
G75*
D01*
G03X353535Y-53586I392J1455*
G01*
X354717Y-53586D01*
G74*
D01*
G03X355110Y-53534I1J1507*
G01*
G75*
D01*
G03X355504Y-53586I392J1455*
G01*
X317500Y-142500D02*
X323740Y-136260D01*
X329472Y-136260D01*
X390000Y-142500D02*
X389000Y-142500D01*
X378000Y-153500D01*
X357472Y-136260D02*
X369760Y-136260D01*
X371000Y-137500D01*
X371000Y-146500D01*
X378000Y-153500D01*
X369000Y-164000D02*
X369000Y-148500D01*
X366528Y-146028D01*
X366528Y-140000D01*
X338528Y-153028D02*
X341000Y-155500D01*
X341000Y-164000D01*
X359000Y-168167D02*
X359000Y-177500D01*
X358000Y-178500D01*
X328000Y-178500D02*
X347000Y-178500D01*
X358000Y-189500D01*
X328000Y-189500D02*
X321000Y-182500D01*
X321000Y-178167D01*
X331000Y-168167D01*
X317500Y-173333D02*
X331000Y-159833D01*
X358000Y-189500D02*
X380000Y-189500D01*
X359000Y-159833D02*
X359333Y-159833D01*
X364500Y-165000D01*
X364500Y-173000D01*
X370000Y-178500D01*
X482000Y-6000D02*
X431000Y-6000D01*
X426500Y-75500D02*
X441000Y-75500D01*
X442000Y-26000D02*
X483500Y-26000D01*
X428500Y-69500D02*
X451000Y-69500D01*
X451000Y-16000D02*
X481000Y-16000D01*
X425000Y-46000D02*
X482000Y-46000D01*
X482000Y-66000D02*
X475500Y-66000D01*
X430000Y-63500D02*
X459000Y-63500D01*
X459000Y-36000D02*
X481500Y-36000D01*
X474500Y-89500D02*
X478000Y-86000D01*
X482000Y-86000D01*
X420000Y10000D02*
X420000Y34500D01*
X412500Y42000D01*
X387500Y42000D02*
X412500Y42000D01*
X387500Y42000D02*
X386000Y40500D01*
X357594Y40500D02*
X386000Y40500D01*
X357594Y40500D02*
X351677Y34583D01*
X412500Y68000D02*
X401000Y79500D01*
X412500Y52000D02*
X412500Y68000D01*
X401000Y79500D02*
X396000Y79500D01*
X396000Y68500D02*
X384000Y68500D01*
X372000Y74500D02*
X361000Y85500D01*
X360000Y85500D01*
X372000Y83000D02*
X372000Y85500D01*
X378500Y74000D02*
X378500Y76500D01*
X372000Y83000D01*
X378500Y74000D02*
X384000Y68500D01*
X312000Y85500D02*
X336000Y85500D01*
X312000Y74500D02*
X295500Y74500D01*
X294500Y73500D01*
X312000Y74500D02*
X329083Y57417D01*
X338882Y57417D01*
X341441Y61559D02*
X341441Y57417D01*
X338000Y65000D02*
X333500Y65000D01*
X324000Y74500D01*
X341441Y61559D02*
X338000Y65000D01*
X336000Y74500D02*
X338500Y74500D01*
X349118Y63882D01*
X349118Y57417D01*
X346559Y57417D02*
X346559Y52941D01*
X349500Y50000D01*
X357500Y50000D01*
X372000Y64500D01*
X372000Y74500D01*
X362035Y51500D02*
X349118Y38583D01*
X349118Y34583D01*
X340000Y9500D02*
X328000Y9500D01*
X340000Y9500D02*
X340000Y15000D01*
X341441Y16441D01*
X328000Y-1500D02*
X340000Y-1500D01*
X316000Y9500D02*
X304000Y9500D01*
X316000Y-1500D02*
X304000Y-1500D01*
X336323Y34583D02*
X336323Y29823D01*
X316000Y9500D01*
X316000Y-1500D02*
X322000Y4500D01*
X322000Y11500D01*
X340000Y9500D02*
X351000Y-1500D01*
X352000Y-1500D01*
X364000Y-500D02*
X387000Y-500D01*
X388000Y-1500D01*
X362000Y9500D02*
X375000Y9500D01*
X375500Y10000D01*
X316000Y9500D02*
X316000Y14000D01*
X314000Y16000D01*
X342583Y51500D02*
X344000Y52917D01*
X344000Y57417D01*
X304500Y23000D02*
X322500Y23000D01*
X331500Y32000D01*
X331500Y38000D01*
X334500Y41000D01*
X322000Y11500D02*
X339000Y28500D01*
X339000Y39707D02*
X337707Y41000D01*
X339000Y39707D02*
X339000Y28500D01*
X334500Y41000D02*
X337707Y41000D01*
X341441Y16441D02*
X341441Y40559D01*
X351000Y22000D02*
X346500Y26500D01*
X346500Y35500D01*
X339000Y43000D02*
X341441Y40559D01*
X322500Y33000D02*
X332500Y43000D01*
X304500Y33000D02*
X322500Y33000D01*
X332500Y43000D02*
X339000Y43000D01*
X306500Y51500D02*
X342583Y51500D01*
X324000Y74500D02*
X329000Y79500D01*
X342000Y79500D01*
X348000Y85500D01*
X360000Y74500D02*
X363000Y71500D01*
X362750Y71750D02*
X362750Y64750D01*
X349118Y57417D02*
X357417Y57417D01*
X384000Y79500D02*
X384500Y80000D01*
X384500Y86000D01*
X321000Y-161000D02*
X328500Y-161000D01*
X330000Y-159500D01*
X359000Y-159833D02*
X351167Y-152000D01*
X350500Y-152000D01*
X288000Y-142500D02*
X317500Y-142500D01*
X321000Y-161000D02*
X318500Y-158500D01*
X316500Y-158500D01*
X380000Y-189500D02*
X385000Y-184500D01*
X385000Y-182000D01*
X338528Y-153028D02*
X338528Y-140000D01*
X282660Y-170500D02*
X287410Y-175250D01*
X293237Y-175250D01*
X302763Y-180750D02*
X302763Y-162737D01*
X311500Y-154000D01*
X339500Y-154000D01*
X274000Y-142500D02*
X274000Y-165500D01*
X300000Y-153500D02*
X293000Y-160500D01*
X293000Y-162000D01*
X412000Y-56000D02*
X482000Y-56000D01*
X470500Y-107000D02*
X474500Y-103000D01*
X474500Y-89500D01*
X461000Y-107000D02*
X470500Y-107000D01*
X454707Y-100707D02*
X461000Y-107000D01*
X454707Y-97793D02*
X454414Y-97500D01*
X442000Y-97500D02*
X454414Y-97500D01*
X454707Y-100707D02*
X454707Y-97793D01*
X465000Y-76500D02*
X465000Y-99500D01*
X475500Y-66000D02*
X465000Y-76500D01*
X419777Y-165777D02*
X427223Y-165777D01*
X442929Y-150071D01*
X408223Y-154223D02*
X408223Y-153555D01*
X417889Y-143889D01*
X425713Y-151713D01*
X428787Y-151713D01*
X442929Y-150071D02*
X442929Y-137571D01*
X387000Y19000D02*
X387500Y18500D01*
X387500Y10000D01*
X396000Y59000D02*
X388500Y51500D01*
X362035Y51500D02*
X388500Y51500D01*
X340000Y-1500D02*
X340000Y-11500D01*
X340000Y-189500D02*
X335500Y-194000D01*
X323500Y-194000D02*
X317500Y-188000D01*
X317500Y-173333D01*
X335500Y-194000D02*
X323500Y-194000D01*
X385500Y-20000D02*
X385500Y-32000D01*
X260707Y-40000D02*
X256622Y-40000D01*
X262000Y-38707D02*
X260707Y-40000D01*
X256882Y-32260D02*
X260260Y-32260D01*
X262000Y-34000D01*
X262000Y-38707D01*
X348000Y74500D02*
X360000Y74500D01*
X366528Y-140000D02*
X347500Y-140000D01*
X338000Y-130500D02*
X286000Y-130500D01*
X347500Y-140000D02*
X338000Y-130500D01*
X286000Y-130500D02*
X274000Y-142500D01*
X345733Y-124733D02*
X349000Y-128000D01*
X353000Y-128000D02*
X349000Y-128000D01*
X345733Y-124733D02*
X345733Y-119733D01*
X344283Y-118283D01*
X340346Y-109421D02*
X340346Y-118387D01*
X334733Y-124000D01*
X338378Y-109421D02*
X338378Y-103122D01*
X344283Y-118283D02*
X344283Y-102783D01*
X342707Y-101207D02*
X340293Y-101207D01*
X342707Y-101207D02*
X344283Y-102783D01*
X338378Y-103122D02*
X340293Y-101207D01*
X354126Y-109421D02*
X354126Y-119626D01*
X364500Y-130000D01*
X378000Y-132293D02*
X375707Y-130000D01*
X364500Y-130000D02*
X375707Y-130000D01*
X378000Y-132293D02*
X378000Y-142500D01*
X356094Y-109421D02*
X356094Y-118594D01*
X358500Y-121000D01*
X379000Y-121000D01*
X393421Y-101622D02*
X407622Y-101622D01*
X412000Y-106000D01*
X393421Y-99654D02*
X411346Y-99654D01*
X412000Y-99000D01*
X393421Y-97685D02*
X402815Y-97685D01*
X410500Y-90000D01*
X425000Y-90000D01*
X393421Y-85874D02*
X425126Y-85874D01*
X431000Y-80000D01*
X393421Y-83906D02*
X418094Y-83906D01*
X426500Y-75500D01*
X393421Y-81937D02*
X416063Y-81937D01*
X428500Y-69500D01*
X393421Y-79969D02*
X413531Y-79969D01*
X430000Y-63500D01*
X386531Y-76031D02*
X399469Y-76031D01*
X393421Y-72094D02*
X400906Y-72094D01*
X393421Y-74063D02*
X401937Y-74063D01*
X407000Y-69000D02*
X407000Y-53000D01*
X401937Y-74063D02*
X407000Y-69000D01*
X407000Y-53000D02*
X417500Y-42500D01*
X404000Y-69000D02*
X404000Y-46500D01*
X409500Y-41000D01*
X400906Y-72094D02*
X404000Y-69000D01*
X393421Y-78000D02*
X379000Y-78000D01*
X378000Y-77000D01*
X385622Y-56878D02*
X363500Y-79000D01*
X363500Y-85000D01*
X360031Y-54969D02*
X360031Y-39469D01*
X363969Y-56031D02*
X363969Y-39969D01*
X385622Y-56878D02*
X385622Y-32122D01*
X296437Y-81937D02*
X330579Y-81937D01*
X296437Y-81937D02*
X296000Y-81500D01*
X330579Y-76031D02*
X301469Y-76031D01*
X296000Y-81500D01*
X330579Y-78000D02*
X346500Y-78000D01*
X351000Y-82500D01*
X351000Y-94000D01*
X358063Y-64437D02*
X358063Y-47079D01*
X358063Y-64437D02*
X344500Y-78000D01*
X318157Y-68157D02*
X310000Y-60000D01*
X310000Y-50000D01*
X330579Y-60283D02*
X319283Y-60283D01*
X316000Y-57000D01*
X316000Y-44000D01*
X342315Y-47079D02*
X342315Y-29315D01*
X340000Y-27000D01*
X357500Y-16000D02*
X357500Y5000D01*
X362000Y9500D02*
X357500Y5000D01*
X357500Y-16000D02*
X344283Y-29217D01*
X344283Y-47079D02*
X344283Y-29217D01*
X371843Y-47079D02*
X371843Y-59657D01*
X370500Y-61000D01*
X346252Y-47079D02*
X346252Y-35248D01*
X351000Y-30500D01*
X356094Y-47079D02*
X356094Y-34906D01*
X360000Y-31000D01*
X405000Y-112000D02*
X435858Y-142858D01*
X435858Y-144642D01*
X398000Y-121000D02*
X407000Y-121000D01*
X428787Y-142787D01*
X428787Y-151713D01*
X322563Y-74063D02*
X338937Y-74063D01*
X330579Y-68157D02*
X318157Y-68157D01*
X323815Y-58315D02*
X322000Y-56500D01*
X330579Y-58315D02*
X323815Y-58315D01*
X322000Y-56500D02*
X322000Y-28500D01*
G54D12*
X204049Y-42242D02*
X215053Y-42242D01*
X215053Y-37742D01*
X204049Y-37742D01*
X204049Y-42242D01*
X204049Y-34242D02*
X215053Y-34242D01*
X215053Y-29742D01*
X204049Y-29742D01*
X204049Y-34242D01*
G36*
X204049Y-42242D02*
X204049Y-42242D01*
X215053Y-42242D01*
X215053Y-37742D01*
X204049Y-37742D01*
X204049Y-42242D01*
D02*
G37*
X215053Y-42242D01*
X215053Y-37742D01*
X204049Y-37742D01*
X204049Y-42242D01*
G36*
X204049Y-34242D02*
X204049Y-34242D01*
X215053Y-34242D01*
X215053Y-29742D01*
X204049Y-29742D01*
X204049Y-34242D01*
D02*
G37*
X215053Y-34242D01*
X215053Y-29742D01*
X204049Y-29742D01*
X204049Y-34242D01*
G54D13*
X255071Y-132929D02*
X263868Y-124132D01*
X272354Y-132132D02*
X270510Y-132132D01*
X260642Y-142000D01*
X233000Y-114000D02*
X243000Y-124000D01*
X247000Y-54000D02*
X256000Y-54000D01*
X267118Y-39740D02*
X267118Y-53618D01*
X294500Y-109500D02*
X291000Y-113000D01*
X294500Y-109500D02*
X312000Y-109500D01*
X248000Y-70500D02*
X268000Y-70500D01*
X274500Y-64000D01*
X274500Y-39642D01*
X267118Y-32260D01*
X296000Y-81500D02*
X274500Y-81500D01*
X273500Y-82500D01*
X215000Y-5000D02*
X215000Y-8500D01*
X222500Y-16000D01*
X215000Y-5000D02*
X222000Y-12000D01*
X222000Y-5000D01*
X218500Y-8500D01*
X213000Y-99000D02*
X217000Y-103000D01*
X214750Y-100750D02*
X222000Y-93500D01*
X217000Y-103000D02*
X224000Y-96000D01*
X224000Y-93500D02*
X217000Y-100500D01*
X217000Y-103000D01*
X218000Y-93500D02*
X213500Y-98000D01*
X224000Y-96000D02*
X224000Y-94000D01*
X222000Y-93500D02*
X218000Y-93500D01*
X213551Y-31949D02*
X225051Y-31949D01*
X214051Y-39949D02*
X225551Y-39949D01*
G54D14*
X222000Y-5000D02*
X215000Y-5000D01*
X199500Y-57500D02*
X199500Y-35500D01*
X202988Y-32012D02*
X209551Y-32012D01*
X224000Y-82000D02*
X199500Y-57500D01*
X199500Y-35500D02*
X202988Y-32012D01*
X224000Y-82500D02*
X224000Y-82000D01*
G54D15*
X256882Y-36000D02*
X253000Y-36000D01*
X253000Y-36000D02*
X247500Y-30500D01*
X246000Y-30500D02*
X247500Y-30500D01*
X227500Y-30500D02*
X246000Y-30500D01*
X232000Y-61000D02*
X232000Y-55500D01*
X246000Y-41500D01*
X256882Y-39740D02*
X255122Y-41500D01*
X246000Y-41500D01*
X222000Y-52335D02*
X209551Y-39886D01*
X222000Y-61000D02*
X222000Y-52335D01*
G54D16*
X222500Y-12500D02*
X222500Y-5500D01*
G54D17*
X193024Y-203976D02*
X193024Y-173381D01*
X193024Y-203976D02*
X223619Y-203976D01*
X498976Y-203976D02*
X468381Y-203976D01*
X498976Y-203976D02*
X498976Y-173381D01*
X498976Y101976D02*
X498976Y71381D01*
X498976Y101976D02*
X468381Y101976D01*
X193024Y101976D02*
X223619Y101976D01*
X193024Y101976D02*
X193024Y71381D01*
X173339Y-203976D02*
X133969Y-203976D01*
X153654Y-223661D02*
X153654Y-184291D01*
X138890Y-203976D02*
G75*
D01*
G02X138890Y-203976I14764J0*
G01*
X518661Y-203976D02*
X558031Y-203976D01*
X538346Y-223661D02*
X538346Y-184291D01*
X523582Y-203976D02*
G75*
D01*
G02X523582Y-203976I14764J0*
G01*
X533425Y-203976D02*
G75*
D01*
G02X533425Y-203976I4921J0*
G01*
X173339Y101976D02*
X133969Y101976D01*
X153654Y82291D02*
X153654Y121661D01*
X138890Y101976D02*
G75*
D01*
G02X138890Y101976I14764J0*
G01*
X143811Y101976D02*
G75*
D01*
G02X143811Y101976I9843J0*
G01*
X148733Y101976D02*
G75*
D01*
G02X148733Y101976I4921J0*
G01*
G54D18*
X431000Y-80000D03*
X431000Y-6000D03*
X442000Y-26000D03*
X233000Y-114000D03*
X385000Y-182000D03*
X441000Y-75969D03*
X306000Y51000D03*
X314000Y16000D03*
X351000Y22000D03*
X451000Y-70000D03*
X451000Y-16000D03*
X465000Y-99000D03*
X459000Y-64000D03*
X459000Y-36000D03*
X425000Y-90000D03*
X425000Y-46000D03*
X418000Y-42000D03*
X410000Y-40000D03*
X317000Y-158000D03*
X351000Y-152000D03*
X310000Y-50000D03*
X293000Y-163000D03*
X396000Y59000D03*
X387000Y19000D03*
X357000Y57000D03*
X384000Y87000D03*
X363000Y65000D03*
X340031Y-12000D03*
X215000Y-5000D03*
X222000Y-5000D03*
X247000Y-54000D03*
X340000Y-27000D03*
X274000Y-82000D03*
X379000Y-121000D03*
X316000Y-44000D03*
X412000Y-106000D03*
X412000Y-99000D03*
X353000Y-128000D03*
X413000Y-56000D03*
X371000Y-61000D03*
X398000Y-121000D03*
X351000Y-31000D03*
X291000Y-114000D03*
X364000Y-86000D03*
X217000Y-103000D03*
X213000Y-98000D03*
X351000Y-94000D03*
X378000Y-77000D03*
X405000Y-112000D03*
X360000Y-31000D03*
G54D19*
X271735Y-115957D03*
X271558Y-115780D03*
X263957Y-123735D03*
X263780Y-123558D03*
X280220Y-124442D03*
X280043Y-124265D03*
X272442Y-132220D03*
X272265Y-132043D03*
X243978Y-124200D03*
X243800Y-124022D03*
X236200Y-131978D03*
X236022Y-131800D03*
X410200Y-136022D03*
X410022Y-136200D03*
X417978Y-143800D03*
X417800Y-143978D03*
G54D20*
X274505Y-117135D02*
X270380Y-113010D01*
X268788Y-114601D01*
X272913Y-118727D01*
X274505Y-117135D01*D02*
X266727Y-124913D02*
X262601Y-120788D01*
X261010Y-122380D01*
X265135Y-126505D01*
X266727Y-124913D01*D02*
X302279Y-183839D02*
X305196Y-178787D01*
X303247Y-177661D01*
X300330Y-182713D01*
X302279Y-183839D01*D02*
X292753Y-178339D02*
X295670Y-173287D01*
X293721Y-172161D01*
X290804Y-177213D01*
X292753Y-178339D01*D02*
X285083Y-154625D02*
X290917Y-154625D01*
X290917Y-152375D01*
X285083Y-152375D01*
X285083Y-154625D01*D02*
X285083Y-143625D02*
X290917Y-143625D01*
X290917Y-141375D01*
X285083Y-141375D01*
X285083Y-143625D01*D02*
X282990Y-125620D02*
X278865Y-121495D01*
X277273Y-123087D01*
X281399Y-127212D01*
X282990Y-125620D01*D02*
X275212Y-133399D02*
X271087Y-129273D01*
X269495Y-130865D01*
X273620Y-134990D01*
X275212Y-133399D01*D02*
X246748Y-125378D02*
X242622Y-121252D01*
X241031Y-122844D01*
X245156Y-126969D01*
X246748Y-125378D01*D02*
X238969Y-133156D02*
X234844Y-129031D01*
X233252Y-130622D01*
X237378Y-134748D01*
X238969Y-133156D01*D02*
X385083Y8375D02*
X390917Y8375D01*
X390917Y10625D01*
X385083Y10625D01*
X385083Y8375D01*D02*
X385083Y-2625D02*
X390917Y-2625D01*
X390917Y-375D01*
X385083Y-375D01*
X385083Y-2625D01*D02*
X329833Y-161000D02*
X332167Y-161000D01*
X332167Y-158666D01*
X329833Y-158666D01*
X329833Y-161000D01*D02*
X329833Y-169334D02*
X332167Y-169334D01*
X332167Y-167000D01*
X329833Y-167000D01*
X329833Y-169334D01*D02*
X339833Y-165167D02*
X342167Y-165167D01*
X342167Y-162833D01*
X339833Y-162833D01*
X339833Y-165167D01*D02*
X357833Y-161000D02*
X360167Y-161000D01*
X360167Y-158666D01*
X357833Y-158666D01*
X357833Y-161000D01*D02*
X357833Y-169334D02*
X360167Y-169334D01*
X360167Y-167000D01*
X357833Y-167000D01*
X357833Y-169334D01*D02*
X367833Y-165167D02*
X370167Y-165167D01*
X370167Y-162833D01*
X367833Y-162833D01*
X367833Y-165167D01*D02*
X325083Y-190625D02*
X330917Y-190625D01*
X330917Y-188375D01*
X325083Y-188375D01*
X325083Y-190625D01*D02*
X325083Y-179625D02*
X330917Y-179625D01*
X330917Y-177375D01*
X325083Y-177375D01*
X325083Y-179625D01*D02*
X337083Y-190625D02*
X342917Y-190625D01*
X342917Y-188375D01*
X337083Y-188375D01*
X337083Y-190625D01*D02*
X337083Y-179625D02*
X342917Y-179625D01*
X342917Y-177375D01*
X337083Y-177375D01*
X337083Y-179625D01*D02*
X355083Y-179625D02*
X360917Y-179625D01*
X360917Y-177375D01*
X355083Y-177375D01*
X355083Y-179625D01*D02*
X355083Y-190625D02*
X360917Y-190625D01*
X360917Y-188375D01*
X355083Y-188375D01*
X355083Y-190625D01*D02*
X367083Y-179625D02*
X372917Y-179625D01*
X372917Y-177375D01*
X367083Y-177375D01*
X367083Y-179625D01*D02*
X367083Y-190625D02*
X372917Y-190625D01*
X372917Y-188375D01*
X367083Y-188375D01*
X367083Y-190625D01*D02*
X375083Y-154625D02*
X380917Y-154625D01*
X380917Y-152375D01*
X375083Y-152375D01*
X375083Y-154625D01*D02*
X375083Y-143625D02*
X380917Y-143625D01*
X380917Y-141375D01*
X375083Y-141375D01*
X375083Y-143625D01*D02*
X387083Y-154625D02*
X392917Y-154625D01*
X392917Y-152375D01*
X387083Y-152375D01*
X387083Y-154625D01*D02*
X387083Y-143625D02*
X392917Y-143625D01*
X392917Y-141375D01*
X387083Y-141375D01*
X387083Y-143625D01*D02*
X301083Y8375D02*
X306917Y8375D01*
X306917Y10625D01*
X301083Y10625D01*
X301083Y8375D01*D02*
X301083Y-2625D02*
X306917Y-2625D01*
X306917Y-375D01*
X301083Y-375D01*
X301083Y-2625D01*D02*
X313083Y8375D02*
X318917Y8375D01*
X318917Y10625D01*
X313083Y10625D01*
X313083Y8375D01*D02*
X313083Y-2625D02*
X318917Y-2625D01*
X318917Y-375D01*
X313083Y-375D01*
X313083Y-2625D01*D02*
X325083Y-2625D02*
X330917Y-2625D01*
X330917Y-375D01*
X325083Y-375D01*
X325083Y-2625D01*D02*
X325083Y8375D02*
X330917Y8375D01*
X330917Y10625D01*
X325083Y10625D01*
X325083Y8375D01*D02*
X337083Y8375D02*
X342917Y8375D01*
X342917Y10625D01*
X337083Y10625D01*
X337083Y8375D01*D02*
X337083Y-2625D02*
X342917Y-2625D01*
X342917Y-375D01*
X337083Y-375D01*
X337083Y-2625D01*D02*
X349083Y8375D02*
X354917Y8375D01*
X354917Y10625D01*
X349083Y10625D01*
X349083Y8375D01*D02*
X349083Y-2625D02*
X354917Y-2625D01*
X354917Y-375D01*
X349083Y-375D01*
X349083Y-2625D01*D02*
X309083Y84375D02*
X314917Y84375D01*
X314917Y86625D01*
X309083Y86625D01*
X309083Y84375D01*D02*
X309083Y73375D02*
X314917Y73375D01*
X314917Y75625D01*
X309083Y75625D01*
X309083Y73375D01*D02*
X321083Y73375D02*
X326917Y73375D01*
X326917Y75625D01*
X321083Y75625D01*
X321083Y73375D01*D02*
X321083Y84375D02*
X326917Y84375D01*
X326917Y86625D01*
X321083Y86625D01*
X321083Y84375D01*D02*
X333083Y84375D02*
X338917Y84375D01*
X338917Y86625D01*
X333083Y86625D01*
X333083Y84375D01*D02*
X333083Y73375D02*
X338917Y73375D01*
X338917Y75625D01*
X333083Y75625D01*
X333083Y73375D01*D02*
X345083Y73375D02*
X350917Y73375D01*
X350917Y75625D01*
X345083Y75625D01*
X345083Y73375D01*D02*
X345083Y84375D02*
X350917Y84375D01*
X350917Y86625D01*
X345083Y86625D01*
X345083Y84375D01*D02*
X357083Y73375D02*
X362917Y73375D01*
X362917Y75625D01*
X357083Y75625D01*
X357083Y73375D01*D02*
X357083Y84375D02*
X362917Y84375D01*
X362917Y86625D01*
X357083Y86625D01*
X357083Y84375D01*D02*
X369083Y73375D02*
X374917Y73375D01*
X374917Y75625D01*
X369083Y75625D01*
X369083Y73375D01*D02*
X369083Y84375D02*
X374917Y84375D01*
X374917Y86625D01*
X369083Y86625D01*
X369083Y84375D01*D02*
X393083Y78375D02*
X398917Y78375D01*
X398917Y80625D01*
X393083Y80625D01*
X393083Y78375D01*D02*
X393083Y67375D02*
X398917Y67375D01*
X398917Y69625D01*
X393083Y69625D01*
X393083Y67375D01*D02*
X451083Y-98625D02*
X456917Y-98625D01*
X456917Y-96375D01*
X451083Y-96375D01*
X451083Y-98625D01*D02*
X451083Y-87625D02*
X456917Y-87625D01*
X456917Y-85375D01*
X451083Y-85375D01*
X451083Y-87625D01*D02*
X439083Y-98625D02*
X444917Y-98625D01*
X444917Y-96375D01*
X439083Y-96375D01*
X439083Y-98625D01*D02*
X439083Y-87625D02*
X444917Y-87625D01*
X444917Y-85375D01*
X439083Y-85375D01*
X439083Y-87625D01*D02*
X317083Y50375D02*
X322917Y50375D01*
X322917Y52625D01*
X317083Y52625D01*
X317083Y50375D01*D02*
X317083Y39375D02*
X322917Y39375D01*
X322917Y41625D01*
X317083Y41625D01*
X317083Y39375D01*D02*
X297083Y-154625D02*
X302917Y-154625D01*
X302917Y-152375D01*
X297083Y-152375D01*
X297083Y-154625D01*D02*
X297083Y-143625D02*
X302917Y-143625D01*
X302917Y-141375D01*
X297083Y-141375D01*
X297083Y-143625D01*D02*
X411378Y-133252D02*
X407252Y-137378D01*
X408844Y-138969D01*
X412969Y-134844D01*
X411378Y-133252D01*D02*
X419156Y-141031D02*
X415031Y-145156D01*
X416622Y-146748D01*
X420748Y-142622D01*
X419156Y-141031D01*D02*
X384375Y-34917D02*
X386625Y-34917D01*
X386625Y-29083D01*
X384375Y-29083D01*
X384375Y-34917D01*D02*
X373375Y-34917D02*
X375625Y-34917D01*
X375625Y-29083D01*
X373375Y-29083D01*
X373375Y-34917D01*D02*
X384375Y-22917D02*
X386625Y-22917D01*
X386625Y-17083D01*
X384375Y-17083D01*
X384375Y-22917D01*D02*
X373375Y-22917D02*
X375625Y-22917D01*
X375625Y-17083D01*
X373375Y-17083D01*
X373375Y-22917D01*D02*
X221375Y-18917D02*
X223625Y-18917D01*
X223625Y-13083D01*
X221375Y-13083D01*
X221375Y-18917D01*D02*
X232375Y-18917D02*
X234625Y-18917D01*
X234625Y-13083D01*
X232375Y-13083D01*
X232375Y-18917D01*D02*
X255375Y-56917D02*
X257625Y-56917D01*
X257625Y-51083D01*
X255375Y-51083D01*
X255375Y-56917D01*D02*
X266375Y-56917D02*
X268625Y-56917D01*
X268625Y-51083D01*
X266375Y-51083D01*
X266375Y-56917D01*D02*
X243083Y-31625D02*
X248917Y-31625D01*
X248917Y-29375D01*
X243083Y-29375D01*
X243083Y-31625D01*D02*
X243083Y-42625D02*
X248917Y-42625D01*
X248917Y-40375D01*
X243083Y-40375D01*
X243083Y-42625D01*D02*
X383083Y39375D02*
X388917Y39375D01*
X388917Y41625D01*
X383083Y41625D01*
X383083Y39375D01*D02*
X383083Y50375D02*
X388917Y50375D01*
X388917Y52625D01*
X383083Y52625D01*
X383083Y50375D01*D02*
X381083Y78375D02*
X386917Y78375D01*
X386917Y80625D01*
X381083Y80625D01*
X381083Y78375D01*D02*
X381083Y67375D02*
X386917Y67375D01*
X386917Y69625D01*
X381083Y69625D01*
X381083Y67375D01*D02*
X371083Y39375D02*
X376917Y39375D01*
X376917Y41625D01*
X371083Y41625D01*
X371083Y39375D01*D02*
X371083Y50375D02*
X376917Y50375D01*
X376917Y52625D01*
X371083Y52625D01*
X371083Y50375D01*D02*
X245083Y-71625D02*
X250917Y-71625D01*
X250917Y-69375D01*
X245083Y-69375D01*
X245083Y-71625D01*D02*
X245083Y-82625D02*
X250917Y-82625D01*
X250917Y-80375D01*
X245083Y-80375D01*
X245083Y-82625D01*D02*
X281083Y-82625D02*
X286917Y-82625D01*
X286917Y-80375D01*
X281083Y-80375D01*
X281083Y-82625D01*D02*
X281083Y-71625D02*
X286917Y-71625D01*
X286917Y-69375D01*
X281083Y-69375D01*
X281083Y-71625D01*D02*
X293083Y-71625D02*
X298917Y-71625D01*
X298917Y-69375D01*
X293083Y-69375D01*
X293083Y-71625D01*D02*
X293083Y-82625D02*
X298917Y-82625D01*
X298917Y-80375D01*
X293083Y-80375D01*
X293083Y-82625D01*D02*
X297083Y-99625D02*
X302917Y-99625D01*
X302917Y-97375D01*
X297083Y-97375D01*
X297083Y-99625D01*D02*
X297083Y-110625D02*
X302917Y-110625D01*
X302917Y-108375D01*
X297083Y-108375D01*
X297083Y-110625D01*D02*
X309083Y-110625D02*
X314917Y-110625D01*
X314917Y-108375D01*
X309083Y-108375D01*
X309083Y-110625D01*D02*
X309083Y-99625D02*
X314917Y-99625D01*
X314917Y-97375D01*
X309083Y-97375D01*
X309083Y-99625D01*D02*
X344608Y-126917D02*
X346858Y-126917D01*
X346858Y-121083D01*
X344608Y-121083D01*
X344608Y-126917D01*D02*
X333608Y-126917D02*
X335858Y-126917D01*
X335858Y-121083D01*
X333608Y-121083D01*
X333608Y-126917D01*D02*
X221083Y-83625D02*
X226917Y-83625D01*
X226917Y-81375D01*
X221083Y-81375D01*
X221083Y-83625D01*D02*
X221083Y-94625D02*
X226917Y-94625D01*
X226917Y-92375D01*
X221083Y-92375D01*
X221083Y-94625D01*D02*
G54D21*
X253571Y-134929D03*
X260642Y-142000D03*
X253571Y-149071D03*
X282660Y-170500D03*
X410000Y10000D03*
X420000Y0D03*
X420000Y10000D03*
X304500Y23000D03*
X428787Y-151713D03*
X442929Y-137571D03*
X435858Y-144642D03*
X364000Y-500D03*
X222000Y-61000D03*
X412500Y52000D03*
X482000Y-86000D03*
X482000Y-16000D03*
X482000Y-26000D03*
X482000Y-66000D03*
X482000Y-36000D03*
X482000Y-46000D03*
X482000Y-56000D03*
X482000Y-96000D03*
X482000Y-76000D03*
X322000Y-18500D03*
G54D22*
X246500Y-142000D03*
X450000Y-130500D03*
G54D23*
X245027Y-142000D02*
X246500Y-143473D01*
X247973Y-142000D01*
X246500Y-140527D01*
X245027Y-142000D01*D02*
X272577Y-165881D02*
X274381Y-166923D01*
X275423Y-165119D01*
X273619Y-164077D01*
X272577Y-165881D01*D02*
X408959Y-1041D02*
X411041Y-1041D01*
X411041Y1041D01*
X408959Y1041D01*
X408959Y-1041D01*D02*
X303459Y31959D02*
X305541Y31959D01*
X305541Y34041D01*
X303459Y34041D01*
X303459Y31959D01*D02*
X450000Y-129027D02*
X448527Y-130500D01*
X450000Y-131973D01*
X451473Y-130500D01*
X450000Y-129027D01*D02*
X362959Y8459D02*
X365041Y8459D01*
X365041Y10541D01*
X362959Y10541D01*
X362959Y8459D01*D02*
X230959Y-62041D02*
X233041Y-62041D01*
X233041Y-59959D01*
X230959Y-59959D01*
X230959Y-62041D01*D02*
X411459Y40959D02*
X413541Y40959D01*
X413541Y43041D01*
X411459Y43041D01*
X411459Y40959D01*D02*
X480959Y-7041D02*
X483041Y-7041D01*
X483041Y-4959D01*
X480959Y-4959D01*
X480959Y-7041D01*D02*
X320959Y-29541D02*
X323041Y-29541D01*
X323041Y-27459D01*
X320959Y-27459D01*
X320959Y-29541D01*D02*
G54D24*
X274000Y-165500D03*
G54D25*
X302700Y-180859D03*
X302826Y-180641D03*
X293174Y-175359D03*
X293300Y-175141D03*
G54D26*
X288000Y-153500D03*
X288000Y-142500D03*
X388000Y9500D03*
X388000Y-1500D03*
X328000Y-189500D03*
X328000Y-178500D03*
X340000Y-189500D03*
X340000Y-178500D03*
X358000Y-178500D03*
X358000Y-189500D03*
X370000Y-178500D03*
X370000Y-189500D03*
X378000Y-153500D03*
X378000Y-142500D03*
X390000Y-153500D03*
X390000Y-142500D03*
X304000Y9500D03*
X304000Y-1500D03*
X316000Y9500D03*
X316000Y-1500D03*
X328000Y-1500D03*
X328000Y9500D03*
X340000Y9500D03*
X340000Y-1500D03*
X352000Y9500D03*
X352000Y-1500D03*
X312000Y85500D03*
X312000Y74500D03*
X324000Y74500D03*
X324000Y85500D03*
X336000Y85500D03*
X336000Y74500D03*
X348000Y74500D03*
X348000Y85500D03*
X360000Y74500D03*
X360000Y85500D03*
X372000Y74500D03*
X372000Y85500D03*
X396000Y79500D03*
X396000Y68500D03*
X454000Y-97500D03*
X454000Y-86500D03*
X442000Y-97500D03*
X442000Y-86500D03*
X320000Y51500D03*
X320000Y40500D03*
X300000Y-153500D03*
X300000Y-142500D03*
X246000Y-30500D03*
X246000Y-41500D03*
X386000Y40500D03*
X386000Y51500D03*
X384000Y79500D03*
X384000Y68500D03*
X374000Y40500D03*
X374000Y51500D03*
X248000Y-70500D03*
X248000Y-81500D03*
X284000Y-81500D03*
X284000Y-70500D03*
X296000Y-70500D03*
X296000Y-81500D03*
X300000Y-98500D03*
X300000Y-109500D03*
X312000Y-109500D03*
X312000Y-98500D03*
X224000Y-82500D03*
X224000Y-93500D03*
G54D27*
X336323Y34583D03*
X338882Y34583D03*
X341441Y34583D03*
X344000Y34583D03*
X346559Y34583D03*
X349118Y34583D03*
X351677Y34583D03*
X338882Y57417D03*
X336323Y57417D03*
X341441Y57417D03*
X346559Y57417D03*
X344000Y57417D03*
X349118Y57417D03*
X351677Y57417D03*
G54D28*
X357472Y-143740D03*
X357472Y-136260D03*
X366528Y-140000D03*
X329472Y-143740D03*
X329472Y-136260D03*
X338528Y-140000D03*
G54D29*
X331000Y-159833D03*
X331000Y-168167D03*
X341000Y-164000D03*
X359000Y-159833D03*
X359000Y-168167D03*
X369000Y-164000D03*
G54D30*
X375500Y10000D03*
X294500Y73500D03*
X398500Y42000D03*
X277500Y65000D03*
G54D31*
X410000Y0D03*
X304500Y33000D03*
X364000Y9500D03*
X232000Y-61000D03*
X412500Y42000D03*
X482000Y-6000D03*
X322000Y-28500D03*
G54D32*
X407667Y-154780D03*
X408780Y-153667D03*
X419220Y-166333D03*
X420333Y-165220D03*
G54D33*
X385500Y-32000D03*
X374500Y-32000D03*
X385500Y-20000D03*
X374500Y-20000D03*
X222500Y-16000D03*
X233500Y-16000D03*
X256500Y-54000D03*
X267500Y-54000D03*
X345733Y-124000D03*
X334733Y-124000D03*
G54D34*
X256882Y-39740D03*
X267118Y-39740D03*
X256882Y-36000D03*
X256882Y-32260D03*
X267118Y-32260D03*
G54D35*
X338378Y-109421D03*
X342315Y-109421D03*
X340346Y-109421D03*
X344283Y-109421D03*
X346252Y-109421D03*
X348220Y-109421D03*
X350189Y-109421D03*
X352157Y-109421D03*
X354126Y-109421D03*
X358063Y-109421D03*
X356094Y-109421D03*
X360031Y-109421D03*
X362000Y-109421D03*
X367906Y-109421D03*
X363969Y-109421D03*
X365937Y-109421D03*
X369874Y-109421D03*
X373811Y-109421D03*
X371843Y-109421D03*
X375780Y-109421D03*
X377748Y-109421D03*
X379717Y-109421D03*
X381685Y-109421D03*
X383654Y-109421D03*
X385622Y-109421D03*
X338378Y-47079D03*
X342315Y-47079D03*
X340346Y-47079D03*
X344283Y-47079D03*
X346252Y-47079D03*
X348220Y-47079D03*
X350189Y-47079D03*
X352157Y-47079D03*
X354126Y-47079D03*
X360031Y-47079D03*
X358063Y-47079D03*
X356094Y-47079D03*
X362000Y-47079D03*
X365937Y-47079D03*
X363969Y-47079D03*
X367906Y-47079D03*
X369874Y-47079D03*
X373811Y-47079D03*
X371843Y-47079D03*
X375780Y-47079D03*
X377748Y-47079D03*
X379717Y-47079D03*
X381685Y-47079D03*
X383654Y-47079D03*
X385622Y-47079D03*
G54D36*
X337788Y-114421D02*
X338968Y-114421D01*
X338968Y-104421D01*
X337788Y-104421D01*
X337788Y-114421D01*D02*
X341725Y-114421D02*
X342905Y-114421D01*
X342905Y-104421D01*
X341725Y-104421D01*
X341725Y-114421D01*D02*
X339756Y-114421D02*
X340936Y-114421D01*
X340936Y-104421D01*
X339756Y-104421D01*
X339756Y-114421D01*D02*
X343693Y-114421D02*
X344873Y-114421D01*
X344873Y-104421D01*
X343693Y-104421D01*
X343693Y-114421D01*D02*
X345662Y-114421D02*
X346842Y-114421D01*
X346842Y-104421D01*
X345662Y-104421D01*
X345662Y-114421D01*D02*
X347630Y-114421D02*
X348810Y-114421D01*
X348810Y-104421D01*
X347630Y-104421D01*
X347630Y-114421D01*D02*
X349599Y-114421D02*
X350779Y-114421D01*
X350779Y-104421D01*
X349599Y-104421D01*
X349599Y-114421D01*D02*
X351567Y-114421D02*
X352747Y-114421D01*
X352747Y-104421D01*
X351567Y-104421D01*
X351567Y-114421D01*D02*
X353536Y-114421D02*
X354716Y-114421D01*
X354716Y-104421D01*
X353536Y-104421D01*
X353536Y-114421D01*D02*
X357473Y-114421D02*
X358653Y-114421D01*
X358653Y-104421D01*
X357473Y-104421D01*
X357473Y-114421D01*D02*
X355504Y-114421D02*
X356684Y-114421D01*
X356684Y-104421D01*
X355504Y-104421D01*
X355504Y-114421D01*D02*
X359441Y-114421D02*
X360621Y-114421D01*
X360621Y-104421D01*
X359441Y-104421D01*
X359441Y-114421D01*D02*
X361410Y-114421D02*
X362590Y-114421D01*
X362590Y-104421D01*
X361410Y-104421D01*
X361410Y-114421D01*D02*
X367316Y-114421D02*
X368496Y-114421D01*
X368496Y-104421D01*
X367316Y-104421D01*
X367316Y-114421D01*D02*
X363379Y-114421D02*
X364559Y-114421D01*
X364559Y-104421D01*
X363379Y-104421D01*
X363379Y-114421D01*D02*
X365347Y-114421D02*
X366527Y-114421D01*
X366527Y-104421D01*
X365347Y-104421D01*
X365347Y-114421D01*D02*
X369284Y-114421D02*
X370464Y-114421D01*
X370464Y-104421D01*
X369284Y-104421D01*
X369284Y-114421D01*D02*
X373221Y-114421D02*
X374401Y-114421D01*
X374401Y-104421D01*
X373221Y-104421D01*
X373221Y-114421D01*D02*
X371253Y-114421D02*
X372433Y-114421D01*
X372433Y-104421D01*
X371253Y-104421D01*
X371253Y-114421D01*D02*
X375190Y-114421D02*
X376370Y-114421D01*
X376370Y-104421D01*
X375190Y-104421D01*
X375190Y-114421D01*D02*
X377158Y-114421D02*
X378338Y-114421D01*
X378338Y-104421D01*
X377158Y-104421D01*
X377158Y-114421D01*D02*
X379127Y-114421D02*
X380307Y-114421D01*
X380307Y-104421D01*
X379127Y-104421D01*
X379127Y-114421D01*D02*
X381095Y-114421D02*
X382275Y-114421D01*
X382275Y-104421D01*
X381095Y-104421D01*
X381095Y-114421D01*D02*
X383064Y-114421D02*
X384244Y-114421D01*
X384244Y-104421D01*
X383064Y-104421D01*
X383064Y-114421D01*D02*
X385032Y-114421D02*
X386212Y-114421D01*
X386212Y-104421D01*
X385032Y-104421D01*
X385032Y-114421D01*D02*
X325579Y-102212D02*
X335579Y-102212D01*
X335579Y-101032D01*
X325579Y-101032D01*
X325579Y-102212D01*D02*
X388421Y-102212D02*
X398421Y-102212D01*
X398421Y-101032D01*
X388421Y-101032D01*
X388421Y-102212D01*D02*
X325579Y-96307D02*
X335579Y-96307D01*
X335579Y-95127D01*
X325579Y-95127D01*
X325579Y-96307D01*D02*
X325579Y-98275D02*
X335579Y-98275D01*
X335579Y-97095D01*
X325579Y-97095D01*
X325579Y-98275D01*D02*
X325579Y-100244D02*
X335579Y-100244D01*
X335579Y-99064D01*
X325579Y-99064D01*
X325579Y-100244D01*D02*
X325579Y-94338D02*
X335579Y-94338D01*
X335579Y-93158D01*
X325579Y-93158D01*
X325579Y-94338D01*D02*
X388421Y-96307D02*
X398421Y-96307D01*
X398421Y-95127D01*
X388421Y-95127D01*
X388421Y-96307D01*D02*
X388421Y-98275D02*
X398421Y-98275D01*
X398421Y-97095D01*
X388421Y-97095D01*
X388421Y-98275D01*D02*
X388421Y-100244D02*
X398421Y-100244D01*
X398421Y-99064D01*
X388421Y-99064D01*
X388421Y-100244D01*D02*
X388421Y-94338D02*
X398421Y-94338D01*
X398421Y-93158D01*
X388421Y-93158D01*
X388421Y-94338D01*D02*
X325579Y-92370D02*
X335579Y-92370D01*
X335579Y-91190D01*
X325579Y-91190D01*
X325579Y-92370D01*D02*
X325579Y-90401D02*
X335579Y-90401D01*
X335579Y-89221D01*
X325579Y-89221D01*
X325579Y-90401D01*D02*
X325579Y-88433D02*
X335579Y-88433D01*
X335579Y-87253D01*
X325579Y-87253D01*
X325579Y-88433D01*D02*
X325579Y-86464D02*
X335579Y-86464D01*
X335579Y-85284D01*
X325579Y-85284D01*
X325579Y-86464D01*D02*
X388421Y-90401D02*
X398421Y-90401D01*
X398421Y-89221D01*
X388421Y-89221D01*
X388421Y-90401D01*D02*
X388421Y-92370D02*
X398421Y-92370D01*
X398421Y-91190D01*
X388421Y-91190D01*
X388421Y-92370D01*D02*
X388421Y-88433D02*
X398421Y-88433D01*
X398421Y-87253D01*
X388421Y-87253D01*
X388421Y-88433D01*D02*
X388421Y-86464D02*
X398421Y-86464D01*
X398421Y-85284D01*
X388421Y-85284D01*
X388421Y-86464D01*D02*
X325579Y-80559D02*
X335579Y-80559D01*
X335579Y-79379D01*
X325579Y-79379D01*
X325579Y-80559D01*D02*
X325579Y-82527D02*
X335579Y-82527D01*
X335579Y-81347D01*
X325579Y-81347D01*
X325579Y-82527D01*D02*
X325579Y-84496D02*
X335579Y-84496D01*
X335579Y-83316D01*
X325579Y-83316D01*
X325579Y-84496D01*D02*
X325579Y-78590D02*
X335579Y-78590D01*
X335579Y-77410D01*
X325579Y-77410D01*
X325579Y-78590D01*D02*
X388421Y-80559D02*
X398421Y-80559D01*
X398421Y-79379D01*
X388421Y-79379D01*
X388421Y-80559D01*D02*
X388421Y-82527D02*
X398421Y-82527D01*
X398421Y-81347D01*
X388421Y-81347D01*
X388421Y-82527D01*D02*
X388421Y-84496D02*
X398421Y-84496D01*
X398421Y-83316D01*
X388421Y-83316D01*
X388421Y-84496D01*D02*
X388421Y-78590D02*
X398421Y-78590D01*
X398421Y-77410D01*
X388421Y-77410D01*
X388421Y-78590D01*D02*
X325579Y-76621D02*
X335579Y-76621D01*
X335579Y-75441D01*
X325579Y-75441D01*
X325579Y-76621D01*D02*
X325579Y-74653D02*
X335579Y-74653D01*
X335579Y-73473D01*
X325579Y-73473D01*
X325579Y-74653D01*D02*
X325579Y-72684D02*
X335579Y-72684D01*
X335579Y-71504D01*
X325579Y-71504D01*
X325579Y-72684D01*D02*
X325579Y-70716D02*
X335579Y-70716D01*
X335579Y-69536D01*
X325579Y-69536D01*
X325579Y-70716D01*D02*
X388421Y-76621D02*
X398421Y-76621D01*
X398421Y-75441D01*
X388421Y-75441D01*
X388421Y-76621D01*D02*
X388421Y-74653D02*
X398421Y-74653D01*
X398421Y-73473D01*
X388421Y-73473D01*
X388421Y-74653D01*D02*
X388421Y-72684D02*
X398421Y-72684D01*
X398421Y-71504D01*
X388421Y-71504D01*
X388421Y-72684D01*D02*
X388421Y-70716D02*
X398421Y-70716D01*
X398421Y-69536D01*
X388421Y-69536D01*
X388421Y-70716D01*D02*
X325579Y-64810D02*
X335579Y-64810D01*
X335579Y-63630D01*
X325579Y-63630D01*
X325579Y-64810D01*D02*
X325579Y-66779D02*
X335579Y-66779D01*
X335579Y-65599D01*
X325579Y-65599D01*
X325579Y-66779D01*D02*
X325579Y-68747D02*
X335579Y-68747D01*
X335579Y-67567D01*
X325579Y-67567D01*
X325579Y-68747D01*D02*
X325579Y-62842D02*
X335579Y-62842D01*
X335579Y-61662D01*
X325579Y-61662D01*
X325579Y-62842D01*D02*
X388421Y-64810D02*
X398421Y-64810D01*
X398421Y-63630D01*
X388421Y-63630D01*
X388421Y-64810D01*D02*
X388421Y-66779D02*
X398421Y-66779D01*
X398421Y-65599D01*
X388421Y-65599D01*
X388421Y-66779D01*D02*
X388421Y-68747D02*
X398421Y-68747D01*
X398421Y-67567D01*
X388421Y-67567D01*
X388421Y-68747D01*D02*
X388421Y-62842D02*
X398421Y-62842D01*
X398421Y-61662D01*
X388421Y-61662D01*
X388421Y-62842D01*D02*
X325579Y-60873D02*
X335579Y-60873D01*
X335579Y-59693D01*
X325579Y-59693D01*
X325579Y-60873D01*D02*
X325579Y-58905D02*
X335579Y-58905D01*
X335579Y-57725D01*
X325579Y-57725D01*
X325579Y-58905D01*D02*
X325579Y-56936D02*
X335579Y-56936D01*
X335579Y-55756D01*
X325579Y-55756D01*
X325579Y-56936D01*D02*
X325579Y-54968D02*
X335579Y-54968D01*
X335579Y-53788D01*
X325579Y-53788D01*
X325579Y-54968D01*D02*
X388421Y-58905D02*
X398421Y-58905D01*
X398421Y-57725D01*
X388421Y-57725D01*
X388421Y-58905D01*D02*
X388421Y-60873D02*
X398421Y-60873D01*
X398421Y-59693D01*
X388421Y-59693D01*
X388421Y-60873D01*D02*
X388421Y-56936D02*
X398421Y-56936D01*
X398421Y-55756D01*
X388421Y-55756D01*
X388421Y-56936D01*D02*
X388421Y-54968D02*
X398421Y-54968D01*
X398421Y-53788D01*
X388421Y-53788D01*
X388421Y-54968D01*D02*
X337788Y-52079D02*
X338968Y-52079D01*
X338968Y-42079D01*
X337788Y-42079D01*
X337788Y-52079D01*D02*
X341725Y-52079D02*
X342905Y-52079D01*
X342905Y-42079D01*
X341725Y-42079D01*
X341725Y-52079D01*D02*
X339756Y-52079D02*
X340936Y-52079D01*
X340936Y-42079D01*
X339756Y-42079D01*
X339756Y-52079D01*D02*
X343693Y-52079D02*
X344873Y-52079D01*
X344873Y-42079D01*
X343693Y-42079D01*
X343693Y-52079D01*D02*
X345662Y-52079D02*
X346842Y-52079D01*
X346842Y-42079D01*
X345662Y-42079D01*
X345662Y-52079D01*D02*
X347630Y-52079D02*
X348810Y-52079D01*
X348810Y-42079D01*
X347630Y-42079D01*
X347630Y-52079D01*D02*
X349599Y-52079D02*
X350779Y-52079D01*
X350779Y-42079D01*
X349599Y-42079D01*
X349599Y-52079D01*D02*
X351567Y-52079D02*
X352747Y-52079D01*
X352747Y-42079D01*
X351567Y-42079D01*
X351567Y-52079D01*D02*
X353536Y-52079D02*
X354716Y-52079D01*
X354716Y-42079D01*
X353536Y-42079D01*
X353536Y-52079D01*D02*
X359441Y-52079D02*
X360621Y-52079D01*
X360621Y-42079D01*
X359441Y-42079D01*
X359441Y-52079D01*D02*
X357473Y-52079D02*
X358653Y-52079D01*
X358653Y-42079D01*
X357473Y-42079D01*
X357473Y-52079D01*D02*
X355504Y-52079D02*
X356684Y-52079D01*
X356684Y-42079D01*
X355504Y-42079D01*
X355504Y-52079D01*D02*
X361410Y-52079D02*
X362590Y-52079D01*
X362590Y-42079D01*
X361410Y-42079D01*
X361410Y-52079D01*D02*
X365347Y-52079D02*
X366527Y-52079D01*
X366527Y-42079D01*
X365347Y-42079D01*
X365347Y-52079D01*D02*
X363379Y-52079D02*
X364559Y-52079D01*
X364559Y-42079D01*
X363379Y-42079D01*
X363379Y-52079D01*D02*
X367316Y-52079D02*
X368496Y-52079D01*
X368496Y-42079D01*
X367316Y-42079D01*
X367316Y-52079D01*D02*
X369284Y-52079D02*
X370464Y-52079D01*
X370464Y-42079D01*
X369284Y-42079D01*
X369284Y-52079D01*D02*
X373221Y-52079D02*
X374401Y-52079D01*
X374401Y-42079D01*
X373221Y-42079D01*
X373221Y-52079D01*D02*
X371253Y-52079D02*
X372433Y-52079D01*
X372433Y-42079D01*
X371253Y-42079D01*
X371253Y-52079D01*D02*
X375190Y-52079D02*
X376370Y-52079D01*
X376370Y-42079D01*
X375190Y-42079D01*
X375190Y-52079D01*D02*
X377158Y-52079D02*
X378338Y-52079D01*
X378338Y-42079D01*
X377158Y-42079D01*
X377158Y-52079D01*D02*
X379127Y-52079D02*
X380307Y-52079D01*
X380307Y-42079D01*
X379127Y-42079D01*
X379127Y-52079D01*D02*
X381095Y-52079D02*
X382275Y-52079D01*
X382275Y-42079D01*
X381095Y-42079D01*
X381095Y-52079D01*D02*
X383064Y-52079D02*
X384244Y-52079D01*
X384244Y-42079D01*
X383064Y-42079D01*
X383064Y-52079D01*D02*
X385032Y-52079D02*
X386212Y-52079D01*
X386212Y-42079D01*
X385032Y-42079D01*
X385032Y-52079D01*D02*
G54D37*
X330579Y-101622D03*
X393421Y-101622D03*
X330579Y-95717D03*
X330579Y-97685D03*
X330579Y-99654D03*
X330579Y-93748D03*
X393421Y-95717D03*
X393421Y-97685D03*
X393421Y-99654D03*
X393421Y-93748D03*
X330579Y-91780D03*
X330579Y-89811D03*
X330579Y-87843D03*
X330579Y-85874D03*
X393421Y-89811D03*
X393421Y-91780D03*
X393421Y-87843D03*
X393421Y-85874D03*
X330579Y-79969D03*
X330579Y-81937D03*
X330579Y-83906D03*
X330579Y-78000D03*
X393421Y-79969D03*
X393421Y-81937D03*
X393421Y-83906D03*
X393421Y-78000D03*
X330579Y-76031D03*
X330579Y-74063D03*
X330579Y-72094D03*
X330579Y-70126D03*
X393421Y-76031D03*
X393421Y-74063D03*
X393421Y-72094D03*
X393421Y-70126D03*
X330579Y-64220D03*
X330579Y-66189D03*
X330579Y-68157D03*
X330579Y-62252D03*
X393421Y-64220D03*
X393421Y-66189D03*
X393421Y-68157D03*
X393421Y-62252D03*
X330579Y-60283D03*
X330579Y-58315D03*
X330579Y-56346D03*
X330579Y-54378D03*
X393421Y-58315D03*
X393421Y-60283D03*
X393421Y-56346D03*
X393421Y-54378D03*
G54D38*
X209551Y-32012D03*
X209551Y-39886D03*
G54D39*
X227051Y-40949D03*
X227051Y-30949D03*

M02*
