G04 Generated by Ultiboard 13.0 *
%FSLAX25Y25*%
%MOIN*%

%ADD10C,0.00001*%
%ADD11C,0.01000*%
%ADD12C,0.00500*%
%ADD13C,0.03937*%
%ADD14C,0.06334*%
%ADD15P,0.02945X4*%
%ADD16C,0.03917*%
%ADD17P,0.02945X4X15*%
%ADD18C,0.08334*%
%ADD19R,0.02083X0.02083*%
%ADD20C,0.04156*%
%ADD21C,0.05337*%


G04 ColorRGB 0000FF for the following layer *
%LNCopper Bottom*%
%LPD*%
G54D10*
G36*
X201062Y-89510D02*
X201062Y-89510D01*
X301990Y-89510D01*
X301990Y-111995D01*
G75*
D01*
G03X302579Y-113421I2010J-4*
G01*
X302579Y-113421D01*
X318490Y-129332D01*
X318490Y-153668D01*
X317578Y-154580D01*
G75*
D01*
G03X315243Y-160990I-579J-3419*
G01*
X315243Y-160990D01*
X295827Y-160990D01*
G75*
D01*
G03X289586Y-162387I-2827J-2008*
G01*
G75*
D01*
G03X289586Y-163613I1913J-613*
G01*
G75*
D01*
G03X295827Y-165010I3414J611*
G01*
X295827Y-165010D01*
X353997Y-165010D01*
G75*
D01*
G03X354736Y-164870I2J2010*
G01*
G74*
D01*
G03X355423Y-164419I736J1869*
G01*
X355423Y-164419D01*
X372419Y-147423D01*
G75*
D01*
G03X373010Y-146000I-1418J1423*
G01*
X373010Y-146000D01*
X373010Y-125832D01*
X375832Y-123010D01*
X376173Y-123010D01*
G75*
D01*
G03X376173Y-118990I2826J2010*
G01*
X376173Y-118990D01*
X375002Y-118990D01*
G75*
D01*
G03X373579Y-119579I-1J-2010*
G01*
X373579Y-119579D01*
X369579Y-123579D01*
G75*
D01*
G03X368990Y-125003I1420J-1421*
G01*
X368990Y-125003D01*
X368990Y-145168D01*
X353168Y-160990D01*
X318757Y-160990D01*
G75*
D01*
G03X320420Y-157422I-1757J2990*
G01*
X320420Y-157422D01*
X321919Y-155923D01*
G75*
D01*
G03X322510Y-154500I-1418J1423*
G01*
X322510Y-154500D01*
X322510Y-128500D01*
G74*
D01*
G03X321919Y-127077I2010J1*
G01*
X321919Y-127077D01*
X306010Y-111168D01*
X306010Y-89510D01*
X307990Y-89510D01*
X307990Y-110995D01*
G75*
D01*
G03X308579Y-112421I2010J-4*
G01*
X308579Y-112421D01*
X347580Y-151422D01*
G75*
D01*
G03X350422Y-148580I3420J-578*
G01*
X350422Y-148580D01*
X312010Y-110168D01*
X312010Y-89510D01*
X352793Y-89510D01*
G74*
D01*
G03X354216Y-88919I1J2010*
G01*
X354216Y-88919D01*
X381491Y-61644D01*
X381491Y-61644D01*
X391646Y-51489D01*
X395990Y-55832D01*
X395990Y-118173D01*
G75*
D01*
G03X400010Y-118173I2010J-2826*
G01*
X400010Y-118173D01*
X400010Y-55000D01*
G74*
D01*
G03X399419Y-53577I2010J1*
G01*
X399419Y-53577D01*
X394489Y-48646D01*
X396146Y-46989D01*
X402490Y-53332D01*
X402490Y-109606D01*
G75*
D01*
G03X406510Y-108877I2510J-2393*
G01*
X406510Y-108877D01*
X406510Y-52500D01*
G74*
D01*
G03X405919Y-51077I2010J1*
G01*
X405919Y-51077D01*
X398989Y-44146D01*
X428126Y-15009D01*
X428126Y-15009D01*
X428990Y-14145D01*
X428990Y-77173D01*
G75*
D01*
G03X433010Y-77173I2010J-2826*
G01*
X433010Y-77173D01*
X433010Y-10125D01*
X452154Y9019D01*
G74*
D01*
G03X462981Y19846I653J11480*
G01*
X462981Y19846D01*
X469214Y26079D01*
X469214Y26079D01*
X469214Y26079D01*
X472571Y29436D01*
G75*
D01*
G02X201062Y-89510I-126571J-80436*
G01*
D02*
G37*
%LPC*%
G36*
X283583Y-165925D02*
G75*
D01*
G03X287235Y-169577I-923J-4575*
G01*
X287235Y-169577D01*
X294148Y-176490D01*
X278332Y-176490D01*
X270535Y-168693D01*
G74*
D01*
G03X270840Y-168891I2042J2812*
G01*
X270840Y-168891D01*
X272644Y-169932D01*
G75*
D01*
G03X277391Y-168660I1738J3008*
G01*
X277391Y-168660D01*
X278432Y-166856D01*
G75*
D01*
G03X277160Y-162109I-3008J1738*
G01*
X277160Y-162109D01*
X275356Y-161068D01*
G75*
D01*
G03X270609Y-162340I-1738J-3008*
G01*
X270609Y-162340D01*
X269568Y-164144D01*
G75*
D01*
G03X269765Y-167923I3008J-1738*
G01*
X269765Y-167923D01*
X267510Y-165668D01*
X267510Y-147500D01*
G74*
D01*
G03X266919Y-146077I2010J1*
G01*
X266919Y-146077D01*
X264853Y-144011D01*
G75*
D01*
G03X261703Y-146545I-4211J2010*
G01*
X261703Y-146545D01*
X263490Y-148332D01*
X263490Y-166497D01*
G75*
D01*
G03X264079Y-167921I2010J-2*
G01*
X264079Y-167921D01*
X276079Y-179921D01*
G75*
D01*
G03X277502Y-180510I1421J1420*
G01*
X277502Y-180510D01*
X293668Y-180510D01*
X304079Y-190921D01*
G75*
D01*
G03X305503Y-191510I1421J1420*
G01*
X305503Y-191510D01*
X389000Y-191510D01*
G74*
D01*
G03X390423Y-190919I1J2010*
G01*
X390423Y-190919D01*
X405332Y-176010D01*
X421497Y-176010D01*
G75*
D01*
G03X422073Y-175926I1J2010*
G01*
G74*
D01*
G03X422923Y-175419I572J1926*
G01*
X422923Y-175419D01*
X473169Y-125173D01*
G75*
D01*
G03X473760Y-123750I-1418J1423*
G01*
X473760Y-123750D01*
X473760Y-96250D01*
G74*
D01*
G03X473169Y-94827I2010J1*
G01*
X473169Y-94827D01*
X470423Y-92081D01*
G74*
D01*
G03X469734Y-91629I1423J1418*
G01*
G75*
D01*
G03X468997Y-91490I-734J-1870*
G01*
X468997Y-91490D01*
X428132Y-91490D01*
G75*
D01*
G03X427010Y-87173I-3131J1490*
G01*
X427010Y-87173D01*
X427010Y-48827D01*
G75*
D01*
G03X422990Y-48827I-2010J2826*
G01*
X422990Y-48827D01*
X422990Y-87173D01*
G74*
D01*
G03X422510Y-87586I2012J2824*
G01*
X422510Y-87586D01*
X422510Y-50500D01*
G74*
D01*
G03X421919Y-49077I2010J1*
G01*
X421919Y-49077D01*
X420010Y-47168D01*
X420010Y-44827D01*
G75*
D01*
G03X415990Y-44827I-2010J2826*
G01*
X415990Y-44827D01*
X415990Y-47997D01*
G75*
D01*
G03X415996Y-48154I2010J-2*
G01*
X415996Y-48154D01*
X412010Y-44168D01*
X412010Y-42827D01*
G75*
D01*
G03X407990Y-42827I-2010J2826*
G01*
X407990Y-42827D01*
X407990Y-44998D01*
G75*
D01*
G03X408579Y-46421I2010J-1*
G01*
X408579Y-46421D01*
X415990Y-53832D01*
X415990Y-54243D01*
G75*
D01*
G03X409990Y-57724I-3000J-1740*
G01*
X409990Y-57724D01*
X409990Y-96173D01*
G75*
D01*
G03X414010Y-96173I2010J-2826*
G01*
X414010Y-96173D01*
X414010Y-59318D01*
G74*
D01*
G03X415990Y-57757I1010J3318*
G01*
X415990Y-57757D01*
X415990Y-92997D01*
G75*
D01*
G03X416579Y-94421I2010J-2*
G01*
X416579Y-94421D01*
X419079Y-96921D01*
G75*
D01*
G03X420501Y-97510I1421J1420*
G01*
X420501Y-97510D01*
X461868Y-97510D01*
G75*
D01*
G03X461580Y-99578I3132J-1490*
G01*
X461580Y-99578D01*
X457668Y-103490D01*
X414394Y-103490D01*
G75*
D01*
G03X415123Y-107510I-2393J-2510*
G01*
X415123Y-107510D01*
X458500Y-107510D01*
G74*
D01*
G03X459923Y-106919I1J2010*
G01*
X459923Y-106919D01*
X464422Y-102420D01*
G75*
D01*
G03X467490Y-101414I578J3420*
G01*
X467490Y-101414D01*
X467490Y-121168D01*
X419668Y-168990D01*
X404002Y-168990D01*
G75*
D01*
G03X402579Y-169579I-1J-2010*
G01*
X402579Y-169579D01*
X386668Y-185490D01*
X308832Y-185490D01*
X287002Y-163660D01*
X285510Y-162168D01*
X285510Y-152500D01*
G74*
D01*
G03X284919Y-151077I2010J1*
G01*
X284919Y-151077D01*
X264923Y-131081D01*
G74*
D01*
G03X263500Y-130490I1423J1418*
G01*
X263500Y-130490D01*
X256003Y-130490D01*
G75*
D01*
G03X255329Y-130606I-1J-2010*
G01*
G75*
D01*
G03X258219Y-134510I-1757J-4322*
G01*
X258219Y-134510D01*
X262668Y-134510D01*
X281490Y-153332D01*
X281490Y-162997D01*
G75*
D01*
G03X282079Y-164421I2010J-2*
G01*
X282079Y-164421D01*
X283583Y-165925D01*
D02*
G37*
G36*
X486561Y-15009D02*
G75*
D01*
G03X486561Y-15009I-4561J-991*
G01*
D02*
G37*
G36*
X453010Y-18827D02*
G75*
D01*
G03X448990Y-18827I-2010J2826*
G01*
X448990Y-18827D01*
X448990Y-67173D01*
G75*
D01*
G03X453010Y-67173I2010J-2826*
G01*
X453010Y-67173D01*
X453010Y-18827D01*
D02*
G37*
G36*
X483041Y-1483D02*
X483041Y-1483D01*
X480959Y-1483D01*
G75*
D01*
G03X477483Y-4958I-1J-3475*
G01*
X477483Y-4958D01*
X477483Y-7041D01*
G75*
D01*
G03X480959Y-10517I3476J0*
G01*
X480959Y-10517D01*
X483041Y-10517D01*
G75*
D01*
G03X486517Y-7041I0J3476*
G01*
X486517Y-7041D01*
X486517Y-4958D01*
G74*
D01*
G03X483041Y-1483I3476J1*
G01*
D02*
G37*
G36*
X215819Y-103000D02*
G75*
D01*
G03X215819Y-103000I1181J0*
G01*
D02*
G37*
G36*
X220243Y-104230D02*
X220243Y-104230D01*
X218230Y-104230D01*
X218230Y-106243D01*
G74*
D01*
G03X220243Y-104230I1230J3243*
G01*
D02*
G37*
G36*
X215770Y-106243D02*
X215770Y-106243D01*
X215770Y-104230D01*
X213757Y-104230D01*
G74*
D01*
G03X215770Y-106243I3243J1230*
G01*
D02*
G37*
G36*
X211819Y-98000D02*
G75*
D01*
G03X211819Y-98000I1181J0*
G01*
D02*
G37*
G36*
X209757Y-96770D02*
X209757Y-96770D01*
X211770Y-96770D01*
X211770Y-94757D01*
G74*
D01*
G03X209757Y-96770I1230J3243*
G01*
D02*
G37*
G36*
X211770Y-101243D02*
X211770Y-101243D01*
X211770Y-99230D01*
X209757Y-99230D01*
G74*
D01*
G03X211770Y-101243I3243J1230*
G01*
D02*
G37*
G36*
X215770Y-100087D02*
G74*
D01*
G03X216243Y-99230I2769J2088*
G01*
X216243Y-99230D01*
X214230Y-99230D01*
X214230Y-100913D01*
G74*
D01*
G03X213757Y-101770I2769J2088*
G01*
X213757Y-101770D01*
X215770Y-101770D01*
X215770Y-100087D01*
D02*
G37*
G36*
X218230Y-99757D02*
X218230Y-99757D01*
X218230Y-101770D01*
X220243Y-101770D01*
G74*
D01*
G03X218230Y-99757I3243J1230*
G01*
D02*
G37*
G36*
X214230Y-94757D02*
X214230Y-94757D01*
X214230Y-96770D01*
X216243Y-96770D01*
G74*
D01*
G03X214230Y-94757I3243J1230*
G01*
D02*
G37*
G36*
X477333Y-96000D02*
G75*
D01*
G03X477333Y-96000I4667J0*
G01*
D02*
G37*
G36*
X480345Y-90364D02*
X480345Y-90364D01*
X480345Y-87655D01*
X477636Y-87655D01*
G74*
D01*
G03X480345Y-90364I4364J1655*
G01*
D02*
G37*
G36*
X480250Y-86000D02*
G75*
D01*
G03X480250Y-86000I1750J0*
G01*
D02*
G37*
G36*
X486364Y-87655D02*
X486364Y-87655D01*
X483655Y-87655D01*
X483655Y-90364D01*
G74*
D01*
G03X486364Y-87655I1655J4364*
G01*
D02*
G37*
G36*
X477636Y-84345D02*
X477636Y-84345D01*
X480345Y-84345D01*
X480345Y-81636D01*
G74*
D01*
G03X477636Y-84345I1655J4364*
G01*
D02*
G37*
G36*
X477333Y-76000D02*
G75*
D01*
G03X477333Y-76000I4667J0*
G01*
D02*
G37*
G36*
X483655Y-81636D02*
X483655Y-81636D01*
X483655Y-84345D01*
X486364Y-84345D01*
G74*
D01*
G03X483655Y-81636I4364J1655*
G01*
D02*
G37*
G36*
X477333Y-66000D02*
G75*
D01*
G03X477333Y-66000I4667J0*
G01*
D02*
G37*
G36*
X477333Y-56000D02*
G75*
D01*
G03X477333Y-56000I4667J0*
G01*
D02*
G37*
G36*
X477333Y-46000D02*
G75*
D01*
G03X477333Y-46000I4667J0*
G01*
D02*
G37*
G36*
X477333Y-36000D02*
G75*
D01*
G03X477333Y-36000I4667J0*
G01*
D02*
G37*
G36*
X477333Y-26000D02*
G75*
D01*
G03X477333Y-26000I4667J0*
G01*
D02*
G37*
G36*
X349819Y-94000D02*
G75*
D01*
G03X349819Y-94000I1181J0*
G01*
D02*
G37*
G36*
X354243Y-95230D02*
X354243Y-95230D01*
X352230Y-95230D01*
X352230Y-97243D01*
G74*
D01*
G03X354243Y-95230I1230J3243*
G01*
D02*
G37*
G36*
X349770Y-97243D02*
X349770Y-97243D01*
X349770Y-95230D01*
X347757Y-95230D01*
G74*
D01*
G03X349770Y-97243I3243J1230*
G01*
D02*
G37*
G36*
X347757Y-92770D02*
X347757Y-92770D01*
X349770Y-92770D01*
X349770Y-90757D01*
G74*
D01*
G03X347757Y-92770I1230J3243*
G01*
D02*
G37*
G36*
X352230Y-90757D02*
X352230Y-90757D01*
X352230Y-92770D01*
X354243Y-92770D01*
G74*
D01*
G03X352230Y-90757I3243J1230*
G01*
D02*
G37*
G36*
X362770Y-89243D02*
X362770Y-89243D01*
X362770Y-87230D01*
X360757Y-87230D01*
G74*
D01*
G03X362770Y-89243I3243J1230*
G01*
D02*
G37*
G36*
X362819Y-86000D02*
G75*
D01*
G03X362819Y-86000I1181J0*
G01*
D02*
G37*
G36*
X367243Y-87230D02*
X367243Y-87230D01*
X365230Y-87230D01*
X365230Y-89243D01*
G74*
D01*
G03X367243Y-87230I1230J3243*
G01*
D02*
G37*
G36*
X360757Y-84770D02*
X360757Y-84770D01*
X362770Y-84770D01*
X362770Y-82757D01*
G74*
D01*
G03X360757Y-84770I1230J3243*
G01*
D02*
G37*
G36*
X365230Y-82757D02*
X365230Y-82757D01*
X365230Y-84770D01*
X367243Y-84770D01*
G74*
D01*
G03X365230Y-82757I3243J1230*
G01*
D02*
G37*
G36*
X376770Y-80243D02*
X376770Y-80243D01*
X376770Y-78230D01*
X374757Y-78230D01*
G74*
D01*
G03X376770Y-80243I3243J1230*
G01*
D02*
G37*
G36*
X381243Y-78230D02*
X381243Y-78230D01*
X379230Y-78230D01*
X379230Y-80243D01*
G74*
D01*
G03X381243Y-78230I1230J3243*
G01*
D02*
G37*
G36*
X376819Y-77000D02*
G75*
D01*
G03X376819Y-77000I1181J0*
G01*
D02*
G37*
G36*
X374757Y-75770D02*
X374757Y-75770D01*
X376770Y-75770D01*
X376770Y-73757D01*
G74*
D01*
G03X374757Y-75770I1230J3243*
G01*
D02*
G37*
G36*
X379230Y-73757D02*
X379230Y-73757D01*
X379230Y-75770D01*
X381243Y-75770D01*
G74*
D01*
G03X379230Y-73757I3243J1230*
G01*
D02*
G37*
G36*
X349757Y-126770D02*
X349757Y-126770D01*
X351770Y-126770D01*
X351770Y-124757D01*
G74*
D01*
G03X349757Y-126770I1230J3243*
G01*
D02*
G37*
G36*
X354230Y-124757D02*
X354230Y-124757D01*
X354230Y-126770D01*
X356243Y-126770D01*
G74*
D01*
G03X354230Y-124757I3243J1230*
G01*
D02*
G37*
G36*
X356243Y-129230D02*
X356243Y-129230D01*
X354230Y-129230D01*
X354230Y-131243D01*
G74*
D01*
G03X356243Y-129230I1230J3243*
G01*
D02*
G37*
G36*
X351770Y-131243D02*
X351770Y-131243D01*
X351770Y-129230D01*
X349757Y-129230D01*
G74*
D01*
G03X351770Y-131243I3243J1230*
G01*
D02*
G37*
G36*
X351819Y-128000D02*
G75*
D01*
G03X351819Y-128000I1181J0*
G01*
D02*
G37*
G36*
X231819Y-114000D02*
G75*
D01*
G03X231819Y-114000I1181J0*
G01*
D02*
G37*
G36*
X244043Y-138070D02*
X244043Y-138070D01*
X242570Y-139543D01*
G75*
D01*
G03X242570Y-144457I2456J-2457*
G01*
X242570Y-144457D01*
X244043Y-145930D01*
G75*
D01*
G03X248957Y-145930I2457J2456*
G01*
X248957Y-145930D01*
X250430Y-144457D01*
G75*
D01*
G03X250430Y-139543I-2456J2457*
G01*
X250430Y-139543D01*
X248957Y-138070D01*
G75*
D01*
G03X244043Y-138070I-2457J-2456*
G01*
D02*
G37*
G36*
X251821Y-149071D02*
G75*
D01*
G03X251821Y-149071I1750J0*
G01*
D02*
G37*
G36*
X251916Y-153435D02*
X251916Y-153435D01*
X251916Y-150726D01*
X249207Y-150726D01*
G74*
D01*
G03X251916Y-153435I4364J1655*
G01*
D02*
G37*
G36*
X257935Y-150726D02*
X257935Y-150726D01*
X255226Y-150726D01*
X255226Y-153435D01*
G74*
D01*
G03X257935Y-150726I1655J4364*
G01*
D02*
G37*
G36*
X249207Y-147416D02*
X249207Y-147416D01*
X251916Y-147416D01*
X251916Y-144707D01*
G74*
D01*
G03X249207Y-147416I1655J4364*
G01*
D02*
G37*
G36*
X255226Y-144707D02*
X255226Y-144707D01*
X255226Y-147416D01*
X257935Y-147416D01*
G74*
D01*
G03X255226Y-144707I4364J1655*
G01*
D02*
G37*
G36*
X234230Y-110757D02*
X234230Y-110757D01*
X234230Y-112770D01*
X236243Y-112770D01*
G74*
D01*
G03X234230Y-110757I3243J1230*
G01*
D02*
G37*
G36*
X236243Y-115230D02*
X236243Y-115230D01*
X234230Y-115230D01*
X234230Y-117243D01*
G74*
D01*
G03X236243Y-115230I1230J3243*
G01*
D02*
G37*
G36*
X229757Y-112770D02*
X229757Y-112770D01*
X231770Y-112770D01*
X231770Y-110757D01*
G74*
D01*
G03X229757Y-112770I1230J3243*
G01*
D02*
G37*
G36*
X231770Y-117243D02*
X231770Y-117243D01*
X231770Y-115230D01*
X229757Y-115230D01*
G74*
D01*
G03X231770Y-117243I3243J1230*
G01*
D02*
G37*
G36*
X383819Y-182000D02*
G75*
D01*
G03X383819Y-182000I1181J0*
G01*
D02*
G37*
G36*
X383770Y-185243D02*
X383770Y-185243D01*
X383770Y-183230D01*
X381757Y-183230D01*
G74*
D01*
G03X383770Y-185243I3243J1230*
G01*
D02*
G37*
G36*
X388243Y-183230D02*
X388243Y-183230D01*
X386230Y-183230D01*
X386230Y-185243D01*
G74*
D01*
G03X388243Y-183230I1230J3243*
G01*
D02*
G37*
G36*
X381757Y-180770D02*
X381757Y-180770D01*
X383770Y-180770D01*
X383770Y-178757D01*
G74*
D01*
G03X381757Y-180770I1230J3243*
G01*
D02*
G37*
G36*
X386230Y-178757D02*
X386230Y-178757D01*
X386230Y-180770D01*
X388243Y-180770D01*
G74*
D01*
G03X386230Y-178757I3243J1230*
G01*
D02*
G37*
G36*
X424120Y-151713D02*
G75*
D01*
G03X424120Y-151713I4667J0*
G01*
D02*
G37*
G36*
X431191Y-144642D02*
G75*
D01*
G03X431191Y-144642I4667J0*
G01*
D02*
G37*
G36*
X441274Y-141935D02*
X441274Y-141935D01*
X441274Y-139226D01*
X438565Y-139226D01*
G74*
D01*
G03X441274Y-141935I4364J1655*
G01*
D02*
G37*
G36*
X447293Y-139226D02*
X447293Y-139226D01*
X444584Y-139226D01*
X444584Y-141935D01*
G74*
D01*
G03X447293Y-139226I1655J4364*
G01*
D02*
G37*
G36*
X438565Y-135916D02*
X438565Y-135916D01*
X441274Y-135916D01*
X441274Y-133207D01*
G74*
D01*
G03X438565Y-135916I1655J4364*
G01*
D02*
G37*
G36*
X444584Y-133207D02*
X444584Y-133207D01*
X444584Y-135916D01*
X447293Y-135916D01*
G74*
D01*
G03X444584Y-133207I4364J1655*
G01*
D02*
G37*
G36*
X453930Y-128043D02*
X453930Y-128043D01*
X452457Y-126570D01*
G75*
D01*
G03X447543Y-126570I-2457J-2456*
G01*
X447543Y-126570D01*
X446070Y-128043D01*
G75*
D01*
G03X446070Y-132957I2456J-2457*
G01*
X446070Y-132957D01*
X447543Y-134430D01*
G75*
D01*
G03X452457Y-134430I2457J2456*
G01*
X452457Y-134430D01*
X453930Y-132957D01*
G75*
D01*
G03X453930Y-128043I-2456J2457*
G01*
D02*
G37*
G36*
X441179Y-137571D02*
G75*
D01*
G03X441179Y-137571I1750J0*
G01*
D02*
G37*
G36*
X289819Y-114000D02*
G75*
D01*
G03X289819Y-114000I1181J0*
G01*
D02*
G37*
G36*
X287757Y-112770D02*
X287757Y-112770D01*
X289770Y-112770D01*
X289770Y-110757D01*
G74*
D01*
G03X287757Y-112770I1230J3243*
G01*
D02*
G37*
G36*
X289770Y-117243D02*
X289770Y-117243D01*
X289770Y-115230D01*
X287757Y-115230D01*
G74*
D01*
G03X289770Y-117243I3243J1230*
G01*
D02*
G37*
G36*
X292230Y-110757D02*
X292230Y-110757D01*
X292230Y-112770D01*
X294243Y-112770D01*
G74*
D01*
G03X292230Y-110757I3243J1230*
G01*
D02*
G37*
G36*
X294243Y-115230D02*
X294243Y-115230D01*
X292230Y-115230D01*
X292230Y-117243D01*
G74*
D01*
G03X294243Y-115230I1230J3243*
G01*
D02*
G37*
G36*
X439990Y-28827D02*
X439990Y-28827D01*
X439990Y-72650D01*
G75*
D01*
G03X444010Y-74244I1010J-3319*
G01*
X444010Y-74244D01*
X444010Y-28827D01*
G75*
D01*
G03X439990Y-28827I-2010J2826*
G01*
D02*
G37*
G36*
X456990Y-38827D02*
X456990Y-38827D01*
X456990Y-61173D01*
G75*
D01*
G03X461010Y-61173I2010J-2826*
G01*
X461010Y-61173D01*
X461010Y-38827D01*
G75*
D01*
G03X456990Y-38827I-2010J2826*
G01*
D02*
G37*
%LPD*%
G36*
X291815Y78490D02*
X291815Y78490D01*
X291332Y78490D01*
X287503Y74661D01*
X281675Y68832D01*
G74*
D01*
G02X283161Y65260I4174J3832*
G01*
X283161Y65260D01*
X309747Y65260D01*
G75*
D01*
G02X310382Y65158I3J-2010*
G01*
G74*
D01*
G02X311173Y64669I632J1907*
G01*
X311173Y64669D01*
X350422Y25420D01*
G75*
D01*
G02X353827Y24010I578J-3419*
G01*
X353827Y24010D01*
X374500Y24010D01*
G74*
D01*
G02X375923Y23419I1J2010*
G01*
X375923Y23419D01*
X381991Y17351D01*
X381991Y17351D01*
X385419Y13923D01*
G74*
D01*
G02X386010Y12500I1418J1423*
G01*
X386010Y12500D01*
X386010Y-14500D01*
G75*
D01*
G02X385419Y-15923I-2010J1*
G01*
X385419Y-15923D01*
X381991Y-19351D01*
X381423Y-19919D01*
G74*
D01*
G02X380515Y-20443I1423J1418*
G01*
G75*
D01*
G02X379998Y-20510I-515J1943*
G01*
X379998Y-20510D01*
X326212Y-20510D01*
G75*
D01*
G02X326212Y-16490I-4212J2010*
G01*
X326212Y-16490D01*
X379168Y-16490D01*
X380649Y-15009D01*
X380649Y-15009D01*
X381990Y-13668D01*
X381990Y11668D01*
X373668Y19990D01*
X353827Y19990D01*
G75*
D01*
G02X347580Y22578I-2828J2007*
G01*
X347580Y22578D01*
X308918Y61240D01*
X281740Y61240D01*
G75*
D01*
G02X277816Y70658I-4240J3760*
G01*
X277816Y70658D01*
X286637Y79479D01*
X286637Y79479D01*
X287503Y80345D01*
X289079Y81921D01*
G75*
D01*
G02X290502Y82510I1421J-1420*
G01*
X290502Y82510D01*
X331497Y82510D01*
G75*
D01*
G02X332117Y82413I3J-2010*
G01*
G74*
D01*
G02X332923Y81919I618J1913*
G01*
X332923Y81919D01*
X335363Y79479D01*
X335363Y79479D01*
X351332Y63510D01*
X358668Y63510D01*
X359580Y64422D01*
G75*
D01*
G02X362422Y61580I3420J578*
G01*
X362422Y61580D01*
X360923Y60081D01*
G74*
D01*
G02X359597Y59493I1422J1419*
G01*
G75*
D01*
G02X359499Y59490I-110J2006*
G01*
X359499Y59490D01*
X359414Y59490D01*
G74*
D01*
G02X359827Y59010I2411J2492*
G01*
X359827Y59010D01*
X365168Y59010D01*
X381990Y75832D01*
X381990Y84173D01*
G75*
D01*
G02X386010Y84173I2010J2826*
G01*
X386010Y84173D01*
X386010Y75000D01*
G75*
D01*
G02X385419Y73577I-2010J1*
G01*
X385419Y73577D01*
X381991Y70149D01*
X381991Y70149D01*
X367423Y55581D01*
G74*
D01*
G02X366000Y54990I1423J1418*
G01*
X366000Y54990D01*
X359827Y54990D01*
G75*
D01*
G02X354586Y59490I-2824J2013*
G01*
X354586Y59490D01*
X350500Y59490D01*
G75*
D01*
G02X350130Y59525I3J2010*
G01*
G74*
D01*
G02X349079Y60079I369J1975*
G01*
X349079Y60079D01*
X330668Y78490D01*
X297185Y78490D01*
G74*
D01*
G02X299799Y75510I2683J4990*
G01*
X299799Y75510D01*
X312497Y75510D01*
G75*
D01*
G02X313151Y75401I1J-2010*
G01*
G74*
D01*
G02X313923Y74919I650J1901*
G01*
X313923Y74919D01*
X356332Y32510D01*
X389497Y32510D01*
G75*
D01*
G02X389654Y32504I2J-2010*
G01*
X389654Y32504D01*
X388579Y33579D01*
G75*
D01*
G02X387990Y35003I1420J1421*
G01*
X387990Y35003D01*
X387990Y52996D01*
G75*
D01*
G02X388579Y54421I2010J3*
G01*
X388579Y54421D01*
X392580Y58422D01*
G75*
D01*
G02X395422Y55580I3420J578*
G01*
X395422Y55580D01*
X392010Y52168D01*
X392010Y35832D01*
X408332Y19510D01*
X411000Y19510D01*
G74*
D01*
G02X412423Y18919I1J2010*
G01*
X412423Y18919D01*
X416419Y14923D01*
G74*
D01*
G02X417008Y13582I1418J1423*
G01*
G75*
D01*
G02X416608Y6795I2992J-3582*
G01*
G74*
D01*
G02X416419Y6577I1609J1204*
G01*
X416419Y6577D01*
X413423Y3581D01*
G74*
D01*
G02X413419Y3577I1423J1419*
G01*
G74*
D01*
G02X414379Y2010I2378J2534*
G01*
X414379Y2010D01*
X415788Y2010D01*
G75*
D01*
G02X415788Y-2010I4212J-2010*
G01*
X415788Y-2010D01*
X414379Y-2010D01*
G74*
D01*
G02X411042Y-4517I3337J967*
G01*
X411042Y-4517D01*
X408959Y-4517D01*
G75*
D01*
G02X408375Y-4467I3J3476*
G01*
X408375Y-4467D01*
X397833Y-15009D01*
X397833Y-15009D01*
X384423Y-28419D01*
G74*
D01*
G02X383197Y-29000I1423J1418*
G01*
G74*
D01*
G02X383714Y-29122I199J1999*
G01*
G74*
D01*
G02X384423Y-29581I713J1878*
G01*
X384423Y-29581D01*
X397567Y-42725D01*
X425284Y-15009D01*
X425284Y-15009D01*
X428990Y-11303D01*
X428990Y-8827D01*
G75*
D01*
G02X434464Y-5829I2010J2826*
G01*
X434464Y-5829D01*
X449473Y9180D01*
G75*
D01*
G02X462820Y22527I2027J11320*
G01*
X462820Y22527D01*
X471456Y31163D01*
G75*
D01*
G03X200543Y-87500I-125457J-82160*
G01*
X200543Y-87500D01*
X301990Y-87500D01*
X301990Y-46298D01*
G75*
D01*
G02X302579Y-44872I2010J4*
G01*
X302579Y-44872D01*
X305372Y-42079D01*
G74*
D01*
G02X306300Y-41552I1420J1421*
G01*
G75*
D01*
G02X306793Y-41490I495J-1947*
G01*
X306793Y-41490D01*
X313606Y-41490D01*
G75*
D01*
G02X312877Y-45510I2393J-2510*
G01*
X312877Y-45510D01*
X307625Y-45510D01*
X306010Y-47125D01*
X306010Y-87500D01*
X307990Y-87500D01*
X307990Y-52827D01*
G75*
D01*
G02X312010Y-52827I2010J2826*
G01*
X312010Y-52827D01*
X312010Y-87500D01*
X352793Y-87500D01*
X381991Y-58302D01*
X390225Y-50067D01*
X382668Y-42510D01*
X360502Y-42510D01*
G75*
D01*
G02X359079Y-41921I-1J2010*
G01*
X359079Y-41921D01*
X351578Y-34420D01*
G75*
D01*
G02X348159Y-29010I-579J3419*
G01*
X348159Y-29010D01*
X342827Y-29010D01*
G75*
D01*
G02X342827Y-24990I-2826J2010*
G01*
X342827Y-24990D01*
X382168Y-24990D01*
X392149Y-15009D01*
X392149Y-15009D01*
X405533Y-1625D01*
G75*
D01*
G02X405483Y-1041I3425J587*
G01*
X405483Y-1041D01*
X405483Y1042D01*
G74*
D01*
G02X406081Y2990I3476J1*
G01*
X406081Y2990D01*
X401000Y2990D01*
G75*
D01*
G02X400805Y3000I5J2010*
G01*
G74*
D01*
G02X399579Y3579I195J2000*
G01*
X399579Y3579D01*
X387578Y15580D01*
G75*
D01*
G02X390420Y18422I-578J3420*
G01*
X390420Y18422D01*
X401832Y7010D01*
X406417Y7010D01*
G75*
D01*
G02X405601Y11557I3582J2990*
G01*
X405601Y11557D01*
X388668Y28490D01*
X355500Y28490D01*
G75*
D01*
G02X355188Y28515I4J2010*
G01*
G74*
D01*
G02X354079Y29079I311J1985*
G01*
X354079Y29079D01*
X311668Y71490D01*
X299799Y71490D01*
G75*
D01*
G02X291815Y78490I-5299J2010*
G01*
D02*
G37*
%LPC*%
G36*
X336788Y-13230D02*
X336788Y-13230D01*
X338802Y-13230D01*
X338802Y-15243D01*
G74*
D01*
G02X336788Y-13230I1229J3243*
G01*
D02*
G37*
G36*
X343275Y-13230D02*
G74*
D01*
G02X341261Y-15243I3243J1231*
G01*
X341261Y-15243D01*
X341261Y-13230D01*
X343275Y-13230D01*
D02*
G37*
G36*
X206206Y-30743D02*
G74*
D01*
G02X208282Y-28666I3345J1267*
G01*
X208282Y-28666D01*
X208282Y-30743D01*
X206206Y-30743D01*
D02*
G37*
G36*
X275230Y-78757D02*
G74*
D01*
G02X277243Y-80770I1230J3243*
G01*
X277243Y-80770D01*
X275230Y-80770D01*
X275230Y-78757D01*
D02*
G37*
G36*
X277243Y-83230D02*
G74*
D01*
G02X275230Y-85243I3243J1230*
G01*
X275230Y-85243D01*
X275230Y-83230D01*
X277243Y-83230D01*
D02*
G37*
G36*
X270757Y-80770D02*
G74*
D01*
G02X272770Y-78757I3243J1230*
G01*
X272770Y-78757D01*
X272770Y-80770D01*
X270757Y-80770D01*
D02*
G37*
G36*
X272770Y-85243D02*
G74*
D01*
G02X270757Y-83230I1230J3243*
G01*
X270757Y-83230D01*
X272770Y-83230D01*
X272770Y-85243D01*
D02*
G37*
G36*
X272819Y-82000D02*
G75*
D01*
G02X272819Y-82000I1181J0*
G01*
D02*
G37*
G36*
X217333Y-61000D02*
G75*
D01*
G02X217333Y-61000I4667J0*
G01*
D02*
G37*
G36*
X236517Y-62041D02*
G75*
D01*
G02X233042Y-65517I-3475J-1*
G01*
X233042Y-65517D01*
X230959Y-65517D01*
G75*
D01*
G02X227483Y-62041I0J3476*
G01*
X227483Y-62041D01*
X227483Y-59958D01*
G75*
D01*
G02X230959Y-56483I3476J-1*
G01*
X230959Y-56483D01*
X233042Y-56483D01*
G74*
D01*
G02X236517Y-59958I0J3475*
G01*
X236517Y-59958D01*
X236517Y-62041D01*
D02*
G37*
G36*
X245770Y-57243D02*
G74*
D01*
G02X243757Y-55230I1230J3243*
G01*
X243757Y-55230D01*
X245770Y-55230D01*
X245770Y-57243D01*
D02*
G37*
G36*
X245819Y-54000D02*
G75*
D01*
G02X245819Y-54000I1181J0*
G01*
D02*
G37*
G36*
X250243Y-55230D02*
G74*
D01*
G02X248230Y-57243I3243J1230*
G01*
X248230Y-57243D01*
X248230Y-55230D01*
X250243Y-55230D01*
D02*
G37*
G36*
X243757Y-52770D02*
G74*
D01*
G02X245770Y-50757I3243J1230*
G01*
X245770Y-50757D01*
X245770Y-52770D01*
X243757Y-52770D01*
D02*
G37*
G36*
X248230Y-50757D02*
G74*
D01*
G02X250243Y-52770I1230J3243*
G01*
X250243Y-52770D01*
X248230Y-52770D01*
X248230Y-50757D01*
D02*
G37*
G36*
X205973Y-39886D02*
G75*
D01*
G02X205973Y-39886I3578J0*
G01*
D02*
G37*
G36*
X222883Y-40949D02*
G75*
D01*
G02X222883Y-40949I4168J0*
G01*
D02*
G37*
G36*
X212897Y-33281D02*
G74*
D01*
G02X210820Y-35357I3345J1270*
G01*
X210820Y-35357D01*
X210820Y-33281D01*
X212897Y-33281D01*
D02*
G37*
G36*
X208173Y-32012D02*
G75*
D01*
G02X208173Y-32012I1378J0*
G01*
D02*
G37*
G36*
X208282Y-35357D02*
G74*
D01*
G02X206206Y-33281I1269J3345*
G01*
X206206Y-33281D01*
X208282Y-33281D01*
X208282Y-35357D01*
D02*
G37*
G36*
X222883Y-30949D02*
G75*
D01*
G02X222883Y-30949I4168J0*
G01*
D02*
G37*
G36*
X210820Y-28666D02*
G74*
D01*
G02X212897Y-30743I1269J3346*
G01*
X212897Y-30743D01*
X210820Y-30743D01*
X210820Y-28666D01*
D02*
G37*
G36*
X369770Y-64243D02*
G74*
D01*
G02X367757Y-62230I1230J3243*
G01*
X367757Y-62230D01*
X369770Y-62230D01*
X369770Y-64243D01*
D02*
G37*
G36*
X374243Y-62230D02*
G74*
D01*
G02X372230Y-64243I3243J1230*
G01*
X372230Y-64243D01*
X372230Y-62230D01*
X374243Y-62230D01*
D02*
G37*
G36*
X369819Y-61000D02*
G75*
D01*
G02X369819Y-61000I1181J0*
G01*
D02*
G37*
G36*
X367757Y-59770D02*
G74*
D01*
G02X369770Y-57757I3243J1230*
G01*
X369770Y-57757D01*
X369770Y-59770D01*
X367757Y-59770D01*
D02*
G37*
G36*
X372230Y-57757D02*
G74*
D01*
G02X374243Y-59770I1230J3243*
G01*
X374243Y-59770D01*
X372230Y-59770D01*
X372230Y-57757D01*
D02*
G37*
G36*
X320959Y-33017D02*
G75*
D01*
G02X317483Y-29541I0J3476*
G01*
X317483Y-29541D01*
X317483Y-27458D01*
G75*
D01*
G02X320959Y-23983I3476J-1*
G01*
X320959Y-23983D01*
X323042Y-23983D01*
G74*
D01*
G02X326517Y-27458I0J3475*
G01*
X326517Y-27458D01*
X326517Y-29541D01*
G75*
D01*
G02X323042Y-33017I-3475J-1*
G01*
X323042Y-33017D01*
X320959Y-33017D01*
D02*
G37*
G36*
X369833Y10000D02*
G75*
D01*
G02X369833Y10000I5667J0*
G01*
D02*
G37*
G36*
X336788Y-10770D02*
G74*
D01*
G02X338802Y-8757I3243J1230*
G01*
X338802Y-8757D01*
X338802Y-10770D01*
X336788Y-10770D01*
D02*
G37*
G36*
X341261Y-8757D02*
G74*
D01*
G02X343275Y-10770I1229J3243*
G01*
X343275Y-10770D01*
X341261Y-10770D01*
X341261Y-8757D01*
D02*
G37*
G36*
X338850Y-12000D02*
G75*
D01*
G02X338850Y-12000I1181J0*
G01*
D02*
G37*
G36*
X316827Y18010D02*
X316827Y18010D01*
X357500Y18010D01*
G74*
D01*
G02X358923Y17419I1J2010*
G01*
X358923Y17419D01*
X362375Y13967D01*
G75*
D01*
G02X362959Y14017I587J-3424*
G01*
X362959Y14017D01*
X365042Y14017D01*
G74*
D01*
G02X368517Y10542I0J3475*
G01*
X368517Y10542D01*
X368517Y8459D01*
G75*
D01*
G02X365042Y4983I-3475J-1*
G01*
X365042Y4983D01*
X362959Y4983D01*
G75*
D01*
G02X359483Y8459I0J3476*
G01*
X359483Y8459D01*
X359483Y10542D01*
G74*
D01*
G02X359533Y11125I3476J4*
G01*
X359533Y11125D01*
X356668Y13990D01*
X316827Y13990D01*
G75*
D01*
G02X316827Y18010I-2826J2010*
G01*
D02*
G37*
G36*
X359333Y-500D02*
G75*
D01*
G02X359333Y-500I4667J0*
G01*
D02*
G37*
G36*
X299833Y23000D02*
G75*
D01*
G02X299833Y23000I4667J0*
G01*
D02*
G37*
G36*
X305542Y37517D02*
G74*
D01*
G02X309017Y34042I0J3475*
G01*
X309017Y34042D01*
X309017Y31958D01*
G75*
D01*
G02X305542Y28483I-3475J0*
G01*
X305542Y28483D01*
X303459Y28483D01*
G75*
D01*
G02X299983Y31958I-1J3475*
G01*
X299983Y31958D01*
X299983Y34042D01*
G75*
D01*
G02X303459Y37517I3476J-1*
G01*
X303459Y37517D01*
X305542Y37517D01*
D02*
G37*
G36*
X304819Y51000D02*
G75*
D01*
G02X304819Y51000I1181J0*
G01*
D02*
G37*
G36*
X302757Y52230D02*
G74*
D01*
G02X304770Y54243I3243J1230*
G01*
X304770Y54243D01*
X304770Y52230D01*
X302757Y52230D01*
D02*
G37*
G36*
X304770Y47757D02*
G74*
D01*
G02X302757Y49770I1230J3243*
G01*
X302757Y49770D01*
X304770Y49770D01*
X304770Y47757D01*
D02*
G37*
G36*
X307230Y54243D02*
G74*
D01*
G02X309243Y52230I1230J3243*
G01*
X309243Y52230D01*
X307230Y52230D01*
X307230Y54243D01*
D02*
G37*
G36*
X309243Y49770D02*
G74*
D01*
G02X307230Y47757I3243J1230*
G01*
X307230Y47757D01*
X307230Y49770D01*
X309243Y49770D01*
D02*
G37*
G36*
X213770Y-8243D02*
G74*
D01*
G02X211757Y-6230I1230J3243*
G01*
X211757Y-6230D01*
X213770Y-6230D01*
X213770Y-8243D01*
D02*
G37*
G36*
X218243Y-6230D02*
G74*
D01*
G02X216230Y-8243I3243J1230*
G01*
X216230Y-8243D01*
X216230Y-6230D01*
X218243Y-6230D01*
D02*
G37*
G36*
X220770Y-8243D02*
G74*
D01*
G02X218757Y-6230I1230J3243*
G01*
X218757Y-6230D01*
X220770Y-6230D01*
X220770Y-8243D01*
D02*
G37*
G36*
X225243Y-6230D02*
G74*
D01*
G02X223230Y-8243I3243J1230*
G01*
X223230Y-8243D01*
X223230Y-6230D01*
X225243Y-6230D01*
D02*
G37*
G36*
X211757Y-3770D02*
G74*
D01*
G02X213770Y-1757I3243J1230*
G01*
X213770Y-1757D01*
X213770Y-3770D01*
X211757Y-3770D01*
D02*
G37*
G36*
X218757Y-3770D02*
G74*
D01*
G02X220770Y-1757I3243J1230*
G01*
X220770Y-1757D01*
X220770Y-3770D01*
X218757Y-3770D01*
D02*
G37*
G36*
X216230Y-1757D02*
G74*
D01*
G02X218243Y-3770I1230J3243*
G01*
X218243Y-3770D01*
X216230Y-3770D01*
X216230Y-1757D01*
D02*
G37*
G36*
X213819Y-5000D02*
G75*
D01*
G02X213819Y-5000I1181J0*
G01*
D02*
G37*
G36*
X223230Y-1757D02*
G74*
D01*
G02X225243Y-3770I1230J3243*
G01*
X225243Y-3770D01*
X223230Y-3770D01*
X223230Y-1757D01*
D02*
G37*
G36*
X220819Y-5000D02*
G75*
D01*
G02X220819Y-5000I1181J0*
G01*
D02*
G37*
G36*
X230000Y20500D02*
G75*
D01*
G02X230000Y20500I11500J0*
G01*
D02*
G37*
G36*
X392833Y42000D02*
G75*
D01*
G02X392833Y42000I5667J0*
G01*
D02*
G37*
G36*
X411459Y37483D02*
G75*
D01*
G02X407983Y40959I0J3476*
G01*
X407983Y40959D01*
X407983Y43042D01*
G75*
D01*
G02X411459Y46517I3476J-1*
G01*
X411459Y46517D01*
X413541Y46517D01*
G74*
D01*
G02X417017Y43042I1J3475*
G01*
X417017Y43042D01*
X417017Y40959D01*
G75*
D01*
G02X413541Y37483I-3476J0*
G01*
X413541Y37483D01*
X411459Y37483D01*
D02*
G37*
G36*
X407833Y52000D02*
G75*
D01*
G02X407833Y52000I4667J0*
G01*
D02*
G37*
%LPD*%
G36*
X384923Y-39081D02*
X384923Y-39081D01*
X393067Y-47225D01*
X394725Y-45567D01*
X382168Y-33010D01*
X362827Y-33010D01*
G75*
D01*
G02X357159Y-29010I-2834J2000*
G01*
X357159Y-29010D01*
X353841Y-29010D01*
G75*
D01*
G02X354420Y-31578I-2840J-1990*
G01*
X354420Y-31578D01*
X361332Y-38490D01*
X383500Y-38490D01*
G74*
D01*
G02X384923Y-39081I1J2010*
G01*
D02*
G37*
G54D11*
X283583Y-165925D02*
G75*
D01*
G03X287235Y-169577I-923J-4575*
G01*
X294148Y-176490D01*
X278332Y-176490D01*
X270535Y-168693D01*
G74*
D01*
G03X270840Y-168891I2042J2812*
G01*
X272644Y-169932D01*
G75*
D01*
G03X277391Y-168660I1738J3008*
G01*
X278432Y-166856D01*
G75*
D01*
G03X277160Y-162109I-3008J1738*
G01*
X275356Y-161068D01*
G75*
D01*
G03X270609Y-162340I-1738J-3008*
G01*
X269568Y-164144D01*
G75*
D01*
G03X269765Y-167923I3008J-1738*
G01*
X267510Y-165668D01*
X267510Y-147500D01*
G74*
D01*
G03X266919Y-146077I2010J1*
G01*
X264853Y-144011D01*
G75*
D01*
G03X261703Y-146545I-4211J2010*
G01*
X263490Y-148332D01*
X263490Y-166497D01*
G75*
D01*
G03X264079Y-167921I2010J-2*
G01*
X276079Y-179921D01*
G75*
D01*
G03X277502Y-180510I1421J1420*
G01*
X293668Y-180510D01*
X304079Y-190921D01*
G75*
D01*
G03X305503Y-191510I1421J1420*
G01*
X389000Y-191510D01*
G74*
D01*
G03X390423Y-190919I1J2010*
G01*
X405332Y-176010D01*
X421497Y-176010D01*
G75*
D01*
G03X422073Y-175926I1J2010*
G01*
G74*
D01*
G03X422923Y-175419I572J1926*
G01*
X473169Y-125173D01*
G75*
D01*
G03X473760Y-123750I-1418J1423*
G01*
X473760Y-96250D01*
G74*
D01*
G03X473169Y-94827I2010J1*
G01*
X470423Y-92081D01*
G74*
D01*
G03X469734Y-91629I1423J1418*
G01*
G75*
D01*
G03X468997Y-91490I-734J-1870*
G01*
X428132Y-91490D01*
G75*
D01*
G03X427010Y-87173I-3131J1490*
G01*
X427010Y-48827D01*
G75*
D01*
G03X422990Y-48827I-2010J2826*
G01*
X422990Y-87173D01*
G74*
D01*
G03X422510Y-87586I2012J2824*
G01*
X422510Y-50500D01*
G74*
D01*
G03X421919Y-49077I2010J1*
G01*
X420010Y-47168D01*
X420010Y-44827D01*
G75*
D01*
G03X415990Y-44827I-2010J2826*
G01*
X415990Y-47997D01*
G75*
D01*
G03X415996Y-48154I2010J-2*
G01*
X412010Y-44168D01*
X412010Y-42827D01*
G75*
D01*
G03X407990Y-42827I-2010J2826*
G01*
X407990Y-44998D01*
G75*
D01*
G03X408579Y-46421I2010J-1*
G01*
X415990Y-53832D01*
X415990Y-54243D01*
G75*
D01*
G03X409990Y-57724I-3000J-1740*
G01*
X409990Y-96173D01*
G75*
D01*
G03X414010Y-96173I2010J-2826*
G01*
X414010Y-59318D01*
G74*
D01*
G03X415990Y-57757I1010J3318*
G01*
X415990Y-92997D01*
G75*
D01*
G03X416579Y-94421I2010J-2*
G01*
X419079Y-96921D01*
G75*
D01*
G03X420501Y-97510I1421J1420*
G01*
X461868Y-97510D01*
G75*
D01*
G03X461580Y-99578I3132J-1490*
G01*
X457668Y-103490D01*
X414394Y-103490D01*
G75*
D01*
G03X415123Y-107510I-2393J-2510*
G01*
X458500Y-107510D01*
G74*
D01*
G03X459923Y-106919I1J2010*
G01*
X464422Y-102420D01*
G75*
D01*
G03X467490Y-101414I578J3420*
G01*
X467490Y-121168D01*
X419668Y-168990D01*
X404002Y-168990D01*
G75*
D01*
G03X402579Y-169579I-1J-2010*
G01*
X386668Y-185490D01*
X308832Y-185490D01*
X287002Y-163660D01*
X285510Y-162168D01*
X285510Y-152500D01*
G74*
D01*
G03X284919Y-151077I2010J1*
G01*
X264923Y-131081D01*
G74*
D01*
G03X263500Y-130490I1423J1418*
G01*
X256003Y-130490D01*
G75*
D01*
G03X255329Y-130606I-1J-2010*
G01*
G75*
D01*
G03X258219Y-134510I-1757J-4322*
G01*
X262668Y-134510D01*
X281490Y-153332D01*
X281490Y-162997D01*
G75*
D01*
G03X282079Y-164421I2010J-2*
G01*
X283583Y-165925D01*
X486561Y-15009D02*
G75*
D01*
G03X486561Y-15009I-4561J-991*
G01*
X453010Y-18827D02*
G75*
D01*
G03X448990Y-18827I-2010J2826*
G01*
X448990Y-67173D01*
G75*
D01*
G03X453010Y-67173I2010J-2826*
G01*
X453010Y-18827D01*
X483041Y-1483D02*
X480959Y-1483D01*
G75*
D01*
G03X477483Y-4958I-1J-3475*
G01*
X477483Y-7041D01*
G75*
D01*
G03X480959Y-10517I3476J0*
G01*
X483041Y-10517D01*
G75*
D01*
G03X486517Y-7041I0J3476*
G01*
X486517Y-4958D01*
G74*
D01*
G03X483041Y-1483I3476J1*
G01*
X215819Y-103000D02*
G75*
D01*
G03X215819Y-103000I1181J0*
G01*
X220243Y-104230D02*
X218230Y-104230D01*
X218230Y-106243D01*
G74*
D01*
G03X220243Y-104230I1230J3243*
G01*
X215770Y-106243D02*
X215770Y-104230D01*
X213757Y-104230D01*
G74*
D01*
G03X215770Y-106243I3243J1230*
G01*
X211819Y-98000D02*
G75*
D01*
G03X211819Y-98000I1181J0*
G01*
X209757Y-96770D02*
X211770Y-96770D01*
X211770Y-94757D01*
G74*
D01*
G03X209757Y-96770I1230J3243*
G01*
X211770Y-101243D02*
X211770Y-99230D01*
X209757Y-99230D01*
G74*
D01*
G03X211770Y-101243I3243J1230*
G01*
X215770Y-100087D02*
G74*
D01*
G03X216243Y-99230I2769J2088*
G01*
X214230Y-99230D01*
X214230Y-100913D01*
G74*
D01*
G03X213757Y-101770I2769J2088*
G01*
X215770Y-101770D01*
X215770Y-100087D01*
X218230Y-99757D02*
X218230Y-101770D01*
X220243Y-101770D01*
G74*
D01*
G03X218230Y-99757I3243J1230*
G01*
X214230Y-94757D02*
X214230Y-96770D01*
X216243Y-96770D01*
G74*
D01*
G03X214230Y-94757I3243J1230*
G01*
X477333Y-96000D02*
G75*
D01*
G03X477333Y-96000I4667J0*
G01*
X480345Y-90364D02*
X480345Y-87655D01*
X477636Y-87655D01*
G74*
D01*
G03X480345Y-90364I4364J1655*
G01*
X480250Y-86000D02*
G75*
D01*
G03X480250Y-86000I1750J0*
G01*
X486364Y-87655D02*
X483655Y-87655D01*
X483655Y-90364D01*
G74*
D01*
G03X486364Y-87655I1655J4364*
G01*
X477636Y-84345D02*
X480345Y-84345D01*
X480345Y-81636D01*
G74*
D01*
G03X477636Y-84345I1655J4364*
G01*
X477333Y-76000D02*
G75*
D01*
G03X477333Y-76000I4667J0*
G01*
X483655Y-81636D02*
X483655Y-84345D01*
X486364Y-84345D01*
G74*
D01*
G03X483655Y-81636I4364J1655*
G01*
X477333Y-66000D02*
G75*
D01*
G03X477333Y-66000I4667J0*
G01*
X477333Y-56000D02*
G75*
D01*
G03X477333Y-56000I4667J0*
G01*
X477333Y-46000D02*
G75*
D01*
G03X477333Y-46000I4667J0*
G01*
X477333Y-36000D02*
G75*
D01*
G03X477333Y-36000I4667J0*
G01*
X477333Y-26000D02*
G75*
D01*
G03X477333Y-26000I4667J0*
G01*
X349819Y-94000D02*
G75*
D01*
G03X349819Y-94000I1181J0*
G01*
X354243Y-95230D02*
X352230Y-95230D01*
X352230Y-97243D01*
G74*
D01*
G03X354243Y-95230I1230J3243*
G01*
X349770Y-97243D02*
X349770Y-95230D01*
X347757Y-95230D01*
G74*
D01*
G03X349770Y-97243I3243J1230*
G01*
X347757Y-92770D02*
X349770Y-92770D01*
X349770Y-90757D01*
G74*
D01*
G03X347757Y-92770I1230J3243*
G01*
X352230Y-90757D02*
X352230Y-92770D01*
X354243Y-92770D01*
G74*
D01*
G03X352230Y-90757I3243J1230*
G01*
X362770Y-89243D02*
X362770Y-87230D01*
X360757Y-87230D01*
G74*
D01*
G03X362770Y-89243I3243J1230*
G01*
X362819Y-86000D02*
G75*
D01*
G03X362819Y-86000I1181J0*
G01*
X367243Y-87230D02*
X365230Y-87230D01*
X365230Y-89243D01*
G74*
D01*
G03X367243Y-87230I1230J3243*
G01*
X360757Y-84770D02*
X362770Y-84770D01*
X362770Y-82757D01*
G74*
D01*
G03X360757Y-84770I1230J3243*
G01*
X365230Y-82757D02*
X365230Y-84770D01*
X367243Y-84770D01*
G74*
D01*
G03X365230Y-82757I3243J1230*
G01*
X376770Y-80243D02*
X376770Y-78230D01*
X374757Y-78230D01*
G74*
D01*
G03X376770Y-80243I3243J1230*
G01*
X381243Y-78230D02*
X379230Y-78230D01*
X379230Y-80243D01*
G74*
D01*
G03X381243Y-78230I1230J3243*
G01*
X376819Y-77000D02*
G75*
D01*
G03X376819Y-77000I1181J0*
G01*
X374757Y-75770D02*
X376770Y-75770D01*
X376770Y-73757D01*
G74*
D01*
G03X374757Y-75770I1230J3243*
G01*
X379230Y-73757D02*
X379230Y-75770D01*
X381243Y-75770D01*
G74*
D01*
G03X379230Y-73757I3243J1230*
G01*
X349757Y-126770D02*
X351770Y-126770D01*
X351770Y-124757D01*
G74*
D01*
G03X349757Y-126770I1230J3243*
G01*
X354230Y-124757D02*
X354230Y-126770D01*
X356243Y-126770D01*
G74*
D01*
G03X354230Y-124757I3243J1230*
G01*
X356243Y-129230D02*
X354230Y-129230D01*
X354230Y-131243D01*
G74*
D01*
G03X356243Y-129230I1230J3243*
G01*
X351770Y-131243D02*
X351770Y-129230D01*
X349757Y-129230D01*
G74*
D01*
G03X351770Y-131243I3243J1230*
G01*
X351819Y-128000D02*
G75*
D01*
G03X351819Y-128000I1181J0*
G01*
X231819Y-114000D02*
G75*
D01*
G03X231819Y-114000I1181J0*
G01*
X244043Y-138070D02*
X242570Y-139543D01*
G75*
D01*
G03X242570Y-144457I2456J-2457*
G01*
X244043Y-145930D01*
G75*
D01*
G03X248957Y-145930I2457J2456*
G01*
X250430Y-144457D01*
G75*
D01*
G03X250430Y-139543I-2456J2457*
G01*
X248957Y-138070D01*
G75*
D01*
G03X244043Y-138070I-2457J-2456*
G01*
X251821Y-149071D02*
G75*
D01*
G03X251821Y-149071I1750J0*
G01*
X251916Y-153435D02*
X251916Y-150726D01*
X249207Y-150726D01*
G74*
D01*
G03X251916Y-153435I4364J1655*
G01*
X257935Y-150726D02*
X255226Y-150726D01*
X255226Y-153435D01*
G74*
D01*
G03X257935Y-150726I1655J4364*
G01*
X249207Y-147416D02*
X251916Y-147416D01*
X251916Y-144707D01*
G74*
D01*
G03X249207Y-147416I1655J4364*
G01*
X255226Y-144707D02*
X255226Y-147416D01*
X257935Y-147416D01*
G74*
D01*
G03X255226Y-144707I4364J1655*
G01*
X234230Y-110757D02*
X234230Y-112770D01*
X236243Y-112770D01*
G74*
D01*
G03X234230Y-110757I3243J1230*
G01*
X236243Y-115230D02*
X234230Y-115230D01*
X234230Y-117243D01*
G74*
D01*
G03X236243Y-115230I1230J3243*
G01*
X229757Y-112770D02*
X231770Y-112770D01*
X231770Y-110757D01*
G74*
D01*
G03X229757Y-112770I1230J3243*
G01*
X231770Y-117243D02*
X231770Y-115230D01*
X229757Y-115230D01*
G74*
D01*
G03X231770Y-117243I3243J1230*
G01*
X383819Y-182000D02*
G75*
D01*
G03X383819Y-182000I1181J0*
G01*
X383770Y-185243D02*
X383770Y-183230D01*
X381757Y-183230D01*
G74*
D01*
G03X383770Y-185243I3243J1230*
G01*
X388243Y-183230D02*
X386230Y-183230D01*
X386230Y-185243D01*
G74*
D01*
G03X388243Y-183230I1230J3243*
G01*
X381757Y-180770D02*
X383770Y-180770D01*
X383770Y-178757D01*
G74*
D01*
G03X381757Y-180770I1230J3243*
G01*
X386230Y-178757D02*
X386230Y-180770D01*
X388243Y-180770D01*
G74*
D01*
G03X386230Y-178757I3243J1230*
G01*
X424120Y-151713D02*
G75*
D01*
G03X424120Y-151713I4667J0*
G01*
X431191Y-144642D02*
G75*
D01*
G03X431191Y-144642I4667J0*
G01*
X441274Y-141935D02*
X441274Y-139226D01*
X438565Y-139226D01*
G74*
D01*
G03X441274Y-141935I4364J1655*
G01*
X447293Y-139226D02*
X444584Y-139226D01*
X444584Y-141935D01*
G74*
D01*
G03X447293Y-139226I1655J4364*
G01*
X438565Y-135916D02*
X441274Y-135916D01*
X441274Y-133207D01*
G74*
D01*
G03X438565Y-135916I1655J4364*
G01*
X444584Y-133207D02*
X444584Y-135916D01*
X447293Y-135916D01*
G74*
D01*
G03X444584Y-133207I4364J1655*
G01*
X453930Y-128043D02*
X452457Y-126570D01*
G75*
D01*
G03X447543Y-126570I-2457J-2456*
G01*
X446070Y-128043D01*
G75*
D01*
G03X446070Y-132957I2456J-2457*
G01*
X447543Y-134430D01*
G75*
D01*
G03X452457Y-134430I2457J2456*
G01*
X453930Y-132957D01*
G75*
D01*
G03X453930Y-128043I-2456J2457*
G01*
X441179Y-137571D02*
G75*
D01*
G03X441179Y-137571I1750J0*
G01*
X289819Y-114000D02*
G75*
D01*
G03X289819Y-114000I1181J0*
G01*
X287757Y-112770D02*
X289770Y-112770D01*
X289770Y-110757D01*
G74*
D01*
G03X287757Y-112770I1230J3243*
G01*
X289770Y-117243D02*
X289770Y-115230D01*
X287757Y-115230D01*
G74*
D01*
G03X289770Y-117243I3243J1230*
G01*
X292230Y-110757D02*
X292230Y-112770D01*
X294243Y-112770D01*
G74*
D01*
G03X292230Y-110757I3243J1230*
G01*
X294243Y-115230D02*
X292230Y-115230D01*
X292230Y-117243D01*
G74*
D01*
G03X294243Y-115230I1230J3243*
G01*
X439990Y-28827D02*
X439990Y-72650D01*
G75*
D01*
G03X444010Y-74244I1010J-3319*
G01*
X444010Y-28827D01*
G75*
D01*
G03X439990Y-28827I-2010J2826*
G01*
X456990Y-38827D02*
X456990Y-61173D01*
G75*
D01*
G03X461010Y-61173I2010J-2826*
G01*
X461010Y-38827D01*
G75*
D01*
G03X456990Y-38827I-2010J2826*
G01*
X201062Y-89510D02*
X301990Y-89510D01*
X301990Y-111995D01*
G75*
D01*
G03X302579Y-113421I2010J-4*
G01*
X318490Y-129332D01*
X318490Y-153668D01*
X317578Y-154580D01*
G75*
D01*
G03X315243Y-160990I-579J-3419*
G01*
X295827Y-160990D01*
G75*
D01*
G03X289586Y-162387I-2827J-2008*
G01*
G75*
D01*
G03X289586Y-163613I1913J-613*
G01*
G75*
D01*
G03X295827Y-165010I3414J611*
G01*
X353997Y-165010D01*
G75*
D01*
G03X354736Y-164870I2J2010*
G01*
G74*
D01*
G03X355423Y-164419I736J1869*
G01*
X372419Y-147423D01*
G75*
D01*
G03X373010Y-146000I-1418J1423*
G01*
X373010Y-125832D01*
X375832Y-123010D01*
X376173Y-123010D01*
G75*
D01*
G03X376173Y-118990I2826J2010*
G01*
X375002Y-118990D01*
G75*
D01*
G03X373579Y-119579I-1J-2010*
G01*
X369579Y-123579D01*
G75*
D01*
G03X368990Y-125003I1420J-1421*
G01*
X368990Y-145168D01*
X353168Y-160990D01*
X318757Y-160990D01*
G75*
D01*
G03X320420Y-157422I-1757J2990*
G01*
X321919Y-155923D01*
G75*
D01*
G03X322510Y-154500I-1418J1423*
G01*
X322510Y-128500D01*
G74*
D01*
G03X321919Y-127077I2010J1*
G01*
X306010Y-111168D01*
X306010Y-89510D01*
X307990Y-89510D01*
X307990Y-110995D01*
G75*
D01*
G03X308579Y-112421I2010J-4*
G01*
X347580Y-151422D01*
G75*
D01*
G03X350422Y-148580I3420J-578*
G01*
X312010Y-110168D01*
X312010Y-89510D01*
X352793Y-89510D01*
G74*
D01*
G03X354216Y-88919I1J2010*
G01*
X381491Y-61644D01*
X381491Y-61644D01*
X391646Y-51489D01*
X395990Y-55832D01*
X395990Y-118173D01*
G75*
D01*
G03X400010Y-118173I2010J-2826*
G01*
X400010Y-55000D01*
G74*
D01*
G03X399419Y-53577I2010J1*
G01*
X394489Y-48646D01*
X396146Y-46989D01*
X402490Y-53332D01*
X402490Y-109606D01*
G75*
D01*
G03X406510Y-108877I2510J-2393*
G01*
X406510Y-52500D01*
G74*
D01*
G03X405919Y-51077I2010J1*
G01*
X398989Y-44146D01*
X428126Y-15009D01*
X428126Y-15009D01*
X428990Y-14145D01*
X428990Y-77173D01*
G75*
D01*
G03X433010Y-77173I2010J-2826*
G01*
X433010Y-10125D01*
X452154Y9019D01*
G74*
D01*
G03X462981Y19846I653J11480*
G01*
X469214Y26079D01*
X469214Y26079D01*
X469214Y26079D01*
X472571Y29436D01*
G75*
D01*
G02X201062Y-89510I-126571J-80436*
G01*
X336788Y-13230D02*
X338802Y-13230D01*
X338802Y-15243D01*
G74*
D01*
G02X336788Y-13230I1229J3243*
G01*
X343275Y-13230D02*
G74*
D01*
G02X341261Y-15243I3243J1231*
G01*
X341261Y-13230D01*
X343275Y-13230D01*
X206206Y-30743D02*
G74*
D01*
G02X208282Y-28666I3345J1267*
G01*
X208282Y-30743D01*
X206206Y-30743D01*
X275230Y-78757D02*
G74*
D01*
G02X277243Y-80770I1230J3243*
G01*
X275230Y-80770D01*
X275230Y-78757D01*
X277243Y-83230D02*
G74*
D01*
G02X275230Y-85243I3243J1230*
G01*
X275230Y-83230D01*
X277243Y-83230D01*
X270757Y-80770D02*
G74*
D01*
G02X272770Y-78757I3243J1230*
G01*
X272770Y-80770D01*
X270757Y-80770D01*
X272770Y-85243D02*
G74*
D01*
G02X270757Y-83230I1230J3243*
G01*
X272770Y-83230D01*
X272770Y-85243D01*
X272819Y-82000D02*
G75*
D01*
G02X272819Y-82000I1181J0*
G01*
X217333Y-61000D02*
G75*
D01*
G02X217333Y-61000I4667J0*
G01*
X236517Y-62041D02*
G75*
D01*
G02X233042Y-65517I-3475J-1*
G01*
X230959Y-65517D01*
G75*
D01*
G02X227483Y-62041I0J3476*
G01*
X227483Y-59958D01*
G75*
D01*
G02X230959Y-56483I3476J-1*
G01*
X233042Y-56483D01*
G74*
D01*
G02X236517Y-59958I0J3475*
G01*
X236517Y-62041D01*
X245770Y-57243D02*
G74*
D01*
G02X243757Y-55230I1230J3243*
G01*
X245770Y-55230D01*
X245770Y-57243D01*
X245819Y-54000D02*
G75*
D01*
G02X245819Y-54000I1181J0*
G01*
X250243Y-55230D02*
G74*
D01*
G02X248230Y-57243I3243J1230*
G01*
X248230Y-55230D01*
X250243Y-55230D01*
X243757Y-52770D02*
G74*
D01*
G02X245770Y-50757I3243J1230*
G01*
X245770Y-52770D01*
X243757Y-52770D01*
X248230Y-50757D02*
G74*
D01*
G02X250243Y-52770I1230J3243*
G01*
X248230Y-52770D01*
X248230Y-50757D01*
X205973Y-39886D02*
G75*
D01*
G02X205973Y-39886I3578J0*
G01*
X222883Y-40949D02*
G75*
D01*
G02X222883Y-40949I4168J0*
G01*
X212897Y-33281D02*
G74*
D01*
G02X210820Y-35357I3345J1270*
G01*
X210820Y-33281D01*
X212897Y-33281D01*
X208173Y-32012D02*
G75*
D01*
G02X208173Y-32012I1378J0*
G01*
X208282Y-35357D02*
G74*
D01*
G02X206206Y-33281I1269J3345*
G01*
X208282Y-33281D01*
X208282Y-35357D01*
X222883Y-30949D02*
G75*
D01*
G02X222883Y-30949I4168J0*
G01*
X210820Y-28666D02*
G74*
D01*
G02X212897Y-30743I1269J3346*
G01*
X210820Y-30743D01*
X210820Y-28666D01*
X369770Y-64243D02*
G74*
D01*
G02X367757Y-62230I1230J3243*
G01*
X369770Y-62230D01*
X369770Y-64243D01*
X374243Y-62230D02*
G74*
D01*
G02X372230Y-64243I3243J1230*
G01*
X372230Y-62230D01*
X374243Y-62230D01*
X369819Y-61000D02*
G75*
D01*
G02X369819Y-61000I1181J0*
G01*
X367757Y-59770D02*
G74*
D01*
G02X369770Y-57757I3243J1230*
G01*
X369770Y-59770D01*
X367757Y-59770D01*
X372230Y-57757D02*
G74*
D01*
G02X374243Y-59770I1230J3243*
G01*
X372230Y-59770D01*
X372230Y-57757D01*
X320959Y-33017D02*
G75*
D01*
G02X317483Y-29541I0J3476*
G01*
X317483Y-27458D01*
G75*
D01*
G02X320959Y-23983I3476J-1*
G01*
X323042Y-23983D01*
G74*
D01*
G02X326517Y-27458I0J3475*
G01*
X326517Y-29541D01*
G75*
D01*
G02X323042Y-33017I-3475J-1*
G01*
X320959Y-33017D01*
X369833Y10000D02*
G75*
D01*
G02X369833Y10000I5667J0*
G01*
X336788Y-10770D02*
G74*
D01*
G02X338802Y-8757I3243J1230*
G01*
X338802Y-10770D01*
X336788Y-10770D01*
X341261Y-8757D02*
G74*
D01*
G02X343275Y-10770I1229J3243*
G01*
X341261Y-10770D01*
X341261Y-8757D01*
X338850Y-12000D02*
G75*
D01*
G02X338850Y-12000I1181J0*
G01*
X316827Y18010D02*
X357500Y18010D01*
G74*
D01*
G02X358923Y17419I1J2010*
G01*
X362375Y13967D01*
G75*
D01*
G02X362959Y14017I587J-3424*
G01*
X365042Y14017D01*
G74*
D01*
G02X368517Y10542I0J3475*
G01*
X368517Y8459D01*
G75*
D01*
G02X365042Y4983I-3475J-1*
G01*
X362959Y4983D01*
G75*
D01*
G02X359483Y8459I0J3476*
G01*
X359483Y10542D01*
G74*
D01*
G02X359533Y11125I3476J4*
G01*
X356668Y13990D01*
X316827Y13990D01*
G75*
D01*
G02X316827Y18010I-2826J2010*
G01*
X359333Y-500D02*
G75*
D01*
G02X359333Y-500I4667J0*
G01*
X299833Y23000D02*
G75*
D01*
G02X299833Y23000I4667J0*
G01*
X305542Y37517D02*
G74*
D01*
G02X309017Y34042I0J3475*
G01*
X309017Y31958D01*
G75*
D01*
G02X305542Y28483I-3475J0*
G01*
X303459Y28483D01*
G75*
D01*
G02X299983Y31958I-1J3475*
G01*
X299983Y34042D01*
G75*
D01*
G02X303459Y37517I3476J-1*
G01*
X305542Y37517D01*
X304819Y51000D02*
G75*
D01*
G02X304819Y51000I1181J0*
G01*
X302757Y52230D02*
G74*
D01*
G02X304770Y54243I3243J1230*
G01*
X304770Y52230D01*
X302757Y52230D01*
X304770Y47757D02*
G74*
D01*
G02X302757Y49770I1230J3243*
G01*
X304770Y49770D01*
X304770Y47757D01*
X307230Y54243D02*
G74*
D01*
G02X309243Y52230I1230J3243*
G01*
X307230Y52230D01*
X307230Y54243D01*
X309243Y49770D02*
G74*
D01*
G02X307230Y47757I3243J1230*
G01*
X307230Y49770D01*
X309243Y49770D01*
X213770Y-8243D02*
G74*
D01*
G02X211757Y-6230I1230J3243*
G01*
X213770Y-6230D01*
X213770Y-8243D01*
X218243Y-6230D02*
G74*
D01*
G02X216230Y-8243I3243J1230*
G01*
X216230Y-6230D01*
X218243Y-6230D01*
X220770Y-8243D02*
G74*
D01*
G02X218757Y-6230I1230J3243*
G01*
X220770Y-6230D01*
X220770Y-8243D01*
X225243Y-6230D02*
G74*
D01*
G02X223230Y-8243I3243J1230*
G01*
X223230Y-6230D01*
X225243Y-6230D01*
X211757Y-3770D02*
G74*
D01*
G02X213770Y-1757I3243J1230*
G01*
X213770Y-3770D01*
X211757Y-3770D01*
X218757Y-3770D02*
G74*
D01*
G02X220770Y-1757I3243J1230*
G01*
X220770Y-3770D01*
X218757Y-3770D01*
X216230Y-1757D02*
G74*
D01*
G02X218243Y-3770I1230J3243*
G01*
X216230Y-3770D01*
X216230Y-1757D01*
X213819Y-5000D02*
G75*
D01*
G02X213819Y-5000I1181J0*
G01*
X223230Y-1757D02*
G74*
D01*
G02X225243Y-3770I1230J3243*
G01*
X223230Y-3770D01*
X223230Y-1757D01*
X220819Y-5000D02*
G75*
D01*
G02X220819Y-5000I1181J0*
G01*
X230000Y20500D02*
G75*
D01*
G02X230000Y20500I11500J0*
G01*
X392833Y42000D02*
G75*
D01*
G02X392833Y42000I5667J0*
G01*
X411459Y37483D02*
G75*
D01*
G02X407983Y40959I0J3476*
G01*
X407983Y43042D01*
G75*
D01*
G02X411459Y46517I3476J-1*
G01*
X413541Y46517D01*
G74*
D01*
G02X417017Y43042I1J3475*
G01*
X417017Y40959D01*
G75*
D01*
G02X413541Y37483I-3476J0*
G01*
X411459Y37483D01*
X407833Y52000D02*
G75*
D01*
G02X407833Y52000I4667J0*
G01*
X291815Y78490D02*
X291332Y78490D01*
X287503Y74661D01*
X281675Y68832D01*
G74*
D01*
G02X283161Y65260I4174J3832*
G01*
X309747Y65260D01*
G75*
D01*
G02X310382Y65158I3J-2010*
G01*
G74*
D01*
G02X311173Y64669I632J1907*
G01*
X350422Y25420D01*
G75*
D01*
G02X353827Y24010I578J-3419*
G01*
X374500Y24010D01*
G74*
D01*
G02X375923Y23419I1J2010*
G01*
X381991Y17351D01*
X381991Y17351D01*
X385419Y13923D01*
G74*
D01*
G02X386010Y12500I1418J1423*
G01*
X386010Y-14500D01*
G75*
D01*
G02X385419Y-15923I-2010J1*
G01*
X381991Y-19351D01*
X381423Y-19919D01*
G74*
D01*
G02X380515Y-20443I1423J1418*
G01*
G75*
D01*
G02X379998Y-20510I-515J1943*
G01*
X326212Y-20510D01*
G75*
D01*
G02X326212Y-16490I-4212J2010*
G01*
X379168Y-16490D01*
X380649Y-15009D01*
X380649Y-15009D01*
X381990Y-13668D01*
X381990Y11668D01*
X373668Y19990D01*
X353827Y19990D01*
G75*
D01*
G02X347580Y22578I-2828J2007*
G01*
X308918Y61240D01*
X281740Y61240D01*
G75*
D01*
G02X277816Y70658I-4240J3760*
G01*
X286637Y79479D01*
X286637Y79479D01*
X287503Y80345D01*
X289079Y81921D01*
G75*
D01*
G02X290502Y82510I1421J-1420*
G01*
X331497Y82510D01*
G75*
D01*
G02X332117Y82413I3J-2010*
G01*
G74*
D01*
G02X332923Y81919I618J1913*
G01*
X335363Y79479D01*
X335363Y79479D01*
X351332Y63510D01*
X358668Y63510D01*
X359580Y64422D01*
G75*
D01*
G02X362422Y61580I3420J578*
G01*
X360923Y60081D01*
G74*
D01*
G02X359597Y59493I1422J1419*
G01*
G75*
D01*
G02X359499Y59490I-110J2006*
G01*
X359414Y59490D01*
G74*
D01*
G02X359827Y59010I2411J2492*
G01*
X365168Y59010D01*
X381990Y75832D01*
X381990Y84173D01*
G75*
D01*
G02X386010Y84173I2010J2826*
G01*
X386010Y75000D01*
G75*
D01*
G02X385419Y73577I-2010J1*
G01*
X381991Y70149D01*
X381991Y70149D01*
X367423Y55581D01*
G74*
D01*
G02X366000Y54990I1423J1418*
G01*
X359827Y54990D01*
G75*
D01*
G02X354586Y59490I-2824J2013*
G01*
X350500Y59490D01*
G75*
D01*
G02X350130Y59525I3J2010*
G01*
G74*
D01*
G02X349079Y60079I369J1975*
G01*
X330668Y78490D01*
X297185Y78490D01*
G74*
D01*
G02X299799Y75510I2683J4990*
G01*
X312497Y75510D01*
G75*
D01*
G02X313151Y75401I1J-2010*
G01*
G74*
D01*
G02X313923Y74919I650J1901*
G01*
X356332Y32510D01*
X389497Y32510D01*
G75*
D01*
G02X389654Y32504I2J-2010*
G01*
X388579Y33579D01*
G75*
D01*
G02X387990Y35003I1420J1421*
G01*
X387990Y52996D01*
G75*
D01*
G02X388579Y54421I2010J3*
G01*
X392580Y58422D01*
G75*
D01*
G02X395422Y55580I3420J578*
G01*
X392010Y52168D01*
X392010Y35832D01*
X408332Y19510D01*
X411000Y19510D01*
G74*
D01*
G02X412423Y18919I1J2010*
G01*
X416419Y14923D01*
G74*
D01*
G02X417008Y13582I1418J1423*
G01*
G75*
D01*
G02X416608Y6795I2992J-3582*
G01*
G74*
D01*
G02X416419Y6577I1609J1204*
G01*
X413423Y3581D01*
G74*
D01*
G02X413419Y3577I1423J1419*
G01*
G74*
D01*
G02X414379Y2010I2378J2534*
G01*
X415788Y2010D01*
G75*
D01*
G02X415788Y-2010I4212J-2010*
G01*
X414379Y-2010D01*
G74*
D01*
G02X411042Y-4517I3337J967*
G01*
X408959Y-4517D01*
G75*
D01*
G02X408375Y-4467I3J3476*
G01*
X397833Y-15009D01*
X397833Y-15009D01*
X384423Y-28419D01*
G74*
D01*
G02X383197Y-29000I1423J1418*
G01*
G74*
D01*
G02X383714Y-29122I199J1999*
G01*
G74*
D01*
G02X384423Y-29581I713J1878*
G01*
X397567Y-42725D01*
X425284Y-15009D01*
X425284Y-15009D01*
X428990Y-11303D01*
X428990Y-8827D01*
G75*
D01*
G02X434464Y-5829I2010J2826*
G01*
X449473Y9180D01*
G75*
D01*
G02X462820Y22527I2027J11320*
G01*
X471456Y31163D01*
G75*
D01*
G03X200543Y-87500I-125457J-82160*
G01*
X301990Y-87500D01*
X301990Y-46298D01*
G75*
D01*
G02X302579Y-44872I2010J4*
G01*
X305372Y-42079D01*
G74*
D01*
G02X306300Y-41552I1420J1421*
G01*
G75*
D01*
G02X306793Y-41490I495J-1947*
G01*
X313606Y-41490D01*
G75*
D01*
G02X312877Y-45510I2393J-2510*
G01*
X307625Y-45510D01*
X306010Y-47125D01*
X306010Y-87500D01*
X307990Y-87500D01*
X307990Y-52827D01*
G75*
D01*
G02X312010Y-52827I2010J2826*
G01*
X312010Y-87500D01*
X352793Y-87500D01*
X381991Y-58302D01*
X390225Y-50067D01*
X382668Y-42510D01*
X360502Y-42510D01*
G75*
D01*
G02X359079Y-41921I-1J2010*
G01*
X351578Y-34420D01*
G75*
D01*
G02X348159Y-29010I-579J3419*
G01*
X342827Y-29010D01*
G75*
D01*
G02X342827Y-24990I-2826J2010*
G01*
X382168Y-24990D01*
X392149Y-15009D01*
X392149Y-15009D01*
X405533Y-1625D01*
G75*
D01*
G02X405483Y-1041I3425J587*
G01*
X405483Y1042D01*
G74*
D01*
G02X406081Y2990I3476J1*
G01*
X401000Y2990D01*
G75*
D01*
G02X400805Y3000I5J2010*
G01*
G74*
D01*
G02X399579Y3579I195J2000*
G01*
X387578Y15580D01*
G75*
D01*
G02X390420Y18422I-578J3420*
G01*
X401832Y7010D01*
X406417Y7010D01*
G75*
D01*
G02X405601Y11557I3582J2990*
G01*
X388668Y28490D01*
X355500Y28490D01*
G75*
D01*
G02X355188Y28515I4J2010*
G01*
G74*
D01*
G02X354079Y29079I311J1985*
G01*
X311668Y71490D01*
X299799Y71490D01*
G75*
D01*
G02X291815Y78490I-5299J2010*
G01*
X384923Y-39081D02*
X393067Y-47225D01*
X394725Y-45567D01*
X382168Y-33010D01*
X362827Y-33010D01*
G75*
D01*
G02X357159Y-29010I-2834J2000*
G01*
X353841Y-29010D01*
G75*
D01*
G02X354420Y-31578I-2840J-1990*
G01*
X361332Y-38490D01*
X383500Y-38490D01*
G74*
D01*
G02X384923Y-39081I1J2010*
G01*
X431000Y-6000D02*
X431000Y-80000D01*
X451000Y-16000D02*
X451000Y-70000D01*
X442000Y-26000D02*
X442000Y-75000D01*
X441000Y-76000D01*
X425000Y-46000D02*
X425000Y-90000D01*
X459000Y-36000D02*
X459000Y-64000D01*
X410000Y0D02*
X420000Y0D01*
X314000Y16000D02*
X357500Y16000D01*
X364000Y9500D01*
X410000Y10000D02*
X389500Y30500D01*
X363000Y65000D02*
X359500Y61500D01*
X350500Y61500D01*
X331500Y80500D01*
X290500Y80500D01*
X357000Y57000D02*
X366000Y57000D01*
X384000Y75000D01*
X384000Y87000D01*
X351000Y-152000D02*
X310000Y-111000D01*
X310000Y-50000D01*
X306793Y-43500D02*
X304000Y-46293D01*
X304000Y-112000D02*
X304000Y-46293D01*
X320500Y-128500D02*
X304000Y-112000D01*
X320500Y-154500D02*
X320500Y-128500D01*
X320500Y-154500D02*
X317000Y-158000D01*
X354000Y-163000D02*
X291500Y-163000D01*
X410000Y-40000D02*
X410000Y-45000D01*
X418000Y-42000D02*
X418000Y-48000D01*
X260642Y-142000D02*
X260642Y-142642D01*
X265500Y-147500D01*
X396000Y59000D02*
X390000Y53000D01*
X390000Y35000D01*
X407500Y17500D01*
X411000Y17500D01*
X415000Y13500D02*
X415000Y8000D01*
X411000Y17500D02*
X415000Y13500D01*
X412000Y5000D02*
X401000Y5000D01*
X415000Y8000D02*
X412000Y5000D01*
X401000Y5000D02*
X387500Y18500D01*
X283500Y-163000D02*
X308000Y-187500D01*
X283500Y-152500D02*
X283500Y-163000D01*
X256000Y-132500D02*
X263500Y-132500D01*
X253571Y-134929D02*
X256000Y-132500D01*
X263500Y-132500D02*
X283500Y-152500D01*
X421500Y-93500D02*
X469000Y-93500D01*
X471750Y-123750D02*
X471750Y-96250D01*
X469000Y-93500D01*
X469500Y-122000D02*
X469500Y-97293D01*
X467707Y-95500D01*
X420500Y-95500D02*
X467707Y-95500D01*
X355500Y30500D02*
X312500Y73500D01*
X294500Y73500D01*
X389500Y30500D02*
X355500Y30500D01*
X277500Y65000D02*
X277500Y67500D01*
X290500Y80500D01*
X341000Y-27000D02*
X383000Y-27000D01*
X410000Y0D01*
X341000Y-27000D02*
X340500Y-27500D01*
X306793Y-43500D02*
X316000Y-43500D01*
X458500Y-105500D02*
X465000Y-99000D01*
X412000Y-105500D02*
X458500Y-105500D01*
X371000Y-125000D02*
X371000Y-146000D01*
X354000Y-163000D01*
X371000Y-125000D02*
X375000Y-121000D01*
X379500Y-121000D01*
X420500Y-50500D02*
X420500Y-92500D01*
X421500Y-93500D01*
X418000Y-48000D02*
X420500Y-50500D01*
X418000Y-53000D02*
X418000Y-93000D01*
X420500Y-95500D01*
X410000Y-45000D02*
X418000Y-53000D01*
X412000Y-99000D02*
X412000Y-56000D01*
X412000Y-99500D02*
X412000Y-99000D01*
X435858Y-144642D02*
X435858Y-143358D01*
X383000Y-31000D02*
X360000Y-31000D01*
X351000Y-31000D02*
X360500Y-40500D01*
X383500Y-40500D01*
X398000Y-55000D02*
X398000Y-120926D01*
X383500Y-40500D02*
X398000Y-55000D01*
X404500Y-112000D02*
X404500Y-52500D01*
X383000Y-31000D01*
X308000Y-187500D02*
X387500Y-187500D01*
X404000Y-171000D02*
X420500Y-171000D01*
X387500Y-187500D02*
X404000Y-171000D01*
X420500Y-171000D02*
X469500Y-122000D01*
X404500Y-174000D02*
X421500Y-174000D01*
X471750Y-123750D02*
X421500Y-174000D01*
X389000Y-189500D02*
X404500Y-174000D01*
X294500Y-178500D02*
X305500Y-189500D01*
X389000Y-189500D01*
X265500Y-166500D02*
X277500Y-178500D01*
X294500Y-178500D01*
X265500Y-147500D02*
X265500Y-166500D01*
X384000Y12500D02*
X384000Y-14500D01*
X374500Y22000D02*
X384000Y12500D01*
X351000Y22000D02*
X374500Y22000D01*
X351000Y22000D02*
X309750Y63250D01*
X279000Y63250D01*
X384000Y-14500D02*
X380000Y-18500D01*
X322000Y-18500D02*
X380000Y-18500D01*
G54D12*
X193024Y-203976D02*
X193024Y-173381D01*
X193024Y-203976D02*
X223619Y-203976D01*
X498976Y-203976D02*
X468381Y-203976D01*
X498976Y-203976D02*
X498976Y-173381D01*
X498976Y101976D02*
X498976Y71381D01*
X498976Y101976D02*
X468381Y101976D01*
X193024Y101976D02*
X223619Y101976D01*
X193024Y101976D02*
X193024Y71381D01*
X173339Y-203976D02*
X133969Y-203976D01*
X153654Y-223661D02*
X153654Y-184291D01*
X138890Y-203976D02*
G75*
D01*
G02X138890Y-203976I14764J0*
G01*
X518661Y-203976D02*
X558031Y-203976D01*
X538346Y-223661D02*
X538346Y-184291D01*
X523582Y-203976D02*
G75*
D01*
G02X523582Y-203976I14764J0*
G01*
X533425Y-203976D02*
G75*
D01*
G02X533425Y-203976I4921J0*
G01*
X173339Y101976D02*
X133969Y101976D01*
X153654Y82291D02*
X153654Y121661D01*
X138890Y101976D02*
G75*
D01*
G02X138890Y101976I14764J0*
G01*
X143811Y101976D02*
G75*
D01*
G02X143811Y101976I9843J0*
G01*
X148733Y101976D02*
G75*
D01*
G02X148733Y101976I4921J0*
G01*
G54D13*
X431000Y-80000D03*
X431000Y-6000D03*
X442000Y-26000D03*
X233000Y-114000D03*
X385000Y-182000D03*
X441000Y-75969D03*
X306000Y51000D03*
X314000Y16000D03*
X351000Y22000D03*
X451000Y-70000D03*
X451000Y-16000D03*
X465000Y-99000D03*
X459000Y-64000D03*
X459000Y-36000D03*
X425000Y-90000D03*
X425000Y-46000D03*
X418000Y-42000D03*
X410000Y-40000D03*
X317000Y-158000D03*
X351000Y-152000D03*
X310000Y-50000D03*
X293000Y-163000D03*
X396000Y59000D03*
X387000Y19000D03*
X357000Y57000D03*
X384000Y87000D03*
X363000Y65000D03*
X340031Y-12000D03*
X215000Y-5000D03*
X222000Y-5000D03*
X247000Y-54000D03*
X340000Y-27000D03*
X274000Y-82000D03*
X379000Y-121000D03*
X316000Y-44000D03*
X412000Y-106000D03*
X412000Y-99000D03*
X353000Y-128000D03*
X413000Y-56000D03*
X371000Y-61000D03*
X398000Y-121000D03*
X351000Y-31000D03*
X291000Y-114000D03*
X364000Y-86000D03*
X217000Y-103000D03*
X213000Y-98000D03*
X351000Y-94000D03*
X378000Y-77000D03*
X405000Y-112000D03*
X360000Y-31000D03*
G54D14*
X253571Y-134929D03*
X260642Y-142000D03*
X253571Y-149071D03*
X282660Y-170500D03*
X410000Y10000D03*
X420000Y0D03*
X420000Y10000D03*
X304500Y23000D03*
X428787Y-151713D03*
X442929Y-137571D03*
X435858Y-144642D03*
X364000Y-500D03*
X222000Y-61000D03*
X412500Y52000D03*
X482000Y-86000D03*
X482000Y-16000D03*
X482000Y-26000D03*
X482000Y-66000D03*
X482000Y-36000D03*
X482000Y-46000D03*
X482000Y-56000D03*
X482000Y-96000D03*
X482000Y-76000D03*
X322000Y-18500D03*
G54D15*
X246500Y-142000D03*
X450000Y-130500D03*
G54D16*
X245027Y-142000D02*
X246500Y-143473D01*
X247973Y-142000D01*
X246500Y-140527D01*
X245027Y-142000D01*D02*
X272577Y-165881D02*
X274381Y-166923D01*
X275423Y-165119D01*
X273619Y-164077D01*
X272577Y-165881D01*D02*
X408959Y-1041D02*
X411041Y-1041D01*
X411041Y1041D01*
X408959Y1041D01*
X408959Y-1041D01*D02*
X303459Y31959D02*
X305541Y31959D01*
X305541Y34041D01*
X303459Y34041D01*
X303459Y31959D01*D02*
X450000Y-129027D02*
X448527Y-130500D01*
X450000Y-131973D01*
X451473Y-130500D01*
X450000Y-129027D01*D02*
X362959Y8459D02*
X365041Y8459D01*
X365041Y10541D01*
X362959Y10541D01*
X362959Y8459D01*D02*
X230959Y-62041D02*
X233041Y-62041D01*
X233041Y-59959D01*
X230959Y-59959D01*
X230959Y-62041D01*D02*
X411459Y40959D02*
X413541Y40959D01*
X413541Y43041D01*
X411459Y43041D01*
X411459Y40959D01*D02*
X480959Y-7041D02*
X483041Y-7041D01*
X483041Y-4959D01*
X480959Y-4959D01*
X480959Y-7041D01*D02*
X320959Y-29541D02*
X323041Y-29541D01*
X323041Y-27459D01*
X320959Y-27459D01*
X320959Y-29541D01*D02*
G54D17*
X274000Y-165500D03*
G54D18*
X375500Y10000D03*
X294500Y73500D03*
X398500Y42000D03*
X277500Y65000D03*
G54D19*
X410000Y0D03*
X304500Y33000D03*
X364000Y9500D03*
X232000Y-61000D03*
X412500Y42000D03*
X482000Y-6000D03*
X322000Y-28500D03*
G54D20*
X209551Y-32012D03*
X209551Y-39886D03*
G54D21*
X227051Y-40949D03*
X227051Y-30949D03*

M02*
