M48
INCH,TZ
VER,1
FMAT,2
DETECT,ON
ATC,ON
T1C0.02362
T2C0.03500
T3C0.03917
T4C0.04333
T5C0.20000
T6C0.02756
T7C0.03937
%
T1
X4.31000Y-0.80000
Y-0.06000
X4.42000Y-0.26000
X2.33000Y-1.14000
X3.85000Y-1.82000
X4.41000Y-0.75969
X3.06000Y0.51000
X3.14000Y0.16000
X3.51000Y0.22000
X4.51000Y-0.70000
Y-0.16000
X4.65000Y-0.99000
X4.59000Y-0.64000
Y-0.36000
X4.25000Y-0.90000
Y-0.46000
X4.18000Y-0.42000
X4.10000Y-0.40000
X3.17000Y-1.58000
X3.51000Y-1.52000
X3.10000Y-0.50000
X2.93000Y-1.63000
X3.96000Y0.59000
X3.87000Y0.19000
X3.57000Y0.57000
X3.84000Y0.87000
X3.63000Y0.65000
X3.40031Y-0.12000
X2.15000Y-0.05000
X2.22000
X2.47000Y-0.54000
X3.40000Y-0.27000
X2.74000Y-0.82000
X3.79000Y-1.21000
X3.16000Y-0.44000
X4.12000Y-1.06000
Y-0.99000
X3.53000Y-1.28000
X4.13000Y-0.56000
X3.71000Y-0.61000
X3.98000Y-1.21000
X3.51000Y-0.31000
X2.91000Y-1.14000
X3.64000Y-0.86000
X2.17000Y-1.03000
X2.13000Y-0.98000
X3.51000Y-0.94000
X3.78000Y-0.77000
X4.05000Y-1.12000
X3.60000Y-0.31000
T2
X2.53571Y-1.34929
X2.60642Y-1.42000
X2.53571Y-1.49071
X2.82660Y-1.70500
X4.10000Y0.10000
X4.20000Y0.00000
Y0.10000
X3.04500Y0.23000
X4.28787Y-1.51713
X4.42929Y-1.37571
X4.35858Y-1.44642
X3.64000Y-0.00500
X2.22000Y-0.61000
X4.12500Y0.52000
X4.82000Y-0.86000
Y-0.16000
Y-0.26000
Y-0.66000
Y-0.36000
Y-0.46000
Y-0.56000
Y-0.96000
Y-0.76000
X3.22000Y-0.18500
T3
X2.46500Y-1.42000
X2.74000Y-1.65500
X4.10000Y0.00000
X3.04500Y0.33000
X4.50000Y-1.30500
X3.64000Y0.09500
X2.32000Y-0.61000
X4.12500Y0.42000
X4.82000Y-0.06000
X3.22000Y-0.28500
T4
X3.75500Y0.10000
X2.94500Y0.73500
X3.98500Y0.42000
X2.77500Y0.65000
T5
X4.51500Y0.20500
X2.41500
T6
X2.09551Y-0.32012
Y-0.39886
T7
X2.27051Y-0.40949
Y-0.30949
M30
