G04 Generated by Ultiboard 13.0 *
%FSLAX25Y25*%
%MOIN*%

%ADD11C,0.02362*%
%ADD12C,0.10000*%
%ADD13C,0.03500*%
%ADD14C,0.03917*%


G04 ColorRGB 000000 for the following layer *
%LNDrill-Copper Top-Copper Bottom*%
%LPD*%
G54D11*
X118000Y217000D03*
X119000Y225000D03*
X172000Y209000D03*
X62000Y126000D03*
X91000Y150000D03*
X95000Y134000D03*
X82000Y176000D03*
X54000Y134000D03*
X153000Y217000D03*
X88000Y241000D03*
X119000Y210000D03*
X109000Y212000D03*
X105000Y208000D03*
X96000Y185000D03*
X91000Y179000D03*
X158000Y117000D03*
X148000Y91000D03*
X147000Y69000D03*
X179000Y80000D03*
X176000Y98000D03*
X146000Y81000D03*
X120000Y89000D03*
X168000Y104000D03*
X126000Y85000D03*
X145000Y100000D03*
X97000Y74000D03*
X159000Y174000D03*
X157000Y167000D03*
X152000Y209000D03*
X155000Y161000D03*
X131000Y257000D03*
X161000Y249000D03*
X126000Y208000D03*
X97000Y234000D03*
X80000Y220000D03*
X192000Y153000D03*
X192000Y146000D03*
X192000Y140000D03*
X192000Y133000D03*
X187000Y129000D03*
X181000Y129000D03*
X175000Y129000D03*
X101000Y134000D03*
X96000Y145000D03*
X72500Y136000D03*
G54D12*
X82000Y192500D03*
X193000Y192500D03*
G54D13*
X41000Y157500D03*
X46500Y194543D03*
X51500Y203203D03*
X56500Y211863D03*
X71429Y230429D03*
X75071Y91429D03*
X188179Y237356D03*
X180519Y243784D03*
X195840Y230928D03*
X213500Y128000D03*
X213500Y138000D03*
X213500Y178000D03*
X213500Y148000D03*
X213500Y158000D03*
X213500Y168000D03*
X213500Y208000D03*
X213500Y198000D03*
X213500Y188000D03*
G54D14*
X41000Y167500D03*
X61500Y220523D03*
X78500Y237500D03*
X68000Y98500D03*
X203500Y224500D03*
X213500Y118000D03*

M02*
