M48
INCH,TZ
VER,1
FMAT,2
DETECT,ON
ATC,ON
T1C0.02362
T2C0.10000
T3C0.03500
T4C0.03917
%
T1
X1.18000Y2.17000
X1.19000Y2.25000
X1.72000Y2.09000
X0.62000Y1.26000
X0.91000Y1.50000
X0.95000Y1.34000
X0.82000Y1.76000
X0.54000Y1.34000
X1.53000Y2.17000
X0.88000Y2.41000
X1.19000Y2.10000
X1.09000Y2.12000
X1.05000Y2.08000
X0.96000Y1.85000
X0.91000Y1.79000
X1.58000Y1.17000
X1.48000Y0.91000
X1.47000Y0.69000
X1.79000Y0.80000
X1.76000Y0.98000
X1.46000Y0.81000
X1.20000Y0.89000
X1.68000Y1.04000
X1.26000Y0.85000
X1.45000Y1.00000
X0.97000Y0.74000
X1.59000Y1.74000
X1.57000Y1.67000
X1.52000Y2.09000
X1.55000Y1.61000
X1.31000Y2.57000
X1.61000Y2.49000
X1.26000Y2.08000
X0.97000Y2.34000
X0.80000Y2.20000
X1.92000Y1.53000
Y1.46000
Y1.40000
Y1.33000
X1.87000Y1.29000
X1.81000
X1.75000
X1.01000Y1.34000
X0.96000Y1.45000
X0.72500Y1.36000
T2
X0.82000Y1.92500
X1.93000
T3
X0.41000Y1.57500
X0.46500Y1.94543
X0.51500Y2.03203
X0.56500Y2.11863
X0.71429Y2.30429
X0.75071Y0.91429
X1.88179Y2.37356
X1.80519Y2.43784
X1.95840Y2.30928
X2.13500Y1.28000
Y1.38000
Y1.78000
Y1.48000
Y1.58000
Y1.68000
Y2.08000
Y1.98000
Y1.88000
T4
X0.41000Y1.67500
X0.61500Y2.20523
X0.78500Y2.37500
X0.68000Y0.98500
X2.03500Y2.24500
X2.13500Y1.18000
M30
