G04 Generated by Ultiboard 13.0 *
%FSLAX25Y25*%
%MOIN*%

%ADD10C,0.00001*%
%ADD11C,0.00004*%
%ADD12C,0.00800*%
%ADD13C,0.00612*%
%ADD14C,0.00787*%
%ADD15C,0.00984*%
%ADD16C,0.00500*%


G04 ColorRGB FF6600 for the following layer *
%LNSilkscreen Top*%
%LPD*%
G54D10*
G54D11*
G36*
X55172Y191226D02*
X55172Y191226D01*
X55172Y190301D01*
X55203Y190768D01*
X55172Y191226D01*
D02*
G37*
X55172Y190301D01*
X55203Y190768D01*
X55172Y191226D01*
G36*
X55172Y190301D02*
X55172Y190301D01*
X55172Y191226D01*
X54921Y191957D01*
X55172Y190301D01*
D02*
G37*
X55172Y191226D01*
X54921Y191957D01*
X55172Y190301D01*
G36*
X54921Y191957D02*
X54921Y191957D01*
X54921Y189553D01*
X55172Y190301D01*
X54921Y191957D01*
D02*
G37*
X54921Y189553D01*
X55172Y190301D01*
X54921Y191957D01*
G36*
X54921Y189553D02*
X54921Y189553D01*
X54921Y191957D01*
X54665Y190768D01*
X54921Y189553D01*
D02*
G37*
X54921Y191957D01*
X54665Y190768D01*
X54921Y189553D01*
G36*
X54665Y190768D02*
X54665Y190768D01*
X54587Y190123D01*
X54921Y189553D01*
X54665Y190768D01*
D02*
G37*
X54587Y190123D01*
X54921Y189553D01*
X54665Y190768D01*
G36*
X54354Y191864D02*
X54354Y191864D01*
X54418Y192445D01*
X54164Y192033D01*
X54354Y191864D01*
D02*
G37*
X54418Y192445D01*
X54164Y192033D01*
X54354Y191864D01*
G36*
X54418Y192445D02*
X54418Y192445D01*
X54354Y191864D01*
X54587Y191396D01*
X54418Y192445D01*
D02*
G37*
X54354Y191864D01*
X54587Y191396D01*
X54418Y192445D01*
G36*
X54587Y191396D02*
X54587Y191396D01*
X54921Y191957D01*
X54418Y192445D01*
X54587Y191396D01*
D02*
G37*
X54921Y191957D01*
X54418Y192445D01*
X54587Y191396D01*
G36*
X54921Y191957D02*
X54921Y191957D01*
X54587Y191396D01*
X54665Y190768D01*
X54921Y191957D01*
D02*
G37*
X54587Y191396D01*
X54665Y190768D01*
X54921Y191957D01*
G36*
X53182Y192251D02*
X53182Y192251D01*
X53193Y192720D01*
X52463Y192251D01*
X53182Y192251D01*
D02*
G37*
X53193Y192720D01*
X52463Y192251D01*
X53182Y192251D01*
G36*
X53193Y192720D02*
X53193Y192720D01*
X53182Y192251D01*
X53578Y192227D01*
X53193Y192720D01*
D02*
G37*
X53182Y192251D01*
X53578Y192227D01*
X53193Y192720D01*
G36*
X53578Y192227D02*
X53578Y192227D01*
X53664Y192689D01*
X53193Y192720D01*
X53578Y192227D01*
D02*
G37*
X53664Y192689D01*
X53193Y192720D01*
X53578Y192227D01*
G36*
X53664Y192689D02*
X53664Y192689D01*
X53578Y192227D01*
X54164Y192033D01*
X53664Y192689D01*
D02*
G37*
X53578Y192227D01*
X54164Y192033D01*
X53664Y192689D01*
G36*
X54164Y192033D02*
X54164Y192033D01*
X54418Y192445D01*
X53664Y192689D01*
X54164Y192033D01*
D02*
G37*
X54418Y192445D01*
X53664Y192689D01*
X54164Y192033D01*
G36*
X52463Y189242D02*
X52463Y189242D01*
X52463Y192251D01*
X51941Y192720D01*
X52463Y189242D01*
D02*
G37*
X52463Y192251D01*
X51941Y192720D01*
X52463Y189242D01*
G36*
X52463Y189242D01*
X51941Y192720D01*
X51941Y188774D01*
X52463Y189242D01*
D02*
G37*
X51941Y192720D01*
X51941Y188774D01*
X52463Y189242D01*
G36*
X52463Y189242D01*
X51941Y188774D01*
X53193Y188774D01*
X52463Y189242D01*
D02*
G37*
X51941Y188774D01*
X53193Y188774D01*
X52463Y189242D01*
G36*
X52463Y189242D01*
X53193Y188774D01*
X53182Y189242D01*
X52463Y189242D01*
D02*
G37*
X53193Y188774D01*
X53182Y189242D01*
X52463Y189242D01*
G36*
X54418Y189054D02*
X54418Y189054D01*
X54921Y189553D01*
X54587Y190123D01*
X54418Y189054D01*
D02*
G37*
X54921Y189553D01*
X54587Y190123D01*
X54418Y189054D01*
G36*
X54418Y189054D01*
X54587Y190123D01*
X54353Y189642D01*
X54418Y189054D01*
D02*
G37*
X54587Y190123D01*
X54353Y189642D01*
X54418Y189054D01*
G36*
X54418Y189054D01*
X54353Y189642D01*
X54163Y189467D01*
X54418Y189054D01*
D02*
G37*
X54353Y189642D01*
X54163Y189467D01*
X54418Y189054D01*
G36*
X54418Y189054D01*
X54163Y189467D01*
X53664Y188805D01*
X54418Y189054D01*
D02*
G37*
X54163Y189467D01*
X53664Y188805D01*
X54418Y189054D01*
G36*
X53577Y189267D02*
X53577Y189267D01*
X53182Y189242D01*
X53193Y188774D01*
X53577Y189267D01*
D02*
G37*
X53182Y189242D01*
X53193Y188774D01*
X53577Y189267D01*
G36*
X53577Y189267D01*
X53193Y188774D01*
X53664Y188805D01*
X53577Y189267D01*
D02*
G37*
X53193Y188774D01*
X53664Y188805D01*
X53577Y189267D01*
G36*
X53577Y189267D01*
X53664Y188805D01*
X54163Y189467D01*
X53577Y189267D01*
D02*
G37*
X53664Y188805D01*
X54163Y189467D01*
X53577Y189267D01*
G36*
X51941Y192720D02*
X51941Y192720D01*
X52463Y192251D01*
X53193Y192720D01*
X51941Y192720D01*
D02*
G37*
X52463Y192251D01*
X53193Y192720D01*
X51941Y192720D01*
G36*
X59660Y200492D02*
X59660Y200492D01*
X59689Y201407D01*
X59562Y200828D01*
X59660Y200492D01*
D02*
G37*
X59689Y201407D01*
X59562Y200828D01*
X59660Y200492D01*
G36*
X59689Y201407D02*
X59689Y201407D01*
X59660Y200492D01*
X60198Y200492D01*
X59689Y201407D01*
D02*
G37*
X59660Y200492D01*
X60198Y200492D01*
X59689Y201407D01*
G36*
X60198Y200492D02*
X60198Y200492D01*
X59891Y201220D01*
X59689Y201407D01*
X60198Y200492D01*
D02*
G37*
X59891Y201220D01*
X59689Y201407D01*
X60198Y200492D01*
G36*
X59891Y201220D02*
X59891Y201220D01*
X60198Y200492D01*
X60145Y200762D01*
X59891Y201220D01*
D02*
G37*
X60198Y200492D01*
X60145Y200762D01*
X59891Y201220D01*
G36*
X59005Y201253D02*
X59005Y201253D01*
X59189Y201668D01*
X58599Y201308D01*
X59005Y201253D01*
D02*
G37*
X59189Y201668D01*
X58599Y201308D01*
X59005Y201253D01*
G36*
X59189Y201668D02*
X59189Y201668D01*
X59005Y201253D01*
X59335Y201087D01*
X59189Y201668D01*
D02*
G37*
X59005Y201253D01*
X59335Y201087D01*
X59189Y201668D01*
G36*
X59335Y201087D02*
X59335Y201087D01*
X59689Y201407D01*
X59189Y201668D01*
X59335Y201087D01*
D02*
G37*
X59689Y201407D01*
X59189Y201668D01*
X59335Y201087D01*
G36*
X59689Y201407D02*
X59689Y201407D01*
X59335Y201087D01*
X59562Y200828D01*
X59689Y201407D01*
D02*
G37*
X59335Y201087D01*
X59562Y200828D01*
X59689Y201407D01*
G36*
X57840Y201075D02*
X57840Y201075D01*
X58196Y201720D01*
X57649Y200895D01*
X57840Y201075D01*
D02*
G37*
X58196Y201720D01*
X57649Y200895D01*
X57840Y201075D01*
G36*
X58196Y201720D02*
X58196Y201720D01*
X57840Y201075D01*
X58315Y201282D01*
X58196Y201720D01*
D02*
G37*
X57840Y201075D01*
X58315Y201282D01*
X58196Y201720D01*
G36*
X58315Y201282D02*
X58315Y201282D01*
X58594Y201755D01*
X58196Y201720D01*
X58315Y201282D01*
D02*
G37*
X58594Y201755D01*
X58196Y201720D01*
X58315Y201282D01*
G36*
X58594Y201755D02*
X58594Y201755D01*
X58315Y201282D01*
X58599Y201308D01*
X58594Y201755D01*
D02*
G37*
X58315Y201282D01*
X58599Y201308D01*
X58594Y201755D01*
G36*
X58599Y201308D02*
X58599Y201308D01*
X59189Y201668D01*
X58594Y201755D01*
X58599Y201308D01*
D02*
G37*
X59189Y201668D01*
X58594Y201755D01*
X58599Y201308D01*
G36*
X57528Y201445D02*
X57528Y201445D01*
X57258Y201204D01*
X57321Y200076D01*
X57528Y201445D01*
D02*
G37*
X57258Y201204D01*
X57321Y200076D01*
X57528Y201445D01*
G36*
X57528Y201445D01*
X57321Y200076D01*
X57496Y200666D01*
X57528Y201445D01*
D02*
G37*
X57321Y200076D01*
X57496Y200666D01*
X57528Y201445D01*
G36*
X57528Y201445D01*
X57496Y200666D01*
X57649Y200895D01*
X57528Y201445D01*
D02*
G37*
X57496Y200666D01*
X57649Y200895D01*
X57528Y201445D01*
G36*
X57528Y201445D01*
X57649Y200895D01*
X58196Y201720D01*
X57528Y201445D01*
D02*
G37*
X57649Y200895D01*
X58196Y201720D01*
X57528Y201445D01*
G36*
X56790Y199269D02*
X56790Y199269D01*
X56790Y200160D01*
X56758Y199714D01*
X56790Y199269D01*
D02*
G37*
X56790Y200160D01*
X56758Y199714D01*
X56790Y199269D01*
G36*
X56790Y200160D02*
X56790Y200160D01*
X56790Y199269D01*
X57039Y198524D01*
X56790Y200160D01*
D02*
G37*
X56790Y199269D01*
X57039Y198524D01*
X56790Y200160D01*
G36*
X57039Y198524D02*
X57039Y198524D01*
X57039Y200905D01*
X56790Y200160D01*
X57039Y198524D01*
D02*
G37*
X57039Y200905D01*
X56790Y200160D01*
X57039Y198524D01*
G36*
X57039Y200905D02*
X57039Y200905D01*
X57039Y198524D01*
X57258Y198225D01*
X57039Y200905D01*
D02*
G37*
X57039Y198524D01*
X57258Y198225D01*
X57039Y200905D01*
G36*
X57258Y198225D02*
X57258Y198225D01*
X57258Y201204D01*
X57039Y200905D01*
X57258Y198225D01*
D02*
G37*
X57258Y201204D01*
X57039Y200905D01*
X57258Y198225D01*
G36*
X57258Y201204D02*
X57258Y201204D01*
X57258Y198225D01*
X57299Y199714D01*
X57258Y201204D01*
D02*
G37*
X57258Y198225D01*
X57299Y199714D01*
X57258Y201204D01*
G36*
X57299Y199714D02*
X57299Y199714D01*
X57321Y200076D01*
X57258Y201204D01*
X57299Y199714D01*
D02*
G37*
X57321Y200076D01*
X57258Y201204D01*
X57299Y199714D01*
G36*
X60198Y198993D02*
X60198Y198993D01*
X59660Y198993D01*
X59703Y198019D01*
X60198Y198993D01*
D02*
G37*
X59660Y198993D01*
X59703Y198019D01*
X60198Y198993D01*
G36*
X60198Y198993D01*
X59703Y198019D01*
X59898Y198209D01*
X60198Y198993D01*
D02*
G37*
X59703Y198019D01*
X59898Y198209D01*
X60198Y198993D01*
G36*
X60198Y198993D01*
X59898Y198209D01*
X60146Y198696D01*
X60198Y198993D01*
D02*
G37*
X59898Y198209D01*
X60146Y198696D01*
X60198Y198993D01*
G36*
X59560Y198622D02*
X59560Y198622D01*
X59337Y198347D01*
X59469Y197868D01*
X59560Y198622D01*
D02*
G37*
X59337Y198347D01*
X59469Y197868D01*
X59560Y198622D01*
G36*
X59560Y198622D01*
X59469Y197868D01*
X59703Y198019D01*
X59560Y198622D01*
D02*
G37*
X59469Y197868D01*
X59703Y198019D01*
X59560Y198622D01*
G36*
X59560Y198622D01*
X59703Y198019D01*
X59660Y198993D01*
X59560Y198622D01*
D02*
G37*
X59703Y198019D01*
X59660Y198993D01*
X59560Y198622D01*
G36*
X59007Y198178D02*
X59007Y198178D01*
X58588Y198121D01*
X58594Y197675D01*
X59007Y198178D01*
D02*
G37*
X58588Y198121D01*
X58594Y197675D01*
X59007Y198178D01*
G36*
X59007Y198178D01*
X58594Y197675D01*
X58914Y197696D01*
X59007Y198178D01*
D02*
G37*
X58594Y197675D01*
X58914Y197696D01*
X59007Y198178D01*
G36*
X59007Y198178D01*
X58914Y197696D01*
X59469Y197868D01*
X59007Y198178D01*
D02*
G37*
X58914Y197696D01*
X59469Y197868D01*
X59007Y198178D01*
G36*
X59007Y198178D01*
X59469Y197868D01*
X59337Y198347D01*
X59007Y198178D01*
D02*
G37*
X59469Y197868D01*
X59337Y198347D01*
X59007Y198178D01*
G36*
X58307Y198147D02*
X58307Y198147D01*
X57836Y198354D01*
X58196Y197709D01*
X58307Y198147D01*
D02*
G37*
X57836Y198354D01*
X58196Y197709D01*
X58307Y198147D01*
G36*
X58307Y198147D01*
X58196Y197709D01*
X58594Y197675D01*
X58307Y198147D01*
D02*
G37*
X58196Y197709D01*
X58594Y197675D01*
X58307Y198147D01*
G36*
X58307Y198147D01*
X58594Y197675D01*
X58588Y198121D01*
X58307Y198147D01*
D02*
G37*
X58594Y197675D01*
X58588Y198121D01*
X58307Y198147D01*
G36*
X57646Y198536D02*
X57646Y198536D01*
X57495Y198765D01*
X57528Y197984D01*
X57646Y198536D01*
D02*
G37*
X57495Y198765D01*
X57528Y197984D01*
X57646Y198536D01*
G36*
X57646Y198536D01*
X57528Y197984D01*
X58196Y197709D01*
X57646Y198536D01*
D02*
G37*
X57528Y197984D01*
X58196Y197709D01*
X57646Y198536D01*
G36*
X57646Y198536D01*
X58196Y197709D01*
X57836Y198354D01*
X57646Y198536D01*
D02*
G37*
X58196Y197709D01*
X57836Y198354D01*
X57646Y198536D01*
G36*
X57321Y199354D02*
X57321Y199354D01*
X57299Y199714D01*
X57258Y198225D01*
X57321Y199354D01*
D02*
G37*
X57299Y199714D01*
X57258Y198225D01*
X57321Y199354D01*
G36*
X57321Y199354D01*
X57258Y198225D01*
X57528Y197984D01*
X57321Y199354D01*
D02*
G37*
X57258Y198225D01*
X57528Y197984D01*
X57321Y199354D01*
G36*
X57321Y199354D01*
X57528Y197984D01*
X57495Y198765D01*
X57321Y199354D01*
D02*
G37*
X57528Y197984D01*
X57495Y198765D01*
X57321Y199354D01*
G36*
X65324Y209492D02*
X65324Y209492D01*
X65336Y210411D01*
X65222Y209833D01*
X65324Y209492D01*
D02*
G37*
X65336Y210411D01*
X65222Y209833D01*
X65324Y209492D01*
G36*
X65336Y210411D02*
X65336Y210411D01*
X65324Y209492D01*
X65865Y209492D01*
X65336Y210411D01*
D02*
G37*
X65324Y209492D01*
X65865Y209492D01*
X65336Y210411D01*
G36*
X65865Y209492D02*
X65865Y209492D01*
X65546Y210225D01*
X65336Y210411D01*
X65865Y209492D01*
D02*
G37*
X65546Y210225D01*
X65336Y210411D01*
X65865Y209492D01*
G36*
X65546Y210225D02*
X65546Y210225D01*
X65865Y209492D01*
X65810Y209766D01*
X65546Y210225D01*
D02*
G37*
X65865Y209492D01*
X65810Y209766D01*
X65546Y210225D01*
G36*
X65085Y210561D02*
X65085Y210561D01*
X64492Y210733D01*
X64617Y210254D01*
X65085Y210561D01*
D02*
G37*
X64492Y210733D01*
X64617Y210254D01*
X65085Y210561D01*
G36*
X65085Y210561D01*
X64617Y210254D01*
X64979Y210091D01*
X65085Y210561D01*
D02*
G37*
X64617Y210254D01*
X64979Y210091D01*
X65085Y210561D01*
G36*
X65085Y210561D01*
X64979Y210091D01*
X65222Y209833D01*
X65085Y210561D01*
D02*
G37*
X64979Y210091D01*
X65222Y209833D01*
X65085Y210561D01*
G36*
X65085Y210561D01*
X65222Y209833D01*
X65336Y210411D01*
X65085Y210561D01*
D02*
G37*
X65222Y209833D01*
X65336Y210411D01*
X65085Y210561D01*
G36*
X63373Y210073D02*
X63373Y210073D01*
X63747Y210720D01*
X63172Y209891D01*
X63373Y210073D01*
D02*
G37*
X63747Y210720D01*
X63172Y209891D01*
X63373Y210073D01*
G36*
X63747Y210720D02*
X63747Y210720D01*
X63373Y210073D01*
X63865Y210282D01*
X63747Y210720D01*
D02*
G37*
X63373Y210073D01*
X63865Y210282D01*
X63747Y210720D01*
G36*
X63865Y210282D02*
X63865Y210282D01*
X64150Y210755D01*
X63747Y210720D01*
X63865Y210282D01*
D02*
G37*
X64150Y210755D01*
X63747Y210720D01*
X63865Y210282D01*
G36*
X64150Y210755D02*
X64150Y210755D01*
X63865Y210282D01*
X64156Y210308D01*
X64150Y210755D01*
D02*
G37*
X63865Y210282D01*
X64156Y210308D01*
X64150Y210755D01*
G36*
X64156Y210308D02*
X64156Y210308D01*
X64492Y210733D01*
X64150Y210755D01*
X64156Y210308D01*
D02*
G37*
X64492Y210733D01*
X64150Y210755D01*
X64156Y210308D01*
G36*
X64492Y210733D02*
X64492Y210733D01*
X64156Y210308D01*
X64617Y210254D01*
X64492Y210733D01*
D02*
G37*
X64156Y210308D01*
X64617Y210254D01*
X64492Y210733D01*
G36*
X63062Y210442D02*
X63062Y210442D01*
X62780Y210199D01*
X62823Y209073D01*
X63062Y210442D01*
D02*
G37*
X62780Y210199D01*
X62823Y209073D01*
X63062Y210442D01*
G36*
X63062Y210442D01*
X62823Y209073D01*
X63009Y209661D01*
X63062Y210442D01*
D02*
G37*
X62823Y209073D01*
X63009Y209661D01*
X63062Y210442D01*
G36*
X63062Y210442D01*
X63009Y209661D01*
X63172Y209891D01*
X63062Y210442D01*
D02*
G37*
X63009Y209661D01*
X63172Y209891D01*
X63062Y210442D01*
G36*
X63062Y210442D01*
X63172Y209891D01*
X63747Y210720D01*
X63062Y210442D01*
D02*
G37*
X63172Y209891D01*
X63747Y210720D01*
X63062Y210442D01*
G36*
X63011Y207770D02*
X63011Y207770D01*
X63072Y206988D01*
X63176Y207540D01*
X63011Y207770D01*
D02*
G37*
X63072Y206988D01*
X63176Y207540D01*
X63011Y207770D01*
G36*
X63072Y206988D02*
X63072Y206988D01*
X63011Y207770D01*
X62823Y208357D01*
X63072Y206988D01*
D02*
G37*
X63011Y207770D01*
X62823Y208357D01*
X63072Y206988D01*
G36*
X62823Y208357D02*
X62823Y208357D01*
X62787Y207232D01*
X63072Y206988D01*
X62823Y208357D01*
D02*
G37*
X62787Y207232D01*
X63072Y206988D01*
X62823Y208357D01*
G36*
X62787Y207232D02*
X62787Y207232D01*
X62823Y208357D01*
X62799Y208714D01*
X62787Y207232D01*
D02*
G37*
X62823Y208357D01*
X62799Y208714D01*
X62787Y207232D01*
G36*
X62799Y208714D02*
X62799Y208714D01*
X62780Y210199D01*
X62787Y207232D01*
X62799Y208714D01*
D02*
G37*
X62780Y210199D01*
X62787Y207232D01*
X62799Y208714D01*
G36*
X62780Y210199D02*
X62780Y210199D01*
X62799Y208714D01*
X62823Y209073D01*
X62780Y210199D01*
D02*
G37*
X62799Y208714D01*
X62823Y209073D01*
X62780Y210199D01*
G36*
X62780Y210199D01*
X62556Y207533D01*
X62787Y207232D01*
X62780Y210199D01*
D02*
G37*
X62556Y207533D01*
X62787Y207232D01*
X62780Y210199D01*
G36*
X62556Y207533D02*
X62556Y207533D01*
X62780Y210199D01*
X62552Y209898D01*
X62556Y207533D01*
D02*
G37*
X62780Y210199D01*
X62552Y209898D01*
X62556Y207533D01*
G36*
X62552Y209898D02*
X62552Y209898D01*
X62291Y208275D01*
X62556Y207533D01*
X62552Y209898D01*
D02*
G37*
X62291Y208275D01*
X62556Y207533D01*
X62552Y209898D01*
G36*
X62291Y208275D02*
X62291Y208275D01*
X62552Y209898D01*
X62291Y209155D01*
X62291Y208275D01*
D02*
G37*
X62552Y209898D01*
X62291Y209155D01*
X62291Y208275D01*
G36*
X62291Y209155D02*
X62291Y209155D01*
X62258Y208714D01*
X62291Y208275D01*
X62291Y209155D01*
D02*
G37*
X62258Y208714D01*
X62291Y208275D01*
X62291Y209155D01*
G36*
X65566Y206742D02*
X65566Y206742D01*
X65935Y206742D01*
X65935Y208755D01*
X65566Y206742D01*
D02*
G37*
X65935Y206742D01*
X65935Y208755D01*
X65566Y206742D01*
G36*
X65566Y206742D01*
X65935Y208755D01*
X65429Y208284D01*
X65566Y206742D01*
D02*
G37*
X65935Y208755D01*
X65429Y208284D01*
X65566Y206742D01*
G36*
X65566Y206742D01*
X65429Y208284D01*
X65429Y207684D01*
X65566Y206742D01*
D02*
G37*
X65429Y208284D01*
X65429Y207684D01*
X65566Y206742D01*
G36*
X65566Y206742D01*
X65429Y207684D01*
X65429Y207156D01*
X65566Y206742D01*
D02*
G37*
X65429Y207684D01*
X65429Y207156D01*
X65566Y206742D01*
G36*
X64387Y208755D02*
X64387Y208755D01*
X64387Y208284D01*
X65429Y208284D01*
X64387Y208755D01*
D02*
G37*
X64387Y208284D01*
X65429Y208284D01*
X64387Y208755D01*
G36*
X64387Y208755D01*
X65429Y208284D01*
X65935Y208755D01*
X64387Y208755D01*
D02*
G37*
X65429Y208284D01*
X65935Y208755D01*
X64387Y208755D01*
G36*
X65429Y207684D02*
X65429Y207684D01*
X65199Y206945D01*
X65429Y207156D01*
X65429Y207684D01*
D02*
G37*
X65199Y206945D01*
X65429Y207156D01*
X65429Y207684D01*
G36*
X65199Y206945D02*
X65199Y206945D01*
X65429Y207684D01*
X65194Y207438D01*
X65199Y206945D01*
D02*
G37*
X65429Y207684D01*
X65194Y207438D01*
X65199Y206945D01*
G36*
X65194Y207438D02*
X65194Y207438D01*
X64568Y206705D01*
X65199Y206945D01*
X65194Y207438D01*
D02*
G37*
X64568Y206705D01*
X65199Y206945D01*
X65194Y207438D01*
G36*
X64568Y206705D02*
X64568Y206705D01*
X65194Y207438D01*
X64560Y207156D01*
X64568Y206705D01*
D02*
G37*
X65194Y207438D01*
X64560Y207156D01*
X64568Y206705D01*
G36*
X64560Y207156D02*
X64560Y207156D01*
X64167Y206675D01*
X64568Y206705D01*
X64560Y207156D01*
D02*
G37*
X64167Y206675D01*
X64568Y206705D01*
X64560Y207156D01*
G36*
X64167Y206675D02*
X64167Y206675D01*
X64560Y207156D01*
X64161Y207121D01*
X64167Y206675D01*
D02*
G37*
X64560Y207156D01*
X64161Y207121D01*
X64167Y206675D01*
G36*
X64161Y207121D02*
X64161Y207121D01*
X63871Y207147D01*
X64167Y206675D01*
X64161Y207121D01*
D02*
G37*
X63871Y207147D01*
X64167Y206675D01*
X64161Y207121D01*
G36*
X63761Y206709D02*
X63761Y206709D01*
X64167Y206675D01*
X63871Y207147D01*
X63761Y206709D01*
D02*
G37*
X64167Y206675D01*
X63871Y207147D01*
X63761Y206709D01*
G36*
X63761Y206709D01*
X63871Y207147D01*
X63379Y207357D01*
X63761Y206709D01*
D02*
G37*
X63871Y207147D01*
X63379Y207357D01*
X63761Y206709D01*
G36*
X63761Y206709D01*
X63379Y207357D01*
X63176Y207540D01*
X63761Y206709D01*
D02*
G37*
X63379Y207357D01*
X63176Y207540D01*
X63761Y206709D01*
G36*
X63761Y206709D01*
X63176Y207540D01*
X63072Y206988D01*
X63761Y206709D01*
D02*
G37*
X63176Y207540D01*
X63072Y206988D01*
X63761Y206709D01*
G36*
X70082Y218220D02*
X70082Y218220D01*
X69105Y214274D01*
X70639Y218220D01*
X70082Y218220D01*
D02*
G37*
X69105Y214274D01*
X70639Y218220D01*
X70082Y218220D01*
G36*
X69105Y214274D02*
X69105Y214274D01*
X70082Y218220D01*
X68835Y214837D01*
X69105Y214274D01*
D02*
G37*
X70082Y218220D01*
X68835Y214837D01*
X69105Y214274D01*
G36*
X68835Y214837D02*
X68835Y214837D01*
X68566Y214274D01*
X69105Y214274D01*
X68835Y214837D01*
D02*
G37*
X68566Y214274D01*
X69105Y214274D01*
X68835Y214837D01*
G36*
X68566Y214274D02*
X68566Y214274D01*
X68835Y214837D01*
X67589Y218220D01*
X68566Y214274D01*
D02*
G37*
X68835Y214837D01*
X67589Y218220D01*
X68566Y214274D01*
G36*
X67589Y218220D02*
X67589Y218220D01*
X67032Y218220D01*
X68566Y214274D01*
X67589Y218220D01*
D02*
G37*
X67032Y218220D01*
X68566Y214274D01*
X67589Y218220D01*
G36*
X184160Y231492D02*
X184160Y231492D01*
X184189Y232407D01*
X184062Y231828D01*
X184160Y231492D01*
D02*
G37*
X184189Y232407D01*
X184062Y231828D01*
X184160Y231492D01*
G36*
X184189Y232407D02*
X184189Y232407D01*
X184160Y231492D01*
X184698Y231492D01*
X184189Y232407D01*
D02*
G37*
X184160Y231492D01*
X184698Y231492D01*
X184189Y232407D01*
G36*
X184698Y231492D02*
X184698Y231492D01*
X184391Y232220D01*
X184189Y232407D01*
X184698Y231492D01*
D02*
G37*
X184391Y232220D01*
X184189Y232407D01*
X184698Y231492D01*
G36*
X184391Y232220D02*
X184391Y232220D01*
X184698Y231492D01*
X184645Y231762D01*
X184391Y232220D01*
D02*
G37*
X184698Y231492D01*
X184645Y231762D01*
X184391Y232220D01*
G36*
X183505Y232253D02*
X183505Y232253D01*
X183689Y232668D01*
X183099Y232308D01*
X183505Y232253D01*
D02*
G37*
X183689Y232668D01*
X183099Y232308D01*
X183505Y232253D01*
G36*
X183689Y232668D02*
X183689Y232668D01*
X183505Y232253D01*
X183835Y232087D01*
X183689Y232668D01*
D02*
G37*
X183505Y232253D01*
X183835Y232087D01*
X183689Y232668D01*
G36*
X183835Y232087D02*
X183835Y232087D01*
X184189Y232407D01*
X183689Y232668D01*
X183835Y232087D01*
D02*
G37*
X184189Y232407D01*
X183689Y232668D01*
X183835Y232087D01*
G36*
X184189Y232407D02*
X184189Y232407D01*
X183835Y232087D01*
X184062Y231828D01*
X184189Y232407D01*
D02*
G37*
X183835Y232087D01*
X184062Y231828D01*
X184189Y232407D01*
G36*
X182340Y232075D02*
X182340Y232075D01*
X182696Y232720D01*
X182149Y231895D01*
X182340Y232075D01*
D02*
G37*
X182696Y232720D01*
X182149Y231895D01*
X182340Y232075D01*
G36*
X182696Y232720D02*
X182696Y232720D01*
X182340Y232075D01*
X182815Y232282D01*
X182696Y232720D01*
D02*
G37*
X182340Y232075D01*
X182815Y232282D01*
X182696Y232720D01*
G36*
X182815Y232282D02*
X182815Y232282D01*
X183094Y232755D01*
X182696Y232720D01*
X182815Y232282D01*
D02*
G37*
X183094Y232755D01*
X182696Y232720D01*
X182815Y232282D01*
G36*
X183094Y232755D02*
X183094Y232755D01*
X182815Y232282D01*
X183099Y232308D01*
X183094Y232755D01*
D02*
G37*
X182815Y232282D01*
X183099Y232308D01*
X183094Y232755D01*
G36*
X183099Y232308D02*
X183099Y232308D01*
X183689Y232668D01*
X183094Y232755D01*
X183099Y232308D01*
D02*
G37*
X183689Y232668D01*
X183094Y232755D01*
X183099Y232308D01*
G36*
X182028Y232445D02*
X182028Y232445D01*
X181758Y232204D01*
X181821Y231076D01*
X182028Y232445D01*
D02*
G37*
X181758Y232204D01*
X181821Y231076D01*
X182028Y232445D01*
G36*
X182028Y232445D01*
X181821Y231076D01*
X181996Y231666D01*
X182028Y232445D01*
D02*
G37*
X181821Y231076D01*
X181996Y231666D01*
X182028Y232445D01*
G36*
X182028Y232445D01*
X181996Y231666D01*
X182149Y231895D01*
X182028Y232445D01*
D02*
G37*
X181996Y231666D01*
X182149Y231895D01*
X182028Y232445D01*
G36*
X182028Y232445D01*
X182149Y231895D01*
X182696Y232720D01*
X182028Y232445D01*
D02*
G37*
X182149Y231895D01*
X182696Y232720D01*
X182028Y232445D01*
G36*
X181290Y230269D02*
X181290Y230269D01*
X181290Y231160D01*
X181258Y230714D01*
X181290Y230269D01*
D02*
G37*
X181290Y231160D01*
X181258Y230714D01*
X181290Y230269D01*
G36*
X181290Y231160D02*
X181290Y231160D01*
X181290Y230269D01*
X181539Y229524D01*
X181290Y231160D01*
D02*
G37*
X181290Y230269D01*
X181539Y229524D01*
X181290Y231160D01*
G36*
X181539Y229524D02*
X181539Y229524D01*
X181539Y231905D01*
X181290Y231160D01*
X181539Y229524D01*
D02*
G37*
X181539Y231905D01*
X181290Y231160D01*
X181539Y229524D01*
G36*
X181539Y231905D02*
X181539Y231905D01*
X181539Y229524D01*
X181758Y229225D01*
X181539Y231905D01*
D02*
G37*
X181539Y229524D01*
X181758Y229225D01*
X181539Y231905D01*
G36*
X181758Y229225D02*
X181758Y229225D01*
X181758Y232204D01*
X181539Y231905D01*
X181758Y229225D01*
D02*
G37*
X181758Y232204D01*
X181539Y231905D01*
X181758Y229225D01*
G36*
X181758Y232204D02*
X181758Y232204D01*
X181758Y229225D01*
X181799Y230714D01*
X181758Y232204D01*
D02*
G37*
X181758Y229225D01*
X181799Y230714D01*
X181758Y232204D01*
G36*
X181799Y230714D02*
X181799Y230714D01*
X181821Y231076D01*
X181758Y232204D01*
X181799Y230714D01*
D02*
G37*
X181821Y231076D01*
X181758Y232204D01*
X181799Y230714D01*
G36*
X184698Y229993D02*
X184698Y229993D01*
X184160Y229993D01*
X184203Y229019D01*
X184698Y229993D01*
D02*
G37*
X184160Y229993D01*
X184203Y229019D01*
X184698Y229993D01*
G36*
X184698Y229993D01*
X184203Y229019D01*
X184398Y229209D01*
X184698Y229993D01*
D02*
G37*
X184203Y229019D01*
X184398Y229209D01*
X184698Y229993D01*
G36*
X184698Y229993D01*
X184398Y229209D01*
X184646Y229696D01*
X184698Y229993D01*
D02*
G37*
X184398Y229209D01*
X184646Y229696D01*
X184698Y229993D01*
G36*
X184060Y229622D02*
X184060Y229622D01*
X183837Y229347D01*
X183969Y228868D01*
X184060Y229622D01*
D02*
G37*
X183837Y229347D01*
X183969Y228868D01*
X184060Y229622D01*
G36*
X184060Y229622D01*
X183969Y228868D01*
X184203Y229019D01*
X184060Y229622D01*
D02*
G37*
X183969Y228868D01*
X184203Y229019D01*
X184060Y229622D01*
G36*
X184060Y229622D01*
X184203Y229019D01*
X184160Y229993D01*
X184060Y229622D01*
D02*
G37*
X184203Y229019D01*
X184160Y229993D01*
X184060Y229622D01*
G36*
X183507Y229178D02*
X183507Y229178D01*
X183088Y229121D01*
X183094Y228675D01*
X183507Y229178D01*
D02*
G37*
X183088Y229121D01*
X183094Y228675D01*
X183507Y229178D01*
G36*
X183507Y229178D01*
X183094Y228675D01*
X183414Y228696D01*
X183507Y229178D01*
D02*
G37*
X183094Y228675D01*
X183414Y228696D01*
X183507Y229178D01*
G36*
X183507Y229178D01*
X183414Y228696D01*
X183969Y228868D01*
X183507Y229178D01*
D02*
G37*
X183414Y228696D01*
X183969Y228868D01*
X183507Y229178D01*
G36*
X183507Y229178D01*
X183969Y228868D01*
X183837Y229347D01*
X183507Y229178D01*
D02*
G37*
X183969Y228868D01*
X183837Y229347D01*
X183507Y229178D01*
G36*
X182807Y229147D02*
X182807Y229147D01*
X182336Y229354D01*
X182696Y228709D01*
X182807Y229147D01*
D02*
G37*
X182336Y229354D01*
X182696Y228709D01*
X182807Y229147D01*
G36*
X182807Y229147D01*
X182696Y228709D01*
X183094Y228675D01*
X182807Y229147D01*
D02*
G37*
X182696Y228709D01*
X183094Y228675D01*
X182807Y229147D01*
G36*
X182807Y229147D01*
X183094Y228675D01*
X183088Y229121D01*
X182807Y229147D01*
D02*
G37*
X183094Y228675D01*
X183088Y229121D01*
X182807Y229147D01*
G36*
X182146Y229536D02*
X182146Y229536D01*
X181995Y229765D01*
X182028Y228984D01*
X182146Y229536D01*
D02*
G37*
X181995Y229765D01*
X182028Y228984D01*
X182146Y229536D01*
G36*
X182146Y229536D01*
X182028Y228984D01*
X182696Y228709D01*
X182146Y229536D01*
D02*
G37*
X182028Y228984D01*
X182696Y228709D01*
X182146Y229536D01*
G36*
X182146Y229536D01*
X182696Y228709D01*
X182336Y229354D01*
X182146Y229536D01*
D02*
G37*
X182696Y228709D01*
X182336Y229354D01*
X182146Y229536D01*
G36*
X181821Y230354D02*
X181821Y230354D01*
X181799Y230714D01*
X181758Y229225D01*
X181821Y230354D01*
D02*
G37*
X181799Y230714D01*
X181758Y229225D01*
X181821Y230354D01*
G36*
X181821Y230354D01*
X181758Y229225D01*
X182028Y228984D01*
X181821Y230354D01*
D02*
G37*
X181758Y229225D01*
X182028Y228984D01*
X181821Y230354D01*
G36*
X181821Y230354D01*
X182028Y228984D01*
X181995Y229765D01*
X181821Y230354D01*
D02*
G37*
X182028Y228984D01*
X181995Y229765D01*
X181821Y230354D01*
G36*
X177172Y237226D02*
X177172Y237226D01*
X177172Y236301D01*
X177203Y236768D01*
X177172Y237226D01*
D02*
G37*
X177172Y236301D01*
X177203Y236768D01*
X177172Y237226D01*
G36*
X177172Y236301D02*
X177172Y236301D01*
X177172Y237226D01*
X176921Y237957D01*
X177172Y236301D01*
D02*
G37*
X177172Y237226D01*
X176921Y237957D01*
X177172Y236301D01*
G36*
X176921Y237957D02*
X176921Y237957D01*
X176921Y235553D01*
X177172Y236301D01*
X176921Y237957D01*
D02*
G37*
X176921Y235553D01*
X177172Y236301D01*
X176921Y237957D01*
G36*
X176921Y235553D02*
X176921Y235553D01*
X176921Y237957D01*
X176665Y236768D01*
X176921Y235553D01*
D02*
G37*
X176921Y237957D01*
X176665Y236768D01*
X176921Y235553D01*
G36*
X176665Y236768D02*
X176665Y236768D01*
X176587Y236123D01*
X176921Y235553D01*
X176665Y236768D01*
D02*
G37*
X176587Y236123D01*
X176921Y235553D01*
X176665Y236768D01*
G36*
X176354Y237864D02*
X176354Y237864D01*
X176418Y238445D01*
X176164Y238033D01*
X176354Y237864D01*
D02*
G37*
X176418Y238445D01*
X176164Y238033D01*
X176354Y237864D01*
G36*
X176418Y238445D02*
X176418Y238445D01*
X176354Y237864D01*
X176587Y237396D01*
X176418Y238445D01*
D02*
G37*
X176354Y237864D01*
X176587Y237396D01*
X176418Y238445D01*
G36*
X176587Y237396D02*
X176587Y237396D01*
X176921Y237957D01*
X176418Y238445D01*
X176587Y237396D01*
D02*
G37*
X176921Y237957D01*
X176418Y238445D01*
X176587Y237396D01*
G36*
X176921Y237957D02*
X176921Y237957D01*
X176587Y237396D01*
X176665Y236768D01*
X176921Y237957D01*
D02*
G37*
X176587Y237396D01*
X176665Y236768D01*
X176921Y237957D01*
G36*
X175182Y238251D02*
X175182Y238251D01*
X175193Y238720D01*
X174463Y238251D01*
X175182Y238251D01*
D02*
G37*
X175193Y238720D01*
X174463Y238251D01*
X175182Y238251D01*
G36*
X175193Y238720D02*
X175193Y238720D01*
X175182Y238251D01*
X175578Y238227D01*
X175193Y238720D01*
D02*
G37*
X175182Y238251D01*
X175578Y238227D01*
X175193Y238720D01*
G36*
X175578Y238227D02*
X175578Y238227D01*
X175664Y238689D01*
X175193Y238720D01*
X175578Y238227D01*
D02*
G37*
X175664Y238689D01*
X175193Y238720D01*
X175578Y238227D01*
G36*
X175664Y238689D02*
X175664Y238689D01*
X175578Y238227D01*
X176164Y238033D01*
X175664Y238689D01*
D02*
G37*
X175578Y238227D01*
X176164Y238033D01*
X175664Y238689D01*
G36*
X176164Y238033D02*
X176164Y238033D01*
X176418Y238445D01*
X175664Y238689D01*
X176164Y238033D01*
D02*
G37*
X176418Y238445D01*
X175664Y238689D01*
X176164Y238033D01*
G36*
X174463Y235242D02*
X174463Y235242D01*
X174463Y238251D01*
X173941Y238720D01*
X174463Y235242D01*
D02*
G37*
X174463Y238251D01*
X173941Y238720D01*
X174463Y235242D01*
G36*
X174463Y235242D01*
X173941Y238720D01*
X173941Y234774D01*
X174463Y235242D01*
D02*
G37*
X173941Y238720D01*
X173941Y234774D01*
X174463Y235242D01*
G36*
X174463Y235242D01*
X173941Y234774D01*
X175193Y234774D01*
X174463Y235242D01*
D02*
G37*
X173941Y234774D01*
X175193Y234774D01*
X174463Y235242D01*
G36*
X174463Y235242D01*
X175193Y234774D01*
X175182Y235242D01*
X174463Y235242D01*
D02*
G37*
X175193Y234774D01*
X175182Y235242D01*
X174463Y235242D01*
G36*
X176418Y235054D02*
X176418Y235054D01*
X176921Y235553D01*
X176587Y236123D01*
X176418Y235054D01*
D02*
G37*
X176921Y235553D01*
X176587Y236123D01*
X176418Y235054D01*
G36*
X176418Y235054D01*
X176587Y236123D01*
X176353Y235642D01*
X176418Y235054D01*
D02*
G37*
X176587Y236123D01*
X176353Y235642D01*
X176418Y235054D01*
G36*
X176418Y235054D01*
X176353Y235642D01*
X176163Y235467D01*
X176418Y235054D01*
D02*
G37*
X176353Y235642D01*
X176163Y235467D01*
X176418Y235054D01*
G36*
X176418Y235054D01*
X176163Y235467D01*
X175664Y234805D01*
X176418Y235054D01*
D02*
G37*
X176163Y235467D01*
X175664Y234805D01*
X176418Y235054D01*
G36*
X175577Y235267D02*
X175577Y235267D01*
X175182Y235242D01*
X175193Y234774D01*
X175577Y235267D01*
D02*
G37*
X175182Y235242D01*
X175193Y234774D01*
X175577Y235267D01*
G36*
X175577Y235267D01*
X175193Y234774D01*
X175664Y234805D01*
X175577Y235267D01*
D02*
G37*
X175193Y234774D01*
X175664Y234805D01*
X175577Y235267D01*
G36*
X175577Y235267D01*
X175664Y234805D01*
X176163Y235467D01*
X175577Y235267D01*
D02*
G37*
X175664Y234805D01*
X176163Y235467D01*
X175577Y235267D01*
G36*
X173941Y238720D02*
X173941Y238720D01*
X174463Y238251D01*
X175193Y238720D01*
X173941Y238720D01*
D02*
G37*
X174463Y238251D01*
X175193Y238720D01*
X173941Y238720D01*
G36*
X191824Y224992D02*
X191824Y224992D01*
X191836Y225911D01*
X191722Y225333D01*
X191824Y224992D01*
D02*
G37*
X191836Y225911D01*
X191722Y225333D01*
X191824Y224992D01*
G36*
X191836Y225911D02*
X191836Y225911D01*
X191824Y224992D01*
X192365Y224992D01*
X191836Y225911D01*
D02*
G37*
X191824Y224992D01*
X192365Y224992D01*
X191836Y225911D01*
G36*
X192365Y224992D02*
X192365Y224992D01*
X192046Y225725D01*
X191836Y225911D01*
X192365Y224992D01*
D02*
G37*
X192046Y225725D01*
X191836Y225911D01*
X192365Y224992D01*
G36*
X192046Y225725D02*
X192046Y225725D01*
X192365Y224992D01*
X192310Y225266D01*
X192046Y225725D01*
D02*
G37*
X192365Y224992D01*
X192310Y225266D01*
X192046Y225725D01*
G36*
X191585Y226061D02*
X191585Y226061D01*
X190992Y226233D01*
X191117Y225754D01*
X191585Y226061D01*
D02*
G37*
X190992Y226233D01*
X191117Y225754D01*
X191585Y226061D01*
G36*
X191585Y226061D01*
X191117Y225754D01*
X191479Y225591D01*
X191585Y226061D01*
D02*
G37*
X191117Y225754D01*
X191479Y225591D01*
X191585Y226061D01*
G36*
X191585Y226061D01*
X191479Y225591D01*
X191722Y225333D01*
X191585Y226061D01*
D02*
G37*
X191479Y225591D01*
X191722Y225333D01*
X191585Y226061D01*
G36*
X191585Y226061D01*
X191722Y225333D01*
X191836Y225911D01*
X191585Y226061D01*
D02*
G37*
X191722Y225333D01*
X191836Y225911D01*
X191585Y226061D01*
G36*
X189873Y225573D02*
X189873Y225573D01*
X190247Y226220D01*
X189672Y225391D01*
X189873Y225573D01*
D02*
G37*
X190247Y226220D01*
X189672Y225391D01*
X189873Y225573D01*
G36*
X190247Y226220D02*
X190247Y226220D01*
X189873Y225573D01*
X190365Y225782D01*
X190247Y226220D01*
D02*
G37*
X189873Y225573D01*
X190365Y225782D01*
X190247Y226220D01*
G36*
X190365Y225782D02*
X190365Y225782D01*
X190650Y226255D01*
X190247Y226220D01*
X190365Y225782D01*
D02*
G37*
X190650Y226255D01*
X190247Y226220D01*
X190365Y225782D01*
G36*
X190650Y226255D02*
X190650Y226255D01*
X190365Y225782D01*
X190656Y225808D01*
X190650Y226255D01*
D02*
G37*
X190365Y225782D01*
X190656Y225808D01*
X190650Y226255D01*
G36*
X190656Y225808D02*
X190656Y225808D01*
X190992Y226233D01*
X190650Y226255D01*
X190656Y225808D01*
D02*
G37*
X190992Y226233D01*
X190650Y226255D01*
X190656Y225808D01*
G36*
X190992Y226233D02*
X190992Y226233D01*
X190656Y225808D01*
X191117Y225754D01*
X190992Y226233D01*
D02*
G37*
X190656Y225808D01*
X191117Y225754D01*
X190992Y226233D01*
G36*
X189562Y225942D02*
X189562Y225942D01*
X189280Y225699D01*
X189323Y224573D01*
X189562Y225942D01*
D02*
G37*
X189280Y225699D01*
X189323Y224573D01*
X189562Y225942D01*
G36*
X189562Y225942D01*
X189323Y224573D01*
X189509Y225161D01*
X189562Y225942D01*
D02*
G37*
X189323Y224573D01*
X189509Y225161D01*
X189562Y225942D01*
G36*
X189562Y225942D01*
X189509Y225161D01*
X189672Y225391D01*
X189562Y225942D01*
D02*
G37*
X189509Y225161D01*
X189672Y225391D01*
X189562Y225942D01*
G36*
X189562Y225942D01*
X189672Y225391D01*
X190247Y226220D01*
X189562Y225942D01*
D02*
G37*
X189672Y225391D01*
X190247Y226220D01*
X189562Y225942D01*
G36*
X189511Y223270D02*
X189511Y223270D01*
X189572Y222488D01*
X189676Y223040D01*
X189511Y223270D01*
D02*
G37*
X189572Y222488D01*
X189676Y223040D01*
X189511Y223270D01*
G36*
X189572Y222488D02*
X189572Y222488D01*
X189511Y223270D01*
X189323Y223857D01*
X189572Y222488D01*
D02*
G37*
X189511Y223270D01*
X189323Y223857D01*
X189572Y222488D01*
G36*
X189323Y223857D02*
X189323Y223857D01*
X189287Y222732D01*
X189572Y222488D01*
X189323Y223857D01*
D02*
G37*
X189287Y222732D01*
X189572Y222488D01*
X189323Y223857D01*
G36*
X189287Y222732D02*
X189287Y222732D01*
X189323Y223857D01*
X189299Y224214D01*
X189287Y222732D01*
D02*
G37*
X189323Y223857D01*
X189299Y224214D01*
X189287Y222732D01*
G36*
X189299Y224214D02*
X189299Y224214D01*
X189280Y225699D01*
X189287Y222732D01*
X189299Y224214D01*
D02*
G37*
X189280Y225699D01*
X189287Y222732D01*
X189299Y224214D01*
G36*
X189280Y225699D02*
X189280Y225699D01*
X189299Y224214D01*
X189323Y224573D01*
X189280Y225699D01*
D02*
G37*
X189299Y224214D01*
X189323Y224573D01*
X189280Y225699D01*
G36*
X189280Y225699D01*
X189056Y223033D01*
X189287Y222732D01*
X189280Y225699D01*
D02*
G37*
X189056Y223033D01*
X189287Y222732D01*
X189280Y225699D01*
G36*
X189056Y223033D02*
X189056Y223033D01*
X189280Y225699D01*
X189052Y225398D01*
X189056Y223033D01*
D02*
G37*
X189280Y225699D01*
X189052Y225398D01*
X189056Y223033D01*
G36*
X189052Y225398D02*
X189052Y225398D01*
X188791Y223775D01*
X189056Y223033D01*
X189052Y225398D01*
D02*
G37*
X188791Y223775D01*
X189056Y223033D01*
X189052Y225398D01*
G36*
X188791Y223775D02*
X188791Y223775D01*
X189052Y225398D01*
X188791Y224655D01*
X188791Y223775D01*
D02*
G37*
X189052Y225398D01*
X188791Y224655D01*
X188791Y223775D01*
G36*
X188791Y224655D02*
X188791Y224655D01*
X188758Y224214D01*
X188791Y223775D01*
X188791Y224655D01*
D02*
G37*
X188758Y224214D01*
X188791Y223775D01*
X188791Y224655D01*
G36*
X192066Y222242D02*
X192066Y222242D01*
X192435Y222242D01*
X192435Y224255D01*
X192066Y222242D01*
D02*
G37*
X192435Y222242D01*
X192435Y224255D01*
X192066Y222242D01*
G36*
X192066Y222242D01*
X192435Y224255D01*
X191929Y223784D01*
X192066Y222242D01*
D02*
G37*
X192435Y224255D01*
X191929Y223784D01*
X192066Y222242D01*
G36*
X192066Y222242D01*
X191929Y223784D01*
X191929Y223184D01*
X192066Y222242D01*
D02*
G37*
X191929Y223784D01*
X191929Y223184D01*
X192066Y222242D01*
G36*
X192066Y222242D01*
X191929Y223184D01*
X191929Y222656D01*
X192066Y222242D01*
D02*
G37*
X191929Y223184D01*
X191929Y222656D01*
X192066Y222242D01*
G36*
X190887Y224255D02*
X190887Y224255D01*
X190887Y223784D01*
X191929Y223784D01*
X190887Y224255D01*
D02*
G37*
X190887Y223784D01*
X191929Y223784D01*
X190887Y224255D01*
G36*
X190887Y224255D01*
X191929Y223784D01*
X192435Y224255D01*
X190887Y224255D01*
D02*
G37*
X191929Y223784D01*
X192435Y224255D01*
X190887Y224255D01*
G36*
X191929Y223184D02*
X191929Y223184D01*
X191699Y222445D01*
X191929Y222656D01*
X191929Y223184D01*
D02*
G37*
X191699Y222445D01*
X191929Y222656D01*
X191929Y223184D01*
G36*
X191699Y222445D02*
X191699Y222445D01*
X191929Y223184D01*
X191694Y222938D01*
X191699Y222445D01*
D02*
G37*
X191929Y223184D01*
X191694Y222938D01*
X191699Y222445D01*
G36*
X191694Y222938D02*
X191694Y222938D01*
X191068Y222205D01*
X191699Y222445D01*
X191694Y222938D01*
D02*
G37*
X191068Y222205D01*
X191699Y222445D01*
X191694Y222938D01*
G36*
X191068Y222205D02*
X191068Y222205D01*
X191694Y222938D01*
X191060Y222656D01*
X191068Y222205D01*
D02*
G37*
X191694Y222938D01*
X191060Y222656D01*
X191068Y222205D01*
G36*
X191060Y222656D02*
X191060Y222656D01*
X190667Y222175D01*
X191068Y222205D01*
X191060Y222656D01*
D02*
G37*
X190667Y222175D01*
X191068Y222205D01*
X191060Y222656D01*
G36*
X190667Y222175D02*
X190667Y222175D01*
X191060Y222656D01*
X190661Y222621D01*
X190667Y222175D01*
D02*
G37*
X191060Y222656D01*
X190661Y222621D01*
X190667Y222175D01*
G36*
X190661Y222621D02*
X190661Y222621D01*
X190371Y222647D01*
X190667Y222175D01*
X190661Y222621D01*
D02*
G37*
X190371Y222647D01*
X190667Y222175D01*
X190661Y222621D01*
G36*
X190261Y222209D02*
X190261Y222209D01*
X190667Y222175D01*
X190371Y222647D01*
X190261Y222209D01*
D02*
G37*
X190667Y222175D01*
X190371Y222647D01*
X190261Y222209D01*
G36*
X190261Y222209D01*
X190371Y222647D01*
X189879Y222857D01*
X190261Y222209D01*
D02*
G37*
X190371Y222647D01*
X189879Y222857D01*
X190261Y222209D01*
G36*
X190261Y222209D01*
X189879Y222857D01*
X189676Y223040D01*
X190261Y222209D01*
D02*
G37*
X189879Y222857D01*
X189676Y223040D01*
X190261Y222209D01*
G36*
X190261Y222209D01*
X189676Y223040D01*
X189572Y222488D01*
X190261Y222209D01*
D02*
G37*
X189676Y223040D01*
X189572Y222488D01*
X190261Y222209D01*
G36*
X199082Y220220D02*
X199082Y220220D01*
X198105Y216274D01*
X199639Y220220D01*
X199082Y220220D01*
D02*
G37*
X198105Y216274D01*
X199639Y220220D01*
X199082Y220220D01*
G36*
X198105Y216274D02*
X198105Y216274D01*
X199082Y220220D01*
X197835Y216837D01*
X198105Y216274D01*
D02*
G37*
X199082Y220220D01*
X197835Y216837D01*
X198105Y216274D01*
G36*
X197835Y216837D02*
X197835Y216837D01*
X197566Y216274D01*
X198105Y216274D01*
X197835Y216837D01*
D02*
G37*
X197566Y216274D01*
X198105Y216274D01*
X197835Y216837D01*
G36*
X197566Y216274D02*
X197566Y216274D01*
X197835Y216837D01*
X196589Y220220D01*
X197566Y216274D01*
D02*
G37*
X197835Y216837D01*
X196589Y220220D01*
X197566Y216274D01*
G36*
X196589Y220220D02*
X196589Y220220D01*
X196032Y220220D01*
X197566Y216274D01*
X196589Y220220D01*
D02*
G37*
X196032Y220220D01*
X197566Y216274D01*
X196589Y220220D01*
G36*
X40222Y176696D02*
X40222Y176696D01*
X40675Y174085D01*
X40675Y176696D01*
X40222Y176696D01*
D02*
G37*
X40675Y174085D01*
X40675Y176696D01*
X40222Y176696D01*
G36*
X40675Y174085D02*
X40675Y174085D01*
X40222Y176696D01*
X40222Y175617D01*
X40675Y174085D01*
D02*
G37*
X40222Y176696D01*
X40222Y175617D01*
X40675Y174085D01*
G36*
X40222Y175617D02*
X40222Y175617D01*
X40222Y175165D01*
X40675Y174085D01*
X40222Y175617D01*
D02*
G37*
X40222Y175165D01*
X40675Y174085D01*
X40222Y175617D01*
G36*
X40222Y175165D02*
X40222Y175165D01*
X40222Y175617D01*
X39143Y175617D01*
X40222Y175165D01*
D02*
G37*
X40222Y175617D01*
X39143Y175617D01*
X40222Y175165D01*
G36*
X39143Y175617D02*
X39143Y175617D01*
X39143Y175165D01*
X40222Y175165D01*
X39143Y175617D01*
D02*
G37*
X39143Y175165D01*
X40222Y175165D01*
X39143Y175617D01*
G36*
X40675Y175165D02*
X40675Y175165D01*
X41754Y175165D01*
X40675Y175617D01*
X40675Y175165D01*
D02*
G37*
X41754Y175165D01*
X40675Y175617D01*
X40675Y175165D01*
G36*
X40675Y175165D01*
X40675Y176696D01*
X40675Y175165D01*
D02*
G37*
X40675Y176696D01*
X40675Y175165D01*
G36*
X40675Y175165D01*
X40675Y176696D01*
X40675Y174085D01*
X40675Y175165D01*
D02*
G37*
X40675Y176696D01*
X40675Y174085D01*
X40675Y175165D01*
G36*
X40675Y175617D02*
X40675Y175617D01*
X41754Y175165D01*
X41754Y175617D01*
X40675Y175617D01*
D02*
G37*
X41754Y175165D01*
X41754Y175617D01*
X40675Y175617D01*
G36*
X40675Y174085D02*
X40675Y174085D01*
X40222Y175165D01*
X40222Y174085D01*
X40675Y174085D01*
D02*
G37*
X40222Y175165D01*
X40222Y174085D01*
X40675Y174085D01*
G36*
X40687Y148342D02*
X40687Y148342D01*
X41174Y148342D01*
X41174Y149822D01*
X40687Y148342D01*
D02*
G37*
X41174Y148342D01*
X41174Y149822D01*
X40687Y148342D01*
G36*
X40687Y148342D01*
X41174Y149822D01*
X40687Y149822D01*
X40687Y148342D01*
D02*
G37*
X41174Y149822D01*
X40687Y149822D01*
X40687Y148342D01*
G36*
X76132Y224679D02*
X76132Y224679D01*
X76477Y224334D01*
X77523Y225381D01*
X76132Y224679D01*
D02*
G37*
X76477Y224334D01*
X77523Y225381D01*
X76132Y224679D01*
G36*
X76132Y224679D01*
X77523Y225381D01*
X77179Y225726D01*
X76132Y224679D01*
D02*
G37*
X77523Y225381D01*
X77179Y225726D01*
X76132Y224679D01*
G36*
X84305Y232014D02*
X84305Y232014D01*
X85068Y232778D01*
X84749Y233097D01*
X84305Y232014D01*
D02*
G37*
X85068Y232778D01*
X84749Y233097D01*
X84305Y232014D01*
G36*
X84305Y232014D01*
X84749Y233097D01*
X83986Y232334D01*
X84305Y232014D01*
D02*
G37*
X84749Y233097D01*
X83986Y232334D01*
X84305Y232014D01*
G36*
X84305Y232014D01*
X83986Y232334D01*
X84749Y230932D01*
X84305Y232014D01*
D02*
G37*
X83986Y232334D01*
X84749Y230932D01*
X84305Y232014D01*
G36*
X84305Y232014D01*
X84749Y230932D01*
X85068Y231251D01*
X84305Y232014D01*
D02*
G37*
X84749Y230932D01*
X85068Y231251D01*
X84305Y232014D01*
G36*
X83222Y230932D02*
X83222Y230932D01*
X83666Y232014D01*
X82903Y231251D01*
X83222Y230932D01*
D02*
G37*
X83666Y232014D01*
X82903Y231251D01*
X83222Y230932D01*
G36*
X83666Y232014D02*
X83666Y232014D01*
X83222Y230932D01*
X83986Y231695D01*
X83666Y232014D01*
D02*
G37*
X83222Y230932D01*
X83986Y231695D01*
X83666Y232014D01*
G36*
X83986Y231695D02*
X83986Y231695D01*
X83986Y232334D01*
X83666Y232014D01*
X83986Y231695D01*
D02*
G37*
X83986Y232334D01*
X83666Y232014D01*
X83986Y231695D01*
G36*
X83986Y232334D02*
X83986Y232334D01*
X83986Y231695D01*
X84749Y230932D01*
X83986Y232334D01*
D02*
G37*
X83986Y231695D01*
X84749Y230932D01*
X83986Y232334D01*
G36*
X83222Y233097D02*
X83222Y233097D01*
X82903Y232778D01*
X83666Y232014D01*
X83222Y233097D01*
D02*
G37*
X82903Y232778D01*
X83666Y232014D01*
X83222Y233097D01*
G36*
X83222Y233097D01*
X83666Y232014D01*
X83986Y232334D01*
X83222Y233097D01*
D02*
G37*
X83666Y232014D01*
X83986Y232334D01*
X83222Y233097D01*
G36*
X73805Y103986D02*
X73805Y103986D01*
X74568Y104749D01*
X74249Y105068D01*
X73805Y103986D01*
D02*
G37*
X74568Y104749D01*
X74249Y105068D01*
X73805Y103986D01*
G36*
X73805Y103986D01*
X74249Y105068D01*
X73486Y104305D01*
X73805Y103986D01*
D02*
G37*
X74249Y105068D01*
X73486Y104305D01*
X73805Y103986D01*
G36*
X73805Y103986D01*
X73486Y104305D01*
X74249Y102903D01*
X73805Y103986D01*
D02*
G37*
X73486Y104305D01*
X74249Y102903D01*
X73805Y103986D01*
G36*
X73805Y103986D01*
X74249Y102903D01*
X74568Y103222D01*
X73805Y103986D01*
D02*
G37*
X74249Y102903D01*
X74568Y103222D01*
X73805Y103986D01*
G36*
X72722Y102903D02*
X72722Y102903D01*
X73166Y103986D01*
X72403Y103222D01*
X72722Y102903D01*
D02*
G37*
X73166Y103986D01*
X72403Y103222D01*
X72722Y102903D01*
G36*
X73166Y103986D02*
X73166Y103986D01*
X72722Y102903D01*
X73486Y103666D01*
X73166Y103986D01*
D02*
G37*
X72722Y102903D01*
X73486Y103666D01*
X73166Y103986D01*
G36*
X73486Y103666D02*
X73486Y103666D01*
X73486Y104305D01*
X73166Y103986D01*
X73486Y103666D01*
D02*
G37*
X73486Y104305D01*
X73166Y103986D01*
X73486Y103666D01*
G36*
X73486Y104305D02*
X73486Y104305D01*
X73486Y103666D01*
X74249Y102903D01*
X73486Y104305D01*
D02*
G37*
X73486Y103666D01*
X74249Y102903D01*
X73486Y104305D01*
G36*
X72722Y105068D02*
X72722Y105068D01*
X72403Y104749D01*
X73166Y103986D01*
X72722Y105068D01*
D02*
G37*
X72403Y104749D01*
X73166Y103986D01*
X72722Y105068D01*
G36*
X72722Y105068D01*
X73166Y103986D01*
X73486Y104305D01*
X72722Y105068D01*
D02*
G37*
X73166Y103986D01*
X73486Y104305D01*
X72722Y105068D01*
G36*
X80821Y96132D02*
X80821Y96132D01*
X81166Y96477D01*
X80119Y97523D01*
X80821Y96132D01*
D02*
G37*
X81166Y96477D01*
X80119Y97523D01*
X80821Y96132D01*
G36*
X80821Y96132D01*
X80119Y97523D01*
X79774Y97179D01*
X80821Y96132D01*
D02*
G37*
X80119Y97523D01*
X79774Y97179D01*
X80821Y96132D01*
G54D12*
X138850Y166362D02*
X138850Y163213D01*
X139638Y162425D01*
X140425Y162425D01*
X141213Y163213D01*
X141213Y166362D01*
X142394Y163213D02*
X143181Y162425D01*
X143969Y162425D01*
X144756Y163213D01*
X144756Y164787D01*
X144756Y165575D01*
X143969Y166362D01*
X143181Y166362D01*
X142394Y165575D01*
X142394Y164787D01*
X143181Y164000D01*
X143969Y164000D01*
X144756Y164787D01*
X114441Y136441D02*
X117000Y136441D01*
X114441Y139000D02*
X114441Y136441D01*
X117000Y191559D02*
X114441Y191559D01*
X114441Y189000D01*
X116567Y187622D02*
G75*
D01*
G02X116567Y187622I984J0*
G01*
X169559Y136441D02*
X167000Y136441D01*
X169559Y139000D02*
X169559Y136441D01*
X169559Y191559D02*
X167000Y191559D01*
X169559Y189000D02*
X169559Y191559D01*
X96743Y149457D02*
X95960Y148669D01*
X95176Y148669D01*
X94392Y149457D01*
X94392Y151819D01*
X95176Y152606D01*
X95960Y152606D01*
X96743Y151819D01*
X98311Y151819D02*
X99095Y152606D01*
X99095Y148669D01*
X97919Y148669D02*
X100271Y148669D01*
X103798Y150244D02*
X101447Y150244D01*
X103406Y152606D01*
X103406Y148669D01*
X103014Y148669D02*
X103798Y148669D01*
X95833Y153333D02*
X95833Y166667D01*
X104167Y166667D02*
X104167Y153333D01*
X95833Y166667D02*
X104167Y166667D01*
X104167Y153333D02*
X95833Y153333D01*
X89181Y145608D02*
X93118Y145608D01*
X93118Y144040D01*
X92331Y143257D01*
X91937Y143257D01*
X91150Y144040D01*
X91150Y145608D01*
X91150Y145216D02*
X89181Y143257D01*
X92331Y141689D02*
X93118Y140905D01*
X89181Y140905D01*
X89181Y142081D02*
X89181Y139729D01*
X89969Y138553D02*
X89181Y137770D01*
X89181Y136986D01*
X89969Y136202D01*
X91543Y136202D01*
X92331Y136202D01*
X93118Y136986D01*
X93118Y137770D01*
X92331Y138553D01*
X91543Y138553D01*
X90756Y137770D01*
X90756Y136986D01*
X91543Y136202D01*
X79833Y135333D02*
X79833Y148667D01*
X88167Y148667D02*
X88167Y135333D01*
X79833Y148667D02*
X88167Y148667D01*
X88167Y135333D02*
X79833Y135333D01*
X87243Y168457D02*
X86460Y167669D01*
X85676Y167669D01*
X84892Y168457D01*
X84892Y170819D01*
X85676Y171606D01*
X86460Y171606D01*
X87243Y170819D01*
X88811Y170819D02*
X89595Y171606D01*
X89595Y167669D01*
X88419Y167669D02*
X90771Y167669D01*
X94298Y171606D02*
X91947Y171606D01*
X91947Y170031D01*
X93514Y170031D01*
X94298Y169244D01*
X94298Y168457D01*
X93514Y167669D01*
X91947Y167669D01*
X85833Y153333D02*
X85833Y166667D01*
X94167Y166667D02*
X94167Y153333D01*
X85833Y166667D02*
X94167Y166667D01*
X94167Y153333D02*
X85833Y153333D01*
X75743Y168457D02*
X74960Y167669D01*
X74176Y167669D01*
X73392Y168457D01*
X73392Y170819D01*
X74176Y171606D01*
X74960Y171606D01*
X75743Y170819D01*
X77311Y170819D02*
X78095Y171606D01*
X78095Y167669D01*
X76919Y167669D02*
X79271Y167669D01*
X80447Y170819D02*
X81230Y171606D01*
X82014Y171606D01*
X82798Y170819D01*
X82798Y168457D01*
X82014Y167669D01*
X81230Y167669D01*
X80447Y168457D01*
X80447Y170819D01*
X82798Y170819D02*
X80447Y168457D01*
X75833Y153333D02*
X75833Y166667D01*
X84167Y166667D02*
X84167Y153333D01*
X75833Y166667D02*
X84167Y166667D01*
X84167Y153333D02*
X75833Y153333D01*
X68243Y143957D02*
X67460Y143169D01*
X66676Y143169D01*
X65892Y143957D01*
X65892Y146319D01*
X66676Y147106D01*
X67460Y147106D01*
X68243Y146319D01*
X69811Y146319D02*
X70595Y147106D01*
X70595Y143169D01*
X69419Y143169D02*
X71771Y143169D01*
X73338Y146319D02*
X74122Y147106D01*
X74122Y143169D01*
X72947Y143169D02*
X75298Y143169D01*
X51333Y150167D02*
X64667Y150167D01*
X64667Y141833D02*
X51333Y141833D01*
X64667Y150167D02*
X64667Y141833D01*
X51333Y141833D02*
X51333Y150167D01*
X41357Y130634D02*
X41357Y134571D01*
X42925Y134571D01*
X43708Y133784D01*
X43708Y133390D01*
X42925Y132603D01*
X41357Y132603D01*
X41749Y132603D02*
X43708Y130634D01*
X44884Y133784D02*
X45668Y134571D01*
X46452Y134571D01*
X47236Y133784D01*
X47236Y133390D01*
X44884Y130634D01*
X47236Y130634D01*
X47236Y131028D01*
X48411Y133784D02*
X49195Y134571D01*
X49979Y134571D01*
X50763Y133784D01*
X50763Y131422D01*
X49979Y130634D01*
X49195Y130634D01*
X48411Y131422D01*
X48411Y133784D01*
X50763Y133784D02*
X48411Y131422D01*
X39833Y135333D02*
X39833Y148667D01*
X48167Y148667D02*
X48167Y135333D01*
X39833Y148667D02*
X48167Y148667D01*
X48167Y135333D02*
X39833Y135333D01*
X37556Y178821D02*
X38667Y178226D01*
X39778Y178226D01*
X40889Y178821D01*
X40889Y181202D01*
X42556Y180607D02*
X43667Y181202D01*
X44778Y181202D01*
X45889Y180607D01*
X45889Y180310D01*
X42556Y178226D01*
X45889Y178226D01*
X45889Y178524D01*
X36000Y152500D02*
X36000Y172500D01*
X46000Y165000D02*
X46000Y172500D01*
X36000Y172500D01*
X46000Y152500D02*
X46000Y161667D01*
X46000Y163333D02*
X42667Y163333D01*
X45167Y164167D02*
X46000Y163333D01*
X46000Y152500D02*
X36000Y152500D01*
X50972Y168685D02*
X50188Y167898D01*
X49404Y167898D01*
X48621Y168685D01*
X48621Y171047D01*
X49404Y171835D01*
X50188Y171835D01*
X50972Y171047D01*
X52148Y168685D02*
X52932Y167898D01*
X53716Y167898D01*
X54499Y168685D01*
X54499Y170260D01*
X54499Y171047D01*
X53716Y171835D01*
X52932Y171835D01*
X52148Y171047D01*
X52148Y170260D01*
X52932Y169473D01*
X53716Y169473D01*
X54499Y170260D01*
X47833Y153333D02*
X47833Y166667D01*
X56167Y166667D02*
X56167Y153333D01*
X47833Y166667D02*
X56167Y166667D01*
X56167Y153333D02*
X47833Y153333D01*
X61430Y173554D02*
X63398Y176963D01*
X64756Y176179D01*
X65041Y175105D01*
X64844Y174764D01*
X63772Y174474D01*
X62414Y175258D01*
X62754Y175062D02*
X63466Y172378D01*
X66060Y174518D02*
X67132Y174808D01*
X67811Y174416D01*
X68096Y173342D01*
X67899Y173001D01*
X64485Y171790D01*
X66521Y170614D01*
X66718Y170955D01*
X69454Y172558D02*
X70526Y172848D01*
X68558Y169438D01*
X67539Y170026D02*
X69576Y168850D01*
X65058Y178310D02*
X71725Y189857D01*
X78942Y185690D02*
X72275Y174143D01*
X71725Y189857D02*
X78942Y185690D01*
X72275Y174143D02*
X65058Y178310D01*
X63701Y179671D02*
X74528Y198424D01*
X64299Y204329D01*
X53472Y185576D01*
X63701Y179671D01*
X39158Y189335D02*
X39822Y188264D01*
X40784Y187708D01*
X42044Y187668D01*
X43235Y189730D01*
X45115Y185208D02*
X44152Y185764D01*
X43488Y186835D01*
X43785Y187350D01*
X44415Y187330D01*
X44083Y187866D01*
X44381Y188381D01*
X45640Y188341D01*
X46603Y187786D01*
X47267Y186715D01*
X46970Y186199D01*
X46340Y186219D01*
X46672Y185684D01*
X46374Y185168D01*
X45115Y185208D01*
X44415Y187330D02*
X46340Y186219D01*
X39670Y192713D02*
X59670Y227354D01*
X48330Y187713D02*
X63330Y213693D01*
X68330Y222354D02*
X59670Y227354D01*
X64580Y215858D02*
X68330Y222354D01*
X63747Y214415D02*
X60860Y216082D01*
X63442Y215553D02*
X63747Y214415D01*
X48330Y187713D02*
X39670Y192713D01*
X85914Y228371D02*
X81453Y228119D01*
X83810Y230476D02*
X83557Y226014D01*
X81565Y224864D02*
X81200Y223657D01*
X79096Y225762D01*
X80274Y226940D02*
X77917Y224583D01*
X64358Y230429D02*
X78500Y244571D01*
X80268Y232197D02*
X85571Y237500D01*
X78500Y244571D01*
X71429Y223358D02*
X77911Y229840D01*
X79089Y231018D02*
X76732Y233375D01*
X79089Y232197D02*
X79089Y231018D01*
X71429Y223358D02*
X64358Y230429D01*
X86121Y212398D02*
X86121Y216335D01*
X87688Y216335D01*
X88472Y215547D01*
X88472Y215154D01*
X87688Y214366D01*
X86121Y214366D01*
X86512Y214366D02*
X88472Y212398D01*
X90040Y215547D02*
X90824Y216335D01*
X90824Y212398D01*
X89648Y212398D02*
X91999Y212398D01*
X83833Y217333D02*
X83833Y230667D01*
X92167Y230667D02*
X92167Y217333D01*
X83833Y230667D02*
X92167Y230667D01*
X92167Y217333D02*
X83833Y217333D01*
X96972Y213185D02*
X96188Y212398D01*
X95404Y212398D01*
X94621Y213185D01*
X94621Y215547D01*
X95404Y216335D01*
X96188Y216335D01*
X96972Y215547D01*
X98540Y215547D02*
X99324Y216335D01*
X99324Y212398D01*
X98148Y212398D02*
X100499Y212398D01*
X102167Y230667D02*
X102167Y217333D01*
X93833Y217333D02*
X93833Y230667D01*
X102167Y217333D02*
X93833Y217333D01*
X93833Y230667D02*
X102167Y230667D01*
X79243Y130457D02*
X78460Y129669D01*
X77676Y129669D01*
X76892Y130457D01*
X76892Y132819D01*
X77676Y133606D01*
X78460Y133606D01*
X79243Y132819D01*
X80811Y132819D02*
X81595Y133606D01*
X81595Y129669D01*
X80419Y129669D02*
X82771Y129669D01*
X85514Y129669D02*
X84730Y129669D01*
X83947Y130457D01*
X83947Y131244D01*
X84338Y131638D01*
X83947Y132031D01*
X83947Y132819D01*
X84730Y133606D01*
X85514Y133606D01*
X86298Y132819D01*
X86298Y132031D01*
X85906Y131638D01*
X86298Y131244D01*
X86298Y130457D01*
X85514Y129669D01*
X84338Y131638D02*
X85906Y131638D01*
X77833Y115333D02*
X77833Y128667D01*
X86167Y128667D02*
X86167Y115333D01*
X77833Y128667D02*
X86167Y128667D01*
X86167Y115333D02*
X77833Y115333D01*
X69208Y111422D02*
X68425Y110634D01*
X67641Y110634D01*
X66857Y111422D01*
X66857Y113784D01*
X67641Y114571D01*
X68425Y114571D01*
X69208Y113784D01*
X70776Y113784D02*
X71560Y114571D01*
X71560Y110634D01*
X70384Y110634D02*
X72736Y110634D01*
X73911Y111422D02*
X74695Y110634D01*
X75479Y110634D01*
X76263Y111422D01*
X76263Y112996D01*
X76263Y113784D01*
X75479Y114571D01*
X74695Y114571D01*
X73911Y113784D01*
X73911Y112996D01*
X74695Y112209D01*
X75479Y112209D01*
X76263Y112996D01*
X67833Y115333D02*
X67833Y128667D01*
X76167Y128667D02*
X76167Y115333D01*
X67833Y128667D02*
X76167Y128667D01*
X76167Y115333D02*
X67833Y115333D01*
X57603Y102611D02*
X59287Y100928D01*
X60493Y101292D01*
X61279Y102078D01*
X61644Y103285D01*
X59960Y104968D01*
X64759Y107241D02*
X62402Y104884D01*
X63103Y108111D01*
X65207Y106007D01*
X64815Y105614D02*
X65600Y106399D01*
X75071Y84358D02*
X60929Y98500D01*
X73303Y100268D02*
X68000Y105571D01*
X60929Y98500D01*
X82142Y91429D02*
X75660Y97911D01*
X74482Y99089D02*
X72125Y96732D01*
X73303Y99089D02*
X74482Y99089D01*
X82142Y91429D02*
X75071Y84358D01*
X84681Y88608D02*
X88618Y88608D01*
X88618Y87040D01*
X87831Y86257D01*
X87437Y86257D01*
X86650Y87040D01*
X86650Y88608D01*
X86650Y88216D02*
X84681Y86257D01*
X87831Y84689D02*
X88618Y83905D01*
X84681Y83905D01*
X84681Y85081D02*
X84681Y82729D01*
X86256Y79202D02*
X86256Y81553D01*
X88618Y79594D01*
X84681Y79594D01*
X84681Y79986D02*
X84681Y79202D01*
X89833Y77333D02*
X89833Y90667D01*
X98167Y90667D02*
X98167Y77333D01*
X89833Y90667D02*
X98167Y90667D01*
X98167Y77333D02*
X89833Y77333D01*
X89743Y111457D02*
X88960Y110669D01*
X88176Y110669D01*
X87392Y111457D01*
X87392Y113819D01*
X88176Y114606D01*
X88960Y114606D01*
X89743Y113819D01*
X90919Y113819D02*
X91703Y114606D01*
X92487Y114606D01*
X93271Y113819D01*
X93271Y113425D01*
X90919Y110669D01*
X93271Y110669D01*
X93271Y111063D01*
X94447Y113819D02*
X95230Y114606D01*
X96014Y114606D01*
X96798Y113819D01*
X96798Y111457D01*
X96014Y110669D01*
X95230Y110669D01*
X94447Y111457D01*
X94447Y113819D01*
X96798Y113819D02*
X94447Y111457D01*
X87833Y115333D02*
X87833Y128667D01*
X96167Y128667D02*
X96167Y115333D01*
X87833Y128667D02*
X96167Y128667D01*
X96167Y115333D02*
X87833Y115333D01*
X121453Y245379D02*
X125390Y245379D01*
X125390Y243812D01*
X124602Y243028D01*
X124208Y243028D01*
X123421Y243812D01*
X123421Y245379D01*
X123421Y244988D02*
X121453Y243028D01*
X125390Y239501D02*
X125390Y241852D01*
X123815Y241852D01*
X123815Y240284D01*
X123027Y239501D01*
X122240Y239501D01*
X121453Y240284D01*
X121453Y241852D01*
X120667Y237833D02*
X107333Y237833D01*
X107333Y246167D02*
X120667Y246167D01*
X107333Y237833D02*
X107333Y246167D01*
X120667Y246167D02*
X120667Y237833D01*
X110472Y218685D02*
X109688Y217898D01*
X108904Y217898D01*
X108121Y218685D01*
X108121Y221047D01*
X108904Y221835D01*
X109688Y221835D01*
X110472Y221047D01*
X113999Y219473D02*
X111648Y219473D01*
X113607Y221835D01*
X113607Y217898D01*
X113216Y217898D02*
X113999Y217898D01*
X107833Y223333D02*
X107833Y236667D01*
X116167Y236667D02*
X116167Y223333D01*
X107833Y236667D02*
X116167Y236667D01*
X116167Y223333D02*
X107833Y223333D01*
X132543Y214662D02*
X133331Y213878D01*
X133331Y213094D01*
X132543Y212310D01*
X130181Y212310D01*
X129394Y213094D01*
X129394Y213878D01*
X130181Y214662D01*
X130181Y216229D02*
X129394Y217013D01*
X133331Y217013D01*
X133331Y215837D02*
X133331Y218189D01*
X129787Y219757D02*
X129394Y220148D01*
X129394Y220932D01*
X130181Y221716D01*
X130969Y221716D01*
X131362Y221324D01*
X131756Y221716D01*
X132543Y221716D01*
X133331Y220932D01*
X133331Y220148D01*
X132937Y219757D01*
X131362Y220148D02*
X131362Y221324D01*
X134333Y221167D02*
X147667Y221167D01*
X147667Y212833D02*
X134333Y212833D01*
X147667Y221167D02*
X147667Y212833D01*
X134333Y212833D02*
X134333Y221167D01*
X132496Y204208D02*
X133284Y203425D01*
X133284Y202641D01*
X132496Y201857D01*
X130134Y201857D01*
X129347Y202641D01*
X129347Y203425D01*
X130134Y204208D01*
X130134Y205776D02*
X129347Y206560D01*
X133284Y206560D01*
X133284Y205384D02*
X133284Y207736D01*
X130134Y208911D02*
X129347Y209695D01*
X129347Y210479D01*
X130134Y211263D01*
X130528Y211263D01*
X133284Y208911D01*
X133284Y211263D01*
X132890Y211263D01*
X134333Y211167D02*
X147667Y211167D01*
X147667Y202833D02*
X134333Y202833D01*
X147667Y211167D02*
X147667Y202833D01*
X134333Y202833D02*
X134333Y211167D01*
X99392Y249669D02*
X99392Y253606D01*
X100960Y253606D01*
X101743Y252819D01*
X101743Y252425D01*
X100960Y251638D01*
X99392Y251638D01*
X99784Y251638D02*
X101743Y249669D01*
X103311Y253213D02*
X103703Y253606D01*
X104487Y253606D01*
X105271Y252819D01*
X105271Y252031D01*
X104879Y251638D01*
X105271Y251244D01*
X105271Y250457D01*
X104487Y249669D01*
X103703Y249669D01*
X103311Y250063D01*
X103703Y251638D02*
X104879Y251638D01*
X104667Y239833D02*
X91333Y239833D01*
X91333Y248167D02*
X104667Y248167D01*
X91333Y239833D02*
X91333Y248167D01*
X104667Y248167D02*
X104667Y239833D01*
X122740Y253028D02*
X121953Y253812D01*
X121953Y254596D01*
X122740Y255379D01*
X125102Y255379D01*
X125890Y254596D01*
X125890Y253812D01*
X125102Y253028D01*
X125496Y251460D02*
X125890Y251068D01*
X125890Y250284D01*
X125102Y249501D01*
X124315Y249501D01*
X123921Y249893D01*
X123527Y249501D01*
X122740Y249501D01*
X121953Y250284D01*
X121953Y251068D01*
X122346Y251460D01*
X123921Y251068D02*
X123921Y249893D01*
X120667Y247833D02*
X107333Y247833D01*
X107333Y256167D02*
X120667Y256167D01*
X107333Y247833D02*
X107333Y256167D01*
X120667Y256167D02*
X120667Y247833D01*
X129892Y249669D02*
X129892Y253606D01*
X131460Y253606D01*
X132243Y252819D01*
X132243Y252425D01*
X131460Y251638D01*
X129892Y251638D01*
X130284Y251638D02*
X132243Y249669D01*
X135771Y251244D02*
X133419Y251244D01*
X135379Y253606D01*
X135379Y249669D01*
X134987Y249669D02*
X135771Y249669D01*
X127333Y248167D02*
X140667Y248167D01*
X140667Y239833D02*
X127333Y239833D01*
X140667Y248167D02*
X140667Y239833D01*
X127333Y239833D02*
X127333Y248167D01*
X165382Y226723D02*
X162366Y229253D01*
X163374Y230454D01*
X164481Y230549D01*
X164782Y230296D01*
X164882Y229189D01*
X163874Y227988D01*
X164126Y228288D02*
X166893Y228524D01*
X165236Y231449D02*
X165137Y232556D01*
X165641Y233156D01*
X166748Y233251D01*
X167050Y232998D01*
X167649Y229425D01*
X169161Y231226D01*
X168859Y231479D01*
X167504Y234151D02*
X167404Y235258D01*
X167908Y235858D01*
X169015Y235953D01*
X169317Y235700D01*
X169917Y232127D01*
X171428Y233928D01*
X171126Y234181D01*
X179477Y228429D02*
X170907Y218215D01*
X164523Y223571D02*
X173093Y233785D01*
X170907Y218215D02*
X164523Y223571D01*
X173093Y233785D02*
X179477Y228429D01*
X157472Y219685D02*
X156688Y218898D01*
X155904Y218898D01*
X155121Y219685D01*
X155121Y222047D01*
X155904Y222835D01*
X156688Y222835D01*
X157472Y222047D01*
X160999Y222835D02*
X158648Y222835D01*
X158648Y221260D01*
X160216Y221260D01*
X160999Y220473D01*
X160999Y219685D01*
X160216Y218898D01*
X158648Y218898D01*
X153833Y223333D02*
X153833Y236667D01*
X162167Y236667D02*
X162167Y223333D01*
X153833Y236667D02*
X162167Y236667D01*
X162167Y223333D02*
X153833Y223333D01*
X183882Y210223D02*
X180866Y212753D01*
X181874Y213954D01*
X182981Y214049D01*
X183282Y213796D01*
X183382Y212689D01*
X182374Y211488D01*
X182626Y211788D02*
X185393Y212024D01*
X183736Y214949D02*
X183637Y216056D01*
X184141Y216656D01*
X185248Y216751D01*
X185550Y216498D01*
X186149Y212925D01*
X187661Y214726D01*
X187359Y214979D01*
X185954Y218205D02*
X185904Y218758D01*
X186408Y219358D01*
X187515Y219453D01*
X188119Y218947D01*
X188168Y218393D01*
X188722Y218441D01*
X189325Y217934D01*
X189424Y216828D01*
X188920Y216227D01*
X188367Y216180D01*
X187412Y217493D02*
X188168Y218393D01*
X187477Y222429D02*
X178907Y212215D01*
X172523Y217571D02*
X181093Y227785D01*
X178907Y212215D02*
X172523Y217571D01*
X181093Y227785D02*
X187477Y222429D01*
X188867Y205022D02*
X187760Y204923D01*
X187160Y205427D01*
X187066Y206534D01*
X188584Y208343D01*
X189691Y208443D01*
X190291Y207939D01*
X190385Y206832D01*
X191286Y206076D02*
X192393Y206175D01*
X192993Y205671D01*
X193087Y204564D01*
X192834Y204263D01*
X189261Y203663D01*
X191063Y202152D01*
X191316Y202453D01*
X194288Y203557D02*
X195395Y203656D01*
X192864Y200640D01*
X191964Y201396D02*
X193765Y199884D01*
X193571Y217477D02*
X203785Y208907D01*
X198429Y202523D02*
X188215Y211093D01*
X203785Y208907D02*
X198429Y202523D01*
X188215Y211093D02*
X193571Y217477D01*
X206909Y215543D02*
X208079Y216012D01*
X208793Y216863D01*
X209052Y218097D01*
X207228Y219627D01*
X209112Y220947D02*
X209370Y222181D01*
X211650Y220268D01*
X210579Y218991D02*
X212722Y221544D01*
X179902Y250828D02*
X210544Y225116D01*
X173475Y243167D02*
X196456Y223884D01*
X204116Y217456D02*
X210544Y225116D01*
X198371Y222277D02*
X204116Y217456D01*
X197094Y223348D02*
X199237Y225902D01*
X198268Y223451D02*
X197094Y223348D01*
X173475Y243167D02*
X179902Y250828D01*
X207639Y109405D02*
X208750Y108810D01*
X209861Y108810D01*
X210972Y109405D01*
X210972Y111786D01*
X215417Y111786D02*
X213750Y111786D01*
X212639Y111190D01*
X212639Y110000D01*
X212639Y109405D01*
X213750Y108810D01*
X214861Y108810D01*
X215972Y109405D01*
X215972Y110000D01*
X214861Y110595D01*
X213750Y110595D01*
X212639Y110000D01*
X218500Y213000D02*
X218500Y113000D01*
X208500Y123000D02*
X208500Y160500D01*
X208500Y113000D02*
X208500Y120500D01*
X218500Y113000D02*
X208500Y113000D01*
X208500Y122167D02*
X211833Y122167D01*
X209333Y121333D02*
X208500Y122167D01*
X208500Y213000D02*
X208500Y163833D01*
X208500Y161333D02*
X208500Y163000D01*
X210167Y161333D02*
X208500Y161333D01*
X210167Y161333D02*
X210167Y162167D01*
X211833Y161333D02*
X211833Y162167D01*
X211830Y162239D01*
X211821Y162311D01*
X211805Y162382D01*
X211783Y162452D01*
X211755Y162519D01*
X211722Y162583D01*
X211683Y162645D01*
X211638Y162702D01*
X211589Y162756D01*
X211536Y162805D01*
X211478Y162849D01*
X211417Y162888D01*
X211352Y162922D01*
X211285Y162950D01*
X211216Y162971D01*
X211145Y162987D01*
X211073Y162997D01*
X211000Y163000D01*
X210927Y162997D01*
X210855Y162987D01*
X210784Y162971D01*
X210715Y162950D01*
X210648Y162922D01*
X210583Y162888D01*
X210522Y162849D01*
X210464Y162805D01*
X210411Y162756D01*
X210362Y162702D01*
X210317Y162645D01*
X210278Y162583D01*
X210245Y162519D01*
X210217Y162452D01*
X210195Y162382D01*
X210179Y162311D01*
X210170Y162239D01*
X210167Y162167D01*
X208500Y213000D02*
X218500Y213000D01*
X198243Y172457D02*
X197460Y171669D01*
X196676Y171669D01*
X195892Y172457D01*
X195892Y174819D01*
X196676Y175606D01*
X197460Y175606D01*
X198243Y174819D01*
X199811Y174819D02*
X200595Y175606D01*
X200595Y171669D01*
X199419Y171669D02*
X201771Y171669D01*
X204906Y175606D02*
X203730Y175606D01*
X202947Y174819D01*
X202947Y173244D01*
X202947Y172457D01*
X203730Y171669D01*
X204514Y171669D01*
X205298Y172457D01*
X205298Y173244D01*
X204514Y174031D01*
X203730Y174031D01*
X202947Y173244D01*
X195833Y157333D02*
X195833Y170667D01*
X204167Y170667D02*
X204167Y157333D01*
X195833Y170667D02*
X204167Y170667D01*
X204167Y157333D02*
X195833Y157333D01*
X187708Y172422D02*
X186925Y171634D01*
X186141Y171634D01*
X185357Y172422D01*
X185357Y174784D01*
X186141Y175571D01*
X186925Y175571D01*
X187708Y174784D01*
X189276Y174784D02*
X190060Y175571D01*
X190060Y171634D01*
X188884Y171634D02*
X191236Y171634D01*
X193587Y171634D02*
X193587Y173603D01*
X194763Y174784D01*
X194763Y175571D01*
X192411Y175571D01*
X192411Y174784D01*
X185833Y157333D02*
X185833Y170667D01*
X194167Y170667D02*
X194167Y157333D01*
X185833Y170667D02*
X194167Y170667D01*
X194167Y157333D02*
X185833Y157333D01*
X158392Y241669D02*
X158392Y245606D01*
X159960Y245606D01*
X160743Y244819D01*
X160743Y244425D01*
X159960Y243638D01*
X158392Y243638D01*
X158784Y243638D02*
X160743Y241669D01*
X161919Y244819D02*
X162703Y245606D01*
X163487Y245606D01*
X164271Y244819D01*
X164271Y244425D01*
X161919Y241669D01*
X164271Y241669D01*
X164271Y242063D01*
X143333Y248167D02*
X156667Y248167D01*
X156667Y239833D02*
X143333Y239833D01*
X156667Y248167D02*
X156667Y239833D01*
X143333Y239833D02*
X143333Y248167D01*
X161243Y252457D02*
X160460Y251669D01*
X159676Y251669D01*
X158892Y252457D01*
X158892Y254819D01*
X159676Y255606D01*
X160460Y255606D01*
X161243Y254819D01*
X162419Y254819D02*
X163203Y255606D01*
X163987Y255606D01*
X164771Y254819D01*
X164771Y254425D01*
X162419Y251669D01*
X164771Y251669D01*
X164771Y252063D01*
X156667Y249833D02*
X143333Y249833D01*
X143333Y258167D02*
X156667Y258167D01*
X143333Y249833D02*
X143333Y258167D01*
X156667Y258167D02*
X156667Y249833D01*
X149750Y80722D02*
X149250Y79833D01*
X149250Y78944D01*
X149750Y78056D01*
X151250Y78056D01*
X151750Y78944D01*
X151750Y79833D01*
X151250Y80722D01*
X149750Y80722D01*
X149750Y78944D02*
X149250Y78056D01*
X150250Y74056D02*
X150250Y76722D01*
X151750Y74500D01*
X149250Y74500D01*
X149250Y74944D02*
X149250Y74056D01*
X157500Y68167D02*
X157500Y79833D01*
X162500Y79833D02*
X162500Y68167D01*
X158000Y78667D02*
X158002Y78609D01*
X158010Y78551D01*
X158023Y78494D01*
X158040Y78439D01*
X158062Y78385D01*
X158089Y78333D01*
X158120Y78284D01*
X158156Y78238D01*
X158195Y78195D01*
X158238Y78156D01*
X158284Y78121D01*
X158333Y78089D01*
X158385Y78062D01*
X158439Y78040D01*
X158494Y78023D01*
X158551Y78010D01*
X158608Y78003D01*
X158667Y78000D01*
X158725Y78003D01*
X158782Y78010D01*
X158839Y78023D01*
X158895Y78040D01*
X158948Y78062D01*
X159000Y78089D01*
X159049Y78121D01*
X159095Y78156D01*
X159138Y78195D01*
X159177Y78238D01*
X159213Y78284D01*
X159244Y78333D01*
X159271Y78385D01*
X159293Y78439D01*
X159310Y78494D01*
X159323Y78551D01*
X159331Y78609D01*
X159333Y78667D01*
X159336Y78609D01*
X159343Y78551D01*
X159356Y78494D01*
X159374Y78439D01*
X159396Y78385D01*
X159423Y78333D01*
X159454Y78284D01*
X159489Y78238D01*
X159529Y78195D01*
X159571Y78156D01*
X159618Y78121D01*
X159667Y78089D01*
X159718Y78062D01*
X159772Y78040D01*
X159827Y78023D01*
X159884Y78010D01*
X159942Y78003D01*
X160000Y78000D01*
X160058Y78003D01*
X160116Y78010D01*
X160173Y78023D01*
X160228Y78040D01*
X160282Y78062D01*
X160333Y78089D01*
X160382Y78121D01*
X160429Y78156D01*
X160471Y78195D01*
X160511Y78238D01*
X160546Y78284D01*
X160577Y78333D01*
X160604Y78385D01*
X160626Y78439D01*
X160644Y78494D01*
X160657Y78551D01*
X160664Y78609D01*
X160667Y78667D01*
X157500Y79833D02*
X162500Y79833D01*
X160667Y79333D02*
X158000Y79333D01*
X159333Y78667D02*
X159333Y79333D01*
X158000Y79333D02*
X158000Y78667D01*
X160667Y78667D02*
X160667Y79333D01*
X162500Y68167D02*
X157500Y68167D01*
X160000Y74667D02*
X159942Y74664D01*
X159884Y74657D01*
X159827Y74644D01*
X159772Y74627D01*
X159718Y74604D01*
X159667Y74577D01*
X159618Y74546D01*
X159571Y74511D01*
X159529Y74472D01*
X159489Y74429D01*
X159454Y74383D01*
X159423Y74333D01*
X159396Y74282D01*
X159374Y74228D01*
X159356Y74173D01*
X159343Y74116D01*
X159336Y74058D01*
X159333Y74000D01*
X159336Y73942D01*
X159343Y73884D01*
X159356Y73828D01*
X159374Y73772D01*
X159396Y73718D01*
X159423Y73667D01*
X159454Y73618D01*
X159489Y73572D01*
X159529Y73529D01*
X159571Y73489D01*
X159618Y73454D01*
X159667Y73423D01*
X159718Y73396D01*
X159772Y73374D01*
X159827Y73356D01*
X159884Y73344D01*
X159942Y73336D01*
X160000Y73333D01*
X160667Y70000D02*
X158000Y70000D01*
X159333Y70000D02*
X159333Y69333D01*
X158000Y70000D02*
X158000Y68667D01*
X161333Y73333D02*
X161392Y73336D01*
X161449Y73344D01*
X161506Y73356D01*
X161561Y73374D01*
X161615Y73396D01*
X161667Y73423D01*
X161716Y73454D01*
X161762Y73489D01*
X161805Y73529D01*
X161844Y73572D01*
X161880Y73618D01*
X161911Y73667D01*
X161938Y73718D01*
X161960Y73772D01*
X161977Y73828D01*
X161990Y73884D01*
X161998Y73942D01*
X162000Y74000D01*
X161998Y74058D01*
X161990Y74116D01*
X161977Y74173D01*
X161960Y74228D01*
X161938Y74282D01*
X161911Y74333D01*
X161880Y74383D01*
X161844Y74429D01*
X161805Y74472D01*
X161762Y74511D01*
X161716Y74546D01*
X161667Y74577D01*
X161615Y74604D01*
X161561Y74627D01*
X161506Y74644D01*
X161449Y74657D01*
X161392Y74664D01*
X161333Y74667D01*
X160000Y74667D02*
X161333Y74667D01*
X160667Y68667D02*
X160667Y70000D01*
X119115Y103669D02*
X119115Y107606D01*
X120682Y107606D01*
X121466Y106819D01*
X121466Y106425D01*
X120682Y105638D01*
X119115Y105638D01*
X119507Y105638D02*
X121466Y103669D01*
X123034Y106819D02*
X123818Y107606D01*
X123818Y103669D01*
X122642Y103669D02*
X124993Y103669D01*
X126169Y106819D02*
X126953Y107606D01*
X127737Y107606D01*
X128521Y106819D01*
X128521Y106425D01*
X126169Y103669D01*
X128521Y103669D01*
X128521Y104063D01*
X134667Y109833D02*
X121333Y109833D01*
X121333Y118167D02*
X134667Y118167D01*
X121333Y109833D02*
X121333Y118167D01*
X134667Y118167D02*
X134667Y109833D01*
X135115Y103669D02*
X135115Y107606D01*
X136682Y107606D01*
X137466Y106819D01*
X137466Y106425D01*
X136682Y105638D01*
X135115Y105638D01*
X135507Y105638D02*
X137466Y103669D01*
X139034Y106819D02*
X139818Y107606D01*
X139818Y103669D01*
X138642Y103669D02*
X140993Y103669D01*
X142561Y107213D02*
X142953Y107606D01*
X143737Y107606D01*
X144521Y106819D01*
X144521Y106031D01*
X144129Y105638D01*
X144521Y105244D01*
X144521Y104457D01*
X143737Y103669D01*
X142953Y103669D01*
X142561Y104063D01*
X142953Y105638D02*
X144129Y105638D01*
X150667Y109833D02*
X137333Y109833D01*
X137333Y118167D02*
X150667Y118167D01*
X137333Y109833D02*
X137333Y118167D01*
X150667Y118167D02*
X150667Y109833D01*
X123750Y78722D02*
X123250Y77833D01*
X123250Y76944D01*
X123750Y76056D01*
X125250Y76056D01*
X125750Y76944D01*
X125750Y77833D01*
X125250Y78722D01*
X123750Y78722D01*
X123750Y76944D02*
X123250Y76056D01*
X125500Y74278D02*
X125750Y73833D01*
X125750Y72944D01*
X125250Y72056D01*
X124750Y72056D01*
X124500Y72500D01*
X124250Y72056D01*
X123750Y72056D01*
X123250Y72944D01*
X123250Y73833D01*
X123500Y74278D01*
X124500Y73833D02*
X124500Y72500D01*
X131500Y66167D02*
X131500Y77833D01*
X136500Y77833D02*
X136500Y66167D01*
X132000Y76667D02*
X132002Y76609D01*
X132010Y76551D01*
X132023Y76494D01*
X132040Y76439D01*
X132062Y76385D01*
X132089Y76333D01*
X132120Y76284D01*
X132156Y76238D01*
X132195Y76195D01*
X132238Y76156D01*
X132284Y76121D01*
X132333Y76089D01*
X132385Y76062D01*
X132439Y76040D01*
X132494Y76023D01*
X132551Y76010D01*
X132608Y76003D01*
X132667Y76000D01*
X132725Y76003D01*
X132782Y76010D01*
X132839Y76023D01*
X132895Y76040D01*
X132948Y76062D01*
X133000Y76089D01*
X133049Y76121D01*
X133095Y76156D01*
X133138Y76195D01*
X133177Y76238D01*
X133213Y76284D01*
X133244Y76333D01*
X133271Y76385D01*
X133293Y76439D01*
X133310Y76494D01*
X133323Y76551D01*
X133331Y76609D01*
X133333Y76667D01*
X133336Y76609D01*
X133343Y76551D01*
X133356Y76494D01*
X133374Y76439D01*
X133396Y76385D01*
X133423Y76333D01*
X133454Y76284D01*
X133489Y76238D01*
X133529Y76195D01*
X133571Y76156D01*
X133618Y76121D01*
X133667Y76089D01*
X133718Y76062D01*
X133772Y76040D01*
X133827Y76023D01*
X133884Y76010D01*
X133942Y76003D01*
X134000Y76000D01*
X134058Y76003D01*
X134116Y76010D01*
X134173Y76023D01*
X134228Y76040D01*
X134282Y76062D01*
X134333Y76089D01*
X134382Y76121D01*
X134429Y76156D01*
X134471Y76195D01*
X134511Y76238D01*
X134546Y76284D01*
X134577Y76333D01*
X134604Y76385D01*
X134626Y76439D01*
X134644Y76494D01*
X134657Y76551D01*
X134664Y76609D01*
X134667Y76667D01*
X131500Y77833D02*
X136500Y77833D01*
X134667Y77333D02*
X132000Y77333D01*
X133333Y76667D02*
X133333Y77333D01*
X132000Y77333D02*
X132000Y76667D01*
X134667Y76667D02*
X134667Y77333D01*
X136500Y66167D02*
X131500Y66167D01*
X134000Y72667D02*
X133942Y72664D01*
X133884Y72657D01*
X133827Y72644D01*
X133772Y72627D01*
X133718Y72604D01*
X133667Y72577D01*
X133618Y72546D01*
X133571Y72511D01*
X133529Y72472D01*
X133489Y72429D01*
X133454Y72383D01*
X133423Y72333D01*
X133396Y72282D01*
X133374Y72228D01*
X133356Y72173D01*
X133343Y72116D01*
X133336Y72058D01*
X133333Y72000D01*
X133336Y71942D01*
X133343Y71884D01*
X133356Y71828D01*
X133374Y71772D01*
X133396Y71718D01*
X133423Y71667D01*
X133454Y71618D01*
X133489Y71572D01*
X133529Y71529D01*
X133571Y71489D01*
X133618Y71454D01*
X133667Y71423D01*
X133718Y71396D01*
X133772Y71374D01*
X133827Y71356D01*
X133884Y71344D01*
X133942Y71336D01*
X134000Y71333D01*
X134667Y68000D02*
X132000Y68000D01*
X133333Y68000D02*
X133333Y67333D01*
X132000Y68000D02*
X132000Y66667D01*
X135333Y71333D02*
X135392Y71336D01*
X135449Y71344D01*
X135506Y71356D01*
X135561Y71374D01*
X135615Y71396D01*
X135667Y71423D01*
X135716Y71454D01*
X135762Y71489D01*
X135805Y71529D01*
X135844Y71572D01*
X135880Y71618D01*
X135911Y71667D01*
X135938Y71718D01*
X135960Y71772D01*
X135977Y71828D01*
X135990Y71884D01*
X135998Y71942D01*
X136000Y72000D01*
X135998Y72058D01*
X135990Y72116D01*
X135977Y72173D01*
X135960Y72228D01*
X135938Y72282D01*
X135911Y72333D01*
X135880Y72383D01*
X135844Y72429D01*
X135805Y72472D01*
X135762Y72511D01*
X135716Y72546D01*
X135667Y72577D01*
X135615Y72604D01*
X135561Y72627D01*
X135506Y72644D01*
X135449Y72657D01*
X135392Y72664D01*
X135333Y72667D01*
X134000Y72667D02*
X135333Y72667D01*
X134667Y66667D02*
X134667Y68000D01*
X102181Y80608D02*
X106118Y80608D01*
X106118Y79040D01*
X105331Y78257D01*
X104937Y78257D01*
X104150Y79040D01*
X104150Y80608D01*
X104150Y80216D02*
X102181Y78257D01*
X105331Y76689D02*
X106118Y75905D01*
X102181Y75905D01*
X102181Y77081D02*
X102181Y74729D01*
X106118Y71594D02*
X106118Y72770D01*
X105331Y73553D01*
X103756Y73553D01*
X102969Y73553D01*
X102181Y72770D01*
X102181Y71986D01*
X102969Y71202D01*
X103756Y71202D01*
X104543Y71986D01*
X104543Y72770D01*
X103756Y73553D01*
X107833Y67333D02*
X107833Y80667D01*
X116167Y80667D02*
X116167Y67333D01*
X107833Y80667D02*
X116167Y80667D01*
X116167Y67333D02*
X107833Y67333D01*
X102181Y96608D02*
X106118Y96608D01*
X106118Y95040D01*
X105331Y94257D01*
X104937Y94257D01*
X104150Y95040D01*
X104150Y96608D01*
X104150Y96216D02*
X102181Y94257D01*
X105331Y92689D02*
X106118Y91905D01*
X102181Y91905D01*
X102181Y93081D02*
X102181Y90729D01*
X106118Y87202D02*
X106118Y89553D01*
X104543Y89553D01*
X104543Y87986D01*
X103756Y87202D01*
X102969Y87202D01*
X102181Y87986D01*
X102181Y89553D01*
X107833Y83333D02*
X107833Y96667D01*
X116167Y96667D02*
X116167Y83333D01*
X107833Y96667D02*
X116167Y96667D01*
X116167Y83333D02*
X107833Y83333D01*
X102181Y118608D02*
X106118Y118608D01*
X106118Y117040D01*
X105331Y116257D01*
X104937Y116257D01*
X104150Y117040D01*
X104150Y118608D01*
X104150Y118216D02*
X102181Y116257D01*
X105331Y114689D02*
X106118Y113905D01*
X102181Y113905D01*
X102181Y115081D02*
X102181Y112729D01*
X105331Y111553D02*
X106118Y110770D01*
X106118Y109986D01*
X105331Y109202D01*
X102969Y109202D01*
X102181Y109986D01*
X102181Y110770D01*
X102969Y111553D01*
X105331Y111553D01*
X105331Y109202D02*
X102969Y111553D01*
X107833Y105333D02*
X107833Y118667D01*
X116167Y118667D02*
X116167Y105333D01*
X107833Y118667D02*
X116167Y118667D01*
X116167Y105333D02*
X107833Y105333D01*
X177331Y113310D02*
X173394Y113310D01*
X173394Y114878D01*
X174181Y115662D01*
X174575Y115662D01*
X175362Y114878D01*
X175362Y113310D01*
X175362Y113702D02*
X177331Y115662D01*
X174181Y117229D02*
X173394Y118013D01*
X177331Y118013D01*
X177331Y116837D02*
X177331Y119189D01*
X174181Y120757D02*
X173394Y121540D01*
X177331Y121540D01*
X177331Y120365D02*
X177331Y122716D01*
X172167Y122667D02*
X172167Y109333D01*
X163833Y109333D02*
X163833Y122667D01*
X172167Y109333D02*
X163833Y109333D01*
X163833Y122667D02*
X172167Y122667D01*
X178681Y110608D02*
X182618Y110608D01*
X182618Y109040D01*
X181831Y108257D01*
X181437Y108257D01*
X180650Y109040D01*
X180650Y110608D01*
X180650Y110216D02*
X178681Y108257D01*
X181831Y106689D02*
X182618Y105905D01*
X178681Y105905D01*
X178681Y107081D02*
X178681Y104729D01*
X178681Y101986D02*
X178681Y102770D01*
X179469Y103553D01*
X180256Y103553D01*
X180650Y103162D01*
X181043Y103553D01*
X181831Y103553D01*
X182618Y102770D01*
X182618Y101986D01*
X181831Y101202D01*
X181043Y101202D01*
X180650Y101594D01*
X180256Y101202D01*
X179469Y101202D01*
X178681Y101986D01*
X180650Y103162D02*
X180650Y101594D01*
X183833Y99333D02*
X183833Y112667D01*
X192167Y112667D02*
X192167Y99333D01*
X183833Y112667D02*
X192167Y112667D01*
X192167Y99333D02*
X183833Y99333D01*
X178181Y95108D02*
X182118Y95108D01*
X182118Y93540D01*
X181331Y92757D01*
X180937Y92757D01*
X180150Y93540D01*
X180150Y95108D01*
X180150Y94716D02*
X178181Y92757D01*
X181331Y91189D02*
X182118Y90405D01*
X178181Y90405D01*
X178181Y91581D02*
X178181Y89229D01*
X178181Y86878D02*
X180150Y86878D01*
X181331Y85702D01*
X182118Y85702D01*
X182118Y88053D01*
X181331Y88053D01*
X183833Y83333D02*
X183833Y96667D01*
X192167Y96667D02*
X192167Y83333D01*
X183833Y96667D02*
X192167Y96667D01*
X192167Y83333D02*
X183833Y83333D01*
G54D13*
X65892Y153106D02*
X65892Y149957D01*
X66676Y149169D01*
X67460Y149169D01*
X68244Y149957D01*
X68244Y153106D01*
X70595Y149169D02*
X70595Y151138D01*
X71771Y152319D01*
X71771Y153106D01*
X69420Y153106D01*
X69420Y152319D01*
X121618Y233108D02*
X118469Y233108D01*
X117681Y232324D01*
X117681Y231540D01*
X118469Y230756D01*
X121618Y230756D01*
X120831Y229189D02*
X121618Y228405D01*
X117681Y228405D01*
X117681Y229580D02*
X117681Y227229D01*
X137618Y233108D02*
X134469Y233108D01*
X133681Y232324D01*
X133681Y231540D01*
X134469Y230756D01*
X137618Y230756D01*
X136831Y229580D02*
X137618Y228797D01*
X137618Y228013D01*
X136831Y227229D01*
X136437Y227229D01*
X133681Y229580D01*
X133681Y227229D01*
X134075Y227229D01*
X156421Y86730D02*
X157205Y85943D01*
X157989Y85943D01*
X158773Y86730D01*
X158773Y89093D01*
X157989Y89880D01*
X157205Y89880D01*
X156421Y89093D01*
X156421Y86730D01*
X157989Y86730D02*
X158773Y85943D01*
X159949Y89093D02*
X160733Y89880D01*
X161517Y89880D01*
X162301Y89093D01*
X162301Y88699D01*
X159949Y85943D01*
X162301Y85943D01*
X162301Y86337D01*
X130421Y84730D02*
X131205Y83943D01*
X131989Y83943D01*
X132773Y84730D01*
X132773Y87093D01*
X131989Y87880D01*
X131205Y87880D01*
X130421Y87093D01*
X130421Y84730D01*
X131989Y84730D02*
X132773Y83943D01*
X134341Y87093D02*
X135125Y87880D01*
X135125Y83943D01*
X133949Y83943D02*
X136301Y83943D01*
G54D14*
X64327Y154291D02*
X67673Y154291D01*
X67673Y165709D02*
X64327Y165709D01*
X64327Y154291D01*
X67673Y154291D02*
X67673Y165709D01*
X122291Y231673D02*
X122291Y228327D01*
X133709Y228327D02*
X133709Y231673D01*
X122291Y231673D01*
X122291Y228327D02*
X133709Y228327D01*
X138291Y231673D02*
X138291Y228327D01*
X149709Y228327D02*
X149709Y231673D01*
X138291Y231673D01*
X138291Y228327D02*
X149709Y228327D01*
X158278Y91848D02*
X160837Y91848D01*
X160837Y103266D02*
X158278Y103266D01*
X158278Y91848D01*
X160837Y91848D02*
X160837Y103266D01*
X132278Y89848D02*
X134837Y89848D01*
X134837Y101266D02*
X132278Y101266D01*
X132278Y89848D01*
X134837Y89848D02*
X134837Y101266D01*
G54D15*
X59209Y166890D02*
G75*
D01*
G02X59209Y166890I492J0*
G01*
X134398Y236299D02*
G75*
D01*
G02X134398Y236299I492J0*
G01*
X150398Y236299D02*
G75*
D01*
G02X150398Y236299I492J0*
G01*
X153553Y104447D02*
G75*
D01*
G02X153553Y104447I492J0*
G01*
X127553Y102447D02*
G75*
D01*
G02X127553Y102447I492J0*
G01*
G54D16*
X33500Y61500D02*
X33500Y81700D01*
X33500Y61500D02*
X53700Y61500D01*
X235500Y61500D02*
X215300Y61500D01*
X235500Y61500D02*
X235500Y81700D01*
X235500Y263500D02*
X235500Y243300D01*
X235500Y263500D02*
X215300Y263500D01*
X33500Y263500D02*
X53700Y263500D01*
X33500Y263500D02*
X33500Y243300D01*
X13815Y61500D02*
X-25555Y61500D01*
X-5870Y41815D02*
X-5870Y81185D01*
X-20634Y61500D02*
G75*
D01*
G02X-20634Y61500I14764J0*
G01*
X255185Y61500D02*
X294555Y61500D01*
X274870Y41815D02*
X274870Y81185D01*
X260106Y61500D02*
G75*
D01*
G02X260106Y61500I14764J0*
G01*
X269949Y61500D02*
G75*
D01*
G02X269949Y61500I4921J0*
G01*
X13815Y263500D02*
X-25555Y263500D01*
X-5870Y243815D02*
X-5870Y283185D01*
X-20634Y263500D02*
G75*
D01*
G02X-20634Y263500I14764J0*
G01*
X-15713Y263500D02*
G75*
D01*
G02X-15713Y263500I9843J0*
G01*
X-10791Y263500D02*
G75*
D01*
G02X-10791Y263500I4921J0*
G01*

M02*
