G04 Generated by Ultiboard 13.0 *
%FSLAX25Y25*%
%MOIN*%

%ADD10C,0.00001*%
%ADD11C,0.00500*%
%ADD12C,0.03937*%
%ADD13R,0.01181X0.10000*%
%ADD14C,0.00001*%
%ADD15R,0.10000X0.01181*%
%ADD16R,0.04168X0.01084*%
%ADD17C,0.01666*%
%ADD18R,0.04331X0.02362*%
%ADD19R,0.01084X0.04168*%
%ADD20C,0.06334*%
%ADD21R,0.02083X0.02083*%
%ADD22C,0.03917*%
%ADD23P,0.03889X4X15*%
%ADD24P,0.05567X4X15*%
%ADD25P,0.02945X4X15*%
%ADD26P,0.02945X4*%
%ADD27R,0.02362X0.04331*%
%ADD28P,0.03889X4X5*%
%ADD29P,0.02945X4X5*%
%ADD30R,0.02334X0.02334*%
%ADD31R,0.03937X0.02362*%


G04 ColorRGB FF00CC for the following layer *
%LNSolder Mask Top*%
%LPD*%
G54D10*
G54D11*
X33500Y61500D02*
X33500Y81700D01*
X33500Y61500D02*
X53700Y61500D01*
X235500Y61500D02*
X215300Y61500D01*
X235500Y61500D02*
X235500Y81700D01*
X235500Y263500D02*
X235500Y243300D01*
X235500Y263500D02*
X215300Y263500D01*
X33500Y263500D02*
X53700Y263500D01*
X33500Y263500D02*
X33500Y243300D01*
X13815Y61500D02*
X-25555Y61500D01*
X-5870Y41815D02*
X-5870Y81185D01*
X-20634Y61500D02*
G75*
D01*
G02X-20634Y61500I14764J0*
G01*
X255185Y61500D02*
X294555Y61500D01*
X274870Y41815D02*
X274870Y81185D01*
X260106Y61500D02*
G75*
D01*
G02X260106Y61500I14764J0*
G01*
X269949Y61500D02*
G75*
D01*
G02X269949Y61500I4921J0*
G01*
X13815Y263500D02*
X-25555Y263500D01*
X-5870Y243815D02*
X-5870Y283185D01*
X-20634Y263500D02*
G75*
D01*
G02X-20634Y263500I14764J0*
G01*
X-15713Y263500D02*
G75*
D01*
G02X-15713Y263500I9843J0*
G01*
X-10791Y263500D02*
G75*
D01*
G02X-10791Y263500I4921J0*
G01*
G54D12*
X118000Y217000D03*
X119000Y225000D03*
X172000Y209000D03*
X62000Y126000D03*
X91000Y150000D03*
X95000Y134000D03*
X82000Y176000D03*
X54000Y134000D03*
X153000Y217000D03*
X88000Y241000D03*
X119000Y210000D03*
X109000Y212000D03*
X105000Y208000D03*
X96000Y185000D03*
X91000Y179000D03*
X158000Y117000D03*
X148000Y91000D03*
X147000Y69000D03*
X179000Y80000D03*
X176000Y98000D03*
X146000Y81000D03*
X120000Y89000D03*
X168000Y104000D03*
X126000Y85000D03*
X145000Y100000D03*
X97000Y74000D03*
X159000Y174000D03*
X157000Y167000D03*
X152000Y209000D03*
X155000Y161000D03*
X131000Y257000D03*
X161000Y249000D03*
X126000Y208000D03*
X97000Y234000D03*
X80000Y220000D03*
X192000Y153000D03*
X192000Y146000D03*
X192000Y140000D03*
X192000Y133000D03*
X187000Y129000D03*
X181000Y129000D03*
X175000Y129000D03*
X101000Y134000D03*
X96000Y145000D03*
X72500Y136000D03*
G54D13*
X118378Y132579D03*
X122315Y132579D03*
X120346Y132579D03*
X124283Y132579D03*
X126252Y132579D03*
X128220Y132579D03*
X130189Y132579D03*
X132157Y132579D03*
X134126Y132579D03*
X138063Y132579D03*
X136094Y132579D03*
X140031Y132579D03*
X142000Y132579D03*
X143969Y132579D03*
X145937Y132579D03*
X147906Y132579D03*
X149874Y132579D03*
X153811Y132579D03*
X151843Y132579D03*
X155780Y132579D03*
X157748Y132579D03*
X159717Y132579D03*
X161685Y132579D03*
X163654Y132579D03*
X165622Y132579D03*
X118378Y194921D03*
X122315Y194921D03*
X120346Y194921D03*
X124283Y194921D03*
X126252Y194921D03*
X128220Y194921D03*
X130189Y194921D03*
X132157Y194921D03*
X134126Y194921D03*
X138063Y194921D03*
X136094Y194921D03*
X140031Y194921D03*
X142000Y194921D03*
X145937Y194921D03*
X143969Y194921D03*
X147906Y194921D03*
X149874Y194921D03*
X153811Y194921D03*
X151843Y194921D03*
X155780Y194921D03*
X157748Y194921D03*
X159717Y194921D03*
X161685Y194921D03*
X163654Y194921D03*
X165622Y194921D03*
G54D14*
X117788Y127579D02*
X118968Y127579D01*
X118968Y137579D01*
X117788Y137579D01*
X117788Y127579D01*D02*
X121725Y127579D02*
X122905Y127579D01*
X122905Y137579D01*
X121725Y137579D01*
X121725Y127579D01*D02*
X119756Y127579D02*
X120936Y127579D01*
X120936Y137579D01*
X119756Y137579D01*
X119756Y127579D01*D02*
X123693Y127579D02*
X124873Y127579D01*
X124873Y137579D01*
X123693Y137579D01*
X123693Y127579D01*D02*
X125662Y127579D02*
X126842Y127579D01*
X126842Y137579D01*
X125662Y137579D01*
X125662Y127579D01*D02*
X127630Y127579D02*
X128810Y127579D01*
X128810Y137579D01*
X127630Y137579D01*
X127630Y127579D01*D02*
X129599Y127579D02*
X130779Y127579D01*
X130779Y137579D01*
X129599Y137579D01*
X129599Y127579D01*D02*
X131567Y127579D02*
X132747Y127579D01*
X132747Y137579D01*
X131567Y137579D01*
X131567Y127579D01*D02*
X133536Y127579D02*
X134716Y127579D01*
X134716Y137579D01*
X133536Y137579D01*
X133536Y127579D01*D02*
X137473Y127579D02*
X138653Y127579D01*
X138653Y137579D01*
X137473Y137579D01*
X137473Y127579D01*D02*
X135504Y127579D02*
X136684Y127579D01*
X136684Y137579D01*
X135504Y137579D01*
X135504Y127579D01*D02*
X139441Y127579D02*
X140621Y127579D01*
X140621Y137579D01*
X139441Y137579D01*
X139441Y127579D01*D02*
X141410Y127579D02*
X142590Y127579D01*
X142590Y137579D01*
X141410Y137579D01*
X141410Y127579D01*D02*
X143379Y127579D02*
X144559Y127579D01*
X144559Y137579D01*
X143379Y137579D01*
X143379Y127579D01*D02*
X145347Y127579D02*
X146527Y127579D01*
X146527Y137579D01*
X145347Y137579D01*
X145347Y127579D01*D02*
X147316Y127579D02*
X148496Y127579D01*
X148496Y137579D01*
X147316Y137579D01*
X147316Y127579D01*D02*
X149284Y127579D02*
X150464Y127579D01*
X150464Y137579D01*
X149284Y137579D01*
X149284Y127579D01*D02*
X153221Y127579D02*
X154401Y127579D01*
X154401Y137579D01*
X153221Y137579D01*
X153221Y127579D01*D02*
X151253Y127579D02*
X152433Y127579D01*
X152433Y137579D01*
X151253Y137579D01*
X151253Y127579D01*D02*
X155190Y127579D02*
X156370Y127579D01*
X156370Y137579D01*
X155190Y137579D01*
X155190Y127579D01*D02*
X157158Y127579D02*
X158338Y127579D01*
X158338Y137579D01*
X157158Y137579D01*
X157158Y127579D01*D02*
X159127Y127579D02*
X160307Y127579D01*
X160307Y137579D01*
X159127Y137579D01*
X159127Y127579D01*D02*
X161095Y127579D02*
X162275Y127579D01*
X162275Y137579D01*
X161095Y137579D01*
X161095Y127579D01*D02*
X163064Y127579D02*
X164244Y127579D01*
X164244Y137579D01*
X163064Y137579D01*
X163064Y127579D01*D02*
X165032Y127579D02*
X166212Y127579D01*
X166212Y137579D01*
X165032Y137579D01*
X165032Y127579D01*D02*
X105579Y139788D02*
X115579Y139788D01*
X115579Y140968D01*
X105579Y140968D01*
X105579Y139788D01*D02*
X105579Y141756D02*
X115579Y141756D01*
X115579Y142936D01*
X105579Y142936D01*
X105579Y141756D01*D02*
X168421Y139788D02*
X178421Y139788D01*
X178421Y140968D01*
X168421Y140968D01*
X168421Y139788D01*D02*
X168421Y141756D02*
X178421Y141756D01*
X178421Y142936D01*
X168421Y142936D01*
X168421Y141756D01*D02*
X105579Y145693D02*
X115579Y145693D01*
X115579Y146873D01*
X105579Y146873D01*
X105579Y145693D01*D02*
X105579Y143725D02*
X115579Y143725D01*
X115579Y144905D01*
X105579Y144905D01*
X105579Y143725D01*D02*
X105579Y147662D02*
X115579Y147662D01*
X115579Y148842D01*
X105579Y148842D01*
X105579Y147662D01*D02*
X105579Y149630D02*
X115579Y149630D01*
X115579Y150810D01*
X105579Y150810D01*
X105579Y149630D01*D02*
X168421Y145693D02*
X178421Y145693D01*
X178421Y146873D01*
X168421Y146873D01*
X168421Y145693D01*D02*
X168421Y143725D02*
X178421Y143725D01*
X178421Y144905D01*
X168421Y144905D01*
X168421Y143725D01*D02*
X168421Y147662D02*
X178421Y147662D01*
X178421Y148842D01*
X168421Y148842D01*
X168421Y147662D01*D02*
X168421Y149630D02*
X178421Y149630D01*
X178421Y150810D01*
X168421Y150810D01*
X168421Y149630D01*D02*
X105579Y151599D02*
X115579Y151599D01*
X115579Y152779D01*
X105579Y152779D01*
X105579Y151599D01*D02*
X105579Y153567D02*
X115579Y153567D01*
X115579Y154747D01*
X105579Y154747D01*
X105579Y153567D01*D02*
X105579Y155536D02*
X115579Y155536D01*
X115579Y156716D01*
X105579Y156716D01*
X105579Y155536D01*D02*
X105579Y157504D02*
X115579Y157504D01*
X115579Y158684D01*
X105579Y158684D01*
X105579Y157504D01*D02*
X168421Y151599D02*
X178421Y151599D01*
X178421Y152779D01*
X168421Y152779D01*
X168421Y151599D01*D02*
X168421Y153567D02*
X178421Y153567D01*
X178421Y154747D01*
X168421Y154747D01*
X168421Y153567D01*D02*
X168421Y155536D02*
X178421Y155536D01*
X178421Y156716D01*
X168421Y156716D01*
X168421Y155536D01*D02*
X168421Y157504D02*
X178421Y157504D01*
X178421Y158684D01*
X168421Y158684D01*
X168421Y157504D01*D02*
X105579Y161441D02*
X115579Y161441D01*
X115579Y162621D01*
X105579Y162621D01*
X105579Y161441D01*D02*
X105579Y159473D02*
X115579Y159473D01*
X115579Y160653D01*
X105579Y160653D01*
X105579Y159473D01*D02*
X105579Y163410D02*
X115579Y163410D01*
X115579Y164590D01*
X105579Y164590D01*
X105579Y163410D01*D02*
X105579Y165379D02*
X115579Y165379D01*
X115579Y166559D01*
X105579Y166559D01*
X105579Y165379D01*D02*
X168421Y161441D02*
X178421Y161441D01*
X178421Y162621D01*
X168421Y162621D01*
X168421Y161441D01*D02*
X168421Y159473D02*
X178421Y159473D01*
X178421Y160653D01*
X168421Y160653D01*
X168421Y159473D01*D02*
X168421Y163410D02*
X178421Y163410D01*
X178421Y164590D01*
X168421Y164590D01*
X168421Y163410D01*D02*
X168421Y165379D02*
X178421Y165379D01*
X178421Y166559D01*
X168421Y166559D01*
X168421Y165379D01*D02*
X105579Y167347D02*
X115579Y167347D01*
X115579Y168527D01*
X105579Y168527D01*
X105579Y167347D01*D02*
X105579Y169316D02*
X115579Y169316D01*
X115579Y170496D01*
X105579Y170496D01*
X105579Y169316D01*D02*
X105579Y171284D02*
X115579Y171284D01*
X115579Y172464D01*
X105579Y172464D01*
X105579Y171284D01*D02*
X105579Y173253D02*
X115579Y173253D01*
X115579Y174433D01*
X105579Y174433D01*
X105579Y173253D01*D02*
X168421Y167347D02*
X178421Y167347D01*
X178421Y168527D01*
X168421Y168527D01*
X168421Y167347D01*D02*
X168421Y169316D02*
X178421Y169316D01*
X178421Y170496D01*
X168421Y170496D01*
X168421Y169316D01*D02*
X168421Y171284D02*
X178421Y171284D01*
X178421Y172464D01*
X168421Y172464D01*
X168421Y171284D01*D02*
X168421Y173253D02*
X178421Y173253D01*
X178421Y174433D01*
X168421Y174433D01*
X168421Y173253D01*D02*
X105579Y177190D02*
X115579Y177190D01*
X115579Y178370D01*
X105579Y178370D01*
X105579Y177190D01*D02*
X105579Y175221D02*
X115579Y175221D01*
X115579Y176401D01*
X105579Y176401D01*
X105579Y175221D01*D02*
X105579Y179158D02*
X115579Y179158D01*
X115579Y180338D01*
X105579Y180338D01*
X105579Y179158D01*D02*
X105579Y181127D02*
X115579Y181127D01*
X115579Y182307D01*
X105579Y182307D01*
X105579Y181127D01*D02*
X168421Y177190D02*
X178421Y177190D01*
X178421Y178370D01*
X168421Y178370D01*
X168421Y177190D01*D02*
X168421Y175221D02*
X178421Y175221D01*
X178421Y176401D01*
X168421Y176401D01*
X168421Y175221D01*D02*
X168421Y179158D02*
X178421Y179158D01*
X178421Y180338D01*
X168421Y180338D01*
X168421Y179158D01*D02*
X168421Y181127D02*
X178421Y181127D01*
X178421Y182307D01*
X168421Y182307D01*
X168421Y181127D01*D02*
X105579Y183095D02*
X115579Y183095D01*
X115579Y184275D01*
X105579Y184275D01*
X105579Y183095D01*D02*
X105579Y185064D02*
X115579Y185064D01*
X115579Y186244D01*
X105579Y186244D01*
X105579Y185064D01*D02*
X105579Y187032D02*
X115579Y187032D01*
X115579Y188212D01*
X105579Y188212D01*
X105579Y187032D01*D02*
X168421Y183095D02*
X178421Y183095D01*
X178421Y184275D01*
X168421Y184275D01*
X168421Y183095D01*D02*
X168421Y185064D02*
X178421Y185064D01*
X178421Y186244D01*
X168421Y186244D01*
X168421Y185064D01*D02*
X168421Y187032D02*
X178421Y187032D01*
X178421Y188212D01*
X168421Y188212D01*
X168421Y187032D01*D02*
X117788Y189921D02*
X118968Y189921D01*
X118968Y199921D01*
X117788Y199921D01*
X117788Y189921D01*D02*
X121725Y189921D02*
X122905Y189921D01*
X122905Y199921D01*
X121725Y199921D01*
X121725Y189921D01*D02*
X119756Y189921D02*
X120936Y189921D01*
X120936Y199921D01*
X119756Y199921D01*
X119756Y189921D01*D02*
X123693Y189921D02*
X124873Y189921D01*
X124873Y199921D01*
X123693Y199921D01*
X123693Y189921D01*D02*
X125662Y189921D02*
X126842Y189921D01*
X126842Y199921D01*
X125662Y199921D01*
X125662Y189921D01*D02*
X127630Y189921D02*
X128810Y189921D01*
X128810Y199921D01*
X127630Y199921D01*
X127630Y189921D01*D02*
X129599Y189921D02*
X130779Y189921D01*
X130779Y199921D01*
X129599Y199921D01*
X129599Y189921D01*D02*
X131567Y189921D02*
X132747Y189921D01*
X132747Y199921D01*
X131567Y199921D01*
X131567Y189921D01*D02*
X133536Y189921D02*
X134716Y189921D01*
X134716Y199921D01*
X133536Y199921D01*
X133536Y189921D01*D02*
X137473Y189921D02*
X138653Y189921D01*
X138653Y199921D01*
X137473Y199921D01*
X137473Y189921D01*D02*
X135504Y189921D02*
X136684Y189921D01*
X136684Y199921D01*
X135504Y199921D01*
X135504Y189921D01*D02*
X139441Y189921D02*
X140621Y189921D01*
X140621Y199921D01*
X139441Y199921D01*
X139441Y189921D01*D02*
X141410Y189921D02*
X142590Y189921D01*
X142590Y199921D01*
X141410Y199921D01*
X141410Y189921D01*D02*
X145347Y189921D02*
X146527Y189921D01*
X146527Y199921D01*
X145347Y199921D01*
X145347Y189921D01*D02*
X143379Y189921D02*
X144559Y189921D01*
X144559Y199921D01*
X143379Y199921D01*
X143379Y189921D01*D02*
X147316Y189921D02*
X148496Y189921D01*
X148496Y199921D01*
X147316Y199921D01*
X147316Y189921D01*D02*
X149284Y189921D02*
X150464Y189921D01*
X150464Y199921D01*
X149284Y199921D01*
X149284Y189921D01*D02*
X153221Y189921D02*
X154401Y189921D01*
X154401Y199921D01*
X153221Y199921D01*
X153221Y189921D01*D02*
X151253Y189921D02*
X152433Y189921D01*
X152433Y199921D01*
X151253Y199921D01*
X151253Y189921D01*D02*
X155190Y189921D02*
X156370Y189921D01*
X156370Y199921D01*
X155190Y199921D01*
X155190Y189921D01*D02*
X157158Y189921D02*
X158338Y189921D01*
X158338Y199921D01*
X157158Y199921D01*
X157158Y189921D01*D02*
X159127Y189921D02*
X160307Y189921D01*
X160307Y199921D01*
X159127Y199921D01*
X159127Y189921D01*D02*
X161095Y189921D02*
X162275Y189921D01*
X162275Y199921D01*
X161095Y199921D01*
X161095Y189921D01*D02*
X163064Y189921D02*
X164244Y189921D01*
X164244Y199921D01*
X163064Y199921D01*
X163064Y189921D01*D02*
X165032Y189921D02*
X166212Y189921D01*
X166212Y199921D01*
X165032Y199921D01*
X165032Y189921D01*D02*
G54D15*
X110579Y140378D03*
X110579Y142346D03*
X173421Y140378D03*
X173421Y142346D03*
X110579Y146283D03*
X110579Y144315D03*
X110579Y148252D03*
X110579Y150220D03*
X173421Y146283D03*
X173421Y144315D03*
X173421Y148252D03*
X173421Y150220D03*
X110579Y152189D03*
X110579Y154157D03*
X110579Y156126D03*
X110579Y158094D03*
X173421Y152189D03*
X173421Y154157D03*
X173421Y156126D03*
X173421Y158094D03*
X110579Y162031D03*
X110579Y160063D03*
X110579Y164000D03*
X110579Y165969D03*
X173421Y162031D03*
X173421Y160063D03*
X173421Y164000D03*
X173421Y165969D03*
X110579Y167937D03*
X110579Y169906D03*
X110579Y171874D03*
X110579Y173843D03*
X173421Y167937D03*
X173421Y169906D03*
X173421Y171874D03*
X173421Y173843D03*
X110579Y177780D03*
X110579Y175811D03*
X110579Y179748D03*
X110579Y181717D03*
X173421Y177780D03*
X173421Y175811D03*
X173421Y179748D03*
X173421Y181717D03*
X110579Y183685D03*
X110579Y185654D03*
X110579Y187622D03*
X173421Y183685D03*
X173421Y185654D03*
X173421Y187622D03*
G54D16*
X100000Y156250D03*
X100000Y163750D03*
X84000Y138250D03*
X84000Y145750D03*
X90000Y156250D03*
X90000Y163750D03*
X80000Y156250D03*
X80000Y163750D03*
X44000Y138250D03*
X44000Y145750D03*
X52000Y156250D03*
X52000Y163750D03*
X88000Y220250D03*
X88000Y227750D03*
X98000Y220250D03*
X98000Y227750D03*
X82000Y118250D03*
X82000Y125750D03*
X72000Y118250D03*
X72000Y125750D03*
X94000Y80250D03*
X94000Y87750D03*
X92000Y118250D03*
X92000Y125750D03*
X112000Y226250D03*
X112000Y233750D03*
X158000Y226250D03*
X158000Y233750D03*
X200000Y160250D03*
X200000Y167750D03*
X190000Y160250D03*
X190000Y167750D03*
X112000Y70250D03*
X112000Y77750D03*
X112000Y86250D03*
X112000Y93750D03*
X112000Y108250D03*
X112000Y115750D03*
X168000Y112250D03*
X168000Y119750D03*
X188000Y102250D03*
X188000Y109750D03*
X188000Y86250D03*
X188000Y93750D03*
G54D17*
X97916Y155708D02*
X102084Y155708D01*
X102084Y156792D01*
X97916Y156792D01*
X97916Y155708D01*D02*
X97916Y163208D02*
X102084Y163208D01*
X102084Y164292D01*
X97916Y164292D01*
X97916Y163208D01*D02*
X81916Y137708D02*
X86084Y137708D01*
X86084Y138792D01*
X81916Y138792D01*
X81916Y137708D01*D02*
X81916Y145208D02*
X86084Y145208D01*
X86084Y146292D01*
X81916Y146292D01*
X81916Y145208D01*D02*
X87916Y155708D02*
X92084Y155708D01*
X92084Y156792D01*
X87916Y156792D01*
X87916Y155708D01*D02*
X87916Y163208D02*
X92084Y163208D01*
X92084Y164292D01*
X87916Y164292D01*
X87916Y163208D01*D02*
X77916Y155708D02*
X82084Y155708D01*
X82084Y156792D01*
X77916Y156792D01*
X77916Y155708D01*D02*
X77916Y163208D02*
X82084Y163208D01*
X82084Y164292D01*
X77916Y164292D01*
X77916Y163208D01*D02*
X53708Y143916D02*
X54792Y143916D01*
X54792Y148084D01*
X53708Y148084D01*
X53708Y143916D01*D02*
X61208Y143916D02*
X62292Y143916D01*
X62292Y148084D01*
X61208Y148084D01*
X61208Y143916D01*D02*
X41916Y137708D02*
X46084Y137708D01*
X46084Y138792D01*
X41916Y138792D01*
X41916Y137708D01*D02*
X41916Y145208D02*
X46084Y145208D01*
X46084Y146292D01*
X41916Y146292D01*
X41916Y145208D01*D02*
X49916Y155708D02*
X54084Y155708D01*
X54084Y156792D01*
X49916Y156792D01*
X49916Y155708D01*D02*
X49916Y163208D02*
X54084Y163208D01*
X54084Y164292D01*
X49916Y164292D01*
X49916Y163208D01*D02*
X68049Y179325D02*
X71659Y177241D01*
X72201Y178180D01*
X68591Y180264D01*
X68049Y179325D01*D02*
X71799Y185820D02*
X75409Y183736D01*
X75951Y184675D01*
X72341Y186759D01*
X71799Y185820D01*D02*
X85916Y219708D02*
X90084Y219708D01*
X90084Y220792D01*
X85916Y220792D01*
X85916Y219708D01*D02*
X85916Y227208D02*
X90084Y227208D01*
X90084Y228292D01*
X85916Y228292D01*
X85916Y227208D01*D02*
X95916Y219708D02*
X100084Y219708D01*
X100084Y220792D01*
X95916Y220792D01*
X95916Y219708D01*D02*
X95916Y227208D02*
X100084Y227208D01*
X100084Y228292D01*
X95916Y228292D01*
X95916Y227208D01*D02*
X79916Y117708D02*
X84084Y117708D01*
X84084Y118792D01*
X79916Y118792D01*
X79916Y117708D01*D02*
X79916Y125208D02*
X84084Y125208D01*
X84084Y126292D01*
X79916Y126292D01*
X79916Y125208D01*D02*
X69916Y117708D02*
X74084Y117708D01*
X74084Y118792D01*
X69916Y118792D01*
X69916Y117708D01*D02*
X69916Y125208D02*
X74084Y125208D01*
X74084Y126292D01*
X69916Y126292D01*
X69916Y125208D01*D02*
X91916Y79708D02*
X96084Y79708D01*
X96084Y80792D01*
X91916Y80792D01*
X91916Y79708D01*D02*
X91916Y87208D02*
X96084Y87208D01*
X96084Y88292D01*
X91916Y88292D01*
X91916Y87208D01*D02*
X89916Y117708D02*
X94084Y117708D01*
X94084Y118792D01*
X89916Y118792D01*
X89916Y117708D01*D02*
X89916Y125208D02*
X94084Y125208D01*
X94084Y126292D01*
X89916Y126292D01*
X89916Y125208D01*D02*
X109708Y239916D02*
X110792Y239916D01*
X110792Y244084D01*
X109708Y244084D01*
X109708Y239916D01*D02*
X117208Y239916D02*
X118292Y239916D01*
X118292Y244084D01*
X117208Y244084D01*
X117208Y239916D01*D02*
X109916Y225708D02*
X114084Y225708D01*
X114084Y226792D01*
X109916Y226792D01*
X109916Y225708D01*D02*
X109916Y233208D02*
X114084Y233208D01*
X114084Y234292D01*
X109916Y234292D01*
X109916Y233208D01*D02*
X136708Y214916D02*
X137792Y214916D01*
X137792Y219084D01*
X136708Y219084D01*
X136708Y214916D01*D02*
X144208Y214916D02*
X145292Y214916D01*
X145292Y219084D01*
X144208Y219084D01*
X144208Y214916D01*D02*
X136708Y204916D02*
X137792Y204916D01*
X137792Y209084D01*
X136708Y209084D01*
X136708Y204916D01*D02*
X144208Y204916D02*
X145292Y204916D01*
X145292Y209084D01*
X144208Y209084D01*
X144208Y204916D01*D02*
X93708Y241916D02*
X94792Y241916D01*
X94792Y246084D01*
X93708Y246084D01*
X93708Y241916D01*D02*
X101208Y241916D02*
X102292Y241916D01*
X102292Y246084D01*
X101208Y246084D01*
X101208Y241916D01*D02*
X109708Y249916D02*
X110792Y249916D01*
X110792Y254084D01*
X109708Y254084D01*
X109708Y249916D01*D02*
X117208Y249916D02*
X118292Y249916D01*
X118292Y254084D01*
X117208Y254084D01*
X117208Y249916D01*D02*
X129708Y241916D02*
X130792Y241916D01*
X130792Y246084D01*
X129708Y246084D01*
X129708Y241916D01*D02*
X137208Y241916D02*
X138292Y241916D01*
X138292Y246084D01*
X137208Y246084D01*
X137208Y241916D01*D02*
X171534Y222203D02*
X168342Y224882D01*
X167645Y224052D01*
X170838Y221373D01*
X171534Y222203D01*D02*
X176355Y227948D02*
X173162Y230627D01*
X172466Y229797D01*
X175659Y227118D01*
X176355Y227948D01*D02*
X155916Y225708D02*
X160084Y225708D01*
X160084Y226792D01*
X155916Y226792D01*
X155916Y225708D01*D02*
X155916Y233208D02*
X160084Y233208D01*
X160084Y234292D01*
X155916Y234292D01*
X155916Y233208D01*D02*
X179534Y216203D02*
X176341Y218882D01*
X175645Y218052D01*
X178838Y215373D01*
X179534Y216203D01*D02*
X184355Y221948D02*
X181162Y224627D01*
X180466Y223797D01*
X183659Y221118D01*
X184355Y221948D01*D02*
X199797Y209534D02*
X197118Y206341D01*
X197948Y205645D01*
X200627Y208838D01*
X199797Y209534D01*D02*
X194052Y214355D02*
X191373Y211162D01*
X192203Y210466D01*
X194882Y213658D01*
X194052Y214355D01*D02*
X197916Y159708D02*
X202084Y159708D01*
X202084Y160792D01*
X197916Y160792D01*
X197916Y159708D01*D02*
X197916Y167208D02*
X202084Y167208D01*
X202084Y168292D01*
X197916Y168292D01*
X197916Y167208D01*D02*
X187916Y159708D02*
X192084Y159708D01*
X192084Y160792D01*
X187916Y160792D01*
X187916Y159708D01*D02*
X187916Y167208D02*
X192084Y167208D01*
X192084Y168292D01*
X187916Y168292D01*
X187916Y167208D01*D02*
X145708Y241916D02*
X146792Y241916D01*
X146792Y246084D01*
X145708Y246084D01*
X145708Y241916D01*D02*
X153208Y241916D02*
X154292Y241916D01*
X154292Y246084D01*
X153208Y246084D01*
X153208Y241916D01*D02*
X145708Y251916D02*
X146792Y251916D01*
X146792Y256084D01*
X145708Y256084D01*
X145708Y251916D01*D02*
X153208Y251916D02*
X154292Y251916D01*
X154292Y256084D01*
X153208Y256084D01*
X153208Y251916D01*D02*
X153833Y77000D02*
X156167Y77000D01*
X156167Y79334D01*
X153833Y79334D01*
X153833Y77000D01*D02*
X153833Y68666D02*
X156167Y68666D01*
X156167Y71000D01*
X153833Y71000D01*
X153833Y68666D01*D02*
X163833Y72833D02*
X166167Y72833D01*
X166167Y75167D01*
X163833Y75167D01*
X163833Y72833D01*D02*
X123708Y111916D02*
X124792Y111916D01*
X124792Y116084D01*
X123708Y116084D01*
X123708Y111916D01*D02*
X131208Y111916D02*
X132292Y111916D01*
X132292Y116084D01*
X131208Y116084D01*
X131208Y111916D01*D02*
X139708Y111916D02*
X140792Y111916D01*
X140792Y116084D01*
X139708Y116084D01*
X139708Y111916D01*D02*
X147208Y111916D02*
X148292Y111916D01*
X148292Y116084D01*
X147208Y116084D01*
X147208Y111916D01*D02*
X127833Y75000D02*
X130167Y75000D01*
X130167Y77334D01*
X127833Y77334D01*
X127833Y75000D01*D02*
X127833Y66666D02*
X130167Y66666D01*
X130167Y69000D01*
X127833Y69000D01*
X127833Y66666D01*D02*
X137833Y70833D02*
X140167Y70833D01*
X140167Y73167D01*
X137833Y73167D01*
X137833Y70833D01*D02*
X109916Y69708D02*
X114084Y69708D01*
X114084Y70792D01*
X109916Y70792D01*
X109916Y69708D01*D02*
X109916Y77208D02*
X114084Y77208D01*
X114084Y78292D01*
X109916Y78292D01*
X109916Y77208D01*D02*
X109916Y85708D02*
X114084Y85708D01*
X114084Y86792D01*
X109916Y86792D01*
X109916Y85708D01*D02*
X109916Y93208D02*
X114084Y93208D01*
X114084Y94292D01*
X109916Y94292D01*
X109916Y93208D01*D02*
X109916Y107708D02*
X114084Y107708D01*
X114084Y108792D01*
X109916Y108792D01*
X109916Y107708D01*D02*
X109916Y115208D02*
X114084Y115208D01*
X114084Y116292D01*
X109916Y116292D01*
X109916Y115208D01*D02*
X165916Y111708D02*
X170084Y111708D01*
X170084Y112792D01*
X165916Y112792D01*
X165916Y111708D01*D02*
X165916Y119208D02*
X170084Y119208D01*
X170084Y120292D01*
X165916Y120292D01*
X165916Y119208D01*D02*
X185916Y101708D02*
X190084Y101708D01*
X190084Y102792D01*
X185916Y102792D01*
X185916Y101708D01*D02*
X185916Y109208D02*
X190084Y109208D01*
X190084Y110292D01*
X185916Y110292D01*
X185916Y109208D01*D02*
X185916Y85708D02*
X190084Y85708D01*
X190084Y86792D01*
X185916Y86792D01*
X185916Y85708D01*D02*
X185916Y93208D02*
X190084Y93208D01*
X190084Y94292D01*
X185916Y94292D01*
X185916Y93208D01*D02*
G54D18*
X60882Y156260D03*
X71118Y156260D03*
X60882Y163740D03*
X60882Y160000D03*
X71118Y163740D03*
G54D19*
X54250Y146000D03*
X61750Y146000D03*
X110250Y242000D03*
X117750Y242000D03*
X137250Y217000D03*
X144750Y217000D03*
X137250Y207000D03*
X144750Y207000D03*
X94250Y244000D03*
X101750Y244000D03*
X110250Y252000D03*
X117750Y252000D03*
X130250Y244000D03*
X137750Y244000D03*
X146250Y244000D03*
X153750Y244000D03*
X146250Y254000D03*
X153750Y254000D03*
X124250Y114000D03*
X131750Y114000D03*
X140250Y114000D03*
X147750Y114000D03*
G54D20*
X41000Y157500D03*
X46500Y194543D03*
X51500Y203203D03*
X56500Y211863D03*
X71429Y230429D03*
X75071Y91429D03*
X188179Y237356D03*
X180519Y243784D03*
X195840Y230928D03*
X213500Y128000D03*
X213500Y138000D03*
X213500Y178000D03*
X213500Y148000D03*
X213500Y158000D03*
X213500Y168000D03*
X213500Y208000D03*
X213500Y198000D03*
X213500Y188000D03*
G54D21*
X41000Y167500D03*
X213500Y118000D03*
G54D22*
X39959Y166459D02*
X42041Y166459D01*
X42041Y168541D01*
X39959Y168541D01*
X39959Y166459D01*D02*
X61119Y221946D02*
X60077Y220142D01*
X61881Y219101D01*
X62923Y220905D01*
X61119Y221946D01*D02*
X78500Y238973D02*
X77027Y237500D01*
X78500Y236027D01*
X79973Y237500D01*
X78500Y238973D01*D02*
X66527Y98500D02*
X68000Y97027D01*
X69473Y98500D01*
X68000Y99973D01*
X66527Y98500D01*D02*
X204967Y224628D02*
X203372Y225967D01*
X202033Y224372D01*
X203628Y223033D01*
X204967Y224628D01*D02*
X212459Y116959D02*
X214541Y116959D01*
X214541Y119041D01*
X212459Y119041D01*
X212459Y116959D01*D02*
G54D23*
X70232Y178690D03*
X70018Y178814D03*
X73982Y185186D03*
X73768Y185310D03*
G54D24*
X60597Y184531D03*
X59233Y185319D03*
X68767Y198681D03*
X67403Y199469D03*
G54D25*
X61500Y220523D03*
G54D26*
X78500Y237500D03*
X68000Y98500D03*
G54D27*
X124260Y224882D03*
X131740Y224882D03*
X124260Y235118D03*
X128000Y235118D03*
X131740Y235118D03*
X140260Y224882D03*
X147740Y224882D03*
X140260Y235118D03*
X144000Y235118D03*
X147740Y235118D03*
G54D28*
X169495Y223207D03*
X169685Y223048D03*
X174315Y228952D03*
X174505Y228793D03*
X177495Y217207D03*
X177685Y217048D03*
X182315Y222952D03*
X182505Y222793D03*
X198793Y207495D03*
X198952Y207685D03*
X193048Y212315D03*
X193207Y212505D03*
G54D29*
X203500Y224500D03*
G54D30*
X155000Y78167D03*
X155000Y69833D03*
X165000Y74000D03*
X129000Y76167D03*
X129000Y67833D03*
X139000Y72000D03*
G54D31*
X155030Y93817D03*
X155030Y101297D03*
X164085Y97557D03*
X129030Y91817D03*
X138085Y95557D03*
X129030Y99297D03*

M02*
