G04 Generated by Ultiboard 13.0 *
%FSLAX25Y25*%
%MOIN*%

%ADD10C,0.00001*%
%ADD11C,0.00039*%
%ADD12C,0.00394*%
%ADD13C,0.00005*%
%ADD14C,0.00500*%


G04 ColorRGB 000000 for the following layer *
%LNDrill Symbols-Copper Top-Copper Bottom*%
%LPD*%
G54D11*
X116819Y217000D02*
X119181Y217000D01*
X118000Y215819D02*
X118000Y218181D01*
X117819Y225000D02*
X120181Y225000D01*
X119000Y223819D02*
X119000Y226181D01*
X170819Y209000D02*
X173181Y209000D01*
X172000Y207819D02*
X172000Y210181D01*
X60819Y126000D02*
X63181Y126000D01*
X62000Y124819D02*
X62000Y127181D01*
X89819Y150000D02*
X92181Y150000D01*
X91000Y148819D02*
X91000Y151181D01*
X93819Y134000D02*
X96181Y134000D01*
X95000Y132819D02*
X95000Y135181D01*
X80819Y176000D02*
X83181Y176000D01*
X82000Y174819D02*
X82000Y177181D01*
X52819Y134000D02*
X55181Y134000D01*
X54000Y132819D02*
X54000Y135181D01*
X151819Y217000D02*
X154181Y217000D01*
X153000Y215819D02*
X153000Y218181D01*
X86819Y241000D02*
X89181Y241000D01*
X88000Y239819D02*
X88000Y242181D01*
X117819Y210000D02*
X120181Y210000D01*
X119000Y208819D02*
X119000Y211181D01*
X107819Y212000D02*
X110181Y212000D01*
X109000Y210819D02*
X109000Y213181D01*
X103819Y208000D02*
X106181Y208000D01*
X105000Y206819D02*
X105000Y209181D01*
X94819Y185000D02*
X97181Y185000D01*
X96000Y183819D02*
X96000Y186181D01*
X89819Y179000D02*
X92181Y179000D01*
X91000Y177819D02*
X91000Y180181D01*
X156819Y117000D02*
X159181Y117000D01*
X158000Y115819D02*
X158000Y118181D01*
X146819Y91000D02*
X149181Y91000D01*
X148000Y89819D02*
X148000Y92181D01*
X145819Y69000D02*
X148181Y69000D01*
X147000Y67819D02*
X147000Y70181D01*
X177819Y80000D02*
X180181Y80000D01*
X179000Y78819D02*
X179000Y81181D01*
X174819Y98000D02*
X177181Y98000D01*
X176000Y96819D02*
X176000Y99181D01*
X144819Y81000D02*
X147181Y81000D01*
X146000Y79819D02*
X146000Y82181D01*
X118819Y89000D02*
X121181Y89000D01*
X120000Y87819D02*
X120000Y90181D01*
X166819Y104000D02*
X169181Y104000D01*
X168000Y102819D02*
X168000Y105181D01*
X124819Y85000D02*
X127181Y85000D01*
X126000Y83819D02*
X126000Y86181D01*
X143819Y100000D02*
X146181Y100000D01*
X145000Y98819D02*
X145000Y101181D01*
X95819Y74000D02*
X98181Y74000D01*
X97000Y72819D02*
X97000Y75181D01*
X157819Y174000D02*
X160181Y174000D01*
X159000Y172819D02*
X159000Y175181D01*
X155819Y167000D02*
X158181Y167000D01*
X157000Y165819D02*
X157000Y168181D01*
X150819Y209000D02*
X153181Y209000D01*
X152000Y207819D02*
X152000Y210181D01*
X153819Y161000D02*
X156181Y161000D01*
X155000Y159819D02*
X155000Y162181D01*
X129819Y257000D02*
X132181Y257000D01*
X131000Y255819D02*
X131000Y258181D01*
X159819Y249000D02*
X162181Y249000D01*
X161000Y247819D02*
X161000Y250181D01*
X124819Y208000D02*
X127181Y208000D01*
X126000Y206819D02*
X126000Y209181D01*
X95819Y234000D02*
X98181Y234000D01*
X97000Y232819D02*
X97000Y235181D01*
X78819Y220000D02*
X81181Y220000D01*
X80000Y218819D02*
X80000Y221181D01*
X190819Y153000D02*
X193181Y153000D01*
X192000Y151819D02*
X192000Y154181D01*
X190819Y146000D02*
X193181Y146000D01*
X192000Y144819D02*
X192000Y147181D01*
X190819Y140000D02*
X193181Y140000D01*
X192000Y138819D02*
X192000Y141181D01*
X190819Y133000D02*
X193181Y133000D01*
X192000Y131819D02*
X192000Y134181D01*
X185819Y129000D02*
X188181Y129000D01*
X187000Y127819D02*
X187000Y130181D01*
X179819Y129000D02*
X182181Y129000D01*
X181000Y127819D02*
X181000Y130181D01*
X173819Y129000D02*
X176181Y129000D01*
X175000Y127819D02*
X175000Y130181D01*
X99819Y134000D02*
X102181Y134000D01*
X101000Y132819D02*
X101000Y135181D01*
X94819Y145000D02*
X97181Y145000D01*
X96000Y143819D02*
X96000Y146181D01*
X71319Y136000D02*
X73681Y136000D01*
X72500Y134819D02*
X72500Y137181D01*
X39250Y157500D02*
G75*
D01*
G02X39250Y157500I1750J0*
G01*
X39042Y165542D02*
X42959Y165542D01*
X42959Y169459D01*
X39042Y169459D01*
X39042Y165542D01*
X44750Y194543D02*
G75*
D01*
G02X44750Y194543I1750J0*
G01*
X49750Y203203D02*
G75*
D01*
G02X49750Y203203I1750J0*
G01*
X59542Y218565D02*
X63459Y218565D01*
X63459Y222482D01*
X59542Y222482D01*
X59542Y218565D01*
X54750Y211863D02*
G75*
D01*
G02X54750Y211863I1750J0*
G01*
X76542Y235542D02*
X80459Y235542D01*
X80459Y239458D01*
X76542Y239458D01*
X76542Y235542D01*
X69679Y230429D02*
G75*
D01*
G02X69679Y230429I1750J0*
G01*
X66042Y96542D02*
X69959Y96542D01*
X69959Y100459D01*
X66042Y100459D01*
X66042Y96542D01*
X73321Y91429D02*
G75*
D01*
G02X73321Y91429I1750J0*
G01*
X186429Y237356D02*
G75*
D01*
G02X186429Y237356I1750J0*
G01*
X178769Y243784D02*
G75*
D01*
G02X178769Y243784I1750J0*
G01*
X201542Y222542D02*
X205459Y222542D01*
X205459Y226458D01*
X201542Y226458D01*
X201542Y222542D01*
X194090Y230928D02*
G75*
D01*
G02X194090Y230928I1750J0*
G01*
X211542Y116042D02*
X215458Y116042D01*
X215458Y119959D01*
X211542Y119959D01*
X211542Y116042D01*
X211750Y128000D02*
G75*
D01*
G02X211750Y128000I1750J0*
G01*
X211750Y138000D02*
G75*
D01*
G02X211750Y138000I1750J0*
G01*
X211750Y178000D02*
G75*
D01*
G02X211750Y178000I1750J0*
G01*
X211750Y148000D02*
G75*
D01*
G02X211750Y148000I1750J0*
G01*
X211750Y158000D02*
G75*
D01*
G02X211750Y158000I1750J0*
G01*
X211750Y168000D02*
G75*
D01*
G02X211750Y168000I1750J0*
G01*
X211750Y208000D02*
G75*
D01*
G02X211750Y208000I1750J0*
G01*
X211750Y198000D02*
G75*
D01*
G02X211750Y198000I1750J0*
G01*
X211750Y188000D02*
G75*
D01*
G02X211750Y188000I1750J0*
G01*
X351849Y174730D02*
X355766Y174730D01*
X355766Y178647D01*
X351849Y178647D01*
X351849Y174730D01*
X352057Y192831D02*
G75*
D01*
G02X352057Y192831I1750J0*
G01*
X353807Y207791D02*
X353807Y210154D01*
X352626Y208972D02*
X354988Y208972D01*
G54D12*
X78464Y188964D02*
X85536Y196036D01*
X78464Y196036D02*
X85536Y188964D01*
X189464Y188964D02*
X196536Y196036D01*
X189464Y196036D02*
X196536Y188964D01*
X350272Y157012D02*
X357343Y164083D01*
X350272Y164083D02*
X357343Y157012D01*
X396196Y163922D02*
X398820Y165609D01*
X398820Y157173D01*
X394883Y157173D02*
X402757Y157173D01*
X406694Y163922D02*
X409319Y165609D01*
X411944Y165609D01*
X414568Y163922D01*
X414568Y158860D01*
X411944Y157173D01*
X409319Y157173D01*
X406694Y158860D01*
X406694Y163922D01*
X414568Y163922D02*
X406694Y158860D01*
X418505Y163922D02*
X421130Y165609D01*
X423755Y165609D01*
X426379Y163922D01*
X426379Y158860D01*
X423755Y157173D01*
X421130Y157173D01*
X418505Y158860D01*
X418505Y163922D01*
X426379Y163922D02*
X418505Y158860D01*
X434253Y157173D02*
X434253Y158016D01*
X442127Y163922D02*
X444752Y165609D01*
X447377Y165609D01*
X450001Y163922D01*
X450001Y158860D01*
X447377Y157173D01*
X444752Y157173D01*
X442127Y158860D01*
X442127Y163922D01*
X450001Y163922D02*
X442127Y158860D01*
X453938Y163922D02*
X456563Y165609D01*
X459188Y165609D01*
X461812Y163922D01*
X461812Y158860D01*
X459188Y157173D01*
X456563Y157173D01*
X453938Y158860D01*
X453938Y163922D01*
X461812Y163922D02*
X453938Y158860D01*
X465749Y163922D02*
X468374Y165609D01*
X470999Y165609D01*
X473623Y163922D01*
X473623Y158860D01*
X470999Y157173D01*
X468374Y157173D01*
X465749Y158860D01*
X465749Y163922D01*
X473623Y163922D02*
X465749Y158860D01*
X477560Y163922D02*
X480185Y165609D01*
X482810Y165609D01*
X485434Y163922D01*
X485434Y158860D01*
X482810Y157173D01*
X480185Y157173D01*
X477560Y158860D01*
X477560Y163922D01*
X485434Y163922D02*
X477560Y158860D01*
X489371Y163922D02*
X491996Y165609D01*
X494621Y165609D01*
X497245Y163922D01*
X497245Y158860D01*
X494621Y157173D01*
X491996Y157173D01*
X489371Y158860D01*
X489371Y163922D01*
X497245Y163922D02*
X489371Y158860D01*
X546852Y163922D02*
X549476Y165609D01*
X552101Y165609D01*
X554726Y163922D01*
X554726Y163078D01*
X546852Y157173D01*
X554726Y157173D01*
X554726Y158016D01*
X616143Y157173D02*
X616143Y165609D01*
X624017Y157173D01*
X624017Y165609D01*
X627954Y157173D02*
X627954Y165609D01*
X633203Y165609D01*
X635828Y163922D01*
X635828Y163078D01*
X633203Y161391D01*
X627954Y161391D01*
X643702Y157173D02*
X643702Y165609D01*
X639765Y165609D02*
X647639Y165609D01*
X651576Y157173D02*
X651576Y165609D01*
X659450Y157173D02*
X659450Y165609D01*
X651576Y161391D02*
X659450Y161391D01*
X691340Y163922D02*
X693965Y165609D01*
X696589Y165609D01*
X699214Y163922D01*
X699214Y158860D01*
X696589Y157173D01*
X693965Y157173D01*
X691340Y158860D01*
X691340Y163922D01*
X699214Y163922D02*
X691340Y158860D01*
X721524Y157173D02*
X720211Y157173D01*
X717587Y158860D01*
X717587Y163922D01*
X720211Y165609D01*
X721524Y165609D01*
X726773Y157173D02*
X726773Y165609D01*
X732022Y165609D01*
X734647Y163922D01*
X734647Y163078D01*
X732022Y161391D01*
X726773Y161391D01*
X728085Y161391D02*
X734647Y157173D01*
X738584Y158860D02*
X741209Y157173D01*
X743833Y157173D01*
X746458Y158860D01*
X746458Y163922D01*
X743833Y165609D01*
X741209Y165609D01*
X738584Y163922D01*
X738584Y158860D01*
X750395Y165609D02*
X750395Y158860D01*
X753020Y157173D01*
X755644Y157173D01*
X758269Y158860D01*
X758269Y165609D01*
X762206Y157173D02*
X762206Y165609D01*
X770080Y157173D01*
X770080Y165609D01*
X774017Y157173D02*
X779266Y157173D01*
X781891Y158860D01*
X781891Y163922D01*
X779266Y165609D01*
X774017Y165609D01*
X775329Y165609D02*
X775329Y157173D01*
X787140Y165609D02*
X788453Y165609D01*
X791077Y163922D01*
X791077Y158860D01*
X788453Y157173D01*
X787140Y157173D01*
X402101Y180907D02*
X403413Y181751D01*
X406038Y181751D01*
X408663Y180064D01*
X408663Y178376D01*
X407350Y177533D01*
X408663Y176689D01*
X408663Y175002D01*
X406038Y173314D01*
X403413Y173314D01*
X402101Y174158D01*
X403413Y177533D02*
X407350Y177533D01*
X412600Y175002D02*
X415224Y173314D01*
X417849Y173314D01*
X420474Y175002D01*
X420474Y178376D01*
X420474Y180064D01*
X417849Y181751D01*
X415224Y181751D01*
X412600Y180064D01*
X412600Y178376D01*
X415224Y176689D01*
X417849Y176689D01*
X420474Y178376D01*
X428348Y173314D02*
X428348Y174158D01*
X437534Y180064D02*
X440159Y181751D01*
X440159Y173314D01*
X436222Y173314D02*
X444096Y173314D01*
X451970Y173314D02*
X451970Y177533D01*
X455907Y180064D01*
X455907Y181751D01*
X448033Y181751D01*
X448033Y180064D01*
X459844Y180064D02*
X462469Y181751D01*
X465093Y181751D01*
X467718Y180064D01*
X467718Y175002D01*
X465093Y173314D01*
X462469Y173314D01*
X459844Y175002D01*
X459844Y180064D01*
X467718Y180064D02*
X459844Y175002D01*
X471655Y180064D02*
X474280Y181751D01*
X476904Y181751D01*
X479529Y180064D01*
X479529Y175002D01*
X476904Y173314D01*
X474280Y173314D01*
X471655Y175002D01*
X471655Y180064D01*
X479529Y180064D02*
X471655Y175002D01*
X483466Y180064D02*
X486091Y181751D01*
X488715Y181751D01*
X491340Y180064D01*
X491340Y175002D01*
X488715Y173314D01*
X486091Y173314D01*
X483466Y175002D01*
X483466Y180064D01*
X491340Y180064D02*
X483466Y175002D01*
X553413Y181751D02*
X549476Y181751D01*
X546852Y180064D01*
X546852Y176689D01*
X546852Y175002D01*
X549476Y173314D01*
X552101Y173314D01*
X554726Y175002D01*
X554726Y176689D01*
X552101Y178376D01*
X549476Y178376D01*
X546852Y176689D01*
X622049Y173314D02*
X622049Y181751D01*
X627298Y181751D01*
X629923Y180064D01*
X629923Y179220D01*
X627298Y177533D01*
X622049Y177533D01*
X637797Y173314D02*
X637797Y181751D01*
X633860Y181751D02*
X641734Y181751D01*
X645671Y173314D02*
X645671Y181751D01*
X653545Y173314D02*
X653545Y181751D01*
X645671Y177533D02*
X653545Y177533D01*
X691340Y180064D02*
X693965Y181751D01*
X696589Y181751D01*
X699214Y180064D01*
X699214Y175002D01*
X696589Y173314D01*
X693965Y173314D01*
X691340Y175002D01*
X691340Y180064D01*
X699214Y180064D02*
X691340Y175002D01*
X721524Y173314D02*
X720211Y173314D01*
X717587Y175002D01*
X717587Y180064D01*
X720211Y181751D01*
X721524Y181751D01*
X726773Y173314D02*
X726773Y181751D01*
X732022Y181751D01*
X734647Y180064D01*
X734647Y179220D01*
X732022Y177533D01*
X726773Y177533D01*
X728085Y177533D02*
X734647Y173314D01*
X738584Y175002D02*
X741209Y173314D01*
X743833Y173314D01*
X746458Y175002D01*
X746458Y180064D01*
X743833Y181751D01*
X741209Y181751D01*
X738584Y180064D01*
X738584Y175002D01*
X750395Y181751D02*
X750395Y175002D01*
X753020Y173314D01*
X755644Y173314D01*
X758269Y175002D01*
X758269Y181751D01*
X762206Y173314D02*
X762206Y181751D01*
X770080Y173314D01*
X770080Y181751D01*
X774017Y173314D02*
X779266Y173314D01*
X781891Y175002D01*
X781891Y180064D01*
X779266Y181751D01*
X774017Y181751D01*
X775329Y181751D02*
X775329Y173314D01*
X787140Y181751D02*
X788453Y181751D01*
X791077Y180064D01*
X791077Y175002D01*
X788453Y173314D01*
X787140Y173314D01*
X402101Y197049D02*
X403413Y197893D01*
X406038Y197893D01*
X408663Y196205D01*
X408663Y194518D01*
X407350Y193674D01*
X408663Y192831D01*
X408663Y191143D01*
X406038Y189456D01*
X403413Y189456D01*
X402101Y190300D01*
X403413Y193674D02*
X407350Y193674D01*
X420474Y197893D02*
X412600Y197893D01*
X412600Y194518D01*
X417849Y194518D01*
X420474Y192831D01*
X420474Y191143D01*
X417849Y189456D01*
X412600Y189456D01*
X428348Y189456D02*
X428348Y190300D01*
X436222Y196205D02*
X438846Y197893D01*
X441471Y197893D01*
X444096Y196205D01*
X444096Y191143D01*
X441471Y189456D01*
X438846Y189456D01*
X436222Y191143D01*
X436222Y196205D01*
X444096Y196205D02*
X436222Y191143D01*
X448033Y196205D02*
X450657Y197893D01*
X453282Y197893D01*
X455907Y196205D01*
X455907Y191143D01*
X453282Y189456D01*
X450657Y189456D01*
X448033Y191143D01*
X448033Y196205D01*
X455907Y196205D02*
X448033Y191143D01*
X459844Y196205D02*
X462469Y197893D01*
X465093Y197893D01*
X467718Y196205D01*
X467718Y191143D01*
X465093Y189456D01*
X462469Y189456D01*
X459844Y191143D01*
X459844Y196205D01*
X467718Y196205D02*
X459844Y191143D01*
X471655Y196205D02*
X474280Y197893D01*
X476904Y197893D01*
X479529Y196205D01*
X479529Y191143D01*
X476904Y189456D01*
X474280Y189456D01*
X471655Y191143D01*
X471655Y196205D01*
X479529Y196205D02*
X471655Y191143D01*
X483466Y196205D02*
X486091Y197893D01*
X488715Y197893D01*
X491340Y196205D01*
X491340Y191143D01*
X488715Y189456D01*
X486091Y189456D01*
X483466Y191143D01*
X483466Y196205D01*
X491340Y196205D02*
X483466Y191143D01*
X542259Y196205D02*
X544883Y197893D01*
X544883Y189456D01*
X540946Y189456D02*
X548820Y189456D01*
X558007Y189456D02*
X555382Y189456D01*
X552757Y191143D01*
X552757Y192831D01*
X554070Y193674D01*
X552757Y194518D01*
X552757Y196205D01*
X555382Y197893D01*
X558007Y197893D01*
X560631Y196205D01*
X560631Y194518D01*
X559319Y193674D01*
X560631Y192831D01*
X560631Y191143D01*
X558007Y189456D01*
X554070Y193674D02*
X559319Y193674D01*
X622049Y189456D02*
X622049Y197893D01*
X627298Y197893D01*
X629923Y196205D01*
X629923Y195362D01*
X627298Y193674D01*
X622049Y193674D01*
X637797Y189456D02*
X637797Y197893D01*
X633860Y197893D02*
X641734Y197893D01*
X645671Y189456D02*
X645671Y197893D01*
X653545Y189456D02*
X653545Y197893D01*
X645671Y193674D02*
X653545Y193674D01*
X691340Y196205D02*
X693965Y197893D01*
X696589Y197893D01*
X699214Y196205D01*
X699214Y191143D01*
X696589Y189456D01*
X693965Y189456D01*
X691340Y191143D01*
X691340Y196205D01*
X699214Y196205D02*
X691340Y191143D01*
X721524Y189456D02*
X720211Y189456D01*
X717587Y191143D01*
X717587Y196205D01*
X720211Y197893D01*
X721524Y197893D01*
X726773Y189456D02*
X726773Y197893D01*
X732022Y197893D01*
X734647Y196205D01*
X734647Y195362D01*
X732022Y193674D01*
X726773Y193674D01*
X728085Y193674D02*
X734647Y189456D01*
X738584Y191143D02*
X741209Y189456D01*
X743833Y189456D01*
X746458Y191143D01*
X746458Y196205D01*
X743833Y197893D01*
X741209Y197893D01*
X738584Y196205D01*
X738584Y191143D01*
X750395Y197893D02*
X750395Y191143D01*
X753020Y189456D01*
X755644Y189456D01*
X758269Y191143D01*
X758269Y197893D01*
X762206Y189456D02*
X762206Y197893D01*
X770080Y189456D01*
X770080Y197893D01*
X774017Y189456D02*
X779266Y189456D01*
X781891Y191143D01*
X781891Y196205D01*
X779266Y197893D01*
X774017Y197893D01*
X775329Y197893D02*
X775329Y189456D01*
X787140Y197893D02*
X788453Y197893D01*
X791077Y196205D01*
X791077Y191143D01*
X788453Y189456D01*
X787140Y189456D01*
X400789Y212347D02*
X403413Y214034D01*
X406038Y214034D01*
X408663Y212347D01*
X408663Y211503D01*
X400789Y205598D01*
X408663Y205598D01*
X408663Y206442D01*
X413912Y213191D02*
X415224Y214034D01*
X417849Y214034D01*
X420474Y212347D01*
X420474Y210660D01*
X419161Y209816D01*
X420474Y208972D01*
X420474Y207285D01*
X417849Y205598D01*
X415224Y205598D01*
X413912Y206442D01*
X415224Y209816D02*
X419161Y209816D01*
X428348Y205598D02*
X428348Y206442D01*
X442783Y214034D02*
X438846Y214034D01*
X436222Y212347D01*
X436222Y208972D01*
X436222Y207285D01*
X438846Y205598D01*
X441471Y205598D01*
X444096Y207285D01*
X444096Y208972D01*
X441471Y210660D01*
X438846Y210660D01*
X436222Y208972D01*
X448033Y212347D02*
X450657Y214034D01*
X453282Y214034D01*
X455907Y212347D01*
X455907Y211503D01*
X448033Y205598D01*
X455907Y205598D01*
X455907Y206442D01*
X459844Y212347D02*
X462469Y214034D01*
X465093Y214034D01*
X467718Y212347D01*
X467718Y211503D01*
X459844Y205598D01*
X467718Y205598D01*
X467718Y206442D01*
X471655Y212347D02*
X474280Y214034D01*
X476904Y214034D01*
X479529Y212347D01*
X479529Y207285D01*
X476904Y205598D01*
X474280Y205598D01*
X471655Y207285D01*
X471655Y212347D01*
X479529Y212347D02*
X471655Y207285D01*
X491340Y214034D02*
X483466Y214034D01*
X483466Y210660D01*
X488715Y210660D01*
X491340Y208972D01*
X491340Y207285D01*
X488715Y205598D01*
X483466Y205598D01*
X548820Y208972D02*
X540946Y208972D01*
X547508Y214034D01*
X547508Y205598D01*
X546196Y205598D02*
X548820Y205598D01*
X560631Y214034D02*
X552757Y214034D01*
X552757Y210660D01*
X558007Y210660D01*
X560631Y208972D01*
X560631Y207285D01*
X558007Y205598D01*
X552757Y205598D01*
X622049Y205598D02*
X622049Y214034D01*
X627298Y214034D01*
X629923Y212347D01*
X629923Y211503D01*
X627298Y209816D01*
X622049Y209816D01*
X637797Y205598D02*
X637797Y214034D01*
X633860Y214034D02*
X641734Y214034D01*
X645671Y205598D02*
X645671Y214034D01*
X653545Y205598D02*
X653545Y214034D01*
X645671Y209816D02*
X653545Y209816D01*
X691340Y212347D02*
X693965Y214034D01*
X696589Y214034D01*
X699214Y212347D01*
X699214Y207285D01*
X696589Y205598D01*
X693965Y205598D01*
X691340Y207285D01*
X691340Y212347D01*
X699214Y212347D02*
X691340Y207285D01*
X721524Y205598D02*
X720211Y205598D01*
X717587Y207285D01*
X717587Y212347D01*
X720211Y214034D01*
X721524Y214034D01*
X726773Y205598D02*
X726773Y214034D01*
X732022Y214034D01*
X734647Y212347D01*
X734647Y211503D01*
X732022Y209816D01*
X726773Y209816D01*
X728085Y209816D02*
X734647Y205598D01*
X738584Y207285D02*
X741209Y205598D01*
X743833Y205598D01*
X746458Y207285D01*
X746458Y212347D01*
X743833Y214034D01*
X741209Y214034D01*
X738584Y212347D01*
X738584Y207285D01*
X750395Y214034D02*
X750395Y207285D01*
X753020Y205598D01*
X755644Y205598D01*
X758269Y207285D01*
X758269Y214034D01*
X762206Y205598D02*
X762206Y214034D01*
X770080Y205598D01*
X770080Y214034D01*
X774017Y205598D02*
X779266Y205598D01*
X781891Y207285D01*
X781891Y212347D01*
X779266Y214034D01*
X774017Y214034D01*
X775329Y214034D02*
X775329Y205598D01*
X787140Y214034D02*
X788453Y214034D01*
X791077Y212347D01*
X791077Y207285D01*
X788453Y205598D01*
X787140Y205598D01*
G04 ColorRGB 00FFFF for the following layer *
%LNBoard Outline*%
%LPD*%
G54D10*
G54D13*
X34500Y162500D02*
G75*
D01*
G02X34500Y162500I100000J0*
G01*
G54D14*
X33500Y61500D02*
X33500Y81700D01*
X33500Y61500D02*
X53700Y61500D01*
X235500Y61500D02*
X215300Y61500D01*
X235500Y61500D02*
X235500Y81700D01*
X235500Y263500D02*
X235500Y243300D01*
X235500Y263500D02*
X215300Y263500D01*
X33500Y263500D02*
X53700Y263500D01*
X33500Y263500D02*
X33500Y243300D01*
X13815Y61500D02*
X-25555Y61500D01*
X-5870Y41815D02*
X-5870Y81185D01*
X-20634Y61500D02*
G75*
D01*
G02X-20634Y61500I14764J0*
G01*
X255185Y61500D02*
X294555Y61500D01*
X274870Y41815D02*
X274870Y81185D01*
X260106Y61500D02*
G75*
D01*
G02X260106Y61500I14764J0*
G01*
X269949Y61500D02*
G75*
D01*
G02X269949Y61500I4921J0*
G01*
X13815Y263500D02*
X-25555Y263500D01*
X-5870Y243815D02*
X-5870Y283185D01*
X-20634Y263500D02*
G75*
D01*
G02X-20634Y263500I14764J0*
G01*
X-15713Y263500D02*
G75*
D01*
G02X-15713Y263500I9843J0*
G01*
X-10791Y263500D02*
G75*
D01*
G02X-10791Y263500I4921J0*
G01*
G04 ColorRGB 66FFCC for the following layer *
%LNLegend Description*%
%LPD*%
G54D12*
X316209Y152476D02*
X810303Y152476D01*
X810303Y265469D01*
X316209Y265469D01*
X316209Y152476D01*
X391406Y233185D02*
X391406Y152476D01*
X502035Y233185D02*
X502035Y152476D01*
X600854Y233185D02*
X600854Y152476D01*
X676051Y233185D02*
X676051Y152476D01*
X810303Y233185D02*
X810303Y152476D01*
X316209Y168618D02*
X810303Y168618D01*
X316209Y184760D02*
X810303Y184760D01*
X316209Y200902D02*
X810303Y200902D01*
X319686Y223427D02*
X322311Y221740D01*
X324936Y221740D01*
X327560Y223427D01*
X319686Y228489D01*
X322311Y230176D01*
X324936Y230176D01*
X327560Y228489D01*
X331497Y219209D02*
X332810Y219209D01*
X339371Y227645D01*
X331497Y227645D02*
X335434Y222583D01*
X343308Y221740D02*
X343308Y226801D01*
X343308Y227645D01*
X343308Y226801D02*
X344621Y227645D01*
X345933Y227645D01*
X347245Y226801D01*
X348558Y227645D01*
X349870Y227645D01*
X351182Y226801D01*
X351182Y221740D01*
X347245Y226801D02*
X347245Y221740D01*
X355119Y223427D02*
X357744Y221740D01*
X360369Y221740D01*
X362993Y223427D01*
X362993Y225114D01*
X360369Y226801D01*
X357744Y226801D01*
X355119Y225114D01*
X355119Y230176D02*
X355119Y221740D01*
X366930Y223427D02*
X369555Y221740D01*
X372180Y221740D01*
X374804Y223427D01*
X374804Y225958D01*
X372180Y227645D01*
X369555Y227645D01*
X366930Y225958D01*
X366930Y223427D01*
X380054Y230176D02*
X380054Y223427D01*
X382678Y221740D01*
X316209Y217043D02*
X810303Y217043D01*
X424411Y223427D02*
X427035Y221740D01*
X429660Y221740D01*
X432285Y223427D01*
X424411Y228489D01*
X427035Y230176D01*
X429660Y230176D01*
X432285Y228489D01*
X440159Y221740D02*
X440159Y226801D01*
X440159Y228489D02*
X440159Y229332D01*
X448033Y227645D02*
X455907Y227645D01*
X448033Y221740D01*
X455907Y221740D01*
X467718Y223427D02*
X465093Y221740D01*
X462469Y221740D01*
X459844Y223427D01*
X459844Y225958D01*
X462469Y227645D01*
X465093Y227645D01*
X467718Y225958D01*
X466406Y225114D01*
X459844Y225114D01*
X505513Y223427D02*
X508138Y221740D01*
X510762Y221740D01*
X513387Y223427D01*
X513387Y228489D01*
X510762Y230176D01*
X508138Y230176D01*
X505513Y228489D01*
X505513Y223427D01*
X510762Y223427D02*
X513387Y221740D01*
X517324Y227645D02*
X517324Y223427D01*
X519949Y221740D01*
X522573Y221740D01*
X525198Y223427D01*
X525198Y227645D01*
X525198Y223427D02*
X525198Y221740D01*
X530448Y227645D02*
X534385Y227645D01*
X535697Y226801D01*
X535697Y222583D01*
X534385Y221740D01*
X530448Y221740D01*
X529135Y222583D01*
X529135Y224271D01*
X530448Y225114D01*
X535697Y225114D01*
X535697Y222583D02*
X537009Y221740D01*
X540946Y221740D02*
X540946Y226801D01*
X540946Y227645D01*
X540946Y226801D02*
X542259Y227645D01*
X544883Y227645D01*
X546196Y226801D01*
X546196Y221740D01*
X559319Y222583D02*
X558007Y221740D01*
X556694Y222583D01*
X556694Y230176D01*
X554070Y227645D02*
X559319Y227645D01*
X568505Y221740D02*
X568505Y226801D01*
X568505Y228489D02*
X568505Y229332D01*
X582941Y222583D02*
X581629Y221740D01*
X580316Y222583D01*
X580316Y230176D01*
X577692Y227645D02*
X582941Y227645D01*
X588190Y219209D02*
X589503Y219209D01*
X596064Y227645D01*
X588190Y227645D02*
X592127Y222583D01*
X604332Y221740D02*
X604332Y230176D01*
X609581Y230176D01*
X612206Y228489D01*
X612206Y227645D01*
X609581Y225958D01*
X604332Y225958D01*
X617455Y230176D02*
X617455Y223427D01*
X620080Y221740D01*
X629266Y227645D02*
X633203Y227645D01*
X634516Y226801D01*
X634516Y222583D01*
X633203Y221740D01*
X629266Y221740D01*
X627954Y222583D01*
X627954Y224271D01*
X629266Y225114D01*
X634516Y225114D01*
X634516Y222583D02*
X635828Y221740D01*
X646327Y222583D02*
X645014Y221740D01*
X643702Y222583D01*
X643702Y230176D01*
X641077Y227645D02*
X646327Y227645D01*
X659450Y223427D02*
X656825Y221740D01*
X654201Y221740D01*
X651576Y223427D01*
X651576Y225958D01*
X654201Y227645D01*
X656825Y227645D01*
X659450Y225958D01*
X658138Y225114D01*
X651576Y225114D01*
X671261Y223427D02*
X668636Y221740D01*
X666012Y221740D01*
X663387Y223427D01*
X663387Y225114D01*
X666012Y226801D01*
X668636Y226801D01*
X671261Y225114D01*
X671261Y230176D02*
X671261Y221740D01*
X679529Y223427D02*
X682154Y221740D01*
X684778Y221740D01*
X687403Y223427D01*
X679529Y228489D01*
X682154Y230176D01*
X684778Y230176D01*
X687403Y228489D01*
X692652Y230176D02*
X692652Y223427D01*
X695277Y221740D01*
X703151Y223427D02*
X705776Y221740D01*
X708400Y221740D01*
X711025Y223427D01*
X711025Y225958D01*
X708400Y227645D01*
X705776Y227645D01*
X703151Y225958D01*
X703151Y223427D01*
X721524Y222583D02*
X720211Y221740D01*
X718899Y222583D01*
X718899Y230176D01*
X716274Y227645D02*
X721524Y227645D01*
X738584Y230176D02*
X738584Y221740D01*
X746458Y221740D01*
X758269Y223427D02*
X755644Y221740D01*
X753020Y221740D01*
X750395Y223427D01*
X750395Y225958D01*
X753020Y227645D01*
X755644Y227645D01*
X758269Y225958D01*
X756957Y225114D01*
X750395Y225114D01*
X762206Y221740D02*
X762206Y226801D01*
X762206Y227645D01*
X762206Y226801D02*
X763518Y227645D01*
X766143Y227645D01*
X767455Y226801D01*
X767455Y221740D01*
X774017Y220896D02*
X776642Y219209D01*
X779266Y219209D01*
X781891Y220896D01*
X781891Y223427D01*
X781891Y225958D01*
X779266Y227645D01*
X776642Y227645D01*
X774017Y225958D01*
X774017Y223427D01*
X776642Y221740D01*
X779266Y221740D01*
X781891Y223427D01*
X792390Y222583D02*
X791077Y221740D01*
X789765Y222583D01*
X789765Y230176D01*
X787140Y227645D02*
X792390Y227645D01*
X797639Y225958D02*
X800264Y227645D01*
X802888Y227645D01*
X805513Y225958D01*
X805513Y221740D01*
X797639Y230176D02*
X797639Y221740D01*
X316209Y233185D02*
X810303Y233185D01*
X446458Y237881D02*
X446458Y242943D01*
X449083Y246318D01*
X451707Y246318D01*
X454332Y242943D01*
X454332Y237881D01*
X446458Y240412D02*
X454332Y240412D01*
X459581Y246318D02*
X459581Y239569D01*
X462206Y237881D01*
X471392Y246318D02*
X471392Y239569D01*
X474017Y237881D01*
X493702Y243787D02*
X493702Y239569D01*
X496327Y237881D01*
X498951Y237881D01*
X501576Y239569D01*
X501576Y243787D01*
X501576Y239569D02*
X501576Y237881D01*
X505513Y237881D02*
X505513Y242943D01*
X505513Y243787D01*
X505513Y242943D02*
X506825Y243787D01*
X509450Y243787D01*
X510762Y242943D01*
X510762Y237881D01*
X521261Y237881D02*
X521261Y242943D01*
X521261Y244630D02*
X521261Y245474D01*
X535697Y238725D02*
X534385Y237881D01*
X533072Y238725D01*
X533072Y246318D01*
X530448Y243787D02*
X535697Y243787D01*
X540946Y239569D02*
X543571Y237881D01*
X546196Y237881D01*
X548820Y239569D01*
X540946Y242100D01*
X543571Y243787D01*
X546196Y243787D01*
X548820Y242100D01*
X565881Y243787D02*
X569818Y243787D01*
X571130Y242943D01*
X571130Y238725D01*
X569818Y237881D01*
X565881Y237881D01*
X564568Y238725D01*
X564568Y240412D01*
X565881Y241256D01*
X571130Y241256D01*
X571130Y238725D02*
X572442Y237881D01*
X576379Y241256D02*
X580316Y243787D01*
X581629Y243787D01*
X584253Y242100D01*
X576379Y237881D02*
X576379Y243787D01*
X596064Y239569D02*
X593440Y237881D01*
X590815Y237881D01*
X588190Y239569D01*
X588190Y242100D01*
X590815Y243787D01*
X593440Y243787D01*
X596064Y242100D01*
X594752Y241256D01*
X588190Y241256D01*
X615749Y237881D02*
X615749Y242943D01*
X615749Y244630D02*
X615749Y245474D01*
X623623Y237881D02*
X623623Y242943D01*
X623623Y243787D01*
X623623Y242943D02*
X624936Y243787D01*
X627560Y243787D01*
X628873Y242943D01*
X628873Y237881D01*
X647245Y237881D02*
X647245Y242943D01*
X647245Y243787D01*
X647245Y242943D02*
X648558Y243787D01*
X649870Y243787D01*
X651182Y242943D01*
X652495Y243787D01*
X653807Y243787D01*
X655119Y242943D01*
X655119Y237881D01*
X651182Y242943D02*
X651182Y237881D01*
X662993Y237881D02*
X662993Y242943D01*
X662993Y244630D02*
X662993Y245474D01*
X672180Y246318D02*
X672180Y239569D01*
X674804Y237881D01*
X316209Y249327D02*
X810303Y249327D01*
X493702Y254023D02*
X498951Y254023D01*
X501576Y255710D01*
X501576Y260772D01*
X498951Y262460D01*
X493702Y262460D01*
X495014Y262460D02*
X495014Y254023D01*
X505513Y257398D02*
X509450Y259929D01*
X510762Y259929D01*
X513387Y258241D01*
X505513Y254023D02*
X505513Y259929D01*
X521261Y254023D02*
X521261Y259085D01*
X521261Y260772D02*
X521261Y261616D01*
X530448Y262460D02*
X530448Y255710D01*
X533072Y254023D01*
X542259Y262460D02*
X542259Y255710D01*
X544883Y254023D01*
X564568Y262460D02*
X564568Y254023D01*
X572442Y254023D01*
X584253Y255710D02*
X581629Y254023D01*
X579004Y254023D01*
X576379Y255710D01*
X576379Y258241D01*
X579004Y259929D01*
X581629Y259929D01*
X584253Y258241D01*
X582941Y257398D01*
X576379Y257398D01*
X588190Y253179D02*
X590815Y251492D01*
X593440Y251492D01*
X596064Y253179D01*
X596064Y255710D01*
X596064Y258241D01*
X593440Y259929D01*
X590815Y259929D01*
X588190Y258241D01*
X588190Y255710D01*
X590815Y254023D01*
X593440Y254023D01*
X596064Y255710D01*
X607875Y255710D02*
X605251Y254023D01*
X602626Y254023D01*
X600001Y255710D01*
X600001Y258241D01*
X602626Y259929D01*
X605251Y259929D01*
X607875Y258241D01*
X606563Y257398D01*
X600001Y257398D01*
X611812Y254023D02*
X611812Y259085D01*
X611812Y259929D01*
X611812Y259085D02*
X613125Y259929D01*
X615749Y259929D01*
X617062Y259085D01*
X617062Y254023D01*
X631497Y255710D02*
X628873Y254023D01*
X626248Y254023D01*
X623623Y255710D01*
X623623Y257398D01*
X626248Y259085D01*
X628873Y259085D01*
X631497Y257398D01*
X631497Y262460D02*
X631497Y254023D01*

M02*
