G04 Generated by Ultiboard 13.0 *
%FSLAX25Y25*%
%MOIN*%

%ADD10C,0.00001*%
%ADD11C,0.03000*%
%ADD12C,0.01000*%
%ADD13C,0.00500*%
%ADD14C,0.03937*%
%ADD15C,0.06334*%
%ADD16R,0.02083X0.02083*%
%ADD17C,0.03917*%
%ADD18P,0.02945X4X15*%
%ADD19P,0.02945X4*%
%ADD20P,0.02945X4X5*%


G04 ColorRGB FFCC33 for the following layer *
%LNCopper Inner 2*%
%LPD*%
G54D10*
G54D11*
X63977Y220523D02*
X72500Y212000D01*
X72500Y136000D01*
X61500Y220523D02*
X63977Y220523D01*
X61637Y141637D02*
X54000Y134000D01*
X61637Y209070D02*
X58844Y211863D01*
X61637Y209070D02*
X61637Y141637D01*
X56500Y211863D02*
X58844Y211863D01*
G54D12*
X168000Y104000D02*
X73500Y104000D01*
X68000Y98500D01*
X124500Y74000D02*
X145000Y94500D01*
X145000Y100000D01*
X97000Y74000D02*
X124500Y74000D01*
X180519Y243784D02*
X180519Y232019D01*
X150500Y202000D01*
X150500Y173500D01*
X157000Y167000D01*
X159000Y174000D02*
X159000Y206500D01*
X188179Y235679D01*
X188179Y237356D01*
X131000Y257000D02*
X109000Y235000D01*
X109000Y212000D01*
X161000Y249000D02*
X127500Y249000D01*
X113500Y235000D01*
X113500Y210293D02*
X113500Y235000D01*
X111207Y208000D02*
X105000Y208000D01*
X111207Y208000D02*
X113500Y210293D01*
X187000Y129000D02*
X187000Y155500D01*
X189500Y158000D01*
X213500Y158000D01*
X181000Y129000D02*
X181000Y156000D01*
X193000Y168000D01*
X213500Y168000D01*
X175000Y129000D02*
X175000Y164000D01*
X189000Y178000D01*
X213500Y178000D01*
G54D13*
X33500Y61500D02*
X33500Y81700D01*
X33500Y61500D02*
X53700Y61500D01*
X235500Y61500D02*
X215300Y61500D01*
X235500Y61500D02*
X235500Y81700D01*
X235500Y263500D02*
X235500Y243300D01*
X235500Y263500D02*
X215300Y263500D01*
X33500Y263500D02*
X53700Y263500D01*
X33500Y263500D02*
X33500Y243300D01*
X13815Y61500D02*
X-25555Y61500D01*
X-5870Y41815D02*
X-5870Y81185D01*
X-20634Y61500D02*
G75*
D01*
G02X-20634Y61500I14764J0*
G01*
X255185Y61500D02*
X294555Y61500D01*
X274870Y41815D02*
X274870Y81185D01*
X260106Y61500D02*
G75*
D01*
G02X260106Y61500I14764J0*
G01*
X269949Y61500D02*
G75*
D01*
G02X269949Y61500I4921J0*
G01*
X13815Y263500D02*
X-25555Y263500D01*
X-5870Y243815D02*
X-5870Y283185D01*
X-20634Y263500D02*
G75*
D01*
G02X-20634Y263500I14764J0*
G01*
X-15713Y263500D02*
G75*
D01*
G02X-15713Y263500I9843J0*
G01*
X-10791Y263500D02*
G75*
D01*
G02X-10791Y263500I4921J0*
G01*
G54D14*
X118000Y217000D03*
X119000Y225000D03*
X172000Y209000D03*
X62000Y126000D03*
X91000Y150000D03*
X95000Y134000D03*
X82000Y176000D03*
X54000Y134000D03*
X153000Y217000D03*
X88000Y241000D03*
X119000Y210000D03*
X109000Y212000D03*
X105000Y208000D03*
X96000Y185000D03*
X91000Y179000D03*
X158000Y117000D03*
X148000Y91000D03*
X147000Y69000D03*
X179000Y80000D03*
X176000Y98000D03*
X146000Y81000D03*
X120000Y89000D03*
X168000Y104000D03*
X126000Y85000D03*
X145000Y100000D03*
X97000Y74000D03*
X159000Y174000D03*
X157000Y167000D03*
X152000Y209000D03*
X155000Y161000D03*
X131000Y257000D03*
X161000Y249000D03*
X126000Y208000D03*
X97000Y234000D03*
X80000Y220000D03*
X192000Y153000D03*
X192000Y146000D03*
X192000Y140000D03*
X192000Y133000D03*
X187000Y129000D03*
X181000Y129000D03*
X175000Y129000D03*
X101000Y134000D03*
X96000Y145000D03*
X72500Y136000D03*
G54D15*
X41000Y157500D03*
X46500Y194543D03*
X51500Y203203D03*
X56500Y211863D03*
X71429Y230429D03*
X75071Y91429D03*
X188179Y237356D03*
X180519Y243784D03*
X195840Y230928D03*
X213500Y128000D03*
X213500Y138000D03*
X213500Y178000D03*
X213500Y148000D03*
X213500Y158000D03*
X213500Y168000D03*
X213500Y208000D03*
X213500Y198000D03*
X213500Y188000D03*
G54D16*
X41000Y167500D03*
X213500Y118000D03*
G54D17*
X39959Y166459D02*
X42041Y166459D01*
X42041Y168541D01*
X39959Y168541D01*
X39959Y166459D01*D02*
X61119Y221946D02*
X60077Y220142D01*
X61881Y219101D01*
X62923Y220905D01*
X61119Y221946D01*D02*
X78500Y238973D02*
X77027Y237500D01*
X78500Y236027D01*
X79973Y237500D01*
X78500Y238973D01*D02*
X66527Y98500D02*
X68000Y97027D01*
X69473Y98500D01*
X68000Y99973D01*
X66527Y98500D01*D02*
X204967Y224628D02*
X203372Y225967D01*
X202033Y224372D01*
X203628Y223033D01*
X204967Y224628D01*D02*
X212459Y116959D02*
X214541Y116959D01*
X214541Y119041D01*
X212459Y119041D01*
X212459Y116959D01*D02*
G54D18*
X61500Y220523D03*
G54D19*
X78500Y237500D03*
X68000Y98500D03*
G54D20*
X203500Y224500D03*

M02*
