G04 Generated by Ultiboard 13.0 *
%FSLAX25Y25*%
%MOIN*%

%ADD10C,0.00001*%
%ADD11C,0.01000*%
%ADD12C,0.03000*%
%ADD13C,0.04000*%
%ADD14C,0.05000*%
%ADD15C,0.00500*%
%ADD16C,0.03937*%
%ADD17R,0.01181X0.10000*%
%ADD18C,0.00001*%
%ADD19R,0.10000X0.01181*%
%ADD20R,0.04168X0.01084*%
%ADD21C,0.01666*%
%ADD22R,0.04331X0.02362*%
%ADD23R,0.01084X0.04168*%
%ADD24C,0.06334*%
%ADD25R,0.02083X0.02083*%
%ADD26C,0.03917*%
%ADD27P,0.03889X4X15*%
%ADD28P,0.05567X4X15*%
%ADD29P,0.02945X4X15*%
%ADD30P,0.02945X4*%
%ADD31R,0.02362X0.04331*%
%ADD32P,0.03889X4X5*%
%ADD33P,0.02945X4X5*%
%ADD34R,0.02334X0.02334*%
%ADD35R,0.03937X0.02362*%


G04 ColorRGB 80FF80 for the following layer *
%LNCopper Top*%
%LPD*%
G54D10*
G36*
X167007Y255456D02*
G75*
D01*
G02X157205Y66677I-32507J-92956*
G01*
G75*
D01*
G03X158411Y68666I-1037J1989*
G01*
X158411Y68666D01*
X158411Y71000D01*
G74*
D01*
G03X156167Y73244I2244J0*
G01*
X156167Y73244D01*
X153833Y73244D01*
G75*
D01*
G03X151615Y71341I0J-2244*
G01*
X151615Y71341D01*
X148826Y71341D01*
G75*
D01*
G03X149891Y68326I-1825J-2340*
G01*
X149891Y68326D01*
X151615Y68326D01*
G75*
D01*
G03X153833Y66423I2217J340*
G01*
X153833Y66423D01*
X156103Y66423D01*
G75*
D01*
G02X97765Y71132I-21604J96076*
G01*
G75*
D01*
G03X96257Y76874I-754J2871*
G01*
X96257Y76874D01*
X95667Y77464D01*
X96084Y77464D01*
G75*
D01*
G03X98328Y79708I0J2244*
G01*
X98328Y79708D01*
X98328Y80792D01*
G74*
D01*
G03X96084Y83036I2244J0*
G01*
X96084Y83036D01*
X91916Y83036D01*
G75*
D01*
G03X89672Y80792I0J-2244*
G01*
X89672Y80792D01*
X89672Y79708D01*
G75*
D01*
G03X91916Y77464I2244J0*
G01*
X91916Y77464D01*
X92493Y77464D01*
X92493Y77003D01*
G75*
D01*
G03X92934Y75934I1507J-4*
G01*
X92934Y75934D01*
X94126Y74743D01*
G75*
D01*
G03X94407Y72555I2873J-743*
G01*
G74*
D01*
G02X38514Y140493I40092J89945*
G01*
X38514Y140493D01*
X42341Y140493D01*
X44000Y139425D01*
X45659Y140493D01*
X80452Y140493D01*
G74*
D01*
G03X79672Y138792I1464J1701*
G01*
X79672Y138792D01*
X79672Y137708D01*
G75*
D01*
G03X81810Y135467I2244J0*
G01*
X81810Y135467D01*
X85763Y131513D01*
G74*
D01*
G03X87080Y130683I2487J2487*
G01*
G75*
D01*
G03X88250Y130483I1169J3317*
G01*
X88250Y130483D01*
X93693Y130483D01*
G75*
D01*
G03X95503Y129983I1807J3016*
G01*
X95503Y129983D01*
X100500Y129983D01*
G75*
D01*
G03X104017Y133500I0J3517*
G01*
X104017Y133500D01*
X104017Y136500D01*
G74*
D01*
G03X103098Y138871I3517J0*
G01*
X103098Y138871D01*
X105120Y138871D01*
G75*
D01*
G03X105579Y138762I460J915*
G01*
X105579Y138762D01*
X115579Y138762D01*
G75*
D01*
G03X116604Y139787I0J1025*
G01*
X116604Y139787D01*
X116604Y140968D01*
G74*
D01*
G03X116525Y141362I1025J1*
G01*
G75*
D01*
G03X116604Y141756I-945J394*
G01*
X116604Y141756D01*
X116604Y142937D01*
G74*
D01*
G03X116525Y143331I1025J1*
G01*
G75*
D01*
G03X116604Y143724I-945J394*
G01*
X116604Y143724D01*
X116604Y144179D01*
X127464Y155040D01*
X127873Y155448D01*
X127889Y155464D01*
X161321Y188896D01*
X162276Y188896D01*
G74*
D01*
G03X162669Y188975I2J1025*
G01*
G75*
D01*
G03X163063Y188896I394J945*
G01*
X163063Y188896D01*
X164244Y188896D01*
G74*
D01*
G03X164638Y188975I1J1025*
G01*
G75*
D01*
G03X165032Y188896I394J945*
G01*
X165032Y188896D01*
X165049Y188896D01*
X165049Y189287D01*
G75*
D01*
G03X165269Y189921I-804J634*
G01*
X165269Y189921D01*
X165269Y192845D01*
X166195Y193770D01*
X166195Y188896D01*
X166213Y188896D01*
G75*
D01*
G03X167238Y189921I0J1025*
G01*
X167238Y189921D01*
X167238Y194348D01*
X166739Y194348D01*
G75*
D01*
G03X167007Y195207I-1239J858*
G01*
X167007Y195207D01*
X167007Y195494D01*
X167238Y195494D01*
X167238Y199921D01*
G74*
D01*
G03X167007Y200569I1025J0*
G01*
X167007Y200569D01*
X167007Y221658D01*
X169395Y219654D01*
G75*
D01*
G03X172556Y219930I1442J1719*
G01*
X172556Y219930D01*
X172601Y219984D01*
X173603Y218982D01*
G75*
D01*
G03X174202Y216333I2041J-931*
G01*
X174202Y216333D01*
X176082Y214755D01*
X176082Y214714D01*
X173118Y211750D01*
G75*
D01*
G03X174951Y209320I-1118J-2749*
G01*
X174951Y209320D01*
X178653Y213022D01*
G74*
D01*
G03X178752Y213130I1059J1070*
G01*
G75*
D01*
G03X180556Y213930I85J2242*
G01*
X180556Y213930D01*
X181253Y214761D01*
G75*
D01*
G03X180977Y217922I-1718J1443*
G01*
X180977Y217922D01*
X177784Y220601D01*
G75*
D01*
G03X175791Y221057I-1442J-1719*
G01*
X175791Y221057D01*
X173402Y223446D01*
G74*
D01*
G03X172977Y223922I1869J1241*
G01*
X172977Y223922D01*
X172666Y224183D01*
X172657Y224191D01*
G74*
D01*
G03X172443Y224370I1069J1061*
G01*
X172443Y224370D01*
X169784Y226601D01*
G75*
D01*
G03X167007Y226686I-1442J-1718*
G01*
X167007Y226686D01*
X167007Y255456D01*
D02*
G37*
%LPC*%
G36*
X127061Y89631D02*
X127061Y89631D01*
X127522Y89631D01*
X127522Y88654D01*
X126743Y87874D01*
G75*
D01*
G03X128874Y85743I-743J-2874*
G01*
X128874Y85743D01*
X130093Y86962D01*
G75*
D01*
G03X130537Y88030I-1062J1068*
G01*
X130537Y88030D01*
X130537Y89631D01*
X130998Y89631D01*
G75*
D01*
G03X132003Y90636I0J1005*
G01*
X132003Y90636D01*
X132003Y92998D01*
G74*
D01*
G03X130998Y94003I1005J0*
G01*
X130998Y94003D01*
X128379Y94003D01*
X127464Y94917D01*
X115938Y106444D01*
G75*
D01*
G03X116328Y107708I-1853J1264*
G01*
X116328Y107708D01*
X116328Y108792D01*
G74*
D01*
G03X114084Y111036I2244J0*
G01*
X114084Y111036D01*
X109916Y111036D01*
G75*
D01*
G03X107672Y108792I0J-2244*
G01*
X107672Y108792D01*
X107672Y107708D01*
G75*
D01*
G03X109916Y105464I2244J0*
G01*
X109916Y105464D01*
X112654Y105464D01*
X126056Y92062D01*
X126056Y90636D01*
G75*
D01*
G03X127061Y89631I1005J0*
G01*
D02*
G37*
G36*
X127833Y72756D02*
X127833Y72756D01*
X130167Y72756D01*
G75*
D01*
G03X132411Y75000I0J2244*
G01*
X132411Y75000D01*
X132411Y77334D01*
G74*
D01*
G03X130167Y79577I2244J1*
G01*
X130167Y79577D01*
X127833Y79577D01*
G75*
D01*
G03X125615Y77674I-1J-2243*
G01*
X125615Y77674D01*
X122708Y77674D01*
X115938Y84444D01*
G74*
D01*
G03X116110Y84743I1853J1265*
G01*
X116110Y84743D01*
X117750Y84743D01*
G74*
D01*
G03X118818Y85186I1J1507*
G01*
X118818Y85186D01*
X119680Y86049D01*
G75*
D01*
G03X117250Y87882I319J2951*
G01*
X117250Y87882D01*
X117126Y87757D01*
X116110Y87757D01*
G74*
D01*
G03X114084Y89036I2026J965*
G01*
X114084Y89036D01*
X109916Y89036D01*
G75*
D01*
G03X107672Y86792I0J-2244*
G01*
X107672Y86792D01*
X107672Y85708D01*
G75*
D01*
G03X109916Y83464I2244J0*
G01*
X109916Y83464D01*
X112654Y83464D01*
X121018Y75101D01*
G75*
D01*
G03X122084Y74659I1066J1064*
G01*
X122084Y74659D01*
X125615Y74659D01*
G75*
D01*
G03X127833Y72756I2218J341*
G01*
D02*
G37*
G36*
X127833Y64423D02*
X127833Y64423D01*
X130167Y64423D01*
G75*
D01*
G03X132411Y66666I1J2243*
G01*
X132411Y66666D01*
X132411Y69000D01*
G74*
D01*
G03X130167Y71244I2244J0*
G01*
X130167Y71244D01*
X127833Y71244D01*
G75*
D01*
G03X125615Y69341I0J-2244*
G01*
X125615Y69341D01*
X116298Y69341D01*
G75*
D01*
G03X116328Y69708I-2214J366*
G01*
X116328Y69708D01*
X116328Y70792D01*
G74*
D01*
G03X114084Y73036I2244J0*
G01*
X114084Y73036D01*
X109916Y73036D01*
G75*
D01*
G03X107672Y70792I0J-2244*
G01*
X107672Y70792D01*
X107672Y69708D01*
G75*
D01*
G03X109916Y67464I2244J0*
G01*
X109916Y67464D01*
X112654Y67464D01*
X113351Y66768D01*
G75*
D01*
G03X114418Y66326I1066J1064*
G01*
X114418Y66326D01*
X125615Y66326D01*
G75*
D01*
G03X127833Y64423I2217J340*
G01*
D02*
G37*
G36*
X126056Y110062D02*
X126056Y110062D01*
X127464Y108654D01*
X127522Y108596D01*
X127522Y101483D01*
X127061Y101483D01*
G75*
D01*
G03X126056Y100478I0J-1005*
G01*
X126056Y100478D01*
X126056Y98116D01*
G75*
D01*
G03X127061Y97111I1005J0*
G01*
X127061Y97111D01*
X130998Y97111D01*
G75*
D01*
G03X132003Y98116I0J1005*
G01*
X132003Y98116D01*
X132003Y100478D01*
G74*
D01*
G03X130998Y101483I1005J0*
G01*
X130998Y101483D01*
X130537Y101483D01*
X130537Y109220D01*
G74*
D01*
G03X130413Y109818I1507J1*
G01*
G75*
D01*
G03X131208Y109672I796J2097*
G01*
X131208Y109672D01*
X132292Y109672D01*
G75*
D01*
G03X134536Y111916I0J2244*
G01*
X134536Y111916D01*
X134536Y114654D01*
X135190Y115308D01*
G75*
D01*
G03X135633Y116376I-1064J1067*
G01*
X135633Y116376D01*
X135633Y116485D01*
X137464Y114654D01*
X137464Y111916D01*
G75*
D01*
G03X139708Y109672I2244J0*
G01*
X139708Y109672D01*
X140792Y109672D01*
G75*
D01*
G03X143036Y111916I0J2244*
G01*
X143036Y111916D01*
X143036Y116084D01*
G74*
D01*
G03X140792Y118328I2244J0*
G01*
X140792Y118328D01*
X139708Y118328D01*
G75*
D01*
G03X138444Y117938I0J-2244*
G01*
X138444Y117938D01*
X137602Y118780D01*
X137602Y126554D01*
X138654Y126554D01*
G74*
D01*
G03X139047Y126632I1J1025*
G01*
G75*
D01*
G03X139441Y126554I392J947*
G01*
X139441Y126554D01*
X140622Y126554D01*
G74*
D01*
G03X141016Y126632I2J1025*
G01*
G75*
D01*
G03X141409Y126554I392J947*
G01*
X141409Y126554D01*
X142591Y126554D01*
G74*
D01*
G03X142984Y126632I1J1025*
G01*
G75*
D01*
G03X143378Y126554I392J947*
G01*
X143378Y126554D01*
X144559Y126554D01*
G74*
D01*
G03X144953Y126632I2J1025*
G01*
G75*
D01*
G03X145346Y126554I392J947*
G01*
X145346Y126554D01*
X146528Y126554D01*
G74*
D01*
G03X146921Y126632I1J1025*
G01*
G75*
D01*
G03X147315Y126554I392J947*
G01*
X147315Y126554D01*
X148496Y126554D01*
G74*
D01*
G03X148890Y126632I2J1025*
G01*
G75*
D01*
G03X149283Y126554I392J947*
G01*
X149283Y126554D01*
X150465Y126554D01*
G74*
D01*
G03X150858Y126632I1J1025*
G01*
G75*
D01*
G03X151252Y126554I392J947*
G01*
X151252Y126554D01*
X152433Y126554D01*
G74*
D01*
G03X152827Y126632I2J1025*
G01*
G75*
D01*
G03X153220Y126554I392J947*
G01*
X153220Y126554D01*
X154402Y126554D01*
G74*
D01*
G03X154795Y126632I1J1025*
G01*
G75*
D01*
G03X155189Y126554I392J947*
G01*
X155189Y126554D01*
X156370Y126554D01*
G74*
D01*
G03X156764Y126632I2J1025*
G01*
G75*
D01*
G03X157158Y126554I392J947*
G01*
X157158Y126554D01*
X158339Y126554D01*
G74*
D01*
G03X158732Y126632I1J1025*
G01*
G75*
D01*
G03X159126Y126554I392J947*
G01*
X159126Y126554D01*
X160307Y126554D01*
G74*
D01*
G03X160701Y126632I2J1025*
G01*
G75*
D01*
G03X161095Y126554I392J947*
G01*
X161095Y126554D01*
X162276Y126554D01*
G74*
D01*
G03X162669Y126632I1J1025*
G01*
G75*
D01*
G03X163063Y126554I392J947*
G01*
X163063Y126554D01*
X164244Y126554D01*
G74*
D01*
G03X164638Y126632I2J1025*
G01*
G75*
D01*
G03X165032Y126554I392J947*
G01*
X165032Y126554D01*
X166213Y126554D01*
G75*
D01*
G03X167238Y127579I0J1025*
G01*
X167238Y127579D01*
X167238Y137579D01*
G74*
D01*
G03X166213Y138604I1025J0*
G01*
X166213Y138604D01*
X165032Y138604D01*
G75*
D01*
G03X164638Y138525I1J-1025*
G01*
G74*
D01*
G03X164244Y138604I394J945*
G01*
X164244Y138604D01*
X163063Y138604D01*
G75*
D01*
G03X162669Y138525I1J-1025*
G01*
G74*
D01*
G03X162276Y138604I394J945*
G01*
X162276Y138604D01*
X161095Y138604D01*
G75*
D01*
G03X160701Y138525I1J-1025*
G01*
G74*
D01*
G03X160307Y138604I394J945*
G01*
X160307Y138604D01*
X159126Y138604D01*
G75*
D01*
G03X158732Y138525I1J-1025*
G01*
G74*
D01*
G03X158339Y138604I394J945*
G01*
X158339Y138604D01*
X157158Y138604D01*
G75*
D01*
G03X156764Y138525I1J-1025*
G01*
G74*
D01*
G03X156370Y138604I394J945*
G01*
X156370Y138604D01*
X155189Y138604D01*
G75*
D01*
G03X154795Y138525I1J-1025*
G01*
G74*
D01*
G03X154402Y138604I394J945*
G01*
X154402Y138604D01*
X153220Y138604D01*
G75*
D01*
G03X152827Y138525I2J-1025*
G01*
G74*
D01*
G03X152433Y138604I394J945*
G01*
X152433Y138604D01*
X151252Y138604D01*
G75*
D01*
G03X150858Y138525I1J-1025*
G01*
G74*
D01*
G03X150465Y138604I394J945*
G01*
X150465Y138604D01*
X149283Y138604D01*
G75*
D01*
G03X148890Y138525I2J-1025*
G01*
G74*
D01*
G03X148496Y138604I394J945*
G01*
X148496Y138604D01*
X147315Y138604D01*
G75*
D01*
G03X146921Y138525I1J-1025*
G01*
G74*
D01*
G03X146528Y138604I394J945*
G01*
X146528Y138604D01*
X145346Y138604D01*
G75*
D01*
G03X144953Y138525I2J-1025*
G01*
G74*
D01*
G03X144559Y138604I394J945*
G01*
X144559Y138604D01*
X143378Y138604D01*
G75*
D01*
G03X142984Y138525I1J-1025*
G01*
G74*
D01*
G03X142591Y138604I394J945*
G01*
X142591Y138604D01*
X141409Y138604D01*
G75*
D01*
G03X141016Y138525I2J-1025*
G01*
G74*
D01*
G03X140622Y138604I394J945*
G01*
X140622Y138604D01*
X139441Y138604D01*
G75*
D01*
G03X139047Y138525I1J-1025*
G01*
G74*
D01*
G03X138654Y138604I394J945*
G01*
X138654Y138604D01*
X137472Y138604D01*
G75*
D01*
G03X137079Y138525I2J-1025*
G01*
G74*
D01*
G03X136685Y138604I394J945*
G01*
X136685Y138604D01*
X135504Y138604D01*
G75*
D01*
G03X135110Y138525I1J-1025*
G01*
G74*
D01*
G03X134717Y138604I394J945*
G01*
X134717Y138604D01*
X133535Y138604D01*
G75*
D01*
G03X133142Y138525I2J-1025*
G01*
G74*
D01*
G03X132748Y138604I394J945*
G01*
X132748Y138604D01*
X131567Y138604D01*
G75*
D01*
G03X131173Y138525I1J-1025*
G01*
G74*
D01*
G03X130780Y138604I394J945*
G01*
X130780Y138604D01*
X129598Y138604D01*
G75*
D01*
G03X129205Y138525I2J-1025*
G01*
G74*
D01*
G03X128811Y138604I394J945*
G01*
X128811Y138604D01*
X127630Y138604D01*
G75*
D01*
G03X127236Y138525I1J-1025*
G01*
G74*
D01*
G03X126843Y138604I394J945*
G01*
X126843Y138604D01*
X125661Y138604D01*
G75*
D01*
G03X125268Y138525I2J-1025*
G01*
G74*
D01*
G03X124874Y138604I394J945*
G01*
X124874Y138604D01*
X124856Y138604D01*
X124856Y138213D01*
G74*
D01*
G03X124636Y137579I804J634*
G01*
X124636Y137579D01*
X124636Y127579D01*
G75*
D01*
G03X124856Y126944I1025J0*
G01*
X124856Y126944D01*
X124856Y126554D01*
X124874Y126554D01*
G74*
D01*
G03X125268Y126632I2J1025*
G01*
G75*
D01*
G03X125661Y126554I392J947*
G01*
X125661Y126554D01*
X126843Y126554D01*
G74*
D01*
G03X127236Y126632I1J1025*
G01*
G75*
D01*
G03X127630Y126554I392J947*
G01*
X127630Y126554D01*
X128811Y126554D01*
G74*
D01*
G03X129205Y126632I2J1025*
G01*
G75*
D01*
G03X129598Y126554I392J947*
G01*
X129598Y126554D01*
X130780Y126554D01*
G74*
D01*
G03X131173Y126632I1J1025*
G01*
G75*
D01*
G03X131567Y126554I392J947*
G01*
X131567Y126554D01*
X132619Y126554D01*
X132619Y118304D01*
G74*
D01*
G03X132292Y118328I327J2219*
G01*
X132292Y118328D01*
X131208Y118328D01*
G75*
D01*
G03X128964Y116084I0J-2244*
G01*
X128964Y116084D01*
X128964Y111916D01*
G75*
D01*
G03X129039Y111343I2244J2*
G01*
X129039Y111343D01*
X127464Y112917D01*
X127036Y113346D01*
X127036Y116084D01*
G74*
D01*
G03X124792Y118328I2244J0*
G01*
X124792Y118328D01*
X123708Y118328D01*
G75*
D01*
G03X121464Y116084I0J-2244*
G01*
X121464Y116084D01*
X121464Y115507D01*
X116328Y115507D01*
X116328Y116292D01*
G74*
D01*
G03X114084Y118536I2244J0*
G01*
X114084Y118536D01*
X109916Y118536D01*
G75*
D01*
G03X107672Y116292I0J-2244*
G01*
X107672Y116292D01*
X107672Y115208D01*
G75*
D01*
G03X109916Y112964I2244J0*
G01*
X109916Y112964D01*
X112654Y112964D01*
X112684Y112934D01*
G74*
D01*
G03X113681Y112494I1066J1065*
G01*
G75*
D01*
G03X113750Y112493I56J1506*
G01*
X113750Y112493D01*
X121464Y112493D01*
X121464Y111916D01*
G75*
D01*
G03X123708Y109672I2244J0*
G01*
X123708Y109672D01*
X124792Y109672D01*
G74*
D01*
G03X126056Y110062I0J2244*
G01*
D02*
G37*
G36*
X167396Y155535D02*
G75*
D01*
G03X167475Y155142I1025J2*
G01*
G74*
D01*
G03X167396Y154748I945J394*
G01*
X167396Y154748D01*
X167396Y153567D01*
G75*
D01*
G03X167475Y153173I1025J1*
G01*
G74*
D01*
G03X167396Y152780I945J394*
G01*
X167396Y152780D01*
X167396Y151598D01*
G75*
D01*
G03X167475Y151205I1025J2*
G01*
G74*
D01*
G03X167396Y150811I945J394*
G01*
X167396Y150811D01*
X167396Y149630D01*
G75*
D01*
G03X167475Y149236I1025J1*
G01*
G74*
D01*
G03X167396Y148843I945J394*
G01*
X167396Y148843D01*
X167396Y147661D01*
G75*
D01*
G03X167475Y147268I1025J2*
G01*
G74*
D01*
G03X167396Y146874I945J394*
G01*
X167396Y146874D01*
X167396Y145693D01*
G75*
D01*
G03X167475Y145299I1025J1*
G01*
G74*
D01*
G03X167396Y144905I945J394*
G01*
X167396Y144905D01*
X167396Y143724D01*
G75*
D01*
G03X167475Y143331I1025J2*
G01*
G74*
D01*
G03X167396Y142937I945J394*
G01*
X167396Y142937D01*
X167396Y141756D01*
G75*
D01*
G03X167475Y141362I1025J1*
G01*
G74*
D01*
G03X167396Y140968I945J394*
G01*
X167396Y140968D01*
X167396Y139787D01*
G75*
D01*
G03X168421Y138762I1025J0*
G01*
X168421Y138762D01*
X171914Y138762D01*
X171914Y131081D01*
G75*
D01*
G03X172253Y130126I1507J-3*
G01*
G75*
D01*
G03X174929Y131968I2746J-1125*
G01*
X174929Y131968D01*
X174929Y138762D01*
X178421Y138762D01*
G75*
D01*
G03X179446Y139787I0J1025*
G01*
X179446Y139787D01*
X179446Y140839D01*
X179493Y140839D01*
X179493Y131557D01*
G75*
D01*
G03X182507Y131557I1507J-2557*
G01*
X182507Y131557D01*
X182507Y138361D01*
X184993Y135876D01*
X184993Y131187D01*
G75*
D01*
G03X188007Y131792I2007J-2187*
G01*
X188007Y131792D01*
X188007Y135361D01*
X189250Y134118D01*
G75*
D01*
G03X191680Y135951I2749J-1118*
G01*
X191680Y135951D01*
X186507Y141124D01*
X186507Y143361D01*
X189126Y140743D01*
G75*
D01*
G03X191257Y142874I2874J-743*
G01*
X191257Y142874D01*
X190881Y143250D01*
G75*
D01*
G03X191257Y148874I1117J2750*
G01*
X191257Y148874D01*
X190507Y149624D01*
X190507Y150434D01*
G75*
D01*
G03X190544Y155587I1492J2566*
G01*
X190544Y155587D01*
X188667Y157464D01*
X192084Y157464D01*
G74*
D01*
G03X192455Y157495I1J2244*
G01*
X192455Y157495D01*
X190000Y159075D01*
X188209Y157922D01*
X186780Y159352D01*
X188175Y160250D01*
X185877Y161729D01*
G74*
D01*
G03X185672Y160792I2038J937*
G01*
X185672Y160792D01*
X185672Y160459D01*
X183036Y163095D01*
G74*
D01*
G03X182014Y163538I1067J1062*
G01*
G75*
D01*
G03X181968Y163539I-56J-1506*
G01*
X181968Y163539D01*
X178880Y163539D01*
G74*
D01*
G03X178421Y163647I458J917*
G01*
X178421Y163647D01*
X168421Y163647D01*
G75*
D01*
G03X167787Y163427I1J-1025*
G01*
X167787Y163427D01*
X167396Y163427D01*
X167396Y163409D01*
G75*
D01*
G03X167475Y163016I1025J2*
G01*
G74*
D01*
G03X167396Y162622I945J394*
G01*
X167396Y162622D01*
X167396Y161441D01*
G75*
D01*
G03X167475Y161047I1025J1*
G01*
G74*
D01*
G03X167396Y160654I945J394*
G01*
X167396Y160654D01*
X167396Y159472D01*
G75*
D01*
G03X167475Y159079I1025J2*
G01*
G74*
D01*
G03X167396Y158685I945J394*
G01*
X167396Y158685D01*
X167396Y157504D01*
G75*
D01*
G03X167475Y157110I1025J1*
G01*
G74*
D01*
G03X167396Y156717I945J394*
G01*
X167396Y156717D01*
X167396Y155535D01*
D02*
G37*
G36*
X217298Y155464D02*
G75*
D01*
G03X217298Y155464I-3798J2536*
G01*
D02*
G37*
G36*
X107877Y76271D02*
X107877Y76271D01*
X110175Y77750D01*
X107877Y79229D01*
G74*
D01*
G03X107672Y78292I2038J937*
G01*
X107672Y78292D01*
X107672Y77208D01*
G75*
D01*
G03X107877Y76271I2244J0*
G01*
D02*
G37*
G36*
X109545Y74995D02*
G75*
D01*
G03X109916Y74964I372J2212*
G01*
X109916Y74964D01*
X114084Y74964D01*
G74*
D01*
G03X114455Y74995I1J2244*
G01*
X114455Y74995D01*
X112000Y76575D01*
X109545Y74995D01*
D02*
G37*
G36*
X116123Y76271D02*
G75*
D01*
G03X116328Y77208I-2038J937*
G01*
X116328Y77208D01*
X116328Y78292D01*
G74*
D01*
G03X116123Y79229I2244J0*
G01*
X116123Y79229D01*
X113825Y77750D01*
X116123Y76271D01*
D02*
G37*
G36*
X114455Y80505D02*
G74*
D01*
G03X114084Y80536I372J2212*
G01*
X114084Y80536D01*
X109916Y80536D01*
G75*
D01*
G03X109545Y80505I1J-2244*
G01*
X109545Y80505D01*
X112000Y78925D01*
X114455Y80505D01*
D02*
G37*
G36*
X116123Y92271D02*
G75*
D01*
G03X116328Y93208I-2038J937*
G01*
X116328Y93208D01*
X116328Y94292D01*
G74*
D01*
G03X116123Y95229I2244J0*
G01*
X116123Y95229D01*
X113825Y93750D01*
X116123Y92271D01*
D02*
G37*
G36*
X109545Y90995D02*
G75*
D01*
G03X109916Y90964I372J2212*
G01*
X109916Y90964D01*
X114084Y90964D01*
G74*
D01*
G03X114455Y90995I1J2244*
G01*
X114455Y90995D01*
X112000Y92575D01*
X109545Y90995D01*
D02*
G37*
G36*
X107877Y92271D02*
X107877Y92271D01*
X110175Y93750D01*
X107877Y95229D01*
G74*
D01*
G03X107672Y94292I2038J937*
G01*
X107672Y94292D01*
X107672Y93208D01*
G75*
D01*
G03X107877Y92271I2244J0*
G01*
D02*
G37*
G36*
X114455Y96505D02*
G74*
D01*
G03X114084Y96536I372J2212*
G01*
X114084Y96536D01*
X109916Y96536D01*
G75*
D01*
G03X109545Y96505I1J-2244*
G01*
X109545Y96505D01*
X112000Y94925D01*
X114455Y96505D01*
D02*
G37*
G36*
X77054Y87315D02*
X77054Y87315D01*
X77684Y86684D01*
G74*
D01*
G03X78194Y86349I1065J1066*
G01*
G75*
D01*
G03X78750Y86243I555J1401*
G01*
X78750Y86243D01*
X89890Y86243D01*
G75*
D01*
G03X91916Y84964I2026J965*
G01*
X91916Y84964D01*
X96084Y84964D01*
G75*
D01*
G03X98328Y87208I0J2244*
G01*
X98328Y87208D01*
X98328Y88292D01*
G74*
D01*
G03X96084Y90536I2244J0*
G01*
X96084Y90536D01*
X91916Y90536D01*
G75*
D01*
G03X89890Y89257I0J-2244*
G01*
X89890Y89257D01*
X79374Y89257D01*
X79185Y89446D01*
G75*
D01*
G03X77054Y87315I-4113J1982*
G01*
D02*
G37*
G36*
X65614Y102359D02*
X65614Y102359D01*
X64141Y100886D01*
G75*
D01*
G03X64141Y96114I2386J-2386*
G01*
X64141Y96114D01*
X65614Y94641D01*
G75*
D01*
G03X70386Y94641I2386J2386*
G01*
X70386Y94641D01*
X71859Y96114D01*
G75*
D01*
G03X71859Y100886I-2386J2386*
G01*
X71859Y100886D01*
X70386Y102359D01*
G75*
D01*
G03X65614Y102359I-2386J-2386*
G01*
D02*
G37*
G36*
X67877Y116771D02*
X67877Y116771D01*
X70175Y118250D01*
X67877Y119729D01*
G74*
D01*
G03X67672Y118792I2038J937*
G01*
X67672Y118792D01*
X67672Y117708D01*
G75*
D01*
G03X67877Y116771I2244J0*
G01*
D02*
G37*
G36*
X69545Y115495D02*
G75*
D01*
G03X69916Y115464I372J2212*
G01*
X69916Y115464D01*
X74084Y115464D01*
G74*
D01*
G03X74455Y115495I1J2244*
G01*
X74455Y115495D01*
X72000Y117075D01*
X69545Y115495D01*
D02*
G37*
G36*
X76123Y116771D02*
G75*
D01*
G03X76328Y117708I-2038J937*
G01*
X76328Y117708D01*
X76328Y118792D01*
G74*
D01*
G03X76123Y119729I2244J0*
G01*
X76123Y119729D01*
X73825Y118250D01*
X76123Y116771D01*
D02*
G37*
G36*
X74455Y121005D02*
G74*
D01*
G03X74084Y121036I372J2212*
G01*
X74084Y121036D01*
X69916Y121036D01*
G75*
D01*
G03X69545Y121005I1J-2244*
G01*
X69545Y121005D01*
X72000Y119425D01*
X74455Y121005D01*
D02*
G37*
G36*
X77877Y116771D02*
X77877Y116771D01*
X80175Y118250D01*
X77877Y119729D01*
G74*
D01*
G03X77672Y118792I2038J937*
G01*
X77672Y118792D01*
X77672Y117708D01*
G75*
D01*
G03X77877Y116771I2244J0*
G01*
D02*
G37*
G36*
X79545Y115495D02*
G75*
D01*
G03X79916Y115464I372J2212*
G01*
X79916Y115464D01*
X84084Y115464D01*
G74*
D01*
G03X84455Y115495I1J2244*
G01*
X84455Y115495D01*
X82000Y117075D01*
X79545Y115495D01*
D02*
G37*
G36*
X86123Y116771D02*
G75*
D01*
G03X86328Y117708I-2038J937*
G01*
X86328Y117708D01*
X86328Y118792D01*
G74*
D01*
G03X86123Y119729I2244J0*
G01*
X86123Y119729D01*
X83825Y118250D01*
X86123Y116771D01*
D02*
G37*
G36*
X84455Y121005D02*
G74*
D01*
G03X84084Y121036I372J2212*
G01*
X84084Y121036D01*
X79916Y121036D01*
G75*
D01*
G03X79545Y121005I1J-2244*
G01*
X79545Y121005D01*
X82000Y119425D01*
X84455Y121005D01*
D02*
G37*
G36*
X87877Y116771D02*
X87877Y116771D01*
X90175Y118250D01*
X87877Y119729D01*
G74*
D01*
G03X87672Y118792I2038J937*
G01*
X87672Y118792D01*
X87672Y117708D01*
G75*
D01*
G03X87877Y116771I2244J0*
G01*
D02*
G37*
G36*
X89545Y115495D02*
G75*
D01*
G03X89916Y115464I372J2212*
G01*
X89916Y115464D01*
X94084Y115464D01*
G74*
D01*
G03X94455Y115495I1J2244*
G01*
X94455Y115495D01*
X92000Y117075D01*
X89545Y115495D01*
D02*
G37*
G36*
X96123Y116771D02*
G75*
D01*
G03X96328Y117708I-2038J937*
G01*
X96328Y117708D01*
X96328Y118792D01*
G74*
D01*
G03X96123Y119729I2244J0*
G01*
X96123Y119729D01*
X93825Y118250D01*
X96123Y116771D01*
D02*
G37*
G36*
X94455Y121005D02*
G74*
D01*
G03X94084Y121036I372J2212*
G01*
X94084Y121036D01*
X89916Y121036D01*
G75*
D01*
G03X89545Y121005I1J-2244*
G01*
X89545Y121005D01*
X92000Y119425D01*
X94455Y121005D01*
D02*
G37*
G36*
X77890Y124243D02*
G75*
D01*
G03X79916Y122964I2026J965*
G01*
X79916Y122964D01*
X84084Y122964D01*
G75*
D01*
G03X86328Y125208I0J2244*
G01*
X86328Y125208D01*
X86328Y126292D01*
G74*
D01*
G03X84084Y128536I2244J0*
G01*
X84084Y128536D01*
X79916Y128536D01*
G75*
D01*
G03X77890Y127257I0J-2244*
G01*
X77890Y127257D01*
X76110Y127257D01*
G74*
D01*
G03X74084Y128536I2026J965*
G01*
X74084Y128536D01*
X69916Y128536D01*
G75*
D01*
G03X67890Y127257I0J-2244*
G01*
X67890Y127257D01*
X64689Y127257D01*
G75*
D01*
G03X64393Y124243I-2688J-1258*
G01*
X64393Y124243D01*
X67890Y124243D01*
G75*
D01*
G03X69916Y122964I2026J965*
G01*
X69916Y122964D01*
X74084Y122964D01*
G74*
D01*
G03X76110Y124243I0J2244*
G01*
X76110Y124243D01*
X77890Y124243D01*
D02*
G37*
G36*
X118951Y138213D02*
G74*
D01*
G03X118731Y137579I804J634*
G01*
X118731Y137579D01*
X118731Y127579D01*
G75*
D01*
G03X118839Y127120I1025J-1*
G01*
X118839Y127120D01*
X118839Y126971D01*
X116222Y124354D01*
X96159Y124354D01*
G75*
D01*
G03X96328Y125208I-2074J854*
G01*
X96328Y125208D01*
X96328Y126292D01*
G74*
D01*
G03X94084Y128536I2244J0*
G01*
X94084Y128536D01*
X89916Y128536D01*
G75*
D01*
G03X87672Y126292I0J-2244*
G01*
X87672Y126292D01*
X87672Y125208D01*
G75*
D01*
G03X89916Y122964I2244J0*
G01*
X89916Y122964D01*
X92654Y122964D01*
X93838Y121781D01*
G74*
D01*
G03X94679Y121356I1066J1064*
G01*
G75*
D01*
G03X94904Y121339I226J1489*
G01*
X94904Y121339D01*
X116846Y121339D01*
G75*
D01*
G03X116919Y121341I-5J1507*
G01*
G74*
D01*
G03X117914Y121783I73J1504*
G01*
X117914Y121783D01*
X121410Y125279D01*
G75*
D01*
G03X121854Y126346I-1062J1068*
G01*
X121854Y126346D01*
X121854Y126554D01*
X122905Y126554D01*
G74*
D01*
G03X123299Y126632I2J1025*
G01*
G75*
D01*
G03X123693Y126554I392J947*
G01*
X123693Y126554D01*
X123711Y126554D01*
X123711Y126944D01*
G75*
D01*
G03X123930Y127579I-807J634*
G01*
X123930Y127579D01*
X123930Y137579D01*
G74*
D01*
G03X123711Y138213I1025J1*
G01*
X123711Y138213D01*
X123711Y138604D01*
X123693Y138604D01*
G75*
D01*
G03X123299Y138525I1J-1025*
G01*
G74*
D01*
G03X122905Y138604I394J945*
G01*
X122905Y138604D01*
X121724Y138604D01*
G75*
D01*
G03X121331Y138525I2J-1025*
G01*
G74*
D01*
G03X120937Y138604I394J945*
G01*
X120937Y138604D01*
X119756Y138604D01*
G75*
D01*
G03X119362Y138525I1J-1025*
G01*
G74*
D01*
G03X118968Y138604I394J945*
G01*
X118968Y138604D01*
X118951Y138604D01*
X118951Y138213D01*
D02*
G37*
G36*
X117787Y126554D02*
X117787Y126554D01*
X117805Y126554D01*
X117805Y132006D01*
X116762Y132006D01*
X116762Y127579D01*
G75*
D01*
G03X117787Y126554I1025J0*
G01*
D02*
G37*
G36*
X52819Y134000D02*
G75*
D01*
G03X52819Y134000I1181J0*
G01*
D02*
G37*
G36*
X56776Y132947D02*
X56776Y132947D01*
X55053Y132947D01*
X55053Y131224D01*
G74*
D01*
G03X56776Y132947I1053J2776*
G01*
D02*
G37*
G36*
X52947Y131224D02*
X52947Y131224D01*
X52947Y132947D01*
X51224Y132947D01*
G74*
D01*
G03X52947Y131224I2776J1053*
G01*
D02*
G37*
G36*
X55053Y136776D02*
X55053Y136776D01*
X55053Y135053D01*
X56776Y135053D01*
G74*
D01*
G03X55053Y136776I2776J1053*
G01*
D02*
G37*
G36*
X51224Y135053D02*
X51224Y135053D01*
X52947Y135053D01*
X52947Y136776D01*
G74*
D01*
G03X51224Y135053I1053J2776*
G01*
D02*
G37*
G36*
X69531Y136000D02*
G75*
D01*
G03X69531Y136000I2969J0*
G01*
D02*
G37*
G36*
X117787Y138604D02*
G75*
D01*
G03X116762Y137579I0J-1025*
G01*
X116762Y137579D01*
X116762Y133152D01*
X117805Y133152D01*
X117805Y138604D01*
X117787Y138604D01*
D02*
G37*
G36*
X48123Y136771D02*
G75*
D01*
G03X48328Y137708I-2038J937*
G01*
X48328Y137708D01*
X48328Y138792D01*
G74*
D01*
G03X48123Y139729I2244J0*
G01*
X48123Y139729D01*
X45825Y138250D01*
X48123Y136771D01*
D02*
G37*
G36*
X41545Y135495D02*
G75*
D01*
G03X41916Y135464I372J2212*
G01*
X41916Y135464D01*
X46084Y135464D01*
G74*
D01*
G03X46455Y135495I1J2244*
G01*
X46455Y135495D01*
X44000Y137075D01*
X41545Y135495D01*
D02*
G37*
G36*
X39877Y136771D02*
X39877Y136771D01*
X42175Y138250D01*
X39877Y139729D01*
G74*
D01*
G03X39672Y138792I2038J937*
G01*
X39672Y138792D01*
X39672Y137708D01*
G75*
D01*
G03X39877Y136771I2244J0*
G01*
D02*
G37*
G36*
X208933Y148000D02*
G75*
D01*
G03X208933Y148000I4567J0*
G01*
D02*
G37*
G36*
X208933Y138000D02*
G75*
D01*
G03X208933Y138000I4567J0*
G01*
D02*
G37*
G36*
X212458Y113584D02*
X212458Y113584D01*
X214542Y113584D01*
G75*
D01*
G03X217916Y116959I-1J3375*
G01*
X217916Y116959D01*
X217916Y119042D01*
G74*
D01*
G03X214542Y122416I3374J0*
G01*
X214542Y122416D01*
X212458Y122416D01*
G75*
D01*
G03X209084Y119042I0J-3374*
G01*
X209084Y119042D01*
X209084Y116959D01*
G75*
D01*
G03X212458Y113584I3374J-1*
G01*
D02*
G37*
G36*
X190455Y112505D02*
G74*
D01*
G03X190084Y112536I372J2212*
G01*
X190084Y112536D01*
X185916Y112536D01*
G75*
D01*
G03X185545Y112505I1J-2244*
G01*
X185545Y112505D01*
X188000Y110925D01*
X190455Y112505D01*
D02*
G37*
G36*
X192123Y108271D02*
G75*
D01*
G03X192328Y109208I-2038J937*
G01*
X192328Y109208D01*
X192328Y110292D01*
G74*
D01*
G03X192123Y111229I2244J0*
G01*
X192123Y111229D01*
X189825Y109750D01*
X192123Y108271D01*
D02*
G37*
G36*
X185545Y106995D02*
G75*
D01*
G03X185916Y106964I372J2212*
G01*
X185916Y106964D01*
X190084Y106964D01*
G74*
D01*
G03X190455Y106995I1J2244*
G01*
X190455Y106995D01*
X188000Y108575D01*
X185545Y106995D01*
D02*
G37*
G36*
X183877Y108271D02*
X183877Y108271D01*
X186175Y109750D01*
X183877Y111229D01*
G74*
D01*
G03X183672Y110292I2038J937*
G01*
X183672Y110292D01*
X183672Y109208D01*
G75*
D01*
G03X183877Y108271I2244J0*
G01*
D02*
G37*
G36*
X178874Y98743D02*
X178874Y98743D01*
X180874Y100743D01*
X183890Y100743D01*
G75*
D01*
G03X185916Y99464I2026J965*
G01*
X185916Y99464D01*
X190084Y99464D01*
G75*
D01*
G03X192328Y101708I0J2244*
G01*
X192328Y101708D01*
X192328Y102792D01*
G74*
D01*
G03X190084Y105036I2244J0*
G01*
X190084Y105036D01*
X185916Y105036D01*
G75*
D01*
G03X183890Y103757I0J-2244*
G01*
X183890Y103757D01*
X180250Y103757D01*
G75*
D01*
G03X179749Y103671I1J-1507*
G01*
G74*
D01*
G03X179184Y103316I499J1421*
G01*
X179184Y103316D01*
X176743Y100874D01*
G75*
D01*
G03X178874Y98743I-743J-2874*
G01*
D02*
G37*
G36*
X190455Y96505D02*
G74*
D01*
G03X190084Y96536I372J2212*
G01*
X190084Y96536D01*
X185916Y96536D01*
G75*
D01*
G03X185545Y96505I1J-2244*
G01*
X185545Y96505D01*
X188000Y94925D01*
X190455Y96505D01*
D02*
G37*
G36*
X192123Y92271D02*
G75*
D01*
G03X192328Y93208I-2038J937*
G01*
X192328Y93208D01*
X192328Y94292D01*
G74*
D01*
G03X192123Y95229I2244J0*
G01*
X192123Y95229D01*
X189825Y93750D01*
X192123Y92271D01*
D02*
G37*
G36*
X185545Y90995D02*
G75*
D01*
G03X185916Y90964I372J2212*
G01*
X185916Y90964D01*
X190084Y90964D01*
G74*
D01*
G03X190455Y90995I1J2244*
G01*
X190455Y90995D01*
X188000Y92575D01*
X185545Y90995D01*
D02*
G37*
G36*
X183877Y92271D02*
X183877Y92271D01*
X186175Y93750D01*
X183877Y95229D01*
G74*
D01*
G03X183672Y94292I2038J937*
G01*
X183672Y94292D01*
X183672Y93208D01*
G75*
D01*
G03X183877Y92271I2244J0*
G01*
D02*
G37*
G36*
X150874Y91743D02*
X150874Y91743D01*
X151441Y92310D01*
X152111Y92310D01*
G75*
D01*
G03X153061Y91631I950J325*
G01*
X153061Y91631D01*
X156998Y91631D01*
G75*
D01*
G03X158003Y92636I0J1005*
G01*
X158003Y92636D01*
X158003Y94998D01*
G74*
D01*
G03X156998Y96003I1005J0*
G01*
X156998Y96003D01*
X153061Y96003D01*
G75*
D01*
G03X152111Y95324I1J-1005*
G01*
X152111Y95324D01*
X150817Y95324D01*
G75*
D01*
G03X150456Y95280I0J-1507*
G01*
G74*
D01*
G03X149751Y94883I359J1463*
G01*
X149751Y94883D01*
X148743Y93874D01*
G75*
D01*
G03X150874Y91743I-743J-2874*
G01*
D02*
G37*
G36*
X179124Y82966D02*
G75*
D01*
G03X181966Y80124I-123J-2965*
G01*
X181966Y80124D01*
X185373Y83531D01*
G75*
D01*
G03X185916Y83464I544J2176*
G01*
X185916Y83464D01*
X190084Y83464D01*
G75*
D01*
G03X192328Y85708I0J2244*
G01*
X192328Y85708D01*
X192328Y86792D01*
G74*
D01*
G03X190084Y89036I2244J0*
G01*
X190084Y89036D01*
X185916Y89036D01*
G75*
D01*
G03X183839Y87640I1J-2244*
G01*
G74*
D01*
G03X183579Y87421I1160J1641*
G01*
X183579Y87421D01*
X179124Y82966D01*
D02*
G37*
G36*
X148951Y80680D02*
G75*
D01*
G03X147118Y78250I-2951J319*
G01*
X147118Y78250D01*
X148268Y77101D01*
G74*
D01*
G03X149202Y76665I1066J1064*
G01*
G75*
D01*
G03X149333Y76659I134J1501*
G01*
X149333Y76659D01*
X151615Y76659D01*
G75*
D01*
G03X153833Y74756I2218J341*
G01*
X153833Y74756D01*
X156167Y74756D01*
G75*
D01*
G03X158411Y77000I0J2244*
G01*
X158411Y77000D01*
X158411Y79334D01*
G74*
D01*
G03X156167Y81577I2244J1*
G01*
X156167Y81577D01*
X153833Y81577D01*
G75*
D01*
G03X151615Y79674I-1J-2243*
G01*
X151615Y79674D01*
X149958Y79674D01*
X148951Y80680D01*
D02*
G37*
G36*
X156093Y107788D02*
X156093Y107788D01*
X150536Y113346D01*
X150536Y116084D01*
G74*
D01*
G03X148292Y118328I2244J0*
G01*
X148292Y118328D01*
X147208Y118328D01*
G75*
D01*
G03X144964Y116084I0J-2244*
G01*
X144964Y116084D01*
X144964Y111916D01*
G75*
D01*
G03X147208Y109672I2244J0*
G01*
X147208Y109672D01*
X148292Y109672D01*
G74*
D01*
G03X149556Y110062I0J2244*
G01*
X149556Y110062D01*
X153522Y106096D01*
X153522Y103483D01*
X153061Y103483D01*
G75*
D01*
G03X152056Y102478I0J-1005*
G01*
X152056Y102478D01*
X152056Y100116D01*
G75*
D01*
G03X153061Y99111I1005J0*
G01*
X153061Y99111D01*
X156998Y99111D01*
G75*
D01*
G03X158003Y100116I0J1005*
G01*
X158003Y100116D01*
X158003Y100132D01*
G74*
D01*
G03X158115Y100234I957J1164*
G01*
X158115Y100234D01*
X167346Y109464D01*
X170084Y109464D01*
G75*
D01*
G03X172328Y111708I0J2244*
G01*
X172328Y111708D01*
X172328Y112792D01*
G74*
D01*
G03X170084Y115036I2244J0*
G01*
X170084Y115036D01*
X165916Y115036D01*
G75*
D01*
G03X163672Y112792I0J-2244*
G01*
X163672Y112792D01*
X163672Y111708D01*
G75*
D01*
G03X164062Y110444I2244J0*
G01*
X164062Y110444D01*
X157097Y103478D01*
G74*
D01*
G03X156998Y103483I100J999*
G01*
X156998Y103483D01*
X156537Y103483D01*
X156537Y106720D01*
G74*
D01*
G03X156093Y107788I1507J0*
G01*
D02*
G37*
G36*
X163890Y118243D02*
G75*
D01*
G03X165916Y116964I2026J965*
G01*
X165916Y116964D01*
X170084Y116964D01*
G75*
D01*
G03X172328Y119208I0J2244*
G01*
X172328Y119208D01*
X172328Y120292D01*
G74*
D01*
G03X170084Y122536I2244J0*
G01*
X170084Y122536D01*
X165916Y122536D01*
G75*
D01*
G03X163890Y121257I0J-2244*
G01*
X163890Y121257D01*
X160250Y121257D01*
G75*
D01*
G03X159856Y121205I-2J-1507*
G01*
G74*
D01*
G03X159184Y120816I394J1455*
G01*
X159184Y120816D01*
X158320Y119951D01*
G75*
D01*
G03X160750Y118118I-319J-2951*
G01*
X160750Y118118D01*
X160874Y118243D01*
X163890Y118243D01*
D02*
G37*
G36*
X163493Y77385D02*
G74*
D01*
G03X161589Y75167I339J2217*
G01*
X161589Y75167D01*
X161589Y72833D01*
G75*
D01*
G03X163833Y70589I2244J0*
G01*
X163833Y70589D01*
X166167Y70589D01*
G75*
D01*
G03X168411Y72833I0J2244*
G01*
X168411Y72833D01*
X168411Y75167D01*
G74*
D01*
G03X166507Y77385I2244J0*
G01*
X166507Y77385D01*
X166507Y95480D01*
G75*
D01*
G03X167058Y96376I-453J896*
G01*
X167058Y96376D01*
X167058Y98738D01*
G74*
D01*
G03X166334Y99703I1005J0*
G01*
X166334Y99703D01*
X167680Y101049D01*
G75*
D01*
G03X165250Y102882I319J2951*
G01*
X165250Y102882D01*
X163019Y100650D01*
G74*
D01*
G03X162586Y99743I1065J1065*
G01*
X162586Y99743D01*
X162116Y99743D01*
G75*
D01*
G03X161111Y98738I0J-1005*
G01*
X161111Y98738D01*
X161111Y96376D01*
G75*
D01*
G03X162116Y95371I1005J0*
G01*
X162116Y95371D01*
X163493Y95371D01*
X163493Y77385D01*
D02*
G37*
G36*
X142737Y98078D02*
G75*
D01*
G03X142441Y101505I2263J1922*
G01*
G74*
D01*
G03X141462Y101066I87J1505*
G01*
X141462Y101066D01*
X138139Y97743D01*
X136116Y97743D01*
G75*
D01*
G03X135111Y96738I0J-1005*
G01*
X135111Y96738D01*
X135111Y94376D01*
G75*
D01*
G03X136116Y93371I1005J0*
G01*
X136116Y93371D01*
X136577Y93371D01*
X136577Y75027D01*
G74*
D01*
G03X135589Y73167I1256J1860*
G01*
X135589Y73167D01*
X135589Y70833D01*
G75*
D01*
G03X137833Y68589I2244J0*
G01*
X137833Y68589D01*
X140167Y68589D01*
G75*
D01*
G03X142411Y70833I0J2244*
G01*
X142411Y70833D01*
X142411Y73167D01*
G74*
D01*
G03X140167Y75411I2244J0*
G01*
X140167Y75411D01*
X139592Y75411D01*
X139592Y93371D01*
X140053Y93371D01*
G75*
D01*
G03X141058Y94376I0J1005*
G01*
X141058Y94376D01*
X141058Y96399D01*
X142737Y98078D01*
D02*
G37*
G36*
X208933Y128000D02*
G75*
D01*
G03X208933Y128000I4567J0*
G01*
D02*
G37*
G36*
X201993Y220081D02*
X201993Y220081D01*
X201993Y212841D01*
X200728Y211576D01*
G75*
D01*
G03X198078Y210977I-931J-2042*
G01*
X198078Y210977D01*
X195399Y207784D01*
G75*
D01*
G03X195676Y204623I1719J-1442*
G01*
X195676Y204623D01*
X196506Y203926D01*
G75*
D01*
G03X199667Y204202I1443J1718*
G01*
X199667Y204202D01*
X202346Y207395D01*
G75*
D01*
G03X202803Y209388I-1719J1443*
G01*
X202803Y209388D01*
X204564Y211149D01*
G75*
D01*
G03X205007Y212217I-1064J1067*
G01*
X205007Y212217D01*
X205007Y219953D01*
G74*
D01*
G03X206214Y220863I1376J3081*
G01*
X206214Y220863D01*
X207553Y222459D01*
G75*
D01*
G03X207137Y227214I-2585J2170*
G01*
X207137Y227214D01*
X205541Y228553D01*
G75*
D01*
G03X200786Y228137I-2170J-2585*
G01*
X200786Y228137D01*
X199447Y226541D01*
G75*
D01*
G03X199863Y221786I2585J-2170*
G01*
X199863Y221786D01*
X201459Y220447D01*
G74*
D01*
G03X201993Y220081I2166J2588*
G01*
D02*
G37*
G36*
X194812Y210084D02*
X194812Y210084D01*
X195711Y211155D01*
X194700Y211091D01*
X194812Y210084D01*
D02*
G37*
G36*
X200110Y229308D02*
X200110Y229308D01*
X197459Y229308D01*
X197459Y226658D01*
G74*
D01*
G03X200110Y229308I1618J4270*
G01*
D02*
G37*
G36*
X194090Y230928D02*
G75*
D01*
G03X194090Y230928I1750J0*
G01*
D02*
G37*
G36*
X194220Y226658D02*
X194220Y226658D01*
X194220Y229308D01*
X191569Y229308D01*
G74*
D01*
G03X194220Y226658I4270J1620*
G01*
D02*
G37*
G36*
X191569Y232547D02*
X191569Y232547D01*
X194220Y232547D01*
X194220Y235198D01*
G74*
D01*
G03X191569Y232547I1619J4270*
G01*
D02*
G37*
G36*
X189243Y227573D02*
G75*
D01*
G03X189686Y228641I-1064J1067*
G01*
X189686Y228641D01*
X189686Y233045D01*
G75*
D01*
G03X186672Y233045I-1507J4310*
G01*
X186672Y233045D01*
X186672Y229266D01*
X183229Y225823D01*
X182605Y226346D01*
G75*
D01*
G03X179444Y226070I-1442J-1719*
G01*
X179444Y226070D01*
X178747Y225239D01*
G75*
D01*
G03X179023Y222078I1718J-1443*
G01*
X179023Y222078D01*
X182216Y219399D01*
G75*
D01*
G03X185377Y219676I1442J1718*
G01*
X185377Y219676D01*
X186074Y220506D01*
G75*
D01*
G03X185798Y223667I-1718J1443*
G01*
X185798Y223667D01*
X185547Y223878D01*
X189243Y227573D01*
D02*
G37*
G36*
X181582Y233913D02*
G75*
D01*
G03X182026Y234981I-1062J1068*
G01*
X182026Y234981D01*
X182026Y239473D01*
G75*
D01*
G03X179011Y239473I-1507J4310*
G01*
X179011Y239473D01*
X179011Y235605D01*
X175229Y231823D01*
X174605Y232346D01*
G75*
D01*
G03X171444Y232070I-1442J-1719*
G01*
X171444Y232070D01*
X170747Y231239D01*
G75*
D01*
G03X171023Y228078I1718J-1443*
G01*
X171023Y228078D01*
X174216Y225399D01*
G75*
D01*
G03X177377Y225676I1442J1719*
G01*
X177377Y225676D01*
X178074Y226506D01*
G75*
D01*
G03X177798Y229667I-1718J1443*
G01*
X177798Y229667D01*
X177547Y229878D01*
X181582Y233913D01*
D02*
G37*
G36*
X197459Y235198D02*
X197459Y235198D01*
X197459Y232547D01*
X200110Y232547D01*
G74*
D01*
G03X197459Y235198I4270J1619*
G01*
D02*
G37*
G36*
X208933Y208000D02*
G75*
D01*
G03X208933Y208000I4567J0*
G01*
D02*
G37*
G36*
X194089Y216599D02*
X194089Y216599D01*
X194387Y213912D01*
X197085Y214085D01*
G74*
D01*
G03X196324Y215377I2203J427*
G01*
X196324Y215377D01*
X195494Y216074D01*
G74*
D01*
G03X194089Y216599I1442J1718*
G01*
D02*
G37*
G36*
X191443Y214737D02*
X191443Y214737D01*
X190544Y213666D01*
X191554Y213730D01*
X191443Y214737D01*
D02*
G37*
G36*
X167475Y186638D02*
G74*
D01*
G03X167396Y186244I945J394*
G01*
X167396Y186244D01*
X167396Y185063D01*
G75*
D01*
G03X167475Y184669I1025J1*
G01*
G74*
D01*
G03X167396Y184276I945J394*
G01*
X167396Y184276D01*
X167396Y183095D01*
G75*
D01*
G03X167475Y182701I1025J1*
G01*
G74*
D01*
G03X167396Y182307I945J394*
G01*
X167396Y182307D01*
X167396Y181126D01*
G75*
D01*
G03X167475Y180732I1025J1*
G01*
G74*
D01*
G03X167396Y180339I945J394*
G01*
X167396Y180339D01*
X167396Y179158D01*
G75*
D01*
G03X167475Y178764I1025J1*
G01*
G74*
D01*
G03X167396Y178370I945J394*
G01*
X167396Y178370D01*
X167396Y177189D01*
G75*
D01*
G03X167475Y176795I1025J1*
G01*
G74*
D01*
G03X167396Y176402I945J394*
G01*
X167396Y176402D01*
X167396Y175220D01*
G75*
D01*
G03X167475Y174827I1025J2*
G01*
G74*
D01*
G03X167396Y174433I945J394*
G01*
X167396Y174433D01*
X167396Y173252D01*
G75*
D01*
G03X167475Y172858I1025J1*
G01*
G74*
D01*
G03X167396Y172465I945J394*
G01*
X167396Y172465D01*
X167396Y171413D01*
X164219Y171413D01*
X161951Y173680D01*
G75*
D01*
G03X160118Y171250I-2951J319*
G01*
X160118Y171250D01*
X161924Y169444D01*
X158685Y169444D01*
G75*
D01*
G03X159913Y166430I-1685J-2444*
G01*
X159913Y166430D01*
X162798Y166430D01*
X158876Y162507D01*
X157557Y162507D01*
G75*
D01*
G03X157557Y159493I-2557J-1507*
G01*
X157557Y159493D01*
X159499Y159493D01*
G75*
D01*
G03X159718Y159509I0J1507*
G01*
G74*
D01*
G03X160568Y159936I216J1490*
G01*
X160568Y159936D01*
X165093Y164461D01*
X167963Y164461D01*
G75*
D01*
G03X168421Y164353I458J917*
G01*
X168421Y164353D01*
X178421Y164353D01*
G74*
D01*
G03X178880Y164461I1J1025*
G01*
X178880Y164461D01*
X188219Y164461D01*
G74*
D01*
G03X189286Y164905I2J1508*
G01*
X189286Y164905D01*
X189346Y164964D01*
X192084Y164964D01*
G74*
D01*
G03X194110Y166243I0J2244*
G01*
X194110Y166243D01*
X195890Y166243D01*
G75*
D01*
G03X197916Y164964I2026J965*
G01*
X197916Y164964D01*
X202084Y164964D01*
G75*
D01*
G03X204328Y167208I0J2244*
G01*
X204328Y167208D01*
X204328Y168292D01*
G74*
D01*
G03X202084Y170536I2244J0*
G01*
X202084Y170536D01*
X197916Y170536D01*
G75*
D01*
G03X195890Y169257I0J-2244*
G01*
X195890Y169257D01*
X194110Y169257D01*
G74*
D01*
G03X192084Y170536I2026J965*
G01*
X192084Y170536D01*
X187916Y170536D01*
G75*
D01*
G03X185672Y168292I0J-2244*
G01*
X185672Y168292D01*
X185672Y167476D01*
X179446Y167476D01*
X179446Y168528D01*
G74*
D01*
G03X179368Y168921I1025J1*
G01*
G75*
D01*
G03X179446Y169315I-947J392*
G01*
X179446Y169315D01*
X179446Y170496D01*
G74*
D01*
G03X179368Y170890I1025J2*
G01*
G75*
D01*
G03X179446Y171283I-947J392*
G01*
X179446Y171283D01*
X179446Y172465D01*
G74*
D01*
G03X179368Y172858I1025J1*
G01*
G75*
D01*
G03X179446Y173252I-947J392*
G01*
X179446Y173252D01*
X179446Y174433D01*
G74*
D01*
G03X179368Y174827I1025J2*
G01*
G75*
D01*
G03X179446Y175220I-947J392*
G01*
X179446Y175220D01*
X179446Y176402D01*
G74*
D01*
G03X179368Y176795I1025J1*
G01*
G75*
D01*
G03X179446Y177189I-947J392*
G01*
X179446Y177189D01*
X179446Y178370D01*
G74*
D01*
G03X179368Y178764I1025J2*
G01*
G75*
D01*
G03X179446Y179158I-947J392*
G01*
X179446Y179158D01*
X179446Y180339D01*
G74*
D01*
G03X179368Y180732I1025J1*
G01*
G75*
D01*
G03X179446Y181126I-947J392*
G01*
X179446Y181126D01*
X179446Y182307D01*
G74*
D01*
G03X179368Y182701I1025J2*
G01*
G75*
D01*
G03X179446Y183095I-947J392*
G01*
X179446Y183095D01*
X179446Y184276D01*
G74*
D01*
G03X179368Y184669I1025J1*
G01*
G75*
D01*
G03X179446Y185063I-947J392*
G01*
X179446Y185063D01*
X179446Y186244D01*
G74*
D01*
G03X179368Y186638I1025J2*
G01*
G75*
D01*
G03X179446Y187032I-947J392*
G01*
X179446Y187032D01*
X179446Y188213D01*
G74*
D01*
G03X178421Y189238I1025J0*
G01*
X178421Y189238D01*
X168421Y189238D01*
G75*
D01*
G03X167396Y188213I0J-1025*
G01*
X167396Y188213D01*
X167396Y187032D01*
G75*
D01*
G03X167475Y186638I1025J1*
G01*
D02*
G37*
G36*
X189170Y210736D02*
G74*
D01*
G03X189930Y209444I2202J426*
G01*
X189930Y209444D01*
X190761Y208747D01*
G74*
D01*
G03X192165Y208222I1442J1718*
G01*
X192165Y208222D01*
X191867Y210909D01*
X189170Y210736D01*
D02*
G37*
G36*
X209230Y199619D02*
X209230Y199619D01*
X211881Y199619D01*
X211881Y202270D01*
G74*
D01*
G03X209230Y199619I1619J4270*
G01*
D02*
G37*
G36*
X217770Y196381D02*
X217770Y196381D01*
X215119Y196381D01*
X215119Y193730D01*
G74*
D01*
G03X217770Y196381I1619J4270*
G01*
D02*
G37*
G36*
X211881Y193730D02*
X211881Y193730D01*
X211881Y196381D01*
X209230Y196381D01*
G74*
D01*
G03X211881Y193730I4270J1619*
G01*
D02*
G37*
G36*
X211750Y198000D02*
G75*
D01*
G03X211750Y198000I1750J0*
G01*
D02*
G37*
G36*
X215119Y202270D02*
X215119Y202270D01*
X215119Y199619D01*
X217770Y199619D01*
G74*
D01*
G03X215119Y202270I4270J1619*
G01*
D02*
G37*
G36*
X208933Y188000D02*
G75*
D01*
G03X208933Y188000I4567J0*
G01*
D02*
G37*
G36*
X186500Y192500D02*
G75*
D01*
G03X186500Y192500I6500J0*
G01*
D02*
G37*
G36*
X208933Y178000D02*
G75*
D01*
G03X208933Y178000I4567J0*
G01*
D02*
G37*
G36*
X208933Y168000D02*
G75*
D01*
G03X208933Y168000I4567J0*
G01*
D02*
G37*
G36*
X202455Y163005D02*
G74*
D01*
G03X202084Y163036I372J2212*
G01*
X202084Y163036D01*
X197916Y163036D01*
G75*
D01*
G03X197545Y163005I1J-2244*
G01*
X197545Y163005D01*
X200000Y161425D01*
X202455Y163005D01*
D02*
G37*
G36*
X195877Y158771D02*
X195877Y158771D01*
X198175Y160250D01*
X195877Y161729D01*
G74*
D01*
G03X195672Y160792I2038J937*
G01*
X195672Y160792D01*
X195672Y159708D01*
G75*
D01*
G03X195877Y158771I2244J0*
G01*
D02*
G37*
G36*
X197545Y157495D02*
G75*
D01*
G03X197916Y157464I372J2212*
G01*
X197916Y157464D01*
X202084Y157464D01*
G74*
D01*
G03X202455Y157495I1J2244*
G01*
X202455Y157495D01*
X200000Y159075D01*
X197545Y157495D01*
D02*
G37*
G36*
X204123Y158771D02*
G75*
D01*
G03X204328Y159708I-2038J937*
G01*
X204328Y159708D01*
X204328Y160792D01*
G74*
D01*
G03X204123Y161729I2244J0*
G01*
X204123Y161729D01*
X201825Y160250D01*
X204123Y158771D01*
D02*
G37*
G36*
X192455Y163005D02*
G74*
D01*
G03X192084Y163036I372J2212*
G01*
X192084Y163036D01*
X187916Y163036D01*
G75*
D01*
G03X187545Y163005I1J-2244*
G01*
X187545Y163005D01*
X190000Y161425D01*
X192455Y163005D01*
D02*
G37*
G36*
X194123Y158771D02*
G75*
D01*
G03X194328Y159708I-2038J937*
G01*
X194328Y159708D01*
X194328Y160792D01*
G74*
D01*
G03X194123Y161729I2244J0*
G01*
X194123Y161729D01*
X191825Y160250D01*
X194123Y158771D01*
D02*
G37*
%LPD*%
G36*
X116604Y146874D02*
X116604Y146874D01*
X116604Y146311D01*
X125757Y155464D01*
X125757Y155464D01*
X127464Y157171D01*
X127464Y157171D01*
X132786Y162493D01*
X116604Y162493D01*
X116604Y161441D01*
G75*
D01*
G02X116525Y161047I-1025J1*
G01*
G74*
D01*
G02X116604Y160654I945J394*
G01*
X116604Y160654D01*
X116604Y160636D01*
X116213Y160636D01*
G74*
D01*
G02X115579Y160416I634J804*
G01*
X115579Y160416D01*
X105579Y160416D01*
G75*
D01*
G02X104944Y160636I0J1025*
G01*
X104944Y160636D01*
X104554Y160636D01*
X104554Y160654D01*
G74*
D01*
G02X104632Y161047I1025J1*
G01*
G75*
D01*
G02X104554Y161441I947J392*
G01*
X104554Y161441D01*
X104554Y162622D01*
G74*
D01*
G02X104632Y163016I1025J2*
G01*
G75*
D01*
G02X104554Y163409I947J392*
G01*
X104554Y163409D01*
X104554Y164591D01*
G74*
D01*
G02X104632Y164984I1025J1*
G01*
G75*
D01*
G02X104554Y165378I947J392*
G01*
X104554Y165378D01*
X104554Y165396D01*
X104944Y165396D01*
G75*
D01*
G02X105579Y165615I633J-806*
G01*
X105579Y165615D01*
X115579Y165615D01*
G74*
D01*
G02X116037Y165507I0J1024*
G01*
X116037Y165507D01*
X135800Y165507D01*
X142581Y172288D01*
X136997Y177871D01*
G75*
D01*
G02X136556Y178939I1066J1065*
G01*
X136556Y178939D01*
X136556Y188896D01*
X135504Y188896D01*
G75*
D01*
G02X135110Y188975I1J1025*
G01*
G74*
D01*
G02X134717Y188896I394J945*
G01*
X134717Y188896D01*
X133535Y188896D01*
G75*
D01*
G02X133142Y188975I2J1025*
G01*
G74*
D01*
G02X132748Y188896I394J945*
G01*
X132748Y188896D01*
X131567Y188896D01*
G75*
D01*
G02X131173Y188975I1J1025*
G01*
G74*
D01*
G02X130780Y188896I394J945*
G01*
X130780Y188896D01*
X129598Y188896D01*
G75*
D01*
G02X129205Y188975I2J1025*
G01*
G74*
D01*
G02X128811Y188896I394J945*
G01*
X128811Y188896D01*
X127630Y188896D01*
G75*
D01*
G02X127236Y188975I1J1025*
G01*
G74*
D01*
G02X126843Y188896I394J945*
G01*
X126843Y188896D01*
X125661Y188896D01*
G75*
D01*
G02X125268Y188975I2J1025*
G01*
G74*
D01*
G02X124874Y188896I394J945*
G01*
X124874Y188896D01*
X123693Y188896D01*
G75*
D01*
G02X123299Y188975I1J1025*
G01*
G74*
D01*
G02X122905Y188896I394J945*
G01*
X122905Y188896D01*
X121724Y188896D01*
G75*
D01*
G02X121331Y188975I2J1025*
G01*
G74*
D01*
G02X120937Y188896I394J945*
G01*
X120937Y188896D01*
X119756Y188896D01*
G75*
D01*
G02X119362Y188975I1J1025*
G01*
G74*
D01*
G02X118968Y188896I394J945*
G01*
X118968Y188896D01*
X117787Y188896D01*
G75*
D01*
G02X116762Y189921I0J1025*
G01*
X116762Y189921D01*
X116762Y199921D01*
G75*
D01*
G02X117787Y200946I1025J0*
G01*
X117787Y200946D01*
X118968Y200946D01*
G74*
D01*
G02X119362Y200868I2J1025*
G01*
G75*
D01*
G02X119756Y200946I392J-947*
G01*
X119756Y200946D01*
X119922Y200946D01*
X119376Y201493D01*
X110000Y201493D01*
G75*
D01*
G02X109564Y201557I-1J1507*
G01*
G74*
D01*
G02X108934Y201934I436J1443*
G01*
X108934Y201934D01*
X105743Y205126D01*
G75*
D01*
G02X106363Y210637I-742J2874*
G01*
G75*
D01*
G02X107388Y214493I2636J1363*
G01*
X107388Y214493D01*
X105624Y214493D01*
X101507Y210376D01*
X101507Y188124D01*
X104439Y185192D01*
X104554Y185192D01*
X104554Y186244D01*
G74*
D01*
G02X104632Y186638I1025J2*
G01*
G75*
D01*
G02X104554Y187032I947J392*
G01*
X104554Y187032D01*
X104554Y188213D01*
G75*
D01*
G02X105579Y189238I1025J0*
G01*
X105579Y189238D01*
X115579Y189238D01*
G74*
D01*
G02X116604Y188213I0J1025*
G01*
X116604Y188213D01*
X116604Y187032D01*
G75*
D01*
G02X116525Y186638I-1025J1*
G01*
G74*
D01*
G02X116604Y186244I945J394*
G01*
X116604Y186244D01*
X116604Y185063D01*
G75*
D01*
G02X116525Y184669I-1025J1*
G01*
G74*
D01*
G02X116604Y184276I945J394*
G01*
X116604Y184276D01*
X116604Y183095D01*
G75*
D01*
G02X116525Y182701I-1025J1*
G01*
G74*
D01*
G02X116604Y182307I945J394*
G01*
X116604Y182307D01*
X116604Y181126D01*
G75*
D01*
G02X116525Y180732I-1025J1*
G01*
G74*
D01*
G02X116604Y180339I945J394*
G01*
X116604Y180339D01*
X116604Y179158D01*
G75*
D01*
G02X116525Y178764I-1025J1*
G01*
G74*
D01*
G02X116604Y178370I945J394*
G01*
X116604Y178370D01*
X116604Y177189D01*
G75*
D01*
G02X116525Y176795I-1025J1*
G01*
G74*
D01*
G02X116604Y176402I945J394*
G01*
X116604Y176402D01*
X116604Y175220D01*
G75*
D01*
G02X116525Y174827I-1025J2*
G01*
G74*
D01*
G02X116604Y174433I945J394*
G01*
X116604Y174433D01*
X116604Y173252D01*
G75*
D01*
G02X116525Y172858I-1025J1*
G01*
G74*
D01*
G02X116604Y172465I945J394*
G01*
X116604Y172465D01*
X116604Y171283D01*
G75*
D01*
G02X116525Y170890I-1025J2*
G01*
G74*
D01*
G02X116604Y170496I945J394*
G01*
X116604Y170496D01*
X116604Y169315D01*
G75*
D01*
G02X116525Y168921I-1025J1*
G01*
G74*
D01*
G02X116604Y168528I945J394*
G01*
X116604Y168528D01*
X116604Y167346D01*
G75*
D01*
G02X116525Y166953I-1025J2*
G01*
G74*
D01*
G02X116604Y166559I945J394*
G01*
X116604Y166559D01*
X116604Y166541D01*
X116213Y166541D01*
G74*
D01*
G02X115579Y166322I633J805*
G01*
X115579Y166322D01*
X105579Y166322D01*
G75*
D01*
G02X105120Y166430I-1J1024*
G01*
X105120Y166430D01*
X104811Y166430D01*
X103938Y165556D01*
G74*
D01*
G02X104328Y164292I1853J1264*
G01*
X104328Y164292D01*
X104328Y163208D01*
G75*
D01*
G02X102084Y160964I-2244J0*
G01*
X102084Y160964D01*
X97916Y160964D01*
G75*
D01*
G02X96842Y161238I1J2244*
G01*
X96842Y161238D01*
X93158Y161238D01*
G74*
D01*
G02X92084Y160964I1074J1969*
G01*
X92084Y160964D01*
X87916Y160964D01*
G75*
D01*
G02X86842Y161238I1J2244*
G01*
X86842Y161238D01*
X83158Y161238D01*
G74*
D01*
G02X82084Y160964I1074J1969*
G01*
X82084Y160964D01*
X77916Y160964D01*
G75*
D01*
G02X76860Y161228I0J2244*
G01*
X76860Y161228D01*
X71118Y161228D01*
G75*
D01*
G02X69880Y161554I0J2512*
G01*
X69880Y161554D01*
X68953Y161554D01*
G75*
D01*
G02X67948Y162559I0J1005*
G01*
X67948Y162559D01*
X67948Y164921D01*
G74*
D01*
G02X68692Y165892I1005J0*
G01*
G74*
D01*
G02X69342Y167016I2426J653*
G01*
X69342Y167016D01*
X79148Y176822D01*
G75*
D01*
G02X82505Y173075I2852J-822*
G01*
X82505Y173075D01*
X75683Y166252D01*
X76824Y166252D01*
G75*
D01*
G02X77916Y166536I1092J-1959*
G01*
X77916Y166536D01*
X82084Y166536D01*
G74*
D01*
G02X83158Y166262I1J2244*
G01*
X83158Y166262D01*
X86842Y166262D01*
G75*
D01*
G02X87916Y166536I1074J-1969*
G01*
X87916Y166536D01*
X92084Y166536D01*
G74*
D01*
G02X93158Y166262I1J2244*
G01*
X93158Y166262D01*
X96842Y166262D01*
G75*
D01*
G02X97916Y166536I1074J-1969*
G01*
X97916Y166536D01*
X100654Y166536D01*
X103121Y169003D01*
G74*
D01*
G02X104124Y169443I1066J1066*
G01*
G75*
D01*
G02X104187Y169444I55J-1506*
G01*
X104187Y169444D01*
X104554Y169444D01*
X104554Y170496D01*
G74*
D01*
G02X104632Y170890I1025J2*
G01*
G75*
D01*
G02X104554Y171283I947J392*
G01*
X104554Y171283D01*
X104554Y172335D01*
X96157Y172335D01*
G75*
D01*
G02X95617Y172436I3J1508*
G01*
G74*
D01*
G02X95092Y172777I540J1407*
G01*
X95092Y172777D01*
X91743Y176126D01*
G75*
D01*
G02X93874Y178257I-743J2874*
G01*
X93874Y178257D01*
X96782Y175350D01*
X104554Y175350D01*
X104554Y176402D01*
G74*
D01*
G02X104632Y176795I1025J1*
G01*
G75*
D01*
G02X104554Y177189I947J392*
G01*
X104554Y177189D01*
X104554Y178370D01*
G74*
D01*
G02X104632Y178764I1025J2*
G01*
G75*
D01*
G02X104554Y179158I947J392*
G01*
X104554Y179158D01*
X104554Y180209D01*
X99283Y180209D01*
G75*
D01*
G02X98846Y180274I1J1508*
G01*
G74*
D01*
G02X98218Y180651I438J1442*
G01*
X98218Y180651D01*
X96743Y182126D01*
G75*
D01*
G02X98874Y184257I-743J2874*
G01*
X98874Y184257D01*
X99908Y183224D01*
X102145Y183224D01*
X98934Y186434D01*
G75*
D01*
G02X98493Y187504I1066J1065*
G01*
X98493Y187504D01*
X98493Y210997D01*
G75*
D01*
G02X98934Y212066I1507J4*
G01*
X98934Y212066D01*
X103934Y217066D01*
G75*
D01*
G02X105002Y217507I1065J-1066*
G01*
X105002Y217507D01*
X112500Y217507D01*
G74*
D01*
G02X113568Y217064I1J1507*
G01*
X113568Y217064D01*
X115624Y215007D01*
X115800Y215007D01*
G75*
D01*
G02X116493Y219557I2200J1993*
G01*
X116493Y219557D01*
X116493Y219626D01*
X112654Y223464D01*
X109916Y223464D01*
G75*
D01*
G02X107672Y225708I0J2244*
G01*
X107672Y225708D01*
X107672Y226792D01*
G75*
D01*
G02X109916Y229036I2244J0*
G01*
X109916Y229036D01*
X114084Y229036D01*
G74*
D01*
G02X116328Y226792I0J2244*
G01*
X116328Y226792D01*
X116328Y226293D01*
G75*
D01*
G02X121623Y226389I2672J-1292*
G01*
X121623Y226389D01*
X122074Y226389D01*
X122074Y227047D01*
G75*
D01*
G02X123079Y228052I1005J0*
G01*
X123079Y228052D01*
X125441Y228052D01*
G74*
D01*
G02X126446Y227047I0J1005*
G01*
X126446Y227047D01*
X126446Y222717D01*
G75*
D01*
G02X125441Y221712I-1005J0*
G01*
X125441Y221712D01*
X123079Y221712D01*
G75*
D01*
G02X122074Y222717I0J1005*
G01*
X122074Y222717D01*
X122074Y223375D01*
X121484Y223375D01*
G75*
D01*
G02X118255Y222126I-2484J1624*
G01*
X118255Y222126D01*
X119064Y221318D01*
G74*
D01*
G02X119507Y220250I1064J1067*
G01*
X119507Y220250D01*
X119507Y219557D01*
G74*
D01*
G02X120792Y218007I1507J2557*
G01*
X120792Y218007D01*
X122734Y218007D01*
X127464Y222738D01*
X129554Y224828D01*
X129554Y227047D01*
G75*
D01*
G02X130559Y228052I1005J0*
G01*
X130559Y228052D01*
X132921Y228052D01*
G74*
D01*
G02X133926Y227047I0J1005*
G01*
X133926Y227047D01*
X133926Y224058D01*
X135816Y225948D01*
G75*
D01*
G02X136883Y226389I1065J-1066*
G01*
X136883Y226389D01*
X138074Y226389D01*
X138074Y227047D01*
G75*
D01*
G02X139079Y228052I1005J0*
G01*
X139079Y228052D01*
X141441Y228052D01*
G74*
D01*
G02X142446Y227047I0J1005*
G01*
X142446Y227047D01*
X142446Y222717D01*
G75*
D01*
G02X141441Y221712I-1005J0*
G01*
X141441Y221712D01*
X139079Y221712D01*
G75*
D01*
G02X138074Y222717I0J1005*
G01*
X138074Y222717D01*
X138074Y223375D01*
X137506Y223375D01*
X127464Y213333D01*
X127464Y213333D01*
X126568Y212436D01*
G74*
D01*
G02X125500Y211993I1067J1064*
G01*
X125500Y211993D01*
X121200Y211993D01*
G75*
D01*
G02X121874Y209257I-2199J-1993*
G01*
X121874Y209257D01*
X123033Y208098D01*
G75*
D01*
G02X128557Y209507I2966J-97*
G01*
X128557Y209507D01*
X129499Y209507D01*
G75*
D01*
G02X129637Y209501I4J-1507*
G01*
G74*
D01*
G02X130568Y209064I136J1501*
G01*
X130568Y209064D01*
X134464Y205167D01*
X134464Y209084D01*
G74*
D01*
G02X135743Y211110I2244J0*
G01*
X135743Y211110D01*
X135743Y212890D01*
G75*
D01*
G02X134464Y214916I965J2026*
G01*
X134464Y214916D01*
X134464Y219084D01*
G75*
D01*
G02X136708Y221328I2244J0*
G01*
X136708Y221328D01*
X137792Y221328D01*
G74*
D01*
G02X140036Y219084I0J2244*
G01*
X140036Y219084D01*
X140036Y214916D01*
G75*
D01*
G02X138757Y212890I-2244J0*
G01*
X138757Y212890D01*
X138757Y211110D01*
G74*
D01*
G02X140036Y209084I965J2026*
G01*
X140036Y209084D01*
X140036Y204916D01*
G75*
D01*
G02X139961Y204343I-2244J2*
G01*
X139961Y204343D01*
X141964Y206346D01*
X141964Y209084D01*
G74*
D01*
G02X143243Y211110I2244J0*
G01*
X143243Y211110D01*
X143243Y212890D01*
G75*
D01*
G02X141964Y214916I965J2026*
G01*
X141964Y214916D01*
X141964Y219084D01*
G75*
D01*
G02X144208Y221328I2244J0*
G01*
X144208Y221328D01*
X145292Y221328D01*
G74*
D01*
G02X147536Y219084I0J2244*
G01*
X147536Y219084D01*
X147536Y214916D01*
G75*
D01*
G02X146257Y212890I-2244J0*
G01*
X146257Y212890D01*
X146257Y211110D01*
G74*
D01*
G02X147536Y209084I965J2026*
G01*
X147536Y209084D01*
X147536Y208507D01*
X149073Y208507D01*
G75*
D01*
G02X151680Y206049I2927J493*
G01*
X151680Y206049D01*
X151568Y205936D01*
G74*
D01*
G02X150660Y205501I1068J1064*
G01*
G75*
D01*
G02X150499Y205493I-155J1499*
G01*
X150499Y205493D01*
X147536Y205493D01*
X147536Y204916D01*
G75*
D01*
G02X145476Y202680I-2244J0*
G01*
X145476Y202680D01*
X145476Y200946D01*
X146528Y200946D01*
G74*
D01*
G02X146921Y200868I1J1025*
G01*
G75*
D01*
G02X147315Y200946I392J-947*
G01*
X147315Y200946D01*
X148496Y200946D01*
G74*
D01*
G02X148890Y200868I2J1025*
G01*
G75*
D01*
G02X149283Y200946I392J-947*
G01*
X149283Y200946D01*
X150465Y200946D01*
G74*
D01*
G02X150858Y200868I1J1025*
G01*
G75*
D01*
G02X151252Y200946I392J-947*
G01*
X151252Y200946D01*
X151270Y200946D01*
X151270Y200556D01*
G74*
D01*
G02X151490Y199921I805J635*
G01*
X151490Y199921D01*
X151490Y189921D01*
G75*
D01*
G02X151270Y189287I-1025J1*
G01*
X151270Y189287D01*
X151270Y188896D01*
X151252Y188896D01*
G75*
D01*
G02X150858Y188975I1J1025*
G01*
G74*
D01*
G02X150465Y188896I394J945*
G01*
X150465Y188896D01*
X149283Y188896D01*
G75*
D01*
G02X148890Y188975I2J1025*
G01*
G74*
D01*
G02X148496Y188896I394J945*
G01*
X148496Y188896D01*
X147315Y188896D01*
G75*
D01*
G02X146921Y188975I1J1025*
G01*
G74*
D01*
G02X146528Y188896I394J945*
G01*
X146528Y188896D01*
X145346Y188896D01*
G75*
D01*
G02X144953Y188975I2J1025*
G01*
G74*
D01*
G02X144559Y188896I394J945*
G01*
X144559Y188896D01*
X143378Y188896D01*
G75*
D01*
G02X142984Y188975I1J1025*
G01*
G74*
D01*
G02X142591Y188896I394J945*
G01*
X142591Y188896D01*
X141409Y188896D01*
G75*
D01*
G02X141016Y188975I2J1025*
G01*
G74*
D01*
G02X140622Y188896I394J945*
G01*
X140622Y188896D01*
X139570Y188896D01*
X139570Y179561D01*
X144712Y174419D01*
X159189Y188896D01*
X159126Y188896D01*
G75*
D01*
G02X158732Y188975I1J1025*
G01*
G74*
D01*
G02X158339Y188896I394J945*
G01*
X158339Y188896D01*
X157158Y188896D01*
G75*
D01*
G02X156764Y188975I1J1025*
G01*
G74*
D01*
G02X156370Y188896I394J945*
G01*
X156370Y188896D01*
X155189Y188896D01*
G75*
D01*
G02X154795Y188975I1J1025*
G01*
G74*
D01*
G02X154402Y188896I394J945*
G01*
X154402Y188896D01*
X153220Y188896D01*
G75*
D01*
G02X152827Y188975I2J1025*
G01*
G74*
D01*
G02X152433Y188896I394J945*
G01*
X152433Y188896D01*
X152415Y188896D01*
X152415Y189287D01*
G75*
D01*
G02X152196Y189921I805J633*
G01*
X152196Y189921D01*
X152196Y199921D01*
G74*
D01*
G02X152415Y200556I1024J2*
G01*
X152415Y200556D01*
X152415Y200946D01*
X152433Y200946D01*
G74*
D01*
G02X152827Y200868I2J1025*
G01*
G75*
D01*
G02X153220Y200946I392J-947*
G01*
X153220Y200946D01*
X154402Y200946D01*
G74*
D01*
G02X154795Y200868I1J1025*
G01*
G75*
D01*
G02X155189Y200946I392J-947*
G01*
X155189Y200946D01*
X156370Y200946D01*
G74*
D01*
G02X156764Y200868I2J1025*
G01*
G75*
D01*
G02X157158Y200946I392J-947*
G01*
X157158Y200946D01*
X158339Y200946D01*
G74*
D01*
G02X158732Y200868I1J1025*
G01*
G75*
D01*
G02X159126Y200946I392J-947*
G01*
X159126Y200946D01*
X160307Y200946D01*
G74*
D01*
G02X160701Y200868I2J1025*
G01*
G75*
D01*
G02X161095Y200946I392J-947*
G01*
X161095Y200946D01*
X162276Y200946D01*
G74*
D01*
G02X162669Y200868I1J1025*
G01*
G75*
D01*
G02X163063Y200946I392J-947*
G01*
X163063Y200946D01*
X164244Y200946D01*
G74*
D01*
G02X164638Y200868I2J1025*
G01*
G75*
D01*
G02X165032Y200946I392J-947*
G01*
X165032Y200946D01*
X165500Y200946D01*
X165500Y223392D01*
G75*
D01*
G02X165500Y224711I2145J660*
G01*
X165500Y224711D01*
X165500Y255970D01*
G75*
D01*
G03X119054Y259757I-30999J-93470*
G01*
X119054Y259757D01*
X120250Y259757D01*
G74*
D01*
G02X121318Y259314I1J1507*
G01*
X121318Y259314D01*
X125324Y255308D01*
G74*
D01*
G02X125767Y254240I1064J1067*
G01*
X125767Y254240D01*
X125767Y238234D01*
G74*
D01*
G02X126130Y238015I326J951*
G01*
G75*
D01*
G02X126819Y238288I689J-732*
G01*
X126819Y238288D01*
X127225Y238288D01*
X127225Y235893D01*
X126446Y235893D01*
X126446Y234343D01*
X127225Y234343D01*
X127225Y231948D01*
X126819Y231948D01*
G75*
D01*
G02X126130Y232221I0J1005*
G01*
G74*
D01*
G02X125441Y231948I689J732*
G01*
X125441Y231948D01*
X123079Y231948D01*
G75*
D01*
G02X122074Y232953I0J1005*
G01*
X122074Y232953D01*
X122074Y237283D01*
G74*
D01*
G02X122753Y238234I1005J0*
G01*
X122753Y238234D01*
X122753Y253616D01*
X119626Y256743D01*
X117124Y256743D01*
X116635Y256253D01*
G75*
D01*
G02X117208Y256328I575J-2168*
G01*
X117208Y256328D01*
X118292Y256328D01*
G74*
D01*
G02X119229Y256123I0J2244*
G01*
X119229Y256123D01*
X117750Y253825D01*
X116362Y255981D01*
X113036Y252654D01*
X113036Y249916D01*
G75*
D01*
G02X110792Y247672I-2244J0*
G01*
X110792Y247672D01*
X109708Y247672D01*
G75*
D01*
G02X108167Y248285I0J2244*
G01*
X108167Y248285D01*
X104536Y244654D01*
X104536Y243507D01*
X107464Y243507D01*
X107464Y244084D01*
G75*
D01*
G02X109708Y246328I2244J0*
G01*
X109708Y246328D01*
X110792Y246328D01*
G74*
D01*
G02X113036Y244084I0J2244*
G01*
X113036Y244084D01*
X113036Y239916D01*
G75*
D01*
G02X110792Y237672I-2244J0*
G01*
X110792Y237672D01*
X109708Y237672D01*
G75*
D01*
G02X107464Y239916I0J2244*
G01*
X107464Y239916D01*
X107464Y240493D01*
X104027Y240493D01*
G74*
D01*
G02X102292Y239672I1735J1422*
G01*
X102292Y239672D01*
X101208Y239672D01*
G75*
D01*
G02X98964Y241916I0J2244*
G01*
X98964Y241916D01*
X98964Y244654D01*
X96961Y246657D01*
G74*
D01*
G02X97036Y246084I2168J575*
G01*
X97036Y246084D01*
X97036Y241916D01*
G75*
D01*
G02X94792Y239672I-2244J0*
G01*
X94792Y239672D01*
X93708Y239672D01*
G75*
D01*
G02X91464Y241916I0J2244*
G01*
X91464Y241916D01*
X91464Y242333D01*
X90874Y241743D01*
G75*
D01*
G02X85250Y242119I-2874J-741*
G01*
X85250Y242119D01*
X82666Y239534D01*
G75*
D01*
G02X82359Y235114I-2692J-2034*
G01*
X82359Y235114D01*
X80886Y233641D01*
G75*
D01*
G02X76114Y233641I-2386J2386*
G01*
X76114Y233641D01*
X74641Y235114D01*
G75*
D01*
G02X74641Y239886I2386J2386*
G01*
X74641Y239886D01*
X76114Y241359D01*
G75*
D01*
G02X80534Y241666I2386J-2385*
G01*
X80534Y241666D01*
X88374Y249505D01*
G75*
D01*
G03X38181Y142000I46125J-87005*
G01*
X38181Y142000D01*
X52850Y142000D01*
X54250Y144175D01*
X55650Y142000D01*
X60040Y142000D01*
G75*
D01*
G02X58964Y143916I1167J1916*
G01*
X58964Y143916D01*
X58964Y148084D01*
G75*
D01*
G02X61208Y150328I2244J0*
G01*
X61208Y150328D01*
X62292Y150328D01*
G74*
D01*
G02X62954Y150228I0J2244*
G01*
X62954Y150228D01*
X67948Y155221D01*
X67948Y157441D01*
G75*
D01*
G02X68953Y158446I1005J0*
G01*
X68953Y158446D01*
X73283Y158446D01*
G74*
D01*
G02X74288Y157441I0J1005*
G01*
X74288Y157441D01*
X74288Y155079D01*
G75*
D01*
G02X73283Y154074I-1005J0*
G01*
X73283Y154074D01*
X71064Y154074D01*
X64536Y147546D01*
X64536Y143916D01*
G75*
D01*
G02X63460Y142000I-2244J0*
G01*
X63460Y142000D01*
X104554Y142000D01*
X104554Y142937D01*
G74*
D01*
G02X104632Y143331I1025J2*
G01*
G75*
D01*
G02X104554Y143724I947J392*
G01*
X104554Y143724D01*
X104554Y144905D01*
G74*
D01*
G02X104632Y145299I1025J2*
G01*
G75*
D01*
G02X104554Y145693I947J392*
G01*
X104554Y145693D01*
X104554Y146874D01*
G74*
D01*
G02X104632Y147268I1025J2*
G01*
G75*
D01*
G02X104554Y147661I947J392*
G01*
X104554Y147661D01*
X104554Y148843D01*
G74*
D01*
G02X104632Y149236I1025J1*
G01*
G75*
D01*
G02X104554Y149630I947J392*
G01*
X104554Y149630D01*
X104554Y150811D01*
G74*
D01*
G02X104632Y151205I1025J2*
G01*
G75*
D01*
G02X104554Y151598I947J392*
G01*
X104554Y151598D01*
X104554Y152780D01*
G74*
D01*
G02X104632Y153173I1025J1*
G01*
G75*
D01*
G02X104554Y153567I947J392*
G01*
X104554Y153567D01*
X104554Y154748D01*
G74*
D01*
G02X104632Y155142I1025J2*
G01*
G75*
D01*
G02X104554Y155535I947J392*
G01*
X104554Y155535D01*
X104554Y156717D01*
G74*
D01*
G02X104632Y157110I1025J1*
G01*
G75*
D01*
G02X104554Y157504I947J392*
G01*
X104554Y157504D01*
X104554Y158685D01*
G74*
D01*
G02X104632Y159079I1025J2*
G01*
G75*
D01*
G02X104554Y159472I947J392*
G01*
X104554Y159472D01*
X104554Y159490D01*
X104944Y159490D01*
G75*
D01*
G02X105579Y159710I635J-805*
G01*
X105579Y159710D01*
X115579Y159710D01*
G74*
D01*
G02X116213Y159490I1J1025*
G01*
X116213Y159490D01*
X116604Y159490D01*
X116604Y159472D01*
G75*
D01*
G02X116525Y159079I-1025J2*
G01*
G74*
D01*
G02X116604Y158685I945J394*
G01*
X116604Y158685D01*
X116604Y157504D01*
G75*
D01*
G02X116525Y157110I-1025J1*
G01*
G74*
D01*
G02X116604Y156717I945J394*
G01*
X116604Y156717D01*
X116604Y155535D01*
G75*
D01*
G02X116525Y155142I-1025J2*
G01*
G74*
D01*
G02X116604Y154748I945J394*
G01*
X116604Y154748D01*
X116604Y153567D01*
G75*
D01*
G02X116525Y153173I-1025J1*
G01*
G74*
D01*
G02X116604Y152780I945J394*
G01*
X116604Y152780D01*
X116604Y151598D01*
G75*
D01*
G02X116525Y151205I-1025J2*
G01*
G74*
D01*
G02X116604Y150811I945J394*
G01*
X116604Y150811D01*
X116604Y149630D01*
G75*
D01*
G02X116525Y149236I-1025J1*
G01*
G74*
D01*
G02X116604Y148843I945J394*
G01*
X116604Y148843D01*
X116604Y147661D01*
G75*
D01*
G02X116525Y147268I-1025J2*
G01*
G74*
D01*
G02X116604Y146874I945J394*
G01*
D02*
G37*
%LPC*%
G36*
X119229Y247877D02*
G74*
D01*
G02X118292Y247672I937J2038*
G01*
X118292Y247672D01*
X117208Y247672D01*
G75*
D01*
G02X116271Y247877I0J2244*
G01*
X116271Y247877D01*
X117607Y249953D01*
X117607Y249953D01*
X117750Y250175D01*
X117893Y249953D01*
X117893Y249953D01*
X119229Y247877D01*
D02*
G37*
G36*
X120536Y249916D02*
G75*
D01*
G02X120505Y249545I-2244J1*
G01*
X120505Y249545D01*
X120243Y249953D01*
X120243Y249953D01*
X118925Y252000D01*
X120505Y254455D01*
G74*
D01*
G02X120536Y254084I2212J372*
G01*
X120536Y254084D01*
X120536Y249916D01*
D02*
G37*
G36*
X114995Y249545D02*
G75*
D01*
G02X114964Y249916I2212J372*
G01*
X114964Y249916D01*
X114964Y254084D01*
G74*
D01*
G02X114995Y254455I2244J1*
G01*
X114995Y254455D01*
X116575Y252000D01*
X115257Y249953D01*
X115257Y249953D01*
X114995Y249545D01*
D02*
G37*
G36*
X147757Y249890D02*
X147757Y249890D01*
X147757Y248110D01*
G74*
D01*
G02X149036Y246084I965J2026*
G01*
X149036Y246084D01*
X149036Y241916D01*
G75*
D01*
G02X146792Y239672I-2244J0*
G01*
X146792Y239672D01*
X145708Y239672D01*
G75*
D01*
G02X143464Y241916I0J2244*
G01*
X143464Y241916D01*
X143464Y242493D01*
X140536Y242493D01*
X140536Y241916D01*
G75*
D01*
G02X139257Y239890I-2244J0*
G01*
X139257Y239890D01*
X139257Y238288D01*
X141441Y238288D01*
G74*
D01*
G02X142130Y238015I0J1005*
G01*
G75*
D01*
G02X142819Y238288I689J-732*
G01*
X142819Y238288D01*
X143225Y238288D01*
X143225Y235893D01*
X142446Y235893D01*
X142446Y234343D01*
X143225Y234343D01*
X143225Y231948D01*
X142819Y231948D01*
G75*
D01*
G02X142130Y232221I0J1005*
G01*
G74*
D01*
G02X141441Y231948I689J732*
G01*
X141441Y231948D01*
X139079Y231948D01*
G75*
D01*
G02X138074Y232953I0J1005*
G01*
X138074Y232953D01*
X138074Y235172D01*
X136684Y236562D01*
G75*
D01*
G02X136243Y237631I1066J1065*
G01*
X136243Y237631D01*
X136243Y239890D01*
G75*
D01*
G02X134964Y241916I965J2026*
G01*
X134964Y241916D01*
X134964Y246084D01*
G75*
D01*
G02X137208Y248328I2244J0*
G01*
X137208Y248328D01*
X138292Y248328D01*
G74*
D01*
G02X140536Y246084I0J2244*
G01*
X140536Y246084D01*
X140536Y245507D01*
X143464Y245507D01*
X143464Y246084D01*
G74*
D01*
G02X144743Y248110I2244J0*
G01*
X144743Y248110D01*
X144743Y249890D01*
G75*
D01*
G02X143464Y251916I965J2026*
G01*
X143464Y251916D01*
X143464Y256084D01*
G75*
D01*
G02X145708Y258328I2244J0*
G01*
X145708Y258328D01*
X146792Y258328D01*
G74*
D01*
G02X149036Y256084I0J2244*
G01*
X149036Y256084D01*
X149036Y251916D01*
G75*
D01*
G02X147757Y249890I-2244J0*
G01*
D02*
G37*
G36*
X156534Y251834D02*
G74*
D01*
G02X155257Y249890I2242J81*
G01*
X155257Y249890D01*
X155257Y248110D01*
G74*
D01*
G02X156536Y246084I965J2026*
G01*
X156536Y246084D01*
X156536Y241916D01*
G75*
D01*
G02X154430Y239676I-2244J0*
G01*
X154430Y239676D01*
X149926Y235172D01*
X149926Y232953D01*
G75*
D01*
G02X148921Y231948I-1005J0*
G01*
X148921Y231948D01*
X146559Y231948D01*
G75*
D01*
G02X145870Y232221I0J1005*
G01*
G74*
D01*
G02X145181Y231948I689J732*
G01*
X145181Y231948D01*
X144775Y231948D01*
X144775Y234343D01*
X145554Y234343D01*
X145554Y235893D01*
X144775Y235893D01*
X144775Y238288D01*
X145181Y238288D01*
G74*
D01*
G02X145870Y238015I0J1005*
G01*
G75*
D01*
G02X146559Y238288I689J-732*
G01*
X146559Y238288D01*
X148779Y238288D01*
X151272Y240782D01*
G75*
D01*
G02X150964Y241916I1935J1134*
G01*
X150964Y241916D01*
X150964Y246084D01*
G74*
D01*
G02X152243Y248110I2244J0*
G01*
X152243Y248110D01*
X152243Y249890D01*
G75*
D01*
G02X150964Y251916I965J2026*
G01*
X150964Y251916D01*
X150964Y256084D01*
G75*
D01*
G02X153208Y258328I2244J0*
G01*
X153208Y258328D01*
X154292Y258328D01*
G74*
D01*
G02X156536Y256084I0J2244*
G01*
X156536Y256084D01*
X156536Y255507D01*
G74*
D01*
G02X157568Y255064I36J1507*
G01*
X157568Y255064D01*
X160680Y251951D01*
G75*
D01*
G02X158250Y250118I319J-2951*
G01*
X158250Y250118D01*
X156534Y251834D01*
D02*
G37*
G36*
X128743Y248110D02*
X128743Y248110D01*
X128743Y255072D01*
G75*
D01*
G02X131757Y254130I2257J1928*
G01*
X131757Y254130D01*
X131757Y248110D01*
G74*
D01*
G02X133036Y246084I965J2026*
G01*
X133036Y246084D01*
X133036Y242388D01*
G74*
D01*
G02X133247Y241618I1296J769*
G01*
X133247Y241618D01*
X133247Y238234D01*
G74*
D01*
G02X133926Y237283I326J951*
G01*
X133926Y237283D01*
X133926Y232953D01*
G75*
D01*
G02X132921Y231948I-1005J0*
G01*
X132921Y231948D01*
X130559Y231948D01*
G75*
D01*
G02X129870Y232221I0J1005*
G01*
G74*
D01*
G02X129181Y231948I689J732*
G01*
X129181Y231948D01*
X128775Y231948D01*
X128775Y234343D01*
X129554Y234343D01*
X129554Y235893D01*
X128775Y235893D01*
X128775Y238288D01*
X129181Y238288D01*
G74*
D01*
G02X129870Y238015I0J1005*
G01*
G74*
D01*
G02X130233Y238234I689J732*
G01*
X130233Y238234D01*
X130233Y239672D01*
X129708Y239672D01*
G75*
D01*
G02X127464Y241916I0J2244*
G01*
X127464Y241916D01*
X127464Y246084D01*
G74*
D01*
G02X128743Y248110I2244J0*
G01*
D02*
G37*
G36*
X56123Y157729D02*
G74*
D01*
G02X56328Y156792I2038J937*
G01*
X56328Y156792D01*
X56328Y155708D01*
G75*
D01*
G02X56123Y154771I-2244J0*
G01*
X56123Y154771D01*
X55046Y155464D01*
X55046Y155464D01*
X53825Y156250D01*
X56123Y157729D01*
D02*
G37*
G36*
X47672Y155708D02*
X47672Y155708D01*
X47672Y156792D01*
G74*
D01*
G02X47877Y157729I2244J0*
G01*
X47877Y157729D01*
X50175Y156250D01*
X48954Y155464D01*
X48954Y155464D01*
X47877Y154771D01*
G75*
D01*
G02X47672Y155708I2038J937*
G01*
D02*
G37*
G36*
X45270Y155881D02*
G74*
D01*
G02X42619Y153230I4270J1619*
G01*
X42619Y153230D01*
X42619Y155881D01*
X45270Y155881D01*
D02*
G37*
G36*
X36730Y155881D02*
X36730Y155881D01*
X39381Y155881D01*
X39381Y153230D01*
G74*
D01*
G02X36730Y155881I1619J4270*
G01*
D02*
G37*
G36*
X57712Y157441D02*
G74*
D01*
G02X57985Y158130I1005J0*
G01*
G75*
D01*
G02X57712Y158819I732J689*
G01*
X57712Y158819D01*
X57712Y159225D01*
X60107Y159225D01*
X60107Y158446D01*
X61657Y158446D01*
X61657Y159225D01*
X64052Y159225D01*
X64052Y158819D01*
G75*
D01*
G02X63779Y158130I-1005J0*
G01*
G74*
D01*
G02X63877Y158008I732J688*
G01*
X63877Y158008D01*
X64993Y159124D01*
X64993Y161376D01*
X64136Y162233D01*
X63998Y162233D01*
G74*
D01*
G02X63779Y161870I951J326*
G01*
G74*
D01*
G02X64052Y161181I732J689*
G01*
X64052Y161181D01*
X64052Y160775D01*
X61657Y160775D01*
X61657Y161364D01*
G74*
D01*
G02X60872Y161238I785J2385*
G01*
X60872Y161238D01*
X60107Y161238D01*
X60107Y160775D01*
X57712Y160775D01*
X57712Y161181D01*
G74*
D01*
G02X57713Y161238I1005J11*
G01*
X57713Y161238D01*
X55158Y161238D01*
G74*
D01*
G02X54084Y160964I1074J1969*
G01*
X54084Y160964D01*
X49916Y160964D01*
G75*
D01*
G02X47672Y163208I0J2244*
G01*
X47672Y163208D01*
X47672Y164292D01*
G74*
D01*
G02X47683Y164514I2244J0*
G01*
X47683Y164514D01*
X47209Y164988D01*
X45079Y164988D01*
G74*
D01*
G02X42042Y163084I3037J1470*
G01*
X42042Y163084D01*
X39959Y163084D01*
G75*
D01*
G02X36584Y166459I0J3375*
G01*
X36584Y166459D01*
X36584Y168542D01*
G75*
D01*
G02X39959Y171916I3375J-1*
G01*
X39959Y171916D01*
X42042Y171916D01*
G74*
D01*
G02X45079Y170012I0J3374*
G01*
X45079Y170012D01*
X48247Y170012D01*
G75*
D01*
G02X49098Y169865I4J-2512*
G01*
G74*
D01*
G02X50029Y169274I848J2365*
G01*
X50029Y169274D01*
X52767Y166536D01*
X54084Y166536D01*
G74*
D01*
G02X55158Y166262I1J2244*
G01*
X55158Y166262D01*
X60872Y166262D01*
G74*
D01*
G02X62127Y165926I0J2512*
G01*
X62127Y165926D01*
X63047Y165926D01*
G74*
D01*
G02X63998Y165247I0J1005*
G01*
X63998Y165247D01*
X64757Y165247D01*
G75*
D01*
G02X65273Y165157I3J-1507*
G01*
G74*
D01*
G02X65828Y164804I512J1417*
G01*
X65828Y164804D01*
X67564Y163068D01*
G74*
D01*
G02X68007Y162000I1064J1067*
G01*
X68007Y162000D01*
X68007Y158500D01*
G75*
D01*
G02X67564Y157432I-1507J-1*
G01*
X67564Y157432D01*
X65596Y155464D01*
X65328Y155196D01*
G74*
D01*
G02X64260Y154753I1067J1064*
G01*
X64260Y154753D01*
X63998Y154753D01*
G74*
D01*
G02X63047Y154074I951J326*
G01*
X63047Y154074D01*
X58717Y154074D01*
G75*
D01*
G02X57712Y155079I0J1005*
G01*
X57712Y155079D01*
X57712Y157441D01*
D02*
G37*
G36*
X95672Y155708D02*
X95672Y155708D01*
X95672Y156792D01*
G74*
D01*
G02X95877Y157729I2244J0*
G01*
X95877Y157729D01*
X98175Y156250D01*
X96954Y155464D01*
X96954Y155464D01*
X95877Y154771D01*
G75*
D01*
G02X95672Y155708I2038J937*
G01*
D02*
G37*
G36*
X94123Y157729D02*
G74*
D01*
G02X94328Y156792I2038J937*
G01*
X94328Y156792D01*
X94328Y155708D01*
G75*
D01*
G02X94123Y154771I-2244J0*
G01*
X94123Y154771D01*
X93046Y155464D01*
X93046Y155464D01*
X91825Y156250D01*
X94123Y157729D01*
D02*
G37*
G36*
X85672Y155708D02*
X85672Y155708D01*
X85672Y156792D01*
G74*
D01*
G02X85877Y157729I2244J0*
G01*
X85877Y157729D01*
X88175Y156250D01*
X86954Y155464D01*
X86954Y155464D01*
X85877Y154771D01*
G75*
D01*
G02X85672Y155708I2038J937*
G01*
D02*
G37*
G36*
X84123Y157729D02*
G74*
D01*
G02X84328Y156792I2038J937*
G01*
X84328Y156792D01*
X84328Y155708D01*
G75*
D01*
G02X84123Y154771I-2244J0*
G01*
X84123Y154771D01*
X83046Y155464D01*
X83046Y155464D01*
X81825Y156250D01*
X84123Y157729D01*
D02*
G37*
G36*
X75672Y155708D02*
X75672Y155708D01*
X75672Y156792D01*
G74*
D01*
G02X75877Y157729I2244J0*
G01*
X75877Y157729D01*
X78175Y156250D01*
X76954Y155464D01*
X76954Y155464D01*
X75877Y154771D01*
G75*
D01*
G02X75672Y155708I2038J937*
G01*
D02*
G37*
G36*
X104123Y157729D02*
G74*
D01*
G02X104328Y156792I2038J937*
G01*
X104328Y156792D01*
X104328Y155708D01*
G75*
D01*
G02X104123Y154771I-2244J0*
G01*
X104123Y154771D01*
X103046Y155464D01*
X103046Y155464D01*
X101825Y156250D01*
X104123Y157729D01*
D02*
G37*
G36*
X49545Y153495D02*
X49545Y153495D01*
X52000Y155075D01*
X54455Y153495D01*
G74*
D01*
G02X54084Y153464I372J2212*
G01*
X54084Y153464D01*
X49916Y153464D01*
G75*
D01*
G02X49545Y153495I1J2244*
G01*
D02*
G37*
G36*
X46455Y148505D02*
X46455Y148505D01*
X44000Y146925D01*
X41545Y148505D01*
G75*
D01*
G02X41916Y148536I372J-2212*
G01*
X41916Y148536D01*
X46084Y148536D01*
G74*
D01*
G02X46455Y148505I1J2244*
G01*
D02*
G37*
G36*
X39877Y144271D02*
G75*
D01*
G02X39672Y145208I2038J937*
G01*
X39672Y145208D01*
X39672Y146292D01*
G74*
D01*
G02X39877Y147229I2244J0*
G01*
X39877Y147229D01*
X42175Y145750D01*
X39877Y144271D01*
D02*
G37*
G36*
X41545Y142995D02*
X41545Y142995D01*
X44000Y144575D01*
X46455Y142995D01*
G74*
D01*
G02X46084Y142964I372J2212*
G01*
X46084Y142964D01*
X41916Y142964D01*
G75*
D01*
G02X41545Y142995I1J2244*
G01*
D02*
G37*
G36*
X48123Y144271D02*
X48123Y144271D01*
X45825Y145750D01*
X48123Y147229D01*
G74*
D01*
G02X48328Y146292I2038J937*
G01*
X48328Y146292D01*
X48328Y145208D01*
G75*
D01*
G02X48123Y144271I-2244J0*
G01*
D02*
G37*
G36*
X57005Y143545D02*
X57005Y143545D01*
X55425Y146000D01*
X57005Y148455D01*
G74*
D01*
G02X57036Y148084I2212J372*
G01*
X57036Y148084D01*
X57036Y143916D01*
G75*
D01*
G02X57005Y143545I-2244J1*
G01*
D02*
G37*
G36*
X52771Y150123D02*
G75*
D01*
G02X53708Y150328I937J-2038*
G01*
X53708Y150328D01*
X54792Y150328D01*
G74*
D01*
G02X55729Y150123I0J2244*
G01*
X55729Y150123D01*
X54250Y147825D01*
X52771Y150123D01*
D02*
G37*
G36*
X51495Y148455D02*
X51495Y148455D01*
X53075Y146000D01*
X51495Y143545D01*
G75*
D01*
G02X51464Y143916I2212J372*
G01*
X51464Y143916D01*
X51464Y148084D01*
G74*
D01*
G02X51495Y148455I2244J1*
G01*
D02*
G37*
G36*
X97545Y153495D02*
X97545Y153495D01*
X100000Y155075D01*
X102455Y153495D01*
G74*
D01*
G02X102084Y153464I372J2212*
G01*
X102084Y153464D01*
X97916Y153464D01*
G75*
D01*
G02X97545Y153495I1J2244*
G01*
D02*
G37*
G36*
X87545Y153495D02*
X87545Y153495D01*
X90000Y155075D01*
X92455Y153495D01*
G74*
D01*
G02X92084Y153464I372J2212*
G01*
X92084Y153464D01*
X87916Y153464D01*
G75*
D01*
G02X87545Y153495I1J2244*
G01*
D02*
G37*
G36*
X77545Y153495D02*
X77545Y153495D01*
X80000Y155075D01*
X82455Y153495D01*
G74*
D01*
G02X82084Y153464I372J2212*
G01*
X82084Y153464D01*
X77916Y153464D01*
G75*
D01*
G02X77545Y153495I1J2244*
G01*
D02*
G37*
G36*
X94081Y142735D02*
X94081Y142735D01*
X84000Y142735D01*
G75*
D01*
G02X82848Y142964I1J3015*
G01*
X82848Y142964D01*
X81916Y142964D01*
G75*
D01*
G02X79672Y145208I0J2244*
G01*
X79672Y145208D01*
X79672Y146292D01*
G75*
D01*
G02X81916Y148536I2244J0*
G01*
X81916Y148536D01*
X82848Y148536D01*
G75*
D01*
G02X84000Y148765I1152J-2785*
G01*
X84000Y148765D01*
X85501Y148765D01*
X88865Y152129D01*
G75*
D01*
G02X92452Y152642I2135J-2129*
G01*
G74*
D01*
G02X93133Y152130I1453J2641*
G01*
X93133Y152130D01*
X96879Y148384D01*
G74*
D01*
G02X97450Y147590I2129J2133*
G01*
G75*
D01*
G02X94081Y142735I-1454J-2587*
G01*
D02*
G37*
G36*
X160455Y236505D02*
X160455Y236505D01*
X158000Y234925D01*
X155545Y236505D01*
G75*
D01*
G02X155916Y236536I372J-2212*
G01*
X155916Y236536D01*
X160084Y236536D01*
G74*
D01*
G02X160455Y236505I1J2244*
G01*
D02*
G37*
G36*
X162123Y232271D02*
X162123Y232271D01*
X159825Y233750D01*
X162123Y235229D01*
G74*
D01*
G02X162328Y234292I2038J937*
G01*
X162328Y234292D01*
X162328Y233208D01*
G75*
D01*
G02X162123Y232271I-2244J0*
G01*
D02*
G37*
G36*
X155545Y230995D02*
X155545Y230995D01*
X158000Y232575D01*
X160455Y230995D01*
G74*
D01*
G02X160084Y230964I372J2212*
G01*
X160084Y230964D01*
X155916Y230964D01*
G75*
D01*
G02X155545Y230995I1J2244*
G01*
D02*
G37*
G36*
X153877Y232271D02*
G75*
D01*
G02X153672Y233208I2038J937*
G01*
X153672Y233208D01*
X153672Y234292D01*
G74*
D01*
G02X153877Y235229I2244J0*
G01*
X153877Y235229D01*
X156175Y233750D01*
X153877Y232271D01*
D02*
G37*
G36*
X156952Y223409D02*
G75*
D01*
G02X156630Y223375I-318J1473*
G01*
X156630Y223375D01*
X149926Y223375D01*
X149926Y222717D01*
G75*
D01*
G02X149834Y222297I-1005J0*
G01*
X149834Y222297D01*
X152257Y219874D01*
G75*
D01*
G02X150126Y217743I743J-2874*
G01*
X150126Y217743D01*
X146674Y221194D01*
G74*
D01*
G02X146326Y221739I1067J1065*
G01*
G75*
D01*
G02X145554Y222717I233J978*
G01*
X145554Y222717D01*
X145554Y227047D01*
G75*
D01*
G02X146559Y228052I1005J0*
G01*
X146559Y228052D01*
X148921Y228052D01*
G74*
D01*
G02X149926Y227047I0J1005*
G01*
X149926Y227047D01*
X149926Y226389D01*
X153672Y226389D01*
X153672Y226792D01*
G75*
D01*
G02X155916Y229036I2244J0*
G01*
X155916Y229036D01*
X160084Y229036D01*
G74*
D01*
G02X162328Y226792I0J2244*
G01*
X162328Y226792D01*
X162328Y225708D01*
G75*
D01*
G02X160084Y223464I-2244J0*
G01*
X160084Y223464D01*
X157144Y223464D01*
G74*
D01*
G02X156952Y223409I510J1418*
G01*
D02*
G37*
G36*
X99507Y232411D02*
X99507Y232411D01*
X99507Y230536D01*
X100084Y230536D01*
G74*
D01*
G02X102328Y228292I0J2244*
G01*
X102328Y228292D01*
X102328Y227208D01*
G75*
D01*
G02X100084Y224964I-2244J0*
G01*
X100084Y224964D01*
X95916Y224964D01*
G75*
D01*
G02X93890Y226243I0J2244*
G01*
X93890Y226243D01*
X92110Y226243D01*
G74*
D01*
G02X90084Y224964I2026J965*
G01*
X90084Y224964D01*
X85916Y224964D01*
G75*
D01*
G02X83672Y227208I0J2244*
G01*
X83672Y227208D01*
X83672Y228292D01*
G75*
D01*
G02X85916Y230536I2244J0*
G01*
X85916Y230536D01*
X90084Y230536D01*
G74*
D01*
G02X92110Y229257I0J2244*
G01*
X92110Y229257D01*
X93890Y229257D01*
G75*
D01*
G02X95916Y230536I2026J-965*
G01*
X95916Y230536D01*
X96493Y230536D01*
X96493Y231075D01*
G75*
D01*
G02X99507Y232411I507J2924*
G01*
D02*
G37*
G36*
X60614Y209881D02*
X60614Y209881D01*
X66838Y203657D01*
G74*
D01*
G02X67436Y203463I156J1499*
G01*
X67436Y203463D01*
X72209Y200707D01*
G74*
D01*
G02X72368Y200602I749J1307*
G01*
X72368Y200602D01*
X72368Y207524D01*
X63659Y216232D01*
G75*
D01*
G02X60194Y216178I-1778J2869*
G01*
X60194Y216178D01*
X58390Y217220D01*
G75*
D01*
G02X57155Y221830I1687J2922*
G01*
X57155Y221830D01*
X58196Y223634D01*
G75*
D01*
G02X62806Y224869I2923J-1688*
G01*
X62806Y224869D01*
X64610Y223827D01*
G75*
D01*
G02X65845Y219217I-1687J-2922*
G01*
X65845Y219217D01*
X65513Y218642D01*
X74939Y209216D01*
G74*
D01*
G02X75382Y208148I1064J1067*
G01*
X75382Y208148D01*
X75382Y187594D01*
X77073Y186618D01*
G75*
D01*
G02X77894Y183553I-1121J-1943*
G01*
X77894Y183553D01*
X77352Y182614D01*
G75*
D01*
G02X74287Y181793I-1943J1121*
G01*
X74287Y181793D01*
X70677Y183877D01*
G75*
D01*
G02X69856Y186942I1121J1943*
G01*
X69856Y186942D01*
X70398Y187881D01*
G75*
D01*
G02X72368Y189003I1943J-1121*
G01*
X72368Y189003D01*
X72368Y197967D01*
X70792Y195238D01*
G75*
D01*
G02X68733Y194687I-1305J754*
G01*
X68733Y194687D01*
X63960Y197443D01*
G75*
D01*
G02X63408Y199502I753J1305*
G01*
X63408Y199502D01*
X64624Y201607D01*
X58483Y207749D01*
G75*
D01*
G02X60614Y209881I-1983J4113*
G01*
D02*
G37*
G36*
X46933Y203203D02*
G75*
D01*
G02X46933Y203203I4567J0*
G01*
D02*
G37*
G36*
X50846Y195947D02*
G74*
D01*
G02X51366Y195606I549J1404*
G01*
X51366Y195606D01*
X57697Y189275D01*
G75*
D01*
G02X59267Y189313I816J-1267*
G01*
X59267Y189313D01*
X64040Y186557D01*
G75*
D01*
G02X64592Y184498I-753J-1305*
G01*
X64592Y184498D01*
X63816Y183156D01*
X66259Y180713D01*
X66648Y181386D01*
G75*
D01*
G02X69713Y182207I1943J-1121*
G01*
X69713Y182207D01*
X73323Y180123D01*
G75*
D01*
G02X74144Y177058I-1121J-1943*
G01*
X74144Y177058D01*
X73602Y176119D01*
G75*
D01*
G02X70537Y175298I-1943J1121*
G01*
X70537Y175298D01*
X67164Y177245D01*
X66091Y177245D01*
G75*
D01*
G02X65022Y177687I-3J1507*
G01*
X65022Y177687D01*
X62134Y180575D01*
G75*
D01*
G02X60564Y180537I-816J1267*
G01*
X60564Y180537D01*
X55791Y183293D01*
G75*
D01*
G02X55239Y185352I752J1305*
G01*
X55239Y185352D01*
X56014Y186695D01*
X50453Y192256D01*
G75*
D01*
G02X50846Y195947I-3952J2287*
G01*
D02*
G37*
G36*
X75500Y192500D02*
G75*
D01*
G02X75500Y192500I6500J0*
G01*
D02*
G37*
G36*
X42619Y161770D02*
G74*
D01*
G02X45270Y159119I1619J4270*
G01*
X45270Y159119D01*
X42619Y159119D01*
X42619Y161770D01*
D02*
G37*
G36*
X36730Y159119D02*
G74*
D01*
G02X39381Y161770I4270J1619*
G01*
X39381Y161770D01*
X39381Y159119D01*
X36730Y159119D01*
D02*
G37*
G36*
X82455Y159005D02*
X82455Y159005D01*
X80000Y157425D01*
X77545Y159005D01*
G75*
D01*
G02X77916Y159036I372J-2212*
G01*
X77916Y159036D01*
X82084Y159036D01*
G74*
D01*
G02X82455Y159005I1J2244*
G01*
D02*
G37*
G36*
X83890Y218743D02*
X83890Y218743D01*
X82689Y218743D01*
G75*
D01*
G02X77126Y220743I-2691J1253*
G01*
X77126Y220743D01*
X71974Y225895D01*
G75*
D01*
G02X74792Y227339I-544J4533*
G01*
X74792Y227339D01*
X79257Y222874D01*
G75*
D01*
G02X82393Y221757I743J-2873*
G01*
X82393Y221757D01*
X83890Y221757D01*
G75*
D01*
G02X85916Y223036I2026J-965*
G01*
X85916Y223036D01*
X90084Y223036D01*
G74*
D01*
G02X92110Y221757I0J2244*
G01*
X92110Y221757D01*
X93890Y221757D01*
G75*
D01*
G02X95916Y223036I2026J-965*
G01*
X95916Y223036D01*
X100084Y223036D01*
G74*
D01*
G02X102328Y220792I0J2244*
G01*
X102328Y220792D01*
X102328Y219708D01*
G75*
D01*
G02X100084Y217464I-2244J0*
G01*
X100084Y217464D01*
X95916Y217464D01*
G75*
D01*
G02X93890Y218743I0J2244*
G01*
X93890Y218743D01*
X92110Y218743D01*
G74*
D01*
G02X90084Y217464I2026J965*
G01*
X90084Y217464D01*
X85916Y217464D01*
G75*
D01*
G02X83890Y218743I0J2244*
G01*
D02*
G37*
G36*
X54455Y159005D02*
X54455Y159005D01*
X52000Y157425D01*
X49545Y159005D01*
G75*
D01*
G02X49916Y159036I372J-2212*
G01*
X49916Y159036D01*
X54084Y159036D01*
G74*
D01*
G02X54455Y159005I1J2244*
G01*
D02*
G37*
G36*
X39250Y157500D02*
G75*
D01*
G02X39250Y157500I1750J0*
G01*
D02*
G37*
G36*
X92455Y159005D02*
X92455Y159005D01*
X90000Y157425D01*
X87545Y159005D01*
G75*
D01*
G02X87916Y159036I372J-2212*
G01*
X87916Y159036D01*
X92084Y159036D01*
G74*
D01*
G02X92455Y159005I1J2244*
G01*
D02*
G37*
G36*
X119229Y246123D02*
X119229Y246123D01*
X117750Y243825D01*
X116271Y246123D01*
G75*
D01*
G02X117208Y246328I937J-2038*
G01*
X117208Y246328D01*
X118292Y246328D01*
G74*
D01*
G02X119229Y246123I0J2244*
G01*
D02*
G37*
G36*
X114995Y244455D02*
X114995Y244455D01*
X116575Y242000D01*
X114995Y239545D01*
G75*
D01*
G02X114964Y239916I2212J372*
G01*
X114964Y239916D01*
X114964Y244084D01*
G74*
D01*
G02X114995Y244455I2244J1*
G01*
D02*
G37*
G36*
X119229Y237877D02*
G74*
D01*
G02X118292Y237672I937J2038*
G01*
X118292Y237672D01*
X117208Y237672D01*
G75*
D01*
G02X116271Y237877I0J2244*
G01*
X116271Y237877D01*
X117750Y240175D01*
X119229Y237877D01*
D02*
G37*
G36*
X120505Y239545D02*
X120505Y239545D01*
X118925Y242000D01*
X120505Y244455D01*
G74*
D01*
G02X120536Y244084I2212J372*
G01*
X120536Y244084D01*
X120536Y239916D01*
G75*
D01*
G02X120505Y239545I-2244J1*
G01*
D02*
G37*
G36*
X114455Y236505D02*
X114455Y236505D01*
X112000Y234925D01*
X109545Y236505D01*
G75*
D01*
G02X109916Y236536I372J-2212*
G01*
X109916Y236536D01*
X114084Y236536D01*
G74*
D01*
G02X114455Y236505I1J2244*
G01*
D02*
G37*
G36*
X107877Y232271D02*
G75*
D01*
G02X107672Y233208I2038J937*
G01*
X107672Y233208D01*
X107672Y234292D01*
G74*
D01*
G02X107877Y235229I2244J0*
G01*
X107877Y235229D01*
X110175Y233750D01*
X107877Y232271D01*
D02*
G37*
G36*
X109545Y230995D02*
X109545Y230995D01*
X112000Y232575D01*
X114455Y230995D01*
G74*
D01*
G02X114084Y230964I372J2212*
G01*
X114084Y230964D01*
X109916Y230964D01*
G75*
D01*
G02X109545Y230995I1J2244*
G01*
D02*
G37*
G36*
X116123Y232271D02*
X116123Y232271D01*
X113825Y233750D01*
X116123Y235229D01*
G74*
D01*
G02X116328Y234292I2038J937*
G01*
X116328Y234292D01*
X116328Y233208D01*
G75*
D01*
G02X116123Y232271I-2244J0*
G01*
D02*
G37*
G36*
X102455Y159005D02*
X102455Y159005D01*
X100000Y157425D01*
X97545Y159005D01*
G75*
D01*
G02X97916Y159036I372J-2212*
G01*
X97916Y159036D01*
X102084Y159036D01*
G74*
D01*
G02X102455Y159005I1J2244*
G01*
D02*
G37*
%LPD*%
G36*
X107464Y254084D02*
X107464Y254084D01*
X107464Y251846D01*
X105571Y249953D01*
X105571Y249953D01*
X103556Y247938D01*
G74*
D01*
G03X102292Y248328I1264J1853*
G01*
X102292Y248328D01*
X101208Y248328D01*
G75*
D01*
G03X99944Y247938I0J-2244*
G01*
X99944Y247938D01*
X97929Y249953D01*
X97929Y249953D01*
X96318Y251564D01*
G74*
D01*
G03X95609Y251964I1067J1064*
G01*
G75*
D01*
G03X95248Y252007I-357J-1464*
G01*
X95248Y252007D01*
X93439Y252007D01*
G74*
D01*
G02X115181Y259063I41063J89505*
G01*
X115181Y259063D01*
X112056Y255938D01*
G74*
D01*
G03X110792Y256328I1264J1853*
G01*
X110792Y256328D01*
X109708Y256328D01*
G75*
D01*
G03X107464Y254084I0J-2244*
G01*
D02*
G37*
G54D11*
X127061Y89631D02*
X127522Y89631D01*
X127522Y88654D01*
X126743Y87874D01*
G75*
D01*
G03X128874Y85743I-743J-2874*
G01*
X130093Y86962D01*
G75*
D01*
G03X130537Y88030I-1062J1068*
G01*
X130537Y89631D01*
X130998Y89631D01*
G75*
D01*
G03X132003Y90636I0J1005*
G01*
X132003Y92998D01*
G74*
D01*
G03X130998Y94003I1005J0*
G01*
X128379Y94003D01*
X127464Y94917D01*
X115938Y106444D01*
G75*
D01*
G03X116328Y107708I-1853J1264*
G01*
X116328Y108792D01*
G74*
D01*
G03X114084Y111036I2244J0*
G01*
X109916Y111036D01*
G75*
D01*
G03X107672Y108792I0J-2244*
G01*
X107672Y107708D01*
G75*
D01*
G03X109916Y105464I2244J0*
G01*
X112654Y105464D01*
X126056Y92062D01*
X126056Y90636D01*
G75*
D01*
G03X127061Y89631I1005J0*
G01*
X127833Y72756D02*
X130167Y72756D01*
G75*
D01*
G03X132411Y75000I0J2244*
G01*
X132411Y77334D01*
G74*
D01*
G03X130167Y79577I2244J1*
G01*
X127833Y79577D01*
G75*
D01*
G03X125615Y77674I-1J-2243*
G01*
X122708Y77674D01*
X115938Y84444D01*
G74*
D01*
G03X116110Y84743I1853J1265*
G01*
X117750Y84743D01*
G74*
D01*
G03X118818Y85186I1J1507*
G01*
X119680Y86049D01*
G75*
D01*
G03X117250Y87882I319J2951*
G01*
X117126Y87757D01*
X116110Y87757D01*
G74*
D01*
G03X114084Y89036I2026J965*
G01*
X109916Y89036D01*
G75*
D01*
G03X107672Y86792I0J-2244*
G01*
X107672Y85708D01*
G75*
D01*
G03X109916Y83464I2244J0*
G01*
X112654Y83464D01*
X121018Y75101D01*
G75*
D01*
G03X122084Y74659I1066J1064*
G01*
X125615Y74659D01*
G75*
D01*
G03X127833Y72756I2218J341*
G01*
X127833Y64423D02*
X130167Y64423D01*
G75*
D01*
G03X132411Y66666I1J2243*
G01*
X132411Y69000D01*
G74*
D01*
G03X130167Y71244I2244J0*
G01*
X127833Y71244D01*
G75*
D01*
G03X125615Y69341I0J-2244*
G01*
X116298Y69341D01*
G75*
D01*
G03X116328Y69708I-2214J366*
G01*
X116328Y70792D01*
G74*
D01*
G03X114084Y73036I2244J0*
G01*
X109916Y73036D01*
G75*
D01*
G03X107672Y70792I0J-2244*
G01*
X107672Y69708D01*
G75*
D01*
G03X109916Y67464I2244J0*
G01*
X112654Y67464D01*
X113351Y66768D01*
G75*
D01*
G03X114418Y66326I1066J1064*
G01*
X125615Y66326D01*
G75*
D01*
G03X127833Y64423I2217J340*
G01*
X126056Y110062D02*
X127464Y108654D01*
X127522Y108596D01*
X127522Y101483D01*
X127061Y101483D01*
G75*
D01*
G03X126056Y100478I0J-1005*
G01*
X126056Y98116D01*
G75*
D01*
G03X127061Y97111I1005J0*
G01*
X130998Y97111D01*
G75*
D01*
G03X132003Y98116I0J1005*
G01*
X132003Y100478D01*
G74*
D01*
G03X130998Y101483I1005J0*
G01*
X130537Y101483D01*
X130537Y109220D01*
G74*
D01*
G03X130413Y109818I1507J1*
G01*
G75*
D01*
G03X131208Y109672I796J2097*
G01*
X132292Y109672D01*
G75*
D01*
G03X134536Y111916I0J2244*
G01*
X134536Y114654D01*
X135190Y115308D01*
G75*
D01*
G03X135633Y116376I-1064J1067*
G01*
X135633Y116485D01*
X137464Y114654D01*
X137464Y111916D01*
G75*
D01*
G03X139708Y109672I2244J0*
G01*
X140792Y109672D01*
G75*
D01*
G03X143036Y111916I0J2244*
G01*
X143036Y116084D01*
G74*
D01*
G03X140792Y118328I2244J0*
G01*
X139708Y118328D01*
G75*
D01*
G03X138444Y117938I0J-2244*
G01*
X137602Y118780D01*
X137602Y126554D01*
X138654Y126554D01*
G74*
D01*
G03X139047Y126632I1J1025*
G01*
G75*
D01*
G03X139441Y126554I392J947*
G01*
X140622Y126554D01*
G74*
D01*
G03X141016Y126632I2J1025*
G01*
G75*
D01*
G03X141409Y126554I392J947*
G01*
X142591Y126554D01*
G74*
D01*
G03X142984Y126632I1J1025*
G01*
G75*
D01*
G03X143378Y126554I392J947*
G01*
X144559Y126554D01*
G74*
D01*
G03X144953Y126632I2J1025*
G01*
G75*
D01*
G03X145346Y126554I392J947*
G01*
X146528Y126554D01*
G74*
D01*
G03X146921Y126632I1J1025*
G01*
G75*
D01*
G03X147315Y126554I392J947*
G01*
X148496Y126554D01*
G74*
D01*
G03X148890Y126632I2J1025*
G01*
G75*
D01*
G03X149283Y126554I392J947*
G01*
X150465Y126554D01*
G74*
D01*
G03X150858Y126632I1J1025*
G01*
G75*
D01*
G03X151252Y126554I392J947*
G01*
X152433Y126554D01*
G74*
D01*
G03X152827Y126632I2J1025*
G01*
G75*
D01*
G03X153220Y126554I392J947*
G01*
X154402Y126554D01*
G74*
D01*
G03X154795Y126632I1J1025*
G01*
G75*
D01*
G03X155189Y126554I392J947*
G01*
X156370Y126554D01*
G74*
D01*
G03X156764Y126632I2J1025*
G01*
G75*
D01*
G03X157158Y126554I392J947*
G01*
X158339Y126554D01*
G74*
D01*
G03X158732Y126632I1J1025*
G01*
G75*
D01*
G03X159126Y126554I392J947*
G01*
X160307Y126554D01*
G74*
D01*
G03X160701Y126632I2J1025*
G01*
G75*
D01*
G03X161095Y126554I392J947*
G01*
X162276Y126554D01*
G74*
D01*
G03X162669Y126632I1J1025*
G01*
G75*
D01*
G03X163063Y126554I392J947*
G01*
X164244Y126554D01*
G74*
D01*
G03X164638Y126632I2J1025*
G01*
G75*
D01*
G03X165032Y126554I392J947*
G01*
X166213Y126554D01*
G75*
D01*
G03X167238Y127579I0J1025*
G01*
X167238Y137579D01*
G74*
D01*
G03X166213Y138604I1025J0*
G01*
X165032Y138604D01*
G75*
D01*
G03X164638Y138525I1J-1025*
G01*
G74*
D01*
G03X164244Y138604I394J945*
G01*
X163063Y138604D01*
G75*
D01*
G03X162669Y138525I1J-1025*
G01*
G74*
D01*
G03X162276Y138604I394J945*
G01*
X161095Y138604D01*
G75*
D01*
G03X160701Y138525I1J-1025*
G01*
G74*
D01*
G03X160307Y138604I394J945*
G01*
X159126Y138604D01*
G75*
D01*
G03X158732Y138525I1J-1025*
G01*
G74*
D01*
G03X158339Y138604I394J945*
G01*
X157158Y138604D01*
G75*
D01*
G03X156764Y138525I1J-1025*
G01*
G74*
D01*
G03X156370Y138604I394J945*
G01*
X155189Y138604D01*
G75*
D01*
G03X154795Y138525I1J-1025*
G01*
G74*
D01*
G03X154402Y138604I394J945*
G01*
X153220Y138604D01*
G75*
D01*
G03X152827Y138525I2J-1025*
G01*
G74*
D01*
G03X152433Y138604I394J945*
G01*
X151252Y138604D01*
G75*
D01*
G03X150858Y138525I1J-1025*
G01*
G74*
D01*
G03X150465Y138604I394J945*
G01*
X149283Y138604D01*
G75*
D01*
G03X148890Y138525I2J-1025*
G01*
G74*
D01*
G03X148496Y138604I394J945*
G01*
X147315Y138604D01*
G75*
D01*
G03X146921Y138525I1J-1025*
G01*
G74*
D01*
G03X146528Y138604I394J945*
G01*
X145346Y138604D01*
G75*
D01*
G03X144953Y138525I2J-1025*
G01*
G74*
D01*
G03X144559Y138604I394J945*
G01*
X143378Y138604D01*
G75*
D01*
G03X142984Y138525I1J-1025*
G01*
G74*
D01*
G03X142591Y138604I394J945*
G01*
X141409Y138604D01*
G75*
D01*
G03X141016Y138525I2J-1025*
G01*
G74*
D01*
G03X140622Y138604I394J945*
G01*
X139441Y138604D01*
G75*
D01*
G03X139047Y138525I1J-1025*
G01*
G74*
D01*
G03X138654Y138604I394J945*
G01*
X137472Y138604D01*
G75*
D01*
G03X137079Y138525I2J-1025*
G01*
G74*
D01*
G03X136685Y138604I394J945*
G01*
X135504Y138604D01*
G75*
D01*
G03X135110Y138525I1J-1025*
G01*
G74*
D01*
G03X134717Y138604I394J945*
G01*
X133535Y138604D01*
G75*
D01*
G03X133142Y138525I2J-1025*
G01*
G74*
D01*
G03X132748Y138604I394J945*
G01*
X131567Y138604D01*
G75*
D01*
G03X131173Y138525I1J-1025*
G01*
G74*
D01*
G03X130780Y138604I394J945*
G01*
X129598Y138604D01*
G75*
D01*
G03X129205Y138525I2J-1025*
G01*
G74*
D01*
G03X128811Y138604I394J945*
G01*
X127630Y138604D01*
G75*
D01*
G03X127236Y138525I1J-1025*
G01*
G74*
D01*
G03X126843Y138604I394J945*
G01*
X125661Y138604D01*
G75*
D01*
G03X125268Y138525I2J-1025*
G01*
G74*
D01*
G03X124874Y138604I394J945*
G01*
X124856Y138604D01*
X124856Y138213D01*
G74*
D01*
G03X124636Y137579I804J634*
G01*
X124636Y127579D01*
G75*
D01*
G03X124856Y126944I1025J0*
G01*
X124856Y126554D01*
X124874Y126554D01*
G74*
D01*
G03X125268Y126632I2J1025*
G01*
G75*
D01*
G03X125661Y126554I392J947*
G01*
X126843Y126554D01*
G74*
D01*
G03X127236Y126632I1J1025*
G01*
G75*
D01*
G03X127630Y126554I392J947*
G01*
X128811Y126554D01*
G74*
D01*
G03X129205Y126632I2J1025*
G01*
G75*
D01*
G03X129598Y126554I392J947*
G01*
X130780Y126554D01*
G74*
D01*
G03X131173Y126632I1J1025*
G01*
G75*
D01*
G03X131567Y126554I392J947*
G01*
X132619Y126554D01*
X132619Y118304D01*
G74*
D01*
G03X132292Y118328I327J2219*
G01*
X131208Y118328D01*
G75*
D01*
G03X128964Y116084I0J-2244*
G01*
X128964Y111916D01*
G75*
D01*
G03X129039Y111343I2244J2*
G01*
X127464Y112917D01*
X127036Y113346D01*
X127036Y116084D01*
G74*
D01*
G03X124792Y118328I2244J0*
G01*
X123708Y118328D01*
G75*
D01*
G03X121464Y116084I0J-2244*
G01*
X121464Y115507D01*
X116328Y115507D01*
X116328Y116292D01*
G74*
D01*
G03X114084Y118536I2244J0*
G01*
X109916Y118536D01*
G75*
D01*
G03X107672Y116292I0J-2244*
G01*
X107672Y115208D01*
G75*
D01*
G03X109916Y112964I2244J0*
G01*
X112654Y112964D01*
X112684Y112934D01*
G74*
D01*
G03X113681Y112494I1066J1065*
G01*
G75*
D01*
G03X113750Y112493I56J1506*
G01*
X121464Y112493D01*
X121464Y111916D01*
G75*
D01*
G03X123708Y109672I2244J0*
G01*
X124792Y109672D01*
G74*
D01*
G03X126056Y110062I0J2244*
G01*
X167396Y155535D02*
G75*
D01*
G03X167475Y155142I1025J2*
G01*
G74*
D01*
G03X167396Y154748I945J394*
G01*
X167396Y153567D01*
G75*
D01*
G03X167475Y153173I1025J1*
G01*
G74*
D01*
G03X167396Y152780I945J394*
G01*
X167396Y151598D01*
G75*
D01*
G03X167475Y151205I1025J2*
G01*
G74*
D01*
G03X167396Y150811I945J394*
G01*
X167396Y149630D01*
G75*
D01*
G03X167475Y149236I1025J1*
G01*
G74*
D01*
G03X167396Y148843I945J394*
G01*
X167396Y147661D01*
G75*
D01*
G03X167475Y147268I1025J2*
G01*
G74*
D01*
G03X167396Y146874I945J394*
G01*
X167396Y145693D01*
G75*
D01*
G03X167475Y145299I1025J1*
G01*
G74*
D01*
G03X167396Y144905I945J394*
G01*
X167396Y143724D01*
G75*
D01*
G03X167475Y143331I1025J2*
G01*
G74*
D01*
G03X167396Y142937I945J394*
G01*
X167396Y141756D01*
G75*
D01*
G03X167475Y141362I1025J1*
G01*
G74*
D01*
G03X167396Y140968I945J394*
G01*
X167396Y139787D01*
G75*
D01*
G03X168421Y138762I1025J0*
G01*
X171914Y138762D01*
X171914Y131081D01*
G75*
D01*
G03X172253Y130126I1507J-3*
G01*
G75*
D01*
G03X174929Y131968I2746J-1125*
G01*
X174929Y138762D01*
X178421Y138762D01*
G75*
D01*
G03X179446Y139787I0J1025*
G01*
X179446Y140839D01*
X179493Y140839D01*
X179493Y131557D01*
G75*
D01*
G03X182507Y131557I1507J-2557*
G01*
X182507Y138361D01*
X184993Y135876D01*
X184993Y131187D01*
G75*
D01*
G03X188007Y131792I2007J-2187*
G01*
X188007Y135361D01*
X189250Y134118D01*
G75*
D01*
G03X191680Y135951I2749J-1118*
G01*
X186507Y141124D01*
X186507Y143361D01*
X189126Y140743D01*
G75*
D01*
G03X191257Y142874I2874J-743*
G01*
X190881Y143250D01*
G75*
D01*
G03X191257Y148874I1117J2750*
G01*
X190507Y149624D01*
X190507Y150434D01*
G75*
D01*
G03X190544Y155587I1492J2566*
G01*
X188667Y157464D01*
X192084Y157464D01*
G74*
D01*
G03X192455Y157495I1J2244*
G01*
X190000Y159075D01*
X188209Y157922D01*
X186780Y159352D01*
X188175Y160250D01*
X185877Y161729D01*
G74*
D01*
G03X185672Y160792I2038J937*
G01*
X185672Y160459D01*
X183036Y163095D01*
G74*
D01*
G03X182014Y163538I1067J1062*
G01*
G75*
D01*
G03X181968Y163539I-56J-1506*
G01*
X178880Y163539D01*
G74*
D01*
G03X178421Y163647I458J917*
G01*
X168421Y163647D01*
G75*
D01*
G03X167787Y163427I1J-1025*
G01*
X167396Y163427D01*
X167396Y163409D01*
G75*
D01*
G03X167475Y163016I1025J2*
G01*
G74*
D01*
G03X167396Y162622I945J394*
G01*
X167396Y161441D01*
G75*
D01*
G03X167475Y161047I1025J1*
G01*
G74*
D01*
G03X167396Y160654I945J394*
G01*
X167396Y159472D01*
G75*
D01*
G03X167475Y159079I1025J2*
G01*
G74*
D01*
G03X167396Y158685I945J394*
G01*
X167396Y157504D01*
G75*
D01*
G03X167475Y157110I1025J1*
G01*
G74*
D01*
G03X167396Y156717I945J394*
G01*
X167396Y155535D01*
X217298Y155464D02*
G75*
D01*
G03X217298Y155464I-3798J2536*
G01*
X107877Y76271D02*
X110175Y77750D01*
X107877Y79229D01*
G74*
D01*
G03X107672Y78292I2038J937*
G01*
X107672Y77208D01*
G75*
D01*
G03X107877Y76271I2244J0*
G01*
X109545Y74995D02*
G75*
D01*
G03X109916Y74964I372J2212*
G01*
X114084Y74964D01*
G74*
D01*
G03X114455Y74995I1J2244*
G01*
X112000Y76575D01*
X109545Y74995D01*
X116123Y76271D02*
G75*
D01*
G03X116328Y77208I-2038J937*
G01*
X116328Y78292D01*
G74*
D01*
G03X116123Y79229I2244J0*
G01*
X113825Y77750D01*
X116123Y76271D01*
X114455Y80505D02*
G74*
D01*
G03X114084Y80536I372J2212*
G01*
X109916Y80536D01*
G75*
D01*
G03X109545Y80505I1J-2244*
G01*
X112000Y78925D01*
X114455Y80505D01*
X116123Y92271D02*
G75*
D01*
G03X116328Y93208I-2038J937*
G01*
X116328Y94292D01*
G74*
D01*
G03X116123Y95229I2244J0*
G01*
X113825Y93750D01*
X116123Y92271D01*
X109545Y90995D02*
G75*
D01*
G03X109916Y90964I372J2212*
G01*
X114084Y90964D01*
G74*
D01*
G03X114455Y90995I1J2244*
G01*
X112000Y92575D01*
X109545Y90995D01*
X107877Y92271D02*
X110175Y93750D01*
X107877Y95229D01*
G74*
D01*
G03X107672Y94292I2038J937*
G01*
X107672Y93208D01*
G75*
D01*
G03X107877Y92271I2244J0*
G01*
X114455Y96505D02*
G74*
D01*
G03X114084Y96536I372J2212*
G01*
X109916Y96536D01*
G75*
D01*
G03X109545Y96505I1J-2244*
G01*
X112000Y94925D01*
X114455Y96505D01*
X77054Y87315D02*
X77684Y86684D01*
G74*
D01*
G03X78194Y86349I1065J1066*
G01*
G75*
D01*
G03X78750Y86243I555J1401*
G01*
X89890Y86243D01*
G75*
D01*
G03X91916Y84964I2026J965*
G01*
X96084Y84964D01*
G75*
D01*
G03X98328Y87208I0J2244*
G01*
X98328Y88292D01*
G74*
D01*
G03X96084Y90536I2244J0*
G01*
X91916Y90536D01*
G75*
D01*
G03X89890Y89257I0J-2244*
G01*
X79374Y89257D01*
X79185Y89446D01*
G75*
D01*
G03X77054Y87315I-4113J1982*
G01*
X65614Y102359D02*
X64141Y100886D01*
G75*
D01*
G03X64141Y96114I2386J-2386*
G01*
X65614Y94641D01*
G75*
D01*
G03X70386Y94641I2386J2386*
G01*
X71859Y96114D01*
G75*
D01*
G03X71859Y100886I-2386J2386*
G01*
X70386Y102359D01*
G75*
D01*
G03X65614Y102359I-2386J-2386*
G01*
X67877Y116771D02*
X70175Y118250D01*
X67877Y119729D01*
G74*
D01*
G03X67672Y118792I2038J937*
G01*
X67672Y117708D01*
G75*
D01*
G03X67877Y116771I2244J0*
G01*
X69545Y115495D02*
G75*
D01*
G03X69916Y115464I372J2212*
G01*
X74084Y115464D01*
G74*
D01*
G03X74455Y115495I1J2244*
G01*
X72000Y117075D01*
X69545Y115495D01*
X76123Y116771D02*
G75*
D01*
G03X76328Y117708I-2038J937*
G01*
X76328Y118792D01*
G74*
D01*
G03X76123Y119729I2244J0*
G01*
X73825Y118250D01*
X76123Y116771D01*
X74455Y121005D02*
G74*
D01*
G03X74084Y121036I372J2212*
G01*
X69916Y121036D01*
G75*
D01*
G03X69545Y121005I1J-2244*
G01*
X72000Y119425D01*
X74455Y121005D01*
X77877Y116771D02*
X80175Y118250D01*
X77877Y119729D01*
G74*
D01*
G03X77672Y118792I2038J937*
G01*
X77672Y117708D01*
G75*
D01*
G03X77877Y116771I2244J0*
G01*
X79545Y115495D02*
G75*
D01*
G03X79916Y115464I372J2212*
G01*
X84084Y115464D01*
G74*
D01*
G03X84455Y115495I1J2244*
G01*
X82000Y117075D01*
X79545Y115495D01*
X86123Y116771D02*
G75*
D01*
G03X86328Y117708I-2038J937*
G01*
X86328Y118792D01*
G74*
D01*
G03X86123Y119729I2244J0*
G01*
X83825Y118250D01*
X86123Y116771D01*
X84455Y121005D02*
G74*
D01*
G03X84084Y121036I372J2212*
G01*
X79916Y121036D01*
G75*
D01*
G03X79545Y121005I1J-2244*
G01*
X82000Y119425D01*
X84455Y121005D01*
X87877Y116771D02*
X90175Y118250D01*
X87877Y119729D01*
G74*
D01*
G03X87672Y118792I2038J937*
G01*
X87672Y117708D01*
G75*
D01*
G03X87877Y116771I2244J0*
G01*
X89545Y115495D02*
G75*
D01*
G03X89916Y115464I372J2212*
G01*
X94084Y115464D01*
G74*
D01*
G03X94455Y115495I1J2244*
G01*
X92000Y117075D01*
X89545Y115495D01*
X96123Y116771D02*
G75*
D01*
G03X96328Y117708I-2038J937*
G01*
X96328Y118792D01*
G74*
D01*
G03X96123Y119729I2244J0*
G01*
X93825Y118250D01*
X96123Y116771D01*
X94455Y121005D02*
G74*
D01*
G03X94084Y121036I372J2212*
G01*
X89916Y121036D01*
G75*
D01*
G03X89545Y121005I1J-2244*
G01*
X92000Y119425D01*
X94455Y121005D01*
X77890Y124243D02*
G75*
D01*
G03X79916Y122964I2026J965*
G01*
X84084Y122964D01*
G75*
D01*
G03X86328Y125208I0J2244*
G01*
X86328Y126292D01*
G74*
D01*
G03X84084Y128536I2244J0*
G01*
X79916Y128536D01*
G75*
D01*
G03X77890Y127257I0J-2244*
G01*
X76110Y127257D01*
G74*
D01*
G03X74084Y128536I2026J965*
G01*
X69916Y128536D01*
G75*
D01*
G03X67890Y127257I0J-2244*
G01*
X64689Y127257D01*
G75*
D01*
G03X64393Y124243I-2688J-1258*
G01*
X67890Y124243D01*
G75*
D01*
G03X69916Y122964I2026J965*
G01*
X74084Y122964D01*
G74*
D01*
G03X76110Y124243I0J2244*
G01*
X77890Y124243D01*
X118951Y138213D02*
G74*
D01*
G03X118731Y137579I804J634*
G01*
X118731Y127579D01*
G75*
D01*
G03X118839Y127120I1025J-1*
G01*
X118839Y126971D01*
X116222Y124354D01*
X96159Y124354D01*
G75*
D01*
G03X96328Y125208I-2074J854*
G01*
X96328Y126292D01*
G74*
D01*
G03X94084Y128536I2244J0*
G01*
X89916Y128536D01*
G75*
D01*
G03X87672Y126292I0J-2244*
G01*
X87672Y125208D01*
G75*
D01*
G03X89916Y122964I2244J0*
G01*
X92654Y122964D01*
X93838Y121781D01*
G74*
D01*
G03X94679Y121356I1066J1064*
G01*
G75*
D01*
G03X94904Y121339I226J1489*
G01*
X116846Y121339D01*
G75*
D01*
G03X116919Y121341I-5J1507*
G01*
G74*
D01*
G03X117914Y121783I73J1504*
G01*
X121410Y125279D01*
G75*
D01*
G03X121854Y126346I-1062J1068*
G01*
X121854Y126554D01*
X122905Y126554D01*
G74*
D01*
G03X123299Y126632I2J1025*
G01*
G75*
D01*
G03X123693Y126554I392J947*
G01*
X123711Y126554D01*
X123711Y126944D01*
G75*
D01*
G03X123930Y127579I-807J634*
G01*
X123930Y137579D01*
G74*
D01*
G03X123711Y138213I1025J1*
G01*
X123711Y138604D01*
X123693Y138604D01*
G75*
D01*
G03X123299Y138525I1J-1025*
G01*
G74*
D01*
G03X122905Y138604I394J945*
G01*
X121724Y138604D01*
G75*
D01*
G03X121331Y138525I2J-1025*
G01*
G74*
D01*
G03X120937Y138604I394J945*
G01*
X119756Y138604D01*
G75*
D01*
G03X119362Y138525I1J-1025*
G01*
G74*
D01*
G03X118968Y138604I394J945*
G01*
X118951Y138604D01*
X118951Y138213D01*
X117787Y126554D02*
X117805Y126554D01*
X117805Y132006D01*
X116762Y132006D01*
X116762Y127579D01*
G75*
D01*
G03X117787Y126554I1025J0*
G01*
X52819Y134000D02*
G75*
D01*
G03X52819Y134000I1181J0*
G01*
X56776Y132947D02*
X55053Y132947D01*
X55053Y131224D01*
G74*
D01*
G03X56776Y132947I1053J2776*
G01*
X52947Y131224D02*
X52947Y132947D01*
X51224Y132947D01*
G74*
D01*
G03X52947Y131224I2776J1053*
G01*
X55053Y136776D02*
X55053Y135053D01*
X56776Y135053D01*
G74*
D01*
G03X55053Y136776I2776J1053*
G01*
X51224Y135053D02*
X52947Y135053D01*
X52947Y136776D01*
G74*
D01*
G03X51224Y135053I1053J2776*
G01*
X69531Y136000D02*
G75*
D01*
G03X69531Y136000I2969J0*
G01*
X117787Y138604D02*
G75*
D01*
G03X116762Y137579I0J-1025*
G01*
X116762Y133152D01*
X117805Y133152D01*
X117805Y138604D01*
X117787Y138604D01*
X48123Y136771D02*
G75*
D01*
G03X48328Y137708I-2038J937*
G01*
X48328Y138792D01*
G74*
D01*
G03X48123Y139729I2244J0*
G01*
X45825Y138250D01*
X48123Y136771D01*
X41545Y135495D02*
G75*
D01*
G03X41916Y135464I372J2212*
G01*
X46084Y135464D01*
G74*
D01*
G03X46455Y135495I1J2244*
G01*
X44000Y137075D01*
X41545Y135495D01*
X39877Y136771D02*
X42175Y138250D01*
X39877Y139729D01*
G74*
D01*
G03X39672Y138792I2038J937*
G01*
X39672Y137708D01*
G75*
D01*
G03X39877Y136771I2244J0*
G01*
X208933Y148000D02*
G75*
D01*
G03X208933Y148000I4567J0*
G01*
X208933Y138000D02*
G75*
D01*
G03X208933Y138000I4567J0*
G01*
X212458Y113584D02*
X214542Y113584D01*
G75*
D01*
G03X217916Y116959I-1J3375*
G01*
X217916Y119042D01*
G74*
D01*
G03X214542Y122416I3374J0*
G01*
X212458Y122416D01*
G75*
D01*
G03X209084Y119042I0J-3374*
G01*
X209084Y116959D01*
G75*
D01*
G03X212458Y113584I3374J-1*
G01*
X190455Y112505D02*
G74*
D01*
G03X190084Y112536I372J2212*
G01*
X185916Y112536D01*
G75*
D01*
G03X185545Y112505I1J-2244*
G01*
X188000Y110925D01*
X190455Y112505D01*
X192123Y108271D02*
G75*
D01*
G03X192328Y109208I-2038J937*
G01*
X192328Y110292D01*
G74*
D01*
G03X192123Y111229I2244J0*
G01*
X189825Y109750D01*
X192123Y108271D01*
X185545Y106995D02*
G75*
D01*
G03X185916Y106964I372J2212*
G01*
X190084Y106964D01*
G74*
D01*
G03X190455Y106995I1J2244*
G01*
X188000Y108575D01*
X185545Y106995D01*
X183877Y108271D02*
X186175Y109750D01*
X183877Y111229D01*
G74*
D01*
G03X183672Y110292I2038J937*
G01*
X183672Y109208D01*
G75*
D01*
G03X183877Y108271I2244J0*
G01*
X178874Y98743D02*
X180874Y100743D01*
X183890Y100743D01*
G75*
D01*
G03X185916Y99464I2026J965*
G01*
X190084Y99464D01*
G75*
D01*
G03X192328Y101708I0J2244*
G01*
X192328Y102792D01*
G74*
D01*
G03X190084Y105036I2244J0*
G01*
X185916Y105036D01*
G75*
D01*
G03X183890Y103757I0J-2244*
G01*
X180250Y103757D01*
G75*
D01*
G03X179749Y103671I1J-1507*
G01*
G74*
D01*
G03X179184Y103316I499J1421*
G01*
X176743Y100874D01*
G75*
D01*
G03X178874Y98743I-743J-2874*
G01*
X190455Y96505D02*
G74*
D01*
G03X190084Y96536I372J2212*
G01*
X185916Y96536D01*
G75*
D01*
G03X185545Y96505I1J-2244*
G01*
X188000Y94925D01*
X190455Y96505D01*
X192123Y92271D02*
G75*
D01*
G03X192328Y93208I-2038J937*
G01*
X192328Y94292D01*
G74*
D01*
G03X192123Y95229I2244J0*
G01*
X189825Y93750D01*
X192123Y92271D01*
X185545Y90995D02*
G75*
D01*
G03X185916Y90964I372J2212*
G01*
X190084Y90964D01*
G74*
D01*
G03X190455Y90995I1J2244*
G01*
X188000Y92575D01*
X185545Y90995D01*
X183877Y92271D02*
X186175Y93750D01*
X183877Y95229D01*
G74*
D01*
G03X183672Y94292I2038J937*
G01*
X183672Y93208D01*
G75*
D01*
G03X183877Y92271I2244J0*
G01*
X150874Y91743D02*
X151441Y92310D01*
X152111Y92310D01*
G75*
D01*
G03X153061Y91631I950J325*
G01*
X156998Y91631D01*
G75*
D01*
G03X158003Y92636I0J1005*
G01*
X158003Y94998D01*
G74*
D01*
G03X156998Y96003I1005J0*
G01*
X153061Y96003D01*
G75*
D01*
G03X152111Y95324I1J-1005*
G01*
X150817Y95324D01*
G75*
D01*
G03X150456Y95280I0J-1507*
G01*
G74*
D01*
G03X149751Y94883I359J1463*
G01*
X148743Y93874D01*
G75*
D01*
G03X150874Y91743I-743J-2874*
G01*
X179124Y82966D02*
G75*
D01*
G03X181966Y80124I-123J-2965*
G01*
X185373Y83531D01*
G75*
D01*
G03X185916Y83464I544J2176*
G01*
X190084Y83464D01*
G75*
D01*
G03X192328Y85708I0J2244*
G01*
X192328Y86792D01*
G74*
D01*
G03X190084Y89036I2244J0*
G01*
X185916Y89036D01*
G75*
D01*
G03X183839Y87640I1J-2244*
G01*
G74*
D01*
G03X183579Y87421I1160J1641*
G01*
X179124Y82966D01*
X148951Y80680D02*
G75*
D01*
G03X147118Y78250I-2951J319*
G01*
X148268Y77101D01*
G74*
D01*
G03X149202Y76665I1066J1064*
G01*
G75*
D01*
G03X149333Y76659I134J1501*
G01*
X151615Y76659D01*
G75*
D01*
G03X153833Y74756I2218J341*
G01*
X156167Y74756D01*
G75*
D01*
G03X158411Y77000I0J2244*
G01*
X158411Y79334D01*
G74*
D01*
G03X156167Y81577I2244J1*
G01*
X153833Y81577D01*
G75*
D01*
G03X151615Y79674I-1J-2243*
G01*
X149958Y79674D01*
X148951Y80680D01*
X156093Y107788D02*
X150536Y113346D01*
X150536Y116084D01*
G74*
D01*
G03X148292Y118328I2244J0*
G01*
X147208Y118328D01*
G75*
D01*
G03X144964Y116084I0J-2244*
G01*
X144964Y111916D01*
G75*
D01*
G03X147208Y109672I2244J0*
G01*
X148292Y109672D01*
G74*
D01*
G03X149556Y110062I0J2244*
G01*
X153522Y106096D01*
X153522Y103483D01*
X153061Y103483D01*
G75*
D01*
G03X152056Y102478I0J-1005*
G01*
X152056Y100116D01*
G75*
D01*
G03X153061Y99111I1005J0*
G01*
X156998Y99111D01*
G75*
D01*
G03X158003Y100116I0J1005*
G01*
X158003Y100132D01*
G74*
D01*
G03X158115Y100234I957J1164*
G01*
X167346Y109464D01*
X170084Y109464D01*
G75*
D01*
G03X172328Y111708I0J2244*
G01*
X172328Y112792D01*
G74*
D01*
G03X170084Y115036I2244J0*
G01*
X165916Y115036D01*
G75*
D01*
G03X163672Y112792I0J-2244*
G01*
X163672Y111708D01*
G75*
D01*
G03X164062Y110444I2244J0*
G01*
X157097Y103478D01*
G74*
D01*
G03X156998Y103483I100J999*
G01*
X156537Y103483D01*
X156537Y106720D01*
G74*
D01*
G03X156093Y107788I1507J0*
G01*
X163890Y118243D02*
G75*
D01*
G03X165916Y116964I2026J965*
G01*
X170084Y116964D01*
G75*
D01*
G03X172328Y119208I0J2244*
G01*
X172328Y120292D01*
G74*
D01*
G03X170084Y122536I2244J0*
G01*
X165916Y122536D01*
G75*
D01*
G03X163890Y121257I0J-2244*
G01*
X160250Y121257D01*
G75*
D01*
G03X159856Y121205I-2J-1507*
G01*
G74*
D01*
G03X159184Y120816I394J1455*
G01*
X158320Y119951D01*
G75*
D01*
G03X160750Y118118I-319J-2951*
G01*
X160874Y118243D01*
X163890Y118243D01*
X163493Y77385D02*
G74*
D01*
G03X161589Y75167I339J2217*
G01*
X161589Y72833D01*
G75*
D01*
G03X163833Y70589I2244J0*
G01*
X166167Y70589D01*
G75*
D01*
G03X168411Y72833I0J2244*
G01*
X168411Y75167D01*
G74*
D01*
G03X166507Y77385I2244J0*
G01*
X166507Y95480D01*
G75*
D01*
G03X167058Y96376I-453J896*
G01*
X167058Y98738D01*
G74*
D01*
G03X166334Y99703I1005J0*
G01*
X167680Y101049D01*
G75*
D01*
G03X165250Y102882I319J2951*
G01*
X163019Y100650D01*
G74*
D01*
G03X162586Y99743I1065J1065*
G01*
X162116Y99743D01*
G75*
D01*
G03X161111Y98738I0J-1005*
G01*
X161111Y96376D01*
G75*
D01*
G03X162116Y95371I1005J0*
G01*
X163493Y95371D01*
X163493Y77385D01*
X142737Y98078D02*
G75*
D01*
G03X142441Y101505I2263J1922*
G01*
G74*
D01*
G03X141462Y101066I87J1505*
G01*
X138139Y97743D01*
X136116Y97743D01*
G75*
D01*
G03X135111Y96738I0J-1005*
G01*
X135111Y94376D01*
G75*
D01*
G03X136116Y93371I1005J0*
G01*
X136577Y93371D01*
X136577Y75027D01*
G74*
D01*
G03X135589Y73167I1256J1860*
G01*
X135589Y70833D01*
G75*
D01*
G03X137833Y68589I2244J0*
G01*
X140167Y68589D01*
G75*
D01*
G03X142411Y70833I0J2244*
G01*
X142411Y73167D01*
G74*
D01*
G03X140167Y75411I2244J0*
G01*
X139592Y75411D01*
X139592Y93371D01*
X140053Y93371D01*
G75*
D01*
G03X141058Y94376I0J1005*
G01*
X141058Y96399D01*
X142737Y98078D01*
X208933Y128000D02*
G75*
D01*
G03X208933Y128000I4567J0*
G01*
X201993Y220081D02*
X201993Y212841D01*
X200728Y211576D01*
G75*
D01*
G03X198078Y210977I-931J-2042*
G01*
X195399Y207784D01*
G75*
D01*
G03X195676Y204623I1719J-1442*
G01*
X196506Y203926D01*
G75*
D01*
G03X199667Y204202I1443J1718*
G01*
X202346Y207395D01*
G75*
D01*
G03X202803Y209388I-1719J1443*
G01*
X204564Y211149D01*
G75*
D01*
G03X205007Y212217I-1064J1067*
G01*
X205007Y219953D01*
G74*
D01*
G03X206214Y220863I1376J3081*
G01*
X207553Y222459D01*
G75*
D01*
G03X207137Y227214I-2585J2170*
G01*
X205541Y228553D01*
G75*
D01*
G03X200786Y228137I-2170J-2585*
G01*
X199447Y226541D01*
G75*
D01*
G03X199863Y221786I2585J-2170*
G01*
X201459Y220447D01*
G74*
D01*
G03X201993Y220081I2166J2588*
G01*
X194812Y210084D02*
X195711Y211155D01*
X194700Y211091D01*
X194812Y210084D01*
X200110Y229308D02*
X197459Y229308D01*
X197459Y226658D01*
G74*
D01*
G03X200110Y229308I1618J4270*
G01*
X194090Y230928D02*
G75*
D01*
G03X194090Y230928I1750J0*
G01*
X194220Y226658D02*
X194220Y229308D01*
X191569Y229308D01*
G74*
D01*
G03X194220Y226658I4270J1620*
G01*
X191569Y232547D02*
X194220Y232547D01*
X194220Y235198D01*
G74*
D01*
G03X191569Y232547I1619J4270*
G01*
X189243Y227573D02*
G75*
D01*
G03X189686Y228641I-1064J1067*
G01*
X189686Y233045D01*
G75*
D01*
G03X186672Y233045I-1507J4310*
G01*
X186672Y229266D01*
X183229Y225823D01*
X182605Y226346D01*
G75*
D01*
G03X179444Y226070I-1442J-1719*
G01*
X178747Y225239D01*
G75*
D01*
G03X179023Y222078I1718J-1443*
G01*
X182216Y219399D01*
G75*
D01*
G03X185377Y219676I1442J1718*
G01*
X186074Y220506D01*
G75*
D01*
G03X185798Y223667I-1718J1443*
G01*
X185547Y223878D01*
X189243Y227573D01*
X181582Y233913D02*
G75*
D01*
G03X182026Y234981I-1062J1068*
G01*
X182026Y239473D01*
G75*
D01*
G03X179011Y239473I-1507J4310*
G01*
X179011Y235605D01*
X175229Y231823D01*
X174605Y232346D01*
G75*
D01*
G03X171444Y232070I-1442J-1719*
G01*
X170747Y231239D01*
G75*
D01*
G03X171023Y228078I1718J-1443*
G01*
X174216Y225399D01*
G75*
D01*
G03X177377Y225676I1442J1719*
G01*
X178074Y226506D01*
G75*
D01*
G03X177798Y229667I-1718J1443*
G01*
X177547Y229878D01*
X181582Y233913D01*
X197459Y235198D02*
X197459Y232547D01*
X200110Y232547D01*
G74*
D01*
G03X197459Y235198I4270J1619*
G01*
X208933Y208000D02*
G75*
D01*
G03X208933Y208000I4567J0*
G01*
X194089Y216599D02*
X194387Y213912D01*
X197085Y214085D01*
G74*
D01*
G03X196324Y215377I2203J427*
G01*
X195494Y216074D01*
G74*
D01*
G03X194089Y216599I1442J1718*
G01*
X191443Y214737D02*
X190544Y213666D01*
X191554Y213730D01*
X191443Y214737D01*
X167475Y186638D02*
G74*
D01*
G03X167396Y186244I945J394*
G01*
X167396Y185063D01*
G75*
D01*
G03X167475Y184669I1025J1*
G01*
G74*
D01*
G03X167396Y184276I945J394*
G01*
X167396Y183095D01*
G75*
D01*
G03X167475Y182701I1025J1*
G01*
G74*
D01*
G03X167396Y182307I945J394*
G01*
X167396Y181126D01*
G75*
D01*
G03X167475Y180732I1025J1*
G01*
G74*
D01*
G03X167396Y180339I945J394*
G01*
X167396Y179158D01*
G75*
D01*
G03X167475Y178764I1025J1*
G01*
G74*
D01*
G03X167396Y178370I945J394*
G01*
X167396Y177189D01*
G75*
D01*
G03X167475Y176795I1025J1*
G01*
G74*
D01*
G03X167396Y176402I945J394*
G01*
X167396Y175220D01*
G75*
D01*
G03X167475Y174827I1025J2*
G01*
G74*
D01*
G03X167396Y174433I945J394*
G01*
X167396Y173252D01*
G75*
D01*
G03X167475Y172858I1025J1*
G01*
G74*
D01*
G03X167396Y172465I945J394*
G01*
X167396Y171413D01*
X164219Y171413D01*
X161951Y173680D01*
G75*
D01*
G03X160118Y171250I-2951J319*
G01*
X161924Y169444D01*
X158685Y169444D01*
G75*
D01*
G03X159913Y166430I-1685J-2444*
G01*
X162798Y166430D01*
X158876Y162507D01*
X157557Y162507D01*
G75*
D01*
G03X157557Y159493I-2557J-1507*
G01*
X159499Y159493D01*
G75*
D01*
G03X159718Y159509I0J1507*
G01*
G74*
D01*
G03X160568Y159936I216J1490*
G01*
X165093Y164461D01*
X167963Y164461D01*
G75*
D01*
G03X168421Y164353I458J917*
G01*
X178421Y164353D01*
G74*
D01*
G03X178880Y164461I1J1025*
G01*
X188219Y164461D01*
G74*
D01*
G03X189286Y164905I2J1508*
G01*
X189346Y164964D01*
X192084Y164964D01*
G74*
D01*
G03X194110Y166243I0J2244*
G01*
X195890Y166243D01*
G75*
D01*
G03X197916Y164964I2026J965*
G01*
X202084Y164964D01*
G75*
D01*
G03X204328Y167208I0J2244*
G01*
X204328Y168292D01*
G74*
D01*
G03X202084Y170536I2244J0*
G01*
X197916Y170536D01*
G75*
D01*
G03X195890Y169257I0J-2244*
G01*
X194110Y169257D01*
G74*
D01*
G03X192084Y170536I2026J965*
G01*
X187916Y170536D01*
G75*
D01*
G03X185672Y168292I0J-2244*
G01*
X185672Y167476D01*
X179446Y167476D01*
X179446Y168528D01*
G74*
D01*
G03X179368Y168921I1025J1*
G01*
G75*
D01*
G03X179446Y169315I-947J392*
G01*
X179446Y170496D01*
G74*
D01*
G03X179368Y170890I1025J2*
G01*
G75*
D01*
G03X179446Y171283I-947J392*
G01*
X179446Y172465D01*
G74*
D01*
G03X179368Y172858I1025J1*
G01*
G75*
D01*
G03X179446Y173252I-947J392*
G01*
X179446Y174433D01*
G74*
D01*
G03X179368Y174827I1025J2*
G01*
G75*
D01*
G03X179446Y175220I-947J392*
G01*
X179446Y176402D01*
G74*
D01*
G03X179368Y176795I1025J1*
G01*
G75*
D01*
G03X179446Y177189I-947J392*
G01*
X179446Y178370D01*
G74*
D01*
G03X179368Y178764I1025J2*
G01*
G75*
D01*
G03X179446Y179158I-947J392*
G01*
X179446Y180339D01*
G74*
D01*
G03X179368Y180732I1025J1*
G01*
G75*
D01*
G03X179446Y181126I-947J392*
G01*
X179446Y182307D01*
G74*
D01*
G03X179368Y182701I1025J2*
G01*
G75*
D01*
G03X179446Y183095I-947J392*
G01*
X179446Y184276D01*
G74*
D01*
G03X179368Y184669I1025J1*
G01*
G75*
D01*
G03X179446Y185063I-947J392*
G01*
X179446Y186244D01*
G74*
D01*
G03X179368Y186638I1025J2*
G01*
G75*
D01*
G03X179446Y187032I-947J392*
G01*
X179446Y188213D01*
G74*
D01*
G03X178421Y189238I1025J0*
G01*
X168421Y189238D01*
G75*
D01*
G03X167396Y188213I0J-1025*
G01*
X167396Y187032D01*
G75*
D01*
G03X167475Y186638I1025J1*
G01*
X189170Y210736D02*
G74*
D01*
G03X189930Y209444I2202J426*
G01*
X190761Y208747D01*
G74*
D01*
G03X192165Y208222I1442J1718*
G01*
X191867Y210909D01*
X189170Y210736D01*
X209230Y199619D02*
X211881Y199619D01*
X211881Y202270D01*
G74*
D01*
G03X209230Y199619I1619J4270*
G01*
X217770Y196381D02*
X215119Y196381D01*
X215119Y193730D01*
G74*
D01*
G03X217770Y196381I1619J4270*
G01*
X211881Y193730D02*
X211881Y196381D01*
X209230Y196381D01*
G74*
D01*
G03X211881Y193730I4270J1619*
G01*
X211750Y198000D02*
G75*
D01*
G03X211750Y198000I1750J0*
G01*
X215119Y202270D02*
X215119Y199619D01*
X217770Y199619D01*
G74*
D01*
G03X215119Y202270I4270J1619*
G01*
X208933Y188000D02*
G75*
D01*
G03X208933Y188000I4567J0*
G01*
X186500Y192500D02*
G75*
D01*
G03X186500Y192500I6500J0*
G01*
X208933Y178000D02*
G75*
D01*
G03X208933Y178000I4567J0*
G01*
X208933Y168000D02*
G75*
D01*
G03X208933Y168000I4567J0*
G01*
X202455Y163005D02*
G74*
D01*
G03X202084Y163036I372J2212*
G01*
X197916Y163036D01*
G75*
D01*
G03X197545Y163005I1J-2244*
G01*
X200000Y161425D01*
X202455Y163005D01*
X195877Y158771D02*
X198175Y160250D01*
X195877Y161729D01*
G74*
D01*
G03X195672Y160792I2038J937*
G01*
X195672Y159708D01*
G75*
D01*
G03X195877Y158771I2244J0*
G01*
X197545Y157495D02*
G75*
D01*
G03X197916Y157464I372J2212*
G01*
X202084Y157464D01*
G74*
D01*
G03X202455Y157495I1J2244*
G01*
X200000Y159075D01*
X197545Y157495D01*
X204123Y158771D02*
G75*
D01*
G03X204328Y159708I-2038J937*
G01*
X204328Y160792D01*
G74*
D01*
G03X204123Y161729I2244J0*
G01*
X201825Y160250D01*
X204123Y158771D01*
X192455Y163005D02*
G74*
D01*
G03X192084Y163036I372J2212*
G01*
X187916Y163036D01*
G75*
D01*
G03X187545Y163005I1J-2244*
G01*
X190000Y161425D01*
X192455Y163005D01*
X194123Y158771D02*
G75*
D01*
G03X194328Y159708I-2038J937*
G01*
X194328Y160792D01*
G74*
D01*
G03X194123Y161729I2244J0*
G01*
X191825Y160250D01*
X194123Y158771D01*
X167007Y255456D02*
G75*
D01*
G02X157205Y66677I-32507J-92956*
G01*
G75*
D01*
G03X158411Y68666I-1037J1989*
G01*
X158411Y71000D01*
G74*
D01*
G03X156167Y73244I2244J0*
G01*
X153833Y73244D01*
G75*
D01*
G03X151615Y71341I0J-2244*
G01*
X148826Y71341D01*
G75*
D01*
G03X149891Y68326I-1825J-2340*
G01*
X151615Y68326D01*
G75*
D01*
G03X153833Y66423I2217J340*
G01*
X156103Y66423D01*
G75*
D01*
G02X97765Y71132I-21604J96076*
G01*
G75*
D01*
G03X96257Y76874I-754J2871*
G01*
X95667Y77464D01*
X96084Y77464D01*
G75*
D01*
G03X98328Y79708I0J2244*
G01*
X98328Y80792D01*
G74*
D01*
G03X96084Y83036I2244J0*
G01*
X91916Y83036D01*
G75*
D01*
G03X89672Y80792I0J-2244*
G01*
X89672Y79708D01*
G75*
D01*
G03X91916Y77464I2244J0*
G01*
X92493Y77464D01*
X92493Y77003D01*
G75*
D01*
G03X92934Y75934I1507J-4*
G01*
X94126Y74743D01*
G75*
D01*
G03X94407Y72555I2873J-743*
G01*
G74*
D01*
G02X38514Y140493I40092J89945*
G01*
X42341Y140493D01*
X44000Y139425D01*
X45659Y140493D01*
X80452Y140493D01*
G74*
D01*
G03X79672Y138792I1464J1701*
G01*
X79672Y137708D01*
G75*
D01*
G03X81810Y135467I2244J0*
G01*
X85763Y131513D01*
G74*
D01*
G03X87080Y130683I2487J2487*
G01*
G75*
D01*
G03X88250Y130483I1169J3317*
G01*
X93693Y130483D01*
G75*
D01*
G03X95503Y129983I1807J3016*
G01*
X100500Y129983D01*
G75*
D01*
G03X104017Y133500I0J3517*
G01*
X104017Y136500D01*
G74*
D01*
G03X103098Y138871I3517J0*
G01*
X105120Y138871D01*
G75*
D01*
G03X105579Y138762I460J915*
G01*
X115579Y138762D01*
G75*
D01*
G03X116604Y139787I0J1025*
G01*
X116604Y140968D01*
G74*
D01*
G03X116525Y141362I1025J1*
G01*
G75*
D01*
G03X116604Y141756I-945J394*
G01*
X116604Y142937D01*
G74*
D01*
G03X116525Y143331I1025J1*
G01*
G75*
D01*
G03X116604Y143724I-945J394*
G01*
X116604Y144179D01*
X127464Y155040D01*
X127873Y155448D01*
X127889Y155464D01*
X161321Y188896D01*
X162276Y188896D01*
G74*
D01*
G03X162669Y188975I2J1025*
G01*
G75*
D01*
G03X163063Y188896I394J945*
G01*
X164244Y188896D01*
G74*
D01*
G03X164638Y188975I1J1025*
G01*
G75*
D01*
G03X165032Y188896I394J945*
G01*
X165049Y188896D01*
X165049Y189287D01*
G75*
D01*
G03X165269Y189921I-804J634*
G01*
X165269Y192845D01*
X166195Y193770D01*
X166195Y188896D01*
X166213Y188896D01*
G75*
D01*
G03X167238Y189921I0J1025*
G01*
X167238Y194348D01*
X166739Y194348D01*
G75*
D01*
G03X167007Y195207I-1239J858*
G01*
X167007Y195494D01*
X167238Y195494D01*
X167238Y199921D01*
G74*
D01*
G03X167007Y200569I1025J0*
G01*
X167007Y221658D01*
X169395Y219654D01*
G75*
D01*
G03X172556Y219930I1442J1719*
G01*
X172601Y219984D01*
X173603Y218982D01*
G75*
D01*
G03X174202Y216333I2041J-931*
G01*
X176082Y214755D01*
X176082Y214714D01*
X173118Y211750D01*
G75*
D01*
G03X174951Y209320I-1118J-2749*
G01*
X178653Y213022D01*
G74*
D01*
G03X178752Y213130I1059J1070*
G01*
G75*
D01*
G03X180556Y213930I85J2242*
G01*
X181253Y214761D01*
G75*
D01*
G03X180977Y217922I-1718J1443*
G01*
X177784Y220601D01*
G75*
D01*
G03X175791Y221057I-1442J-1719*
G01*
X173402Y223446D01*
G74*
D01*
G03X172977Y223922I1869J1241*
G01*
X172666Y224183D01*
X172657Y224191D01*
G74*
D01*
G03X172443Y224370I1069J1061*
G01*
X169784Y226601D01*
G75*
D01*
G03X167007Y226686I-1442J-1718*
G01*
X167007Y255456D01*
X119229Y247877D02*
G74*
D01*
G02X118292Y247672I937J2038*
G01*
X117208Y247672D01*
G75*
D01*
G02X116271Y247877I0J2244*
G01*
X117607Y249953D01*
X117607Y249953D01*
X117750Y250175D01*
X117893Y249953D01*
X117893Y249953D01*
X119229Y247877D01*
X120536Y249916D02*
G75*
D01*
G02X120505Y249545I-2244J1*
G01*
X120243Y249953D01*
X120243Y249953D01*
X118925Y252000D01*
X120505Y254455D01*
G74*
D01*
G02X120536Y254084I2212J372*
G01*
X120536Y249916D01*
X114995Y249545D02*
G75*
D01*
G02X114964Y249916I2212J372*
G01*
X114964Y254084D01*
G74*
D01*
G02X114995Y254455I2244J1*
G01*
X116575Y252000D01*
X115257Y249953D01*
X115257Y249953D01*
X114995Y249545D01*
X147757Y249890D02*
X147757Y248110D01*
G74*
D01*
G02X149036Y246084I965J2026*
G01*
X149036Y241916D01*
G75*
D01*
G02X146792Y239672I-2244J0*
G01*
X145708Y239672D01*
G75*
D01*
G02X143464Y241916I0J2244*
G01*
X143464Y242493D01*
X140536Y242493D01*
X140536Y241916D01*
G75*
D01*
G02X139257Y239890I-2244J0*
G01*
X139257Y238288D01*
X141441Y238288D01*
G74*
D01*
G02X142130Y238015I0J1005*
G01*
G75*
D01*
G02X142819Y238288I689J-732*
G01*
X143225Y238288D01*
X143225Y235893D01*
X142446Y235893D01*
X142446Y234343D01*
X143225Y234343D01*
X143225Y231948D01*
X142819Y231948D01*
G75*
D01*
G02X142130Y232221I0J1005*
G01*
G74*
D01*
G02X141441Y231948I689J732*
G01*
X139079Y231948D01*
G75*
D01*
G02X138074Y232953I0J1005*
G01*
X138074Y235172D01*
X136684Y236562D01*
G75*
D01*
G02X136243Y237631I1066J1065*
G01*
X136243Y239890D01*
G75*
D01*
G02X134964Y241916I965J2026*
G01*
X134964Y246084D01*
G75*
D01*
G02X137208Y248328I2244J0*
G01*
X138292Y248328D01*
G74*
D01*
G02X140536Y246084I0J2244*
G01*
X140536Y245507D01*
X143464Y245507D01*
X143464Y246084D01*
G74*
D01*
G02X144743Y248110I2244J0*
G01*
X144743Y249890D01*
G75*
D01*
G02X143464Y251916I965J2026*
G01*
X143464Y256084D01*
G75*
D01*
G02X145708Y258328I2244J0*
G01*
X146792Y258328D01*
G74*
D01*
G02X149036Y256084I0J2244*
G01*
X149036Y251916D01*
G75*
D01*
G02X147757Y249890I-2244J0*
G01*
X156534Y251834D02*
G74*
D01*
G02X155257Y249890I2242J81*
G01*
X155257Y248110D01*
G74*
D01*
G02X156536Y246084I965J2026*
G01*
X156536Y241916D01*
G75*
D01*
G02X154430Y239676I-2244J0*
G01*
X149926Y235172D01*
X149926Y232953D01*
G75*
D01*
G02X148921Y231948I-1005J0*
G01*
X146559Y231948D01*
G75*
D01*
G02X145870Y232221I0J1005*
G01*
G74*
D01*
G02X145181Y231948I689J732*
G01*
X144775Y231948D01*
X144775Y234343D01*
X145554Y234343D01*
X145554Y235893D01*
X144775Y235893D01*
X144775Y238288D01*
X145181Y238288D01*
G74*
D01*
G02X145870Y238015I0J1005*
G01*
G75*
D01*
G02X146559Y238288I689J-732*
G01*
X148779Y238288D01*
X151272Y240782D01*
G75*
D01*
G02X150964Y241916I1935J1134*
G01*
X150964Y246084D01*
G74*
D01*
G02X152243Y248110I2244J0*
G01*
X152243Y249890D01*
G75*
D01*
G02X150964Y251916I965J2026*
G01*
X150964Y256084D01*
G75*
D01*
G02X153208Y258328I2244J0*
G01*
X154292Y258328D01*
G74*
D01*
G02X156536Y256084I0J2244*
G01*
X156536Y255507D01*
G74*
D01*
G02X157568Y255064I36J1507*
G01*
X160680Y251951D01*
G75*
D01*
G02X158250Y250118I319J-2951*
G01*
X156534Y251834D01*
X128743Y248110D02*
X128743Y255072D01*
G75*
D01*
G02X131757Y254130I2257J1928*
G01*
X131757Y248110D01*
G74*
D01*
G02X133036Y246084I965J2026*
G01*
X133036Y242388D01*
G74*
D01*
G02X133247Y241618I1296J769*
G01*
X133247Y238234D01*
G74*
D01*
G02X133926Y237283I326J951*
G01*
X133926Y232953D01*
G75*
D01*
G02X132921Y231948I-1005J0*
G01*
X130559Y231948D01*
G75*
D01*
G02X129870Y232221I0J1005*
G01*
G74*
D01*
G02X129181Y231948I689J732*
G01*
X128775Y231948D01*
X128775Y234343D01*
X129554Y234343D01*
X129554Y235893D01*
X128775Y235893D01*
X128775Y238288D01*
X129181Y238288D01*
G74*
D01*
G02X129870Y238015I0J1005*
G01*
G74*
D01*
G02X130233Y238234I689J732*
G01*
X130233Y239672D01*
X129708Y239672D01*
G75*
D01*
G02X127464Y241916I0J2244*
G01*
X127464Y246084D01*
G74*
D01*
G02X128743Y248110I2244J0*
G01*
X56123Y157729D02*
G74*
D01*
G02X56328Y156792I2038J937*
G01*
X56328Y155708D01*
G75*
D01*
G02X56123Y154771I-2244J0*
G01*
X55046Y155464D01*
X55046Y155464D01*
X53825Y156250D01*
X56123Y157729D01*
X47672Y155708D02*
X47672Y156792D01*
G74*
D01*
G02X47877Y157729I2244J0*
G01*
X50175Y156250D01*
X48954Y155464D01*
X48954Y155464D01*
X47877Y154771D01*
G75*
D01*
G02X47672Y155708I2038J937*
G01*
X45270Y155881D02*
G74*
D01*
G02X42619Y153230I4270J1619*
G01*
X42619Y155881D01*
X45270Y155881D01*
X36730Y155881D02*
X39381Y155881D01*
X39381Y153230D01*
G74*
D01*
G02X36730Y155881I1619J4270*
G01*
X57712Y157441D02*
G74*
D01*
G02X57985Y158130I1005J0*
G01*
G75*
D01*
G02X57712Y158819I732J689*
G01*
X57712Y159225D01*
X60107Y159225D01*
X60107Y158446D01*
X61657Y158446D01*
X61657Y159225D01*
X64052Y159225D01*
X64052Y158819D01*
G75*
D01*
G02X63779Y158130I-1005J0*
G01*
G74*
D01*
G02X63877Y158008I732J688*
G01*
X64993Y159124D01*
X64993Y161376D01*
X64136Y162233D01*
X63998Y162233D01*
G74*
D01*
G02X63779Y161870I951J326*
G01*
G74*
D01*
G02X64052Y161181I732J689*
G01*
X64052Y160775D01*
X61657Y160775D01*
X61657Y161364D01*
G74*
D01*
G02X60872Y161238I785J2385*
G01*
X60107Y161238D01*
X60107Y160775D01*
X57712Y160775D01*
X57712Y161181D01*
G74*
D01*
G02X57713Y161238I1005J11*
G01*
X55158Y161238D01*
G74*
D01*
G02X54084Y160964I1074J1969*
G01*
X49916Y160964D01*
G75*
D01*
G02X47672Y163208I0J2244*
G01*
X47672Y164292D01*
G74*
D01*
G02X47683Y164514I2244J0*
G01*
X47209Y164988D01*
X45079Y164988D01*
G74*
D01*
G02X42042Y163084I3037J1470*
G01*
X39959Y163084D01*
G75*
D01*
G02X36584Y166459I0J3375*
G01*
X36584Y168542D01*
G75*
D01*
G02X39959Y171916I3375J-1*
G01*
X42042Y171916D01*
G74*
D01*
G02X45079Y170012I0J3374*
G01*
X48247Y170012D01*
G75*
D01*
G02X49098Y169865I4J-2512*
G01*
G74*
D01*
G02X50029Y169274I848J2365*
G01*
X52767Y166536D01*
X54084Y166536D01*
G74*
D01*
G02X55158Y166262I1J2244*
G01*
X60872Y166262D01*
G74*
D01*
G02X62127Y165926I0J2512*
G01*
X63047Y165926D01*
G74*
D01*
G02X63998Y165247I0J1005*
G01*
X64757Y165247D01*
G75*
D01*
G02X65273Y165157I3J-1507*
G01*
G74*
D01*
G02X65828Y164804I512J1417*
G01*
X67564Y163068D01*
G74*
D01*
G02X68007Y162000I1064J1067*
G01*
X68007Y158500D01*
G75*
D01*
G02X67564Y157432I-1507J-1*
G01*
X65596Y155464D01*
X65328Y155196D01*
G74*
D01*
G02X64260Y154753I1067J1064*
G01*
X63998Y154753D01*
G74*
D01*
G02X63047Y154074I951J326*
G01*
X58717Y154074D01*
G75*
D01*
G02X57712Y155079I0J1005*
G01*
X57712Y157441D01*
X95672Y155708D02*
X95672Y156792D01*
G74*
D01*
G02X95877Y157729I2244J0*
G01*
X98175Y156250D01*
X96954Y155464D01*
X96954Y155464D01*
X95877Y154771D01*
G75*
D01*
G02X95672Y155708I2038J937*
G01*
X94123Y157729D02*
G74*
D01*
G02X94328Y156792I2038J937*
G01*
X94328Y155708D01*
G75*
D01*
G02X94123Y154771I-2244J0*
G01*
X93046Y155464D01*
X93046Y155464D01*
X91825Y156250D01*
X94123Y157729D01*
X85672Y155708D02*
X85672Y156792D01*
G74*
D01*
G02X85877Y157729I2244J0*
G01*
X88175Y156250D01*
X86954Y155464D01*
X86954Y155464D01*
X85877Y154771D01*
G75*
D01*
G02X85672Y155708I2038J937*
G01*
X84123Y157729D02*
G74*
D01*
G02X84328Y156792I2038J937*
G01*
X84328Y155708D01*
G75*
D01*
G02X84123Y154771I-2244J0*
G01*
X83046Y155464D01*
X83046Y155464D01*
X81825Y156250D01*
X84123Y157729D01*
X75672Y155708D02*
X75672Y156792D01*
G74*
D01*
G02X75877Y157729I2244J0*
G01*
X78175Y156250D01*
X76954Y155464D01*
X76954Y155464D01*
X75877Y154771D01*
G75*
D01*
G02X75672Y155708I2038J937*
G01*
X104123Y157729D02*
G74*
D01*
G02X104328Y156792I2038J937*
G01*
X104328Y155708D01*
G75*
D01*
G02X104123Y154771I-2244J0*
G01*
X103046Y155464D01*
X103046Y155464D01*
X101825Y156250D01*
X104123Y157729D01*
X49545Y153495D02*
X52000Y155075D01*
X54455Y153495D01*
G74*
D01*
G02X54084Y153464I372J2212*
G01*
X49916Y153464D01*
G75*
D01*
G02X49545Y153495I1J2244*
G01*
X46455Y148505D02*
X44000Y146925D01*
X41545Y148505D01*
G75*
D01*
G02X41916Y148536I372J-2212*
G01*
X46084Y148536D01*
G74*
D01*
G02X46455Y148505I1J2244*
G01*
X39877Y144271D02*
G75*
D01*
G02X39672Y145208I2038J937*
G01*
X39672Y146292D01*
G74*
D01*
G02X39877Y147229I2244J0*
G01*
X42175Y145750D01*
X39877Y144271D01*
X41545Y142995D02*
X44000Y144575D01*
X46455Y142995D01*
G74*
D01*
G02X46084Y142964I372J2212*
G01*
X41916Y142964D01*
G75*
D01*
G02X41545Y142995I1J2244*
G01*
X48123Y144271D02*
X45825Y145750D01*
X48123Y147229D01*
G74*
D01*
G02X48328Y146292I2038J937*
G01*
X48328Y145208D01*
G75*
D01*
G02X48123Y144271I-2244J0*
G01*
X57005Y143545D02*
X55425Y146000D01*
X57005Y148455D01*
G74*
D01*
G02X57036Y148084I2212J372*
G01*
X57036Y143916D01*
G75*
D01*
G02X57005Y143545I-2244J1*
G01*
X52771Y150123D02*
G75*
D01*
G02X53708Y150328I937J-2038*
G01*
X54792Y150328D01*
G74*
D01*
G02X55729Y150123I0J2244*
G01*
X54250Y147825D01*
X52771Y150123D01*
X51495Y148455D02*
X53075Y146000D01*
X51495Y143545D01*
G75*
D01*
G02X51464Y143916I2212J372*
G01*
X51464Y148084D01*
G74*
D01*
G02X51495Y148455I2244J1*
G01*
X97545Y153495D02*
X100000Y155075D01*
X102455Y153495D01*
G74*
D01*
G02X102084Y153464I372J2212*
G01*
X97916Y153464D01*
G75*
D01*
G02X97545Y153495I1J2244*
G01*
X87545Y153495D02*
X90000Y155075D01*
X92455Y153495D01*
G74*
D01*
G02X92084Y153464I372J2212*
G01*
X87916Y153464D01*
G75*
D01*
G02X87545Y153495I1J2244*
G01*
X77545Y153495D02*
X80000Y155075D01*
X82455Y153495D01*
G74*
D01*
G02X82084Y153464I372J2212*
G01*
X77916Y153464D01*
G75*
D01*
G02X77545Y153495I1J2244*
G01*
X94081Y142735D02*
X84000Y142735D01*
G75*
D01*
G02X82848Y142964I1J3015*
G01*
X81916Y142964D01*
G75*
D01*
G02X79672Y145208I0J2244*
G01*
X79672Y146292D01*
G75*
D01*
G02X81916Y148536I2244J0*
G01*
X82848Y148536D01*
G75*
D01*
G02X84000Y148765I1152J-2785*
G01*
X85501Y148765D01*
X88865Y152129D01*
G75*
D01*
G02X92452Y152642I2135J-2129*
G01*
G74*
D01*
G02X93133Y152130I1453J2641*
G01*
X96879Y148384D01*
G74*
D01*
G02X97450Y147590I2129J2133*
G01*
G75*
D01*
G02X94081Y142735I-1454J-2587*
G01*
X160455Y236505D02*
X158000Y234925D01*
X155545Y236505D01*
G75*
D01*
G02X155916Y236536I372J-2212*
G01*
X160084Y236536D01*
G74*
D01*
G02X160455Y236505I1J2244*
G01*
X162123Y232271D02*
X159825Y233750D01*
X162123Y235229D01*
G74*
D01*
G02X162328Y234292I2038J937*
G01*
X162328Y233208D01*
G75*
D01*
G02X162123Y232271I-2244J0*
G01*
X155545Y230995D02*
X158000Y232575D01*
X160455Y230995D01*
G74*
D01*
G02X160084Y230964I372J2212*
G01*
X155916Y230964D01*
G75*
D01*
G02X155545Y230995I1J2244*
G01*
X153877Y232271D02*
G75*
D01*
G02X153672Y233208I2038J937*
G01*
X153672Y234292D01*
G74*
D01*
G02X153877Y235229I2244J0*
G01*
X156175Y233750D01*
X153877Y232271D01*
X156952Y223409D02*
G75*
D01*
G02X156630Y223375I-318J1473*
G01*
X149926Y223375D01*
X149926Y222717D01*
G75*
D01*
G02X149834Y222297I-1005J0*
G01*
X152257Y219874D01*
G75*
D01*
G02X150126Y217743I743J-2874*
G01*
X146674Y221194D01*
G74*
D01*
G02X146326Y221739I1067J1065*
G01*
G75*
D01*
G02X145554Y222717I233J978*
G01*
X145554Y227047D01*
G75*
D01*
G02X146559Y228052I1005J0*
G01*
X148921Y228052D01*
G74*
D01*
G02X149926Y227047I0J1005*
G01*
X149926Y226389D01*
X153672Y226389D01*
X153672Y226792D01*
G75*
D01*
G02X155916Y229036I2244J0*
G01*
X160084Y229036D01*
G74*
D01*
G02X162328Y226792I0J2244*
G01*
X162328Y225708D01*
G75*
D01*
G02X160084Y223464I-2244J0*
G01*
X157144Y223464D01*
G74*
D01*
G02X156952Y223409I510J1418*
G01*
X99507Y232411D02*
X99507Y230536D01*
X100084Y230536D01*
G74*
D01*
G02X102328Y228292I0J2244*
G01*
X102328Y227208D01*
G75*
D01*
G02X100084Y224964I-2244J0*
G01*
X95916Y224964D01*
G75*
D01*
G02X93890Y226243I0J2244*
G01*
X92110Y226243D01*
G74*
D01*
G02X90084Y224964I2026J965*
G01*
X85916Y224964D01*
G75*
D01*
G02X83672Y227208I0J2244*
G01*
X83672Y228292D01*
G75*
D01*
G02X85916Y230536I2244J0*
G01*
X90084Y230536D01*
G74*
D01*
G02X92110Y229257I0J2244*
G01*
X93890Y229257D01*
G75*
D01*
G02X95916Y230536I2026J-965*
G01*
X96493Y230536D01*
X96493Y231075D01*
G75*
D01*
G02X99507Y232411I507J2924*
G01*
X60614Y209881D02*
X66838Y203657D01*
G74*
D01*
G02X67436Y203463I156J1499*
G01*
X72209Y200707D01*
G74*
D01*
G02X72368Y200602I749J1307*
G01*
X72368Y207524D01*
X63659Y216232D01*
G75*
D01*
G02X60194Y216178I-1778J2869*
G01*
X58390Y217220D01*
G75*
D01*
G02X57155Y221830I1687J2922*
G01*
X58196Y223634D01*
G75*
D01*
G02X62806Y224869I2923J-1688*
G01*
X64610Y223827D01*
G75*
D01*
G02X65845Y219217I-1687J-2922*
G01*
X65513Y218642D01*
X74939Y209216D01*
G74*
D01*
G02X75382Y208148I1064J1067*
G01*
X75382Y187594D01*
X77073Y186618D01*
G75*
D01*
G02X77894Y183553I-1121J-1943*
G01*
X77352Y182614D01*
G75*
D01*
G02X74287Y181793I-1943J1121*
G01*
X70677Y183877D01*
G75*
D01*
G02X69856Y186942I1121J1943*
G01*
X70398Y187881D01*
G75*
D01*
G02X72368Y189003I1943J-1121*
G01*
X72368Y197967D01*
X70792Y195238D01*
G75*
D01*
G02X68733Y194687I-1305J754*
G01*
X63960Y197443D01*
G75*
D01*
G02X63408Y199502I753J1305*
G01*
X64624Y201607D01*
X58483Y207749D01*
G75*
D01*
G02X60614Y209881I-1983J4113*
G01*
X46933Y203203D02*
G75*
D01*
G02X46933Y203203I4567J0*
G01*
X50846Y195947D02*
G74*
D01*
G02X51366Y195606I549J1404*
G01*
X57697Y189275D01*
G75*
D01*
G02X59267Y189313I816J-1267*
G01*
X64040Y186557D01*
G75*
D01*
G02X64592Y184498I-753J-1305*
G01*
X63816Y183156D01*
X66259Y180713D01*
X66648Y181386D01*
G75*
D01*
G02X69713Y182207I1943J-1121*
G01*
X73323Y180123D01*
G75*
D01*
G02X74144Y177058I-1121J-1943*
G01*
X73602Y176119D01*
G75*
D01*
G02X70537Y175298I-1943J1121*
G01*
X67164Y177245D01*
X66091Y177245D01*
G75*
D01*
G02X65022Y177687I-3J1507*
G01*
X62134Y180575D01*
G75*
D01*
G02X60564Y180537I-816J1267*
G01*
X55791Y183293D01*
G75*
D01*
G02X55239Y185352I752J1305*
G01*
X56014Y186695D01*
X50453Y192256D01*
G75*
D01*
G02X50846Y195947I-3952J2287*
G01*
X75500Y192500D02*
G75*
D01*
G02X75500Y192500I6500J0*
G01*
X42619Y161770D02*
G74*
D01*
G02X45270Y159119I1619J4270*
G01*
X42619Y159119D01*
X42619Y161770D01*
X36730Y159119D02*
G74*
D01*
G02X39381Y161770I4270J1619*
G01*
X39381Y159119D01*
X36730Y159119D01*
X82455Y159005D02*
X80000Y157425D01*
X77545Y159005D01*
G75*
D01*
G02X77916Y159036I372J-2212*
G01*
X82084Y159036D01*
G74*
D01*
G02X82455Y159005I1J2244*
G01*
X83890Y218743D02*
X82689Y218743D01*
G75*
D01*
G02X77126Y220743I-2691J1253*
G01*
X71974Y225895D01*
G75*
D01*
G02X74792Y227339I-544J4533*
G01*
X79257Y222874D01*
G75*
D01*
G02X82393Y221757I743J-2873*
G01*
X83890Y221757D01*
G75*
D01*
G02X85916Y223036I2026J-965*
G01*
X90084Y223036D01*
G74*
D01*
G02X92110Y221757I0J2244*
G01*
X93890Y221757D01*
G75*
D01*
G02X95916Y223036I2026J-965*
G01*
X100084Y223036D01*
G74*
D01*
G02X102328Y220792I0J2244*
G01*
X102328Y219708D01*
G75*
D01*
G02X100084Y217464I-2244J0*
G01*
X95916Y217464D01*
G75*
D01*
G02X93890Y218743I0J2244*
G01*
X92110Y218743D01*
G74*
D01*
G02X90084Y217464I2026J965*
G01*
X85916Y217464D01*
G75*
D01*
G02X83890Y218743I0J2244*
G01*
X54455Y159005D02*
X52000Y157425D01*
X49545Y159005D01*
G75*
D01*
G02X49916Y159036I372J-2212*
G01*
X54084Y159036D01*
G74*
D01*
G02X54455Y159005I1J2244*
G01*
X39250Y157500D02*
G75*
D01*
G02X39250Y157500I1750J0*
G01*
X92455Y159005D02*
X90000Y157425D01*
X87545Y159005D01*
G75*
D01*
G02X87916Y159036I372J-2212*
G01*
X92084Y159036D01*
G74*
D01*
G02X92455Y159005I1J2244*
G01*
X119229Y246123D02*
X117750Y243825D01*
X116271Y246123D01*
G75*
D01*
G02X117208Y246328I937J-2038*
G01*
X118292Y246328D01*
G74*
D01*
G02X119229Y246123I0J2244*
G01*
X114995Y244455D02*
X116575Y242000D01*
X114995Y239545D01*
G75*
D01*
G02X114964Y239916I2212J372*
G01*
X114964Y244084D01*
G74*
D01*
G02X114995Y244455I2244J1*
G01*
X119229Y237877D02*
G74*
D01*
G02X118292Y237672I937J2038*
G01*
X117208Y237672D01*
G75*
D01*
G02X116271Y237877I0J2244*
G01*
X117750Y240175D01*
X119229Y237877D01*
X120505Y239545D02*
X118925Y242000D01*
X120505Y244455D01*
G74*
D01*
G02X120536Y244084I2212J372*
G01*
X120536Y239916D01*
G75*
D01*
G02X120505Y239545I-2244J1*
G01*
X114455Y236505D02*
X112000Y234925D01*
X109545Y236505D01*
G75*
D01*
G02X109916Y236536I372J-2212*
G01*
X114084Y236536D01*
G74*
D01*
G02X114455Y236505I1J2244*
G01*
X107877Y232271D02*
G75*
D01*
G02X107672Y233208I2038J937*
G01*
X107672Y234292D01*
G74*
D01*
G02X107877Y235229I2244J0*
G01*
X110175Y233750D01*
X107877Y232271D01*
X109545Y230995D02*
X112000Y232575D01*
X114455Y230995D01*
G74*
D01*
G02X114084Y230964I372J2212*
G01*
X109916Y230964D01*
G75*
D01*
G02X109545Y230995I1J2244*
G01*
X116123Y232271D02*
X113825Y233750D01*
X116123Y235229D01*
G74*
D01*
G02X116328Y234292I2038J937*
G01*
X116328Y233208D01*
G75*
D01*
G02X116123Y232271I-2244J0*
G01*
X102455Y159005D02*
X100000Y157425D01*
X97545Y159005D01*
G75*
D01*
G02X97916Y159036I372J-2212*
G01*
X102084Y159036D01*
G74*
D01*
G02X102455Y159005I1J2244*
G01*
X116604Y146874D02*
X116604Y146311D01*
X125757Y155464D01*
X125757Y155464D01*
X127464Y157171D01*
X127464Y157171D01*
X132786Y162493D01*
X116604Y162493D01*
X116604Y161441D01*
G75*
D01*
G02X116525Y161047I-1025J1*
G01*
G74*
D01*
G02X116604Y160654I945J394*
G01*
X116604Y160636D01*
X116213Y160636D01*
G74*
D01*
G02X115579Y160416I634J804*
G01*
X105579Y160416D01*
G75*
D01*
G02X104944Y160636I0J1025*
G01*
X104554Y160636D01*
X104554Y160654D01*
G74*
D01*
G02X104632Y161047I1025J1*
G01*
G75*
D01*
G02X104554Y161441I947J392*
G01*
X104554Y162622D01*
G74*
D01*
G02X104632Y163016I1025J2*
G01*
G75*
D01*
G02X104554Y163409I947J392*
G01*
X104554Y164591D01*
G74*
D01*
G02X104632Y164984I1025J1*
G01*
G75*
D01*
G02X104554Y165378I947J392*
G01*
X104554Y165396D01*
X104944Y165396D01*
G75*
D01*
G02X105579Y165615I633J-806*
G01*
X115579Y165615D01*
G74*
D01*
G02X116037Y165507I0J1024*
G01*
X135800Y165507D01*
X142581Y172288D01*
X136997Y177871D01*
G75*
D01*
G02X136556Y178939I1066J1065*
G01*
X136556Y188896D01*
X135504Y188896D01*
G75*
D01*
G02X135110Y188975I1J1025*
G01*
G74*
D01*
G02X134717Y188896I394J945*
G01*
X133535Y188896D01*
G75*
D01*
G02X133142Y188975I2J1025*
G01*
G74*
D01*
G02X132748Y188896I394J945*
G01*
X131567Y188896D01*
G75*
D01*
G02X131173Y188975I1J1025*
G01*
G74*
D01*
G02X130780Y188896I394J945*
G01*
X129598Y188896D01*
G75*
D01*
G02X129205Y188975I2J1025*
G01*
G74*
D01*
G02X128811Y188896I394J945*
G01*
X127630Y188896D01*
G75*
D01*
G02X127236Y188975I1J1025*
G01*
G74*
D01*
G02X126843Y188896I394J945*
G01*
X125661Y188896D01*
G75*
D01*
G02X125268Y188975I2J1025*
G01*
G74*
D01*
G02X124874Y188896I394J945*
G01*
X123693Y188896D01*
G75*
D01*
G02X123299Y188975I1J1025*
G01*
G74*
D01*
G02X122905Y188896I394J945*
G01*
X121724Y188896D01*
G75*
D01*
G02X121331Y188975I2J1025*
G01*
G74*
D01*
G02X120937Y188896I394J945*
G01*
X119756Y188896D01*
G75*
D01*
G02X119362Y188975I1J1025*
G01*
G74*
D01*
G02X118968Y188896I394J945*
G01*
X117787Y188896D01*
G75*
D01*
G02X116762Y189921I0J1025*
G01*
X116762Y199921D01*
G75*
D01*
G02X117787Y200946I1025J0*
G01*
X118968Y200946D01*
G74*
D01*
G02X119362Y200868I2J1025*
G01*
G75*
D01*
G02X119756Y200946I392J-947*
G01*
X119922Y200946D01*
X119376Y201493D01*
X110000Y201493D01*
G75*
D01*
G02X109564Y201557I-1J1507*
G01*
G74*
D01*
G02X108934Y201934I436J1443*
G01*
X105743Y205126D01*
G75*
D01*
G02X106363Y210637I-742J2874*
G01*
G75*
D01*
G02X107388Y214493I2636J1363*
G01*
X105624Y214493D01*
X101507Y210376D01*
X101507Y188124D01*
X104439Y185192D01*
X104554Y185192D01*
X104554Y186244D01*
G74*
D01*
G02X104632Y186638I1025J2*
G01*
G75*
D01*
G02X104554Y187032I947J392*
G01*
X104554Y188213D01*
G75*
D01*
G02X105579Y189238I1025J0*
G01*
X115579Y189238D01*
G74*
D01*
G02X116604Y188213I0J1025*
G01*
X116604Y187032D01*
G75*
D01*
G02X116525Y186638I-1025J1*
G01*
G74*
D01*
G02X116604Y186244I945J394*
G01*
X116604Y185063D01*
G75*
D01*
G02X116525Y184669I-1025J1*
G01*
G74*
D01*
G02X116604Y184276I945J394*
G01*
X116604Y183095D01*
G75*
D01*
G02X116525Y182701I-1025J1*
G01*
G74*
D01*
G02X116604Y182307I945J394*
G01*
X116604Y181126D01*
G75*
D01*
G02X116525Y180732I-1025J1*
G01*
G74*
D01*
G02X116604Y180339I945J394*
G01*
X116604Y179158D01*
G75*
D01*
G02X116525Y178764I-1025J1*
G01*
G74*
D01*
G02X116604Y178370I945J394*
G01*
X116604Y177189D01*
G75*
D01*
G02X116525Y176795I-1025J1*
G01*
G74*
D01*
G02X116604Y176402I945J394*
G01*
X116604Y175220D01*
G75*
D01*
G02X116525Y174827I-1025J2*
G01*
G74*
D01*
G02X116604Y174433I945J394*
G01*
X116604Y173252D01*
G75*
D01*
G02X116525Y172858I-1025J1*
G01*
G74*
D01*
G02X116604Y172465I945J394*
G01*
X116604Y171283D01*
G75*
D01*
G02X116525Y170890I-1025J2*
G01*
G74*
D01*
G02X116604Y170496I945J394*
G01*
X116604Y169315D01*
G75*
D01*
G02X116525Y168921I-1025J1*
G01*
G74*
D01*
G02X116604Y168528I945J394*
G01*
X116604Y167346D01*
G75*
D01*
G02X116525Y166953I-1025J2*
G01*
G74*
D01*
G02X116604Y166559I945J394*
G01*
X116604Y166541D01*
X116213Y166541D01*
G74*
D01*
G02X115579Y166322I633J805*
G01*
X105579Y166322D01*
G75*
D01*
G02X105120Y166430I-1J1024*
G01*
X104811Y166430D01*
X103938Y165556D01*
G74*
D01*
G02X104328Y164292I1853J1264*
G01*
X104328Y163208D01*
G75*
D01*
G02X102084Y160964I-2244J0*
G01*
X97916Y160964D01*
G75*
D01*
G02X96842Y161238I1J2244*
G01*
X93158Y161238D01*
G74*
D01*
G02X92084Y160964I1074J1969*
G01*
X87916Y160964D01*
G75*
D01*
G02X86842Y161238I1J2244*
G01*
X83158Y161238D01*
G74*
D01*
G02X82084Y160964I1074J1969*
G01*
X77916Y160964D01*
G75*
D01*
G02X76860Y161228I0J2244*
G01*
X71118Y161228D01*
G75*
D01*
G02X69880Y161554I0J2512*
G01*
X68953Y161554D01*
G75*
D01*
G02X67948Y162559I0J1005*
G01*
X67948Y164921D01*
G74*
D01*
G02X68692Y165892I1005J0*
G01*
G74*
D01*
G02X69342Y167016I2426J653*
G01*
X79148Y176822D01*
G75*
D01*
G02X82505Y173075I2852J-822*
G01*
X75683Y166252D01*
X76824Y166252D01*
G75*
D01*
G02X77916Y166536I1092J-1959*
G01*
X82084Y166536D01*
G74*
D01*
G02X83158Y166262I1J2244*
G01*
X86842Y166262D01*
G75*
D01*
G02X87916Y166536I1074J-1969*
G01*
X92084Y166536D01*
G74*
D01*
G02X93158Y166262I1J2244*
G01*
X96842Y166262D01*
G75*
D01*
G02X97916Y166536I1074J-1969*
G01*
X100654Y166536D01*
X103121Y169003D01*
G74*
D01*
G02X104124Y169443I1066J1066*
G01*
G75*
D01*
G02X104187Y169444I55J-1506*
G01*
X104554Y169444D01*
X104554Y170496D01*
G74*
D01*
G02X104632Y170890I1025J2*
G01*
G75*
D01*
G02X104554Y171283I947J392*
G01*
X104554Y172335D01*
X96157Y172335D01*
G75*
D01*
G02X95617Y172436I3J1508*
G01*
G74*
D01*
G02X95092Y172777I540J1407*
G01*
X91743Y176126D01*
G75*
D01*
G02X93874Y178257I-743J2874*
G01*
X96782Y175350D01*
X104554Y175350D01*
X104554Y176402D01*
G74*
D01*
G02X104632Y176795I1025J1*
G01*
G75*
D01*
G02X104554Y177189I947J392*
G01*
X104554Y178370D01*
G74*
D01*
G02X104632Y178764I1025J2*
G01*
G75*
D01*
G02X104554Y179158I947J392*
G01*
X104554Y180209D01*
X99283Y180209D01*
G75*
D01*
G02X98846Y180274I1J1508*
G01*
G74*
D01*
G02X98218Y180651I438J1442*
G01*
X96743Y182126D01*
G75*
D01*
G02X98874Y184257I-743J2874*
G01*
X99908Y183224D01*
X102145Y183224D01*
X98934Y186434D01*
G75*
D01*
G02X98493Y187504I1066J1065*
G01*
X98493Y210997D01*
G75*
D01*
G02X98934Y212066I1507J4*
G01*
X103934Y217066D01*
G75*
D01*
G02X105002Y217507I1065J-1066*
G01*
X112500Y217507D01*
G74*
D01*
G02X113568Y217064I1J1507*
G01*
X115624Y215007D01*
X115800Y215007D01*
G75*
D01*
G02X116493Y219557I2200J1993*
G01*
X116493Y219626D01*
X112654Y223464D01*
X109916Y223464D01*
G75*
D01*
G02X107672Y225708I0J2244*
G01*
X107672Y226792D01*
G75*
D01*
G02X109916Y229036I2244J0*
G01*
X114084Y229036D01*
G74*
D01*
G02X116328Y226792I0J2244*
G01*
X116328Y226293D01*
G75*
D01*
G02X121623Y226389I2672J-1292*
G01*
X122074Y226389D01*
X122074Y227047D01*
G75*
D01*
G02X123079Y228052I1005J0*
G01*
X125441Y228052D01*
G74*
D01*
G02X126446Y227047I0J1005*
G01*
X126446Y222717D01*
G75*
D01*
G02X125441Y221712I-1005J0*
G01*
X123079Y221712D01*
G75*
D01*
G02X122074Y222717I0J1005*
G01*
X122074Y223375D01*
X121484Y223375D01*
G75*
D01*
G02X118255Y222126I-2484J1624*
G01*
X119064Y221318D01*
G74*
D01*
G02X119507Y220250I1064J1067*
G01*
X119507Y219557D01*
G74*
D01*
G02X120792Y218007I1507J2557*
G01*
X122734Y218007D01*
X127464Y222738D01*
X129554Y224828D01*
X129554Y227047D01*
G75*
D01*
G02X130559Y228052I1005J0*
G01*
X132921Y228052D01*
G74*
D01*
G02X133926Y227047I0J1005*
G01*
X133926Y224058D01*
X135816Y225948D01*
G75*
D01*
G02X136883Y226389I1065J-1066*
G01*
X138074Y226389D01*
X138074Y227047D01*
G75*
D01*
G02X139079Y228052I1005J0*
G01*
X141441Y228052D01*
G74*
D01*
G02X142446Y227047I0J1005*
G01*
X142446Y222717D01*
G75*
D01*
G02X141441Y221712I-1005J0*
G01*
X139079Y221712D01*
G75*
D01*
G02X138074Y222717I0J1005*
G01*
X138074Y223375D01*
X137506Y223375D01*
X127464Y213333D01*
X127464Y213333D01*
X126568Y212436D01*
G74*
D01*
G02X125500Y211993I1067J1064*
G01*
X121200Y211993D01*
G75*
D01*
G02X121874Y209257I-2199J-1993*
G01*
X123033Y208098D01*
G75*
D01*
G02X128557Y209507I2966J-97*
G01*
X129499Y209507D01*
G75*
D01*
G02X129637Y209501I4J-1507*
G01*
G74*
D01*
G02X130568Y209064I136J1501*
G01*
X134464Y205167D01*
X134464Y209084D01*
G74*
D01*
G02X135743Y211110I2244J0*
G01*
X135743Y212890D01*
G75*
D01*
G02X134464Y214916I965J2026*
G01*
X134464Y219084D01*
G75*
D01*
G02X136708Y221328I2244J0*
G01*
X137792Y221328D01*
G74*
D01*
G02X140036Y219084I0J2244*
G01*
X140036Y214916D01*
G75*
D01*
G02X138757Y212890I-2244J0*
G01*
X138757Y211110D01*
G74*
D01*
G02X140036Y209084I965J2026*
G01*
X140036Y204916D01*
G75*
D01*
G02X139961Y204343I-2244J2*
G01*
X141964Y206346D01*
X141964Y209084D01*
G74*
D01*
G02X143243Y211110I2244J0*
G01*
X143243Y212890D01*
G75*
D01*
G02X141964Y214916I965J2026*
G01*
X141964Y219084D01*
G75*
D01*
G02X144208Y221328I2244J0*
G01*
X145292Y221328D01*
G74*
D01*
G02X147536Y219084I0J2244*
G01*
X147536Y214916D01*
G75*
D01*
G02X146257Y212890I-2244J0*
G01*
X146257Y211110D01*
G74*
D01*
G02X147536Y209084I965J2026*
G01*
X147536Y208507D01*
X149073Y208507D01*
G75*
D01*
G02X151680Y206049I2927J493*
G01*
X151568Y205936D01*
G74*
D01*
G02X150660Y205501I1068J1064*
G01*
G75*
D01*
G02X150499Y205493I-155J1499*
G01*
X147536Y205493D01*
X147536Y204916D01*
G75*
D01*
G02X145476Y202680I-2244J0*
G01*
X145476Y200946D01*
X146528Y200946D01*
G74*
D01*
G02X146921Y200868I1J1025*
G01*
G75*
D01*
G02X147315Y200946I392J-947*
G01*
X148496Y200946D01*
G74*
D01*
G02X148890Y200868I2J1025*
G01*
G75*
D01*
G02X149283Y200946I392J-947*
G01*
X150465Y200946D01*
G74*
D01*
G02X150858Y200868I1J1025*
G01*
G75*
D01*
G02X151252Y200946I392J-947*
G01*
X151270Y200946D01*
X151270Y200556D01*
G74*
D01*
G02X151490Y199921I805J635*
G01*
X151490Y189921D01*
G75*
D01*
G02X151270Y189287I-1025J1*
G01*
X151270Y188896D01*
X151252Y188896D01*
G75*
D01*
G02X150858Y188975I1J1025*
G01*
G74*
D01*
G02X150465Y188896I394J945*
G01*
X149283Y188896D01*
G75*
D01*
G02X148890Y188975I2J1025*
G01*
G74*
D01*
G02X148496Y188896I394J945*
G01*
X147315Y188896D01*
G75*
D01*
G02X146921Y188975I1J1025*
G01*
G74*
D01*
G02X146528Y188896I394J945*
G01*
X145346Y188896D01*
G75*
D01*
G02X144953Y188975I2J1025*
G01*
G74*
D01*
G02X144559Y188896I394J945*
G01*
X143378Y188896D01*
G75*
D01*
G02X142984Y188975I1J1025*
G01*
G74*
D01*
G02X142591Y188896I394J945*
G01*
X141409Y188896D01*
G75*
D01*
G02X141016Y188975I2J1025*
G01*
G74*
D01*
G02X140622Y188896I394J945*
G01*
X139570Y188896D01*
X139570Y179561D01*
X144712Y174419D01*
X159189Y188896D01*
X159126Y188896D01*
G75*
D01*
G02X158732Y188975I1J1025*
G01*
G74*
D01*
G02X158339Y188896I394J945*
G01*
X157158Y188896D01*
G75*
D01*
G02X156764Y188975I1J1025*
G01*
G74*
D01*
G02X156370Y188896I394J945*
G01*
X155189Y188896D01*
G75*
D01*
G02X154795Y188975I1J1025*
G01*
G74*
D01*
G02X154402Y188896I394J945*
G01*
X153220Y188896D01*
G75*
D01*
G02X152827Y188975I2J1025*
G01*
G74*
D01*
G02X152433Y188896I394J945*
G01*
X152415Y188896D01*
X152415Y189287D01*
G75*
D01*
G02X152196Y189921I805J633*
G01*
X152196Y199921D01*
G74*
D01*
G02X152415Y200556I1024J2*
G01*
X152415Y200946D01*
X152433Y200946D01*
G74*
D01*
G02X152827Y200868I2J1025*
G01*
G75*
D01*
G02X153220Y200946I392J-947*
G01*
X154402Y200946D01*
G74*
D01*
G02X154795Y200868I1J1025*
G01*
G75*
D01*
G02X155189Y200946I392J-947*
G01*
X156370Y200946D01*
G74*
D01*
G02X156764Y200868I2J1025*
G01*
G75*
D01*
G02X157158Y200946I392J-947*
G01*
X158339Y200946D01*
G74*
D01*
G02X158732Y200868I1J1025*
G01*
G75*
D01*
G02X159126Y200946I392J-947*
G01*
X160307Y200946D01*
G74*
D01*
G02X160701Y200868I2J1025*
G01*
G75*
D01*
G02X161095Y200946I392J-947*
G01*
X162276Y200946D01*
G74*
D01*
G02X162669Y200868I1J1025*
G01*
G75*
D01*
G02X163063Y200946I392J-947*
G01*
X164244Y200946D01*
G74*
D01*
G02X164638Y200868I2J1025*
G01*
G75*
D01*
G02X165032Y200946I392J-947*
G01*
X165500Y200946D01*
X165500Y223392D01*
G75*
D01*
G02X165500Y224711I2145J660*
G01*
X165500Y255970D01*
G75*
D01*
G03X119054Y259757I-30999J-93470*
G01*
X120250Y259757D01*
G74*
D01*
G02X121318Y259314I1J1507*
G01*
X125324Y255308D01*
G74*
D01*
G02X125767Y254240I1064J1067*
G01*
X125767Y238234D01*
G74*
D01*
G02X126130Y238015I326J951*
G01*
G75*
D01*
G02X126819Y238288I689J-732*
G01*
X127225Y238288D01*
X127225Y235893D01*
X126446Y235893D01*
X126446Y234343D01*
X127225Y234343D01*
X127225Y231948D01*
X126819Y231948D01*
G75*
D01*
G02X126130Y232221I0J1005*
G01*
G74*
D01*
G02X125441Y231948I689J732*
G01*
X123079Y231948D01*
G75*
D01*
G02X122074Y232953I0J1005*
G01*
X122074Y237283D01*
G74*
D01*
G02X122753Y238234I1005J0*
G01*
X122753Y253616D01*
X119626Y256743D01*
X117124Y256743D01*
X116635Y256253D01*
G75*
D01*
G02X117208Y256328I575J-2168*
G01*
X118292Y256328D01*
G74*
D01*
G02X119229Y256123I0J2244*
G01*
X117750Y253825D01*
X116362Y255981D01*
X113036Y252654D01*
X113036Y249916D01*
G75*
D01*
G02X110792Y247672I-2244J0*
G01*
X109708Y247672D01*
G75*
D01*
G02X108167Y248285I0J2244*
G01*
X104536Y244654D01*
X104536Y243507D01*
X107464Y243507D01*
X107464Y244084D01*
G75*
D01*
G02X109708Y246328I2244J0*
G01*
X110792Y246328D01*
G74*
D01*
G02X113036Y244084I0J2244*
G01*
X113036Y239916D01*
G75*
D01*
G02X110792Y237672I-2244J0*
G01*
X109708Y237672D01*
G75*
D01*
G02X107464Y239916I0J2244*
G01*
X107464Y240493D01*
X104027Y240493D01*
G74*
D01*
G02X102292Y239672I1735J1422*
G01*
X101208Y239672D01*
G75*
D01*
G02X98964Y241916I0J2244*
G01*
X98964Y244654D01*
X96961Y246657D01*
G74*
D01*
G02X97036Y246084I2168J575*
G01*
X97036Y241916D01*
G75*
D01*
G02X94792Y239672I-2244J0*
G01*
X93708Y239672D01*
G75*
D01*
G02X91464Y241916I0J2244*
G01*
X91464Y242333D01*
X90874Y241743D01*
G75*
D01*
G02X85250Y242119I-2874J-741*
G01*
X82666Y239534D01*
G75*
D01*
G02X82359Y235114I-2692J-2034*
G01*
X80886Y233641D01*
G75*
D01*
G02X76114Y233641I-2386J2386*
G01*
X74641Y235114D01*
G75*
D01*
G02X74641Y239886I2386J2386*
G01*
X76114Y241359D01*
G75*
D01*
G02X80534Y241666I2386J-2385*
G01*
X88374Y249505D01*
G75*
D01*
G03X38181Y142000I46125J-87005*
G01*
X52850Y142000D01*
X54250Y144175D01*
X55650Y142000D01*
X60040Y142000D01*
G75*
D01*
G02X58964Y143916I1167J1916*
G01*
X58964Y148084D01*
G75*
D01*
G02X61208Y150328I2244J0*
G01*
X62292Y150328D01*
G74*
D01*
G02X62954Y150228I0J2244*
G01*
X67948Y155221D01*
X67948Y157441D01*
G75*
D01*
G02X68953Y158446I1005J0*
G01*
X73283Y158446D01*
G74*
D01*
G02X74288Y157441I0J1005*
G01*
X74288Y155079D01*
G75*
D01*
G02X73283Y154074I-1005J0*
G01*
X71064Y154074D01*
X64536Y147546D01*
X64536Y143916D01*
G75*
D01*
G02X63460Y142000I-2244J0*
G01*
X104554Y142000D01*
X104554Y142937D01*
G74*
D01*
G02X104632Y143331I1025J2*
G01*
G75*
D01*
G02X104554Y143724I947J392*
G01*
X104554Y144905D01*
G74*
D01*
G02X104632Y145299I1025J2*
G01*
G75*
D01*
G02X104554Y145693I947J392*
G01*
X104554Y146874D01*
G74*
D01*
G02X104632Y147268I1025J2*
G01*
G75*
D01*
G02X104554Y147661I947J392*
G01*
X104554Y148843D01*
G74*
D01*
G02X104632Y149236I1025J1*
G01*
G75*
D01*
G02X104554Y149630I947J392*
G01*
X104554Y150811D01*
G74*
D01*
G02X104632Y151205I1025J2*
G01*
G75*
D01*
G02X104554Y151598I947J392*
G01*
X104554Y152780D01*
G74*
D01*
G02X104632Y153173I1025J1*
G01*
G75*
D01*
G02X104554Y153567I947J392*
G01*
X104554Y154748D01*
G74*
D01*
G02X104632Y155142I1025J2*
G01*
G75*
D01*
G02X104554Y155535I947J392*
G01*
X104554Y156717D01*
G74*
D01*
G02X104632Y157110I1025J1*
G01*
G75*
D01*
G02X104554Y157504I947J392*
G01*
X104554Y158685D01*
G74*
D01*
G02X104632Y159079I1025J2*
G01*
G75*
D01*
G02X104554Y159472I947J392*
G01*
X104554Y159490D01*
X104944Y159490D01*
G75*
D01*
G02X105579Y159710I635J-805*
G01*
X115579Y159710D01*
G74*
D01*
G02X116213Y159490I1J1025*
G01*
X116604Y159490D01*
X116604Y159472D01*
G75*
D01*
G02X116525Y159079I-1025J2*
G01*
G74*
D01*
G02X116604Y158685I945J394*
G01*
X116604Y157504D01*
G75*
D01*
G02X116525Y157110I-1025J1*
G01*
G74*
D01*
G02X116604Y156717I945J394*
G01*
X116604Y155535D01*
G75*
D01*
G02X116525Y155142I-1025J2*
G01*
G74*
D01*
G02X116604Y154748I945J394*
G01*
X116604Y153567D01*
G75*
D01*
G02X116525Y153173I-1025J1*
G01*
G74*
D01*
G02X116604Y152780I945J394*
G01*
X116604Y151598D01*
G75*
D01*
G02X116525Y151205I-1025J2*
G01*
G74*
D01*
G02X116604Y150811I945J394*
G01*
X116604Y149630D01*
G75*
D01*
G02X116525Y149236I-1025J1*
G01*
G74*
D01*
G02X116604Y148843I945J394*
G01*
X116604Y147661D01*
G75*
D01*
G02X116525Y147268I-1025J2*
G01*
G74*
D01*
G02X116604Y146874I945J394*
G01*
X107464Y254084D02*
X107464Y251846D01*
X105571Y249953D01*
X105571Y249953D01*
X103556Y247938D01*
G74*
D01*
G03X102292Y248328I1264J1853*
G01*
X101208Y248328D01*
G75*
D01*
G03X99944Y247938I0J-2244*
G01*
X97929Y249953D01*
X97929Y249953D01*
X96318Y251564D01*
G74*
D01*
G03X95609Y251964I1067J1064*
G01*
G75*
D01*
G03X95248Y252007I-357J-1464*
G01*
X93439Y252007D01*
G74*
D01*
G02X115181Y259063I41063J89505*
G01*
X112056Y255938D01*
G74*
D01*
G03X110792Y256328I1264J1853*
G01*
X109708Y256328D01*
G75*
D01*
G03X107464Y254084I0J-2244*
G01*
X112000Y226250D02*
X118000Y220250D01*
X118000Y217000D01*
X118500Y216500D02*
X123358Y216500D01*
X118500Y216500D02*
X118000Y217000D01*
X123358Y216500D02*
X131740Y224882D01*
X124260Y224882D02*
X119118Y224882D01*
X158000Y226250D02*
X156632Y224882D01*
X147740Y224882D01*
X169590Y223127D02*
X171590Y223127D01*
X177590Y217127D01*
X177590Y214090D02*
X177590Y217127D01*
X177590Y214090D02*
X172500Y209000D01*
X180519Y243784D02*
X180519Y234981D01*
X174410Y228873D01*
X188179Y237356D02*
X188179Y228641D01*
X182410Y222873D01*
X203500Y224500D02*
X203500Y212217D01*
X198873Y207590D01*
X140250Y114000D02*
X140250Y114750D01*
X94904Y122846D02*
X92000Y125750D01*
X82000Y125750D02*
X62250Y125750D01*
X62000Y126000D01*
X94000Y87750D02*
X78750Y87750D01*
X75071Y91429D01*
X138085Y95557D02*
X138085Y72915D01*
X139000Y72000D01*
X165000Y74000D02*
X165000Y96642D01*
X164085Y97557D01*
X155030Y101297D02*
X155030Y106720D01*
X147750Y114000D01*
X155030Y101297D02*
X157047Y101297D01*
X168000Y112250D01*
X129030Y99297D02*
X129030Y109220D01*
X124250Y114000D01*
X113750Y114000D01*
X112000Y115750D01*
X129030Y91817D02*
X128433Y91817D01*
X112000Y108250D01*
X129000Y76167D02*
X122083Y76167D01*
X112000Y86250D01*
X129000Y67833D02*
X114417Y67833D01*
X112000Y70250D01*
X60882Y156260D02*
X64260Y156260D01*
X66500Y158500D01*
X66500Y162000D01*
X64760Y163740D01*
X60882Y163740D01*
X66088Y178752D02*
X70125Y178752D01*
X110579Y167937D02*
X104187Y167937D01*
X100000Y163750D01*
X120346Y132579D02*
X120346Y126346D01*
X116846Y122846D01*
X94904Y122846D02*
X116846Y122846D01*
X134126Y116376D02*
X134126Y132579D01*
X134126Y116376D02*
X131750Y114000D01*
X136094Y132579D02*
X136094Y118156D01*
X140250Y114000D01*
X68085Y200279D02*
X56500Y211863D01*
X46500Y194543D02*
X50298Y194543D01*
X68085Y199075D02*
X68085Y200279D01*
X50298Y194543D02*
X66088Y178752D01*
X73875Y185248D02*
X73875Y208148D01*
X61500Y220523D01*
X190000Y167750D02*
X200000Y167750D01*
X188219Y165969D02*
X190000Y167750D01*
X147740Y224882D02*
X147740Y222260D01*
X153000Y217000D01*
X143969Y194921D02*
X143969Y206219D01*
X144750Y207000D02*
X144750Y217000D01*
X138063Y206187D02*
X137250Y207000D01*
X137250Y217000D01*
X140031Y194921D02*
X140031Y202282D01*
X144750Y207000D01*
X137750Y244000D02*
X137750Y237628D01*
X140260Y235118D01*
X137750Y244000D02*
X146250Y244000D01*
X146250Y254000D01*
X147740Y235118D02*
X153750Y241128D01*
X153750Y254000D01*
X110579Y140378D02*
X101378Y140378D01*
X95000Y134000D01*
X78500Y237500D02*
X91500Y250500D01*
X95250Y250500D01*
X94250Y244000D02*
X91000Y244000D01*
X88000Y241000D01*
X101750Y244000D02*
X109750Y252000D01*
X110250Y252000D01*
X110250Y242000D02*
X103750Y242000D01*
X95250Y250500D01*
X124260Y254240D02*
X124260Y235118D01*
X116500Y258250D02*
X120250Y258250D01*
X124260Y254240D01*
X110250Y252000D02*
X116500Y258250D01*
X136094Y194921D02*
X136094Y201406D01*
X126252Y194921D02*
X126252Y202748D01*
X119000Y210000D01*
X124283Y194921D02*
X124283Y201717D01*
X121000Y205000D01*
X116000Y205000D01*
X109000Y212000D01*
X122315Y194921D02*
X122315Y200685D01*
X120000Y203000D01*
X110000Y203000D01*
X105000Y208000D01*
X110579Y181717D02*
X99283Y181717D01*
X95500Y185500D01*
X110579Y173843D02*
X96157Y173843D01*
X91000Y179000D01*
X110579Y183685D02*
X103815Y183685D01*
X100000Y187500D01*
X110579Y164000D02*
X137500Y164000D01*
X168000Y119750D02*
X160250Y119750D01*
X158000Y117500D01*
X155030Y93817D02*
X150817Y93817D01*
X147500Y90500D01*
X155000Y69833D02*
X148333Y69833D01*
X179000Y80000D02*
X185000Y86000D01*
X188000Y86000D01*
X188000Y102250D02*
X180250Y102250D01*
X176000Y98000D01*
X155000Y78167D02*
X149333Y78167D01*
X146000Y81500D01*
X112000Y86250D02*
X117750Y86250D01*
X120000Y88500D01*
X164085Y97557D02*
X164085Y99585D01*
X168500Y104000D01*
X138085Y95557D02*
X142528Y100000D01*
X145000Y100000D01*
X94000Y80250D02*
X94000Y77000D01*
X97000Y74000D01*
X129030Y88030D02*
X126000Y85000D01*
X129030Y91817D02*
X129030Y88030D01*
X173421Y169906D02*
X163594Y169906D01*
X159500Y174000D01*
X173421Y167937D02*
X158437Y167937D01*
X157000Y166500D01*
X144750Y207000D02*
X150500Y207000D01*
X152500Y209000D01*
X164469Y165969D02*
X188219Y165969D01*
X164469Y165969D02*
X159500Y161000D01*
X155000Y161000D01*
X130250Y256750D02*
X130500Y257000D01*
X153750Y254000D02*
X156500Y254000D01*
X161000Y249500D01*
X136094Y201406D02*
X129500Y208000D01*
X126000Y208000D01*
X100000Y187500D02*
X100000Y211000D01*
X105000Y216000D01*
X112500Y216000D01*
X115000Y213500D01*
X125500Y213500D01*
X136882Y224882D01*
X140260Y224882D01*
X88000Y227750D02*
X98000Y227750D01*
X71429Y230429D02*
X71429Y228571D01*
X79750Y220250D01*
X98000Y220250D01*
X98000Y227750D02*
X98000Y233500D01*
X97000Y234500D01*
X186500Y145500D02*
X192000Y140000D01*
X173421Y156126D02*
X179374Y156126D01*
X173421Y162031D02*
X181969Y162031D01*
X192000Y153000D02*
X191000Y153000D01*
X181969Y162031D01*
X173421Y160063D02*
X181437Y160063D01*
X189000Y152500D02*
X189000Y149000D01*
X192000Y146000D01*
X181437Y160063D02*
X189000Y152500D01*
X180406Y158094D02*
X186500Y152000D01*
X186500Y145500D01*
X173421Y158094D02*
X180406Y158094D01*
X185000Y150500D02*
X185000Y140500D01*
X179374Y156126D02*
X185000Y150500D01*
X185000Y140500D02*
X191500Y134000D01*
X173421Y144315D02*
X180685Y144315D01*
X183000Y142000D01*
X183000Y140000D01*
X186500Y136500D01*
X186500Y129000D01*
X173421Y142346D02*
X180154Y142346D01*
X181000Y141500D02*
X181000Y130000D01*
X180154Y142346D02*
X181000Y141500D01*
X181000Y130000D02*
X181500Y129500D01*
X173421Y140378D02*
X173421Y131079D01*
X175000Y129500D01*
X138063Y178937D02*
X138063Y206187D01*
X138063Y178937D02*
X146500Y170500D01*
X61750Y146000D02*
X61750Y146892D01*
X71118Y156260D01*
X130250Y243108D02*
X131740Y241618D01*
X130250Y243108D02*
X130250Y256750D01*
X131740Y241618D02*
X131740Y235118D01*
G54D12*
X52000Y163750D02*
X60872Y163750D01*
X52000Y163750D02*
X48250Y167500D01*
X41000Y167500D01*
X71118Y163740D02*
X79990Y163740D01*
X80000Y163750D02*
X100000Y163750D01*
X81878Y176000D02*
X71118Y165240D01*
X71118Y163740D01*
G54D13*
X86750Y145750D02*
X91000Y150000D01*
X84000Y145750D02*
X94750Y145750D01*
X94750Y146250D01*
X91000Y150000D01*
G54D14*
X95000Y134000D02*
X88250Y134000D01*
X84000Y138250D01*
X95000Y134000D02*
X95500Y133500D01*
X100500Y133500D01*
X100500Y136500D01*
X98750Y138250D01*
X84000Y138250D01*
G54D15*
X33500Y61500D02*
X33500Y81700D01*
X33500Y61500D02*
X53700Y61500D01*
X235500Y61500D02*
X215300Y61500D01*
X235500Y61500D02*
X235500Y81700D01*
X235500Y263500D02*
X235500Y243300D01*
X235500Y263500D02*
X215300Y263500D01*
X33500Y263500D02*
X53700Y263500D01*
X33500Y263500D02*
X33500Y243300D01*
X13815Y61500D02*
X-25555Y61500D01*
X-5870Y41815D02*
X-5870Y81185D01*
X-20634Y61500D02*
G75*
D01*
G02X-20634Y61500I14764J0*
G01*
X255185Y61500D02*
X294555Y61500D01*
X274870Y41815D02*
X274870Y81185D01*
X260106Y61500D02*
G75*
D01*
G02X260106Y61500I14764J0*
G01*
X269949Y61500D02*
G75*
D01*
G02X269949Y61500I4921J0*
G01*
X13815Y263500D02*
X-25555Y263500D01*
X-5870Y243815D02*
X-5870Y283185D01*
X-20634Y263500D02*
G75*
D01*
G02X-20634Y263500I14764J0*
G01*
X-15713Y263500D02*
G75*
D01*
G02X-15713Y263500I9843J0*
G01*
X-10791Y263500D02*
G75*
D01*
G02X-10791Y263500I4921J0*
G01*
G54D16*
X118000Y217000D03*
X119000Y225000D03*
X172000Y209000D03*
X62000Y126000D03*
X91000Y150000D03*
X95000Y134000D03*
X82000Y176000D03*
X54000Y134000D03*
X153000Y217000D03*
X88000Y241000D03*
X119000Y210000D03*
X109000Y212000D03*
X105000Y208000D03*
X96000Y185000D03*
X91000Y179000D03*
X158000Y117000D03*
X148000Y91000D03*
X147000Y69000D03*
X179000Y80000D03*
X176000Y98000D03*
X146000Y81000D03*
X120000Y89000D03*
X168000Y104000D03*
X126000Y85000D03*
X145000Y100000D03*
X97000Y74000D03*
X159000Y174000D03*
X157000Y167000D03*
X152000Y209000D03*
X155000Y161000D03*
X131000Y257000D03*
X161000Y249000D03*
X126000Y208000D03*
X97000Y234000D03*
X80000Y220000D03*
X192000Y153000D03*
X192000Y146000D03*
X192000Y140000D03*
X192000Y133000D03*
X187000Y129000D03*
X181000Y129000D03*
X175000Y129000D03*
X101000Y134000D03*
X96000Y145000D03*
X72500Y136000D03*
G54D17*
X118378Y132579D03*
X122315Y132579D03*
X120346Y132579D03*
X124283Y132579D03*
X126252Y132579D03*
X128220Y132579D03*
X130189Y132579D03*
X132157Y132579D03*
X134126Y132579D03*
X138063Y132579D03*
X136094Y132579D03*
X140031Y132579D03*
X142000Y132579D03*
X143969Y132579D03*
X145937Y132579D03*
X147906Y132579D03*
X149874Y132579D03*
X153811Y132579D03*
X151843Y132579D03*
X155780Y132579D03*
X157748Y132579D03*
X159717Y132579D03*
X161685Y132579D03*
X163654Y132579D03*
X165622Y132579D03*
X118378Y194921D03*
X122315Y194921D03*
X120346Y194921D03*
X124283Y194921D03*
X126252Y194921D03*
X128220Y194921D03*
X130189Y194921D03*
X132157Y194921D03*
X134126Y194921D03*
X138063Y194921D03*
X136094Y194921D03*
X140031Y194921D03*
X142000Y194921D03*
X145937Y194921D03*
X143969Y194921D03*
X147906Y194921D03*
X149874Y194921D03*
X153811Y194921D03*
X151843Y194921D03*
X155780Y194921D03*
X157748Y194921D03*
X159717Y194921D03*
X161685Y194921D03*
X163654Y194921D03*
X165622Y194921D03*
G54D18*
X117788Y127579D02*
X118968Y127579D01*
X118968Y137579D01*
X117788Y137579D01*
X117788Y127579D01*D02*
X121725Y127579D02*
X122905Y127579D01*
X122905Y137579D01*
X121725Y137579D01*
X121725Y127579D01*D02*
X119756Y127579D02*
X120936Y127579D01*
X120936Y137579D01*
X119756Y137579D01*
X119756Y127579D01*D02*
X123693Y127579D02*
X124873Y127579D01*
X124873Y137579D01*
X123693Y137579D01*
X123693Y127579D01*D02*
X125662Y127579D02*
X126842Y127579D01*
X126842Y137579D01*
X125662Y137579D01*
X125662Y127579D01*D02*
X127630Y127579D02*
X128810Y127579D01*
X128810Y137579D01*
X127630Y137579D01*
X127630Y127579D01*D02*
X129599Y127579D02*
X130779Y127579D01*
X130779Y137579D01*
X129599Y137579D01*
X129599Y127579D01*D02*
X131567Y127579D02*
X132747Y127579D01*
X132747Y137579D01*
X131567Y137579D01*
X131567Y127579D01*D02*
X133536Y127579D02*
X134716Y127579D01*
X134716Y137579D01*
X133536Y137579D01*
X133536Y127579D01*D02*
X137473Y127579D02*
X138653Y127579D01*
X138653Y137579D01*
X137473Y137579D01*
X137473Y127579D01*D02*
X135504Y127579D02*
X136684Y127579D01*
X136684Y137579D01*
X135504Y137579D01*
X135504Y127579D01*D02*
X139441Y127579D02*
X140621Y127579D01*
X140621Y137579D01*
X139441Y137579D01*
X139441Y127579D01*D02*
X141410Y127579D02*
X142590Y127579D01*
X142590Y137579D01*
X141410Y137579D01*
X141410Y127579D01*D02*
X143379Y127579D02*
X144559Y127579D01*
X144559Y137579D01*
X143379Y137579D01*
X143379Y127579D01*D02*
X145347Y127579D02*
X146527Y127579D01*
X146527Y137579D01*
X145347Y137579D01*
X145347Y127579D01*D02*
X147316Y127579D02*
X148496Y127579D01*
X148496Y137579D01*
X147316Y137579D01*
X147316Y127579D01*D02*
X149284Y127579D02*
X150464Y127579D01*
X150464Y137579D01*
X149284Y137579D01*
X149284Y127579D01*D02*
X153221Y127579D02*
X154401Y127579D01*
X154401Y137579D01*
X153221Y137579D01*
X153221Y127579D01*D02*
X151253Y127579D02*
X152433Y127579D01*
X152433Y137579D01*
X151253Y137579D01*
X151253Y127579D01*D02*
X155190Y127579D02*
X156370Y127579D01*
X156370Y137579D01*
X155190Y137579D01*
X155190Y127579D01*D02*
X157158Y127579D02*
X158338Y127579D01*
X158338Y137579D01*
X157158Y137579D01*
X157158Y127579D01*D02*
X159127Y127579D02*
X160307Y127579D01*
X160307Y137579D01*
X159127Y137579D01*
X159127Y127579D01*D02*
X161095Y127579D02*
X162275Y127579D01*
X162275Y137579D01*
X161095Y137579D01*
X161095Y127579D01*D02*
X163064Y127579D02*
X164244Y127579D01*
X164244Y137579D01*
X163064Y137579D01*
X163064Y127579D01*D02*
X165032Y127579D02*
X166212Y127579D01*
X166212Y137579D01*
X165032Y137579D01*
X165032Y127579D01*D02*
X105579Y139788D02*
X115579Y139788D01*
X115579Y140968D01*
X105579Y140968D01*
X105579Y139788D01*D02*
X105579Y141756D02*
X115579Y141756D01*
X115579Y142936D01*
X105579Y142936D01*
X105579Y141756D01*D02*
X168421Y139788D02*
X178421Y139788D01*
X178421Y140968D01*
X168421Y140968D01*
X168421Y139788D01*D02*
X168421Y141756D02*
X178421Y141756D01*
X178421Y142936D01*
X168421Y142936D01*
X168421Y141756D01*D02*
X105579Y145693D02*
X115579Y145693D01*
X115579Y146873D01*
X105579Y146873D01*
X105579Y145693D01*D02*
X105579Y143725D02*
X115579Y143725D01*
X115579Y144905D01*
X105579Y144905D01*
X105579Y143725D01*D02*
X105579Y147662D02*
X115579Y147662D01*
X115579Y148842D01*
X105579Y148842D01*
X105579Y147662D01*D02*
X105579Y149630D02*
X115579Y149630D01*
X115579Y150810D01*
X105579Y150810D01*
X105579Y149630D01*D02*
X168421Y145693D02*
X178421Y145693D01*
X178421Y146873D01*
X168421Y146873D01*
X168421Y145693D01*D02*
X168421Y143725D02*
X178421Y143725D01*
X178421Y144905D01*
X168421Y144905D01*
X168421Y143725D01*D02*
X168421Y147662D02*
X178421Y147662D01*
X178421Y148842D01*
X168421Y148842D01*
X168421Y147662D01*D02*
X168421Y149630D02*
X178421Y149630D01*
X178421Y150810D01*
X168421Y150810D01*
X168421Y149630D01*D02*
X105579Y151599D02*
X115579Y151599D01*
X115579Y152779D01*
X105579Y152779D01*
X105579Y151599D01*D02*
X105579Y153567D02*
X115579Y153567D01*
X115579Y154747D01*
X105579Y154747D01*
X105579Y153567D01*D02*
X105579Y155536D02*
X115579Y155536D01*
X115579Y156716D01*
X105579Y156716D01*
X105579Y155536D01*D02*
X105579Y157504D02*
X115579Y157504D01*
X115579Y158684D01*
X105579Y158684D01*
X105579Y157504D01*D02*
X168421Y151599D02*
X178421Y151599D01*
X178421Y152779D01*
X168421Y152779D01*
X168421Y151599D01*D02*
X168421Y153567D02*
X178421Y153567D01*
X178421Y154747D01*
X168421Y154747D01*
X168421Y153567D01*D02*
X168421Y155536D02*
X178421Y155536D01*
X178421Y156716D01*
X168421Y156716D01*
X168421Y155536D01*D02*
X168421Y157504D02*
X178421Y157504D01*
X178421Y158684D01*
X168421Y158684D01*
X168421Y157504D01*D02*
X105579Y161441D02*
X115579Y161441D01*
X115579Y162621D01*
X105579Y162621D01*
X105579Y161441D01*D02*
X105579Y159473D02*
X115579Y159473D01*
X115579Y160653D01*
X105579Y160653D01*
X105579Y159473D01*D02*
X105579Y163410D02*
X115579Y163410D01*
X115579Y164590D01*
X105579Y164590D01*
X105579Y163410D01*D02*
X105579Y165379D02*
X115579Y165379D01*
X115579Y166559D01*
X105579Y166559D01*
X105579Y165379D01*D02*
X168421Y161441D02*
X178421Y161441D01*
X178421Y162621D01*
X168421Y162621D01*
X168421Y161441D01*D02*
X168421Y159473D02*
X178421Y159473D01*
X178421Y160653D01*
X168421Y160653D01*
X168421Y159473D01*D02*
X168421Y163410D02*
X178421Y163410D01*
X178421Y164590D01*
X168421Y164590D01*
X168421Y163410D01*D02*
X168421Y165379D02*
X178421Y165379D01*
X178421Y166559D01*
X168421Y166559D01*
X168421Y165379D01*D02*
X105579Y167347D02*
X115579Y167347D01*
X115579Y168527D01*
X105579Y168527D01*
X105579Y167347D01*D02*
X105579Y169316D02*
X115579Y169316D01*
X115579Y170496D01*
X105579Y170496D01*
X105579Y169316D01*D02*
X105579Y171284D02*
X115579Y171284D01*
X115579Y172464D01*
X105579Y172464D01*
X105579Y171284D01*D02*
X105579Y173253D02*
X115579Y173253D01*
X115579Y174433D01*
X105579Y174433D01*
X105579Y173253D01*D02*
X168421Y167347D02*
X178421Y167347D01*
X178421Y168527D01*
X168421Y168527D01*
X168421Y167347D01*D02*
X168421Y169316D02*
X178421Y169316D01*
X178421Y170496D01*
X168421Y170496D01*
X168421Y169316D01*D02*
X168421Y171284D02*
X178421Y171284D01*
X178421Y172464D01*
X168421Y172464D01*
X168421Y171284D01*D02*
X168421Y173253D02*
X178421Y173253D01*
X178421Y174433D01*
X168421Y174433D01*
X168421Y173253D01*D02*
X105579Y177190D02*
X115579Y177190D01*
X115579Y178370D01*
X105579Y178370D01*
X105579Y177190D01*D02*
X105579Y175221D02*
X115579Y175221D01*
X115579Y176401D01*
X105579Y176401D01*
X105579Y175221D01*D02*
X105579Y179158D02*
X115579Y179158D01*
X115579Y180338D01*
X105579Y180338D01*
X105579Y179158D01*D02*
X105579Y181127D02*
X115579Y181127D01*
X115579Y182307D01*
X105579Y182307D01*
X105579Y181127D01*D02*
X168421Y177190D02*
X178421Y177190D01*
X178421Y178370D01*
X168421Y178370D01*
X168421Y177190D01*D02*
X168421Y175221D02*
X178421Y175221D01*
X178421Y176401D01*
X168421Y176401D01*
X168421Y175221D01*D02*
X168421Y179158D02*
X178421Y179158D01*
X178421Y180338D01*
X168421Y180338D01*
X168421Y179158D01*D02*
X168421Y181127D02*
X178421Y181127D01*
X178421Y182307D01*
X168421Y182307D01*
X168421Y181127D01*D02*
X105579Y183095D02*
X115579Y183095D01*
X115579Y184275D01*
X105579Y184275D01*
X105579Y183095D01*D02*
X105579Y185064D02*
X115579Y185064D01*
X115579Y186244D01*
X105579Y186244D01*
X105579Y185064D01*D02*
X105579Y187032D02*
X115579Y187032D01*
X115579Y188212D01*
X105579Y188212D01*
X105579Y187032D01*D02*
X168421Y183095D02*
X178421Y183095D01*
X178421Y184275D01*
X168421Y184275D01*
X168421Y183095D01*D02*
X168421Y185064D02*
X178421Y185064D01*
X178421Y186244D01*
X168421Y186244D01*
X168421Y185064D01*D02*
X168421Y187032D02*
X178421Y187032D01*
X178421Y188212D01*
X168421Y188212D01*
X168421Y187032D01*D02*
X117788Y189921D02*
X118968Y189921D01*
X118968Y199921D01*
X117788Y199921D01*
X117788Y189921D01*D02*
X121725Y189921D02*
X122905Y189921D01*
X122905Y199921D01*
X121725Y199921D01*
X121725Y189921D01*D02*
X119756Y189921D02*
X120936Y189921D01*
X120936Y199921D01*
X119756Y199921D01*
X119756Y189921D01*D02*
X123693Y189921D02*
X124873Y189921D01*
X124873Y199921D01*
X123693Y199921D01*
X123693Y189921D01*D02*
X125662Y189921D02*
X126842Y189921D01*
X126842Y199921D01*
X125662Y199921D01*
X125662Y189921D01*D02*
X127630Y189921D02*
X128810Y189921D01*
X128810Y199921D01*
X127630Y199921D01*
X127630Y189921D01*D02*
X129599Y189921D02*
X130779Y189921D01*
X130779Y199921D01*
X129599Y199921D01*
X129599Y189921D01*D02*
X131567Y189921D02*
X132747Y189921D01*
X132747Y199921D01*
X131567Y199921D01*
X131567Y189921D01*D02*
X133536Y189921D02*
X134716Y189921D01*
X134716Y199921D01*
X133536Y199921D01*
X133536Y189921D01*D02*
X137473Y189921D02*
X138653Y189921D01*
X138653Y199921D01*
X137473Y199921D01*
X137473Y189921D01*D02*
X135504Y189921D02*
X136684Y189921D01*
X136684Y199921D01*
X135504Y199921D01*
X135504Y189921D01*D02*
X139441Y189921D02*
X140621Y189921D01*
X140621Y199921D01*
X139441Y199921D01*
X139441Y189921D01*D02*
X141410Y189921D02*
X142590Y189921D01*
X142590Y199921D01*
X141410Y199921D01*
X141410Y189921D01*D02*
X145347Y189921D02*
X146527Y189921D01*
X146527Y199921D01*
X145347Y199921D01*
X145347Y189921D01*D02*
X143379Y189921D02*
X144559Y189921D01*
X144559Y199921D01*
X143379Y199921D01*
X143379Y189921D01*D02*
X147316Y189921D02*
X148496Y189921D01*
X148496Y199921D01*
X147316Y199921D01*
X147316Y189921D01*D02*
X149284Y189921D02*
X150464Y189921D01*
X150464Y199921D01*
X149284Y199921D01*
X149284Y189921D01*D02*
X153221Y189921D02*
X154401Y189921D01*
X154401Y199921D01*
X153221Y199921D01*
X153221Y189921D01*D02*
X151253Y189921D02*
X152433Y189921D01*
X152433Y199921D01*
X151253Y199921D01*
X151253Y189921D01*D02*
X155190Y189921D02*
X156370Y189921D01*
X156370Y199921D01*
X155190Y199921D01*
X155190Y189921D01*D02*
X157158Y189921D02*
X158338Y189921D01*
X158338Y199921D01*
X157158Y199921D01*
X157158Y189921D01*D02*
X159127Y189921D02*
X160307Y189921D01*
X160307Y199921D01*
X159127Y199921D01*
X159127Y189921D01*D02*
X161095Y189921D02*
X162275Y189921D01*
X162275Y199921D01*
X161095Y199921D01*
X161095Y189921D01*D02*
X163064Y189921D02*
X164244Y189921D01*
X164244Y199921D01*
X163064Y199921D01*
X163064Y189921D01*D02*
X165032Y189921D02*
X166212Y189921D01*
X166212Y199921D01*
X165032Y199921D01*
X165032Y189921D01*D02*
G54D19*
X110579Y140378D03*
X110579Y142346D03*
X173421Y140378D03*
X173421Y142346D03*
X110579Y146283D03*
X110579Y144315D03*
X110579Y148252D03*
X110579Y150220D03*
X173421Y146283D03*
X173421Y144315D03*
X173421Y148252D03*
X173421Y150220D03*
X110579Y152189D03*
X110579Y154157D03*
X110579Y156126D03*
X110579Y158094D03*
X173421Y152189D03*
X173421Y154157D03*
X173421Y156126D03*
X173421Y158094D03*
X110579Y162031D03*
X110579Y160063D03*
X110579Y164000D03*
X110579Y165969D03*
X173421Y162031D03*
X173421Y160063D03*
X173421Y164000D03*
X173421Y165969D03*
X110579Y167937D03*
X110579Y169906D03*
X110579Y171874D03*
X110579Y173843D03*
X173421Y167937D03*
X173421Y169906D03*
X173421Y171874D03*
X173421Y173843D03*
X110579Y177780D03*
X110579Y175811D03*
X110579Y179748D03*
X110579Y181717D03*
X173421Y177780D03*
X173421Y175811D03*
X173421Y179748D03*
X173421Y181717D03*
X110579Y183685D03*
X110579Y185654D03*
X110579Y187622D03*
X173421Y183685D03*
X173421Y185654D03*
X173421Y187622D03*
G54D20*
X100000Y156250D03*
X100000Y163750D03*
X84000Y138250D03*
X84000Y145750D03*
X90000Y156250D03*
X90000Y163750D03*
X80000Y156250D03*
X80000Y163750D03*
X44000Y138250D03*
X44000Y145750D03*
X52000Y156250D03*
X52000Y163750D03*
X88000Y220250D03*
X88000Y227750D03*
X98000Y220250D03*
X98000Y227750D03*
X82000Y118250D03*
X82000Y125750D03*
X72000Y118250D03*
X72000Y125750D03*
X94000Y80250D03*
X94000Y87750D03*
X92000Y118250D03*
X92000Y125750D03*
X112000Y226250D03*
X112000Y233750D03*
X158000Y226250D03*
X158000Y233750D03*
X200000Y160250D03*
X200000Y167750D03*
X190000Y160250D03*
X190000Y167750D03*
X112000Y70250D03*
X112000Y77750D03*
X112000Y86250D03*
X112000Y93750D03*
X112000Y108250D03*
X112000Y115750D03*
X168000Y112250D03*
X168000Y119750D03*
X188000Y102250D03*
X188000Y109750D03*
X188000Y86250D03*
X188000Y93750D03*
G54D21*
X97916Y155708D02*
X102084Y155708D01*
X102084Y156792D01*
X97916Y156792D01*
X97916Y155708D01*D02*
X97916Y163208D02*
X102084Y163208D01*
X102084Y164292D01*
X97916Y164292D01*
X97916Y163208D01*D02*
X81916Y137708D02*
X86084Y137708D01*
X86084Y138792D01*
X81916Y138792D01*
X81916Y137708D01*D02*
X81916Y145208D02*
X86084Y145208D01*
X86084Y146292D01*
X81916Y146292D01*
X81916Y145208D01*D02*
X87916Y155708D02*
X92084Y155708D01*
X92084Y156792D01*
X87916Y156792D01*
X87916Y155708D01*D02*
X87916Y163208D02*
X92084Y163208D01*
X92084Y164292D01*
X87916Y164292D01*
X87916Y163208D01*D02*
X77916Y155708D02*
X82084Y155708D01*
X82084Y156792D01*
X77916Y156792D01*
X77916Y155708D01*D02*
X77916Y163208D02*
X82084Y163208D01*
X82084Y164292D01*
X77916Y164292D01*
X77916Y163208D01*D02*
X53708Y143916D02*
X54792Y143916D01*
X54792Y148084D01*
X53708Y148084D01*
X53708Y143916D01*D02*
X61208Y143916D02*
X62292Y143916D01*
X62292Y148084D01*
X61208Y148084D01*
X61208Y143916D01*D02*
X41916Y137708D02*
X46084Y137708D01*
X46084Y138792D01*
X41916Y138792D01*
X41916Y137708D01*D02*
X41916Y145208D02*
X46084Y145208D01*
X46084Y146292D01*
X41916Y146292D01*
X41916Y145208D01*D02*
X49916Y155708D02*
X54084Y155708D01*
X54084Y156792D01*
X49916Y156792D01*
X49916Y155708D01*D02*
X49916Y163208D02*
X54084Y163208D01*
X54084Y164292D01*
X49916Y164292D01*
X49916Y163208D01*D02*
X68049Y179325D02*
X71659Y177241D01*
X72201Y178180D01*
X68591Y180264D01*
X68049Y179325D01*D02*
X71799Y185820D02*
X75409Y183736D01*
X75951Y184675D01*
X72341Y186759D01*
X71799Y185820D01*D02*
X85916Y219708D02*
X90084Y219708D01*
X90084Y220792D01*
X85916Y220792D01*
X85916Y219708D01*D02*
X85916Y227208D02*
X90084Y227208D01*
X90084Y228292D01*
X85916Y228292D01*
X85916Y227208D01*D02*
X95916Y219708D02*
X100084Y219708D01*
X100084Y220792D01*
X95916Y220792D01*
X95916Y219708D01*D02*
X95916Y227208D02*
X100084Y227208D01*
X100084Y228292D01*
X95916Y228292D01*
X95916Y227208D01*D02*
X79916Y117708D02*
X84084Y117708D01*
X84084Y118792D01*
X79916Y118792D01*
X79916Y117708D01*D02*
X79916Y125208D02*
X84084Y125208D01*
X84084Y126292D01*
X79916Y126292D01*
X79916Y125208D01*D02*
X69916Y117708D02*
X74084Y117708D01*
X74084Y118792D01*
X69916Y118792D01*
X69916Y117708D01*D02*
X69916Y125208D02*
X74084Y125208D01*
X74084Y126292D01*
X69916Y126292D01*
X69916Y125208D01*D02*
X91916Y79708D02*
X96084Y79708D01*
X96084Y80792D01*
X91916Y80792D01*
X91916Y79708D01*D02*
X91916Y87208D02*
X96084Y87208D01*
X96084Y88292D01*
X91916Y88292D01*
X91916Y87208D01*D02*
X89916Y117708D02*
X94084Y117708D01*
X94084Y118792D01*
X89916Y118792D01*
X89916Y117708D01*D02*
X89916Y125208D02*
X94084Y125208D01*
X94084Y126292D01*
X89916Y126292D01*
X89916Y125208D01*D02*
X109708Y239916D02*
X110792Y239916D01*
X110792Y244084D01*
X109708Y244084D01*
X109708Y239916D01*D02*
X117208Y239916D02*
X118292Y239916D01*
X118292Y244084D01*
X117208Y244084D01*
X117208Y239916D01*D02*
X109916Y225708D02*
X114084Y225708D01*
X114084Y226792D01*
X109916Y226792D01*
X109916Y225708D01*D02*
X109916Y233208D02*
X114084Y233208D01*
X114084Y234292D01*
X109916Y234292D01*
X109916Y233208D01*D02*
X136708Y214916D02*
X137792Y214916D01*
X137792Y219084D01*
X136708Y219084D01*
X136708Y214916D01*D02*
X144208Y214916D02*
X145292Y214916D01*
X145292Y219084D01*
X144208Y219084D01*
X144208Y214916D01*D02*
X136708Y204916D02*
X137792Y204916D01*
X137792Y209084D01*
X136708Y209084D01*
X136708Y204916D01*D02*
X144208Y204916D02*
X145292Y204916D01*
X145292Y209084D01*
X144208Y209084D01*
X144208Y204916D01*D02*
X93708Y241916D02*
X94792Y241916D01*
X94792Y246084D01*
X93708Y246084D01*
X93708Y241916D01*D02*
X101208Y241916D02*
X102292Y241916D01*
X102292Y246084D01*
X101208Y246084D01*
X101208Y241916D01*D02*
X109708Y249916D02*
X110792Y249916D01*
X110792Y254084D01*
X109708Y254084D01*
X109708Y249916D01*D02*
X117208Y249916D02*
X118292Y249916D01*
X118292Y254084D01*
X117208Y254084D01*
X117208Y249916D01*D02*
X129708Y241916D02*
X130792Y241916D01*
X130792Y246084D01*
X129708Y246084D01*
X129708Y241916D01*D02*
X137208Y241916D02*
X138292Y241916D01*
X138292Y246084D01*
X137208Y246084D01*
X137208Y241916D01*D02*
X171534Y222203D02*
X168342Y224882D01*
X167645Y224052D01*
X170838Y221373D01*
X171534Y222203D01*D02*
X176355Y227948D02*
X173162Y230627D01*
X172466Y229797D01*
X175659Y227118D01*
X176355Y227948D01*D02*
X155916Y225708D02*
X160084Y225708D01*
X160084Y226792D01*
X155916Y226792D01*
X155916Y225708D01*D02*
X155916Y233208D02*
X160084Y233208D01*
X160084Y234292D01*
X155916Y234292D01*
X155916Y233208D01*D02*
X179534Y216203D02*
X176341Y218882D01*
X175645Y218052D01*
X178838Y215373D01*
X179534Y216203D01*D02*
X184355Y221948D02*
X181162Y224627D01*
X180466Y223797D01*
X183659Y221118D01*
X184355Y221948D01*D02*
X199797Y209534D02*
X197118Y206341D01*
X197948Y205645D01*
X200627Y208838D01*
X199797Y209534D01*D02*
X194052Y214355D02*
X191373Y211162D01*
X192203Y210466D01*
X194882Y213658D01*
X194052Y214355D01*D02*
X197916Y159708D02*
X202084Y159708D01*
X202084Y160792D01*
X197916Y160792D01*
X197916Y159708D01*D02*
X197916Y167208D02*
X202084Y167208D01*
X202084Y168292D01*
X197916Y168292D01*
X197916Y167208D01*D02*
X187916Y159708D02*
X192084Y159708D01*
X192084Y160792D01*
X187916Y160792D01*
X187916Y159708D01*D02*
X187916Y167208D02*
X192084Y167208D01*
X192084Y168292D01*
X187916Y168292D01*
X187916Y167208D01*D02*
X145708Y241916D02*
X146792Y241916D01*
X146792Y246084D01*
X145708Y246084D01*
X145708Y241916D01*D02*
X153208Y241916D02*
X154292Y241916D01*
X154292Y246084D01*
X153208Y246084D01*
X153208Y241916D01*D02*
X145708Y251916D02*
X146792Y251916D01*
X146792Y256084D01*
X145708Y256084D01*
X145708Y251916D01*D02*
X153208Y251916D02*
X154292Y251916D01*
X154292Y256084D01*
X153208Y256084D01*
X153208Y251916D01*D02*
X153833Y77000D02*
X156167Y77000D01*
X156167Y79334D01*
X153833Y79334D01*
X153833Y77000D01*D02*
X153833Y68666D02*
X156167Y68666D01*
X156167Y71000D01*
X153833Y71000D01*
X153833Y68666D01*D02*
X163833Y72833D02*
X166167Y72833D01*
X166167Y75167D01*
X163833Y75167D01*
X163833Y72833D01*D02*
X123708Y111916D02*
X124792Y111916D01*
X124792Y116084D01*
X123708Y116084D01*
X123708Y111916D01*D02*
X131208Y111916D02*
X132292Y111916D01*
X132292Y116084D01*
X131208Y116084D01*
X131208Y111916D01*D02*
X139708Y111916D02*
X140792Y111916D01*
X140792Y116084D01*
X139708Y116084D01*
X139708Y111916D01*D02*
X147208Y111916D02*
X148292Y111916D01*
X148292Y116084D01*
X147208Y116084D01*
X147208Y111916D01*D02*
X127833Y75000D02*
X130167Y75000D01*
X130167Y77334D01*
X127833Y77334D01*
X127833Y75000D01*D02*
X127833Y66666D02*
X130167Y66666D01*
X130167Y69000D01*
X127833Y69000D01*
X127833Y66666D01*D02*
X137833Y70833D02*
X140167Y70833D01*
X140167Y73167D01*
X137833Y73167D01*
X137833Y70833D01*D02*
X109916Y69708D02*
X114084Y69708D01*
X114084Y70792D01*
X109916Y70792D01*
X109916Y69708D01*D02*
X109916Y77208D02*
X114084Y77208D01*
X114084Y78292D01*
X109916Y78292D01*
X109916Y77208D01*D02*
X109916Y85708D02*
X114084Y85708D01*
X114084Y86792D01*
X109916Y86792D01*
X109916Y85708D01*D02*
X109916Y93208D02*
X114084Y93208D01*
X114084Y94292D01*
X109916Y94292D01*
X109916Y93208D01*D02*
X109916Y107708D02*
X114084Y107708D01*
X114084Y108792D01*
X109916Y108792D01*
X109916Y107708D01*D02*
X109916Y115208D02*
X114084Y115208D01*
X114084Y116292D01*
X109916Y116292D01*
X109916Y115208D01*D02*
X165916Y111708D02*
X170084Y111708D01*
X170084Y112792D01*
X165916Y112792D01*
X165916Y111708D01*D02*
X165916Y119208D02*
X170084Y119208D01*
X170084Y120292D01*
X165916Y120292D01*
X165916Y119208D01*D02*
X185916Y101708D02*
X190084Y101708D01*
X190084Y102792D01*
X185916Y102792D01*
X185916Y101708D01*D02*
X185916Y109208D02*
X190084Y109208D01*
X190084Y110292D01*
X185916Y110292D01*
X185916Y109208D01*D02*
X185916Y85708D02*
X190084Y85708D01*
X190084Y86792D01*
X185916Y86792D01*
X185916Y85708D01*D02*
X185916Y93208D02*
X190084Y93208D01*
X190084Y94292D01*
X185916Y94292D01*
X185916Y93208D01*D02*
G54D22*
X60882Y156260D03*
X71118Y156260D03*
X60882Y163740D03*
X60882Y160000D03*
X71118Y163740D03*
G54D23*
X54250Y146000D03*
X61750Y146000D03*
X110250Y242000D03*
X117750Y242000D03*
X137250Y217000D03*
X144750Y217000D03*
X137250Y207000D03*
X144750Y207000D03*
X94250Y244000D03*
X101750Y244000D03*
X110250Y252000D03*
X117750Y252000D03*
X130250Y244000D03*
X137750Y244000D03*
X146250Y244000D03*
X153750Y244000D03*
X146250Y254000D03*
X153750Y254000D03*
X124250Y114000D03*
X131750Y114000D03*
X140250Y114000D03*
X147750Y114000D03*
G54D24*
X41000Y157500D03*
X46500Y194543D03*
X51500Y203203D03*
X56500Y211863D03*
X71429Y230429D03*
X75071Y91429D03*
X188179Y237356D03*
X180519Y243784D03*
X195840Y230928D03*
X213500Y128000D03*
X213500Y138000D03*
X213500Y178000D03*
X213500Y148000D03*
X213500Y158000D03*
X213500Y168000D03*
X213500Y208000D03*
X213500Y198000D03*
X213500Y188000D03*
G54D25*
X41000Y167500D03*
X213500Y118000D03*
G54D26*
X39959Y166459D02*
X42041Y166459D01*
X42041Y168541D01*
X39959Y168541D01*
X39959Y166459D01*D02*
X61119Y221946D02*
X60077Y220142D01*
X61881Y219101D01*
X62923Y220905D01*
X61119Y221946D01*D02*
X78500Y238973D02*
X77027Y237500D01*
X78500Y236027D01*
X79973Y237500D01*
X78500Y238973D01*D02*
X66527Y98500D02*
X68000Y97027D01*
X69473Y98500D01*
X68000Y99973D01*
X66527Y98500D01*D02*
X204967Y224628D02*
X203372Y225967D01*
X202033Y224372D01*
X203628Y223033D01*
X204967Y224628D01*D02*
X212459Y116959D02*
X214541Y116959D01*
X214541Y119041D01*
X212459Y119041D01*
X212459Y116959D01*D02*
G54D27*
X70232Y178690D03*
X70018Y178814D03*
X73982Y185186D03*
X73768Y185310D03*
G54D28*
X60597Y184531D03*
X59233Y185319D03*
X68767Y198681D03*
X67403Y199469D03*
G54D29*
X61500Y220523D03*
G54D30*
X78500Y237500D03*
X68000Y98500D03*
G54D31*
X124260Y224882D03*
X131740Y224882D03*
X124260Y235118D03*
X128000Y235118D03*
X131740Y235118D03*
X140260Y224882D03*
X147740Y224882D03*
X140260Y235118D03*
X144000Y235118D03*
X147740Y235118D03*
G54D32*
X169495Y223207D03*
X169685Y223048D03*
X174315Y228952D03*
X174505Y228793D03*
X177495Y217207D03*
X177685Y217048D03*
X182315Y222952D03*
X182505Y222793D03*
X198793Y207495D03*
X198952Y207685D03*
X193048Y212315D03*
X193207Y212505D03*
G54D33*
X203500Y224500D03*
G54D34*
X155000Y78167D03*
X155000Y69833D03*
X165000Y74000D03*
X129000Y76167D03*
X129000Y67833D03*
X139000Y72000D03*
G54D35*
X155030Y93817D03*
X155030Y101297D03*
X164085Y97557D03*
X129030Y91817D03*
X138085Y95557D03*
X129030Y99297D03*

M02*
