G04 Generated by Ultiboard 13.0 *
%FSLAX25Y25*%
%MOIN*%

%ADD10C,0.00001*%
%ADD11C,0.00500*%
%ADD12C,0.03937*%
%ADD13O,0.00984X0.06299*%
%ADD14O,0.06299X0.00984*%
%ADD15R,0.02251X0.05834*%
%ADD16C,0.01666*%
%ADD17R,0.05834X0.02251*%
%ADD18R,0.04331X0.02362*%
%ADD19R,0.02083X0.02083*%
%ADD20C,0.03917*%
%ADD21C,0.06334*%
%ADD22P,0.05539X4*%
%ADD23P,0.02945X4*%
%ADD24P,0.02945X4X15*%
%ADD25P,0.05539X4X15*%
%ADD26R,0.01772X0.05906*%
%ADD27C,0.04156*%
%ADD28R,0.03937X0.02362*%
%ADD29R,0.02334X0.02334*%
%ADD30C,0.08334*%
%ADD31P,0.05567X4*%


G04 ColorRGB FF00CC for the following layer *
%LNSolder Mask Top*%
%LPD*%
G54D10*
G54D11*
X193024Y-203976D02*
X193024Y-173381D01*
X193024Y-203976D02*
X223619Y-203976D01*
X498976Y-203976D02*
X468381Y-203976D01*
X498976Y-203976D02*
X498976Y-173381D01*
X498976Y101976D02*
X498976Y71381D01*
X498976Y101976D02*
X468381Y101976D01*
X193024Y101976D02*
X223619Y101976D01*
X193024Y101976D02*
X193024Y71381D01*
X173339Y-203976D02*
X133969Y-203976D01*
X153654Y-223661D02*
X153654Y-184291D01*
X138890Y-203976D02*
G75*
D01*
G02X138890Y-203976I14764J0*
G01*
X518661Y-203976D02*
X558031Y-203976D01*
X538346Y-223661D02*
X538346Y-184291D01*
X523582Y-203976D02*
G75*
D01*
G02X523582Y-203976I14764J0*
G01*
X533425Y-203976D02*
G75*
D01*
G02X533425Y-203976I4921J0*
G01*
X173339Y101976D02*
X133969Y101976D01*
X153654Y82291D02*
X153654Y121661D01*
X138890Y101976D02*
G75*
D01*
G02X138890Y101976I14764J0*
G01*
X143811Y101976D02*
G75*
D01*
G02X143811Y101976I9843J0*
G01*
X148733Y101976D02*
G75*
D01*
G02X148733Y101976I4921J0*
G01*
G54D12*
X234000Y-21000D03*
X227000Y-21000D03*
X225000Y-68000D03*
X278000Y-106000D03*
X365000Y-124000D03*
X431000Y-80000D03*
X431000Y-6000D03*
X442000Y-26000D03*
X290000Y-82000D03*
X233000Y-114000D03*
X385000Y-182000D03*
X441000Y-75969D03*
X306000Y51000D03*
X340000Y-12000D03*
X357000Y-68000D03*
X374000Y-59000D03*
X314000Y16000D03*
X351000Y22000D03*
X407000Y-72000D03*
X451000Y-70000D03*
X451000Y-16000D03*
X406000Y-99000D03*
X465000Y-99000D03*
X459000Y-64000D03*
X459000Y-36000D03*
X425000Y-90000D03*
X425000Y-46000D03*
X412000Y-95000D03*
X412000Y-56000D03*
X418000Y-42000D03*
X410000Y-40000D03*
X362000Y-62000D03*
X419000Y-115000D03*
X317000Y-158000D03*
X322000Y-52000D03*
X351000Y-152000D03*
X310000Y-50000D03*
X293000Y-163000D03*
X371000Y-112000D03*
X348000Y-34000D03*
X396000Y59000D03*
X387000Y19000D03*
X357000Y57000D03*
X384000Y87000D03*
X363000Y65000D03*
X354000Y67000D03*
X353000Y-62000D03*
X410000Y-116000D03*
G54D13*
X347102Y-99984D03*
X348677Y-99984D03*
X350252Y-99984D03*
X351827Y-99984D03*
X353402Y-99984D03*
X354976Y-99984D03*
X356551Y-99984D03*
X358126Y-99984D03*
X359701Y-99984D03*
X361276Y-99984D03*
X362850Y-99984D03*
X364425Y-99984D03*
X366000Y-99984D03*
X367575Y-99984D03*
X369150Y-99984D03*
X370724Y-99984D03*
X377024Y-99984D03*
X378598Y-99984D03*
X372299Y-99984D03*
X373874Y-99984D03*
X375449Y-99984D03*
X380173Y-99984D03*
X381748Y-99984D03*
X383323Y-99984D03*
X384898Y-99984D03*
X347102Y-48016D03*
X353402Y-48016D03*
X351827Y-48016D03*
X348677Y-48016D03*
X350252Y-48016D03*
X354976Y-48016D03*
X359701Y-48016D03*
X361276Y-48016D03*
X356551Y-48016D03*
X358126Y-48016D03*
X362850Y-48016D03*
X367575Y-48016D03*
X369150Y-48016D03*
X364425Y-48016D03*
X366000Y-48016D03*
X370724Y-48016D03*
X377024Y-48016D03*
X378598Y-48016D03*
X375449Y-48016D03*
X372299Y-48016D03*
X373874Y-48016D03*
X383323Y-48016D03*
X384898Y-48016D03*
X380173Y-48016D03*
X381748Y-48016D03*
G54D14*
X340016Y-89748D03*
X340016Y-88173D03*
X340016Y-86598D03*
X340016Y-92898D03*
X340016Y-91323D03*
X391984Y-89748D03*
X391984Y-88173D03*
X391984Y-86598D03*
X391984Y-92898D03*
X391984Y-91323D03*
X340016Y-85024D03*
X340016Y-83449D03*
X340016Y-81874D03*
X340016Y-80299D03*
X340016Y-78724D03*
X391984Y-85024D03*
X391984Y-83449D03*
X391984Y-81874D03*
X391984Y-80299D03*
X391984Y-78724D03*
X340016Y-77150D03*
X340016Y-75575D03*
X340016Y-74000D03*
X340016Y-70850D03*
X340016Y-72425D03*
X391984Y-70850D03*
X391984Y-77150D03*
X391984Y-75575D03*
X391984Y-74000D03*
X391984Y-72425D03*
X340016Y-62976D03*
X340016Y-69276D03*
X340016Y-67701D03*
X340016Y-66126D03*
X340016Y-64551D03*
X391984Y-62976D03*
X391984Y-69276D03*
X391984Y-67701D03*
X391984Y-66126D03*
X391984Y-64551D03*
X340016Y-61402D03*
X340016Y-59827D03*
X340016Y-58252D03*
X340016Y-56677D03*
X340016Y-55102D03*
X391984Y-61402D03*
X391984Y-59827D03*
X391984Y-58252D03*
X391984Y-55102D03*
X391984Y-56677D03*
G54D15*
X234500Y-68000D03*
X245500Y-68000D03*
X234500Y-32000D03*
X245500Y-32000D03*
X357500Y-120000D03*
X346500Y-120000D03*
X385500Y-32000D03*
X374500Y-32000D03*
X385500Y-20000D03*
X374500Y-20000D03*
G54D16*
X233375Y-70917D02*
X235625Y-70917D01*
X235625Y-65083D01*
X233375Y-65083D01*
X233375Y-70917D01*D02*
X244375Y-70917D02*
X246625Y-70917D01*
X246625Y-65083D01*
X244375Y-65083D01*
X244375Y-70917D01*D02*
X261083Y-71625D02*
X266917Y-71625D01*
X266917Y-69375D01*
X261083Y-69375D01*
X261083Y-71625D01*D02*
X261083Y-82625D02*
X266917Y-82625D01*
X266917Y-80375D01*
X261083Y-80375D01*
X261083Y-82625D01*D02*
X297083Y-82625D02*
X302917Y-82625D01*
X302917Y-80375D01*
X297083Y-80375D01*
X297083Y-82625D01*D02*
X297083Y-71625D02*
X302917Y-71625D01*
X302917Y-69375D01*
X297083Y-69375D01*
X297083Y-71625D01*D02*
X309083Y-71625D02*
X314917Y-71625D01*
X314917Y-69375D01*
X309083Y-69375D01*
X309083Y-71625D01*D02*
X309083Y-82625D02*
X314917Y-82625D01*
X314917Y-80375D01*
X309083Y-80375D01*
X309083Y-82625D01*D02*
X274505Y-117135D02*
X270380Y-113010D01*
X268788Y-114601D01*
X272913Y-118727D01*
X274505Y-117135D01*D02*
X266727Y-124913D02*
X262601Y-120788D01*
X261010Y-122380D01*
X265135Y-126505D01*
X266727Y-124913D01*D02*
X302279Y-183839D02*
X305196Y-178787D01*
X303247Y-177661D01*
X300330Y-182713D01*
X302279Y-183839D01*D02*
X292753Y-178339D02*
X295670Y-173287D01*
X293721Y-172161D01*
X290804Y-177213D01*
X292753Y-178339D01*D02*
X285083Y-154625D02*
X290917Y-154625D01*
X290917Y-152375D01*
X285083Y-152375D01*
X285083Y-154625D01*D02*
X285083Y-143625D02*
X290917Y-143625D01*
X290917Y-141375D01*
X285083Y-141375D01*
X285083Y-143625D01*D02*
X282990Y-125620D02*
X278865Y-121495D01*
X277273Y-123087D01*
X281399Y-127212D01*
X282990Y-125620D01*D02*
X275212Y-133399D02*
X271087Y-129273D01*
X269495Y-130865D01*
X273620Y-134990D01*
X275212Y-133399D01*D02*
X246748Y-125378D02*
X242622Y-121252D01*
X241031Y-122844D01*
X245156Y-126969D01*
X246748Y-125378D01*D02*
X238969Y-133156D02*
X234844Y-129031D01*
X233252Y-130622D01*
X237378Y-134748D01*
X238969Y-133156D01*D02*
X275083Y-83625D02*
X280917Y-83625D01*
X280917Y-81375D01*
X275083Y-81375D01*
X275083Y-83625D01*D02*
X275083Y-94625D02*
X280917Y-94625D01*
X280917Y-92375D01*
X275083Y-92375D01*
X275083Y-94625D01*D02*
X385083Y8375D02*
X390917Y8375D01*
X390917Y10625D01*
X385083Y10625D01*
X385083Y8375D01*D02*
X385083Y-2625D02*
X390917Y-2625D01*
X390917Y-375D01*
X385083Y-375D01*
X385083Y-2625D01*D02*
X233375Y-34917D02*
X235625Y-34917D01*
X235625Y-29083D01*
X233375Y-29083D01*
X233375Y-34917D01*D02*
X244375Y-34917D02*
X246625Y-34917D01*
X246625Y-29083D01*
X244375Y-29083D01*
X244375Y-34917D01*D02*
X221083Y-45625D02*
X226917Y-45625D01*
X226917Y-43375D01*
X221083Y-43375D01*
X221083Y-45625D01*D02*
X221083Y-56625D02*
X226917Y-56625D01*
X226917Y-54375D01*
X221083Y-54375D01*
X221083Y-56625D01*D02*
X329833Y-161000D02*
X332167Y-161000D01*
X332167Y-158666D01*
X329833Y-158666D01*
X329833Y-161000D01*D02*
X329833Y-169334D02*
X332167Y-169334D01*
X332167Y-167000D01*
X329833Y-167000D01*
X329833Y-169334D01*D02*
X339833Y-165167D02*
X342167Y-165167D01*
X342167Y-162833D01*
X339833Y-162833D01*
X339833Y-165167D01*D02*
X357833Y-161000D02*
X360167Y-161000D01*
X360167Y-158666D01*
X357833Y-158666D01*
X357833Y-161000D01*D02*
X357833Y-169334D02*
X360167Y-169334D01*
X360167Y-167000D01*
X357833Y-167000D01*
X357833Y-169334D01*D02*
X367833Y-165167D02*
X370167Y-165167D01*
X370167Y-162833D01*
X367833Y-162833D01*
X367833Y-165167D01*D02*
X325083Y-190625D02*
X330917Y-190625D01*
X330917Y-188375D01*
X325083Y-188375D01*
X325083Y-190625D01*D02*
X325083Y-179625D02*
X330917Y-179625D01*
X330917Y-177375D01*
X325083Y-177375D01*
X325083Y-179625D01*D02*
X337083Y-190625D02*
X342917Y-190625D01*
X342917Y-188375D01*
X337083Y-188375D01*
X337083Y-190625D01*D02*
X337083Y-179625D02*
X342917Y-179625D01*
X342917Y-177375D01*
X337083Y-177375D01*
X337083Y-179625D01*D02*
X355083Y-179625D02*
X360917Y-179625D01*
X360917Y-177375D01*
X355083Y-177375D01*
X355083Y-179625D01*D02*
X355083Y-190625D02*
X360917Y-190625D01*
X360917Y-188375D01*
X355083Y-188375D01*
X355083Y-190625D01*D02*
X367083Y-179625D02*
X372917Y-179625D01*
X372917Y-177375D01*
X367083Y-177375D01*
X367083Y-179625D01*D02*
X367083Y-190625D02*
X372917Y-190625D01*
X372917Y-188375D01*
X367083Y-188375D01*
X367083Y-190625D01*D02*
X375083Y-154625D02*
X380917Y-154625D01*
X380917Y-152375D01*
X375083Y-152375D01*
X375083Y-154625D01*D02*
X375083Y-143625D02*
X380917Y-143625D01*
X380917Y-141375D01*
X375083Y-141375D01*
X375083Y-143625D01*D02*
X387083Y-154625D02*
X392917Y-154625D01*
X392917Y-152375D01*
X387083Y-152375D01*
X387083Y-154625D01*D02*
X387083Y-143625D02*
X392917Y-143625D01*
X392917Y-141375D01*
X387083Y-141375D01*
X387083Y-143625D01*D02*
X356375Y-122917D02*
X358625Y-122917D01*
X358625Y-117083D01*
X356375Y-117083D01*
X356375Y-122917D01*D02*
X345375Y-122917D02*
X347625Y-122917D01*
X347625Y-117083D01*
X345375Y-117083D01*
X345375Y-122917D01*D02*
X305083Y-101625D02*
X310917Y-101625D01*
X310917Y-99375D01*
X305083Y-99375D01*
X305083Y-101625D01*D02*
X305083Y-112625D02*
X310917Y-112625D01*
X310917Y-110375D01*
X305083Y-110375D01*
X305083Y-112625D01*D02*
X317083Y-112625D02*
X322917Y-112625D01*
X322917Y-110375D01*
X317083Y-110375D01*
X317083Y-112625D01*D02*
X317083Y-101625D02*
X322917Y-101625D01*
X322917Y-99375D01*
X317083Y-99375D01*
X317083Y-101625D01*D02*
X301083Y8375D02*
X306917Y8375D01*
X306917Y10625D01*
X301083Y10625D01*
X301083Y8375D01*D02*
X301083Y-2625D02*
X306917Y-2625D01*
X306917Y-375D01*
X301083Y-375D01*
X301083Y-2625D01*D02*
X313083Y8375D02*
X318917Y8375D01*
X318917Y10625D01*
X313083Y10625D01*
X313083Y8375D01*D02*
X313083Y-2625D02*
X318917Y-2625D01*
X318917Y-375D01*
X313083Y-375D01*
X313083Y-2625D01*D02*
X325083Y-2625D02*
X330917Y-2625D01*
X330917Y-375D01*
X325083Y-375D01*
X325083Y-2625D01*D02*
X325083Y8375D02*
X330917Y8375D01*
X330917Y10625D01*
X325083Y10625D01*
X325083Y8375D01*D02*
X337083Y8375D02*
X342917Y8375D01*
X342917Y10625D01*
X337083Y10625D01*
X337083Y8375D01*D02*
X337083Y-2625D02*
X342917Y-2625D01*
X342917Y-375D01*
X337083Y-375D01*
X337083Y-2625D01*D02*
X349083Y8375D02*
X354917Y8375D01*
X354917Y10625D01*
X349083Y10625D01*
X349083Y8375D01*D02*
X349083Y-2625D02*
X354917Y-2625D01*
X354917Y-375D01*
X349083Y-375D01*
X349083Y-2625D01*D02*
X371083Y39375D02*
X376917Y39375D01*
X376917Y41625D01*
X371083Y41625D01*
X371083Y39375D01*D02*
X371083Y50375D02*
X376917Y50375D01*
X376917Y52625D01*
X371083Y52625D01*
X371083Y50375D01*D02*
X383083Y39375D02*
X388917Y39375D01*
X388917Y41625D01*
X383083Y41625D01*
X383083Y39375D01*D02*
X383083Y50375D02*
X388917Y50375D01*
X388917Y52625D01*
X383083Y52625D01*
X383083Y50375D01*D02*
X309083Y84375D02*
X314917Y84375D01*
X314917Y86625D01*
X309083Y86625D01*
X309083Y84375D01*D02*
X309083Y73375D02*
X314917Y73375D01*
X314917Y75625D01*
X309083Y75625D01*
X309083Y73375D01*D02*
X321083Y73375D02*
X326917Y73375D01*
X326917Y75625D01*
X321083Y75625D01*
X321083Y73375D01*D02*
X321083Y84375D02*
X326917Y84375D01*
X326917Y86625D01*
X321083Y86625D01*
X321083Y84375D01*D02*
X333083Y84375D02*
X338917Y84375D01*
X338917Y86625D01*
X333083Y86625D01*
X333083Y84375D01*D02*
X333083Y73375D02*
X338917Y73375D01*
X338917Y75625D01*
X333083Y75625D01*
X333083Y73375D01*D02*
X345083Y73375D02*
X350917Y73375D01*
X350917Y75625D01*
X345083Y75625D01*
X345083Y73375D01*D02*
X345083Y84375D02*
X350917Y84375D01*
X350917Y86625D01*
X345083Y86625D01*
X345083Y84375D01*D02*
X357083Y73375D02*
X362917Y73375D01*
X362917Y75625D01*
X357083Y75625D01*
X357083Y73375D01*D02*
X357083Y84375D02*
X362917Y84375D01*
X362917Y86625D01*
X357083Y86625D01*
X357083Y84375D01*D02*
X369083Y73375D02*
X374917Y73375D01*
X374917Y75625D01*
X369083Y75625D01*
X369083Y73375D01*D02*
X369083Y84375D02*
X374917Y84375D01*
X374917Y86625D01*
X369083Y86625D01*
X369083Y84375D01*D02*
X393083Y78375D02*
X398917Y78375D01*
X398917Y80625D01*
X393083Y80625D01*
X393083Y78375D01*D02*
X393083Y67375D02*
X398917Y67375D01*
X398917Y69625D01*
X393083Y69625D01*
X393083Y67375D01*D02*
X451083Y-98625D02*
X456917Y-98625D01*
X456917Y-96375D01*
X451083Y-96375D01*
X451083Y-98625D01*D02*
X451083Y-87625D02*
X456917Y-87625D01*
X456917Y-85375D01*
X451083Y-85375D01*
X451083Y-87625D01*D02*
X439083Y-98625D02*
X444917Y-98625D01*
X444917Y-96375D01*
X439083Y-96375D01*
X439083Y-98625D01*D02*
X439083Y-87625D02*
X444917Y-87625D01*
X444917Y-85375D01*
X439083Y-85375D01*
X439083Y-87625D01*D02*
X317083Y50375D02*
X322917Y50375D01*
X322917Y52625D01*
X317083Y52625D01*
X317083Y50375D01*D02*
X317083Y39375D02*
X322917Y39375D01*
X322917Y41625D01*
X317083Y41625D01*
X317083Y39375D01*D02*
X384375Y-34917D02*
X386625Y-34917D01*
X386625Y-29083D01*
X384375Y-29083D01*
X384375Y-34917D01*D02*
X373375Y-34917D02*
X375625Y-34917D01*
X375625Y-29083D01*
X373375Y-29083D01*
X373375Y-34917D01*D02*
X384375Y-22917D02*
X386625Y-22917D01*
X386625Y-17083D01*
X384375Y-17083D01*
X384375Y-22917D01*D02*
X373375Y-22917D02*
X375625Y-22917D01*
X375625Y-17083D01*
X373375Y-17083D01*
X373375Y-22917D01*D02*
X381083Y78375D02*
X386917Y78375D01*
X386917Y80625D01*
X381083Y80625D01*
X381083Y78375D01*D02*
X381083Y67375D02*
X386917Y67375D01*
X386917Y69625D01*
X381083Y69625D01*
X381083Y67375D01*D02*
X297083Y-154625D02*
X302917Y-154625D01*
X302917Y-152375D01*
X297083Y-152375D01*
X297083Y-154625D01*D02*
X297083Y-143625D02*
X302917Y-143625D01*
X302917Y-141375D01*
X297083Y-141375D01*
X297083Y-143625D01*D02*
X411378Y-133252D02*
X407252Y-137378D01*
X408844Y-138969D01*
X412969Y-134844D01*
X411378Y-133252D01*D02*
X419156Y-141031D02*
X415031Y-145156D01*
X416622Y-146748D01*
X420748Y-142622D01*
X419156Y-141031D01*D02*
G54D17*
X264000Y-70500D03*
X264000Y-81500D03*
X300000Y-81500D03*
X300000Y-70500D03*
X312000Y-70500D03*
X312000Y-81500D03*
X288000Y-153500D03*
X288000Y-142500D03*
X278000Y-82500D03*
X278000Y-93500D03*
X388000Y9500D03*
X388000Y-1500D03*
X224000Y-44500D03*
X224000Y-55500D03*
X328000Y-189500D03*
X328000Y-178500D03*
X340000Y-189500D03*
X340000Y-178500D03*
X358000Y-178500D03*
X358000Y-189500D03*
X370000Y-178500D03*
X370000Y-189500D03*
X378000Y-153500D03*
X378000Y-142500D03*
X390000Y-153500D03*
X390000Y-142500D03*
X308000Y-100500D03*
X308000Y-111500D03*
X320000Y-111500D03*
X320000Y-100500D03*
X304000Y9500D03*
X304000Y-1500D03*
X316000Y9500D03*
X316000Y-1500D03*
X328000Y-1500D03*
X328000Y9500D03*
X340000Y9500D03*
X340000Y-1500D03*
X352000Y9500D03*
X352000Y-1500D03*
X374000Y40500D03*
X374000Y51500D03*
X386000Y40500D03*
X386000Y51500D03*
X312000Y85500D03*
X312000Y74500D03*
X324000Y74500D03*
X324000Y85500D03*
X336000Y85500D03*
X336000Y74500D03*
X348000Y74500D03*
X348000Y85500D03*
X360000Y74500D03*
X360000Y85500D03*
X372000Y74500D03*
X372000Y85500D03*
X396000Y79500D03*
X396000Y68500D03*
X454000Y-97500D03*
X454000Y-86500D03*
X442000Y-97500D03*
X442000Y-86500D03*
X320000Y51500D03*
X320000Y40500D03*
X384000Y79500D03*
X384000Y68500D03*
X300000Y-153500D03*
X300000Y-142500D03*
G54D18*
X234882Y-53740D03*
X245118Y-53740D03*
X234882Y-50000D03*
X234882Y-46260D03*
X245118Y-46260D03*
G54D19*
X482000Y-6000D03*
X278000Y12000D03*
X254500Y12000D03*
X364000Y9500D03*
X410000Y0D03*
X412500Y42000D03*
X304500Y33000D03*
G54D20*
X480959Y-7041D02*
X483041Y-7041D01*
X483041Y-4959D01*
X480959Y-4959D01*
X480959Y-7041D01*D02*
X245027Y-142000D02*
X246500Y-143473D01*
X247973Y-142000D01*
X246500Y-140527D01*
X245027Y-142000D01*D02*
X272577Y-165881D02*
X274381Y-166923D01*
X275423Y-165119D01*
X273619Y-164077D01*
X272577Y-165881D01*D02*
X276959Y10959D02*
X279041Y10959D01*
X279041Y13041D01*
X276959Y13041D01*
X276959Y10959D01*D02*
X253459Y10959D02*
X255541Y10959D01*
X255541Y13041D01*
X253459Y13041D01*
X253459Y10959D01*D02*
X362959Y8459D02*
X365041Y8459D01*
X365041Y10541D01*
X362959Y10541D01*
X362959Y8459D01*D02*
X408959Y-1041D02*
X411041Y-1041D01*
X411041Y1041D01*
X408959Y1041D01*
X408959Y-1041D01*D02*
X411459Y40959D02*
X413541Y40959D01*
X413541Y43041D01*
X411459Y43041D01*
X411459Y40959D01*D02*
X303459Y31959D02*
X305541Y31959D01*
X305541Y34041D01*
X303459Y34041D01*
X303459Y31959D01*D02*
X450000Y-129027D02*
X448527Y-130500D01*
X450000Y-131973D01*
X451473Y-130500D01*
X450000Y-129027D01*D02*
G54D21*
X482000Y-86000D03*
X482000Y-16000D03*
X482000Y-26000D03*
X482000Y-66000D03*
X482000Y-36000D03*
X482000Y-46000D03*
X482000Y-56000D03*
X482000Y-96000D03*
X482000Y-76000D03*
X253571Y-134929D03*
X260642Y-142000D03*
X253571Y-149071D03*
X282660Y-170500D03*
X278000Y2000D03*
X268000Y2000D03*
X268000Y12000D03*
X254500Y2000D03*
X244500Y2000D03*
X244500Y12000D03*
X364000Y-500D03*
X410000Y10000D03*
X420000Y0D03*
X420000Y10000D03*
X412500Y52000D03*
X304500Y23000D03*
X428787Y-151713D03*
X442929Y-137571D03*
X435858Y-144642D03*
G54D22*
X271735Y-115957D03*
X271558Y-115780D03*
X263957Y-123735D03*
X263780Y-123558D03*
X280220Y-124442D03*
X280043Y-124265D03*
X272442Y-132220D03*
X272265Y-132043D03*
X243978Y-124200D03*
X243800Y-124022D03*
X236200Y-131978D03*
X236022Y-131800D03*
X410200Y-136022D03*
X410022Y-136200D03*
X417978Y-143800D03*
X417800Y-143978D03*
G54D23*
X246500Y-142000D03*
X450000Y-130500D03*
G54D24*
X274000Y-165500D03*
G54D25*
X302700Y-180859D03*
X302826Y-180641D03*
X293174Y-175359D03*
X293300Y-175141D03*
G54D26*
X336323Y34583D03*
X338882Y34583D03*
X341441Y34583D03*
X344000Y34583D03*
X346559Y34583D03*
X349118Y34583D03*
X351677Y34583D03*
X338882Y57417D03*
X336323Y57417D03*
X341441Y57417D03*
X346559Y57417D03*
X344000Y57417D03*
X349118Y57417D03*
X351677Y57417D03*
G54D27*
X203919Y-46151D03*
X203919Y-54025D03*
G54D28*
X357472Y-143740D03*
X357472Y-136260D03*
X366528Y-140000D03*
X329472Y-143740D03*
X329472Y-136260D03*
X338528Y-140000D03*
G54D29*
X331000Y-159833D03*
X331000Y-168167D03*
X341000Y-164000D03*
X359000Y-159833D03*
X359000Y-168167D03*
X369000Y-164000D03*
G54D30*
X375500Y10000D03*
X398500Y42000D03*
X294500Y73500D03*
G54D31*
X407667Y-154780D03*
X408780Y-153667D03*
X419220Y-166333D03*
X420333Y-165220D03*

M02*
